<?xml version="1.0" standalone="no"?>
<!DOCTYPE svg PUBLIC "-//W3C//DTD SVG 1.1//EN" "http://www.w3.org/Graphics/SVG/1.1/DTD/svg11.dtd" >
<svg xmlns="http://www.w3.org/2000/svg" xmlns:xlink="http://www.w3.org/1999/xlink" version="1.1">
<metadata>
Created by FontForge 20170731 at Thu Feb 20 12:08:00 2020
 By Aleksey,,,
</metadata>
<defs>
<font id="icomoon" horiz-adv-x="1024" >
  <font-face 
    font-family="icomoon"
    font-weight="400"
    font-stretch="normal"
    units-per-em="1024"
    panose-1="0 0 0 0 0 0 0 0 0 0"
    ascent="960"
    descent="-64"
    bbox="-0.444444 -111 11025 960.333"
    underline-thickness="0"
    underline-position="0"
    unicode-range="U+0001-FFFD"
  />
<missing-glyph 
 />
    <glyph glyph-name=".notdef" unicode="&#xfffd;" 
 />
    <glyph glyph-name="glyph1" horiz-adv-x="0" 
d="M0 0v0v0v0z" />
    <glyph glyph-name="glyph1" horiz-adv-x="0" 
d="M0 0v0v0v0z" />
    <glyph glyph-name="nonmarkingreturn" horiz-adv-x="341" 
 />
    <glyph glyph-name="uni0001" horiz-adv-x="0" 
d="M0 0v0v0v0z" />
    <glyph glyph-name="space" unicode=" " horiz-adv-x="512" 
d="M0 0v0v0v0z" />
    <glyph glyph-name="uniE900" unicode="&#xe900;" 
d="M972 595q0 3 -0.5 4.5t-0.5 3.5v0q-1 1 -1 2t-1 2q-1 2 -2 3.5t-2 3.5q-1 0 -1.5 1t-1.5 2l-64 54l-1 208q0 12 -9 21t-22 9v0v0h-150h-0.5h-0.5q-12 0 -21.5 -9t-9.5 -22v-47l-159 122q-4 4 -9 5.5t-11 1.5q-5 0 -10 -2t-10 -5v0l-422 -335q-6 -5 -9 -11t-3 -13v-627
q0 -13 9.5 -22t22.5 -9h310q13 0 22 9t9 22v261h176v-261q0 -13 9 -22t22 -9h310h0.5h0.5q13 0 22 9t9 22v627v0.5t-1 1.5v-1z" />
    <glyph glyph-name="uniE901" unicode="&#xe901;" 
d="M663 -3v261q0 13 -9.5 22t-22.5 9h-238q-13 0 -22.5 -9t-9.5 -22v-261h-247v582l392 311l404 -311v-582h-247v0zM834 848l1 -133l-88 67v66h87v0zM972 595q0 2 -0.5 4t-0.5 4q-1 1 -1 2t-1 2q-1 2 -2 3.5t-2 3.5q-1 0 -1.5 1t-1.5 2l-64 54l-1 208q0 12 -9 21t-22 9h-150
q-13 0 -22.5 -9t-9.5 -22v-47l-159 122q-9 7 -20 7t-20 -7l-422 -335q-6 -5 -9 -11t-3 -13v-627q0 -13 9.5 -22t22.5 -9h310q13 0 22 9t9 22v261h176v-261q0 -13 9 -22t22 -9h310q13 0 22.5 9t9.5 22v627v0.5v0.5v0h-1z" />
    <glyph glyph-name="uniE902" unicode="&#xe902;" 
d="M864 640q-26 0 -45 -19t-19 -45v-256q0 -26 19 -45t45 -19t45 19t19 45v256q0 26 -19 45t-45 19zM96 640q-26 0 -45 -19t-19 -45v-256q0 -26 19 -45t45 -19t45 19t19 45v256q0 26 -19 45t-45 19zM192 224q0 -40 28 -68t68 -28h32v-128q0 -26 19 -45t45 -19t45 19t19 45
v128h64v-128q0 -26 19 -45t45 -19t45 19t19 45v128h32q40 0 68 28t28 68v352h-576v-352zM599 870l40 78q2 3 1 6.5t-4 4.5q-3 2 -6.5 1t-4.5 -4l-41 -79q-24 9 -50.5 14t-53.5 5t-53.5 -5t-50.5 -14l-41 79q-1 3 -4.5 4t-6.5 -1q-3 -1 -4 -4.5t1 -6.5l40 -78
q-68 -30 -113.5 -91.5t-53.5 -138.5h572q-8 77 -53.5 138.5t-113.5 91.5v0zM352 690q-19 0 -32.5 13.5t-13.5 32.5t13.5 32.5t32.5 13.5t32.5 -13.5t13.5 -32.5t-13.5 -32.5t-32.5 -13.5zM608 690q-19 0 -32.5 13.5t-13.5 32.5t13.5 32.5t32.5 13.5t32.5 -13.5t13.5 -32.5
t-13.5 -32.5t-32.5 -13.5z" />
    <glyph glyph-name="uniE903" unicode="&#xe903;" 
d="M403 813l-320 -320q-19 -18 -19 -45t19 -45l320 -320q18 -19 45 -19t45 19q19 18 19 45t-19 45l-211 211h614q27 0 45.5 18.5t18.5 45.5t-18.5 45.5t-45.5 18.5h-614l211 211q10 9 14.5 21t4.5 24t-4.5 24t-14.5 21q-18 19 -45 19t-45 -19z" />
    <glyph glyph-name="uniE904" unicode="&#xe904;" 
d="M621 83l320 320q19 18 19 45t-19 45l-320 320q-18 19 -45 19t-45 -19q-19 -18 -19 -45t19 -45l211 -211h-614q-27 0 -45.5 -18.5t-18.5 -45.5t18.5 -45.5t45.5 -18.5h614l-211 -211q-10 -9 -14.5 -21t-4.5 -24t4.5 -24t14.5 -21q18 -19 45 -19t45 19v0z" />
    <glyph glyph-name="uniE905" unicode="&#xe905;" horiz-adv-x="1312" 
d="M390 796l-32 163h-327v-65h273l120 -621h716h1h1l66 245l75 273h-2l2 5h-893v0zM1019 -53q51 0 87 35t36 84q0 50 -36 85t-87 35q-50 0 -86 -35t-36 -85q0 -49 36 -84t86 -35v0zM554 -53q50 0 86 35t36 84q0 50 -36 85t-86 35q-51 0 -87 -35t-36 -85q0 -49 36 -84t87 -35
v0z" />
    <glyph glyph-name="uniE906" unicode="&#xe906;" horiz-adv-x="1312" 
d="M1091 338h-613l-120 621h-327v-65h273l120 -621h716l143 518h-762v-65h676l-106 -388v0zM1019 -53q51 0 87 35t36 84q0 50 -36 85t-87 35q-50 0 -86 -35t-36 -85q0 -49 36 -84t86 -35v0zM1019 12q-24 0 -40.5 16t-16.5 38t16.5 38t40.5 16t40.5 -16t16.5 -38t-16.5 -38
t-40.5 -16zM554 -53q50 0 86 35t36 84q0 50 -36 85t-86 35q-51 0 -87 -35t-36 -85q0 -49 36 -84t87 -35v0zM554 12q-24 0 -40.5 16t-16.5 38t16.5 38t40.5 16t40.5 -16t16.5 -38t-16.5 -38t-40.5 -16z" />
    <glyph glyph-name="uniE907" unicode="&#xe907;" horiz-adv-x="768" 
d="M533 843v77q0 17 -45 28.5t-108 11.5t-108 -11.5t-45 -28.5v-77q-100 -14 -163.5 -42.5t-63.5 -63.5v-702q0 -20 30 -38t81.5 -31.5t120.5 -21.5t148 -8t148 8t120.5 21.5t81.5 31.5t30 38v702q0 35 -63.5 63.5t-163.5 41.5v1z" />
    <glyph glyph-name="uniE908" unicode="&#xe908;" horiz-adv-x="544" 
d="M413 808v104q0 20 -43.5 34t-105.5 14q-61 0 -104.5 -14t-43.5 -34v-104q-53 -19 -84.5 -49t-31.5 -65v-640q0 -24 21 -46q21 -21 56.5 -37t83.5 -26q49 -9 103 -9q55 0 103 9q48 10 84 26t57 37q21 22 21 46v640q0 35 -32 65t-84 49v0z" />
    <glyph glyph-name="uniE909" unicode="&#xe909;" horiz-adv-x="672" 
d="M683 473q-2 40 -38 74t-95 57v288q0 28 -61 48t-148 20q-86 0 -147 -20t-61 -48v-288q-60 -23 -95.5 -57t-37.5 -74v0v-426q0 -23 27 -43t73 -35.5t108 -23.5q63 -9 133 -9q71 0 133 9q62 8 108.5 23.5t73.5 35.5t27 43v426v0v0z" />
    <glyph glyph-name="uniE90A" unicode="&#xe90a;" 
d="M10 636h471v-193h62v193h471v-690h-1004v690v0zM10 699l59 62h412v-62h-471v0zM128 824l119 126h530l119 -126h-768v0zM955 761l59 -62h-471v62h412z" />
    <glyph glyph-name="uniE90B" unicode="&#xe90b;" 
d="M163 761l-55 -62h373v62h-318v0zM219 824h586l-56 63h-474l-56 -63v0zM861 761h-318v-62h373l-55 62v0zM481 636h-408v-627h878v627h-408v-193h-62v193v0zM1014 699v-753h-1004v753l237 251h530l237 -251v0z" />
    <glyph glyph-name="uniE90C" unicode="&#xe90c;" 
d="M64 768h896v-192h-896v192zM64 512h896v-192h-896v192zM64 256h896v-192h-896v192z" />
    <glyph glyph-name="uniE90D" unicode="&#xe90d;" horiz-adv-x="1792" 
d="M993 831l724 -724l-121 -121l-724 724l-724 -724l-121 121l845 844l121 -120v0z" />
    <glyph glyph-name="uniE90E" unicode="&#xe90e;" horiz-adv-x="1696" 
d="M724 115l-724 724l121 121l724 -724l724 724l121 -121l-845 -844l-121 120v0z" />
    <glyph glyph-name="uniE90F" unicode="&#xe90f;" horiz-adv-x="640" 
d="M112 502l414 414l69 -69l-414 -414l414 -413l-69 -69l-483 482l69 69v0z" />
    <glyph glyph-name="uniE910" unicode="&#xe910;" horiz-adv-x="608" 
d="M537 376l-435 -435l-72 73l434 434l-434 434l72 73l507 -507z" />
    <glyph glyph-name="uniE911" unicode="&#xe911;" 
d="M431 457l-408 407l91 91l407 -407l407 407l91 -91l-407 -407l407 -407l-91 -91l-407 408l-407 -408l-91 91l408 407v0z" />
    <glyph glyph-name="uniE912" unicode="&#xe912;" horiz-adv-x="960" 
d="M680 124q8 48 45.5 80.5t87.5 32.5q56 0 95.5 -39.5t39.5 -95.5t-39.5 -95.5t-95.5 -39.5q-44 0 -78.5 25t-48.5 65h-683v67h677v0zM586 484h362v-67h-367q-14 -40 -49 -65t-79 -25t-78.5 25t-48.5 65h-323v67h317q8 48 45.5 80.5t87.5 32.5t87.5 -32.5t45.5 -80.5v0z
M271 845h677v-68h-683q-14 -39 -48.5 -64.5t-78.5 -25.5q-56 0 -95.5 39.5t-39.5 95.5t39.5 95.5t95.5 39.5q50 0 87.5 -32.5t45.5 -79.5v0zM138 764q24 0 41 17t17 41t-17 41t-41 17t-41 -17t-17 -41t17 -41t41 -17zM453 404q24 0 41 17t17 41t-17 41t-41 17t-41 -17
t-17 -41t17 -41t41 -17zM813 44q24 0 41 17t17 41t-17 41t-41 17t-41 -17t-17 -41t17 -41t41 -17z" />
    <glyph glyph-name="uniE913" unicode="&#xe913;" horiz-adv-x="1120" 
d="M303 923q3 0 7 0.5t8 0.5q40 0 77 -10.5t69 -29.5l-1 1q26 -15 48.5 -36.5t41.5 -48.5q19 27 41.5 48.5t48.5 36.5q31 18 68 28.5t77 10.5q4 0 8 -0.5t8 -0.5h-1q61 -3 117 -31t97 -76q38 -45 58 -103t20 -122q0 -49 -15 -99.5t-44 -100.5q-23 -41 -54 -79.5t-72 -79.5
q-37 -38 -77 -72q-40 -35 -82 -66.5t-87 -60.5q-44 -28 -91 -54l-7 -3q-3 -2 -6.5 -2.5t-6.5 -0.5t-6.5 0.5t-6.5 2.5v0q-49 26 -95 56q-46 29 -89 61t-83 66q-40 35 -77 72v1q-41 41 -72 79.5t-54 79.5q-29 50 -44 100.5t-15 99.5q0 64 20 122.5t58 103.5q41 47 97 75
t117 31v0z" />
    <glyph glyph-name="uniE914" unicode="&#xe914;" horiz-adv-x="1120" 
d="M303 923q3 0 7 0.5t8 0.5q40 0 77 -10.5t69 -29.5l-1 1q26 -15 48.5 -36.5t41.5 -48.5q19 27 41.5 48.5t48.5 36.5q31 18 68 28.5t77 10.5q4 0 8 -0.5t8 -0.5h-1q61 -3 117 -31t97 -76q38 -45 58 -103t20 -122q0 -49 -15 -99.5t-44 -100.5q-23 -41 -54 -79.5t-72 -79.5
q-37 -38 -77 -72q-40 -35 -82 -66.5t-87 -60.5q-44 -28 -91 -54l-7 -3q-3 -2 -6.5 -2.5t-6.5 -0.5t-6.5 0.5t-6.5 2.5v0q-49 26 -95 56q-46 29 -89 61t-83 66q-40 35 -77 72v1q-41 41 -72 79.5t-54 79.5q-29 50 -44 100.5t-15 99.5q0 64 20 122.5t58 103.5q41 47 97 75
t117 31v0zM871 270q39 39 67.5 75t50.5 73q25 45 38.5 88.5t13.5 84.5q0 54 -16.5 103.5t-49.5 86.5q-33 39 -79 62t-96 26h-5h-6q-33 0 -63.5 -8.5t-56.5 -23.5h1q-30 -17 -53.5 -41.5t-38.5 -54.5l-1 -1q-3 -7 -9.5 -11t-14.5 -4t-14.5 4t-9.5 11v0q-16 31 -39.5 55.5
t-52.5 41.5h-1q-26 15 -56 23.5t-63 8.5h-6h-6h1q-50 -3 -96 -26t-80 -62q-32 -37 -48.5 -86.5t-16.5 -103.5q0 -41 13.5 -84.5t38.5 -88.5q21 -37 50 -73t68 -75q34 -35 71 -67t76 -61.5t80 -55.5q41 -27 84 -51l7 -3q46 25 88 52q43 27 82.5 57t76.5 62t71 67v0v0z" />
    <glyph glyph-name="uniE915" unicode="&#xe915;" horiz-adv-x="896" 
d="M461 -42l-13 -7l-13 7q-3 2 -7.5 4.5t-10.5 6.5q-52 32 -98 68t-87 76v0q-47 47 -85 98q-38 50 -64.5 104.5t-40.5 111.5q-14 58 -14 119q0 84 33 159q33 74 90 129.5t134 87.5q76 32 163 32t163 -32q77 -32 134 -87.5t90 -129.5q33 -75 33 -159q0 -61 -14 -118
q-14 -58 -40.5 -112t-64.5 -104q-38 -51 -85 -98q-41 -41 -86 -76.5t-94 -66.5l-5 -2q-6 -4 -10.5 -6.5t-7.5 -4.5v0zM448 391q65 0 111.5 45t46.5 110q0 64 -46.5 109t-111.5 45t-111.5 -45t-46.5 -109q0 -65 46.5 -110t111.5 -45v0z" />
    <glyph glyph-name="uniE916" unicode="&#xe916;" horiz-adv-x="896" 
d="M448 391q-65 0 -111.5 45t-46.5 110q0 64 46.5 109t111.5 45t111.5 -45t46.5 -109q0 -65 -46.5 -110t-111.5 -45v0zM448 446q43 0 73 29.5t30 70.5t-30 70t-73 29t-73 -29t-30 -70t30 -70.5t73 -29.5zM461 -42l-13 -7l-13 7q-3 2 -7.5 4.5t-10.5 6.5q-52 32 -98 68
t-87 76v0q-47 47 -85 98q-38 50 -64.5 104.5t-40.5 111.5q-14 58 -14 119q0 84 33 159q33 74 90 129.5t134 87.5q76 32 163 32t163 -32q77 -32 134 -87.5t90 -129.5q33 -75 33 -159q0 -61 -14 -118q-14 -58 -40.5 -112t-64.5 -104q-38 -51 -85 -98q-41 -41 -86 -76.5
t-94 -66.5l-5 -2q-6 -4 -10.5 -6.5t-7.5 -4.5v0zM403 44q13 -9 24.5 -16.5t20.5 -12.5q50 31 94 65.5t83 72.5h-1q45 44 79 90q35 47 59.5 96t36.5 101q13 52 13 106q0 73 -28 137q-29 64 -78.5 112t-115.5 76t-142 28q-75 0 -142 -28q-66 -28 -115.5 -76t-78.5 -112
q-28 -64 -28 -137q0 -55 13 -107q12 -52 36.5 -101t59.5 -96q34 -46 79 -90q29 -29 61 -55.5t66 -50.5l4 -2v0z" />
    <glyph glyph-name="uniE917" unicode="&#xe917;" horiz-adv-x="896" 
d="M437 399q-91 0 -170 -31q-80 -31 -139 -85t-94 -126q-34 -72 -34 -154v-26h873v26q0 82 -34 154q-35 72 -94 126t-139 85q-79 31 -169 31zM438 470q50 0 95 20q45 19 78 52t52 78q20 44 20 95t-20 95q-19 45 -52 78.5t-78 52.5t-95 19q-51 0 -96 -19q-44 -19 -77.5 -52.5
t-52.5 -78.5q-19 -44 -19 -95t19 -95q19 -45 52.5 -78t77.5 -52q45 -20 96 -20z" />
    <glyph glyph-name="uniE918" unicode="&#xe918;" horiz-adv-x="918" 
d="M452 942v0v0q50 0 94 -19t77 -52t52 -77t19 -94v0v0v0v0v0q0 -51 -19 -95t-52 -77t-77 -52t-94 -19v0v0v0v0v0q-51 0 -95 19t-77 52t-52 77t-19 95v0v0v0v0v0q0 50 19 94t52 77t77 52t95 19v0v0v0zM452 889q-79 0 -134.5 -55.5t-55.5 -133.5v0q0 -79 55.5 -134.5
t134.5 -55.5v0q78 0 133.5 55.5t55.5 134.5v0q0 78 -55.5 133.5t-133.5 55.5v0v0zM71 -6v-26h-53v26q0 81 34 153q34 71 92.5 124.5t137.5 83.5q79 31 168 31q90 0 169 -31q78 -30 137 -83.5t93 -124.5q34 -72 34 -153v-27h-53v27q0 70 -30 132q-29 61 -80.5 107.5
t-120.5 72.5q-70 27 -149 27q-78 0 -148 -27q-69 -26 -120.5 -72.5t-81.5 -107.5q-29 -62 -29 -132v0v0z" />
    <glyph glyph-name="uniE919" unicode="&#xe919;" 
d="M532 508q1 -2 2.5 -4t2.5 -4v0q-1 2 -2.5 4t-2.5 4zM532 508q-1 2 -1.5 4t-0.5 5q0 -3 0.5 -5t1.5 -4zM668 334q-4 -4 -8 -5.5t-9 -1.5t-9 1.5t-8 5.5l-97 97q-1 1 -2.5 3t-2.5 4t-1.5 4.5t-0.5 4.5v242q0 10 7 17t17 7t17 -7t7 -17v-232l90 -90q7 -7 7 -16.5t-7 -16.5v0
zM554 880q-11 0 -21.5 -0.5t-21.5 -1.5q-3 -1 -6 -1.5t-6 -0.5q-8 -1 -15.5 -2t-14.5 -3q-3 0 -6.5 -1t-6.5 -2q-7 -2 -14 -3.5t-14 -3.5q-3 -1 -6.5 -2t-6.5 -3q-6 -2 -12.5 -4t-13.5 -5q-3 -1 -6 -2.5l-7 -3.5q-6 -3 -12 -5.5t-12 -5.5l-6 -4l-6 -4q-6 -3 -11.5 -6.5
t-11.5 -6.5q-3 -2 -6 -4.5t-6 -4.5q-5 -3 -10 -7l-10 -8q-3 -2 -6.5 -5t-6.5 -5q-4 -4 -8.5 -8t-8.5 -8l-6.5 -6.5l-6.5 -6.5q-4 -4 -7.5 -8t-6.5 -8q-4 -4 -7 -7.5t-6 -7.5t-6 -7.5t-5 -7.5q-4 -5 -7 -9.5t-6 -9.5q-2 -3 -4 -6.5t-4 -6.5q-4 -6 -7 -11.5t-6 -10.5
q-1 -3 -2.5 -6t-2.5 -6q-3 -6 -6 -12.5t-6 -13.5q-1 -2 -1.5 -3.5t-1.5 -3.5q-10 -27 -17 -55t-9 -57l-81 117q-5 8 -15 10t-18 -4q-8 -5 -9.5 -14.5t3.5 -17.5l119 -170q-1 13 -1 27v14l49 33v0v0l113 78q8 5 17.5 3.5t15.5 -9.5q3 -5 3.5 -9.5t-0.5 -8.5q0 -5 -2.5 -9
t-6.5 -7l-163 -111q-3 -3 -6.5 -4t-6.5 -1t-6 1t-6 3q2 -14 4 -27t5 -26l44 9q3 -11 6.5 -23t7.5 -24l-43 -15q4 -13 9.5 -25.5t11.5 -25.5l41 21q5 -11 11.5 -21.5t13.5 -20.5l-38 -26q7 -11 15.5 -22t17.5 -22l35 31q8 -9 16.5 -18t17.5 -17l-30 -34q10 -10 21.5 -18.5
t23.5 -16.5h-1q28 -19 58.5 -33.5t62.5 -23.5q2 0 3.5 -0.5t3.5 -1.5q7 -2 14 -3.5t14 -2.5q3 -1 6 -1.5t5 -0.5q7 -2 13.5 -2.5t13.5 -1.5q3 -1 5.5 -1h5.5q9 -1 18.5 -1.5t18.5 -0.5q90 0 168 34q79 34 137.5 92.5t92.5 137.5t34 168q0 90 -34 169q-34 78 -92.5 137
t-137.5 93q-78 34 -168 34v0z" />
    <glyph glyph-name="uniE91A" unicode="&#xe91a;" 
d="M554 425q-10 0 -17 7t-7 17v242q0 10 7 16.5t17 6.5t17 -6.5t7 -16.5v-242q0 -10 -7 -17t-17 -7zM651 328q-4 0 -8.5 2t-8.5 5l-97 97q-7 7 -7 16.5t7 16.5t17 7t17 -7l97 -97q7 -6 7 -16t-7 -17q-4 -3 -8 -5t-9 -2v0zM135 408q-6 0 -11 3t-8 8q-6 8 -4 17.5t10 15.5
l162 111q8 6 17.5 4t15.5 -10q5 -8 3.5 -17.5t-9.5 -15.5l-163 -111q-3 -2 -6 -3.5t-7 -1.5v0zM135 408q-6 0 -11 3t-8 8l-112 162q-5 8 -3.5 17.5t9.5 15.5q8 5 18 3.5t15 -9.5l112 -163q5 -8 3.5 -17.5t-10.5 -14.5q-3 -2 -6 -3.5t-7 -1.5v0zM264 194l-36 -31q2 -1 3 -2.5
t2 -3.5h1v0v-1v0v0h0.5h0.5v0v0v0v-1v0v0v0v0v0h1v0v0v0v0v-1v0v0v0v0v0v0h0.5h0.5v0v0v0v0v0v-1v0v0v0v0v0v0v0h1v0v0v-0.5v-0.5v0v0v0v0v0v0h0.5h0.5v0v0v0v-1v0v0v0v0v0v0v0h1v0v0v0v-0.5v-0.5v0v0v0v0v0v0h1v0v0v-0.5v-0.5v0v0v0v0v0v0h0.5h0.5v0v-1v0v0v0v0l7 -7l6 -6
q1 0 1 -0.5v-0.5v0v0h0.5h0.5v0v0v-1v0v0v0h1v0v0v-0.5v-0.5v0v0v0v0h0.5h0.5v0v0v0v-0.5v-0.5v0v0v0h0.5h0.5v0v0v0v0v0v-0.5v-0.5v0v0v0v0h1v0v0v0l3 -3l3 -3l31 36q-9 8 -17.5 16.5t-16.5 18.5v-1zM209 276l-42 -22v0v0v0v0v0v-0.5v-0.5v0v0v0v0h1v-1v0v0v0v0v0v-1v0v0v0
v0h1v0v0v0v0v-1v0v0v0v0v0v0v0v0v-0.5v-0.5v0v0v0h1v0v0v-1v0v0v0v0v0v0v0v0v-0.5v-0.5v0v0v0v0v0h0.5h0.5v0v0v-1v0v0v0v0v0v0v0v-1v0v0v0v0h0.5h0.5v0v0v-0.5v-0.5v0v0v0v0v0v0v0v-1v0v0v0v0h0.5h0.5v0v0v-1v0v0v0v0v0v0v0v0v0v-0.5v-0.5h1v0v0v0v0v0v0v0v-1v0v0v0v0v0v0
v0v0v0v-1v0h0.5h0.5v0v0v0v0v0v0v-0.5v-0.5v0v0v0v0v0v0v0l0.5 -0.5l0.5 -0.5v0v0v0v0v0v0v0v-1v0v0v0v0v0v0v0h0.5t0.5 -1v0v0v0v0v0v0v0v-0.5v-0.5v0v0v0v0v0h1v0v0v0v-1v0v0v0v0v0v0q0 -1 0.5 -1h0.5v0v0v0v0v-1v0v0v0l0.5 -0.5l0.5 -0.5v0v0v-1v0l0.5 -0.5l0.5 -0.5
q3 -5 6.5 -10.5t6.5 -10.5l40 26q-7 10 -13.5 21t-11.5 22v0zM177 368l-47 -10q1 -2 1 -3.5t1 -3.5v0v0v0v0v-1v0v0v0v0v0v0v0v0v0v0v0v-1v0v0v0v0v0v0v0v0v0v0v0v-1v0v0v0v0v0v0h1v0v0v-1v0v0v0v0v0v0v0v0v0v0v-1v0v0v0q2 -10 5 -20.5t7 -20.5l45 16q-4 11 -7.5 23t-6.5 24
h1zM554 16q-65 0 -126.5 19t-115.5 55l27 39q47 -32 102 -49t113 -17q80 0 150 31q70 30 122.5 82.5t82.5 122.5t30 150q0 79 -30 150q-30 70 -82.5 122t-122.5 83q-70 30 -150 30t-150 -30q-70 -31 -122.5 -83t-82.5 -122q-30 -71 -30 -150h-47q0 89 34 168t92.5 137.5
t137.5 92.5t168 34t168 -34t137.5 -92.5t92.5 -137.5q35 -79 35 -168q0 -90 -35 -169q-34 -78 -92.5 -137t-137.5 -93t-168 -34v0z" />
    <glyph glyph-name="uniE91B" unicode="&#xe91b;" 
d="M549 303v-96q0 -15 -11 -25.5t-26 -10.5q-14 0 -25 10.5t-11 25.5v96q-8 7 -12.5 17t-4.5 22q0 22 15.5 37t37.5 15q23 0 38.5 -15t15.5 -37q0 -12 -4.5 -22t-12.5 -17v0zM949 593h-623v138q1 71 55.5 121.5t130.5 50.5q77 0 131.5 -51t54.5 -123v-28h58v28q0 48 -20 90
q-19 42 -52 73.5t-77 49.5q-45 18 -95 18t-94 -18t-77 -49t-53 -72q-19 -42 -20 -89v-139h-193q-12 0 -20.5 -8.5t-8.5 -20.5v-505q0 -51 37 -87t89 -36h680q52 0 88.5 36t36.5 87v505q0 12 -8.5 20.5t-19.5 8.5v0z" />
    <glyph glyph-name="uniE91C" unicode="&#xe91c;" 
d="M920 59q0 -27 -20 -46.5t-48 -19.5h-680q-28 0 -48 19.5t-20 46.5v477h816v-477v0zM949 593h-623v138q1 71 55.5 121.5t130.5 50.5q77 0 131.5 -51t54.5 -123v-28h58v28q0 48 -20 90q-19 42 -52 73.5t-77 49.5q-45 18 -95 18t-94 -18t-77 -49t-53 -72q-19 -42 -20 -89
v-139h-193q-12 0 -20.5 -8.5t-8.5 -20.5v-505q0 -51 37 -87t89 -36h680q52 0 88.5 36t36.5 87v505q0 12 -8 20.5t-20 8.5v0v0zM512 394q23 0 38.5 -15t15.5 -37q0 -12 -4.5 -22t-13.5 -17v-96q0 -15 -10.5 -25.5t-25.5 -10.5q-14 0 -25 10.5t-11 25.5v96q-8 7 -12.5 17
t-4.5 22q0 22 15.5 37t37.5 15v0v0zM419 207q0 -38 27.5 -65.5t65.5 -27.5q39 0 66.5 27.5t27.5 65.5v76q9 13 13.5 28t4.5 31q0 45 -33 77t-79 32t-78.5 -32t-32.5 -77q0 -16 4.5 -31t13.5 -28v-76v0z" />
    <glyph glyph-name="uniE91D" unicode="&#xe91d;" 
d="M949 372h-159q-31 0 -53 22t-22 53q0 32 23 54.5t55 22.5h156v-152v0zM170 678q0 11 7.5 19t18.5 8h686v-53h-686q-11 0 -18.5 8t-7.5 18v0v0zM975 576h-41v174q0 32 -22.5 54t-54.5 22h-758q-31 0 -54 -22t-23 -54v-604q0 -32 23 -54t54 -22h758q32 0 54.5 22t22.5 54
v174h41q11 0 19 7.5t8 18.5v204q0 11 -8 18.5t-19 7.5v0v0zM795 490q-18 0 -30 -12.5t-12 -29.5t12 -29.5t30 -12.5q17 0 29.5 12.5t12.5 29.5t-12.5 29.5t-29.5 12.5v0z" />
    <glyph glyph-name="uniE91E" unicode="&#xe91e;" 
d="M949 372h-159q-31 0 -53 22t-22 53q0 32 23 54.5t55 22.5h156v-152v0zM882 146q0 -10 -7.5 -17t-17.5 -7h-758q-10 0 -17 7t-7 17v604q0 10 7 17t17 7h758q10 0 17.5 -7t7.5 -17v-21q0 -10 -7.5 -17t-17.5 -7h-661q-11 0 -18.5 -8t-7.5 -19q0 -10 7.5 -18t18.5 -8h661
q7 0 13 1.5t12 3.5v-81h-89q-54 0 -92.5 -38t-38.5 -91t37.5 -90t90.5 -37h92v-174v0zM975 576h-41v174q0 32 -22.5 54t-54.5 22h-758q-31 0 -54 -22t-23 -54v-604q0 -32 23 -54t54 -22h758q32 0 54.5 22t22.5 54v174h41q11 0 19 7.5t8 18.5v204q0 11 -8 18.5t-19 7.5v0v0z
M795 490q-18 0 -30 -12.5t-12 -29.5t12 -29.5t30 -12.5q17 0 29.5 12.5t12.5 29.5t-12.5 29.5t-29.5 12.5v0z" />
    <glyph glyph-name="uniE91F" unicode="&#xe91f;" 
d="M563 499h461v-102h-461v-461h-102v461h-461v102h461v461h102v-461v0z" />
    <glyph glyph-name="uniE920" unicode="&#xe920;" horiz-adv-x="1044" 
d="M968 40q22 0 37 -15t15 -37t-15 -37t-37 -15q-21 0 -36.5 15t-15.5 37t15.5 37t36.5 15zM1011 -12q0 18 -12.5 31t-30.5 13t-30.5 -13t-12.5 -31t12.5 -31t30.5 -13t30.5 13t12.5 31zM947 18h24q10 0 15.5 -4.5t5.5 -13.5q0 -8 -5 -12t-12 -4l18 -27h-9l-17 26h-10v-26
h-10v61v0zM967 -9q6 0 11 1.5t5 8.5q0 6 -4.5 7.5t-9.5 1.5h-12v-19h10zM351 805q16 0 26 -9.5t10 -25.5q0 -12 -7 -22.5t-19 -15.5q-38 -18 -67.5 -36t-53.5 -39q-38 -33 -66 -74.5t-47 -93.5q-4 -10 -7 -20t-6 -19l-3 -11q0 -1 -1 -2t-2 -1q-2 0 -2.5 1t-0.5 3q0 49 13 97
t36.5 92t57.5 82t77 66q7 5 14.5 10t16.5 9q8 4 16 6.5t15 2.5v0zM693 805q7 0 15 -2.5t16 -6.5t16 -9t15 -10q43 -28 77 -66t57.5 -82t36.5 -92t13 -97q0 -2 -1 -3t-2 -1t-2 1t-1 2l-2 8q-3 10 -6.5 20.5t-7.5 21.5q-19 52 -47 93.5t-66 74.5q-24 21 -53.5 39t-66.5 36
q-13 5 -20 15.5t-7 22.5q0 16 10 25.5t26 9.5v0zM389 960q9 0 16.5 -2.5t12.5 -8.5q4 -4 6.5 -10t2.5 -13q0 -9 -3.5 -16t-9.5 -12q-6 -6 -18 -11.5t-23 -10.5h-1q-24 -10 -44.5 -19.5t-45.5 -24.5q-53 -32 -95 -74q-41 -43 -70 -94t-44 -108t-15 -118q0 -96 36 -181
q37 -84 100 -147t147 -100q85 -36 181 -36t181 36q84 37 147 100t100 147q36 85 36 181q0 61 -15 118t-44 108t-71 94q-41 42 -94 74q-25 15 -45.5 24.5t-44.5 19.5l-2 1q-11 4 -22.5 9.5t-17.5 11.5q-6 5 -9 12t-3 16q0 7 2 13t7 10q4 6 11.5 8.5t16.5 2.5q12 0 27.5 -4
t34.5 -12q76 -32 136 -81q61 -50 103.5 -112.5t64.5 -137.5q23 -74 23 -154q0 -108 -41 -203q-41 -94 -112 -165t-166 -112t-203 -41t-203 41t-166 112t-112 165q-41 95 -41 203q0 80 23 154q22 74 64.5 137t103.5 113q60 49 136 81q19 8 34.5 12t27.5 4v0z" />
    <glyph glyph-name="uniE921" unicode="&#xe921;" horiz-adv-x="2394" 
d="M2367 -7q11 0 19 -8t8 -19q0 -12 -8 -20t-19 -8q-12 0 -20 8t-8 20q0 11 8 19t20 8zM2389 -34q0 9 -6.5 16t-15.5 7q-10 0 -16.5 -7t-6.5 -16q0 -10 6.5 -16.5t16.5 -6.5q9 0 15.5 6.5t6.5 16.5zM2356 -18h12q5 0 8 -2.5t3 -7.5q0 -4 -2.5 -6t-6.5 -3l9 -13h-4l-9 13h-5
v-13h-5v32v0zM2366 -32q3 0 5.5 0.5t2.5 4.5q0 3 -2 3.5t-5 0.5h-6v-9h5v0zM0 121v36h159v-36h-62v-182h-35v182h-62v0zM322 71v86h35v-218h-35v95h-93v-95h-36v218h36v-86h93zM445 38v-63h109v-36h-145v218h140v-36h-104v-48h60v-35h-60v0zM818 57q12 -5 22.5 -17t10.5 -33
q0 -33 -19.5 -50.5t-55.5 -17.5h-86v218h89q30 0 46.5 -15.5t16.5 -42.5q0 -14 -6 -24.5t-18 -17.5v0zM779 -27q18 0 27 8t9 25q0 16 -9.5 24.5t-25.5 8.5h-56v-66h55v0zM779 72q19 0 23 10.5t4 14.5q0 9 -5 17.5t-22 8.5h-55v-51h55zM974 160q41 0 66.5 -31t25.5 -81
t-25.5 -81t-66.5 -31t-66.5 31t-25.5 81t25.5 81t66.5 31v0zM973 124q-25 0 -39.5 -20.5t-14.5 -55.5q0 -34 15 -55t40 -21q26 0 41 20.5t15 55.5q0 34 -15.5 55t-41.5 21v0zM1167 157q49 0 77 -29t28 -80q0 -76 -43 -92.5t-62 -16.5h-59v218h59zM1144 121v-146h23
q43 0 56 24t13 49t-13 49t-56 24h-23v0zM1394 97l33 60h42l-77 -132v-86h-36v86l-77 132h42l33 -60q5 -9 10.5 -20t9.5 -18q3 7 9 18t11 20v0zM1639 69q29 -9 49 -22t20 -44q0 -19 -14 -43t-66 -24q-22 0 -42 9t-34 26l-2 2l26 25l1 -2q11 -11 25 -17.5t29 -6.5
q31 0 36 11.5t5 17.5q0 11 -9.5 18t-36.5 15q-31 9 -49 21t-18 44q0 27 20 44t51 17q21 0 38 -7t33 -22l1 -2l-25 -26l-2 2q-9 10 -20.5 14.5t-26.5 4.5q-16 0 -24.5 -6t-8.5 -18q0 -9 8 -15.5t36 -15.5v0zM1878 71v86h35v-218h-35v95h-93v-95h-36v218h36v-86h93zM2047 160
q41 0 66.5 -31t25.5 -81t-25.5 -81t-66.5 -31t-66.5 31t-25.5 81t25.5 81t66.5 31v0zM2046 124q-25 0 -39.5 -20.5t-14.5 -55.5q0 -34 15 -55t40 -21q26 0 40.5 20.5t14.5 55.5q0 34 -15.5 55t-40.5 21v0zM2271 157q32 0 51 -18.5t19 -50.5t-19.5 -50.5t-52.5 -18.5h-53v-80
h-35v218h90v0zM2270 53q17 0 25.5 9t8.5 26q0 16 -9 25t-25 9h-54v-69h54zM1091 861q10 0 16 -6t6 -16q0 -7 -4.5 -13.5t-11.5 -10.5q-24 -11 -42 -22.5t-33 -24.5q-24 -20 -41 -46t-29 -59l-4 -12l-4 -12l-2 -7q0 -1 -0.5 -1.5t-1.5 -0.5t-1.5 1l-0.5 1q0 62 31 119t83 93
q4 3 9 6t10 5q5 3 10 4.5t10 1.5v0zM1301 861q4 0 9 -1.5t10 -4.5q5 -2 10 -5t9 -6q53 -36 83.5 -93t30.5 -119q0 -1 -0.5 -1.5l-0.5 -0.5q-1 0 -2 0.5t-1 1.5l-1 5q-2 6 -4 13t-4 13q-12 33 -29.5 59t-41.5 46q-14 13 -32 24.5t-42 22.5q-8 4 -12.5 10.5t-4.5 13.5
q0 10 6.5 16t16.5 6v0zM1076 950q12 5 21.5 7.5t16.5 2.5q6 0 10.5 -1.5t7.5 -5.5q3 -3 4.5 -6.5t1.5 -7.5q0 -6 -2 -10.5t-6 -7.5q-4 -4 -11.5 -7.5t-13.5 -5.5l-1 -1q-15 -6 -27.5 -12t-28.5 -15q-65 -40 -101.5 -105t-36.5 -141q0 -60 22 -113q23 -53 62 -92.5t91 -62.5
q53 -22 112 -22t112 22q52 23 91 62.5t62 92.5q22 53 22 113q0 76 -36.5 141t-101.5 105q-16 9 -28.5 15t-27.5 12l-2 1q-6 3 -13 6t-11 7q-4 3 -6 7.5t-2 10.5q0 4 1.5 8t4.5 6q3 4 7.5 5.5t10.5 1.5q7 0 16.5 -2.5t21.5 -7.5q47 -20 84 -51q38 -31 64 -70t40 -86
q14 -46 14 -96q0 -67 -25 -127q-26 -59 -69.5 -103t-102.5 -70q-59 -25 -126 -25t-126 25q-58 26 -102 70t-70 103q-25 60 -25 127q0 50 14 96q14 47 40 86t64 70q37 31 84 51v0z" />
    <glyph glyph-name="uniE922" unicode="&#xe922;" 
d="M512 236q-68 0 -116.5 48.5t-48.5 116.5q0 69 48.5 117.5t116.5 48.5t116.5 -48.5t48.5 -117.5q0 -68 -48.5 -116.5t-116.5 -48.5zM972 509l-72 12q-6 18 -13 35.5t-16 34.5l42 59q14 19 12 42t-19 40l-63 63q-9 9 -20.5 14t-24.5 5q-10 0 -19.5 -3t-17.5 -9l-59 -42
q-17 9 -35.5 16.5t-36.5 13.5l-12 71q-4 22 -22 37t-41 15h-90q-23 0 -41 -15t-21 -37l-13 -73q-18 -6 -35.5 -13.5t-33.5 -15.5l-59 42q-8 6 -17.5 9t-19.5 3q-13 0 -24.5 -5t-20.5 -14l-64 -64q-16 -16 -18 -39t12 -42l42 -60q-9 -17 -16 -34.5t-12 -35.5l-71 -12
q-23 -4 -38 -21.5t-15 -41.5v-90q0 -23 15 -40.5t38 -21.5l73 -13q5 -18 12.5 -35t16.5 -34l-42 -59q-14 -19 -12 -42t19 -39l63 -64q9 -9 20.5 -14t24.5 -5q10 0 19.5 3t17.5 9l60 43q16 -9 33 -15.5t34 -12.5l12 -72q4 -23 21.5 -38t41.5 -15h90q23 0 41 15t21 38l13 72
q18 6 35.5 13t33.5 16l60 -42q8 -6 17.5 -9t18.5 -3q13 0 24.5 4.5t20.5 13.5l64 64q16 17 18 40t-11 42l-43 59q9 17 16.5 34.5t12.5 35.5l72 12q23 4 38 21.5t15 40.5v90q0 24 -14.5 41.5t-37.5 21.5v0z" />
    <glyph glyph-name="uniE923" unicode="&#xe923;" 
d="M310 747q3 0 7 1t7 3q20 12 41.5 21.5t43.5 14.5q8 3 13.5 8.5t7.5 13.5l14 87q1 2 2.5 3.5t3.5 1.5h86q2 0 3.5 -1.5t1.5 -3.5l14 -85q2 -8 7.5 -14.5t13.5 -8.5q23 -5 45 -14t43 -22q3 -2 6.5 -3t7.5 -1t8 1.5t8 4.5l70 50q1 1 2 1h1h2t2 -1l61 -61q2 -2 2 -3.5
t-1 -3.5l-51 -71q-4 -7 -4.5 -15t3.5 -15q12 -20 21 -41.5t15 -44.5q2 -8 8 -13.5t14 -6.5l86 -15q2 0 3 -1.5t1 -3.5v-86v0q0 -2 -1 -3.5t-3 -2.5l-86 -14q-8 -1 -14 -6.5t-8 -13.5q-6 -23 -15 -44.5t-21 -41.5q-4 -7 -4 -15t5 -15l51 -71q1 -2 0.5 -4t-1.5 -3l-61 -61
q-1 -1 -2 -1.5t-2 -0.5t-1.5 0.5t-1.5 0.5l-71 51q-3 2 -7 3.5t-9 1.5q-3 0 -7 -1t-7 -3q-20 -12 -41.5 -21t-44.5 -15q-8 -2 -13.5 -8t-6.5 -14l-14 -86q-1 -2 -2.5 -3t-3.5 -1h-86q-2 0 -3.5 1t-1.5 3l-15 86q-1 8 -6.5 14t-13.5 8q-22 6 -43 14.5t-41 20.5q-3 2 -6.5 2.5
t-7.5 0.5t-8 -1t-8 -4l-71 -51q-1 0 -2 -0.5l-1 -0.5q-1 0 -2 0.5t-2 1.5l-61 61q-2 1 -2 3t1 4l51 70q4 7 4.5 15.5t-3.5 15.5q-12 20 -21 41.5t-15 43.5q-2 8 -8 13.5t-14 7.5l-87 14q-2 1 -3 2.5t-1 3.5v86q0 2 1 3.5t3 1.5l86 14q8 2 14 7.5t8 13.5q6 22 14.5 44
t20.5 42q4 7 3.5 15t-5.5 15l-51 71q-1 2 -0.5 4t1.5 3l61 61q1 1 2 1.5t2 0.5t1.5 -0.5t1.5 -0.5l71 -50q3 -3 7 -4.5t9 -1.5v0zM535 956h-86q-22 0 -39 -14.5t-20 -36.5l-12 -70q-17 -5 -34 -12t-33 -16l-56 41q-8 5 -17 8t-18 3q-12 0 -23.5 -4.5t-19.5 -13.5l-61 -61
q-16 -15 -18 -37t11 -41l41 -57q-8 -16 -15 -33t-12 -34l-68 -11q-22 -4 -36.5 -21t-14.5 -39v-86q0 -23 14.5 -39.5t36.5 -20.5l70 -12q5 -17 12 -33.5t16 -32.5l-41 -57q-13 -18 -11 -40t18 -37l61 -61q8 -9 19 -13.5t24 -4.5q9 0 18 2.5t17 8.5l57 41q16 -8 32 -14.5
t33 -12.5l11 -68q4 -22 21 -36.5t39 -14.5h86q23 0 39.5 14.5t20.5 36.5l12 68q17 6 33.5 13t32.5 15l57 -41q8 -5 17 -8t18 -3q12 0 23 4.5t20 13.5l61 61q16 16 17.5 38t-10.5 40l-41 57q9 16 15.5 32.5t12.5 34.5l68 11q22 4 36.5 20.5t14.5 39.5v86q0 22 -14 39t-36 21
l-69 11q-5 18 -12 34.5t-16 32.5l41 57q13 18 11 40t-18 38l-61 61q-8 8 -19 12.5t-23 4.5q-10 0 -19 -2.5t-16 -8.5l-57 -40q-17 8 -34 15.5t-35 12.5l-12 68q-4 22 -20.5 36.5t-39.5 14.5v0zM494 677q-44 0 -82 -16q-39 -17 -67.5 -45.5t-45.5 -67.5q-16 -38 -16 -82
t16 -83q17 -38 45.5 -67t67.5 -45q38 -17 82 -17t83 17q38 16 66.5 45t45.5 67q17 39 17 83t-17 82q-17 39 -45.5 67.5t-66.5 45.5q-39 16 -83 16zM494 624q66 0 112 -46.5t46 -111.5q0 -66 -46 -112t-112 -46q-65 0 -111.5 46t-46.5 112q0 65 46.5 111.5t111.5 46.5v0z" />
    <glyph glyph-name="uniE924" unicode="&#xe924;" 
d="M366 246q0 -30 21 -51t51 -21h148q30 0 51 21t21 51v113h-292v-113v0zM719 246q0 -55 -39 -94t-94 -39h-148q-55 0 -94 39t-39 94v144q0 12 9 21t22 9h58q0 68 0.5 80.5t0.5 14.5q0 43 34.5 75t82.5 32q49 0 83.5 -33t34.5 -80v-31h-62v31q0 21 -16.5 36.5t-39.5 15.5
t-39.5 -15t-16.5 -37v-35v-54h232q13 0 22 -9t9 -21v-144zM972 595q0 2 -0.5 4t-0.5 4q-1 1 -1 2t-1 2q-1 2 -2 3.5t-2 3.5q-1 0 -1.5 1t-1.5 2l-64 54l-1 208q0 12 -9 21t-22 9h-150q-13 0 -22.5 -9t-9.5 -22v-47l-159 122q-9 7 -20 7t-20 -7l-422 -335q-6 -5 -9 -11
t-3 -13v-627q0 -13 9.5 -22t22.5 -9h858q13 0 22.5 9t9.5 22v627l-0.5 0.5l-0.5 0.5v0v0z" />
    <glyph glyph-name="uniE925" unicode="&#xe925;" 
d="M709 246q0 -30 -21 -51t-51 -21h-148q-29 0 -50.5 21t-21.5 51v113h292v-113v0zM740 420h-233v54v35q0 22 16.5 37t39.5 15t39.5 -15.5t16.5 -36.5v-31h62v31q0 47 -34.5 80t-83.5 33q-48 0 -82.5 -32t-34.5 -75v-14.5v-80.5h-59q-13 0 -22 -9t-9 -21v-144q0 -55 39 -94
t94 -39h148q55 0 94 39t39 94v144q0 12 -9 21t-21 9v0v0zM165 -3v582l392 311l404 -311v-582h-796v0zM886 848v-133l-88 67v66h88v0zM1024 595q0 2 -0.5 4t-1.5 4q0 1 -0.5 2t-0.5 2q-1 2 -2.5 3.5t-2.5 3.5q-1 0 -1.5 1t-1.5 2l-64 54l-1 208q0 12 -9 21t-22 9h-150
q-13 0 -22.5 -9t-9.5 -22v-47l-159 122q-9 7 -20 7t-19 -7l-423 -336q-6 -4 -9 -10t-3 -13v-628q0 -12 9.5 -21t22.5 -9h859q13 0 22 9t9 21v628v0.5v0.5v0v0z" />
    <glyph glyph-name="uniE926" unicode="&#xe926;" 
d="M375 508q31 0 53 22t22 52q0 31 -22 53t-53 22q-30 0 -52 -22t-22 -53q0 -30 22 -52t52 -22zM375 657q31 0 53 -22t22 -53q0 -30 -22 -52t-53 -22q-30 0 -52 22t-22 52q0 31 22 53t52 22zM996 820h-968q-12 0 -20 -8t-8 -20v-688q0 -12 8 -20t20 -8h968q12 0 20 8t8 20
v688q0 12 -8 20t-20 8v0zM621 171h-56v28q0 71 -55.5 120.5t-134.5 49.5t-134.5 -49.5t-55.5 -120.5v-28h-56v28q0 47 19 88q19 42 52.5 72.5t78.5 48.5t96 18t96 -18q44 -18 77.5 -48.5t53.5 -72.5q19 -41 19 -88v-28v0zM903 497v-56h-307v56h307v0zM375 713
q54 0 92.5 -38.5t38.5 -92.5t-38.5 -92t-92.5 -38t-92 38t-38 92t38 92.5t92 38.5zM903 623v-57h-307v57h307z" />
    <glyph glyph-name="uniE927" unicode="&#xe927;" 
d="M375 713q-54 0 -92 -38.5t-38 -92.5t38 -92t92 -38q55 0 93 38t38 92t-38 92.5t-93 38.5zM375 657q31 0 53 -22t22 -53q0 -30 -22 -52t-53 -22q-30 0 -52 22t-22 52q0 31 22 53t52 22zM56 132h912v632h-912v-632v0zM996 76h-968q-12 0 -20 8t-8 20v688q0 12 8 20t20 8
h968q12 0 20 -8t8 -20v-688q0 -12 -8 -20t-20 -8v0zM621 171h-56v28q0 71 -55.5 120.5t-134.5 49.5t-135 -49.5t-56 -120.5v-28h-55v28q0 47 19 88q19 42 52.5 72.5t78.5 48.5t96 18t96 -18q44 -18 77.5 -48.5t53.5 -72.5q19 -41 19 -88v-28zM596 566h307v57h-307v-57z
M596 441h307v56h-307v-56z" />
    <glyph glyph-name="uniE928" unicode="&#xe928;" horiz-adv-x="928" 
d="M661 181q-50 -33 -109.5 -52t-125.5 -19h-0.5h-0.5v0q-88 0 -165 33q-77 34 -135 91.5t-91 134.5q-33 78 -33 166t33 165t91 135t135 91t165 33t166 -33q77 -33 134.5 -91t91.5 -135q33 -77 33 -165v-0.5v-0.5q0 -46 -10 -90q-9 -44 -27 -83.5t-43 -74.5q-26 -35 -57 -64
v0l206 -207l-46 -46l-212 212v0zM425 175q75 0 140 29q66 28 114.5 76.5t76.5 114.5q29 65 29 140q0 74 -29 140q-28 65 -76.5 114t-114.5 77q-65 28 -140 28v0q-74 0 -140 -28q-65 -28 -114 -77t-77 -114q-28 -66 -28 -140q0 -75 28 -140q28 -66 77 -114.5t114 -76.5
q66 -29 140 -29v0v0zM542 805q-54 -53 -85.5 -122.5t-31.5 -147.5q0 -79 31.5 -148.5t85.5 -121.5q-26 -12 -55.5 -18t-60.5 -6q-61 0 -115 23q-53 23 -93 63t-63 93q-23 54 -23 115t23 114q23 54 63 93.5t93 63.5q54 23 115 23q31 0 61 -6.5t57 -18.5l-2 1v0z" />
    <glyph glyph-name="uniE929" unicode="&#xe929;" horiz-adv-x="928" 
d="M661 181q-50 -33 -109.5 -52t-125.5 -19h-0.5h-0.5v0q-88 0 -165 33q-77 34 -135 91.5t-91 134.5q-33 78 -33 166t33 165t91 135t135 91t165 33t166 -33q77 -33 134.5 -91t91.5 -135q33 -77 33 -165v-0.5v-0.5q0 -46 -10 -90q-9 -44 -27 -83.5t-43 -74.5q-26 -35 -57 -64
v0l206 -207l-46 -46l-212 212v0zM425 175q75 0 140 29q66 28 114.5 76.5t76.5 114.5q29 65 29 140q0 74 -29 140q-28 65 -76.5 114t-114.5 77q-65 28 -140 28v0q-74 0 -140 -28q-65 -28 -114 -77t-77 -114q-28 -66 -28 -140q0 -75 28 -140q28 -66 77 -114.5t114 -76.5
q66 -29 140 -29v0v0z" />
    <glyph glyph-name="uniE92A" unicode="&#xe92a;" horiz-adv-x="960" 
d="M887 3h41v-42h-919v42h42v509q-20 21 -31 49t-11 60v0v0v0l83 184v130h752v-130l84 -184q0 -31 -11 -59t-30 -50v-509v0zM820 467v45q-13 -7 -28 -11t-31 -4v0v0v0q-52 0 -88.5 36.5t-36.5 87.5h184v41h-703v-41h184q0 -51 -36.5 -87.5t-88.5 -36.5v0v0q-16 0 -31 4
t-29 11h1v-45q14 -6 28.5 -8.5t30.5 -2.5v0v0q47 0 85.5 23t60.5 61v1q22 -38 60.5 -61.5t85.5 -23.5v0v0v0h1v0q47 0 85.5 23t59.5 61l1 1q22 -38 60.5 -61.5t84.5 -23.5h0.5h0.5v0v0v0q16 0 31 3t29 8h-1v0zM171 827v-41h595v41h-595v0zM594 621q0 -51 -37 -87.5
t-89 -36.5t-88.5 36.5t-36.5 87.5h251zM271 324h165v-272h41v313h-247v-313h41v272v0z" />
    <glyph glyph-name="uniE92B" unicode="&#xe92b;" horiz-adv-x="960" 
d="M887 3h41v-42h-919v42h42v509q-20 21 -31 49t-11 60v0v0v0l83 184v130h752v-130l84 -184q0 -31 -11 -59t-30 -50v-509v0zM844 3v475q-17 -10 -38.5 -16t-44.5 -6v0v0v0v0h-1q-46 0 -84.5 23t-60.5 61v1q-22 -38 -60.5 -61.5t-85.5 -23.5v0h-1v0v0v0q-47 0 -85.5 23
t-59.5 61l-1 1q-22 -38 -60.5 -61.5t-85.5 -23.5v0v0v0v0v0q-23 0 -44 6t-40 16h1v-475h752h-1zM809 786h-681l-57 -124h794l-56 124v0zM134 889v-62h669v62h-669v0zM886 621h-250q0 -51 36.5 -87.5t88.5 -36.5t88.5 36.5t36.5 87.5v0zM594 621h-251q0 -51 36.5 -87.5
t88.5 -36.5t89 36.5t37 87.5zM301 621h-250q0 -51 36.5 -87.5t88.5 -36.5t88.5 36.5t36.5 87.5zM271 324v-272h-41v313h247v-313h-41v272h-165z" />
    <glyph glyph-name="uniE92C" unicode="&#xe92c;" 
d="M0 820v-716v-28h55v716v28h-55zM1011 485l-213 255q-8 9 -19 14t-22 5q-5 0 -10 -0.5t-9 -2.5q-16 -6 -26 -21t-10 -32v-54h-487q-22 0 -38 -16.5t-16 -39.5v-290q0 -23 16 -39.5t38 -16.5h487v-54q0 -17 10 -32t26 -21q4 -1 9 -2t10 -1q11 0 22 5t19 14l213 255
q13 16 13 37t-13 37v0z" />
    <glyph glyph-name="uniE92D" unicode="&#xe92d;" 
d="M0 820v-716v-28h55v716v28h-55zM863 321l-106 -128v110h-542v290h542v110l212 -255l-106 -127v0zM1011 485l-213 255q-8 9 -19 14t-22 5q-5 0 -10 -0.5t-9 -2.5q-16 -6 -26 -21t-10 -32v-54h-487q-22 0 -38 -16.5t-16 -39.5v-290q0 -23 16 -39.5t38 -16.5h487v-54
q0 -17 10 -32t26 -21q4 -2 9 -2.5t10 -0.5q11 0 22 5t19 14l213 255q13 16 13 37t-13 37v0v0z" />
    <glyph glyph-name="uniE92E" unicode="&#xe92e;" 
d="M928 960h-289q-39 0 -87.5 -20t-76.5 -48l-447 -447q-28 -28 -28 -68t28 -68l345 -345q28 -28 68 -28t68 28l447 447q28 28 48 76.5t20 87.5v289q0 40 -28.5 68t-67.5 28v0zM800 640q-40 0 -68 28t-28 68t28 68t68 28t68 -28t28 -68t-28 -68t-68 -28z" />
    <glyph glyph-name="uniE92F" unicode="&#xe92f;" horiz-adv-x="1312" 
d="M192 542l259 -259l673 673l155 -155l-828 -828l-414 414z" />
    <glyph glyph-name="uniE930" unicode="&#xe930;" 
d="M937 749h-927v50h251v151h502v-151h251v-50h-77v0zM906 699l-59 -753h-670l-59 753h788v0zM311 900v-101h402v101h-402v0z" />
    <glyph glyph-name="uniE931" unicode="&#xe931;" 
d="M186 799h75v151h502v-151h251v-50h-105l-63 -803h-669l-63 803h-104v50h176v0zM312 799h401v100h-401v-100zM161 749l60 -753h582l60 753h-702v0z" />
    <glyph glyph-name="uniE932" unicode="&#xe932;" horiz-adv-x="1344" 
d="M905 60v456h-69v-456h-383q-11 -39 -43 -64t-74 -25q-41 0 -73.5 25t-43.5 64h-152q-15 0 -25 10t-10 25v0v0v0v795q0 14 10 24.5t25 10.5h683q66 0 112.5 -47.5t46.5 -114.5v-172h192q41 0 76 -21t54 -57l92 -171q2 -3 3 -7.5t1 -9.5v-230v0v0q0 -15 -10 -25t-25 -10
h-109q-11 -39 -43.5 -64t-73.5 -25q-42 0 -74 25t-43 64h-44v0zM216 107h69q4 18 18 30t33 12t33 -12t18 -30h69q-4 46 -38.5 78t-81.5 32v0q-47 0 -81.5 -32t-38.5 -77v-1v0zM945 107h69q4 18 18.5 30t33.5 12q18 0 32.5 -12t18.5 -30h69q-5 46 -39 78t-81 32v0
q-47 0 -81.5 -32t-39.5 -77v-1z" />
    <glyph glyph-name="uniE933" unicode="&#xe933;" horiz-adv-x="1344" 
d="M1258 131h-75q-11 38 -43.5 63.5t-73.5 25.5q-42 0 -74 -25.5t-43 -63.5h-40v389h192q22 0 40.5 -11t28.5 -30l88 -163v-185v0zM1118 95q0 -22 -15.5 -37.5t-36.5 -15.5q-22 0 -37.5 15.5t-15.5 37.5v0v0v0q0 22 15.5 38t37.5 16q21 0 36.5 -16t15.5 -38v0zM389 95
q0 -22 -15.5 -37.5t-37.5 -15.5t-37 15.5t-15 37.5t15 38t37 16t37.5 -16t15.5 -38v0zM102 854h648q37 0 63 -26.5t26 -64.5v-632h-386q-11 38 -43 63.5t-74 25.5q-41 0 -73.5 -25.5t-43.5 -63.5h-117v723v0zM1231 513q-19 35 -53.5 56.5t-75.5 21.5h-193v172
q0 67 -46.5 114.5t-112.5 47.5h-683q-15 0 -25 -10t-10 -25v0v0v0v-795q0 -14 10 -24.5t25 -10.5h152q11 -39 43.5 -64t73.5 -25q42 0 74 25t43 64h496q11 -39 43 -64t74 -25q41 0 73.5 25t43.5 64h109q15 0 25 10t10 25v0v0v0v231v0v0q0 4 -1 8.5t-3 8.5v0l-92 170v0z" />
    <glyph glyph-name="uniE934" unicode="&#xe934;" 
d="M494 49h-1t-1 1q-42 21 -82 46t-77.5 52.5t-73.5 57.5q-35 30 -69 63q-36 37 -62.5 70t-45.5 65q-25 43 -38 84.5t-13 80.5q0 53 17 100.5t48 83.5q34 39 80.5 61.5t96.5 24.5q3 1 6 1h6q32 0 62.5 -8t57.5 -24q19 -10 36 -25.5t32 -35.5l21 -27l21 27q16 20 33 35.5
t36 25.5q27 16 57.5 24t61.5 8h7t6 -1q50 -2 96 -24.5t80 -61.5q32 -36 48.5 -83.5t16.5 -100.5q0 -39 -12.5 -80.5t-37.5 -84.5q-19 -32 -46 -65t-63 -70q-33 -33 -69 -63t-73.5 -57.5t-77.5 -52.5t-81 -46l-3 -1v0zM285 867q-3 0 -6.5 -0.5t-7.5 -0.5q-55 -3 -106.5 -28
t-88.5 -68q-35 -40 -53.5 -92t-18.5 -109q0 -44 14.5 -89t40.5 -89q21 -36 48.5 -70t64.5 -71q34 -33 70 -64t75 -59.5t79 -53.5q41 -25 84 -47q3 -2 6.5 -3t7.5 -1t7.5 1t7.5 3q42 22 83 47t79.5 53.5t74.5 59.5q37 31 71 64q36 37 64 71t49 70q26 44 40 89t14 89
q0 57 -18.5 109t-53.5 92q-37 43 -88 68t-107 28q-3 0 -6.5 0.5t-7.5 0.5q-34 0 -68 -9t-65 -26q-21 -13 -40 -30t-36 -38q-16 21 -35 38t-41 30q-30 17 -64 26t-69 9v0zM285 813v0q28 0 55 -7t52 -21q16 -9 31 -22.5t29 -31.5l42 -55l43 55q13 18 28 31.5t32 22.5
q24 14 51 21t55 7h6h5q45 -3 86.5 -23t71.5 -55q28 -32 43 -75t15 -91q0 -35 -11.5 -73t-34.5 -78q-19 -31 -44.5 -63t-60.5 -67q-31 -31 -65 -60t-69.5 -55t-73.5 -50q-37 -24 -77 -44q-39 20 -77 44q-37 24 -73 50t-69 55q-34 29 -66 60q-35 35 -60.5 67t-43.5 63
q-24 40 -35.5 78t-11.5 73q0 48 15 91t44 75q30 35 71 55.5t86 22.5h6h5v0z" />
    <glyph glyph-name="uniE935" unicode="&#xe935;" 
d="M294 890h-7.5h-7.5q-58 -3 -111.5 -29.5t-92.5 -70.5q-37 -42 -56 -96.5t-19 -114.5q0 -46 14.5 -92.5t42.5 -93.5q21 -38 50.5 -73.5t67.5 -73.5q35 -35 73 -68q38 -32 78.5 -61.5t83.5 -55.5q42 -27 87 -50q3 -1 7 -2t8 -1t8 1t7 2q45 24 87 50q43 26 83.5 55.5
t78.5 61.5q38 33 73 68q38 38 67.5 73.5t50.5 73.5q28 46 42.5 93t14.5 93q0 60 -19 114.5t-56 96.5q-39 44 -92.5 70.5t-111.5 29.5h-7.5h-6.5q-37 0 -72.5 -9t-66.5 -27q-23 -13 -43 -31t-37 -40q-17 22 -37 40t-43 31q-31 18 -66.5 27t-71.5 9v0zM294 834q29 0 57 -7.5
t54 -21.5q17 -10 33 -24t30 -32l44 -58l44 58q14 18 30 32t33 24q26 14 54 21.5t58 7.5h5.5h5.5q47 -2 90 -23.5t75 -57.5q29 -34 45 -79t16 -95q0 -37 -12 -76.5t-37 -81.5q-19 -33 -45.5 -66t-63.5 -69q-33 -33 -68 -63q-36 -30 -73 -57.5t-77 -52.5q-39 -25 -80 -47
q-41 22 -80 47q-40 25 -77 52.5t-73 57.5q-35 30 -68 63q-37 36 -63.5 69t-45.5 66q-25 42 -37 81.5t-12 76.5q0 51 16 95.5t45 78.5q32 36 75 57.5t90 23.5h6h6v0z" />
    <glyph glyph-name="uniE936" unicode="&#xe936;" 
d="M512 896q106 0 199 -33q94 -32 163.5 -88.5t109.5 -132.5t40 -162t-40 -162t-109.5 -132.5t-163.5 -88.5q-93 -33 -199 -33q-20 0 -40 1.5t-40 3.5q-41 -41 -86 -67q-45 -25 -91.5 -39.5t-94.5 -19.5t-96 -7v27q51 26 89.5 69.5t38.5 95.5q0 7 -0.5 14.5t-1.5 14.5
q-44 28 -79 64t-59.5 77t-38.5 87q-13 46 -13 95q0 86 40 162t109.5 132.5t163.5 88.5q93 33 199 33v0z" />
    <glyph glyph-name="uniE937" unicode="&#xe937;" 
d="M192 832l640 -384l-640 -384v768z" />
    <glyph glyph-name="uniE938" unicode="&#xe938;" horiz-adv-x="896" 
d="M301 778l10 -184h234v-86h-225l4 -58l312 3l132 -307l101 36l28 -66l-180 -71l-137 322h-335l-33 457q-5 10 -8 21.5t-3 23.5q0 37 26.5 64t64.5 27t64.5 -27t26.5 -64q0 -35 -23.5 -61.5t-58.5 -29.5v0zM638 121q-21 -42 -53 -76t-71.5 -58t-84.5 -38q-45 -13 -92 -13
q-70 0 -131 27q-61 26 -107 72t-72 107q-27 61 -27 131q0 48 14 95q14 46 40 86t62 71q36 32 81 52l7 -99q-52 -33 -82 -88.5t-30 -117.5q0 -50 19 -95q19 -44 52.5 -77.5t77.5 -52.5t95 -19q46 0 88 16q41 17 73.5 46t54.5 69q21 39 26 84l60 -122v0z" />
    <glyph glyph-name="uniE939" unicode="&#xe939;" 
d="M1024 766q-28 -13 -58.5 -21.5t-62.5 -12.5q33 20 57 50t36 67q-31 -18 -64.5 -31t-69.5 -20q-28 30 -68 48t-85 18q-44 0 -82 -16q-38 -17 -66.5 -45.5t-45.5 -66.5q-16 -39 -16 -82q0 -12 1.5 -24t3.5 -24q-65 3 -126 20q-62 17 -117 45.5t-103 67.5t-87 87
q-13 -24 -20.5 -50.5t-7.5 -55.5q0 -55 25.5 -101t67.5 -74q-26 1 -50 8t-45 18v-1v-1q0 -77 48.5 -134.5t120.5 -71.5q-14 -4 -27.5 -6t-28.5 -2q-10 0 -20 1t-19 3q20 -62 73.5 -103t122.5 -43q-54 -42 -120.5 -66t-140.5 -24q-13 0 -25.5 1t-24.5 2q35 -22 73 -40
q38 -17 78.5 -29t83.5 -19q43 -6 87 -6q145 0 256 54q112 55 188 141t115 192q39 107 39 211q0 7 -0.5 13.5t-0.5 13.5q31 22 57.5 49.5t47.5 59.5v0z" />
    <glyph glyph-name="uniE93A" unicode="&#xe93a;" 
d="M576 512v-234q0 -45 0.5 -71.5t5.5 -39.5q4 -12 15 -24t24 -20q17 -10 36 -15t41 -5q39 0 67.5 7.5t66.5 32.5v-154q-33 -15 -62 -24.5t-55 -16.5q-27 -6 -56 -9t-59 -3q-36 0 -60 4.5t-51 13.5t-50 21.5t-42 28.5q-19 17 -32 34.5t-21 35.5q-7 18 -10.5 45t-3.5 62v359
h-138v145q30 10 61 24t53 33q21 18 38.5 40t30.5 47q13 26 22 58.5t14 72.5h165v-256h256v-192h-256v0z" />
    <glyph glyph-name="uniE93B" unicode="&#xe93b;" 
d="M398 -34v478h-104v165h104v99q0 101 51 158t177 57h140v-165h-88q-49 0 -59.5 -17t-10.5 -49v-83h159l-19 -165h-140v-478h-209h-1z" />
    <glyph glyph-name="uniE93C" unicode="&#xe93c;" 
d="M192 563q0 -62 24 -112.5t75 -70.5q8 -4 14.5 -0.5t9.5 12.5q2 6 5 19t5 19q2 9 0.5 14t-7.5 13q-15 17 -23.5 40t-8.5 55q0 45 16 87q17 41 48 73t75 51t98 19q97 0 149 -52.5t52 -131.5q0 -52 -11 -99q-11 -46 -31 -81t-48 -56q-29 -20 -63 -20q-38 0 -61.5 27
t-14.5 65q11 46 27 92t16 79q0 30 -16.5 51t-48.5 21q-39 0 -66 -35.5t-27 -88.5q0 -34 7.5 -55l7.5 -21l-62 -262q-14 -59 -8 -117.5t6 -65.5q1 -5 5 -5.5t7 2.5q4 5 37.5 53t49.5 104q4 16 19 74.5l15 58.5q12 -24 45.5 -42t72.5 -18q58 0 106 25t82 69t53 104
q19 61 19 131q0 54 -22 104q-22 49 -62 87.5t-96 61.5t-125 23q-86 0 -151 -28q-64 -27 -107.5 -71t-64.5 -97q-22 -53 -22 -105v0z" />
    <glyph glyph-name="uniE93D" unicode="&#xe93d;" 
d="M852 960h-680q-71 0 -121.5 -50.5t-50.5 -121.5v-680q0 -71 50.5 -121.5t121.5 -50.5h680q71 0 121.5 50.5t50.5 121.5v680q0 71 -50.5 121.5t-121.5 50.5zM384 128h-128v448h128v-448zM320 640q-27 0 -45.5 18.5t-18.5 45.5t18.5 45.5t45.5 18.5t45.5 -18.5t18.5 -45.5
t-18.5 -45.5t-45.5 -18.5zM832 128h-128v256q0 27 -18.5 45.5t-45.5 18.5t-45.5 -18.5t-18.5 -45.5v-256h-128v448h128v-79q20 27 49 53t63 26q60 0 102 -47t42 -113v-288z" />
    <glyph glyph-name="uniE93E" unicode="&#xe93e;" 
d="M928 832h-832q-40 0 -68 -28t-28 -68v-576q0 -40 28 -68t68 -28h832q40 0 68 28t28 68v576q0 40 -28 68t-68 28zM88 128l-24 24l264 264l24 -24l-264 -264v0zM936 128l-264 264l24 24l264 -264l-24 -24v0zM544 342v-22h-64v22l-416 385l41 41l407 -378l407 378l41 -41z
" />
    <glyph glyph-name="uniE93F" unicode="&#xe93f;" 
d="M1 90q0 2 -0.5 4t-0.5 4q0 -2 0.5 -4t0.5 -4zM236 395q69 -2 109.5 60.5t28.5 152.5q-6 45 -25 85q-18 39 -44.5 69t-59.5 47q-32 18 -67 19q-69 2 -109 -59t-28 -151q5 -45 24 -85q18 -40 44.5 -70.5t59.5 -48.5q32 -18 67 -19zM1024 704v85q0 71 -50 121t-121 50h-682
q-70 0 -119.5 -48.5t-51.5 -117.5q44 39 102 66.5t121 27.5h94h118.5h101.5h43l-80 -67h-113q56 -22 85.5 -80.5t29.5 -125.5q0 -56 -28 -103.5t-73 -82.5q-43 -34 -55.5 -53.5t-12.5 -48.5q0 -24 35 -59t59 -52q71 -50 98 -102t27 -129q0 -12 -1.5 -24.5t-4.5 -24.5h307
q71 0 121 50t50 121v533h-192v-192h-64v192h-192v64h192v192h64v-192h192v0zM186 194q16 0 31 0.5t31 0.5q-21 19 -35 43.5t-14 54.5q0 18 5 34.5t13 32.5q-8 -1 -16 -1h-17q-56 0 -102.5 17t-81.5 46v-269q40 19 87 30t99 11v0zM3 73q0 4 -1 8t-1 8q0 -4 1 -8t1 -8zM455 7
q-11 44 -49 72.5t-93 67.5q-21 6 -43 10t-46 4q-68 1 -126.5 -23.5t-94.5 -64.5q12 -59 59 -98t109 -39h286q1 8 2 17t1 17q0 10 -1 19t-4 18v0z" />
    <glyph glyph-name="uniE940" unicode="&#xe940;" 
d="M136 209q-56 0 -96 -40t-40 -96t40 -96t96 -40q57 0 97 40t40 96t-40 96t-97 40v0zM0 612v-196q48 0 94 -9q46 -10 89 -27.5t83 -44.5q39 -26 73 -60t60 -73t43.5 -82t27.5 -90q9 -46 9 -94h197q0 140 -53 263t-145 215t-215 145t-263 53v0zM0 960v-196q171 0 322 -66
q150 -65 262.5 -177t177.5 -263t65 -322h197q0 212 -81 398q-80 187 -219 326t-326 219q-186 81 -398 81v0z" />
    <glyph glyph-name="uniE941" unicode="&#xe941;" 
d="M308 954q39 2 70.5 2.5t130.5 0.5q100 0 131.5 -0.5t70.5 -2.5t67 -8t52 -15q24 -10 45 -23.5t41 -33.5q21 -21 34 -42t23 -46q9 -24 15 -52.5t7 -67.5q2 -40 2.5 -71.5t0.5 -132.5t-0.5 -133t-2.5 -71q-1 -40 -7 -68.5t-15 -52.5q-10 -24 -23 -45.5t-34 -41.5
q-20 -21 -41 -34.5t-45 -22.5q-24 -10 -52 -16t-67 -7q-39 -2 -70.5 -2.5t-131.5 -0.5q-99 0 -130.5 0.5t-70.5 2.5q-39 1 -67.5 7t-51.5 16q-24 9 -45 22.5t-41 34.5q-21 20 -34 41.5t-23 45.5q-9 24 -15 52.5t-8 68.5q-1 39 -1.5 71t-0.5 133t0.5 132.5t1.5 71.5
q2 39 8 67.5t15 52.5q10 25 23 46t34 42q20 20 41 33.5t45 23.5q23 9 51.5 15t67.5 8v0zM258 462q0 -53 20 -99t54 -80.5t80 -54.5q45 -20 97 -20t98 20t80 54.5t54 80.5t20 99q0 52 -20 99q-20 46 -54 80.5t-80 54.5t-98 20t-97 -20q-46 -20 -80 -54.5t-54 -80.5
q-20 -47 -20 -99v0zM346 462q0 68 48 116.5t115 48.5q68 0 115.5 -48.5t47.5 -116.5q0 -69 -47.5 -117t-115.5 -48q-67 0 -115 48t-48 117v0zM770 667q25 0 42 17t17 42t-17 42.5t-42 17.5q-24 0 -41 -17.5t-17 -42.5t17 -42t41 -17z" />
    <glyph glyph-name="uniE942" unicode="&#xe942;" 
d="M345 851q-49 -41 -67 -82t-18 -117q0 -83 -12 -102t-54 -9q-64 18 -64 -18.5t64 -72.5q39 -23 46 -43t-13 -58q-15 -28 -51.5 -61t-73.5 -53q-61 -35 -65 -46t42 -28q27 -10 53.5 -30t38.5 -37q10 -18 31.5 -26t40.5 2q20 8 58.5 -3t72.5 -34q32 -23 76.5 -38.5
t71.5 -15.5t71.5 15.5t76.5 38.5q34 23 72.5 33.5t58.5 0.5q22 -8 41.5 0.5t27.5 26.5q7 20 33 39.5t55 27.5q52 15 50 25t-66 45q-37 23 -73.5 56.5t-51.5 61.5q-19 38 -12.5 58t45.5 43q64 36 64 72.5t-64 18.5q-42 -10 -54 9t-12 102q0 88 -42 152q-42 63 -107 92.5
t-142 20.5q-78 -10 -148 -66v0z" />
    <glyph glyph-name="uniE943" unicode="&#xe943;" 
d="M852 960h-680q-71 0 -121.5 -50.5t-50.5 -121.5v-680q0 -71 50.5 -121.5t121.5 -50.5h680q71 0 121.5 50.5t50.5 121.5v680q0 71 -50.5 121.5t-121.5 50.5zM512 640q-26 0 -45 -19t-19 -45v-256q0 -79 -56.5 -135.5t-135.5 -56.5t-135.5 56.5t-56.5 135.5v128h128v-128
q0 -26 19 -45t45 -19t45 19t19 45v256q0 79 56.5 135.5t135.5 56.5t135.5 -54.5t56.5 -123.5v-62l-82 -24l-46 24v62q0 16 -19 33t-45 17v0zM960 320q0 -79 -56.5 -135.5t-135.5 -56.5q-40 0 -75 15q-35 16 -61 43t-41 65t-15 83v124l46 -24l82 24v-124q0 -37 19 -57.5
t45 -20.5q27 0 45.5 19t18.5 45v128h128v-128v0z" />
    <glyph glyph-name="uniE944" unicode="&#xe944;" 
d="M791 416q0 97 53.5 145t57.5 50q-45 66 -103.5 83t-83.5 18q-60 6 -113 -20.5t-83 -26.5q-31 0 -75.5 23t-93.5 22q-65 -1 -121.5 -35.5t-90.5 -92.5q-34 -59 -40 -129q-7 -70 5.5 -140.5t39.5 -134.5q27 -65 60 -112q32 -47 71.5 -89.5t89.5 -40.5q49 2 79 22t89 20
t88.5 -21t80.5 -20q53 1 89 40t68 86q37 54 53.5 98.5t17.5 47.5q-1 0 -22 11q-21 10 -46.5 34.5t-47.5 63.5q-21 40 -22 98v0zM663 796q26 33 42 76t11 88q-39 -2 -81 -23.5t-70 -54.5q-25 -28 -42.5 -71t-11.5 -87q43 -3 84 18.5t68 53.5z" />
    <glyph glyph-name="uniE945" unicode="&#xe945;" 
d="M1024 448q0 106 -40 199q-40 94 -109.5 163.5t-163.5 109.5q-93 40 -199 40t-199 -40q-94 -40 -163.5 -109.5t-109.5 -163.5q-40 -93 -40 -199q0 -83 25 -158q24 -75 68.5 -137.5t105.5 -109.5q62 -48 135 -75l-14 -32h384l-14 32q73 27 135 75q61 47 105.5 109.5
t68.5 137.5q25 75 25 158v0zM487 325q-17 8 -28 23.5t-11 35.5q0 27 18.5 45.5t45.5 18.5t45.5 -18.5t18.5 -45.5q0 -20 -11 -36t-28 -23l-25 59zM538 323q44 9 73 44t29 81q0 53 -37.5 90.5t-90.5 37.5t-90.5 -37.5t-37.5 -90.5q0 -46 29 -81t73 -44l-75 -174
q-68 29 -111.5 92.5t-43.5 142.5q0 53 20 102q20 48 55 85t81 59q47 22 100 22t100 -22q46 -22 81 -59t55 -85q20 -49 20 -102q0 -79 -43.5 -142.5t-111.5 -92.5zM688 -28l-73 173q47 16 87 45q40 30 69 69.5t45 87.5t16 101q0 66 -25 125q-25 58 -68.5 101.5t-101.5 68.5
q-59 25 -125 25t-125 -25q-58 -25 -101.5 -68.5t-68.5 -101.5q-25 -59 -25 -125q0 -53 16 -101t45 -87.5t69 -69.5q40 -29 87 -45l-73 -173q-60 26 -110 68q-50 41 -86 94.5t-56 116.5q-20 64 -20 133q0 93 35 176q36 84 96.5 147t142.5 100q81 37 174 37t174 -37
q82 -37 142.5 -100t96.5 -147q35 -83 35 -176q0 -69 -20 -133q-20 -63 -56 -116.5t-86 -94.5q-50 -42 -110 -68v0z" />
    <glyph glyph-name="uniE946" unicode="&#xe946;" 
d="M563 499h461v-102h-1024v102h563v0z" />
    <glyph glyph-name="uniE947" unicode="&#xe947;" 
d="M832 832v-800h-608v800h608zM800 800h-544v-736h544v736zM746 307v-38h-316v38h316zM370 307v-38h-69v38h69zM746 467v-38h-316v38h316v0zM370 467v-38h-69v38h69v0zM746 611v-38h-316v38h316zM370 611v-38h-69v38h69z" />
    <glyph glyph-name="uniE948" unicode="&#xe948;" 
d="M531 210v100h-38v-100q-44 3 -82 22q-39 18 -68 47t-47 68q-19 38 -22 82h100v38h-100q3 44 22 82q18 39 47 68t68 47q38 19 82 22v-100h38v100q44 -3 82 -22q39 -18 68 -47t47 -68q19 -38 22 -82h-100v-38h100q-3 -44 -22 -82q-18 -39 -47 -68t-68 -47q-38 -19 -82 -22
v0zM864 467h-76q-3 52 -24 97q-22 46 -56 80t-80 56q-45 21 -97 24v76h-38v-76q-52 -3 -97 -24q-46 -22 -80 -56t-56 -80q-21 -45 -24 -97h-76v-38h76q3 -52 24 -97q22 -46 56 -80t80 -56q45 -21 97 -24v-76h38v76q52 3 97 24q46 22 80 56t56 80q21 45 24 97h76v38v0z" />
    <glyph glyph-name="uniE949" unicode="&#xe949;" 
d="M512 832q50 0 93 -18q44 -19 76.5 -51t51.5 -74q19 -43 19 -92q0 -39 -10.5 -76.5t-29.5 -72.5h88l96 -352h-768l96 352h88q-19 35 -29.5 72.5t-10.5 76.5q0 49 19 92q19 42 51.5 74t76.5 51q43 18 93 18v0zM635 349q-19 -19 -39 -35.5t-40 -30.5q-7 -5 -13.5 -9
t-12.5 -8q-3 -2 -5 -3l-4 -2l-1 -1l-8 -4l-8 4q0 1 -1.5 1.5t-3.5 1.5l-5 3q-6 4 -12.5 8t-13.5 9q-20 14 -40 30.5t-39 35.5q-16 16 -30.5 32.5t-26.5 34.5h-84l-78 -288h684l-78 288h-84q-12 -17 -26.5 -34t-30.5 -33v0zM512 800q-43 0 -81 -16t-66.5 -43.5t-44.5 -64.5
t-16 -79q0 -62 28.5 -118.5t78.5 -106.5q18 -18 37 -33.5t38 -29.5q8 -5 14.5 -9t11.5 -7q5 3 11.5 7t14.5 10q19 13 38 28.5t37 33.5q50 50 78.5 106.5t28.5 118.5q0 42 -16 79t-44.5 64.5t-66.5 43.5t-81 16v0zM512 686q37 0 64 -26t27 -63t-27 -63t-64 -26t-64 26t-27 63
t27 63t64 26v0zM512 654q-24 0 -41.5 -16.5t-17.5 -40.5q0 -23 17.5 -40t41.5 -17t41.5 17t17.5 40q0 24 -17.5 40.5t-41.5 16.5z" />
    <glyph glyph-name="uniE94A" unicode="&#xe94a;" 
d="M512 137l316 -201l-83 379l279 255l-368 33l-144 357l-144 -357l-368 -33l279 -255l-83 -379zM332 332l-219 200l289 26l110 273l110 -273l289 -26l-219 -200l65 -294l-245 156l-245 -156l65 294v0z" />
    <glyph glyph-name="uniE94B" unicode="&#xe94b;" 
d="M512 137l316 -201l-83 379l279 255l-368 33l-144 357l-144 -357l-368 -33l279 -255l-83 -379z" />
    <glyph glyph-name="uniE94C" unicode="&#xe94c;" 
d="M512 831v-637l245 -156l-65 294l219 200l-289 26l-110 273v0zM512 137l-316 -201l83 379l-279 255l368 33l144 357l144 -357l368 -33l-279 -255l83 -379l-316 201v0z" />
    <glyph glyph-name="uniE94D" unicode="&#xe94d;" horiz-adv-x="11025" 
d="M10899 198q52 0 89 -37t37 -89t-37 -89t-89 -37t-88.5 37t-36.5 89t36.5 89t88.5 37v0zM11003 72q0 44 -30.5 75t-73.5 31q-42 0 -72.5 -31t-30.5 -75q0 -43 30.5 -74t72.5 -31q43 0 73.5 31t30.5 74v0zM10850 145h56q25 0 37.5 -10.5t12.5 -32.5q0 -19 -11.5 -29
t-27.5 -12l41 -63h-22l-40 62h-24v-62h-22v147v0zM10896 80q15 0 26.5 3.5t11.5 19.5q0 15 -10 18.5t-22 3.5h-30v-45h24zM0 782h283v-831h165v831h283v163h-731v-163v0zM1480 551h-426v394h-166v-994h166v434h426v-434h165v994h-165v-394v0zM2048 401h279v161h-279v221h480
v162h-645v-994h666v162h-501v288v0zM3768 489q53 32 80.5 81t27.5 112q0 61 -19 110q-20 49 -57 83t-91 52q-53 18 -121 18h-409v-994h395q83 0 147 21q64 20 107.5 59t65.5 97q23 58 23 132q0 95 -47 151.5t-102 77.5v0zM3585 105h-249v303h253q78 0 120.5 -40t42.5 -112
q0 -76 -41.5 -113.5t-125.5 -37.5v0zM3587 559h-251v232h251q77 0 100.5 -38.5t23.5 -79.5q0 -20 -19 -67t-105 -47v0zM4486 960q-95 0 -173 -37t-134 -104.5t-87 -162.5q-30 -94 -30 -209t30 -209q31 -94 86.5 -161t132.5 -104q78 -37 172 -37q96 0 174 37q79 37 135 104.5
t86 162.5q31 94 31 209t-31 209q-30 94 -85.5 161t-133.5 104t-173 37v0v0zM4482 796q58 0 106 -26q48 -25 82 -70.5t52 -110.5q19 -64 19 -142q0 -79 -18 -143t-51 -109.5t-80 -69.5q-47 -25 -105 -25q-57 0 -105 26q-47 25 -81 71t-53 110q-18 64 -18 142q0 79 18 143
q17 64 50 109.5t80 69.5q46 25 104 25v0zM5375 945h-274v-994h274q43 0 123 13q81 13 161 63t139 149q60 99 60 272q0 117 -33 209t-95 156t-152 98q-89 34 -203 34v0zM5266 783h109q98 0 159 -31t96 -79.5t47 -107.5q13 -60 13 -117t-13 -117q-12 -59 -47 -107.5t-96 -79.5
t-159 -31h-109v670v0zM6419 670q-23 -41 -49 -91.5t-42 -82.5q-16 33 -43 84.5t-49 90.5l-154 274h-193l355 -601v-393h166v393l355 601h-191l-155 -275v0zM7550 544q-132 39 -168.5 69t-36.5 73q0 52 40.5 81.5t111.5 29.5q68 0 121 -21.5t98 -68.5l7 -7l117 118l-7 7
q-36 35 -73 60t-77.5 42t-83.5 25t-91 8q-73 0 -133 -21q-61 -20 -104.5 -57.5t-67.5 -88.5q-24 -52 -24 -114q0 -71 21 -118t61 -79.5t98 -54.5t130 -44q122 -37 167 -69t45 -83q0 -24 -24 -78t-167 -54q-66 0 -131.5 30t-113.5 82l-7 8l-118 -115l6 -7q33 -39 73 -69
t84.5 -50.5t93.5 -30.5q50 -11 102 -11q120 0 193 32q72 31 111.5 77.5t51.5 99.5q13 53 13 96q0 71 -26 120q-25 49 -68 83t-101 57t-123 43v0v0zM8647 551h-426v394h-166v-994h166v434h426v-434h165v994h-165v-394v0zM9428 960q-95 0 -173 -37t-134 -104.5t-86 -162.5
q-31 -94 -31 -209t31 -209q30 -94 85.5 -161t132.5 -104q78 -37 173 -37t173 37q79 37 135 104.5t87 162.5q30 94 30 209t-30 209q-31 94 -86.5 161t-133.5 104t-173 37v0zM9424 796q58 0 106 -26q48 -25 82 -70.5t52 -110.5q19 -64 19 -142q0 -79 -18 -143t-51 -109.5
t-80 -69.5q-46 -25 -104 -25t-106 26q-47 25 -81 71t-52 110q-19 64 -19 142q0 79 18 143t51 109.5t79 69.5q47 25 104 25v0zM10459 945h-416v-994h163v363h243q77 0 138 22q62 22 105 63t66 100q23 58 23 131t-23 131q-22 58 -63.5 99t-101.5 63t-134 22v0v0zM10456 472
h-250v315h250q74 0 115.5 -41.5t41.5 -115.5q0 -76 -40.5 -117t-116.5 -41v0z" />
    <glyph glyph-name="uniE94E" unicode="&#xe94e;" horiz-adv-x="1055" 
d="M564 441v0v0l128 -128q8 -8 8 -20t-8 -20t-20 -8t-20 8l-128 128l-2 2l-2 2q-6 4 -9.5 10t-3.5 14v276q0 11 8.5 19.5t20.5 8.5q11 0 19.5 -8.5t8.5 -19.5v-264v0zM540 -63q-106 0 -199 40t-162 109.5t-109 162.5q-41 93 -41 199t41 199q40 93 109 162.5t162 109.5
t199 40t199 -40t162.5 -109.5t109.5 -162.5t40 -199t-40 -199t-109.5 -162.5t-162.5 -109.5t-199 -40zM540 8q91 0 171 35t140 94.5t94 139.5q35 80 35 171t-35 171q-34 80 -94 139.5t-140 94.5t-171 35t-171 -35t-139.5 -94.5t-94.5 -139.5q-34 -80 -34 -171t34 -171
q35 -80 94.5 -139.5t139.5 -94.5t171 -35z" />
    <glyph glyph-name="uniE94F" unicode="&#xe94f;" 
d="M832 832h-640q-79 0 -135.5 -56.5t-56.5 -135.5v-384q0 -79 56.5 -135.5t135.5 -56.5h640q79 0 135.5 56.5t56.5 135.5v384q0 79 -56.5 135.5t-135.5 56.5zM384 192v512l320 -256z" />
    <glyph glyph-name="uniE950" unicode="&#xe950;" horiz-adv-x="1161" 
d="M956 141v-205h-751v205h751zM137 550v-68h887v68h137v-477h-137v136h-887v-136h-137v477h137v0zM273 414h-136v-137h136v137zM956 960v-410h-751v410h751zM887 687h-614v-68h614v68zM887 823h-614v-68h614v68z" />
    <glyph glyph-name="uniE951" unicode="&#xe951;" 
d="M1024 193v-154q0 -22 -8.5 -41.5t-24.5 -34.5t-37 -22t-42 -5q-60 7 -118 20t-114 33t-109 46q-53 27 -104 59q-46 30 -89 64q-43 35 -82 73.5t-73 81.5q-35 43 -65 89q-32 51 -59 104q-26 54 -46 110t-33 114t-20 118q-2 22 5 42.5t22 36.5q15 15 34.5 24t41.5 9h154
q39 0 68.5 -25t34.5 -63q5 -37 14 -73.5t22 -71.5q11 -28 4.5 -57.5t-27.5 -50.5l-65 -65q27 -49 61 -93q33 -44 72 -82.5t83 -72.5q44 -33 93 -61l65 65q22 22 51.5 28t57.5 -4q35 -13 71 -22t73 -14q39 -6 64.5 -36t24.5 -69v0v0z" />
    <glyph glyph-name="uniE952" unicode="&#xe952;" horiz-adv-x="1056" 
d="M893 628h-165q9 6 16.5 12t12.5 11q15 14 23.5 33.5t8.5 41.5t-8.5 41.5t-23.5 34.5v0q-30 30 -76 30t-76 -30q-17 -17 -48.5 -73t-25.5 -101h-4q6 45 -25.5 101t-48.5 73q-31 30 -76.5 30t-76.5 -30q-14 -15 -22.5 -34.5t-8.5 -41.5t8.5 -41.5t22.5 -33.5v0
q6 -5 13.5 -11t15.5 -12h-164q-22 0 -37 -15t-15 -36v-128q0 -11 7.5 -18.5t18.5 -7.5h26v-308q0 -21 15 -36t37 -15h624q21 0 36.5 15t15.5 36v308h26v0v0q11 0 18.5 7.5t7.5 17.5v129q0 21 -15.5 36t-36.5 15v0zM337 766q8 7 18 11.5t22 4.5q11 0 21 -4.5t18 -11.5
q26 -27 46.5 -77t11.5 -59l-2 -1t-8 -1q-27 0 -68.5 21t-58.5 38q-7 8 -11.5 18t-4.5 21q0 12 4.5 22t11.5 18v0v0zM503 115h-286v308h286v-308v0zM503 474h-338v103h338v-103v0zM642 766q16 15 39.5 15t38.5 -15q8 -8 12.5 -18t4.5 -22q0 -11 -4.5 -21t-12.5 -18v0
q-16 -17 -58 -38t-68 -21q-6 0 -8 1l-2 1q-9 9 11 59t47 77v0zM841 115h-286v308h286v-308v0zM893 474h-338v103h338v-103v0z" />
    <glyph glyph-name="uniE953" unicode="&#xe953;" horiz-adv-x="1056" 
d="M529 305l-124 -79q-23 -14 -34.5 -5.5t-5.5 34.5l33 150l-110 100q-19 18 -14.5 32.5t31.5 16.5l143 13l57 142q10 24 24 24t24 -24l57 -142l143 -13q26 -2 31 -16.5t-14 -32.5l-110 -100l33 -150q6 -26 -6 -34.5t-34 5.5l-124 79v0zM839 281l97 -56q6 -3 9 -8.5t3 -12.5
q0 -10 -7 -17t-17 -7q-3 0 -6 1l-6 2v0l-97 56q-5 3 -8.5 8.5t-3.5 12.5q0 10 7.5 17t16.5 7q4 0 7 -1l6 -2h-1v0zM132 225l105 40q1 1 3.5 1.5t4.5 0.5q10 0 17 -7t7 -17q0 -8 -4.5 -14t-10.5 -8v0l-105 -41q-2 0 -4 -0.5t-4 -0.5q-10 0 -17 7t-7 17q0 7 4 13t11 9v0v0z
M804 682l105 40q2 1 4 1.5t4 0.5q10 0 17 -7t7 -17q0 -8 -4 -14t-11 -8v0l-105 -40q-2 -1 -4.5 -1.5t-4.5 -0.5q-10 0 -17 7t-7 17q0 7 4.5 13.5t11.5 8.5v0v0zM156 697l97 -56q6 -3 9 -8.5t3 -12.5q0 -10 -7 -17t-17 -7q-3 0 -6 1l-6 2v0l-97 56q-5 3 -8.5 8.5t-3.5 12.5
q0 10 7 17t17 7q4 0 7 -1t5 -2v0v0zM809 480h144q10 0 17 -7t7 -17t-7 -17t-17 -7v0h-144q-10 0 -17 7t-7 17t7 17t17 7v0zM105 480h144q10 0 17 -7t7 -17t-7 -17t-17 -7v0h-144q-10 0 -17 7t-7 17t7 17t17 7v0z" />
    <glyph glyph-name="uniE954" unicode="&#xe954;" horiz-adv-x="1056" 
d="M964 608v64q0 8 -5.5 13.5t-13.5 5.5v0h-832q-8 0 -13.5 -5.5t-5.5 -13.5v0v-64h870v0zM964 480h-870v-288q0 -8 5.5 -13.5t13.5 -5.5h832q8 0 13.5 5.5t5.5 13.5v0v288v0zM113 736h832q26 0 45 -18.5t19 -45.5v0v-480q0 -27 -19 -45.5t-45 -18.5v0h-832
q-27 0 -45.5 18.5t-18.5 45.5v0v480q0 27 18.5 45.5t45.5 18.5v0zM145 352h160v-64h-160v64zM369 352h160v-64h-160v64z" />
    <glyph glyph-name="uniE955" unicode="&#xe955;" horiz-adv-x="1056" 
d="M900 376v0q0 -41 -18.5 -78t-52.5 -66l38 -82l-110 39q-24 -10 -52.5 -15.5t-58.5 -5.5v0v0v0q-70 0 -129 28.5t-93 77.5q-22 2 -43.5 6.5t-40.5 12.5l2 -1l-136 -53l46 103q-40 33 -61.5 76t-21.5 90q0 49 23 92q22 43 61 75t92 51q52 18 111 18q49 0 94 -13
q44 -12 80.5 -35t63.5 -55q26 -31 39 -69q74 -23 120.5 -76t46.5 -120v0zM646 577q11 0 22 -1t22 -3q-26 57 -89.5 94t-144.5 37q-51 0 -96 -15q-45 -16 -78.5 -42.5t-53.5 -62.5q-19 -35 -19 -76q0 -39 19 -74.5t54 -63.5l19 -16l-19 -42l60 23l11 -5q12 -4 26.5 -8
t29.5 -6h2q-5 13 -8 28.5t-3 31.5v0q0 42 19 78q19 37 52.5 64t78.5 43t96 16v0z" />
    <glyph glyph-name="uniE956" unicode="&#xe956;" horiz-adv-x="1056" 
d="M646 577q11 0 22 -1t22 -3q-26 57 -89.5 94t-144.5 37q-51 0 -96 -15q-45 -16 -78.5 -42.5t-53.5 -62.5q-19 -35 -19 -76q0 -39 19 -74.5t54 -63.5l19 -16l-10 -22l-9 -20l60 23l11 -5q12 -4 26.5 -8t29.5 -6h2q-5 13 -8 28.5t-3 31.5v0q0 42 19 78q19 37 52.5 64
t78.5 43t96 16zM892 376q0 -41 -19.5 -77.5t-53.5 -64.5l33 -71l-95 35v0q-24 -11 -52.5 -16.5t-58.5 -5.5v0v0v0q-71 0 -128.5 29t-88.5 76q-24 2 -46.5 7t-42.5 13l2 -1l-121 -46l41 91q-39 31 -62 73t-23 90q0 47 22 89q22 41 60 72t89 49t108 18q49 0 93 -13t79.5 -35.5
t61.5 -54.5q25 -31 37 -68q72 -20 118.5 -71.5t46.5 -117.5v0zM745 341h0.5h0.5q12 0 20.5 8.5t8.5 20.5t-8.5 20.5t-20.5 8.5h-0.5h-0.5v0q-12 0 -20 -8.5t-8 -20.5t8 -20.5t20 -8.5v0v0zM650 341v0v0q12 0 20.5 8.5t8.5 20.5v0v0v0v0q0 10 -5.5 17t-13.5 10v0
q-2 1 -4.5 1.5t-5.5 0.5v0q-12 0 -20.5 -8.5t-8.5 -20.5v0v0v0q0 -2 0.5 -4t0.5 -3q3 -9 9.5 -15t15.5 -6v0q1 -1 1.5 -1h1.5v0zM554 341v0v0q13 0 21.5 8.5t8.5 20.5t-8.5 20.5t-21.5 8.5v0v0v0q-12 0 -20.5 -8.5t-8.5 -20.5t8.5 -20.5t20.5 -8.5v0z" />
    <glyph glyph-name="uniE957" unicode="&#xe957;" horiz-adv-x="1056" 
d="M339 256h382v159h63v-223h-511v512h223v-66h-157v-382v0zM589 461l-45 45l133 134h-116v64h224v-224h-64v114l-132 -133v0zM753 496v16v-16v0v0z" />
    <glyph glyph-name="uniE958" unicode="&#xe958;" horiz-adv-x="1056" 
d="M753 649l-149 -149l-22 22l148 150h-137v32h192v-192h-32v137zM306 224h447v191h32v-223h-511v512h223v-32h-191v-448v0z" />
    <glyph glyph-name="uniE959" unicode="&#xe959;" horiz-adv-x="1056" 
d="M241 832h608v-800h-608v800zM762 611h-315v-38h315v38zM387 611h-69v-38h69v38zM762 467h-315v-38h315v38v0zM387 467h-69v-38h69v38v0zM762 307h-315v-38h315v38zM387 307h-69v-38h69v38z" />
    <glyph glyph-name="uniE95A" unicode="&#xe95a;" horiz-adv-x="1056" 
d="M749 413h-98v70h98q-12 72 -62.5 122.5t-121.5 62.5h-1v-98h-70v98q-72 -12 -122.5 -62.5t-62.5 -120.5v-2h98v-70h-98q12 -72 62.5 -122.5t120.5 -62.5h2v98h70v-98q71 12 122 62.5t63 121.5v1v0zM897 483v-70h-77q-6 -50 -28 -94t-56 -78t-77 -56q-44 -22 -94 -28h-1
v-77h-70v77q-51 6 -95 28q-43 22 -77 55.5t-56 77.5t-28 93v2h-77v70h77q6 50 28 94t55.5 78t77.5 56q43 22 93 28h2v77h70v-77q50 -6 94 -28t78 -55.5t56 -77.5t28 -93v-2h77v0z" />
    <glyph glyph-name="uniE95B" unicode="&#xe95b;" horiz-adv-x="1056" 
d="M349 416h-84l-78 -288h684l-79 288h-84q-13 -19 -27 -35.5t-29 -31.5v0q-23 -23 -49 -43.5t-54 -37.5l-2 -2q-4 -2 -6.5 -3.5t-4.5 -2.5l-7 -4l-8 4q-3 2 -6 3.5t-5 3.5l1 -1q-30 19 -56 39.5t-49 43.5v0q-16 15 -30 31.5t-26 33.5l-1 2v0zM728 448h89l96 -352h-768
l96 352h88q-19 35 -29.5 72.5t-10.5 76.5q0 49 19 92q19 42 51.5 74t75.5 51q44 18 94 18t93 -18q44 -19 76.5 -51t51.5 -74q19 -43 19 -92q0 -39 -10.5 -76.5t-29.5 -72.5h-1zM529 540q24 0 41.5 17t17.5 40q0 24 -17.5 40.5t-41.5 16.5q-25 0 -42 -16.5t-17 -40.5
q0 -23 17 -40t42 -17v0z" />
    <glyph glyph-name="uniE95C" unicode="&#xe95c;" horiz-adv-x="1056" 
d="M438 384v-1.5v-1.5q0 -2 -0.5 -4.5t-2.5 -3.5h1q-3 -3 -6 -5t-7 -2q-3 0 -6 1t-5 3v0q-1 1 -1.5 2.5t-1.5 2.5v0q0 2 -0.5 3t-0.5 3v0v0v0q0 2 0.5 4.5t2.5 3.5v0q1 2 2.5 3.5t3.5 2.5v0q2 0 3 0.5t3 0.5q5 0 9.5 -3.5t5.5 -8.5v0v0zM910 125q6 0 10.5 -4.5t4.5 -10.5
t-4.5 -10.5t-10.5 -4.5h-738q-6 0 -10.5 4.5t-4.5 10.5t4.5 10.5t10.5 4.5h31v226q0 19 13.5 32t31.5 13h26v148q0 19 13 32t32 13h46v43q-20 6 -33 22t-13 37q0 8 1.5 15t4.5 13v-1l41 84q2 4 5.5 6t8.5 2q4 0 7.5 -2t5.5 -6v0l41 -84q3 -6 5 -12.5t2 -14.5q0 -21 -13 -37
t-33 -22v0v-43h131v64q-20 6 -33 22t-13 37q0 8 2 15t5 13v-1l41 84q2 3 5.5 5.5t7.5 2.5q5 0 8.5 -2t5.5 -6v0l41 -84q3 -6 4.5 -12.5t1.5 -14.5q0 -21 -13 -37t-32 -21l-1 -1v-64h132v43q-20 6 -33 22t-13 37q0 8 1.5 15t4.5 13v-1l41 84q2 4 5.5 6t8.5 2q4 0 7.5 -2
t5.5 -6v0l41 -84q3 -5 5 -12t2 -15q0 -21 -13 -37t-33 -21v-1v-43h46q18 0 31.5 -13t13.5 -32v-148h25q19 0 32 -13t13 -32v-226h31v0zM681 670q4 -5 9.5 -7t12.5 -2q6 0 11.5 2t9.5 7v0q5 4 7.5 9.5t2.5 11.5q0 4 -1 7.5t-3 6.5v0l-27 56l-28 -56q-2 -3 -2.5 -6.5
t-0.5 -7.5q0 -6 2.5 -11.5t6.5 -9.5v0v0zM519 691q4 -5 10 -7t12 -2q7 0 12.5 2t9.5 7v0q4 4 6.5 9.5t2.5 11.5q0 4 -1 7.5t-2 6.5v0l-28 56l-28 -56q-1 -3 -2 -6.5t-1 -7.5q0 -6 2.5 -11.5t6.5 -9.5v0v0zM358 670q4 -5 9.5 -7t12.5 -2q6 0 11.5 2t10.5 7v0q4 4 6.5 9.5
t2.5 11.5q0 4 -1 7.5t-3 6.5v0l-27 56l-28 -56q-2 -3 -2.5 -6.5t-0.5 -7.5q0 -6 2.5 -11.5t6.5 -9.5v0v0zM319 559q-7 0 -11 -4.5t-4 -10.5v0v-47q5 -2 10.5 -2.5t11.5 -0.5q17 0 26.5 4.5t18.5 10.5q11 7 25 14t38 7q23 0 37 -7t25 -14q9 -6 18.5 -10.5t26.5 -4.5t26.5 4.5
t19.5 10.5q10 7 24 14t38 7q23 0 37 -7t25 -14q10 -6 19.5 -10.5t25.5 -4.5q7 0 12.5 0.5t10.5 2.5v47v0v0q0 6 -4.5 10.5t-10.5 4.5h-445v0zM849 125v144q-9 -2 -16 -5.5t-14 -8.5q-11 -7 -25 -14t-38 -7q-23 0 -37 7t-25 14q-9 6 -18.5 10.5t-26.5 4.5t-26.5 -4.5
t-19.5 -10.5q-11 -7 -24.5 -14t-37.5 -7q-23 0 -37 7t-25 14q-10 6 -19.5 10.5t-25.5 4.5q-17 0 -26.5 -4.5t-19.5 -10.5q-11 -7 -25 -14t-37 -7q-24 0 -37.5 7t-24.5 14q-7 5 -14 8.5t-17 5.5v-144h616v0zM849 299v52q0 6 -4.5 10.5t-10.5 4.5v0v0h-351q-6 0 -10.5 4.5
t-4.5 10.5t4.5 10.5t10.5 4.5h296v70q-5 -1 -10.5 -1.5t-11.5 -0.5v0h-1v0q-23 0 -37 6.5t-25 13.5q-9 7 -18.5 11.5t-26.5 4.5t-26.5 -4.5t-19.5 -11.5t-24 -13.5t-38 -6.5q-23 0 -37 6.5t-25 13.5q-10 7 -19.5 11.5t-25.5 4.5q-17 0 -26.5 -4.5t-19.5 -11.5
q-11 -7 -25 -13.5t-37 -6.5v0h-1q-5 0 -11 0.5t-11 1.5h1v-70h59q7 0 11 -4.5t4 -10.5t-4 -10.5t-11 -4.5h-115v0v0q-6 0 -10.5 -4.5t-4.5 -10.5v-52q17 -2 27.5 -7.5t19.5 -11.5q10 -7 19.5 -11.5t26.5 -4.5t26.5 4.5t18.5 11.5q11 7 25 13.5t37 6.5q24 0 38 -6.5t25 -13.5
q9 -7 18.5 -11.5t26.5 -4.5t26.5 4.5t19.5 11.5t24 13.5t38 6.5q23 0 37 -6.5t25 -13.5q10 -7 19.5 -11.5t25.5 -4.5q17 0 26.5 4.5t19.5 11.5q9 6 20 11.5t27 7.5v0zM303 162q1 0 1 -1v-2q0 -6 -4.5 -10.5t-10.5 -4.5v0v0v0q-6 0 -10 3.5t-5 8.5v0v1.5v1.5q0 3 0.5 5t1.5 4
v0q2 3 5.5 4.5t7.5 1.5q2 0 4 -0.5t4 -1.5v0q2 -2 4 -4.5t2 -5.5v0v0zM465 207v-1.5v-1.5q0 -3 -1 -5.5t-3 -4.5v0q-3 -3 -5.5 -4t-5.5 -1h-1.5h-1.5v0q-4 1 -7.5 4.5t-4.5 7.5v0v1.5v1.5q0 6 4.5 10.5t10.5 4.5q2 0 4.5 -0.5t3.5 -1.5v0l3.5 -3.5t2.5 -3.5v0q0 -1 0.5 -1.5
t0.5 -1.5v0zM638 162v-1.5v-1.5q0 -6 -4 -10.5t-10 -4.5q-3 0 -5 1l-4 2v0q-2 1 -3.5 2.5t-1.5 3.5v1q-1 1 -1.5 2.5t-0.5 2.5q0 3 1 5l2 4v0l2 2l2 2v0q2 1 4 1.5t4 0.5h2h1v0q5 -1 8 -4t4 -8v0v0zM808 198q0 -1 0.5 -1.5t0.5 -1.5q0 -3 -1.5 -5.5t-3.5 -4.5v0
q-2 -2 -4.5 -3.5t-5.5 -1.5q-4 0 -7.5 2t-5.5 5v0q-1 2 -1.5 4t-0.5 4v1.5v1.5v0q0 2 1 4t3 4v0q2 2 4.5 3t5.5 1q6 0 10 -3.5t5 -8.5v0v0zM659 443q0 -1 0.5 -2t0.5 -2q0 -6 -4.5 -10.5t-11.5 -4.5q-5 0 -9.5 4t-4.5 9v0q0 1 -0.5 1.5l-0.5 0.5q0 7 4.5 11t10.5 4t10 -3
t5 -8v0zM463 464v-2v-1q0 -3 -1 -6t-3 -5v0q-1 -1 -2 -1.5l-3 -1.5v0q-1 -1 -2.5 -1h-3.5t-4 0.5t-4 1.5v0l-1.5 1.5l-0.5 0.5v0q-1 1 -2 2.5t-1 2.5v0q-1 1 -1.5 2.5t-0.5 3.5t1 4l2 4v0l2 2l2 2v0q1 1 2.5 1.5t2.5 0.5h1q0 1 1 1h2q3 0 6.5 -2t5.5 -5v0q1 -1 1.5 -2.5
t0.5 -2.5v0z" />
    <glyph glyph-name="uniE95D" unicode="&#xe95d;" horiz-adv-x="1050" 
d="M535 192q-53 0 -99 20q-47 20 -81.5 55t-55.5 81q-20 47 -20 100t20 100q21 46 55.5 81t81.5 55q46 20 99 20t100 -20t81.5 -55t54.5 -81q20 -47 20 -100t-20 -100q-20 -46 -54.5 -81t-81.5 -55t-100 -20zM510 627v-256h51v256h-51v0zM510 346v-52h51v52h-51v0z" />
    <glyph glyph-name="uniE95E" unicode="&#xe95e;" 
d="M512 653q43 0 82 -14q39 -13 71 -37t55 -57q24 -32 36 -71q-12 -39 -36 -72q-23 -33 -55 -57t-71 -37q-39 -14 -82 -14t-82 14q-39 13 -71 37t-55 57q-24 33 -36 72q12 39 36 71q23 33 55 57t71 37q39 14 82 14zM512 602q-63 0 -112 -36.5t-67 -91.5q18 -56 67 -92
t112 -36t112 36t67 92q-18 55 -67 91.5t-112 36.5zM512 550q32 0 54.5 -22.5t22.5 -53.5q0 -32 -22.5 -54.5t-54.5 -22.5t-54.5 22.5t-22.5 54.5q0 31 22.5 53.5t54.5 22.5v0z" />
    <glyph glyph-name="uniE95F" unicode="&#xe95f;" 
d="M687 668l18 -18l-44 -45q33 -24 58 -57.5t37 -73.5q-12 -39 -36 -72q-23 -33 -55 -57t-71 -37q-39 -14 -82 -14q-35 0 -67.5 9t-60.5 26l-59 -59l-18 18l373 372v0l7 8v0zM622 567l-48 -48q7 -10 11 -21.5t4 -23.5q0 -32 -22.5 -54.5t-54.5 -22.5q-13 0 -24.5 4t-20.5 10
l-44 -44q20 -10 42.5 -15.5t46.5 -5.5q63 0 112 36t67 92q-9 28 -27 52t-42 41v0zM512 653q27 0 53 -5.5t50 -16.5l-40 -40q-15 5 -31 8t-32 3q-63 0 -112 -36.5t-67 -91.5q7 -22 19 -41.5t29 -34.5l-39 -39l-1 1q-25 22 -44 51t-29 63q12 39 36 71q23 33 55 57t71 37
q39 14 82 14v0zM512 550q5 0 10 -0.5t9 -1.5l-93 -94q-2 5 -2.5 10t-0.5 10q0 31 22.5 53.5t54.5 22.5z" />
  </font>
</defs>
</svg>
