<?xml version="1.0" standalone="no"?>
<!DOCTYPE svg PUBLIC "-//W3C//DTD SVG 1.1//EN" "http://www.w3.org/Graphics/SVG/1.1/DTD/svg11.dtd" >
<svg xmlns="http://www.w3.org/2000/svg" xmlns:xlink="http://www.w3.org/1999/xlink" version="1.1">
<metadata>
Created by FontForge 20170731 at Sun May 23 11:50:57 2021
 By Aleksey,,,
Copyright (c)2014 Commercial Type.
</metadata>
<defs>
<font id="DrukWide-Super" horiz-adv-x="1433" >
  <font-face 
    font-family="Druk Wide Super"
    font-weight="1000"
    font-stretch="normal"
    units-per-em="2048"
    panose-1="0 0 0 0 0 0 0 0 0 0"
    ascent="1663"
    descent="-385"
    x-height="1102"
    cap-height="1524"
    bbox="-254 -678 5990 2478"
    underline-thickness="268"
    underline-position="-309"
    unicode-range="U+0020-FB02"
  />
<missing-glyph horiz-adv-x="1024" 
 />
    <glyph glyph-name="f_f" unicode="ff" horiz-adv-x="2271" 
d="M993 0h-747v696h-230v406h230v65q0 183 106 270t336 87h522v-340h-161q-34 0 -45 -13.5t-11 -46.5v-22h287v65q0 183 106 270t336 87h523v-340h-162q-33 0 -44 -13.5t-11 -46.5v-22h217v-406h-217v-696h-748v696h-287v-696z" />
    <glyph glyph-name="f_i" unicode="fi" horiz-adv-x="2072" 
d="M1202 1524v-340h-153q-34 0 -45 -13.5t-11 -46.5v-22h209v-406h-209v-696h-747v696h-230v406h230v65q0 183 106 270t336 87h514zM2023 1524v-359h-745v359h745zM2023 1102v-1102h-745v1102h745z" />
    <glyph glyph-name="f_l" unicode="fl" horiz-adv-x="2072" 
d="M1202 1524v-340h-153q-34 0 -45 -13.5t-11 -46.5v-22h209v-406h-209v-696h-747v696h-230v406h230v65q0 183 106 270t336 87h514zM2023 1524v-1524h-745v1524h745z" />
    <glyph glyph-name="emdash.alt" unicode="&#x2014;&#x2014;" horiz-adv-x="6033" 
d="M5990 774v-334h-5947v334h5947z" />
    <glyph glyph-name=".notdef" horiz-adv-x="1024" 
 />
    <glyph glyph-name=".null" horiz-adv-x="0" 
 />
    <glyph glyph-name="nonmarkingreturn" horiz-adv-x="682" 
 />
    <glyph glyph-name="space" unicode=" " horiz-adv-x="606" 
 />
    <glyph glyph-name="exclam" unicode="!" horiz-adv-x="1005" 
d="M-4 1524h1014l-275 -979h-465zM870 475v-475h-735v475h735z" />
    <glyph glyph-name="quotedbl" unicode="&#x22;" horiz-adv-x="1318" 
d="M1272 1524v-596h-578v596h578zM625 1524v-594h-578v594h578z" />
    <glyph glyph-name="numbersign" unicode="#" horiz-adv-x="1921" 
d="M1061 674l72 250h-277l-72 -250h277zM868 0l107 371h-277l-106 -371h-428l104 371h-268l86 303h268l72 250h-268l86 303h268l84 297h432l-86 -297h277l86 297h432l-86 -297h270l-88 -303h-270l-72 -250h270l-88 -303h-270l-107 -371h-428z" />
    <glyph glyph-name="dollar" unicode="$" horiz-adv-x="2283" 
d="M827 1098q0 -38 39.5 -59.5t149.5 -32.5v184q-79 -4 -122 -16.5t-55 -29t-12 -42.5v-4zM1415 475q0 21 -5 34.5t-22.5 28t-55.5 24.5t-99 16v-220q107 8 144.5 36.5t37.5 72.5v8zM1233 -154h-217v127q-192 0 -348.5 20t-260 51.5t-180.5 77.5t-119 91t-67 100.5t-32 98
t-7 90.5v20h825q1 -24 4.5 -40.5t15.5 -38t31 -36t54.5 -27.5t83.5 -20v230l-262 10q-145 6 -260.5 26.5t-193.5 54t-132.5 75t-84.5 94t-43 105t-13 114.5v18q0 111 48.5 191.5t160 141.5t306 91.5t474.5 30.5v117h217v-117q168 -1 305.5 -14t238.5 -36t178 -56.5
t126.5 -72.5t80.5 -87.5t43.5 -98t12.5 -106.5v-14h-805q-3 22 -9.5 38t-24 36t-54.5 34t-92 21v-193l262 -8q285 -9 457 -61.5t247.5 -147.5t75.5 -246v-28q0 -62 -11 -115t-41.5 -108t-80 -98.5t-130 -83t-187.5 -66t-257 -42t-335 -16.5v-127z" />
    <glyph glyph-name="percent" unicode="%" horiz-adv-x="3117" 
d="M686 659q-119 0 -217.5 15t-166.5 40t-119.5 61t-81.5 73.5t-49 82t-25.5 82.5t-6.5 79v26q0 59 13.5 111t57 111t114.5 101t195.5 69.5t289.5 27.5h33q165 0 289.5 -27.5t195.5 -69.5t114.5 -101t57 -111t13.5 -111v-26q0 -41 -6.5 -79t-25.5 -82.5t-49 -82t-81.5 -73.5
t-119.5 -61t-166.5 -40t-217.5 -15h-41zM2165 1524h508l-1727 -1524h-506zM707 963q85 0 125 39t40 98v6q0 58 -40 96.5t-125 38.5t-125.5 -38.5t-40.5 -96.5v-6q0 -58 40.5 -97.5t125.5 -39.5zM2431 -16h-41q-119 0 -217.5 15t-166.5 40t-119.5 60.5t-81.5 73t-49 82
t-25.5 82.5t-6.5 79v26q0 59 13.5 111t57 111t114.5 101t195.5 69.5t289.5 27.5h33q165 0 289.5 -27.5t195.5 -69.5t114.5 -101t57 -111t13.5 -111v-26q0 -41 -6.5 -79t-25.5 -82.5t-49 -82t-81.5 -73t-119.5 -60.5t-166.5 -40t-217.5 -15zM2410 287q85 0 125.5 39.5
t40.5 97.5v6q0 58 -40.5 96.5t-125.5 38.5t-125 -38.5t-40 -96.5v-6q0 -59 40 -98t125 -39z" />
    <glyph glyph-name="ampersand" unicode="&#x26;" horiz-adv-x="2521" 
d="M999 1184q0 -42 36 -81.5t136 -109.5q99 35 147 73t48 95q0 49 -47 79t-143 30q-177 0 -177 -86zM1137 311q81 0 145 6l-489 328q-29 -56 -29 -102v-6q0 -45 19 -83.5t60 -71.5t116 -52t178 -19zM2361 -23q-222 -4 -379.5 18.5t-291.5 78.5q-268 -105 -703 -105
q-209 0 -376 22t-279.5 60t-187 92t-107.5 115.5t-33 132.5v17q0 314 549 401q-119 94 -166 178t-47 182v17q0 60 23 111.5t79.5 100t144 82t225 54t314.5 20.5h123q166 0 294 -19.5t206 -51t127 -75.5t67.5 -87.5t18.5 -93.5v-10q0 -135 -131.5 -224.5t-441.5 -144.5
l370 -244q80 139 80 320h602q0 -274 -225 -496q92 -8 321 -8z" />
    <glyph glyph-name="quotesingle" unicode="'" horiz-adv-x="673" 
d="M627 1524v-596h-580v596h580z" />
    <glyph glyph-name="parenleft" unicode="(" horiz-adv-x="825" 
d="M18 707q0 284 135 525.5t375 422.5h330q-291 -431 -291 -948q0 -277 77.5 -513t213.5 -462h-330q-240 192 -375 438t-135 537z" />
    <glyph glyph-name="parenright" unicode=")" horiz-adv-x="825" 
d="M-33 -268q136 226 213.5 462t77.5 513q0 517 -291 948h330q240 -181 375 -422.5t135 -525.5q0 -291 -135 -537t-375 -438h-330z" />
    <glyph glyph-name="asterisk" unicode="*" horiz-adv-x="1024" 
d="M649 1288l203 182l168 -323l-299 -57l299 -62l-168 -326l-209 164l72 -235h-404l76 235l-213 -164l-170 326l301 62l-301 57l170 323l205 -182l-68 236h404z" />
    <glyph glyph-name="plus" unicode="+" horiz-adv-x="1282" 
d="M1260 455h-402v-361h-436v361h-399v356h399v358h436v-358h402v-356z" />
    <glyph glyph-name="comma" unicode="," horiz-adv-x="821" 
d="M618 -276h-380q36 58 68 139t36 137h-299v475h735v-381q0 -90 -50.5 -194.5t-109.5 -175.5z" />
    <glyph glyph-name="hyphen" unicode="-" horiz-adv-x="796" 
d="M43 827h711v-438h-711v438z" />
    <glyph glyph-name="period" unicode="." horiz-adv-x="821" 
d="M778 475v-475h-735v475h735z" />
    <glyph glyph-name="slash" unicode="/" horiz-adv-x="1075" 
d="M1114 1655l-663 -1923h-537l659 1923h541z" />
    <glyph glyph-name="zero" unicode="0" horiz-adv-x="2445" 
d="M2421 793v-62q0 -71 -10.5 -136.5t-42 -144t-82.5 -144.5t-140 -130t-206 -108.5t-288 -71.5t-380 -27h-96q-209 0 -381 27t-289.5 71.5t-206 108.5t-139.5 130t-82.5 144.5t-42 144t-10.5 136.5v62q0 71 10.5 136.5t41.5 144.5t82.5 144.5t140 129.5t206 108t289.5 71
t381 27h96q209 0 380 -27t288 -71t206 -108t140 -129.5t82.5 -144.5t42 -144.5t10.5 -136.5zM1620 758v24q0 41 -11.5 79.5t-40.5 77.5t-72.5 67.5t-113.5 46.5t-159 18q-90 0 -160.5 -18t-114 -46.5t-72.5 -67.5t-40 -77.5t-11 -79.5v-24q0 -42 11.5 -81.5t40.5 -80
t73 -70.5t114.5 -48.5t158.5 -18.5q89 0 159.5 18.5t114 48.5t72.5 70.5t40 80t11 81.5z" />
    <glyph glyph-name="one" unicode="1" horiz-adv-x="1257" 
d="M420 817h-395v377q414 12 536 330h637v-1524h-778v817z" />
    <glyph glyph-name="two" unicode="2" horiz-adv-x="2213" 
d="M2177 0h-2150v188v2q0 53 2.5 86t20.5 101.5t51.5 119t104 119.5t168.5 122.5t254 110t353 99.5q107 24 178 37q119 24 153 40.5t34 45.5v2q0 24 -16.5 39.5t-71 26t-150.5 10.5q-65 0 -115.5 -9t-79 -25t-47.5 -32.5t-26.5 -38t-9.5 -34.5t-3 -28v-5h-780v10q0 56 7 103
t31.5 107.5t65.5 108t116 95.5t176.5 80.5t253 52.5t339.5 20h99q183 0 330.5 -13t253 -35.5t184.5 -57.5t127.5 -74t77.5 -89.5t40 -100.5t11 -111v-16q0 -73 -20.5 -129t-70 -101t-116 -78t-173.5 -62t-226.5 -50.5t-290.5 -46.5q-33 -4 -83.5 -13t-70.5 -12
q-243 -39 -330.5 -69t-87.5 -70h811v149h676v-575z" />
    <glyph glyph-name="three" unicode="3" horiz-adv-x="2314" 
d="M1180 -31h-105q-197 0 -358.5 21.5t-271 57t-192 85.5t-129.5 101.5t-75.5 112t-37.5 108.5t-9 100v18h791q1 -16 4 -29.5t22 -40.5t51 -45.5t97.5 -33t154.5 -14.5q101 0 169.5 8t102.5 23t47 31.5t13 39.5v4q0 80 -141 80h-457v385h459q125 0 125 66v2q0 17 -4 28
t-21.5 23.5t-50.5 19.5t-93.5 12t-146.5 5q-313 0 -323 -133h-783v22q0 45 8 87t35 97t71.5 101t125 92.5t188 78.5t268 52t357.5 20h96q206 0 371 -13t275.5 -33.5t191 -52.5t124.5 -64t69.5 -75t32.5 -77t7 -78v-8q0 -102 -90 -168t-229 -88q77 -11 143 -36.5t122.5 -68.5
t89 -112t32.5 -156v-12q0 -543 -1126 -543z" />
    <glyph glyph-name="four" unicode="4" horiz-adv-x="2297" 
d="M18 653l1053 881h875v-821h335v-469h-335v-244h-785v244h-1143v409zM1161 713v405l-485 -405h485z" />
    <glyph glyph-name="five" unicode="5" horiz-adv-x="2177" 
d="M1159 -31h-102q-163 0 -300 13.5t-235 34t-176.5 53.5t-128 64.5t-86 74.5t-54 75.5t-27.5 76.5t-11.5 68t-1.5 58v13h797l3 -6q3 -7 5 -11t8.5 -13t13 -15t19 -14.5t26 -14.5t34 -12.5t44 -11t55 -7t66.5 -2.5q131 0 190.5 40.5t59.5 107.5v4q0 63 -60 103t-190 40
q-230 0 -273 -112q-1 -2 -1 -3h-775v951h1995v-400h-1212v-200q21 15 53.5 31.5t95.5 39.5t163 37.5t218 14.5h17q184 0 322.5 -26.5t223 -70t136.5 -109t71 -134t19 -154.5v-12q0 -61 -10 -114.5t-39 -113t-75.5 -108t-124 -93.5t-180 -75.5t-249 -49t-324.5 -18.5z" />
    <glyph glyph-name="six" unicode="6" horiz-adv-x="2314" 
d="M1198 -31h-96q-159 0 -295.5 18t-237 48.5t-183 75t-138 92.5t-97.5 107t-65.5 112t-37.5 113.5t-18.5 106.5t-4.5 95v49q0 48 4 92.5t17.5 105t36.5 113t65 112t97.5 108t139.5 94t186.5 76t242.5 49t304 18.5h96q179 0 328 -17.5t252 -47t182.5 -71t126.5 -85t76.5 -94
t40 -94t10.5 -88.5v-10h-778q-70 100 -256 100q-101 0 -176 -26t-114.5 -69t-58 -89.5t-18.5 -96.5v-14q24 17 57.5 34t107 43.5t194.5 43t270 16.5h25q187 0 328 -21t234 -58t151 -93.5t82 -122t24 -149.5v-19q0 -60 -9 -110t-37.5 -109t-76.5 -105.5t-132 -91.5
t-197.5 -75t-279.5 -48t-372 -18zM866 506q0 -28 13.5 -49t47 -38.5t98.5 -26.5t161 -9q123 0 195 17t95 42.5t23 63.5v2q0 27 -13 47t-46 37.5t-97 27t-157 9.5q-95 0 -160.5 -9.5t-99 -27t-47 -37.5t-13.5 -47v-2z" />
    <glyph glyph-name="seven" unicode="7" horiz-adv-x="2136" 
d="M1518 0h-850v160q0 71 13 129.5t48.5 126.5t103.5 142t173 161q61 49 183 140.5t183.5 143t61.5 68.5h-674v-260h-719v713h2066v-379q-3 -4 -57 -66t-86.5 -101t-90 -112.5t-106.5 -142.5q-139 -199 -194 -364t-55 -359z" />
    <glyph glyph-name="eight" unicode="8" horiz-adv-x="2275" 
d="M2232 1149v-12q0 -128 -103.5 -215t-289.5 -115q198 -28 313 -121.5t115 -232.5v-15q0 -52 -7.5 -93t-34.5 -91.5t-72.5 -89t-128 -77t-194.5 -63t-277.5 -40t-372.5 -15.5h-84q-207 0 -373.5 15.5t-278.5 40t-194.5 63t-128 77t-72 89t-34 91.5t-7.5 93v15
q0 139 117.5 232t310.5 122q-184 28 -289.5 115.5t-105.5 214.5v12q0 45 8 81.5t34.5 80t72 76.5t125.5 65.5t188.5 54t268 34.5t358.5 13h88q199 0 358 -13t267 -34t187.5 -54t124 -66t70.5 -76.5t33.5 -80t7.5 -81.5zM1419 1071v6q0 28 -19.5 45.5t-83.5 29t-179 11.5
q-90 0 -148 -6t-86 -18.5t-37.5 -26.5t-9.5 -35v-6q0 -22 10.5 -37t39 -27.5t86 -19t145.5 -6.5q114 0 178.5 12t84 30.5t19.5 47.5zM1460 494v6q0 48 -71 74t-252 26q-94 0 -158.5 -7.5t-99 -21.5t-48.5 -31t-14 -40v-6q0 -105 320 -105q323 0 323 105z" />
    <glyph glyph-name="nine" unicode="9" horiz-adv-x="2316" 
d="M1450 1018q0 28 -13.5 49t-47 38.5t-98.5 26.5t-161 9q-120 0 -191.5 -17t-96.5 -42.5t-25 -63.5v-2q0 -121 313 -121q95 0 160.5 9.5t99 27t47 37.5t13.5 47v2zM1106 -31q-181 0 -331 18t-253 47.5t-183 71.5t-126.5 86t-76 94.5t-40 93.5t-10.5 87v10h770
q7 -14 21 -27.5t43 -32t82 -29.5t122 -11q101 0 176 27t113.5 71t56 90.5t17.5 96.5v10q-23 -18 -55.5 -35.5t-103 -44.5t-187 -43.5t-260.5 -16.5h-25q-182 0 -325 23.5t-239.5 65.5t-160 103.5t-91.5 134.5t-28 161v18q0 60 11 111t41.5 105t80.5 96.5t132.5 82t191.5 65
t263.5 41t344.5 15.5h99q165 0 306 -17.5t245.5 -46.5t190 -72.5t143 -89.5t101 -103t67.5 -108.5t39 -110t19.5 -103t4.5 -92.5v-49q0 -49 -3.5 -94t-17 -107.5t-35.5 -116.5t-63.5 -116t-97 -112t-139 -97t-186 -79t-243 -51.5t-305.5 -19.5h-96z" />
    <glyph glyph-name="colon" unicode=":" horiz-adv-x="825" 
d="M780 1055v-475h-735v475h735zM780 475v-475h-735v475h735z" />
    <glyph glyph-name="semicolon" unicode=";" horiz-adv-x="825" 
d="M780 1055v-475h-735v475h735zM621 -276h-381q36 58 68 139t36 137h-299v475h735v-381q0 -90 -50.5 -195t-108.5 -175z" />
    <glyph glyph-name="less" unicode="&#x3c;" horiz-adv-x="1120" 
d="M1096 109l-1073 315v395l1073 314v-371l-658 -144l658 -139v-370z" />
    <glyph glyph-name="equal" unicode="=" horiz-adv-x="1206" 
d="M27 1001h1153v-333h-1153v333zM27 598h1153v-334h-1153v334z" />
    <glyph glyph-name="greater" unicode="&#x3e;" horiz-adv-x="1079" 
d="M25 109v370l632 139l-632 144v371l1032 -314v-395z" />
    <glyph glyph-name="question" unicode="?" horiz-adv-x="2064" 
d="M1307 543h-732v102q0 38 1 60t7 54t17.5 52t32.5 44.5t52.5 41t78.5 33t108 28.5l273 54q86 17 120.5 34.5t34.5 43.5v2q0 22 -14.5 34t-67.5 19.5t-155 7.5q-84 0 -143.5 -9t-91 -21.5t-49 -34t-22 -38t-5.5 -42.5h-748v24q0 38 2 65.5t12 72t27.5 77.5t53 75t84 72
t124.5 61t171 50.5t226.5 32t288.5 12.5h99q178 0 322 -14t243.5 -37.5t173.5 -59t117 -72.5t69 -85.5t34.5 -91t8.5 -94.5v-19q0 -50 -10 -95.5t-36.5 -93t-68 -86t-109 -70.5t-155.5 -50l-276 -55q-55 -12 -76.5 -30t-21.5 -52v-2zM1311 475v-475h-736v475h736z" />
    <glyph glyph-name="at" unicode="@" horiz-adv-x="2734" 
d="M1370 -305q-196 0 -363 18t-292.5 49t-227.5 77.5t-172.5 98t-123.5 117t-83.5 128t-49.5 137.5t-25 138.5t-6 137.5v25q0 72 5.5 132t22.5 134.5t46.5 135t81 126.5t121.5 117t173 98.5t230 78.5t297.5 49.5t371.5 18.5h33q258 0 463.5 -28.5t339 -71.5t230.5 -112.5
t147 -132t78 -150t34 -147.5t6 -142v-22q0 -65 -8 -124.5t-30 -124t-56 -118.5t-89.5 -103t-127.5 -83t-173.5 -54t-223.5 -20h-37q-101 0 -181 12t-125.5 27.5t-81 40.5t-49 40.5t-26.5 37.5q-26 -21 -44 -34.5t-65.5 -39.5t-95.5 -42t-124 -29t-160 -13h-27
q-98 0 -178 17.5t-132.5 48t-93 71.5t-59.5 87t-31 96t-9 98t7 92l21 139q55 383 496 383h28q314 0 490 -158l16 150h721l-94 -742q-3 -32 6 -48.5t43 -16.5q99 0 164 111t65 315v4q0 58 -1.5 90.5t-11 89.5t-27 91t-53.5 82.5t-86.5 78t-129.5 63t-179.5 52t-239.5 31
t-306 12.5h-33q-202 0 -364 -22t-272.5 -58t-192 -91t-128 -112t-74 -132t-36 -139t-8.5 -143v-22q0 -56 4.5 -103.5t18.5 -106t37 -107t64.5 -101t96.5 -93.5t136.5 -79t182 -62.5t235.5 -39.5t294 -15q209 0 384.5 15t281 33.5t202.5 50.5t134.5 49.5t91.5 46.5l94 -193
q-45 -26 -79.5 -42.5t-135 -49t-216.5 -52.5t-316 -36t-441 -16zM1468 565l9 72q11 84 -14 126t-97 42q-33 0 -56 -12.5t-36 -37.5t-19.5 -48t-11.5 -58l-14 -78q-27 -182 96 -182q34 0 59 12t39.5 28t24.5 42.5t13.5 46.5t6.5 47z" />
    <glyph glyph-name="A" unicode="A" horiz-adv-x="2502" 
d="M1393 633l-187 422l-182 -422h369zM1671 0l-80 182h-762l-79 -182h-787l719 1524h1094l764 -1524h-869z" />
    <glyph glyph-name="B" unicode="B" horiz-adv-x="2404" 
d="M57 0v1524h1678q134 0 237 -19.5t166.5 -51.5t103.5 -77.5t55 -92.5t15 -101v-13q0 -120 -88.5 -198.5t-214.5 -104.5q393 -71 393 -403v-17q0 -75 -21 -139t-70 -121.5t-124 -98t-190 -64t-262 -23.5h-1678zM1380 1128h-544v-147h544q73 0 105.5 17.5t32.5 56.5v4
q0 41 -31 55t-107 14zM1411 598h-575v-188h575q95 0 129.5 24.5t34.5 71.5v4q0 46 -34.5 67t-129.5 21z" />
    <glyph glyph-name="C" unicode="C" horiz-adv-x="2441" 
d="M1282 -31h-72q-1185 0 -1185 766v62q0 76 10 143t42 146t84 143.5t143 126.5t212 104t298.5 68t395.5 26h72q209 0 380.5 -24.5t287.5 -64t204 -96t137.5 -113t80 -123t40 -119t9.5 -107.5v-30h-789q-4 19 -10 34.5t-32 47.5t-65 53.5t-115 39t-175 17.5
q-100 0 -175.5 -17.5t-119.5 -44.5t-70.5 -66t-35.5 -76t-9 -81v-24q0 -44 9.5 -83t37 -80t71 -70.5t119 -48.5t173.5 -19q102 0 178.5 19t115.5 43t64 58.5t30.5 51.5t8.5 37h789v-54q0 -53 -9.5 -104t-40 -117.5t-79.5 -123t-137 -113.5t-204 -97t-288 -65t-381 -25z" />
    <glyph glyph-name="D" unicode="D" horiz-adv-x="2443" 
d="M57 0v1524h1221q254 0 452 -37.5t326.5 -102t212 -157.5t118 -197t34.5 -227v-64q0 -86 -14 -161t-49.5 -151t-91.5 -138t-145.5 -117t-206.5 -92t-278.5 -58.5t-357.5 -21.5h-1221zM836 1051v-580h311q91 0 164.5 11.5t121.5 30t83.5 45t54 51.5t29.5 56t13.5 52t2.5 45
v12q0 23 -3 44t-14.5 50t-30.5 53t-54.5 49t-83.5 42t-120.5 28t-162.5 11h-311z" />
    <glyph glyph-name="E" unicode="E" horiz-adv-x="1943" 
d="M57 1524h1837v-426h-1071v-119h1059v-418h-1059v-131h1080v-430h-1846v1524z" />
    <glyph glyph-name="F" unicode="F" horiz-adv-x="1900" 
d="M57 1524h1803v-426h-1037v-123h1020v-424h-1020v-551h-766v1524z" />
    <glyph glyph-name="G" unicode="G" horiz-adv-x="2508" 
d="M1133 -31h-54q-178 0 -326.5 24.5t-255.5 66.5t-190.5 102t-135.5 126.5t-85.5 144.5t-47 151.5t-13.5 152.5v62q0 755 1171 755h66q223 0 404.5 -22.5t302 -58t210.5 -88t139.5 -104.5t79 -115.5t37.5 -112t8 -103.5v-2h-794q-5 16 -13.5 30t-35.5 37t-67 39t-114 28
t-170 12q-218 0 -321 -84t-103 -230v-18q0 -74 23.5 -134t71.5 -107.5t130.5 -74t192.5 -26.5q86 0 155.5 10t111 25t69.5 34t38.5 35.5t10.5 30.5h-411v311h1237v-866h-523q-9 33 -37 82.5t-55 77.5q-227 -191 -706 -191z" />
    <glyph glyph-name="H" unicode="H" horiz-adv-x="2486" 
d="M57 0v1524h779v-506h815v506h778v-1524h-778v543h-815v-543h-779z" />
    <glyph glyph-name="I" unicode="I" horiz-adv-x="890" 
d="M834 1524v-1524h-777v1524h777z" />
    <glyph glyph-name="J" unicode="J" horiz-adv-x="2131" 
d="M928 -23q-144 0 -266 19t-210 49t-158.5 76t-116 92t-79 105.5t-50.5 108t-26.5 108.5t-11.5 97t-2 83v14h737q9 -71 35 -110q65 -95 240 -95h4q69 0 120.5 16.5t81 42.5t47.5 64t24 73.5t6 78.5v725h780v-736q0 -62 -3.5 -113t-15.5 -118.5t-32.5 -122t-58 -116.5
t-89 -109.5t-128.5 -92.5t-172 -74.5t-224.5 -47t-282.5 -17.5h-149z" />
    <glyph glyph-name="K" unicode="K" horiz-adv-x="2437" 
d="M836 0h-779v1524h779v-541l692 541h946l-905 -684l909 -840h-1016l-626 608v-608z" />
    <glyph glyph-name="L" unicode="L" horiz-adv-x="1929" 
d="M57 1524h779v-981h1056v-543h-1835v1524z" />
    <glyph glyph-name="M" unicode="M" horiz-adv-x="2848" 
d="M57 0v1524h1026l359 -678l373 678h976v-1524h-774v754l-409 -754h-371l-408 754v-754h-772z" />
    <glyph glyph-name="N" unicode="N" horiz-adv-x="2488" 
d="M57 1524h879l717 -693v693h778v-1524h-793l-802 762v-762h-779v1524z" />
    <glyph glyph-name="O" unicode="O" horiz-adv-x="2523" 
d="M1210 1554h103q214 0 389.5 -25.5t296.5 -68t212.5 -104.5t145 -126.5t87 -143t44.5 -146.5t11 -143v-62q0 -74 -11.5 -141.5t-44.5 -146.5t-86.5 -145t-145.5 -129.5t-213 -107t-296.5 -70t-388.5 -26.5h-103q-213 0 -388 26.5t-296 70t-213 107t-145.5 129.5t-86.5 145
t-44.5 146.5t-11.5 141.5v62q0 75 11 143t44.5 146.5t87 143t145 126.5t212.5 104.5t296 68t389 25.5zM1696 784q0 42 -13 81t-45 76.5t-80 65.5t-124.5 45t-173.5 17q-121 0 -209.5 -25t-135.5 -68t-68.5 -90.5t-21.5 -101.5v-24q0 -43 13.5 -84t45.5 -81t80.5 -69.5
t124.5 -48t171 -18.5q96 0 172.5 18t125 47t80.5 68.5t45 80t13 83.5v28z" />
    <glyph glyph-name="P" unicode="P" horiz-adv-x="2328" 
d="M1571 416h-735v-416h-779v1524h1514q144 0 259.5 -18.5t196 -53.5t138 -81t90.5 -106t48 -123.5t15 -137.5v-54q0 -90 -21.5 -165.5t-74.5 -145t-136 -118t-214 -77t-301 -28.5zM836 1077v-200h544q74 0 106 27.5t32 70.5v4q0 98 -138 98h-544z" />
    <glyph glyph-name="Q" unicode="Q" horiz-adv-x="2523" 
d="M971 -317v294q-169 14 -307.5 48t-235 80.5t-170 107.5t-117 123.5t-70.5 135t-36.5 134.5t-9.5 129v62q0 75 11 143t44.5 146.5t87 143t145 126.5t212.5 104.5t296 68t389 25.5h103q214 0 389.5 -25.5t296.5 -68t212.5 -104.5t145 -126.5t87 -143t44.5 -146.5t11 -143
v-62q0 -64 -8.5 -124t-33.5 -129t-64.5 -129.5t-106 -120.5t-154 -106t-213 -83t-277.5 -55l310 -305h-981zM1696 784q0 42 -13 81t-45 76.5t-80 65.5t-124.5 45t-173.5 17q-121 0 -209.5 -25t-135.5 -68t-68.5 -90.5t-21.5 -101.5v-24q0 -43 13.5 -84t45.5 -81t80.5 -69.5
t124.5 -48t171 -18.5q96 0 172.5 18t125 47t80.5 68.5t45 80t13 83.5v28z" />
    <glyph glyph-name="R" unicode="R" horiz-adv-x="2383" 
d="M836 915h567q141 0 141 97q0 96 -141 96h-567v-193zM836 487v-487h-779v1524h1684q104 0 189 -10.5t163.5 -38t131.5 -70t84.5 -110.5t31.5 -156v-19q0 -66 -23.5 -121.5t-60 -93t-85 -67t-93 -45t-90.5 -25.5q179 -33 269.5 -132t90.5 -251v-231q0 -93 27 -142v-12h-801
q-10 10 -10 47v184q0 124 -69 190t-226 66h-434z" />
    <glyph glyph-name="S" unicode="S" horiz-adv-x="2326" 
d="M1010 -31q-191 0 -346 19.5t-258 51t-180 78t-118.5 91.5t-66.5 101.5t-32 99.5t-7 92v16h911q1 -30 9 -54t31 -51.5t74.5 -43t127.5 -15.5q234 0 234 107v6q0 22 -8 37t-34.5 31.5t-86.5 26.5t-154 13l-322 11q-131 4 -239 20.5t-185.5 41.5t-136.5 61t-95.5 75.5
t-59.5 87.5t-32 95.5t-9 101.5v18q0 89 29.5 158.5t98.5 128t179 96.5t275.5 59t383.5 21h260q172 0 313 -13t244.5 -36t182 -57.5t129 -74t82.5 -89t44.5 -100t12.5 -109.5v-10h-893q-10 123 -233 123q-130 0 -176 -19t-46 -61v-4q0 -45 62.5 -66.5t232.5 -25.5l308 -9
q296 -8 472.5 -61t253 -151.5t76.5 -256.5v-28q0 -62 -12 -115t-43 -108.5t-81 -100t-131 -84.5t-187.5 -67t-255.5 -42.5t-330 -15.5h-268z" />
    <glyph glyph-name="T" unicode="T" horiz-adv-x="2162" 
d="M692 0v999h-657v525h2093v-525h-658v-999h-778z" />
    <glyph glyph-name="U" unicode="U" horiz-adv-x="2449" 
d="M43 817v707h782v-627q0 -55 9.5 -101.5t37 -94t70.5 -80.5t115 -53.5t166 -20.5h4q92 0 163.5 20.5t114.5 54t70.5 80.5t38 94t10.5 101v627h782v-707q0 -75 -9 -143.5t-38.5 -156.5t-77.5 -161t-135 -146t-202.5 -123.5t-287.5 -82t-382 -31.5h-103q-165 0 -306 19
t-246 52t-191.5 80.5t-145 99.5t-103 116t-70 122.5t-41 125.5t-20.5 119.5t-5 109.5z" />
    <glyph glyph-name="V" unicode="V" horiz-adv-x="2437" 
d="M1802 0h-1112l-725 1524h883l420 -940l397 940h807z" />
    <glyph glyph-name="W" unicode="W" horiz-adv-x="3571" 
d="M1554 0h-1054l-533 1524h893l256 -899l240 899h932l235 -916l242 916h839l-546 -1524h-1043l-227 846z" />
    <glyph glyph-name="X" unicode="X" horiz-adv-x="2476" 
d="M881 0h-916l588 805l-551 719h942l309 -453l310 453h884l-518 -721l582 -803h-936l-346 475z" />
    <glyph glyph-name="Y" unicode="Y" horiz-adv-x="2428" 
d="M829 0v541l-870 983h897l391 -459l398 459h825l-862 -994v-530h-779z" />
    <glyph glyph-name="Z" unicode="Z" horiz-adv-x="2103" 
d="M39 1524h2025v-367l-907 -637h914v-520h-2038v371l882 659h-876v494z" />
    <glyph glyph-name="bracketleft" unicode="[" horiz-adv-x="847" 
d="M55 -268v1923h772v-273h-247v-1378h247v-272h-772z" />
    <glyph glyph-name="backslash" unicode="\" horiz-adv-x="1075" 
d="M629 -268l-664 1923h541l655 -1923h-532z" />
    <glyph glyph-name="bracketright" unicode="]" horiz-adv-x="847" 
d="M20 -268v272h248v1378h-248v273h773v-1923h-773z" />
    <glyph glyph-name="asciicircum" unicode="^" horiz-adv-x="1636" 
d="M1001 854l-198 299l-207 -299h-602l477 670h692l479 -670h-641z" />
    <glyph glyph-name="underscore" unicode="_" horiz-adv-x="1826" 
d="M-10 -377v334h1847v-334h-1847z" />
    <glyph glyph-name="grave" unicode="`" 
d="M1153 1165h-631l-243 359h700z" />
    <glyph glyph-name="a" unicode="a" horiz-adv-x="1898" 
d="M1057 440v74l-238 -63q-40 -11 -60 -29t-20 -49v-2q0 -36 29 -63t94 -27q92 0 143.5 45.5t51.5 113.5zM1063 139q-25 -24 -64 -47.5t-102.5 -50.5t-159 -44t-205.5 -17h-12q-107 0 -193.5 20t-143.5 53t-95.5 77.5t-55 93t-16.5 100.5v41q0 60 19.5 108t64.5 89t128 67.5
t202 36.5l580 47q28 3 38.5 14t10.5 31v2q0 69 -152 69h-4q-46 0 -79.5 -7.5t-49.5 -16t-25.5 -23.5t-11 -23t-2.5 -20h-692v25q0 39 4.5 68.5t23 69.5t50.5 69.5t92 60.5t142.5 51t206.5 32.5t280 12.5h116q163 0 294 -13.5t217 -34t149.5 -51.5t97 -61t53 -68t24.5 -65.5
t5 -60.5v-377q0 -35 29 -35h63v-362h-641q-162 0 -186 139z" />
    <glyph glyph-name="b" unicode="b" horiz-adv-x="1990" 
d="M49 1524h746v-566q20 17 53.5 37.5t95.5 49t157 47t202 18.5h53q144 0 255.5 -31.5t179 -81.5t110.5 -121t59 -141.5t16 -150.5v-52q0 -58 -8.5 -111t-30 -108t-54.5 -101.5t-85 -87.5t-118 -70t-157 -45.5t-200 -16.5h-55q-288 0 -492 135q-17 -61 -24 -127h-703v1524z
M795 555v-8q0 -89 56.5 -152t158.5 -63h10q106 0 154.5 62.5t48.5 152.5v8q0 91 -47.5 153t-153.5 62h-12q-106 0 -160.5 -62t-54.5 -153z" />
    <glyph glyph-name="c" unicode="c" horiz-adv-x="1951" 
d="M1059 -31h-144q-139 0 -257 13.5t-203 35.5t-154 56t-113.5 68.5t-77 80t-49.5 83t-27 85.5t-12 79.5t-2 72.5v28q0 40 2 71t12 78t27 84t49.5 81.5t77 78t113 67t153.5 54.5t202.5 34.5t256.5 13.5h148q169 0 306.5 -20.5t227 -53t155.5 -79.5t101 -91t55.5 -98
t25.5 -90.5t5 -77.5v-7h-755q-1 15 -4.5 33t-16.5 44.5t-33 47t-57 35.5t-84 15h-10q-51 0 -88.5 -14t-58.5 -35.5t-33.5 -53t-16.5 -59.5t-4 -62v-2q0 -38 4 -69t16.5 -66t33.5 -58.5t58.5 -39t88.5 -15.5h10q47 0 84 16.5t57 39t33 51.5t16.5 48t4.5 34h755v-6
q0 -29 -2 -55t-11.5 -67.5t-26 -77t-49 -78.5t-76 -77.5t-111 -68.5t-151 -56.5t-199.5 -36.5t-252 -14z" />
    <glyph glyph-name="d" unicode="d" horiz-adv-x="1988" 
d="M1194 555v16q0 34 -10.5 66t-33.5 62.5t-67 49.5t-102 19h-8q-45 0 -80.5 -13t-57 -33t-35.5 -47.5t-19 -53.5t-5 -54v-10q0 -40 9 -75t29.5 -68t60.5 -52.5t96 -19.5h8q59 0 103 19.5t67.5 51.5t34 67.5t10.5 74.5zM1194 1524h745v-1524h-745v145q-167 -153 -506 -153
h-51q-133 0 -239 31t-175 82t-115 121.5t-65.5 146t-19.5 157.5v52q0 79 18.5 152t63.5 142.5t112 120.5t172 82t236 31h51q334 0 518 -129v543z" />
    <glyph glyph-name="e" unicode="e" horiz-adv-x="1953" 
d="M1200 711q-10 58 -58.5 90.5t-162.5 32.5q-81 0 -131 -19t-67 -43.5t-23 -60.5h442zM1937 418q0 -40 -6.5 -76t-30 -83t-62.5 -85.5t-109 -78t-164 -66t-235 -43.5t-314 -17h-92q-137 0 -253.5 13.5t-202 35.5t-154.5 55.5t-115 68.5t-80 80t-52.5 84t-29.5 86t-14 81
t-3 74v28q0 40 3 73.5t14 79t30 83.5t53 81t80.5 76.5t116 65t155 53t201.5 34t253 12.5h90q140 0 258.5 -13t205.5 -34.5t157.5 -55t117.5 -68.5t81.5 -81.5t53.5 -88t30 -93.5t14 -91.5t3 -89.5v-29h-1181q3 -34 14 -63t34.5 -57t69 -44t109.5 -16q55 0 97 10.5t63.5 23
t35.5 31.5t17.5 28t5.5 20h735v-4z" />
    <glyph glyph-name="f" unicode="f" horiz-adv-x="1236" 
d="M1210 1524v-340h-161q-34 0 -45 -13.5t-11 -46.5v-22h217v-406h-217v-696h-747v696h-230v406h230v65q0 183 106 270t336 87h522z" />
    <glyph glyph-name="g" unicode="g" horiz-adv-x="2017" 
d="M991 752h-10q-109 0 -160 -51t-51 -126v-6q0 -80 51 -136t160 -56h10q114 0 173 56.5t59 135.5v6q0 72 -59.5 124.5t-172.5 52.5zM1087 -401h-182q-141 0 -258.5 13.5t-200 36t-146.5 54.5t-103 66t-64 74t-34 76t-9 73v8h746q17 -70 159 -70h6q104 0 163 54t59 155v66
q-21 -21 -39.5 -36.5t-65 -41.5t-99.5 -43t-141 -30t-192 -13h-47q-140 0 -249.5 31.5t-177 82t-111.5 121t-61 141t-17 148.5v25q0 78 18 148.5t63 139.5t113.5 119t177.5 80.5t248 30.5h49q98 0 183.5 -11t136 -23.5t100.5 -35.5t66 -33t45 -30v127h745v-950
q0 -85 -22 -159.5t-83 -149t-156.5 -126.5t-254 -85t-365.5 -33z" />
    <glyph glyph-name="h" unicode="h" horiz-adv-x="2011" 
d="M49 0v1524h746v-629q23 23 46.5 43t81.5 57.5t120.5 63.5t159.5 46.5t202 20.5h10q96 0 177 -16.5t136 -42.5t98 -62.5t68 -72.5t41 -76t21.5 -70t5.5 -57v-729h-745v494q0 211 -211 211q-109 0 -160 -60t-51 -149v-496h-746z" />
    <glyph glyph-name="i" unicode="i" horiz-adv-x="843" 
d="M795 1524v-359h-746v359h746zM795 1102v-1102h-746v1102h746z" />
    <glyph glyph-name="j" unicode="j" horiz-adv-x="843" 
d="M795 1524v-359h-746v359h746zM-74 -41h56q43 0 55 13t12 59v1071h746v-1151q0 -96 -22.5 -164t-62 -104t-84.5 -52t-100 -16h-600v344z" />
    <glyph glyph-name="k" unicode="k" horiz-adv-x="1861" 
d="M795 0h-746v1524h746v-822l243 400h783l-310 -459l379 -643h-819l-276 469v-469z" />
    <glyph glyph-name="l" unicode="l" horiz-adv-x="843" 
d="M795 1524v-1524h-746v1524h746z" />
    <glyph glyph-name="m" unicode="m" horiz-adv-x="3069" 
d="M795 0h-746v1102h746v-207q22 21 31 29.5t45 37.5t65 46t80.5 42.5t101.5 39.5t119.5 25t142.5 11h9q106 0 191 -21t141.5 -58t92.5 -77.5t58 -88.5q39 40 90.5 77.5t129 78t183.5 65t222 24.5h6q91 0 168 -16.5t129 -43.5t93 -63t64.5 -73t38.5 -76.5t20 -69t5 -55.5
v-729h-746v500q0 205 -182 205q-94 0 -139 -58t-45 -145v-502h-746v500q0 205 -182 205q-93 0 -139.5 -58.5t-46.5 -144.5v-502z" />
    <glyph glyph-name="n" unicode="n" horiz-adv-x="2011" 
d="M49 0v1102h746v-207q23 23 46.5 43t81.5 57.5t120.5 63.5t159.5 46.5t202 20.5h10q96 0 177 -16.5t136 -42.5t98 -62.5t68 -72.5t41 -76t21.5 -70t5.5 -57v-729h-745v494q0 211 -211 211q-109 0 -160 -60t-51 -149v-496h-746z" />
    <glyph glyph-name="o" unicode="o" horiz-adv-x="2045" 
d="M940 -31q-174 0 -315 22t-235 56.5t-164.5 85t-108.5 100.5t-61 110t-29.5 105t-6.5 95v28q0 49 6.5 93t29.5 103t61.5 107.5t108.5 98t164 83.5t234.5 55.5t313.5 21.5h172q177 0 319.5 -21.5t236 -55t163 -83.5t106 -97.5t58 -107t27 -102.5t5.5 -93v-32q0 -38 -3 -72
t-14.5 -80t-30.5 -85t-54 -83t-82 -79t-117.5 -68.5t-157 -55.5t-204.5 -35.5t-256 -13.5h-166zM1026 315q71 0 122 24.5t76 64.5t35.5 79.5t10.5 81.5q0 29 -5.5 57t-22 59t-42.5 54t-71 38t-103 15h-6q-58 0 -102.5 -15t-70.5 -38t-42.5 -54t-22.5 -59t-6 -57
q0 -34 5.5 -65t21.5 -66t42 -60.5t71 -42t104 -16.5h6z" />
    <glyph glyph-name="p" unicode="p" horiz-adv-x="1998" 
d="M795 553v-8q0 -36 11.5 -72t36 -69t69 -53.5t102.5 -20.5h12q54 0 94 20.5t61 53.5t30.5 68t9.5 71v8q0 39 -9.5 75t-30.5 69t-61 53t-94 20h-12q-113 0 -166 -63.5t-53 -151.5zM49 1102h746v-146q23 19 54 38.5t93 49t154 48t196 18.5h56q108 0 198 -16.5t153.5 -45
t113 -69t80 -84.5t49.5 -96t26.5 -100t7.5 -99v-51q0 -66 -12.5 -128t-40 -126.5t-77.5 -117.5t-119.5 -95.5t-172.5 -66t-229 -23.5h-53q-96 0 -182.5 12t-146.5 32t-92 33.5t-56 26.5v-481h-746v1487z" />
    <glyph glyph-name="q" unicode="q" horiz-adv-x="1986" 
d="M1239 1102h700v-1487h-747v532q-30 -24 -68.5 -46t-101.5 -48.5t-153.5 -42.5t-194.5 -16h-56q-134 0 -240 33.5t-171 87t-108 126t-59.5 144t-16.5 147.5v52q0 63 12.5 123t39 120t73.5 110t110.5 89t155.5 60.5t204 21.5h56q333 0 532 -152q8 21 20 70.5t13 75.5z
M1192 555v16q0 35 -10.5 67.5t-34 63t-67 48.5t-101.5 18h-10q-54 0 -93.5 -18t-60.5 -48.5t-30 -63.5t-9 -71v-10q0 -39 9 -74.5t29.5 -68.5t59.5 -52.5t93 -19.5h10q59 0 103 19t67.5 51t34 67.5t10.5 75.5z" />
    <glyph glyph-name="r" unicode="r" horiz-adv-x="1822" 
d="M795 526v-526h-746v1102h742v-217q202 241 491 241h25q93 0 169 -19.5t126.5 -50t88.5 -74t58.5 -85.5t33 -91.5t16 -85t3.5 -71.5v-203h-733v111q0 71 -32 113.5t-99 42.5q-143 0 -143 -187z" />
    <glyph glyph-name="s" unicode="s" horiz-adv-x="1792" 
d="M791 -31q-145 0 -264 14t-199.5 37.5t-141.5 56.5t-95 67t-55 74.5t-27.5 73t-6.5 68.5v17h752q2 -44 30.5 -75.5t92.5 -31.5h4q116 0 116 72v2q0 38 -31.5 55.5t-119.5 20.5l-301 12q-126 6 -220.5 28.5t-151.5 54t-92.5 77t-48 90.5t-12.5 100v15q0 64 21 113.5
t74 92.5t139.5 70.5t222 43.5t316.5 16h159q190 0 331.5 -17.5t227 -46.5t137.5 -73t70.5 -90t18.5 -105v-19h-731q-1 15 -4.5 25.5t-14.5 25.5t-37.5 23t-66.5 8h-4q-73 0 -98 -14t-25 -45q0 -30 32.5 -47t120.5 -21l301 -12q140 -6 241 -25t165 -47.5t101 -73t51 -95
t14 -119.5v-19q0 -46 -8 -83.5t-31 -77.5t-61 -70.5t-101 -59t-148 -46.5t-206 -29t-271 -11h-165z" />
    <glyph glyph-name="t" unicode="t" horiz-adv-x="1196" 
d="M1165 0h-616q-69 0 -124.5 15t-103 49.5t-74 98t-26.5 152.5v381h-205v406h205v321h746v-321h198v-406h-198v-182q0 -63 17 -81.5t79 -18.5h102v-414z" />
    <glyph glyph-name="u" unicode="u" horiz-adv-x="1996" 
d="M1948 1102v-1102h-746v207q-21 -23 -46 -46t-80 -59t-117.5 -62t-158.5 -45.5t-202 -19.5h-12q-96 0 -176 16.5t-134 43.5t-96 63.5t-66 74t-39.5 78.5t-20.5 73t-5 61v717h746v-494q0 -211 202 -211q106 0 155.5 62t49.5 147v496h746z" />
    <glyph glyph-name="v" unicode="v" horiz-adv-x="1910" 
d="M422 0l-451 1102h797l203 -660l186 660h782l-428 -1102h-1089z" />
    <glyph glyph-name="w" unicode="w" horiz-adv-x="2785" 
d="M1290 0h-923l-394 1102h777l149 -658l141 658h752l137 -651l146 651h737l-377 -1102h-891l-127 528z" />
    <glyph glyph-name="x" unicode="x" horiz-adv-x="1947" 
d="M774 0h-794l376 582l-385 520h813l187 -295l159 295h803l-356 -512l399 -590h-821l-186 332z" />
    <glyph glyph-name="y" unicode="y" horiz-adv-x="1853" 
d="M236 -385v362h235q49 0 49 37v2q0 25 -39 101l-510 985h791l215 -625l172 625h733l-440 -1096q-84 -207 -194.5 -299t-266.5 -92h-745z" />
    <glyph glyph-name="z" unicode="z" horiz-adv-x="1638" 
d="M1608 0h-1577v362l688 361h-690v379h1579v-363l-672 -338h672v-401z" />
    <glyph glyph-name="braceleft" unicode="{" horiz-adv-x="903" 
d="M883 -268h-437q-380 0 -380 233q0 57 28 138t61 148t61 135.5t28 102.5q0 40 -20 59t-64 19h-156v262h156q84 0 84 62q0 37 -28 105t-61 133t-61 143.5t-28 134.5q0 248 380 248h437v-273h-203q-48 0 -71 -13.5t-23 -47.5q0 -30 34 -107.5t67.5 -164t33.5 -138.5
q0 -86 -58.5 -136.5t-195.5 -74.5q138 -23 196 -66.5t58 -117.5q0 -56 -33.5 -148t-67.5 -173t-34 -109q0 -82 110 -82h187v-272z" />
    <glyph glyph-name="bar" unicode="|" horiz-adv-x="706" 
d="M596 1655v-1923h-485v1923h485z" />
    <glyph glyph-name="braceright" unicode="}" horiz-adv-x="903" 
d="M20 -268v272h187q108 0 108 82q0 28 -33 109t-66.5 173t-33.5 148q0 74 57 117.5t195 66.5q-137 24 -194.5 74t-57.5 137q0 52 33 138.5t66.5 164t33.5 107.5q0 34 -23 47.5t-71 13.5h-201v273h437q377 0 377 -248q0 -56 -27.5 -134.5t-60 -143.5t-60 -133t-27.5 -105
q0 -62 84 -62h156v-262h-156q-45 0 -64.5 -19t-19.5 -59q0 -42 43.5 -138t87.5 -205t44 -181q0 -120 -94.5 -176.5t-282.5 -56.5h-437z" />
    <glyph glyph-name="asciitilde" unicode="~" horiz-adv-x="1497" 
d="M1096 438q-122 0 -209 32.5t-193 100.5q-17 11 -40.5 26.5t-34.5 22t-24.5 14.5t-23 10.5t-18.5 2.5q-33 0 -33 -47v-184h-495v375q0 53 11 103t38 100.5t67.5 88t106 61t147.5 23.5q123 0 211.5 -30t192.5 -95q10 -6 25 -15.5t22 -13.5t18.5 -11t17 -10t13.5 -7.5t13 -6
t10.5 -4t10.5 -3t9 -0.5q22 0 29.5 13t7.5 46v168h498v-426q0 -62 -20 -118t-61.5 -106t-118 -80t-177.5 -30z" />
    <glyph glyph-name="exclamdown" unicode="&#xa1;" horiz-adv-x="880" 
d="M948 -422h-1016l275 979h467zM72 627v475h737v-475h-737z" />
    <glyph glyph-name="cent" unicode="&#xa2;" horiz-adv-x="2002" 
d="M776 565q0 -40 4.5 -71.5t17 -66t39 -60t66.5 -39.5v452q-40 -12 -66.5 -34.5t-39 -53.5t-17 -60t-4.5 -65v-2zM1118 -158h-215v127q-138 2 -254 16.5t-200.5 37t-152 56.5t-111.5 68t-76.5 79t-49 82t-26 84.5t-11.5 79t-2 71.5v28q0 39 2 70t12 77t26.5 82.5t49 80.5
t76.5 77.5t111.5 67t152 55.5t200.5 36t253 16v122h215v-122q132 -1 244.5 -14.5t195 -35t149.5 -52.5t111 -63.5t76.5 -72t50.5 -74t28 -74t13 -67t3 -57.5v-7h-756q-1 17 -5.5 35t-15.5 43t-35.5 47.5t-58.5 36.5v-446q34 15 58.5 39.5t35.5 52t15.5 46.5t5.5 36h756v-6
q0 -29 -2 -54.5t-11.5 -66.5t-26 -75.5t-48.5 -77.5t-75 -77t-110 -68t-150 -57t-198 -38t-250 -17v-127z" />
    <glyph glyph-name="sterling" unicode="&#xa3;" horiz-adv-x="2156" 
d="M2126 545v-545h-2106v371h142q192 0 192 123v4q0 58 -16 133h-318v258h254q-24 108 -24 178v14q0 50 7.5 92t30.5 90.5t61.5 87t104.5 75.5t154 61.5t216 39.5t286 15h82q168 0 303 -17t227.5 -45.5t160.5 -72t107 -88t62 -103.5t30 -109.5t7 -113.5v-22h-750
q-2 19 -3 26t-4 26t-8 28.5t-13.5 25.5t-21.5 24.5t-30 18t-41.5 13.5t-54.5 4q-100 0 -138 -41.5t-38 -126.5q0 -22 4 -80h738v-258h-711v-29q0 -60 -28.5 -107t-66.5 -73t-94 -51h496v174h801z" />
    <glyph glyph-name="yen" unicode="&#xa5;" horiz-adv-x="2332" 
d="M788 0v338h-491v182h491v72h-491v178h360l-698 754h872l373 -445l381 445h789l-680 -754h364v-178h-491v-72h491v-182h-491v-338h-779z" />
    <glyph glyph-name="brokenbar" unicode="&#xa6;" horiz-adv-x="706" 
d="M596 1655v-881h-485v881h485zM596 682v-950h-485v950h485z" />
    <glyph glyph-name="section" unicode="&#xa7;" horiz-adv-x="2119" 
d="M1090 -426h-164q-158 0 -285 15t-212.5 39t-148 61.5t-97.5 75t-55 88t-26 92t-6 94.5v14h709q2 -23 4 -36t15 -39.5t34 -41.5t64 -27.5t102 -12.5q178 0 178 81v5q0 31 -18.5 50t-72.5 35.5t-159 30.5l-450 62q-136 19 -234.5 56t-154 88t-80.5 108t-25 125v20
q0 132 94.5 215.5t253.5 112.5q-200 95 -200 286v21q0 66 24.5 118.5t84.5 98.5t154.5 76t240.5 47.5t337 17.5h172q160 0 285.5 -13t209.5 -34t144 -55.5t92.5 -68t50.5 -82.5t22.5 -87.5t4.5 -93.5v-8h-696q-2 21 -4 32.5t-14 33t-32.5 33.5t-62 22t-98.5 10h-12
q-102 0 -140 -14.5t-38 -46.5v-7q0 -32 41 -54t149 -38l619 -94q124 -19 208 -51.5t129.5 -78.5t64.5 -98t19 -120v-23q0 -57 -23.5 -104.5t-59.5 -79.5t-85 -57t-94 -38.5t-92 -21.5q83 -34 138 -109t55 -198v-14q0 -66 -19.5 -121.5t-77 -112t-149.5 -95.5t-249 -64
t-365 -25zM1380 446q15 8 28 25t13 41q0 23 -6.5 38.5t-26.5 33t-64.5 32t-115.5 27.5q-74 15 -270 49.5t-229 40.5q-18 -6 -35 -23.5t-17 -43.5q0 -22 7 -38t28.5 -35t68.5 -34.5t120 -28.5z" />
    <glyph glyph-name="dieresis" unicode="&#xa8;" 
d="M1329 1524v-359h-575v359h575zM676 1524v-359h-574v359h574z" />
    <glyph glyph-name="copyright" unicode="&#xa9;" horiz-adv-x="2492" 
d="M1253 -31h-16q-203 0 -372 22.5t-292.5 61t-219 95.5t-157 122t-100.5 143.5t-55 156.5t-16 165v58q0 86 15.5 163.5t54.5 155.5t100 142.5t156 121t218 95.5t291.5 61t370.5 22h26q203 0 372.5 -22.5t292.5 -61.5t219 -96t156.5 -122t99.5 -143t55 -154.5t16 -161.5v-58
q0 -88 -16 -166.5t-55.5 -157t-101 -143t-157 -121.5t-219.5 -95.5t-293.5 -60.5t-372.5 -22zM338 735q0 -104 25.5 -186.5t88 -154t163 -119t256 -74.5t360.5 -27h26q206 0 361.5 26.5t257 73.5t164.5 118.5t88.5 154.5t25.5 188v58q0 104 -26 186t-89 153.5t-164 119
t-257 74t-361 26.5h-26q-204 0 -359 -26.5t-255.5 -74t-163.5 -119t-89 -153.5t-26 -186v-58zM1294 301h-26q-768 0 -768 434v70q0 45 7.5 84.5t29.5 83.5t57 80t94.5 69.5t137.5 56.5t190 36.5t248 13.5h18q128 0 234 -13.5t180 -36t131 -54.5t91 -65.5t56 -72t29.5 -71.5
t7.5 -66v-25h-579q-2 12 -8.5 23t-23 27.5t-53 27t-87.5 10.5q-91 0 -130.5 -37.5t-39.5 -95.5v-8q0 -149 170 -149q51 0 87.5 12t53 31.5t22.5 31.5t9 25h579v-33q0 -34 -7 -67t-27 -73t-52.5 -74t-88 -67t-128.5 -56.5t-179 -37.5t-235 -14z" />
    <glyph glyph-name="ordfeminine" unicode="&#xaa;" horiz-adv-x="1392" 
d="M629 985q61 0 97 31t36 76v41l-156 -41q-59 -16 -59 -54v-2q0 -51 82 -51zM768 879q-31 -20 -52.5 -31.5t-71 -32t-115.5 -31t-146 -10.5h-10q-104 0 -179 20t-114.5 54t-57.5 72.5t-18 83.5v24q0 83 77 134t263 65l367 28q51 5 51 37v2q0 47 -100 47h-3q-110 0 -110 -59
h-524v16q0 23 2.5 40t15 44t35 46.5t67 41.5t105.5 35.5t155.5 23t212.5 9.5h78q119 0 214.5 -8.5t158.5 -22t109 -34.5t70 -40t38 -44.5t17.5 -43.5t3.5 -40v-236q0 -25 20 -25h53v-253h-491q-102 0 -121 88z" />
    <glyph glyph-name="guillemotleft" unicode="&#xab;" horiz-adv-x="1271" 
d="M487 586l226 -367h-473l-234 367l234 358h471zM1049 586l211 -367h-474l-225 367l227 358h472z" />
    <glyph glyph-name="registered" unicode="&#xae;" horiz-adv-x="1449" 
d="M688 1554h76q116 0 212 -14t163.5 -37t119 -57t83 -70t51 -80t27 -83.5t7.5 -82.5v-28q0 -66 -16 -122.5t-60.5 -114.5t-116 -98.5t-192 -66.5t-278.5 -26h-76q-159 0 -279.5 26t-192.5 66.5t-116.5 98.5t-60.5 114.5t-16 122.5v28q0 43 7 82.5t27 83.5t51 80t83 70
t119.5 57t164 37t213.5 14zM733 805q102 0 182 10.5t133 26.5t91 42.5t57.5 51t30.5 59.5t13.5 60t2.5 61t-2.5 61.5t-14 59.5t-32 58.5t-58.5 50t-90.5 41.5t-132 26t-180.5 10h-12q-101 0 -181.5 -10t-133.5 -25.5t-91.5 -41t-59 -50t-32 -58.5t-14 -60t-2.5 -62
q0 -35 2 -59.5t13 -60t31 -59.5t58 -51t91 -43t134.5 -27t184.5 -11h12zM680 1157h76q45 0 45 37q0 18 -10 26.5t-35 8.5h-76v-72zM680 1040v-145h-305v446h516q126 0 171.5 -32t45.5 -88v-2q0 -44 -35.5 -70t-87.5 -33q60 -9 91.5 -38.5t31.5 -76.5v-55q0 -30 10 -43v-8
h-313q-4 8 -4 20v56q0 39 -13 54t-59 15h-49z" />
    <glyph glyph-name="macron" unicode="&#xaf;" 
d="M195 1182v291h1042v-291h-1042z" />
    <glyph glyph-name="degree" unicode="&#xb0;" horiz-adv-x="946" 
d="M473 686q-196 0 -326.5 119.5t-130.5 310.5t130.5 310.5t326.5 119.5t326.5 -119.5t130.5 -310.5t-130.5 -310.5t-326.5 -119.5zM473 967q69 0 111.5 41.5t42.5 107.5t-42.5 108t-111.5 42q-68 0 -111 -42t-43 -108t43 -107.5t111 -41.5z" />
    <glyph glyph-name="acute" unicode="&#xb4;" 
d="M279 1165l174 359h700l-244 -359h-630z" />
    <glyph glyph-name="paragraph" unicode="&#xb6;" horiz-adv-x="1779" 
d="M700 0v598h-129q-122 0 -219 24t-161 65t-106 98.5t-60.5 122.5t-18.5 139v43q0 75 15 136t53.5 118t100.5 95.5t161.5 61.5t230.5 23h1205v-312h-152v-1212h-365v1212h-190v-1212h-365z" />
    <glyph glyph-name="periodcentered" unicode="&#xb7;" horiz-adv-x="821" 
d="M778 967v-475h-735v475h735z" />
    <glyph glyph-name="cedilla" unicode="&#xb8;" 
d="M293 -537v199h233q32 0 45 10.5t13 32.5q0 41 -58 41h-143v254h326v-94q131 0 218.5 -15.5t132.5 -46t62 -66.5t17 -87v-4q0 -41 -10.5 -72.5t-39 -61t-75.5 -48.5t-124.5 -30.5t-182.5 -11.5h-414z" />
    <glyph glyph-name="ordmasculine" unicode="&#xba;" horiz-adv-x="1421" 
d="M766 770h-111q-643 0 -643 379v18q0 371 641 371h117q124 0 223.5 -14t165 -35.5t114 -54.5t74 -64t40.5 -71t18.5 -68.5t3.5 -63.5v-18q0 -35 -4 -64.5t-19 -70t-41 -72.5t-75 -65.5t-115 -56t-165.5 -36.5t-223.5 -14zM709 1012h4q42 0 72.5 14t45 37.5t21 47t6.5 48.5
q0 56 -32.5 97.5t-112.5 41.5h-4q-80 0 -113 -41.5t-33 -97.5q0 -59 32 -103t114 -44z" />
    <glyph glyph-name="guillemotright" unicode="&#xbb;" horiz-adv-x="1271" 
d="M223 586l-211 358h473l226 -358l-224 -367h-475zM1034 219h-475l227 367l-225 358h473l232 -358z" />
    <glyph glyph-name="onequarter" unicode="&#xbc;" horiz-adv-x="2342" 
d="M248 1159h-225v234q83 1 141.5 12.5t91 32.5t48 39.5t28.5 46.5h452v-754h-536v389zM1782 1524h489l-1831 -1524h-475zM1090 401l569 353h536v-344h138v-248h-138v-162h-518v162h-587v239zM1417 410h260v157z" />
    <glyph glyph-name="onehalf" unicode="&#xbd;" horiz-adv-x="2521" 
d="M1780 1524h489l-1831 -1524h-475zM248 1159h-225v234q83 1 141.5 12.5t91 32.5t48 39.5t28.5 46.5h452v-754h-536v389zM2505 0h-1245v115q0 40 3 65.5t15.5 59t36 56t66 49t104 46t152 39.5t208.5 37q92 13 121 25.5t29 33.5v2q0 20 -23 30.5t-88 10.5q-39 0 -65 -7
t-37 -19.5t-14.5 -21.5t-4.5 -21h-493v6q0 25 2.5 44.5t15.5 49t36 52t67.5 47t106 40.5t156.5 26.5t214 10.5h37q183 0 307 -18.5t187 -53.5t87.5 -75t24.5 -94v-11q0 -71 -44.5 -113.5t-172 -72.5t-363.5 -45q-242 -16 -274 -45h848v-248z" />
    <glyph glyph-name="threequarters" unicode="&#xbe;" horiz-adv-x="2711" 
d="M674 748h-70q-111 0 -202 11t-152 28.5t-107 42.5t-71 50t-41 54t-20.5 51.5t-4.5 46.5v10h488q2 -11 10 -22t41 -24t86 -13q58 0 90.5 6.5t42.5 16t10 24.5v2q0 20 -17 28.5t-63 8.5h-192v193h186q70 0 70 30v2q0 13 -8 21.5t-37.5 15t-81.5 6.5q-123 0 -131 -49h-480
v12q0 13 2 26t13.5 39.5t32 48.5t63 48t100 44t149.5 30t206 12h82q154 0 265 -10.5t174 -26.5t99.5 -42t47 -49.5t10.5 -55.5v-10q0 -65 -54 -99t-131 -43q102 -11 167 -60t65 -134v-6q0 -43 -10.5 -75.5t-49 -70t-105 -61.5t-187 -40.5t-285.5 -16.5zM2148 1524h490
l-1831 -1524h-475zM1458 401l570 353h536v-344h137v-248h-137v-162h-518v162h-588v239zM1786 410h260v157z" />
    <glyph glyph-name="questiondown" unicode="&#xbf;" horiz-adv-x="2068" 
d="M760 559h733v-102q0 -38 -1 -60t-7 -54t-17.5 -52t-33 -45t-53 -41.5t-78.5 -33t-109 -28.5l-272 -53q-87 -17 -121.5 -34.5t-34.5 -43.5v-2q0 -22 14.5 -34t68 -19.5t155.5 -7.5q84 0 143.5 9t91 21.5t49 34t22 38t5.5 42.5h749v-24q0 -38 -2 -65.5t-12 -72t-27.5 -77.5
t-53 -75t-84.5 -72.5t-125 -61.5t-171 -50.5t-227 -32t-289 -12.5h-98q-179 0 -323 14t-244 37.5t-174 59t-117.5 73t-69.5 86t-34.5 91t-8.5 94.5v19q0 64 17.5 120t58 112t118.5 98.5t187 64.5l277 55q55 12 76.5 30t21.5 52v2zM756 627v475h737v-475h-737z" />
    <glyph glyph-name="Agrave" unicode="&#xc0;" horiz-adv-x="2502" 
d="M1393 633l-187 422l-182 -422h369zM1671 0l-80 182h-762l-79 -182h-787l719 1524h1094l764 -1524h-869zM1448 1925l121 -336h-651l-195 336h725z" />
    <glyph glyph-name="Aacute" unicode="&#xc1;" horiz-adv-x="2502" 
d="M1393 633l-187 422l-182 -422h369zM1671 0l-80 182h-762l-79 -182h-787l719 1524h1094l764 -1524h-869zM907 1589l119 336h725l-192 -336h-652z" />
    <glyph glyph-name="Acircumflex" unicode="&#xc2;" horiz-adv-x="2502" 
d="M1393 633l-187 422l-182 -422h369zM1671 0l-80 182h-762l-79 -182h-787l719 1524h1094l764 -1524h-869zM1579 1925l350 -338h-590l-110 119l-113 -119h-584l347 338h700z" />
    <glyph glyph-name="Atilde" unicode="&#xc3;" horiz-adv-x="2502" 
d="M1393 633l-187 422l-182 -422h369zM1671 0l-80 182h-762l-79 -182h-787l719 1524h1094l764 -1524h-869zM1513 1587q-25 0 -44.5 1t-42.5 4.5t-35 5t-40.5 9.5t-38 10.5t-49.5 15t-55 16.5q-91 30 -125 30q-30 0 -30 -43v-49h-385v185q0 202 278 202h4q74 0 129 -11.5
t187 -49.5q89 -27 112 -27q29 0 29 33v55h391v-157q0 -32 -4 -58.5t-21 -60t-45 -56.5t-81.5 -39t-126.5 -16h-7z" />
    <glyph glyph-name="Adieresis" unicode="&#xc4;" horiz-adv-x="2502" 
d="M1393 633l-187 422l-182 -422h369zM1671 0l-80 182h-762l-79 -182h-787l719 1524h1094l764 -1524h-869zM1868 1925v-336h-596v336h596zM1190 1925v-336h-594v336h594z" />
    <glyph glyph-name="Aring" unicode="&#xc5;" horiz-adv-x="2502" 
d="M1393 633l-187 422l-182 -422h369zM1671 0l-80 182h-762l-79 -182h-787l719 1524h1094l764 -1524h-869zM799 1831q0 252 436 252q126 0 214.5 -20t135 -56t66.5 -79t20 -97q0 -43 -11.5 -78t-42 -68t-78.5 -55t-125.5 -35.5t-178.5 -13.5q-102 0 -179.5 13.5t-125.5 36
t-78 55.5t-41.5 68t-11.5 77zM1083 1833q0 -88 152 -88q151 0 151 88q0 86 -151 86q-152 0 -152 -86z" />
    <glyph glyph-name="AE" unicode="&#xc6;" horiz-adv-x="3260" 
d="M1438 635v491l-310 -491h310zM1438 0v184h-592l-117 -184h-770l999 1524h2255v-426h-1009v-119h997v-418h-997v-131h1018v-430h-1784z" />
    <glyph glyph-name="Ccedilla" unicode="&#xc7;" horiz-adv-x="2441" 
d="M856 -537v199h234q32 0 44.5 10.5t12.5 32.5q0 41 -57 41h-144v236q-921 80 -921 753v62q0 76 10 143t42 146t84 143.5t143 126.5t212 104t298.5 68t395.5 26h72q209 0 380.5 -24.5t287.5 -64t204 -96t137.5 -113t80 -123t40 -119t9.5 -107.5v-30h-789q-4 19 -10 34.5
t-32 47.5t-65 53.5t-115 39t-175 17.5q-100 0 -175.5 -17.5t-119.5 -44.5t-70.5 -66t-35.5 -76t-9 -81v-24q0 -44 9.5 -83t37 -80t71 -70.5t119 -48.5t173.5 -19q102 0 178.5 19t115.5 43t64 58.5t30.5 51.5t8.5 37h789v-54q0 -53 -9.5 -104t-40 -117.5t-79.5 -123
t-137 -113.5t-204 -97t-288 -65t-381 -25h-10v-63q131 0 218.5 -15.5t132.5 -46t62 -66.5t17 -87v-4q0 -41 -10.5 -72.5t-39 -61t-75.5 -48.5t-124.5 -30.5t-182.5 -11.5h-414z" />
    <glyph glyph-name="Egrave" unicode="&#xc8;" horiz-adv-x="1943" 
d="M57 1524h1837v-426h-1071v-119h1059v-418h-1059v-131h1080v-430h-1846v1524zM1225 1925l121 -336h-652l-194 336h725z" />
    <glyph glyph-name="Eacute" unicode="&#xc9;" horiz-adv-x="1943" 
d="M57 1524h1837v-426h-1071v-119h1059v-418h-1059v-131h1080v-430h-1846v1524zM662 1589l118 336h725l-192 -336h-651z" />
    <glyph glyph-name="Ecircumflex" unicode="&#xca;" horiz-adv-x="1943" 
d="M57 1524h1837v-426h-1071v-119h1059v-418h-1059v-131h1080v-430h-1846v1524zM1350 1925l350 -338h-590l-111 119l-112 -119h-584l346 338h701z" />
    <glyph glyph-name="Edieresis" unicode="&#xcb;" horiz-adv-x="1943" 
d="M57 1524h1837v-426h-1071v-119h1059v-418h-1059v-131h1080v-430h-1846v1524zM1630 1925v-336h-596v336h596zM952 1925v-336h-594v336h594z" />
    <glyph glyph-name="Igrave" unicode="&#xcc;" horiz-adv-x="890" 
d="M834 1524v-1524h-777v1524h777zM649 1925l121 -336h-651l-195 336h725z" />
    <glyph glyph-name="Iacute" unicode="&#xcd;" horiz-adv-x="890" 
d="M834 1524v-1524h-777v1524h777zM121 1589l119 336h725l-193 -336h-651z" />
    <glyph glyph-name="Icircumflex" unicode="&#xce;" horiz-adv-x="890" 
d="M834 1524v-1524h-777v1524h777zM793 1925l350 -338h-590l-111 119l-112 -119h-584l346 338h701z" />
    <glyph glyph-name="Idieresis" unicode="&#xcf;" horiz-adv-x="890" 
d="M834 1524v-1524h-777v1524h777zM1081 1925v-336h-596v336h596zM403 1925v-336h-593v336h593z" />
    <glyph glyph-name="Eth" unicode="&#xd0;" horiz-adv-x="2510" 
d="M125 0v588h-121v358h121v578h1221q254 0 452 -37.5t326.5 -102t211.5 -157.5t117.5 -197t34.5 -227v-64q0 -86 -14 -160.5t-49 -151t-91.5 -138.5t-145.5 -117t-206 -92t-278.5 -58.5t-357.5 -21.5h-1221zM903 1051v-105h500v-358h-500v-117h311q91 0 164.5 11.5
t121.5 30t83.5 45t54 51.5t29.5 56t13.5 52t2.5 45v12q0 23 -3 44t-14.5 50t-30.5 53t-54.5 49t-83.5 42t-120.5 28t-162.5 11h-311z" />
    <glyph glyph-name="Ntilde" unicode="&#xd1;" horiz-adv-x="2488" 
d="M57 1524h879l717 -693v693h778v-1524h-793l-802 762v-762h-779v1524zM1522 1587q-25 0 -44.5 1t-42.5 4.5t-35 5t-40.5 9.5t-38 10.5t-49.5 15t-55 16.5q-91 30 -125 30q-31 0 -31 -43v-49h-385v185q0 202 278 202h4q74 0 129 -11.5t187 -49.5q89 -27 112 -27q29 0 29 33
v55h391v-157q0 -32 -4 -58.5t-21 -60t-45 -56.5t-81.5 -39t-126.5 -16h-6z" />
    <glyph glyph-name="Ograve" unicode="&#xd2;" horiz-adv-x="2523" 
d="M1470 1925l115 -321h-651l-189 321h725zM1210 1554h103q214 0 389.5 -25.5t296.5 -68t212.5 -104.5t145 -126.5t87 -143t44.5 -146.5t11 -143v-62q0 -74 -11.5 -141.5t-44.5 -146.5t-86.5 -145t-145.5 -129.5t-213 -107t-296.5 -70t-388.5 -26.5h-103q-213 0 -388 26.5
t-296 70t-213 107t-145.5 129.5t-86.5 145t-44.5 146.5t-11.5 141.5v62q0 75 11 143t44.5 146.5t87 143t145 126.5t212.5 104.5t296 68t389 25.5zM1696 784q0 42 -13 81t-45 76.5t-80 65.5t-124.5 45t-173.5 17q-121 0 -209.5 -25t-135.5 -68t-68.5 -90.5t-21.5 -101.5v-24
q0 -43 13.5 -84t45.5 -81t80.5 -69.5t124.5 -48t171 -18.5q96 0 172.5 18t125 47t80.5 68.5t45 80t13 83.5v28z" />
    <glyph glyph-name="Oacute" unicode="&#xd3;" horiz-adv-x="2523" 
d="M938 1604l115 321h725l-189 -321h-651zM1210 1554h103q214 0 389.5 -25.5t296.5 -68t212.5 -104.5t145 -126.5t87 -143t44.5 -146.5t11 -143v-62q0 -74 -11.5 -141.5t-44.5 -146.5t-86.5 -145t-145.5 -129.5t-213 -107t-296.5 -70t-388.5 -26.5h-103q-213 0 -388 26.5
t-296 70t-213 107t-145.5 129.5t-86.5 145t-44.5 146.5t-11.5 141.5v62q0 75 11 143t44.5 146.5t87 143t145 126.5t212.5 104.5t296 68t389 25.5zM1696 784q0 42 -13 81t-45 76.5t-80 65.5t-124.5 45t-173.5 17q-121 0 -209.5 -25t-135.5 -68t-68.5 -90.5t-21.5 -101.5v-24
q0 -43 13.5 -84t45.5 -81t80.5 -69.5t124.5 -48t171 -18.5q96 0 172.5 18t125 47t80.5 68.5t45 80t13 83.5v28z" />
    <glyph glyph-name="Ocircumflex" unicode="&#xd4;" horiz-adv-x="2523" 
d="M1626 1925l336 -323h-592l-110 118l-113 -118h-586l332 323h733zM1210 1554h103q214 0 389.5 -25.5t296.5 -68t212.5 -104.5t145 -126.5t87 -143t44.5 -146.5t11 -143v-62q0 -74 -11.5 -141.5t-44.5 -146.5t-86.5 -145t-145.5 -129.5t-213 -107t-296.5 -70t-388.5 -26.5
h-103q-213 0 -388 26.5t-296 70t-213 107t-145.5 129.5t-86.5 145t-44.5 146.5t-11.5 141.5v62q0 75 11 143t44.5 146.5t87 143t145 126.5t212.5 104.5t296 68t389 25.5zM1696 784q0 42 -13 81t-45 76.5t-80 65.5t-124.5 45t-173.5 17q-121 0 -209.5 -25t-135.5 -68
t-68.5 -90.5t-21.5 -101.5v-24q0 -43 13.5 -84t45.5 -81t80.5 -69.5t124.5 -48t171 -18.5q96 0 172.5 18t125 47t80.5 68.5t45 80t13 83.5v28z" />
    <glyph glyph-name="Otilde" unicode="&#xd5;" horiz-adv-x="2523" 
d="M1210 1554h103q214 0 389.5 -25.5t296.5 -68t212.5 -104.5t145 -126.5t87 -143t44.5 -146.5t11 -143v-62q0 -74 -11.5 -141.5t-44.5 -146.5t-86.5 -145t-145.5 -129.5t-213 -107t-296.5 -70t-388.5 -26.5h-103q-213 0 -388 26.5t-296 70t-213 107t-145.5 129.5t-86.5 145
t-44.5 146.5t-11.5 141.5v62q0 75 11 143t44.5 146.5t87 143t145 126.5t212.5 104.5t296 68t389 25.5zM1696 784q0 42 -13 81t-45 76.5t-80 65.5t-124.5 45t-173.5 17q-121 0 -209.5 -25t-135.5 -68t-68.5 -90.5t-21.5 -101.5v-24q0 -43 13.5 -84t45.5 -81t80.5 -69.5
t124.5 -48t171 -18.5q96 0 172.5 18t125 47t80.5 68.5t45 80t13 83.5v28zM1540 1602q-19 0 -35.5 0.5t-34 2.5t-28.5 3t-30 5.5t-28 6.5t-32.5 8.5t-33 9t-40 12t-43.5 13.5q-94 31 -125 31t-31 -43v-49h-385v184q0 203 279 203h4q52 0 100 -7.5t81.5 -16.5t133.5 -38
q86 -26 113 -26q29 0 29 32v56h391v-158q0 -32 -4.5 -58.5t-21 -59.5t-45 -56t-82 -39t-126.5 -16h-6z" />
    <glyph glyph-name="Odieresis" unicode="&#xd6;" horiz-adv-x="2523" 
d="M1903 1925v-321h-600v321h600zM1221 1925v-321h-598v321h598zM1210 1554h103q214 0 389.5 -25.5t296.5 -68t212.5 -104.5t145 -126.5t87 -143t44.5 -146.5t11 -143v-62q0 -74 -11.5 -141.5t-44.5 -146.5t-86.5 -145t-145.5 -129.5t-213 -107t-296.5 -70t-388.5 -26.5
h-103q-213 0 -388 26.5t-296 70t-213 107t-145.5 129.5t-86.5 145t-44.5 146.5t-11.5 141.5v62q0 75 11 143t44.5 146.5t87 143t145 126.5t212.5 104.5t296 68t389 25.5zM1696 784q0 42 -13 81t-45 76.5t-80 65.5t-124.5 45t-173.5 17q-121 0 -209.5 -25t-135.5 -68
t-68.5 -90.5t-21.5 -101.5v-24q0 -43 13.5 -84t45.5 -81t80.5 -69.5t124.5 -48t171 -18.5q96 0 172.5 18t125 47t80.5 68.5t45 80t13 83.5v28z" />
    <glyph glyph-name="multiply" unicode="&#xd7;" horiz-adv-x="1169" 
d="M928 72l-338 305l-334 -305l-256 284l305 279l-301 272l236 285l338 -305l333 305l258 -285l-305 -280l299 -271z" />
    <glyph glyph-name="Oslash" unicode="&#xd8;" horiz-adv-x="2553" 
d="M1225 -27q-370 0 -627 84l-78 -57h-540l290 215q-250 195 -250 516v62q0 74 11.5 141t45 145.5t87.5 143.5t147.5 127t216.5 105t301.5 69t395.5 26h98q351 0 608 -82l74 56h539l-283 -209q268 -198 268 -522v-62q0 -56 -6.5 -108t-25 -113t-47.5 -114t-78 -108.5
t-113.5 -101t-156 -86t-203 -68t-258.5 -43.5t-318 -16h-98zM1274 440q126 0 220.5 26t148.5 71.5t80 100.5t26 120v28q0 69 -31 129l-624 -473q55 -2 180 -2zM801 758q0 -68 28 -129l611 461h-166q-127 0 -221.5 -24.5t-148 -67.5t-78.5 -95.5t-25 -116.5v-28z" />
    <glyph glyph-name="Ugrave" unicode="&#xd9;" horiz-adv-x="2449" 
d="M43 817v707h782v-627q0 -55 9.5 -101.5t37 -94t70.5 -80.5t115 -53.5t166 -20.5h4q92 0 163.5 20.5t114.5 54t70.5 80.5t38 94t10.5 101v627h782v-707q0 -75 -9 -143.5t-38.5 -156.5t-77.5 -161t-135 -146t-202.5 -123.5t-287.5 -82t-382 -31.5h-103q-165 0 -306 19
t-246 52t-191.5 80.5t-145 99.5t-103 116t-70 122.5t-41 125.5t-20.5 119.5t-5 109.5zM1438 1925l121 -336h-652l-194 336h725z" />
    <glyph glyph-name="Uacute" unicode="&#xda;" horiz-adv-x="2449" 
d="M43 817v707h782v-627q0 -55 9.5 -101.5t37 -94t70.5 -80.5t115 -53.5t166 -20.5h4q92 0 163.5 20.5t114.5 54t70.5 80.5t38 94t10.5 101v627h782v-707q0 -75 -9 -143.5t-38.5 -156.5t-77.5 -161t-135 -146t-202.5 -123.5t-287.5 -82t-382 -31.5h-103q-165 0 -306 19
t-246 52t-191.5 80.5t-145 99.5t-103 116t-70 122.5t-41 125.5t-20.5 119.5t-5 109.5zM891 1589l119 336h725l-193 -336h-651z" />
    <glyph glyph-name="Ucircumflex" unicode="&#xdb;" horiz-adv-x="2449" 
d="M43 817v707h782v-627q0 -55 9.5 -101.5t37 -94t70.5 -80.5t115 -53.5t166 -20.5h4q92 0 163.5 20.5t114.5 54t70.5 80.5t38 94t10.5 101v627h782v-707q0 -75 -9 -143.5t-38.5 -156.5t-77.5 -161t-135 -146t-202.5 -123.5t-287.5 -82t-382 -31.5h-103q-165 0 -306 19
t-246 52t-191.5 80.5t-145 99.5t-103 116t-70 122.5t-41 125.5t-20.5 119.5t-5 109.5zM1573 1925l350 -338h-590l-110 119l-113 -119h-584l346 338h701z" />
    <glyph glyph-name="Udieresis" unicode="&#xdc;" horiz-adv-x="2449" 
d="M43 817v707h782v-627q0 -55 9.5 -101.5t37 -94t70.5 -80.5t115 -53.5t166 -20.5h4q92 0 163.5 20.5t114.5 54t70.5 80.5t38 94t10.5 101v627h782v-707q0 -75 -9 -143.5t-38.5 -156.5t-77.5 -161t-135 -146t-202.5 -123.5t-287.5 -82t-382 -31.5h-103q-165 0 -306 19
t-246 52t-191.5 80.5t-145 99.5t-103 116t-70 122.5t-41 125.5t-20.5 119.5t-5 109.5zM1862 1925v-336h-596v336h596zM1184 1925v-336h-594v336h594z" />
    <glyph glyph-name="Yacute" unicode="&#xdd;" horiz-adv-x="2428" 
d="M829 0v541l-870 983h897l391 -459l398 459h825l-862 -994v-530h-779zM913 1589l119 336h725l-192 -336h-652z" />
    <glyph glyph-name="Thorn" unicode="&#xde;" horiz-adv-x="2304" 
d="M1522 213h-686v-213h-779v1524h779v-195h686q181 0 318 -27.5t222 -73.5t137.5 -114.5t72.5 -142.5t20 -166v-51q0 -92 -20 -168t-73.5 -147t-138 -119.5t-221.5 -77.5t-317 -29zM836 883v-209h518q73 0 105 29t32 73v6q0 101 -137 101h-518z" />
    <glyph glyph-name="germandbls" unicode="&#xdf;" horiz-adv-x="2039" 
d="M1612 905q186 -24 302 -132t116 -279v-25q0 -73 -15.5 -136.5t-57.5 -126t-107 -107t-172 -72t-246 -27.5h-568v391h228q163 0 163 111v6q0 108 -161 108h-230v392h223q140 0 140 86v4q0 16 -4.5 28.5t-19.5 29.5t-55 26.5t-101 9.5h-74q-57 0 -94 -8.5t-54.5 -26.5
t-23.5 -37t-6 -49v-1071h-746v1100q0 52 7.5 94t29.5 87.5t59.5 79.5t101 66t149.5 52.5t209.5 32.5t277.5 12h231q156 0 281.5 -12t208 -30.5t143 -48t92.5 -57t50.5 -64.5t23 -65t4.5 -63v-19q0 -72 -44 -129t-111.5 -89t-149.5 -42z" />
    <glyph glyph-name="agrave" unicode="&#xe0;" horiz-adv-x="1898" 
d="M1237 1176h-631l-239 348h700zM1057 440v74l-238 -63q-40 -11 -60 -29t-20 -49v-2q0 -36 29 -63t94 -27q92 0 143.5 45.5t51.5 113.5zM1063 139q-25 -24 -64 -47.5t-102.5 -50.5t-159 -44t-205.5 -17h-12q-107 0 -193.5 20t-143.5 53t-95.5 77.5t-55 93t-16.5 100.5v41
q0 60 19.5 108t64.5 89t128 67.5t202 36.5l580 47q28 3 38.5 14t10.5 31v2q0 69 -152 69h-4q-46 0 -79.5 -7.5t-49.5 -16t-25.5 -23.5t-11 -23t-2.5 -20h-692v25q0 39 4.5 68.5t23 69.5t50.5 69.5t92 60.5t142.5 51t206.5 32.5t280 12.5h116q163 0 294 -13.5t217 -34
t149.5 -51.5t97 -61t53 -68t24.5 -65.5t5 -60.5v-377q0 -35 29 -35h63v-362h-641q-162 0 -186 139z" />
    <glyph glyph-name="aacute" unicode="&#xe1;" horiz-adv-x="1898" 
d="M596 1176l170 348h700l-239 -348h-631zM1057 440v74l-238 -63q-40 -11 -60 -29t-20 -49v-2q0 -36 29 -63t94 -27q92 0 143.5 45.5t51.5 113.5zM1063 139q-25 -24 -64 -47.5t-102.5 -50.5t-159 -44t-205.5 -17h-12q-107 0 -193.5 20t-143.5 53t-95.5 77.5t-55 93
t-16.5 100.5v41q0 60 19.5 108t64.5 89t128 67.5t202 36.5l580 47q28 3 38.5 14t10.5 31v2q0 69 -152 69h-4q-46 0 -79.5 -7.5t-49.5 -16t-25.5 -23.5t-11 -23t-2.5 -20h-692v25q0 39 4.5 68.5t23 69.5t50.5 69.5t92 60.5t142.5 51t206.5 32.5t280 12.5h116q163 0 294 -13.5
t217 -34t149.5 -51.5t97 -61t53 -68t24.5 -65.5t5 -60.5v-377q0 -35 29 -35h63v-362h-641q-162 0 -186 139z" />
    <glyph glyph-name="acircumflex" unicode="&#xe2;" horiz-adv-x="1898" 
d="M1260 1524l317 -348h-569l-107 133l-104 -133h-564l320 348h707zM1057 440v74l-238 -63q-40 -11 -60 -29t-20 -49v-2q0 -36 29 -63t94 -27q92 0 143.5 45.5t51.5 113.5zM1063 139q-25 -24 -64 -47.5t-102.5 -50.5t-159 -44t-205.5 -17h-12q-107 0 -193.5 20t-143.5 53
t-95.5 77.5t-55 93t-16.5 100.5v41q0 60 19.5 108t64.5 89t128 67.5t202 36.5l580 47q28 3 38.5 14t10.5 31v2q0 69 -152 69h-4q-46 0 -79.5 -7.5t-49.5 -16t-25.5 -23.5t-11 -23t-2.5 -20h-692v25q0 39 4.5 68.5t23 69.5t50.5 69.5t92 60.5t142.5 51t206.5 32.5t280 12.5
h116q163 0 294 -13.5t217 -34t149.5 -51.5t97 -61t53 -68t24.5 -65.5t5 -60.5v-377q0 -35 29 -35h63v-362h-641q-162 0 -186 139z" />
    <glyph glyph-name="atilde" unicode="&#xe3;" horiz-adv-x="1898" 
d="M1057 440v74l-238 -63q-40 -11 -60 -29t-20 -49v-2q0 -36 29 -63t94 -27q92 0 143.5 45.5t51.5 113.5zM1063 139q-25 -24 -64 -47.5t-102.5 -50.5t-159 -44t-205.5 -17h-12q-107 0 -193.5 20t-143.5 53t-95.5 77.5t-55 93t-16.5 100.5v41q0 60 19.5 108t64.5 89t128 67.5
t202 36.5l580 47q28 3 38.5 14t10.5 31v2q0 69 -152 69h-4q-46 0 -79.5 -7.5t-49.5 -16t-25.5 -23.5t-11 -23t-2.5 -20h-692v25q0 39 4.5 68.5t23 69.5t50.5 69.5t92 60.5t142.5 51t206.5 32.5t280 12.5h116q163 0 294 -13.5t217 -34t149.5 -51.5t97 -61t53 -68t24.5 -65.5
t5 -60.5v-377q0 -35 29 -35h63v-362h-641q-162 0 -186 139zM1186 1174q-74 0 -126.5 11.5t-170.5 49.5q-91 29 -113 29q-33 0 -33 -43v-47h-387v180q0 202 279 202h4q74 0 132.5 -12t174.5 -49q86 -27 105 -27q13 0 20.5 9.5t7.5 23.5v55h389v-153q0 -32 -4 -58t-20.5 -60
t-44.5 -56.5t-82 -38.5t-127 -16h-4z" />
    <glyph glyph-name="adieresis" unicode="&#xe4;" horiz-adv-x="1898" 
d="M1522 1524v-348h-578v348h578zM866 1524v-348h-575v348h575zM1057 440v74l-238 -63q-40 -11 -60 -29t-20 -49v-2q0 -36 29 -63t94 -27q92 0 143.5 45.5t51.5 113.5zM1063 139q-25 -24 -64 -47.5t-102.5 -50.5t-159 -44t-205.5 -17h-12q-107 0 -193.5 20t-143.5 53
t-95.5 77.5t-55 93t-16.5 100.5v41q0 60 19.5 108t64.5 89t128 67.5t202 36.5l580 47q28 3 38.5 14t10.5 31v2q0 69 -152 69h-4q-46 0 -79.5 -7.5t-49.5 -16t-25.5 -23.5t-11 -23t-2.5 -20h-692v25q0 39 4.5 68.5t23 69.5t50.5 69.5t92 60.5t142.5 51t206.5 32.5t280 12.5
h116q163 0 294 -13.5t217 -34t149.5 -51.5t97 -61t53 -68t24.5 -65.5t5 -60.5v-377q0 -35 29 -35h63v-362h-641q-162 0 -186 139z" />
    <glyph glyph-name="aring" unicode="&#xe5;" horiz-adv-x="1898" 
d="M471 1417q0 252 432 252t432 -252q0 -43 -11.5 -78t-41.5 -68t-78 -55t-124.5 -35.5t-176.5 -13.5q-125 0 -212.5 19.5t-134 56t-66 78.5t-19.5 96zM756 1419q0 -88 147 -88q148 0 148 88q0 86 -148 86q-147 0 -147 -86zM1057 440v74l-238 -63q-40 -11 -60 -29t-20 -49
v-2q0 -36 29 -63t94 -27q92 0 143.5 45.5t51.5 113.5zM1063 139q-25 -24 -64 -47.5t-102.5 -50.5t-159 -44t-205.5 -17h-12q-107 0 -193.5 20t-143.5 53t-95.5 77.5t-55 93t-16.5 100.5v41q0 60 19.5 108t64.5 89t128 67.5t202 36.5l580 47q28 3 38.5 14t10.5 31v2
q0 69 -152 69h-4q-46 0 -79.5 -7.5t-49.5 -16t-25.5 -23.5t-11 -23t-2.5 -20h-692v25q0 39 4.5 68.5t23 69.5t50.5 69.5t92 60.5t142.5 51t206.5 32.5t280 12.5h116q163 0 294 -13.5t217 -34t149.5 -51.5t97 -61t53 -68t24.5 -65.5t5 -60.5v-377q0 -35 29 -35h63v-362h-641
q-162 0 -186 139z" />
    <glyph glyph-name="ae" unicode="&#xe6;" horiz-adv-x="2990" 
d="M2017 834q-120 0 -168 -34t-55 -89h442q-10 59 -59.5 91t-159.5 32zM862 281q93 0 144 45.5t51 113.5v74l-238 -63q-80 -21 -80 -78v-2q0 -36 29 -63t94 -27zM2974 416q0 -40 -8 -77t-32.5 -83t-64.5 -84.5t-111 -76t-164.5 -64t-232 -42.5t-307.5 -16h-92
q-297 0 -474.5 53t-287.5 148q-38 -31 -66.5 -51t-86.5 -50t-119 -48t-156 -31.5t-205 -13.5h-14q-147 0 -255 29.5t-167.5 80t-87 109t-27.5 125.5v41q0 60 19.5 108t65 89t128.5 67.5t201 36.5l580 47q28 3 38.5 14t10.5 31v2q0 69 -152 69h-4q-46 0 -79.5 -7.5t-49.5 -16
t-25.5 -23.5t-11 -23t-2.5 -20h-690v25q0 35 3.5 61.5t21 66.5t48 70t90 63t141.5 54t208.5 35t284.5 14h108q349 0 506 -98q179 96 510 96h88q141 0 260 -13t206.5 -34.5t157.5 -54.5t117 -68t81 -81t52.5 -86.5t29 -92t13.5 -89.5t3 -87v-31h-1182q14 -180 227 -180
q191 0 221 110q1 2 1 3h733v-6z" />
    <glyph glyph-name="ccedilla" unicode="&#xe7;" horiz-adv-x="1951" 
d="M557 -537v199h234q32 0 44.5 10.5t12.5 32.5q0 41 -57 41h-144v238q-97 11 -179 32t-142 46t-108 59t-79.5 66.5t-54.5 73.5t-35 74t-19 74.5t-8.5 69.5t-1.5 64v28q0 40 2 71t12 78t27 84t49.5 81.5t77 78t113 67t153.5 54.5t202.5 34.5t256.5 13.5h148
q169 0 306.5 -20.5t227 -53t155.5 -79.5t101 -91t55.5 -98t25.5 -90.5t5 -77.5v-7h-755q-1 15 -4.5 33t-16.5 44.5t-33 47t-57 35.5t-84 15h-10q-51 0 -88.5 -14t-58.5 -35.5t-33.5 -53t-16.5 -59.5t-4 -62v-2q0 -38 4 -69t16.5 -66t33.5 -58.5t58.5 -39t88.5 -15.5h10
q47 0 84 16.5t57 39t33 51.5t16.5 48t4.5 34h755v-6q0 -29 -2 -55t-11.5 -67.5t-26 -77t-49 -78.5t-76 -77.5t-111 -68.5t-151 -56.5t-199.5 -36.5t-252 -14h-86v-63q131 0 218.5 -15.5t132.5 -46t62 -66.5t17 -87v-4q0 -41 -10.5 -72.5t-39 -61t-75.5 -48.5t-124.5 -30.5
t-182.5 -11.5h-414z" />
    <glyph glyph-name="egrave" unicode="&#xe8;" horiz-adv-x="1953" 
d="M1296 1180h-630l-238 344h700zM1200 711q-10 58 -58.5 90.5t-162.5 32.5q-81 0 -131 -19t-67 -43.5t-23 -60.5h442zM1937 418q0 -40 -6.5 -76t-30 -83t-62.5 -85.5t-109 -78t-164 -66t-235 -43.5t-314 -17h-92q-137 0 -253.5 13.5t-202 35.5t-154.5 55.5t-115 68.5
t-80 80t-52.5 84t-29.5 86t-14 81t-3 74v28q0 40 3 73.5t14 79t30 83.5t53 81t80.5 76.5t116 65t155 53t201.5 34t253 12.5h90q140 0 258.5 -13t205.5 -34.5t157.5 -55t117.5 -68.5t81.5 -81.5t53.5 -88t30 -93.5t14 -91.5t3 -89.5v-29h-1181q3 -34 14 -63t34.5 -57t69 -44
t109.5 -16q55 0 97 10.5t63.5 23t35.5 31.5t17.5 28t5.5 20h735v-4z" />
    <glyph glyph-name="eacute" unicode="&#xe9;" horiz-adv-x="1953" 
d="M668 1180l168 344h700l-238 -344h-630zM1200 711q-10 58 -58.5 90.5t-162.5 32.5q-81 0 -131 -19t-67 -43.5t-23 -60.5h442zM1937 418q0 -40 -6.5 -76t-30 -83t-62.5 -85.5t-109 -78t-164 -66t-235 -43.5t-314 -17h-92q-137 0 -253.5 13.5t-202 35.5t-154.5 55.5
t-115 68.5t-80 80t-52.5 84t-29.5 86t-14 81t-3 74v28q0 40 3 73.5t14 79t30 83.5t53 81t80.5 76.5t116 65t155 53t201.5 34t253 12.5h90q140 0 258.5 -13t205.5 -34.5t157.5 -55t117.5 -68.5t81.5 -81.5t53.5 -88t30 -93.5t14 -91.5t3 -89.5v-29h-1181q3 -34 14 -63
t34.5 -57t69 -44t109.5 -16q55 0 97 10.5t63.5 23t35.5 31.5t17.5 28t5.5 20h735v-4z" />
    <glyph glyph-name="ecircumflex" unicode="&#xea;" horiz-adv-x="1953" 
d="M1335 1524l318 -344h-570l-106 129l-105 -129h-563l320 344h706zM1200 711q-10 58 -58.5 90.5t-162.5 32.5q-81 0 -131 -19t-67 -43.5t-23 -60.5h442zM1937 418q0 -40 -6.5 -76t-30 -83t-62.5 -85.5t-109 -78t-164 -66t-235 -43.5t-314 -17h-92q-137 0 -253.5 13.5
t-202 35.5t-154.5 55.5t-115 68.5t-80 80t-52.5 84t-29.5 86t-14 81t-3 74v28q0 40 3 73.5t14 79t30 83.5t53 81t80.5 76.5t116 65t155 53t201.5 34t253 12.5h90q140 0 258.5 -13t205.5 -34.5t157.5 -55t117.5 -68.5t81.5 -81.5t53.5 -88t30 -93.5t14 -91.5t3 -89.5v-29
h-1181q3 -34 14 -63t34.5 -57t69 -44t109.5 -16q55 0 97 10.5t63.5 23t35.5 31.5t17.5 28t5.5 20h735v-4z" />
    <glyph glyph-name="edieresis" unicode="&#xeb;" horiz-adv-x="1953" 
d="M1599 1524v-344h-579v344h579zM942 1524v-344h-577v344h577zM1200 711q-10 58 -58.5 90.5t-162.5 32.5q-81 0 -131 -19t-67 -43.5t-23 -60.5h442zM1937 418q0 -40 -6.5 -76t-30 -83t-62.5 -85.5t-109 -78t-164 -66t-235 -43.5t-314 -17h-92q-137 0 -253.5 13.5t-202 35.5
t-154.5 55.5t-115 68.5t-80 80t-52.5 84t-29.5 86t-14 81t-3 74v28q0 40 3 73.5t14 79t30 83.5t53 81t80.5 76.5t116 65t155 53t201.5 34t253 12.5h90q140 0 258.5 -13t205.5 -34.5t157.5 -55t117.5 -68.5t81.5 -81.5t53.5 -88t30 -93.5t14 -91.5t3 -89.5v-29h-1181
q3 -34 14 -63t34.5 -57t69 -44t109.5 -16q55 0 97 10.5t63.5 23t35.5 31.5t17.5 28t5.5 20h735v-4z" />
    <glyph glyph-name="igrave" unicode="&#xec;" horiz-adv-x="843" 
d="M795 1102v-1102h-746v1102h746zM739 1165h-630l-244 359h700z" />
    <glyph glyph-name="iacute" unicode="&#xed;" horiz-adv-x="843" 
d="M795 1102v-1102h-746v1102h746zM106 1165l175 359h700l-244 -359h-631z" />
    <glyph glyph-name="icircumflex" unicode="&#xee;" horiz-adv-x="843" 
d="M725 1524l231 -359h-454l-84 144l-82 -144h-449l234 359h604zM795 1102v-1102h-746v1102h746z" />
    <glyph glyph-name="idieresis" unicode="&#xef;" horiz-adv-x="843" 
d="M891 1524v-359h-438v359h438zM391 1524v-359h-438v359h438zM795 1102v-1102h-746v1102h746z" />
    <glyph glyph-name="eth" unicode="&#xf0;" horiz-adv-x="2045" 
d="M954 -31q-217 0 -385 34.5t-269.5 88.5t-166.5 130t-89 150t-24 156v43q0 79 16 148t59.5 139.5t112 120t182 80.5t261.5 31h21q279 0 454 -76l-235 170l-582 -60v191l350 35l-241 174h866l133 -97l455 48v-193l-219 -22q206 -150 289 -298t83 -344v-40q0 -45 -4.5 -85
t-17.5 -89t-34.5 -91.5t-59.5 -88t-88 -81.5t-123 -69.5t-162.5 -56t-209 -35.5t-259.5 -13h-113zM1026 315q71 0 122 24.5t76 64.5t35.5 79.5t10.5 81.5q0 29 -5.5 57t-22 59t-42.5 54t-71 38t-103 15h-6q-58 0 -102.5 -15t-70.5 -38t-42.5 -54t-22.5 -59t-6 -57
q0 -34 5.5 -65t21.5 -66t42 -60.5t71 -42t104 -16.5h6z" />
    <glyph glyph-name="ntilde" unicode="&#xf1;" horiz-adv-x="2011" 
d="M49 0v1102h746v-207q23 23 46.5 43t81.5 57.5t120.5 63.5t159.5 46.5t202 20.5h10q96 0 177 -16.5t136 -42.5t98 -62.5t68 -72.5t41 -76t21.5 -70t5.5 -57v-729h-745v494q0 211 -211 211q-109 0 -160 -60t-51 -149v-496h-746zM1288 1163q-52 0 -97.5 7.5t-79 17
t-120.5 37.5q-88 28 -112 28q-33 0 -33 -43v-47h-387v180q0 203 278 203h4q74 0 133 -12t175 -49q86 -27 104 -27q13 0 21 9.5t8 23.5v55h389v-153q0 -32 -4 -58.5t-20.5 -60t-45 -56.5t-82.5 -39t-127 -16h-4z" />
    <glyph glyph-name="ograve" unicode="&#xf2;" horiz-adv-x="2045" 
d="M1339 1180h-630l-238 344h700zM940 -31q-174 0 -315 22t-235 56.5t-164.5 85t-108.5 100.5t-61 110t-29.5 105t-6.5 95v28q0 49 6.5 93t29.5 103t61.5 107.5t108.5 98t164 83.5t234.5 55.5t313.5 21.5h172q177 0 319.5 -21.5t236 -55t163 -83.5t106 -97.5t58 -107
t27 -102.5t5.5 -93v-32q0 -38 -3 -72t-14.5 -80t-30.5 -85t-54 -83t-82 -79t-117.5 -68.5t-157 -55.5t-204.5 -35.5t-256 -13.5h-166zM1026 315q71 0 122 24.5t76 64.5t35.5 79.5t10.5 81.5q0 29 -5.5 57t-22 59t-42.5 54t-71 38t-103 15h-6q-58 0 -102.5 -15t-70.5 -38
t-42.5 -54t-22.5 -59t-6 -57q0 -34 5.5 -65t21.5 -66t42 -60.5t71 -42t104 -16.5h6z" />
    <glyph glyph-name="oacute" unicode="&#xf3;" horiz-adv-x="2045" 
d="M705 1180l167 344h701l-238 -344h-630zM940 -31q-174 0 -315 22t-235 56.5t-164.5 85t-108.5 100.5t-61 110t-29.5 105t-6.5 95v28q0 49 6.5 93t29.5 103t61.5 107.5t108.5 98t164 83.5t234.5 55.5t313.5 21.5h172q177 0 319.5 -21.5t236 -55t163 -83.5t106 -97.5
t58 -107t27 -102.5t5.5 -93v-32q0 -38 -3 -72t-14.5 -80t-30.5 -85t-54 -83t-82 -79t-117.5 -68.5t-157 -55.5t-204.5 -35.5t-256 -13.5h-166zM1026 315q71 0 122 24.5t76 64.5t35.5 79.5t10.5 81.5q0 29 -5.5 57t-22 59t-42.5 54t-71 38t-103 15h-6q-58 0 -102.5 -15
t-70.5 -38t-42.5 -54t-22.5 -59t-6 -57q0 -34 5.5 -65t21.5 -66t42 -60.5t71 -42t104 -16.5h6z" />
    <glyph glyph-name="ocircumflex" unicode="&#xf4;" horiz-adv-x="2045" 
d="M1376 1524l318 -344h-570l-106 129l-105 -129h-563l320 344h706zM940 -31q-174 0 -315 22t-235 56.5t-164.5 85t-108.5 100.5t-61 110t-29.5 105t-6.5 95v28q0 49 6.5 93t29.5 103t61.5 107.5t108.5 98t164 83.5t234.5 55.5t313.5 21.5h172q177 0 319.5 -21.5t236 -55
t163 -83.5t106 -97.5t58 -107t27 -102.5t5.5 -93v-32q0 -38 -3 -72t-14.5 -80t-30.5 -85t-54 -83t-82 -79t-117.5 -68.5t-157 -55.5t-204.5 -35.5t-256 -13.5h-166zM1026 315q71 0 122 24.5t76 64.5t35.5 79.5t10.5 81.5q0 29 -5.5 57t-22 59t-42.5 54t-71 38t-103 15h-6
q-58 0 -102.5 -15t-70.5 -38t-42.5 -54t-22.5 -59t-6 -57q0 -34 5.5 -65t21.5 -66t42 -60.5t71 -42t104 -16.5h6z" />
    <glyph glyph-name="otilde" unicode="&#xf5;" horiz-adv-x="2045" 
d="M940 -31q-174 0 -315 22t-235 56.5t-164.5 85t-108.5 100.5t-61 110t-29.5 105t-6.5 95v28q0 49 6.5 93t29.5 103t61.5 107.5t108.5 98t164 83.5t234.5 55.5t313.5 21.5h172q177 0 319.5 -21.5t236 -55t163 -83.5t106 -97.5t58 -107t27 -102.5t5.5 -93v-32q0 -38 -3 -72
t-14.5 -80t-30.5 -85t-54 -83t-82 -79t-117.5 -68.5t-157 -55.5t-204.5 -35.5t-256 -13.5h-166zM1026 315q71 0 122 24.5t76 64.5t35.5 79.5t10.5 81.5q0 29 -5.5 57t-22 59t-42.5 54t-71 38t-103 15h-6q-58 0 -102.5 -15t-70.5 -38t-42.5 -54t-22.5 -59t-6 -57
q0 -34 5.5 -65t21.5 -66t42 -60.5t71 -42t104 -16.5h6zM1292 1178q-74 0 -126.5 11.5t-170.5 49.5q-91 29 -112 29q-33 0 -33 -43v-47h-387v180q0 203 278 203h4q73 0 132 -12t176 -50q83 -26 104 -26q13 0 21 9t8 23v56h389v-154q0 -26 -3 -48t-12 -50t-28.5 -49.5t-49 -41
t-77 -30t-109.5 -10.5h-4z" />
    <glyph glyph-name="odieresis" unicode="&#xf6;" horiz-adv-x="2045" 
d="M1640 1524v-344h-579v344h579zM983 1524v-344h-577v344h577zM940 -31q-174 0 -315 22t-235 56.5t-164.5 85t-108.5 100.5t-61 110t-29.5 105t-6.5 95v28q0 49 6.5 93t29.5 103t61.5 107.5t108.5 98t164 83.5t234.5 55.5t313.5 21.5h172q177 0 319.5 -21.5t236 -55
t163 -83.5t106 -97.5t58 -107t27 -102.5t5.5 -93v-32q0 -38 -3 -72t-14.5 -80t-30.5 -85t-54 -83t-82 -79t-117.5 -68.5t-157 -55.5t-204.5 -35.5t-256 -13.5h-166zM1026 315q71 0 122 24.5t76 64.5t35.5 79.5t10.5 81.5q0 29 -5.5 57t-22 59t-42.5 54t-71 38t-103 15h-6
q-58 0 -102.5 -15t-70.5 -38t-42.5 -54t-22.5 -59t-6 -57q0 -34 5.5 -65t21.5 -66t42 -60.5t71 -42t104 -16.5h6z" />
    <glyph glyph-name="divide" unicode="&#xf7;" horiz-adv-x="1206" 
d="M821 1241v-358h-438v358h438zM23 811h1161v-356h-1161v356zM821 379v-356h-438v356h438z" />
    <glyph glyph-name="oslash" unicode="&#xf8;" horiz-adv-x="2045" 
d="M926 -31q-299 0 -490 72l-67 -41h-387l235 154q-197 134 -197 389v28q0 37 3.5 71t16 78.5t32.5 83t56 81.5t84 78t119.5 67.5t158.5 54.5t204.5 35t255.5 13h172q289 0 480 -68l57 37h395l-217 -146q188 -145 188 -383v-32q0 -52 -6 -96.5t-28.5 -105t-60 -109.5
t-108.5 -99.5t-166 -84.5t-239.5 -55.5t-322.5 -21.5h-168zM752 565q0 -39 4 -59l415 272q-66 25 -147 25h-6q-63 0 -112 -16t-77.5 -40t-46.5 -57t-24 -63t-6 -62zM1028 301q63 0 112 18t77.5 45t46.5 63.5t24 69.5t6 68q0 27 -2 41l-420 -276q60 -29 152 -29h4z" />
    <glyph glyph-name="ugrave" unicode="&#xf9;" horiz-adv-x="1996" 
d="M1948 1102v-1102h-746v207q-21 -23 -46 -46t-80 -59t-117.5 -62t-158.5 -45.5t-202 -19.5h-12q-96 0 -176 16.5t-134 43.5t-96 63.5t-66 74t-39.5 78.5t-20.5 73t-5 61v717h746v-494q0 -211 202 -211q106 0 155.5 62t49.5 147v496h746zM1329 1165h-631l-243 359h700z" />
    <glyph glyph-name="uacute" unicode="&#xfa;" horiz-adv-x="1996" 
d="M1948 1102v-1102h-746v207q-21 -23 -46 -46t-80 -59t-117.5 -62t-158.5 -45.5t-202 -19.5h-12q-96 0 -176 16.5t-134 43.5t-96 63.5t-66 74t-39.5 78.5t-20.5 73t-5 61v717h746v-494q0 -211 202 -211q106 0 155.5 62t49.5 147v496h746zM678 1165l174 359h700l-243 -359
h-631z" />
    <glyph glyph-name="ucircumflex" unicode="&#xfb;" horiz-adv-x="1996" 
d="M1948 1102v-1102h-746v207q-21 -23 -46 -46t-80 -59t-117.5 -62t-158.5 -45.5t-202 -19.5h-12q-96 0 -176 16.5t-134 43.5t-96 63.5t-66 74t-39.5 78.5t-20.5 73t-5 61v717h746v-494q0 -211 202 -211q106 0 155.5 62t49.5 147v496h746zM1352 1524l317 -359h-569l-107 144
l-104 -144h-563l319 359h707z" />
    <glyph glyph-name="udieresis" unicode="&#xfc;" horiz-adv-x="1996" 
d="M1948 1102v-1102h-746v207q-21 -23 -46 -46t-80 -59t-117.5 -62t-158.5 -45.5t-202 -19.5h-12q-96 0 -176 16.5t-134 43.5t-96 63.5t-66 74t-39.5 78.5t-20.5 73t-5 61v717h746v-494q0 -211 202 -211q106 0 155.5 62t49.5 147v496h746zM1612 1524v-359h-576v359h576z
M958 1524v-359h-573v359h573z" />
    <glyph glyph-name="yacute" unicode="&#xfd;" horiz-adv-x="1853" 
d="M236 -385v362h235q49 0 49 37v2q0 25 -39 101l-510 985h791l215 -625l172 625h733l-440 -1096q-84 -207 -194.5 -299t-266.5 -92h-745zM635 1165l174 359h700l-243 -359h-631z" />
    <glyph glyph-name="thorn" unicode="&#xfe;" horiz-adv-x="1998" 
d="M795 553v-8q0 -36 11.5 -72t36 -69t69 -53.5t102.5 -20.5h12q54 0 94 20.5t61 53.5t30.5 68t9.5 71v8q0 39 -9.5 75t-30.5 69t-61 53t-94 20h-12q-59 0 -103 -19t-68.5 -51.5t-36 -68.5t-11.5 -76zM49 1524h746v-568q24 20 54 39t91.5 49t153.5 48t198 18h56
q149 0 263.5 -32.5t182 -83t110 -120.5t57.5 -135.5t15 -138.5v-51q0 -81 -17 -155t-62.5 -149.5t-116 -129.5t-187.5 -88.5t-268 -34.5h-53q-96 0 -182.5 12t-146.5 32t-92 33.5t-56 26.5v-481h-746v1909z" />
    <glyph glyph-name="ydieresis" unicode="&#xff;" horiz-adv-x="1853" 
d="M236 -385v362h235q49 0 49 37v2q0 25 -39 101l-510 985h791l215 -625l172 625h733l-440 -1096q-84 -207 -194.5 -299t-266.5 -92h-745zM1569 1524v-359h-576v359h576zM915 1524v-359h-573v359h573z" />
    <glyph glyph-name="Amacron" unicode="&#x100;" horiz-adv-x="2502" 
d="M1393 633l-187 422l-182 -422h369zM1671 0l-80 182h-762l-79 -182h-787l719 1524h1094l764 -1524h-869zM694 1606v290h1073v-290h-1073z" />
    <glyph glyph-name="amacron" unicode="&#x101;" horiz-adv-x="1898" 
d="M1057 440v74l-238 -63q-40 -11 -60 -29t-20 -49v-2q0 -36 29 -63t94 -27q92 0 143.5 45.5t51.5 113.5zM1063 139q-25 -24 -64 -47.5t-102.5 -50.5t-159 -44t-205.5 -17h-12q-107 0 -193.5 20t-143.5 53t-95.5 77.5t-55 93t-16.5 100.5v41q0 60 19.5 108t64.5 89t128 67.5
t202 36.5l580 47q28 3 38.5 14t10.5 31v2q0 69 -152 69h-4q-46 0 -79.5 -7.5t-49.5 -16t-25.5 -23.5t-11 -23t-2.5 -20h-692v25q0 39 4.5 68.5t23 69.5t50.5 69.5t92 60.5t142.5 51t206.5 32.5t280 12.5h116q163 0 294 -13.5t217 -34t149.5 -51.5t97 -61t53 -68t24.5 -65.5
t5 -60.5v-377q0 -35 29 -35h63v-362h-641q-162 0 -186 139zM391 1192v291h1043v-291h-1043z" />
    <glyph glyph-name="Abreve" unicode="&#x102;" horiz-adv-x="2502" 
d="M1393 633l-187 422l-182 -422h369zM1671 0l-80 182h-762l-79 -182h-787l719 1524h1094l764 -1524h-869zM1184 1583q-92 0 -168 15t-127 38.5t-89.5 57t-60.5 67t-35.5 72t-17.5 68t-4 59.5v4h422q0 -11 5 -25.5t17 -33.5t40.5 -32t68.5 -13h4q39 0 67 13t39.5 32t16 33.5
t4.5 25.5h416v-4q0 -41 -11.5 -86t-45 -98.5t-85.5 -95t-143.5 -69.5t-208.5 -28h-104z" />
    <glyph glyph-name="abreve" unicode="&#x103;" horiz-adv-x="1898" 
d="M852 1169q-87 0 -159.5 13.5t-122 36t-88 53.5t-61 62.5t-37 67t-19.5 63.5t-5 55v4h414q2 -29 33 -57.5t100 -28.5h4q36 0 63 9.5t40 24.5t18.5 27.5t7.5 24.5h410v-4q0 -38 -13 -80.5t-48 -91.5t-87.5 -88t-140.5 -65t-198 -26h-111zM1057 440v74l-238 -63
q-40 -11 -60 -29t-20 -49v-2q0 -36 29 -63t94 -27q92 0 143.5 45.5t51.5 113.5zM1063 139q-25 -24 -64 -47.5t-102.5 -50.5t-159 -44t-205.5 -17h-12q-107 0 -193.5 20t-143.5 53t-95.5 77.5t-55 93t-16.5 100.5v41q0 60 19.5 108t64.5 89t128 67.5t202 36.5l580 47
q28 3 38.5 14t10.5 31v2q0 69 -152 69h-4q-46 0 -79.5 -7.5t-49.5 -16t-25.5 -23.5t-11 -23t-2.5 -20h-692v25q0 39 4.5 68.5t23 69.5t50.5 69.5t92 60.5t142.5 51t206.5 32.5t280 12.5h116q163 0 294 -13.5t217 -34t149.5 -51.5t97 -61t53 -68t24.5 -65.5t5 -60.5v-377
q0 -35 29 -35h63v-362h-641q-162 0 -186 139z" />
    <glyph glyph-name="Aogonek" unicode="&#x104;" horiz-adv-x="2502" 
d="M1393 633l-187 422l-182 -422h369zM1671 0l-80 182h-762l-79 -182h-787l719 1524h1094l764 -1524h-869zM1749 -233v10q0 82 117 132.5t370 90.5h304q-63 -34 -96.5 -61t-33.5 -54v-2q0 -35 52 -35h78v-233h-424q-198 0 -282.5 38.5t-84.5 113.5z" />
    <glyph glyph-name="aogonek" unicode="&#x105;" horiz-adv-x="1898" 
d="M1100 -233v10q0 82 117 132.5t370 90.5h-338q-162 0 -186 139q-25 -24 -64 -47.5t-102.5 -50.5t-159 -44t-205.5 -17h-12q-107 0 -193.5 20t-143.5 53t-95.5 77.5t-55 93t-16.5 100.5v41q0 60 19.5 108t64.5 89t128 67.5t202 36.5l580 47q28 3 38.5 14t10.5 31v2
q0 69 -152 69h-4q-46 0 -79.5 -7.5t-49.5 -16t-25.5 -23.5t-11 -23t-2.5 -20h-692v25q0 39 4.5 68.5t23 69.5t50.5 69.5t92 60.5t142.5 51t206.5 32.5t280 12.5h116q163 0 294 -13.5t217 -34t149.5 -51.5t97 -61t53 -68t24.5 -65.5t5 -60.5v-377q0 -35 29 -35h63v-362
q-63 -34 -96 -61t-33 -54v-2q0 -35 51 -35h78v-233h-424q-198 0 -282 38t-84 114zM1057 440v74l-238 -63q-40 -11 -60 -29t-20 -49v-2q0 -36 29 -63t94 -27q92 0 143.5 45.5t51.5 113.5z" />
    <glyph glyph-name="Cacute" unicode="&#x106;" horiz-adv-x="2441" 
d="M903 1604l115 321h725l-189 -321h-651zM1282 -31h-72q-1185 0 -1185 766v62q0 76 10 143t42 146t84 143.5t143 126.5t212 104t298.5 68t395.5 26h72q209 0 380.5 -24.5t287.5 -64t204 -96t137.5 -113t80 -123t40 -119t9.5 -107.5v-30h-789q-4 19 -10 34.5t-32 47.5
t-65 53.5t-115 39t-175 17.5q-100 0 -175.5 -17.5t-119.5 -44.5t-70.5 -66t-35.5 -76t-9 -81v-24q0 -44 9.5 -83t37 -80t71 -70.5t119 -48.5t173.5 -19q102 0 178.5 19t115.5 43t64 58.5t30.5 51.5t8.5 37h789v-54q0 -53 -9.5 -104t-40 -117.5t-79.5 -123t-137 -113.5
t-204 -97t-288 -65t-381 -25z" />
    <glyph glyph-name="cacute" unicode="&#x107;" horiz-adv-x="1951" 
d="M664 1180l167 344h701l-238 -344h-630zM1059 -31h-144q-139 0 -257 13.5t-203 35.5t-154 56t-113.5 68.5t-77 80t-49.5 83t-27 85.5t-12 79.5t-2 72.5v28q0 40 2 71t12 78t27 84t49.5 81.5t77 78t113 67t153.5 54.5t202.5 34.5t256.5 13.5h148q169 0 306.5 -20.5t227 -53
t155.5 -79.5t101 -91t55.5 -98t25.5 -90.5t5 -77.5v-7h-755q-1 15 -4.5 33t-16.5 44.5t-33 47t-57 35.5t-84 15h-10q-51 0 -88.5 -14t-58.5 -35.5t-33.5 -53t-16.5 -59.5t-4 -62v-2q0 -38 4 -69t16.5 -66t33.5 -58.5t58.5 -39t88.5 -15.5h10q47 0 84 16.5t57 39t33 51.5
t16.5 48t4.5 34h755v-6q0 -29 -2 -55t-11.5 -67.5t-26 -77t-49 -78.5t-76 -77.5t-111 -68.5t-151 -56.5t-199.5 -36.5t-252 -14z" />
    <glyph glyph-name="Ccircumflex" unicode="&#x108;" horiz-adv-x="2441" 
d="M1597 1925l336 -323h-592l-110 118l-113 -118h-586l332 323h733zM1282 -31h-72q-1185 0 -1185 766v62q0 76 10 143t42 146t84 143.5t143 126.5t212 104t298.5 68t395.5 26h72q209 0 380.5 -24.5t287.5 -64t204 -96t137.5 -113t80 -123t40 -119t9.5 -107.5v-30h-789
q-4 19 -10 34.5t-32 47.5t-65 53.5t-115 39t-175 17.5q-100 0 -175.5 -17.5t-119.5 -44.5t-70.5 -66t-35.5 -76t-9 -81v-24q0 -44 9.5 -83t37 -80t71 -70.5t119 -48.5t173.5 -19q102 0 178.5 19t115.5 43t64 58.5t30.5 51.5t8.5 37h789v-54q0 -53 -9.5 -104t-40 -117.5
t-79.5 -123t-137 -113.5t-204 -97t-288 -65t-381 -25z" />
    <glyph glyph-name="ccircumflex" unicode="&#x109;" horiz-adv-x="1951" 
d="M1333 1524l318 -348h-570l-106 133l-105 -133h-563l320 348h706zM1059 -31h-144q-139 0 -257 13.5t-203 35.5t-154 56t-113.5 68.5t-77 80t-49.5 83t-27 85.5t-12 79.5t-2 72.5v28q0 40 2 71t12 78t27 84t49.5 81.5t77 78t113 67t153.5 54.5t202.5 34.5t256.5 13.5h148
q169 0 306.5 -20.5t227 -53t155.5 -79.5t101 -91t55.5 -98t25.5 -90.5t5 -77.5v-7h-755q-1 15 -4.5 33t-16.5 44.5t-33 47t-57 35.5t-84 15h-10q-51 0 -88.5 -14t-58.5 -35.5t-33.5 -53t-16.5 -59.5t-4 -62v-2q0 -38 4 -69t16.5 -66t33.5 -58.5t58.5 -39t88.5 -15.5h10
q47 0 84 16.5t57 39t33 51.5t16.5 48t4.5 34h755v-6q0 -29 -2 -55t-11.5 -67.5t-26 -77t-49 -78.5t-76 -77.5t-111 -68.5t-151 -56.5t-199.5 -36.5t-252 -14z" />
    <glyph glyph-name="Cdotaccent" unicode="&#x10a;" horiz-adv-x="2441" 
d="M1620 1925v-321h-754v321h754zM1282 -31h-72q-1185 0 -1185 766v62q0 76 10 143t42 146t84 143.5t143 126.5t212 104t298.5 68t395.5 26h72q209 0 380.5 -24.5t287.5 -64t204 -96t137.5 -113t80 -123t40 -119t9.5 -107.5v-30h-789q-4 19 -10 34.5t-32 47.5t-65 53.5
t-115 39t-175 17.5q-100 0 -175.5 -17.5t-119.5 -44.5t-70.5 -66t-35.5 -76t-9 -81v-24q0 -44 9.5 -83t37 -80t71 -70.5t119 -48.5t173.5 -19q102 0 178.5 19t115.5 43t64 58.5t30.5 51.5t8.5 37h789v-54q0 -53 -9.5 -104t-40 -117.5t-79.5 -123t-137 -113.5t-204 -97
t-288 -65t-381 -25z" />
    <glyph glyph-name="cdotaccent" unicode="&#x10b;" horiz-adv-x="1951" 
d="M1354 1524v-344h-750v344h750zM1059 -31h-144q-139 0 -257 13.5t-203 35.5t-154 56t-113.5 68.5t-77 80t-49.5 83t-27 85.5t-12 79.5t-2 72.5v28q0 40 2 71t12 78t27 84t49.5 81.5t77 78t113 67t153.5 54.5t202.5 34.5t256.5 13.5h148q169 0 306.5 -20.5t227 -53
t155.5 -79.5t101 -91t55.5 -98t25.5 -90.5t5 -77.5v-7h-755q-1 15 -4.5 33t-16.5 44.5t-33 47t-57 35.5t-84 15h-10q-51 0 -88.5 -14t-58.5 -35.5t-33.5 -53t-16.5 -59.5t-4 -62v-2q0 -38 4 -69t16.5 -66t33.5 -58.5t58.5 -39t88.5 -15.5h10q47 0 84 16.5t57 39t33 51.5
t16.5 48t4.5 34h755v-6q0 -29 -2 -55t-11.5 -67.5t-26 -77t-49 -78.5t-76 -77.5t-111 -68.5t-151 -56.5t-199.5 -36.5t-252 -14z" />
    <glyph glyph-name="Ccaron" unicode="&#x10c;" horiz-adv-x="2441" 
d="M864 1604l-338 321h596l111 -117l113 117h589l-329 -321h-742zM1282 -31h-72q-1185 0 -1185 766v62q0 76 10 143t42 146t84 143.5t143 126.5t212 104t298.5 68t395.5 26h72q209 0 380.5 -24.5t287.5 -64t204 -96t137.5 -113t80 -123t40 -119t9.5 -107.5v-30h-789
q-4 19 -10 34.5t-32 47.5t-65 53.5t-115 39t-175 17.5q-100 0 -175.5 -17.5t-119.5 -44.5t-70.5 -66t-35.5 -76t-9 -81v-24q0 -44 9.5 -83t37 -80t71 -70.5t119 -48.5t173.5 -19q102 0 178.5 19t115.5 43t64 58.5t30.5 51.5t8.5 37h789v-54q0 -53 -9.5 -104t-40 -117.5
t-79.5 -123t-137 -113.5t-204 -97t-288 -65t-381 -25z" />
    <glyph glyph-name="ccaron" unicode="&#x10d;" horiz-adv-x="1951" 
d="M604 1180l-305 344h580l104 -144l107 144h573l-307 -344h-752zM1059 -31h-144q-139 0 -257 13.5t-203 35.5t-154 56t-113.5 68.5t-77 80t-49.5 83t-27 85.5t-12 79.5t-2 72.5v28q0 40 2 71t12 78t27 84t49.5 81.5t77 78t113 67t153.5 54.5t202.5 34.5t256.5 13.5h148
q169 0 306.5 -20.5t227 -53t155.5 -79.5t101 -91t55.5 -98t25.5 -90.5t5 -77.5v-7h-755q-1 15 -4.5 33t-16.5 44.5t-33 47t-57 35.5t-84 15h-10q-51 0 -88.5 -14t-58.5 -35.5t-33.5 -53t-16.5 -59.5t-4 -62v-2q0 -38 4 -69t16.5 -66t33.5 -58.5t58.5 -39t88.5 -15.5h10
q47 0 84 16.5t57 39t33 51.5t16.5 48t4.5 34h755v-6q0 -29 -2 -55t-11.5 -67.5t-26 -77t-49 -78.5t-76 -77.5t-111 -68.5t-151 -56.5t-199.5 -36.5t-252 -14z" />
    <glyph glyph-name="Dcaron" unicode="&#x10e;" horiz-adv-x="2443" 
d="M57 0v1524h1221q254 0 452 -37.5t326.5 -102t212 -157.5t118 -197t34.5 -227v-64q0 -86 -14 -161t-49.5 -151t-91.5 -138t-145.5 -117t-206.5 -92t-278.5 -58.5t-357.5 -21.5h-1221zM836 1051v-580h311q91 0 164.5 11.5t121.5 30t83.5 45t54 51.5t29.5 56t13.5 52t2.5 45
v12q0 23 -3 44t-14.5 50t-30.5 53t-54.5 49t-83.5 42t-120.5 28t-162.5 11h-311zM702 1589l-352 336h590l111 -117l112 117h584l-344 -336h-701z" />
    <glyph glyph-name="dcaron" unicode="&#x10f;" horiz-adv-x="1988" 
d="M1194 555v16q0 34 -10.5 66t-33.5 62.5t-67 49.5t-102 19h-8q-45 0 -80.5 -13t-57 -33t-35.5 -47.5t-19 -53.5t-5 -54v-10q0 -40 9 -75t29.5 -68t60.5 -52.5t96 -19.5h8q59 0 103 19.5t67.5 51.5t34 67.5t10.5 74.5zM1194 1524h745v-1524h-745v145q-167 -153 -506 -153
h-51q-133 0 -239 31t-175 82t-115 121.5t-65.5 146t-19.5 157.5v52q0 79 18.5 152t63.5 142.5t112 120.5t172 82t236 31h51q334 0 518 -129v543zM1982 1163l21 361h526l-51 -361h-496z" />
    <glyph glyph-name="Dcroat" unicode="&#x110;" horiz-adv-x="2510" 
d="M125 0v588h-121v358h121v578h1221q254 0 452 -37.5t326.5 -102t211.5 -157.5t117.5 -197t34.5 -227v-64q0 -86 -14 -160.5t-49 -151t-91.5 -138.5t-145.5 -117t-206 -92t-278.5 -58.5t-357.5 -21.5h-1221zM903 1051v-105h500v-358h-500v-117h311q91 0 164.5 11.5
t121.5 30t83.5 45t54 51.5t29.5 56t13.5 52t2.5 45v12q0 23 -3 44t-14.5 50t-30.5 53t-54.5 49t-83.5 42t-120.5 28t-162.5 11h-311z" />
    <glyph glyph-name="dcroat" unicode="&#x111;" horiz-adv-x="1988" 
d="M1194 1524h745v-94h109v-254h-109v-1176h-745v145q-167 -153 -506 -153h-51q-133 0 -239 31t-175 82t-115 121.5t-65.5 146t-19.5 157.5v52q0 79 18.5 152t63.5 142.5t112 120.5t172 82t236 31h51q334 0 518 -129v195h-489v254h489v94zM1194 555v16q0 34 -10.5 66
t-33.5 62.5t-67 49.5t-102 19h-8q-45 0 -80.5 -13t-57 -33t-35.5 -47.5t-19 -53.5t-5 -54v-10q0 -40 9 -75t29.5 -68t60.5 -52.5t96 -19.5h8q59 0 103 19.5t67.5 51.5t34 67.5t10.5 74.5z" />
    <glyph glyph-name="Emacron" unicode="&#x112;" horiz-adv-x="1943" 
d="M57 1524h1837v-426h-1071v-119h1059v-418h-1059v-131h1080v-430h-1846v1524zM459 1606v290h1073v-290h-1073z" />
    <glyph glyph-name="emacron" unicode="&#x113;" horiz-adv-x="1953" 
d="M1200 711q-10 58 -58.5 90.5t-162.5 32.5q-81 0 -131 -19t-67 -43.5t-23 -60.5h442zM1937 418q0 -40 -6.5 -76t-30 -83t-62.5 -85.5t-109 -78t-164 -66t-235 -43.5t-314 -17h-92q-137 0 -253.5 13.5t-202 35.5t-154.5 55.5t-115 68.5t-80 80t-52.5 84t-29.5 86t-14 81
t-3 74v28q0 40 3 73.5t14 79t30 83.5t53 81t80.5 76.5t116 65t155 53t201.5 34t253 12.5h90q140 0 258.5 -13t205.5 -34.5t157.5 -55t117.5 -68.5t81.5 -81.5t53.5 -88t30 -93.5t14 -91.5t3 -89.5v-29h-1181q3 -34 14 -63t34.5 -57t69 -44t109.5 -16q55 0 97 10.5t63.5 23
t35.5 31.5t17.5 28t5.5 20h735v-4zM461 1196v291h1042v-291h-1042z" />
    <glyph glyph-name="Ebreve" unicode="&#x114;" horiz-adv-x="1943" 
d="M57 1524h1837v-426h-1071v-119h1059v-418h-1059v-131h1080v-430h-1846v1524zM954 1583q-127 0 -222.5 28.5t-147 69t-83 95.5t-40 97.5t-8.5 86.5v4h421q0 -11 5 -25.5t17.5 -33.5t41 -32t68.5 -13h4q39 0 67 13t39.5 32t16 33.5t4.5 25.5h415v-4q0 -41 -11.5 -86
t-45 -98.5t-85.5 -95t-143 -69.5t-208 -28h-105z" />
    <glyph glyph-name="ebreve" unicode="&#x115;" horiz-adv-x="1953" 
d="M928 1174q-120 0 -212 26t-143.5 64t-84 88t-42.5 90t-10 78v4h416q1 -10 7 -21.5t19 -26.5t40.5 -24.5t64.5 -9.5h4q36 0 62.5 9.5t39 24.5t18 26t7.5 22h412v-4q0 -36 -13 -78t-48.5 -90.5t-88 -87t-140.5 -64.5t-198 -26h-110zM1200 711q-10 58 -58.5 90.5
t-162.5 32.5q-81 0 -131 -19t-67 -43.5t-23 -60.5h442zM1937 418q0 -40 -6.5 -76t-30 -83t-62.5 -85.5t-109 -78t-164 -66t-235 -43.5t-314 -17h-92q-137 0 -253.5 13.5t-202 35.5t-154.5 55.5t-115 68.5t-80 80t-52.5 84t-29.5 86t-14 81t-3 74v28q0 40 3 73.5t14 79
t30 83.5t53 81t80.5 76.5t116 65t155 53t201.5 34t253 12.5h90q140 0 258.5 -13t205.5 -34.5t157.5 -55t117.5 -68.5t81.5 -81.5t53.5 -88t30 -93.5t14 -91.5t3 -89.5v-29h-1181q3 -34 14 -63t34.5 -57t69 -44t109.5 -16q55 0 97 10.5t63.5 23t35.5 31.5t17.5 28t5.5 20h735
v-4z" />
    <glyph glyph-name="Edotaccent" unicode="&#x116;" horiz-adv-x="1943" 
d="M57 1524h1837v-426h-1071v-119h1059v-418h-1059v-131h1080v-430h-1846v1524zM1374 1948v-359h-745v359h745z" />
    <glyph glyph-name="edotaccent" unicode="&#x117;" horiz-adv-x="1953" 
d="M1358 1524v-344h-750v344h750zM1200 711q-10 58 -58.5 90.5t-162.5 32.5q-81 0 -131 -19t-67 -43.5t-23 -60.5h442zM1937 418q0 -40 -6.5 -76t-30 -83t-62.5 -85.5t-109 -78t-164 -66t-235 -43.5t-314 -17h-92q-137 0 -253.5 13.5t-202 35.5t-154.5 55.5t-115 68.5
t-80 80t-52.5 84t-29.5 86t-14 81t-3 74v28q0 40 3 73.5t14 79t30 83.5t53 81t80.5 76.5t116 65t155 53t201.5 34t253 12.5h90q140 0 258.5 -13t205.5 -34.5t157.5 -55t117.5 -68.5t81.5 -81.5t53.5 -88t30 -93.5t14 -91.5t3 -89.5v-29h-1181q3 -34 14 -63t34.5 -57t69 -44
t109.5 -16q55 0 97 10.5t63.5 23t35.5 31.5t17.5 28t5.5 20h735v-4z" />
    <glyph glyph-name="Eogonek" unicode="&#x118;" horiz-adv-x="1943" 
d="M57 1524h1837v-426h-1071v-119h1059v-418h-1059v-131h1080v-430h-205q-63 -34 -96 -61t-33 -54v-2q0 -35 51 -35h84v-233h-430q-198 0 -282.5 38.5t-84.5 113.5v10q0 82 117.5 132.5t370.5 90.5h-1338v1524z" />
    <glyph glyph-name="eogonek" unicode="&#x119;" horiz-adv-x="1953" 
d="M1651 -152v-233h-430q-198 0 -282.5 38.5t-84.5 113.5v10q0 78 107 124.5t370 86.5q-160 -19 -315 -19h-92q-137 0 -253.5 13.5t-202 35.5t-154.5 55.5t-115 68.5t-80 80t-52.5 84t-29.5 86t-14 81t-3 74v28q0 40 3 73.5t14 79t30 83.5t53 81t80.5 76.5t116 65t155 53
t201.5 34t253 12.5h90q140 0 258.5 -13t205.5 -34.5t157.5 -55t117.5 -68.5t81.5 -81.5t53.5 -88t30 -93.5t14 -91.5t3 -89.5v-29h-1181q3 -34 14 -63t34.5 -57t69 -44t109.5 -16q55 0 97 10.5t63.5 23t35.5 31.5t17.5 28t5.5 20h735v-4q0 -114 -66.5 -208t-225.5 -200
q-86 -57 -106 -79q-23 -24 -23 -46v-2q0 -35 51 -35h84zM1200 711q-10 58 -58.5 90.5t-162.5 32.5q-81 0 -131 -19t-67 -43.5t-23 -60.5h442z" />
    <glyph glyph-name="Ecaron" unicode="&#x11a;" horiz-adv-x="1943" 
d="M57 1524h1837v-426h-1071v-119h1059v-418h-1059v-131h1080v-430h-1846v1524zM655 1589l-352 336h590l111 -117l112 117h584l-344 -336h-701z" />
    <glyph glyph-name="ecaron" unicode="&#x11b;" horiz-adv-x="1953" 
d="M606 1180l-305 344h580l104 -144l107 144h573l-307 -344h-752zM1200 711q-10 58 -58.5 90.5t-162.5 32.5q-81 0 -131 -19t-67 -43.5t-23 -60.5h442zM1937 418q0 -40 -6.5 -76t-30 -83t-62.5 -85.5t-109 -78t-164 -66t-235 -43.5t-314 -17h-92q-137 0 -253.5 13.5
t-202 35.5t-154.5 55.5t-115 68.5t-80 80t-52.5 84t-29.5 86t-14 81t-3 74v28q0 40 3 73.5t14 79t30 83.5t53 81t80.5 76.5t116 65t155 53t201.5 34t253 12.5h90q140 0 258.5 -13t205.5 -34.5t157.5 -55t117.5 -68.5t81.5 -81.5t53.5 -88t30 -93.5t14 -91.5t3 -89.5v-29
h-1181q3 -34 14 -63t34.5 -57t69 -44t109.5 -16q55 0 97 10.5t63.5 23t35.5 31.5t17.5 28t5.5 20h735v-4z" />
    <glyph glyph-name="Gcircumflex" unicode="&#x11c;" horiz-adv-x="2508" 
d="M1628 1925l336 -323h-592l-110 118l-113 -118h-586l332 323h733zM1133 -31h-54q-178 0 -326.5 24.5t-255.5 66.5t-190.5 102t-135.5 126.5t-85.5 144.5t-47 151.5t-13.5 152.5v62q0 755 1171 755h66q223 0 404.5 -22.5t302 -58t210.5 -88t139.5 -104.5t79 -115.5
t37.5 -112t8 -103.5v-2h-794q-5 16 -13.5 30t-35.5 37t-67 39t-114 28t-170 12q-218 0 -321 -84t-103 -230v-18q0 -74 23.5 -134t71.5 -107.5t130.5 -74t192.5 -26.5q86 0 155.5 10t111 25t69.5 34t38.5 35.5t10.5 30.5h-411v311h1237v-866h-523q-9 33 -37 82.5t-55 77.5
q-227 -191 -706 -191z" />
    <glyph glyph-name="gcircumflex" unicode="&#x11d;" horiz-adv-x="2017" 
d="M991 752h-10q-109 0 -160 -51t-51 -126v-6q0 -80 51 -136t160 -56h10q114 0 173 56.5t59 135.5v6q0 72 -59.5 124.5t-172.5 52.5zM1087 -401h-182q-141 0 -258.5 13.5t-200 36t-146.5 54.5t-103 66t-64 74t-34 76t-9 73v8h746q17 -70 159 -70h6q104 0 163 54t59 155v66
q-21 -21 -39.5 -36.5t-65 -41.5t-99.5 -43t-141 -30t-192 -13h-47q-140 0 -249.5 31.5t-177 82t-111.5 121t-61 141t-17 148.5v25q0 78 18 148.5t63 139.5t113.5 119t177.5 80.5t248 30.5h49q98 0 183.5 -11t136 -23.5t100.5 -35.5t66 -33t45 -30v127h745v-950
q0 -85 -22 -159.5t-83 -149t-156.5 -126.5t-254 -85t-365.5 -33zM1327 1524l318 -359h-570l-106 144l-105 -144h-563l320 359h706z" />
    <glyph glyph-name="Gbreve" unicode="&#x11e;" horiz-adv-x="2508" 
d="M1133 -31h-54q-178 0 -326.5 24.5t-255.5 66.5t-190.5 102t-135.5 126.5t-85.5 144.5t-47 151.5t-13.5 152.5v62q0 755 1171 755h66q223 0 404.5 -22.5t302 -58t210.5 -88t139.5 -104.5t79 -115.5t37.5 -112t8 -103.5v-2h-794q-5 16 -13.5 30t-35.5 37t-67 39t-114 28
t-170 12q-218 0 -321 -84t-103 -230v-18q0 -74 23.5 -134t71.5 -107.5t130.5 -74t192.5 -26.5q86 0 155.5 10t111 25t69.5 34t38.5 35.5t10.5 30.5h-411v311h1237v-866h-523q-9 33 -37 82.5t-55 77.5q-227 -191 -706 -191zM1217 1597q-92 0 -168 15t-127 38.5t-89.5 57
t-60.5 67t-35.5 72t-17.5 68t-4 59.5v4h422q0 -11 5 -25.5t17 -33.5t40.5 -32t68.5 -13h4q39 0 67 13t39.5 32t16 33.5t4.5 25.5h416v-4q0 -41 -11.5 -86t-45 -98.5t-85.5 -95t-143.5 -69.5t-208.5 -28h-104z" />
    <glyph glyph-name="gbreve" unicode="&#x11f;" horiz-adv-x="2017" 
d="M991 752h-10q-109 0 -160 -51t-51 -126v-6q0 -80 51 -136t160 -56h10q114 0 173 56.5t59 135.5v6q0 72 -59.5 124.5t-172.5 52.5zM1087 -401h-182q-141 0 -258.5 13.5t-200 36t-146.5 54.5t-103 66t-64 74t-34 76t-9 73v8h746q17 -70 159 -70h6q104 0 163 54t59 155v66
q-21 -21 -39.5 -36.5t-65 -41.5t-99.5 -43t-141 -30t-192 -13h-47q-140 0 -249.5 31.5t-177 82t-111.5 121t-61 141t-17 148.5v25q0 78 18 148.5t63 139.5t113.5 119t177.5 80.5t248 30.5h49q98 0 183.5 -11t136 -23.5t100.5 -35.5t66 -33t45 -30v127h745v-950
q0 -85 -22 -159.5t-83 -149t-156.5 -126.5t-254 -85t-365.5 -33zM1503 1520q0 -40 -12.5 -84t-47 -95t-86.5 -90t-140.5 -65.5t-200.5 -26.5h-111q-88 0 -161 14t-123 36.5t-88 54t-60 63.5t-36 68.5t-18.5 66t-4.5 58.5v4h413v-2q0 -12 5 -25.5t18 -29.5t42 -26.5t69 -10.5
h4q39 0 66.5 10.5t40 26.5t17.5 29.5t5 25.5v2h409v-4z" />
    <glyph glyph-name="Gdotaccent" unicode="&#x120;" horiz-adv-x="2508" 
d="M1640 1925v-321h-753v321h753zM1133 -31h-54q-178 0 -326.5 24.5t-255.5 66.5t-190.5 102t-135.5 126.5t-85.5 144.5t-47 151.5t-13.5 152.5v62q0 755 1171 755h66q223 0 404.5 -22.5t302 -58t210.5 -88t139.5 -104.5t79 -115.5t37.5 -112t8 -103.5v-2h-794
q-5 16 -13.5 30t-35.5 37t-67 39t-114 28t-170 12q-218 0 -321 -84t-103 -230v-18q0 -74 23.5 -134t71.5 -107.5t130.5 -74t192.5 -26.5q86 0 155.5 10t111 25t69.5 34t38.5 35.5t10.5 30.5h-411v311h1237v-866h-523q-9 33 -37 82.5t-55 77.5q-227 -191 -706 -191z" />
    <glyph glyph-name="gdotaccent" unicode="&#x121;" horiz-adv-x="2017" 
d="M991 752h-10q-109 0 -160 -51t-51 -126v-6q0 -80 51 -136t160 -56h10q114 0 173 56.5t59 135.5v6q0 72 -59.5 124.5t-172.5 52.5zM1087 -401h-182q-141 0 -258.5 13.5t-200 36t-146.5 54.5t-103 66t-64 74t-34 76t-9 73v8h746q17 -70 159 -70h6q104 0 163 54t59 155v66
q-21 -21 -39.5 -36.5t-65 -41.5t-99.5 -43t-141 -30t-192 -13h-47q-140 0 -249.5 31.5t-177 82t-111.5 121t-61 141t-17 148.5v25q0 78 18 148.5t63 139.5t113.5 119t177.5 80.5t248 30.5h49q98 0 183.5 -11t136 -23.5t100.5 -35.5t66 -33t45 -30v127h745v-950
q0 -85 -22 -159.5t-83 -149t-156.5 -126.5t-254 -85t-365.5 -33zM1348 1524v-359h-746v359h746z" />
    <glyph glyph-name="uni0122" unicode="&#x122;" horiz-adv-x="2508" 
d="M1133 -31h-54q-178 0 -326.5 24.5t-255.5 66.5t-190.5 102t-135.5 126.5t-85.5 144.5t-47 151.5t-13.5 152.5v62q0 755 1171 755h66q223 0 404.5 -22.5t302 -58t210.5 -88t139.5 -104.5t79 -115.5t37.5 -112t8 -103.5v-2h-794q-5 16 -13.5 30t-35.5 37t-67 39t-114 28
t-170 12q-218 0 -321 -84t-103 -230v-18q0 -74 23.5 -134t71.5 -107.5t130.5 -74t192.5 -26.5q86 0 155.5 10t111 25t69.5 34t38.5 35.5t10.5 30.5h-411v311h1237v-866h-523q-9 33 -37 82.5t-55 77.5q-227 -191 -706 -191zM1307 -678h-332q29 42 60 118.5t36 113.5h-280v360
h661v-276q0 -66 -47 -159.5t-98 -156.5z" />
    <glyph glyph-name="uni0123" unicode="&#x123;" horiz-adv-x="2017" 
d="M991 752h-10q-109 0 -160 -51t-51 -126v-6q0 -80 51 -136t160 -56h10q114 0 173 56.5t59 135.5v6q0 72 -59.5 124.5t-172.5 52.5zM1087 -401h-182q-141 0 -258.5 13.5t-200 36t-146.5 54.5t-103 66t-64 74t-34 76t-9 73v8h746q17 -70 159 -70h6q104 0 163 54t59 155v66
q-21 -21 -39.5 -36.5t-65 -41.5t-99.5 -43t-141 -30t-192 -13h-47q-140 0 -249.5 31.5t-177 82t-111.5 121t-61 141t-17 148.5v25q0 78 18 148.5t63 139.5t113.5 119t177.5 80.5t248 30.5h49q98 0 183.5 -11t136 -23.5t100.5 -35.5t66 -33t45 -30v127h745v-950
q0 -85 -22 -159.5t-83 -149t-156.5 -126.5t-254 -85t-365.5 -33zM772 1757h336q-29 -42 -60 -118t-36 -113h278v-361h-663v277q0 66 47 159t98 156z" />
    <glyph glyph-name="Hcircumflex" unicode="&#x124;" horiz-adv-x="2486" 
d="M57 0v1524h779v-506h815v506h778v-1524h-778v543h-815v-543h-779zM1591 1925l351 -338h-590l-111 119l-113 -119h-583l346 338h700z" />
    <glyph glyph-name="hcircumflex" unicode="&#x125;" horiz-adv-x="2011" 
d="M49 0v1524h746v-629q23 23 46.5 43t81.5 57.5t120.5 63.5t159.5 46.5t202 20.5h10q96 0 177 -16.5t136 -42.5t98 -62.5t68 -72.5t41 -76t21.5 -70t5.5 -57v-729h-745v494q0 211 -211 211q-109 0 -160 -60t-51 -149v-496h-746zM1245 1923l350 -338h-589l-111 119
l-113 -119h-583l346 338h700z" />
    <glyph glyph-name="Hbar" unicode="&#x126;" horiz-adv-x="2576" 
d="M-4 1141v270h106v113h779v-113h815v113h778v-113h106v-270h-106v-1141h-778v543h-815v-543h-779v1141h-106zM881 1018h815v123h-815v-123z" />
    <glyph glyph-name="hbar" unicode="&#x127;" horiz-adv-x="2011" 
d="M49 0v1176h-108v254h108v94h746v-94h489v-254h-489v-281q23 23 46.5 43t81.5 57.5t120.5 63.5t159.5 46.5t202 20.5h10q96 0 177 -16.5t136 -42.5t98 -62.5t68 -72.5t41 -76t21.5 -70t5.5 -57v-729h-745v494q0 211 -211 211q-109 0 -160 -60t-51 -149v-496h-746z" />
    <glyph glyph-name="Itilde" unicode="&#x128;" horiz-adv-x="890" 
d="M834 1524v-1524h-777v1524h777zM723 1587q-25 0 -44.5 1t-42.5 4.5t-35 5t-40.5 9.5t-38 10.5t-49.5 15t-55 16.5q-91 30 -125 30q-31 0 -31 -43v-49h-385v185q0 202 279 202h4q74 0 128.5 -11.5t186.5 -49.5q89 -27 113 -27q28 0 28 33v55h392v-157q0 -32 -4.5 -58.5
t-21 -60t-45 -56.5t-82 -39t-126.5 -16h-6z" />
    <glyph glyph-name="itilde" unicode="&#x129;" horiz-adv-x="843" 
d="M643 1163q-56 0 -100 12t-142 50q-74 28 -90 28q-26 0 -26 -43v-47h-312v180q0 203 224 203h2q58 0 109 -12t143 -49q69 -27 84 -27q22 0 22 33v55h313v-153q0 -32 -3 -58.5t-16.5 -60t-36 -56.5t-65.5 -39t-102 -16h-4zM795 1102v-1102h-746v1102h746z" />
    <glyph glyph-name="Imacron" unicode="&#x12a;" horiz-adv-x="890" 
d="M-74 1606v290h1039v-290h-1039zM834 1524v-1524h-777v1524h777z" />
    <glyph glyph-name="imacron" unicode="&#x12b;" horiz-adv-x="843" 
d="M-29 1182v291h901v-291h-901zM795 1102v-1102h-746v1102h746z" />
    <glyph glyph-name="Ibreve" unicode="&#x12c;" horiz-adv-x="890" 
d="M834 1524v-1524h-777v1524h777zM397 1583q-127 0 -222.5 28.5t-147 69t-83 95.5t-40 97.5t-8.5 86.5v4h421q0 -11 5 -25.5t17.5 -33.5t41 -32t68.5 -13h4q39 0 67 13t39.5 32t16 33.5t4.5 25.5h415v-4q0 -41 -11.5 -86t-45 -98.5t-85.5 -95t-143 -69.5t-208 -28h-105z
" />
    <glyph glyph-name="ibreve" unicode="&#x12d;" horiz-adv-x="843" 
d="M883 1520q0 -38 -8.5 -78.5t-37.5 -94t-74.5 -94.5t-130 -69.5t-194.5 -28.5h-28q-87 0 -157.5 15t-116.5 38.5t-80 57.5t-51.5 66t-28 70.5t-13 64t-2.5 53.5v4h371v-2q0 -31 21 -60.5t71 -29.5h4q47 0 67.5 29.5t20.5 60.5v2h367v-4zM795 1102v-1102h-746v1102h746z
" />
    <glyph glyph-name="Iogonek" unicode="&#x12e;" horiz-adv-x="890" 
d="M43 -233v10q0 82 117 132.5t370 90.5h-473v1524h777v-1524q-63 -34 -96 -61t-33 -54v-2q0 -35 51 -35h78v-233h-424q-198 0 -282.5 38.5t-84.5 113.5z" />
    <glyph glyph-name="iogonek" unicode="&#x12f;" horiz-adv-x="843" 
d="M4 -233v10q0 82 117.5 132.5t370.5 90.5h-443v1102h746v-1102q-63 -34 -96 -61t-33 -54v-2q0 -35 51 -35h78v-233h-424q-198 0 -282.5 38.5t-84.5 113.5zM795 1524v-359h-746v359h746z" />
    <glyph glyph-name="Idotaccent" unicode="&#x130;" horiz-adv-x="890" 
d="M834 1524v-1524h-777v1524h777zM817 1948v-359h-745v359h745z" />
    <glyph glyph-name="dotlessi" unicode="&#x131;" horiz-adv-x="843" 
d="M795 1102v-1102h-746v1102h746z" />
    <glyph glyph-name="IJ" unicode="&#x132;" horiz-adv-x="3022" 
d="M834 1524v-1524h-777v1524h777zM1819 -23q-144 0 -266 19t-210 49t-158.5 76t-116 92t-79 105.5t-50.5 108t-26.5 108.5t-11.5 97t-2 83v14h737q9 -71 35 -110q65 -95 240 -95h4q69 0 120 16.5t80.5 42.5t47.5 64t24 73.5t6 78.5v725h781v-736q0 -62 -3.5 -113
t-15.5 -118.5t-32.5 -122t-58 -116.5t-89 -109.5t-128.5 -92.5t-172 -74.5t-224.5 -47t-282.5 -17.5h-149z" />
    <glyph glyph-name="ij" unicode="&#x133;" horiz-adv-x="1687" 
d="M795 1524v-359h-746v359h746zM795 1102v-1102h-746v1102h746zM1638 1524v-359h-745v359h745zM770 -41h55q43 0 55.5 13t12.5 59v1071h745v-1151q0 -77 -15 -136.5t-40 -96.5t-60.5 -61t-72.5 -33t-80 -9h-600v344z" />
    <glyph glyph-name="Jcircumflex" unicode="&#x134;" horiz-adv-x="2131" 
d="M928 -23q-144 0 -266 19t-210 49t-158.5 76t-116 92t-79 105.5t-50.5 108t-26.5 108.5t-11.5 97t-2 83v14h737q9 -71 35 -110q65 -95 240 -95h4q69 0 120.5 16.5t81 42.5t47.5 64t24 73.5t6 78.5v725h780v-736q0 -62 -3.5 -113t-15.5 -118.5t-32.5 -122t-58 -116.5
t-89 -109.5t-128.5 -92.5t-172 -74.5t-224.5 -47t-282.5 -17.5h-149zM2025 1925l351 -338h-590l-111 119l-112 -119h-584l346 338h700z" />
    <glyph glyph-name="jcircumflex" unicode="&#x135;" horiz-adv-x="843" 
d="M723 1524l231 -359h-454l-84 144l-82 -144h-449l234 359h604zM-74 -41h56q43 0 55 13t12 59v1071h746v-1151q0 -96 -22.5 -164t-62 -104t-84.5 -52t-100 -16h-600v344z" />
    <glyph glyph-name="uni0136" unicode="&#x136;" horiz-adv-x="2437" 
d="M836 0h-779v1524h779v-541l692 541h946l-905 -684l909 -840h-1016l-626 608v-608zM1335 -655h-331q29 42 60 118t36 113h-281v361h662v-277q0 -66 -47.5 -159t-98.5 -156z" />
    <glyph glyph-name="uni0137" unicode="&#x137;" horiz-adv-x="1861" 
d="M795 0h-746v1524h746v-822l243 400h783l-310 -459l379 -643h-819l-276 469v-469zM1112 -655h-332q29 42 60.5 118t36.5 113h-281v361h661v-277q0 -66 -47 -159t-98 -156z" />
    <glyph glyph-name="Lacute" unicode="&#x139;" horiz-adv-x="1929" 
d="M57 1524h779v-981h1056v-543h-1835v1524zM121 1589l119 336h725l-193 -336h-651z" />
    <glyph glyph-name="lacute" unicode="&#x13a;" horiz-adv-x="843" 
d="M109 1587l163 338h701l-234 -338h-630zM795 1524v-1524h-746v1524h746z" />
    <glyph glyph-name="uni013B" unicode="&#x13b;" horiz-adv-x="1929" 
d="M57 1524h779v-981h1056v-543h-1835v1524zM1159 -655h-332q29 42 60.5 118t36.5 113h-281v361h662v-277q0 -66 -47.5 -159t-98.5 -156z" />
    <glyph glyph-name="uni013C" unicode="&#x13c;" horiz-adv-x="843" 
d="M795 1524v-1524h-746v1524h746zM606 -655h-332q29 42 60.5 118t36.5 113h-281v361h662v-277q0 -66 -47.5 -159t-98.5 -156z" />
    <glyph glyph-name="Lcaron" unicode="&#x13d;" horiz-adv-x="1929" 
d="M57 1524h779v-981h1056v-543h-1835v1524zM879 1163l20 361h526l-51 -361h-495z" />
    <glyph glyph-name="lcaron" unicode="&#x13e;" horiz-adv-x="843" 
d="M838 1163l20 361h526l-51 -361h-495zM795 1524v-1524h-746v1524h746z" />
    <glyph glyph-name="Ldot" unicode="&#x13f;" horiz-adv-x="1929" 
d="M57 1524h779v-981h1056v-543h-1835v1524zM1798 1155v-475h-733v475h733z" />
    <glyph glyph-name="ldot" unicode="&#x140;" horiz-adv-x="1585" 
d="M1581 1024v-475h-733v475h733zM795 1524v-1524h-746v1524h746z" />
    <glyph glyph-name="Lslash" unicode="&#x141;" horiz-adv-x="2002" 
d="M131 1524h778v-508l588 203v-351l-588 -196v-129h1057v-543h-1835v412l-135 -45v338l135 45v774z" />
    <glyph glyph-name="lslash" unicode="&#x142;" horiz-adv-x="970" 
d="M858 1524v-443l105 37v-366l-105 -37v-715h-745v451l-105 -37v366l105 37v707h745z" />
    <glyph glyph-name="Nacute" unicode="&#x143;" horiz-adv-x="2488" 
d="M57 1524h879l717 -693v693h778v-1524h-793l-802 762v-762h-779v1524zM920 1589l118 336h725l-192 -336h-651z" />
    <glyph glyph-name="nacute" unicode="&#x144;" horiz-adv-x="2011" 
d="M49 0v1102h746v-207q23 23 46.5 43t81.5 57.5t120.5 63.5t159.5 46.5t202 20.5h10q96 0 177 -16.5t136 -42.5t98 -62.5t68 -72.5t41 -76t21.5 -70t5.5 -57v-729h-745v494q0 211 -211 211q-109 0 -160 -60t-51 -149v-496h-746zM705 1165l174 359h700l-244 -359h-630z" />
    <glyph glyph-name="uni0145" unicode="&#x145;" horiz-adv-x="2488" 
d="M57 1524h879l717 -693v693h778v-1524h-793l-802 762v-762h-779v1524zM1427 -655h-331q29 42 60 118t36 113h-281v361h662v-277q0 -66 -47.5 -159t-98.5 -156z" />
    <glyph glyph-name="uni0146" unicode="&#x146;" horiz-adv-x="2011" 
d="M49 0v1102h746v-207q23 23 46.5 43t81.5 57.5t120.5 63.5t159.5 46.5t202 20.5h10q96 0 177 -16.5t136 -42.5t98 -62.5t68 -72.5t41 -76t21.5 -70t5.5 -57v-729h-745v494q0 211 -211 211q-109 0 -160 -60t-51 -149v-496h-746zM1198 -655h-332q29 42 60.5 118t36.5 113
h-281v361h661v-277q0 -66 -47 -159t-98 -156z" />
    <glyph glyph-name="Ncaron" unicode="&#x147;" horiz-adv-x="2488" 
d="M57 1524h879l717 -693v693h778v-1524h-793l-802 762v-762h-779v1524zM897 1589l-352 336h590l110 -117l113 117h584l-345 -336h-700z" />
    <glyph glyph-name="ncaron" unicode="&#x148;" horiz-adv-x="2011" 
d="M49 0v1102h746v-207q23 23 46.5 43t81.5 57.5t120.5 63.5t159.5 46.5t202 20.5h10q96 0 177 -16.5t136 -42.5t98 -62.5t68 -72.5t41 -76t21.5 -70t5.5 -57v-729h-745v494q0 211 -211 211q-109 0 -160 -60t-51 -149v-496h-746zM672 1165l-318 359h570l104 -144l107 144
h563l-320 -359h-706z" />
    <glyph glyph-name="napostrophe" unicode="&#x149;" horiz-adv-x="2664" 
d="M702 0v1102h746v-207q23 23 46.5 43t81.5 57.5t120.5 63.5t159.5 46.5t202 20.5h10q96 0 177 -16.5t136 -42.5t98 -62.5t68 -72.5t41 -76t21.5 -70t5.5 -57v-729h-745v494q0 211 -211 211q-109 0 -160 -60t-51 -149v-496h-746zM530 883h-352q80 155 96 250h-274v391h684
v-307q0 -80 -49.5 -175t-104.5 -159z" />
    <glyph glyph-name="Eng" unicode="&#x14a;" horiz-adv-x="2490" 
d="M2433 37q0 -105 -28 -188t-75.5 -133t-106 -75.5t-124.5 -25.5h-657v369h155q35 0 35 24q0 13 -8.5 23.5t-42.5 42.5l-745 688v-762h-779v1524h879l717 -693v693h780v-1487z" />
    <glyph glyph-name="eng" unicode="&#x14b;" horiz-adv-x="2011" 
d="M1962 729v-790q0 -94 -22.5 -162t-61 -104t-80.5 -52t-90 -16h-657v385h100q39 0 52.5 14.5t13.5 56.5v433q0 211 -211 211q-109 0 -160 -60t-51 -149v-496h-746v1102h746v-207q23 23 46.5 43t81.5 57.5t120.5 63.5t159.5 46.5t202 20.5h10q96 0 177 -16.5t136 -42.5
t98 -62.5t68 -72.5t41 -76t21.5 -70t5.5 -57z" />
    <glyph glyph-name="Omacron" unicode="&#x14c;" horiz-adv-x="2523" 
d="M1210 1554h103q214 0 389.5 -25.5t296.5 -68t212.5 -104.5t145 -126.5t87 -143t44.5 -146.5t11 -143v-62q0 -74 -11.5 -141.5t-44.5 -146.5t-86.5 -145t-145.5 -129.5t-213 -107t-296.5 -70t-388.5 -26.5h-103q-213 0 -388 26.5t-296 70t-213 107t-145.5 129.5t-86.5 145
t-44.5 146.5t-11.5 141.5v62q0 75 11 143t44.5 146.5t87 143t145 126.5t212.5 104.5t296 68t389 25.5zM1696 784q0 42 -13 81t-45 76.5t-80 65.5t-124.5 45t-173.5 17q-121 0 -209.5 -25t-135.5 -68t-68.5 -90.5t-21.5 -101.5v-24q0 -43 13.5 -84t45.5 -81t80.5 -69.5
t124.5 -48t171 -18.5q96 0 172.5 18t125 47t80.5 68.5t45 80t13 83.5v28zM725 1620v291h1073v-291h-1073z" />
    <glyph glyph-name="omacron" unicode="&#x14d;" horiz-adv-x="2045" 
d="M940 -31q-174 0 -315 22t-235 56.5t-164.5 85t-108.5 100.5t-61 110t-29.5 105t-6.5 95v28q0 49 6.5 93t29.5 103t61.5 107.5t108.5 98t164 83.5t234.5 55.5t313.5 21.5h172q177 0 319.5 -21.5t236 -55t163 -83.5t106 -97.5t58 -107t27 -102.5t5.5 -93v-32q0 -38 -3 -72
t-14.5 -80t-30.5 -85t-54 -83t-82 -79t-117.5 -68.5t-157 -55.5t-204.5 -35.5t-256 -13.5h-166zM1026 315q71 0 122 24.5t76 64.5t35.5 79.5t10.5 81.5q0 29 -5.5 57t-22 59t-42.5 54t-71 38t-103 15h-6q-58 0 -102.5 -15t-70.5 -38t-42.5 -54t-22.5 -59t-6 -57
q0 -34 5.5 -65t21.5 -66t42 -60.5t71 -42t104 -16.5h6zM504 1196v291h1042v-291h-1042z" />
    <glyph glyph-name="Obreve" unicode="&#x14e;" horiz-adv-x="2523" 
d="M1210 1554h103q214 0 389.5 -25.5t296.5 -68t212.5 -104.5t145 -126.5t87 -143t44.5 -146.5t11 -143v-62q0 -74 -11.5 -141.5t-44.5 -146.5t-86.5 -145t-145.5 -129.5t-213 -107t-296.5 -70t-388.5 -26.5h-103q-213 0 -388 26.5t-296 70t-213 107t-145.5 129.5t-86.5 145
t-44.5 146.5t-11.5 141.5v62q0 75 11 143t44.5 146.5t87 143t145 126.5t212.5 104.5t296 68t389 25.5zM1696 784q0 42 -13 81t-45 76.5t-80 65.5t-124.5 45t-173.5 17q-121 0 -209.5 -25t-135.5 -68t-68.5 -90.5t-21.5 -101.5v-24q0 -43 13.5 -84t45.5 -81t80.5 -69.5
t124.5 -48t171 -18.5q96 0 172.5 18t125 47t80.5 68.5t45 80t13 83.5v28zM1214 1597q-127 0 -222.5 28.5t-147 69t-83 95.5t-40 97.5t-8.5 86.5v4h422q0 -11 5 -25.5t17 -33.5t40.5 -32t68.5 -13h4q39 0 67 13t39.5 32t16 33.5t4.5 25.5h415v-4q0 -41 -11.5 -86t-45 -98.5
t-85.5 -95t-143 -69.5t-208 -28h-105z" />
    <glyph glyph-name="obreve" unicode="&#x14f;" horiz-adv-x="2045" 
d="M969 1174q-120 0 -212 26t-143.5 64t-84 88t-42.5 90t-10 78v4h416q1 -10 7 -21.5t19 -26.5t40.5 -24.5t64.5 -9.5h4q36 0 62.5 9.5t39 24.5t18 26t7.5 22h412v-4q0 -36 -13 -78t-48.5 -90.5t-88 -87t-140.5 -64.5t-198 -26h-110zM940 -31q-174 0 -315 22t-235 56.5
t-164.5 85t-108.5 100.5t-61 110t-29.5 105t-6.5 95v28q0 49 6.5 93t29.5 103t61.5 107.5t108.5 98t164 83.5t234.5 55.5t313.5 21.5h172q177 0 319.5 -21.5t236 -55t163 -83.5t106 -97.5t58 -107t27 -102.5t5.5 -93v-32q0 -38 -3 -72t-14.5 -80t-30.5 -85t-54 -83t-82 -79
t-117.5 -68.5t-157 -55.5t-204.5 -35.5t-256 -13.5h-166zM1026 315q71 0 122 24.5t76 64.5t35.5 79.5t10.5 81.5q0 29 -5.5 57t-22 59t-42.5 54t-71 38t-103 15h-6q-58 0 -102.5 -15t-70.5 -38t-42.5 -54t-22.5 -59t-6 -57q0 -34 5.5 -65t21.5 -66t42 -60.5t71 -42
t104 -16.5h6z" />
    <glyph glyph-name="Ohungarumlaut" unicode="&#x150;" horiz-adv-x="2523" 
d="M1319 1604l113 321h604l-123 -321h-594zM647 1604l101 321h604l-113 -321h-592zM1210 1554h103q214 0 389.5 -25.5t296.5 -68t212.5 -104.5t145 -126.5t87 -143t44.5 -146.5t11 -143v-62q0 -74 -11.5 -141.5t-44.5 -146.5t-86.5 -145t-145.5 -129.5t-213 -107t-296.5 -70
t-388.5 -26.5h-103q-213 0 -388 26.5t-296 70t-213 107t-145.5 129.5t-86.5 145t-44.5 146.5t-11.5 141.5v62q0 75 11 143t44.5 146.5t87 143t145 126.5t212.5 104.5t296 68t389 25.5zM1696 784q0 42 -13 81t-45 76.5t-80 65.5t-124.5 45t-173.5 17q-121 0 -209.5 -25
t-135.5 -68t-68.5 -90.5t-21.5 -101.5v-24q0 -43 13.5 -84t45.5 -81t80.5 -69.5t124.5 -48t171 -18.5q96 0 172.5 18t125 47t80.5 68.5t45 80t13 83.5v28z" />
    <glyph glyph-name="ohungarumlaut" unicode="&#x151;" horiz-adv-x="2045" 
d="M1081 1180l133 344h584l-141 -344h-576zM432 1180l121 344h582l-129 -344h-574zM940 -31q-174 0 -315 22t-235 56.5t-164.5 85t-108.5 100.5t-61 110t-29.5 105t-6.5 95v28q0 49 6.5 93t29.5 103t61.5 107.5t108.5 98t164 83.5t234.5 55.5t313.5 21.5h172
q177 0 319.5 -21.5t236 -55t163 -83.5t106 -97.5t58 -107t27 -102.5t5.5 -93v-32q0 -38 -3 -72t-14.5 -80t-30.5 -85t-54 -83t-82 -79t-117.5 -68.5t-157 -55.5t-204.5 -35.5t-256 -13.5h-166zM1026 315q71 0 122 24.5t76 64.5t35.5 79.5t10.5 81.5q0 29 -5.5 57t-22 59
t-42.5 54t-71 38t-103 15h-6q-58 0 -102.5 -15t-70.5 -38t-42.5 -54t-22.5 -59t-6 -57q0 -34 5.5 -65t21.5 -66t42 -60.5t71 -42t104 -16.5h6z" />
    <glyph glyph-name="OE" unicode="&#x152;" horiz-adv-x="3489" 
d="M1245 1069q-118 0 -204 -25.5t-131 -68.5t-65 -90.5t-20 -100.5v-24q0 -43 12.5 -83.5t43.5 -80.5t77.5 -70t120.5 -48.5t166 -18.5q93 0 167 18t120.5 47.5t77 69t43 79.5t12.5 83v28q0 53 -21 100.5t-66.5 90.5t-131 68.5t-201.5 25.5zM1804 0v125q-220 -152 -669 -152
h-66q-184 0 -336.5 26t-258.5 69.5t-187.5 106t-130 128t-79 143.5t-41.5 145.5t-11 139.5v62q0 73 10.5 140t41 144.5t78.5 142.5t129.5 126t187.5 104t259 68.5t338 25.5h66q465 0 669 -139v119h1639v-426h-1010v-119h997v-418h-997v-131h1018v-430h-1647z" />
    <glyph glyph-name="oe" unicode="&#x153;" horiz-adv-x="3201" 
d="M2449 711q-10 58 -58.5 90.5t-162.5 32.5q-81 0 -131 -19t-67 -43.5t-23 -60.5h442zM1020 315h6q71 0 122 24.5t76 64.5t35.5 79.5t10.5 81.5q0 29 -5.5 57t-22 59t-42.5 54t-71 38t-103 15h-6q-58 0 -102.5 -15t-70.5 -38t-42.5 -54t-22.5 -59t-6 -57q0 -34 5.5 -65
t21.5 -66t42 -60.5t71 -42t104 -16.5zM1645 104q-203 -135 -582 -135h-145q-169 0 -306.5 22t-229 56.5t-160.5 85t-106.5 100.5t-60 110t-29 105t-6.5 95v28q0 49 6.5 93t29 103t60 107.5t106 98t160 83.5t228.5 55.5t305 21.5h152q370 0 580 -132q200 125 573 125h68
q137 0 252 -13t200 -34t153.5 -54.5t114.5 -68t79.5 -80.5t52 -87t29 -92.5t13.5 -90.5t3 -88v-29h-1180q3 -34 14 -63t34.5 -57t69 -44t109.5 -16q55 0 97 10.5t63.5 23t35.5 31.5t17.5 28t5.5 20h734v-4q0 -39 -6.5 -74.5t-29.5 -82t-60.5 -85t-106.5 -77.5t-160.5 -65.5
t-228.5 -43.5t-305 -17h-70q-371 0 -573 131z" />
    <glyph glyph-name="Racute" unicode="&#x154;" horiz-adv-x="2383" 
d="M836 915h567q141 0 141 97q0 96 -141 96h-567v-193zM836 487v-487h-779v1524h1684q104 0 189 -10.5t163.5 -38t131.5 -70t84.5 -110.5t31.5 -156v-19q0 -66 -23.5 -121.5t-60 -93t-85 -67t-93 -45t-90.5 -25.5q179 -33 269.5 -132t90.5 -251v-231q0 -93 27 -142v-12h-801
q-10 10 -10 47v184q0 124 -69 190t-226 66h-434zM813 1589l119 336h725l-193 -336h-651z" />
    <glyph glyph-name="racute" unicode="&#x155;" horiz-adv-x="1822" 
d="M795 526v-526h-746v1102h742v-217q202 241 491 241h25q93 0 169 -19.5t126.5 -50t88.5 -74t58.5 -85.5t33 -91.5t16 -85t3.5 -71.5v-203h-733v111q0 71 -32 113.5t-99 42.5q-143 0 -143 -187zM602 1165l174 359h701l-244 -359h-631z" />
    <glyph glyph-name="uni0156" unicode="&#x156;" horiz-adv-x="2383" 
d="M836 915h567q141 0 141 97q0 96 -141 96h-567v-193zM836 487v-487h-779v1524h1684q104 0 189 -10.5t163.5 -38t131.5 -70t84.5 -110.5t31.5 -156v-19q0 -66 -23.5 -121.5t-60 -93t-85 -67t-93 -45t-90.5 -25.5q179 -33 269.5 -132t90.5 -251v-231q0 -93 27 -142v-12h-801
q-10 10 -10 47v184q0 124 -69 190t-226 66h-434zM1380 -655h-331q29 42 60 118t36 113h-281v361h662v-277q0 -66 -47.5 -159t-98.5 -156z" />
    <glyph glyph-name="uni0157" unicode="&#x157;" horiz-adv-x="1822" 
d="M795 526v-526h-746v1102h742v-217q202 241 491 241h25q93 0 169 -19.5t126.5 -50t88.5 -74t58.5 -85.5t33 -91.5t16 -85t3.5 -71.5v-203h-733v111q0 71 -32 113.5t-99 42.5q-143 0 -143 -187zM602 -655h-332q29 42 60.5 118t36.5 113h-281v361h662v-277q0 -66 -47.5 -159
t-98.5 -156z" />
    <glyph glyph-name="Rcaron" unicode="&#x158;" horiz-adv-x="2383" 
d="M836 915h567q141 0 141 97q0 96 -141 96h-567v-193zM836 487v-487h-779v1524h1684q104 0 189 -10.5t163.5 -38t131.5 -70t84.5 -110.5t31.5 -156v-19q0 -66 -23.5 -121.5t-60 -93t-85 -67t-93 -45t-90.5 -25.5q179 -33 269.5 -132t90.5 -251v-231q0 -93 27 -142v-12h-801
q-10 10 -10 47v184q0 124 -69 190t-226 66h-434zM786 1589l-352 336h590l111 -117l112 117h584l-344 -336h-701z" />
    <glyph glyph-name="rcaron" unicode="&#x159;" horiz-adv-x="1822" 
d="M795 526v-526h-746v1102h742v-217q202 241 491 241h25q93 0 169 -19.5t126.5 -50t88.5 -74t58.5 -85.5t33 -91.5t16 -85t3.5 -71.5v-203h-733v111q0 71 -32 113.5t-99 42.5q-143 0 -143 -187zM557 1165l-317 359h569l104 -144l107 144h563l-319 -359h-707z" />
    <glyph glyph-name="Sacute" unicode="&#x15a;" horiz-adv-x="2326" 
d="M836 1604l114 321h725l-188 -321h-651zM1010 -31q-191 0 -346 19.5t-258 51t-180 78t-118.5 91.5t-66.5 101.5t-32 99.5t-7 92v16h911q1 -30 9 -54t31 -51.5t74.5 -43t127.5 -15.5q234 0 234 107v6q0 22 -8 37t-34.5 31.5t-86.5 26.5t-154 13l-322 11q-131 4 -239 20.5
t-185.5 41.5t-136.5 61t-95.5 75.5t-59.5 87.5t-32 95.5t-9 101.5v18q0 89 29.5 158.5t98.5 128t179 96.5t275.5 59t383.5 21h260q172 0 313 -13t244.5 -36t182 -57.5t129 -74t82.5 -89t44.5 -100t12.5 -109.5v-10h-893q-10 123 -233 123q-130 0 -176 -19t-46 -61v-4
q0 -45 62.5 -66.5t232.5 -25.5l308 -9q296 -8 472.5 -61t253 -151.5t76.5 -256.5v-28q0 -62 -12 -115t-43 -108.5t-81 -100t-131 -84.5t-187.5 -67t-255.5 -42.5t-330 -15.5h-268z" />
    <glyph glyph-name="sacute" unicode="&#x15b;" horiz-adv-x="1792" 
d="M571 1180l168 344h701l-238 -344h-631zM791 -31q-145 0 -264 14t-199.5 37.5t-141.5 56.5t-95 67t-55 74.5t-27.5 73t-6.5 68.5v17h752q2 -44 30.5 -75.5t92.5 -31.5h4q116 0 116 72v2q0 38 -31.5 55.5t-119.5 20.5l-301 12q-126 6 -220.5 28.5t-151.5 54t-92.5 77
t-48 90.5t-12.5 100v15q0 64 21 113.5t74 92.5t139.5 70.5t222 43.5t316.5 16h159q190 0 331.5 -17.5t227 -46.5t137.5 -73t70.5 -90t18.5 -105v-19h-731q-1 15 -4.5 25.5t-14.5 25.5t-37.5 23t-66.5 8h-4q-73 0 -98 -14t-25 -45q0 -30 32.5 -47t120.5 -21l301 -12
q140 -6 241 -25t165 -47.5t101 -73t51 -95t14 -119.5v-19q0 -46 -8 -83.5t-31 -77.5t-61 -70.5t-101 -59t-148 -46.5t-206 -29t-271 -11h-165z" />
    <glyph glyph-name="Scircumflex" unicode="&#x15c;" horiz-adv-x="2326" 
d="M1524 1925l336 -323h-592l-111 118l-113 -118h-585l332 323h733zM1010 -31q-191 0 -346 19.5t-258 51t-180 78t-118.5 91.5t-66.5 101.5t-32 99.5t-7 92v16h911q1 -30 9 -54t31 -51.5t74.5 -43t127.5 -15.5q234 0 234 107v6q0 22 -8 37t-34.5 31.5t-86.5 26.5t-154 13
l-322 11q-131 4 -239 20.5t-185.5 41.5t-136.5 61t-95.5 75.5t-59.5 87.5t-32 95.5t-9 101.5v18q0 89 29.5 158.5t98.5 128t179 96.5t275.5 59t383.5 21h260q172 0 313 -13t244.5 -36t182 -57.5t129 -74t82.5 -89t44.5 -100t12.5 -109.5v-10h-893q-10 123 -233 123
q-130 0 -176 -19t-46 -61v-4q0 -45 62.5 -66.5t232.5 -25.5l308 -9q296 -8 472.5 -61t253 -151.5t76.5 -256.5v-28q0 -62 -12 -115t-43 -108.5t-81 -100t-131 -84.5t-187.5 -67t-255.5 -42.5t-330 -15.5h-268z" />
    <glyph glyph-name="scircumflex" unicode="&#x15d;" horiz-adv-x="1792" 
d="M1245 1524l318 -344h-570l-106 129l-105 -129h-563l320 344h706zM791 -31q-145 0 -264 14t-199.5 37.5t-141.5 56.5t-95 67t-55 74.5t-27.5 73t-6.5 68.5v17h752q2 -44 30.5 -75.5t92.5 -31.5h4q116 0 116 72v2q0 38 -31.5 55.5t-119.5 20.5l-301 12q-126 6 -220.5 28.5
t-151.5 54t-92.5 77t-48 90.5t-12.5 100v15q0 64 21 113.5t74 92.5t139.5 70.5t222 43.5t316.5 16h159q190 0 331.5 -17.5t227 -46.5t137.5 -73t70.5 -90t18.5 -105v-19h-731q-1 15 -4.5 25.5t-14.5 25.5t-37.5 23t-66.5 8h-4q-73 0 -98 -14t-25 -45q0 -30 32.5 -47
t120.5 -21l301 -12q140 -6 241 -25t165 -47.5t101 -73t51 -95t14 -119.5v-19q0 -46 -8 -83.5t-31 -77.5t-61 -70.5t-101 -59t-148 -46.5t-206 -29t-271 -11h-165z" />
    <glyph glyph-name="uni015E" unicode="&#x15e;" horiz-adv-x="2326" 
d="M737 -537v199h234q32 0 44.5 10.5t12.5 32.5q0 41 -57 41h-144v227q-156 8 -282.5 33t-211 57.5t-147.5 78t-97 88.5t-54.5 95t-26.5 92t-6 85v16h911q1 -30 9 -54t31 -51.5t74.5 -43t127.5 -15.5q234 0 234 107v6q0 22 -8 37t-34.5 31.5t-86.5 26.5t-154 13l-322 11
q-131 4 -239 20.5t-185.5 41.5t-136.5 61t-95.5 75.5t-59.5 87.5t-32 95.5t-9 101.5v18q0 89 29.5 158.5t98.5 128t179 96.5t275.5 59t383.5 21h260q172 0 313 -13t244.5 -36t182 -57.5t129 -74t82.5 -89t44.5 -100t12.5 -109.5v-10h-893q-10 123 -233 123q-130 0 -176 -19
t-46 -61v-4q0 -45 62.5 -66.5t232.5 -25.5l308 -9q296 -8 472.5 -61t253 -151.5t76.5 -256.5v-28q0 -62 -12 -115t-43 -108.5t-81 -100t-131 -84.5t-187.5 -67t-255.5 -42.5t-330 -15.5h-125v-63q131 0 218.5 -15.5t132.5 -46t62 -66.5t17 -87v-4q0 -41 -10.5 -72.5t-39 -61
t-75.5 -48.5t-124.5 -30.5t-182.5 -11.5h-414z" />
    <glyph glyph-name="uni015F" unicode="&#x15f;" horiz-adv-x="1792" 
d="M473 -537v199h234q32 0 44.5 10.5t12.5 32.5q0 41 -57 41h-144v234q-561 53 -561 380v17h752q2 -44 30.5 -75.5t92.5 -31.5h4q116 0 116 72v2q0 38 -31.5 55.5t-119.5 20.5l-301 12q-126 6 -220.5 28.5t-151.5 54t-92.5 77t-48 90.5t-12.5 100v15q0 64 21 113.5t74 92.5
t139.5 70.5t222 43.5t316.5 16h159q190 0 331.5 -17.5t227 -46.5t137.5 -73t70.5 -90t18.5 -105v-19h-731q-1 15 -4.5 25.5t-14.5 25.5t-37.5 23t-66.5 8h-4q-73 0 -98 -14t-25 -45q0 -30 32.5 -47t120.5 -21l301 -12q140 -6 241 -25t165 -47.5t101 -73t51 -95t14 -119.5
v-19q0 -46 -8 -83.5t-31 -77.5t-61 -70.5t-101 -59t-148 -46.5t-206 -29t-271 -11h-67v-63q131 0 218.5 -15.5t132.5 -46t62 -66.5t17 -87v-4q0 -41 -10.5 -72.5t-39 -61t-75.5 -48.5t-124.5 -30.5t-182.5 -11.5h-414z" />
    <glyph glyph-name="Scaron" unicode="&#x160;" horiz-adv-x="2326" 
d="M793 1604l-338 321h596l110 -117l113 117h590l-330 -321h-741zM1010 -31q-191 0 -346 19.5t-258 51t-180 78t-118.5 91.5t-66.5 101.5t-32 99.5t-7 92v16h911q1 -30 9 -54t31 -51.5t74.5 -43t127.5 -15.5q234 0 234 107v6q0 22 -8 37t-34.5 31.5t-86.5 26.5t-154 13
l-322 11q-131 4 -239 20.5t-185.5 41.5t-136.5 61t-95.5 75.5t-59.5 87.5t-32 95.5t-9 101.5v18q0 89 29.5 158.5t98.5 128t179 96.5t275.5 59t383.5 21h260q172 0 313 -13t244.5 -36t182 -57.5t129 -74t82.5 -89t44.5 -100t12.5 -109.5v-10h-893q-10 123 -233 123
q-130 0 -176 -19t-46 -61v-4q0 -45 62.5 -66.5t232.5 -25.5l308 -9q296 -8 472.5 -61t253 -151.5t76.5 -256.5v-28q0 -62 -12 -115t-43 -108.5t-81 -100t-131 -84.5t-187.5 -67t-255.5 -42.5t-330 -15.5h-268z" />
    <glyph glyph-name="scaron" unicode="&#x161;" horiz-adv-x="1792" 
d="M516 1180l-305 344h580l104 -144l106 144h574l-307 -344h-752zM791 -31q-145 0 -264 14t-199.5 37.5t-141.5 56.5t-95 67t-55 74.5t-27.5 73t-6.5 68.5v17h752q2 -44 30.5 -75.5t92.5 -31.5h4q116 0 116 72v2q0 38 -31.5 55.5t-119.5 20.5l-301 12q-126 6 -220.5 28.5
t-151.5 54t-92.5 77t-48 90.5t-12.5 100v15q0 64 21 113.5t74 92.5t139.5 70.5t222 43.5t316.5 16h159q190 0 331.5 -17.5t227 -46.5t137.5 -73t70.5 -90t18.5 -105v-19h-731q-1 15 -4.5 25.5t-14.5 25.5t-37.5 23t-66.5 8h-4q-73 0 -98 -14t-25 -45q0 -30 32.5 -47
t120.5 -21l301 -12q140 -6 241 -25t165 -47.5t101 -73t51 -95t14 -119.5v-19q0 -46 -8 -83.5t-31 -77.5t-61 -70.5t-101 -59t-148 -46.5t-206 -29t-271 -11h-165z" />
    <glyph glyph-name="Tcommaaccent" unicode="&#x162;" horiz-adv-x="2162" 
d="M692 0v999h-657v525h2093v-525h-658v-999h-778zM1266 -655h-332q29 42 60 118t36 113h-280v361h661v-277q0 -66 -47 -159t-98 -156z" />
    <glyph glyph-name="tcommaaccent" unicode="&#x163;" horiz-adv-x="1196" 
d="M1165 0h-616q-69 0 -124.5 15t-103 49.5t-74 98t-26.5 152.5v381h-205v406h205v321h746v-321h198v-406h-198v-182q0 -63 17 -81.5t79 -18.5h102v-414zM930 -655h-332q29 42 60 118t36 113h-280v361h661v-277q0 -66 -47 -159t-98 -156z" />
    <glyph glyph-name="Tcaron" unicode="&#x164;" horiz-adv-x="2162" 
d="M692 0v999h-657v525h2093v-525h-658v-999h-778zM735 1589l-352 336h590l110 -117l113 117h584l-344 -336h-701z" />
    <glyph glyph-name="tcaron" unicode="&#x165;" horiz-adv-x="1196" 
d="M1165 0h-616q-69 0 -124.5 15t-103 49.5t-74 98t-26.5 152.5v381h-205v406h205v321h746v-321h198v-406h-198v-182q0 -63 17 -81.5t79 -18.5h102v-414zM1010 1163l20 361h526l-51 -361h-495z" />
    <glyph glyph-name="Tbar" unicode="&#x166;" horiz-adv-x="2162" 
d="M692 0v506h-444v321h444v172h-657v525h2093v-525h-658v-172h445v-321h-445v-506h-778z" />
    <glyph glyph-name="tbar" unicode="&#x167;" horiz-adv-x="1196" 
d="M1165 379v-379h-616q-69 0 -124.5 15t-103 49.5t-74 98t-26.5 152.5v150h-205v213h205v74h-205v350h205v321h746v-321h198v-350h-198v-74h198v-213h-198q2 -53 20 -69.5t76 -16.5h102z" />
    <glyph glyph-name="Utilde" unicode="&#x168;" horiz-adv-x="2449" 
d="M43 817v707h782v-627q0 -55 9.5 -101.5t37 -94t70.5 -80.5t115 -53.5t166 -20.5h4q92 0 163.5 20.5t114.5 54t70.5 80.5t38 94t10.5 101v627h782v-707q0 -75 -9 -143.5t-38.5 -156.5t-77.5 -161t-135 -146t-202.5 -123.5t-287.5 -82t-382 -31.5h-103q-165 0 -306 19
t-246 52t-191.5 80.5t-145 99.5t-103 116t-70 122.5t-41 125.5t-20.5 119.5t-5 109.5zM1503 1587q-25 0 -44.5 1t-42.5 4.5t-35 5t-40.5 9.5t-38 10.5t-49.5 15t-55 16.5q-91 30 -125 30q-31 0 -31 -43v-49h-385v185q0 202 279 202h4q74 0 128.5 -11.5t186.5 -49.5
q89 -27 113 -27q29 0 29 33v55h391v-157q0 -32 -4.5 -58.5t-21 -60t-45 -56.5t-82 -39t-126.5 -16h-6z" />
    <glyph glyph-name="utilde" unicode="&#x169;" horiz-adv-x="1996" 
d="M1948 1102v-1102h-746v207q-21 -23 -46 -46t-80 -59t-117.5 -62t-158.5 -45.5t-202 -19.5h-12q-96 0 -176 16.5t-134 43.5t-96 63.5t-66 74t-39.5 78.5t-20.5 73t-5 61v717h746v-494q0 -211 202 -211q106 0 155.5 62t49.5 147v496h746zM1272 1163q-52 0 -97.5 7.5t-79 17
t-120.5 37.5q-88 28 -113 28q-33 0 -33 -43v-47h-387v180q0 203 279 203h4q74 0 132.5 -12t174.5 -49q86 -27 105 -27q13 0 20.5 9.5t7.5 23.5v55h389v-153q0 -32 -4 -58t-20.5 -60t-44.5 -57t-82 -39t-127 -16h-4z" />
    <glyph glyph-name="Umacron" unicode="&#x16a;" horiz-adv-x="2449" 
d="M43 817v707h782v-627q0 -55 9.5 -101.5t37 -94t70.5 -80.5t115 -53.5t166 -20.5h4q92 0 163.5 20.5t114.5 54t70.5 80.5t38 94t10.5 101v627h782v-707q0 -75 -9 -143.5t-38.5 -156.5t-77.5 -161t-135 -146t-202.5 -123.5t-287.5 -82t-382 -31.5h-103q-165 0 -306 19
t-246 52t-191.5 80.5t-145 99.5t-103 116t-70 122.5t-41 125.5t-20.5 119.5t-5 109.5zM688 1606v290h1073v-290h-1073z" />
    <glyph glyph-name="umacron" unicode="&#x16b;" horiz-adv-x="1996" 
d="M1948 1102v-1102h-746v207q-21 -23 -46 -46t-80 -59t-117.5 -62t-158.5 -45.5t-202 -19.5h-12q-96 0 -176 16.5t-134 43.5t-96 63.5t-66 74t-39.5 78.5t-20.5 73t-5 61v717h746v-494q0 -211 202 -211q106 0 155.5 62t49.5 147v496h746zM477 1182v291h1043v-291h-1043z
" />
    <glyph glyph-name="Ubreve" unicode="&#x16c;" horiz-adv-x="2449" 
d="M43 817v707h782v-627q0 -55 9.5 -101.5t37 -94t70.5 -80.5t115 -53.5t166 -20.5h4q92 0 163.5 20.5t114.5 54t70.5 80.5t38 94t10.5 101v627h782v-707q0 -75 -9 -143.5t-38.5 -156.5t-77.5 -161t-135 -146t-202.5 -123.5t-287.5 -82t-382 -31.5h-103q-165 0 -306 19
t-246 52t-191.5 80.5t-145 99.5t-103 116t-70 122.5t-41 125.5t-20.5 119.5t-5 109.5zM1178 1583q-92 0 -168 15t-127 38.5t-89.5 57t-60.5 67t-35.5 72t-17.5 68t-4 59.5v4h422q0 -11 5 -25.5t17 -33.5t40.5 -32t68.5 -13h4q39 0 67 13t39.5 32t16 33.5t4.5 25.5h416v-4
q0 -41 -11.5 -86t-45 -98.5t-85.5 -95t-143.5 -69.5t-208.5 -28h-104z" />
    <glyph glyph-name="ubreve" unicode="&#x16d;" horiz-adv-x="1996" 
d="M1948 1102v-1102h-746v207q-21 -23 -46 -46t-80 -59t-117.5 -62t-158.5 -45.5t-202 -19.5h-12q-96 0 -176 16.5t-134 43.5t-96 63.5t-66 74t-39.5 78.5t-20.5 73t-5 61v717h746v-494q0 -211 202 -211q106 0 155.5 62t49.5 147v496h746zM1542 1520q0 -40 -12.5 -84
t-47 -95t-86.5 -90t-140.5 -65.5t-200.5 -26.5h-111q-88 0 -161 14t-123 36.5t-88 54t-60 63.5t-36 68.5t-18.5 66t-4.5 58.5v4h413v-2q0 -12 5 -25.5t18 -29.5t41.5 -26.5t68.5 -10.5h5q39 0 66.5 10.5t40 26.5t17.5 29.5t5 25.5v2h409v-4z" />
    <glyph glyph-name="Uring" unicode="&#x16e;" horiz-adv-x="2449" 
d="M43 817v707h782v-627q0 -55 9.5 -101.5t37 -94t70.5 -80.5t115 -53.5t166 -20.5h4q92 0 163.5 20.5t114.5 54t70.5 80.5t38 94t10.5 101v627h782v-707q0 -75 -9 -143.5t-38.5 -156.5t-77.5 -161t-135 -146t-202.5 -123.5t-287.5 -82t-382 -31.5h-103q-165 0 -306 19
t-246 52t-191.5 80.5t-145 99.5t-103 116t-70 122.5t-41 125.5t-20.5 119.5t-5 109.5zM793 1810q0 252 436 252q126 0 214.5 -20t135 -56t66.5 -79t20 -97t-20 -96.5t-67 -78t-135 -55t-214 -19.5t-215 19.5t-135.5 55.5t-66 78t-19.5 96zM1077 1812q0 -88 152 -88
q151 0 151 88q0 86 -151 86q-152 0 -152 -86z" />
    <glyph glyph-name="uring" unicode="&#x16f;" horiz-adv-x="1996" 
d="M1948 1102v-1102h-746v207q-21 -23 -46 -46t-80 -59t-117.5 -62t-158.5 -45.5t-202 -19.5h-12q-96 0 -176 16.5t-134 43.5t-96 63.5t-66 74t-39.5 78.5t-20.5 73t-5 61v717h746v-494q0 -211 202 -211q106 0 155.5 62t49.5 147v496h746zM569 1407q0 252 432 252
q433 0 433 -252q0 -54 -20 -96.5t-66.5 -78.5t-134.5 -55.5t-212 -19.5q-125 0 -212.5 19.5t-134 56t-66 78.5t-19.5 96zM854 1409q0 -88 147 -88q148 0 148 88q0 86 -148 86q-147 0 -147 -86z" />
    <glyph glyph-name="Uhungarumlaut" unicode="&#x170;" horiz-adv-x="2449" 
d="M43 817v707h782v-627q0 -55 9.5 -101.5t37 -94t70.5 -80.5t115 -53.5t166 -20.5h4q92 0 163.5 20.5t114.5 54t70.5 80.5t38 94t10.5 101v627h782v-707q0 -75 -9 -143.5t-38.5 -156.5t-77.5 -161t-135 -146t-202.5 -123.5t-287.5 -82t-382 -31.5h-103q-165 0 -306 19
t-246 52t-191.5 80.5t-145 99.5t-103 116t-70 122.5t-41 125.5t-20.5 119.5t-5 109.5zM1282 1589l117 336h604l-127 -336h-594zM610 1589l105 336h604l-117 -336h-592z" />
    <glyph glyph-name="uhungarumlaut" unicode="&#x171;" horiz-adv-x="1996" 
d="M1948 1102v-1102h-746v207q-21 -23 -46 -46t-80 -59t-117.5 -62t-158.5 -45.5t-202 -19.5h-12q-96 0 -176 16.5t-134 43.5t-96 63.5t-66 74t-39.5 78.5t-20.5 73t-5 61v717h746v-494q0 -211 202 -211q106 0 155.5 62t49.5 147v496h746zM1032 1165l139 359h584l-147 -359
h-576zM383 1165l127 359h582l-136 -359h-573z" />
    <glyph glyph-name="Uogonek" unicode="&#x172;" horiz-adv-x="2449" 
d="M1864 -385h-430q-198 0 -282.5 38.5t-84.5 113.5v10q0 42 29 74t91.5 56.5t138 42t190.5 36.5q-140 -13 -242 -13h-103q-165 0 -306 19t-246 52t-191.5 80.5t-145 99.5t-103 116t-70 122.5t-41 125.5t-20.5 119.5t-5 109.5v707h782v-627q0 -55 9.5 -101.5t37 -94
t70.5 -80.5t115 -53.5t166 -20.5h4q92 0 163.5 20.5t114.5 54t70.5 80.5t38 94t10.5 101v627h782v-707q0 -248 -112.5 -438.5t-374.5 -341.5q-130 -75 -158 -99q-32 -28 -32 -53v-2q0 -35 51 -35h84v-233z" />
    <glyph glyph-name="uogonek" unicode="&#x173;" horiz-adv-x="1996" 
d="M1157 -233v10q0 82 117.5 132.5t370.5 90.5h-443v207q-21 -23 -46 -46t-80 -59t-117.5 -62t-158.5 -45.5t-202 -19.5h-12q-96 0 -176 16.5t-134 43.5t-96 63.5t-66 74t-39.5 78.5t-20.5 73t-5 61v717h746v-494q0 -211 202 -211q106 0 155.5 62t49.5 147v496h746v-1102
q-63 -34 -96 -61t-33 -54v-2q0 -35 51 -35h78v-233h-424q-198 0 -282.5 38.5t-84.5 113.5z" />
    <glyph glyph-name="Wcircumflex" unicode="&#x174;" horiz-adv-x="3571" 
d="M1554 0h-1054l-533 1524h893l256 -899l240 899h932l235 -916l242 916h839l-546 -1524h-1043l-227 846zM2152 1925l351 -338h-590l-111 119l-112 -119h-584l346 338h700z" />
    <glyph glyph-name="wcircumflex" unicode="&#x175;" horiz-adv-x="2785" 
d="M1290 0h-923l-394 1102h777l149 -658l141 658h752l137 -651l146 651h737l-377 -1102h-891l-127 528zM1761 1524l318 -359h-570l-106 144l-105 -144h-563l320 359h706z" />
    <glyph glyph-name="Ycircumflex" unicode="&#x176;" horiz-adv-x="2428" 
d="M829 0v541l-870 983h897l391 -459l398 459h825l-862 -994v-530h-779zM1599 1925l351 -338h-590l-111 119l-112 -119h-584l346 338h700z" />
    <glyph glyph-name="ycircumflex" unicode="&#x177;" horiz-adv-x="1853" 
d="M236 -385v362h235q49 0 49 37v2q0 25 -39 101l-510 985h791l215 -625l172 625h733l-440 -1096q-84 -207 -194.5 -299t-266.5 -92h-745zM1309 1524l317 -359h-569l-107 144l-104 -144h-563l319 359h707z" />
    <glyph glyph-name="Ydieresis" unicode="&#x178;" horiz-adv-x="2428" 
d="M829 0v541l-870 983h897l391 -459l398 459h825l-862 -994v-530h-779zM1874 1925v-336h-596v336h596zM1196 1925v-336h-594v336h594z" />
    <glyph glyph-name="Zacute" unicode="&#x179;" horiz-adv-x="2103" 
d="M39 1524h2025v-367l-907 -637h914v-520h-2038v371l882 659h-876v494zM725 1589l119 336h725l-193 -336h-651z" />
    <glyph glyph-name="zacute" unicode="&#x17a;" horiz-adv-x="1638" 
d="M1608 0h-1577v362l688 361h-690v379h1579v-363l-672 -338h672v-401zM498 1165l174 359h700l-244 -359h-630z" />
    <glyph glyph-name="Zdotaccent" unicode="&#x17b;" horiz-adv-x="2103" 
d="M39 1524h2025v-367l-907 -637h914v-520h-2038v371l882 659h-876v494zM1423 1948v-359h-745v359h745z" />
    <glyph glyph-name="zdotaccent" unicode="&#x17c;" horiz-adv-x="1638" 
d="M1608 0h-1577v362l688 361h-690v379h1579v-363l-672 -338h672v-401zM1194 1524v-359h-745v359h745z" />
    <glyph glyph-name="Zcaron" unicode="&#x17d;" horiz-adv-x="2103" 
d="M39 1524h2025v-367l-907 -637h914v-520h-2038v371l882 659h-876v494zM705 1589l-353 336h590l111 -117l112 117h584l-344 -336h-700z" />
    <glyph glyph-name="zcaron" unicode="&#x17e;" horiz-adv-x="1638" 
d="M1608 0h-1577v362l688 361h-690v379h1579v-363l-672 -338h672v-401zM473 1165l-317 359h569l104 -144l107 144h563l-319 -359h-707z" />
    <glyph glyph-name="uni0192" unicode="&#x192;" horiz-adv-x="1239" 
d="M1204 621h-229l-43 -1016h-760l43 1016h-190v407h208l7 139q9 181 120 269t359 88h485v-340h-145q-34 0 -47 -13.5t-15 -46.5l-4 -96h211v-407z" />
    <glyph glyph-name="Aringacute" unicode="&#x1fa;" horiz-adv-x="2502" 
d="M799 1831q0 252 436 252q126 0 214.5 -20t135 -56t66.5 -79t20 -97q0 -43 -11.5 -78t-42 -68t-78.5 -55t-125.5 -35.5t-178.5 -13.5q-102 0 -179.5 13.5t-125.5 36t-78 55.5t-41.5 68t-11.5 77zM1083 1833q0 -88 152 -88q151 0 151 88q0 86 -151 86q-152 0 -152 -86z
M926 2120l174 358h700l-244 -358h-630zM1393 633l-187 422l-182 -422h369zM1671 0l-80 182h-762l-79 -182h-787l719 1524h1094l764 -1524h-869z" />
    <glyph glyph-name="aringacute" unicode="&#x1fb;" horiz-adv-x="1898" 
d="M606 1706l174 358h701l-244 -358h-631zM481 1417q0 252 432 252q433 0 433 -252q0 -54 -20 -96.5t-66.5 -78.5t-134.5 -55.5t-212 -19.5q-125 0 -212.5 19.5t-134 56t-66 78.5t-19.5 96zM766 1419q0 -88 147 -88q148 0 148 88q0 86 -148 86q-147 0 -147 -86zM1057 440v74
l-238 -63q-40 -11 -60 -29t-20 -49v-2q0 -36 29 -63t94 -27q92 0 143.5 45.5t51.5 113.5zM1063 139q-25 -24 -64 -47.5t-102.5 -50.5t-159 -44t-205.5 -17h-12q-107 0 -193.5 20t-143.5 53t-95.5 77.5t-55 93t-16.5 100.5v41q0 60 19.5 108t64.5 89t128 67.5t202 36.5
l580 47q28 3 38.5 14t10.5 31v2q0 69 -152 69h-4q-46 0 -79.5 -7.5t-49.5 -16t-25.5 -23.5t-11 -23t-2.5 -20h-692v25q0 39 4.5 68.5t23 69.5t50.5 69.5t92 60.5t142.5 51t206.5 32.5t280 12.5h116q163 0 294 -13.5t217 -34t149.5 -51.5t97 -61t53 -68t24.5 -65.5t5 -60.5
v-377q0 -35 29 -35h63v-362h-641q-162 0 -186 139z" />
    <glyph glyph-name="AEacute" unicode="&#x1fc;" horiz-adv-x="3260" 
d="M1438 635v491l-310 -491h310zM1438 0v184h-592l-117 -184h-770l999 1524h2255v-426h-1009v-119h997v-418h-997v-131h1018v-430h-1784zM1743 1589l119 336h725l-193 -336h-651z" />
    <glyph glyph-name="aeacute" unicode="&#x1fd;" horiz-adv-x="2990" 
d="M2017 834q-120 0 -168 -34t-55 -89h442q-10 59 -59.5 91t-159.5 32zM862 281q93 0 144 45.5t51 113.5v74l-238 -63q-80 -21 -80 -78v-2q0 -36 29 -63t94 -27zM2974 416q0 -40 -8 -77t-32.5 -83t-64.5 -84.5t-111 -76t-164.5 -64t-232 -42.5t-307.5 -16h-92
q-297 0 -474.5 53t-287.5 148q-38 -31 -66.5 -51t-86.5 -50t-119 -48t-156 -31.5t-205 -13.5h-14q-147 0 -255 29.5t-167.5 80t-87 109t-27.5 125.5v41q0 60 19.5 108t65 89t128.5 67.5t201 36.5l580 47q28 3 38.5 14t10.5 31v2q0 69 -152 69h-4q-46 0 -79.5 -7.5t-49.5 -16
t-25.5 -23.5t-11 -23t-2.5 -20h-690v25q0 35 3.5 61.5t21 66.5t48 70t90 63t141.5 54t208.5 35t284.5 14h108q349 0 506 -98q179 96 510 96h88q141 0 260 -13t206.5 -34.5t157.5 -54.5t117 -68t81 -81t52.5 -86.5t29 -92t13.5 -89.5t3 -87v-31h-1182q14 -180 227 -180
q191 0 221 110q1 2 1 3h733v-6zM1149 1165l174 359h700l-243 -359h-631z" />
    <glyph glyph-name="Oslashacute" unicode="&#x1fe;" horiz-adv-x="2553" 
d="M1225 -27q-370 0 -627 84l-78 -57h-540l290 215q-250 195 -250 516v62q0 74 11.5 141t45 145.5t87.5 143.5t147.5 127t216.5 105t301.5 69t395.5 26h98q351 0 608 -82l74 56h539l-283 -209q268 -198 268 -522v-62q0 -56 -6.5 -108t-25 -113t-47.5 -114t-78 -108.5
t-113.5 -101t-156 -86t-203 -68t-258.5 -43.5t-318 -16h-98zM936 1604l115 321h725l-189 -321h-651zM1274 440q126 0 220.5 26t148.5 71.5t80 100.5t26 120v28q0 69 -31 129l-624 -473q55 -2 180 -2zM801 758q0 -68 28 -129l611 461h-166q-127 0 -221.5 -24.5t-148 -67.5
t-78.5 -95.5t-25 -116.5v-28z" />
    <glyph glyph-name="oslashacute" unicode="&#x1ff;" horiz-adv-x="2045" 
d="M698 1180l164 344h701l-234 -344h-631zM926 -31q-299 0 -490 72l-67 -41h-387l235 154q-197 134 -197 389v28q0 37 3.5 71t16 78.5t32.5 83t56 81.5t84 78t119.5 67.5t158.5 54.5t204.5 35t255.5 13h172q289 0 480 -68l57 37h395l-217 -146q188 -145 188 -383v-32
q0 -52 -6 -96.5t-28.5 -105t-60 -109.5t-108.5 -99.5t-166 -84.5t-239.5 -55.5t-322.5 -21.5h-168zM752 565q0 -39 4 -59l415 272q-66 25 -147 25h-6q-63 0 -112 -16t-77.5 -40t-46.5 -57t-24 -63t-6 -62zM1028 301q63 0 112 18t77.5 45t46.5 63.5t24 69.5t6 68q0 27 -2 41
l-420 -276q60 -29 152 -29h4z" />
    <glyph glyph-name="uni0218" unicode="&#x218;" horiz-adv-x="2326" 
d="M1010 -31q-191 0 -346 19.5t-258 51t-180 78t-118.5 91.5t-66.5 101.5t-32 99.5t-7 92v16h911q1 -30 9 -54t31 -51.5t74.5 -43t127.5 -15.5q234 0 234 107v6q0 22 -8 37t-34.5 31.5t-86.5 26.5t-154 13l-322 11q-131 4 -239 20.5t-185.5 41.5t-136.5 61t-95.5 75.5
t-59.5 87.5t-32 95.5t-9 101.5v18q0 89 29.5 158.5t98.5 128t179 96.5t275.5 59t383.5 21h260q172 0 313 -13t244.5 -36t182 -57.5t129 -74t82.5 -89t44.5 -100t12.5 -109.5v-10h-893q-10 123 -233 123q-130 0 -176 -19t-46 -61v-4q0 -45 62.5 -66.5t232.5 -25.5l308 -9
q296 -8 472.5 -61t253 -151.5t76.5 -256.5v-28q0 -62 -12 -115t-43 -108.5t-81 -100t-131 -84.5t-187.5 -67t-255.5 -42.5t-330 -15.5h-268zM1343 -678h-331q29 42 60 118.5t36 113.5h-281v360h662v-276q0 -66 -47.5 -159.5t-98.5 -156.5z" />
    <glyph glyph-name="uni0219" unicode="&#x219;" horiz-adv-x="1792" 
d="M791 -31q-145 0 -264 14t-199.5 37.5t-141.5 56.5t-95 67t-55 74.5t-27.5 73t-6.5 68.5v17h752q2 -44 30.5 -75.5t92.5 -31.5h4q116 0 116 72v2q0 38 -31.5 55.5t-119.5 20.5l-301 12q-126 6 -220.5 28.5t-151.5 54t-92.5 77t-48 90.5t-12.5 100v15q0 64 21 113.5
t74 92.5t139.5 70.5t222 43.5t316.5 16h159q190 0 331.5 -17.5t227 -46.5t137.5 -73t70.5 -90t18.5 -105v-19h-731q-1 15 -4.5 25.5t-14.5 25.5t-37.5 23t-66.5 8h-4q-73 0 -98 -14t-25 -45q0 -30 32.5 -47t120.5 -21l301 -12q140 -6 241 -25t165 -47.5t101 -73t51 -95
t14 -119.5v-19q0 -46 -8 -83.5t-31 -77.5t-61 -70.5t-101 -59t-148 -46.5t-206 -29t-271 -11h-165zM1075 -670h-332q29 42 60.5 118.5t36.5 113.5h-281v360h662v-276q0 -66 -47.5 -159.5t-98.5 -156.5z" />
    <glyph glyph-name="uni021A" unicode="&#x21a;" horiz-adv-x="2162" 
d="M692 0v999h-657v525h2093v-525h-658v-999h-778zM1266 -655h-332q29 42 60 118t36 113h-280v361h661v-277q0 -66 -47 -159t-98 -156z" />
    <glyph glyph-name="uni021B" unicode="&#x21b;" horiz-adv-x="1196" 
d="M1165 0h-616q-69 0 -124.5 15t-103 49.5t-74 98t-26.5 152.5v381h-205v406h205v321h746v-321h198v-406h-198v-182q0 -63 17 -81.5t79 -18.5h102v-414zM930 -655h-332q29 42 60 118t36 113h-280v361h661v-277q0 -66 -47 -159t-98 -156z" />
    <glyph glyph-name="uni0237" unicode="&#x237;" horiz-adv-x="843" 
d="M-74 -41h56q43 0 55 13t12 59v1071h746v-1151q0 -96 -22.5 -164t-62 -104t-84.5 -52t-100 -16h-600v344z" />
    <glyph glyph-name="circumflex" unicode="&#x2c6;" 
d="M1071 1524l318 -359h-570l-106 144l-105 -144h-563l320 359h706z" />
    <glyph glyph-name="caron" unicode="&#x2c7;" 
d="M362 1165l-317 359h569l105 -144l106 144h564l-320 -359h-707z" />
    <glyph glyph-name="breve" unicode="&#x2d8;" 
d="M1262 1520q0 -40 -12.5 -84t-47 -95t-87 -90t-141 -65.5t-200.5 -26.5h-110q-88 0 -161 14t-123 36.5t-88.5 54t-60.5 63.5t-36 68.5t-18.5 66t-4.5 58.5v4h414v-2q0 -12 5 -25.5t18 -29.5t41.5 -26.5t68.5 -10.5h4q39 0 66.5 10.5t40 26.5t17.5 29.5t5 25.5v2h410v-4z
" />
    <glyph glyph-name="dotaccent" unicode="&#x2d9;" 
d="M1090 1524v-359h-746v359h746z" />
    <glyph glyph-name="ring" unicode="&#x2da;" 
d="M289 1407q0 252 432 252t432 -252q0 -43 -11.5 -78t-41.5 -68t-78 -55t-124.5 -35.5t-176.5 -13.5q-125 0 -212.5 19.5t-134 56t-66 78.5t-19.5 96zM573 1409q0 -88 148 -88q147 0 147 88q0 86 -147 86q-73 0 -110.5 -22.5t-37.5 -63.5z" />
    <glyph glyph-name="ogonek" unicode="&#x2db;" 
d="M324 -233v10q0 82 117 132.5t370 90.5h303q-63 -34 -96 -61t-33 -54v-2q0 -35 51 -35h78v-233h-424q-198 0 -282 38t-84 114z" />
    <glyph glyph-name="tilde" unicode="&#x2dc;" 
d="M989 1163q-52 0 -97.5 7.5t-79 17t-120.5 37.5q-88 28 -112 28q-33 0 -33 -43v-47h-387v180q0 203 278 203h4q74 0 133 -12t175 -49q86 -27 104 -27q13 0 21 9.5t8 23.5v55h389v-153q0 -32 -4 -58.5t-20.5 -60t-45 -56.5t-82.5 -39t-127 -16h-4z" />
    <glyph glyph-name="hungarumlaut" unicode="&#x2dd;" 
d="M680 1165l139 359h584l-148 -359h-575zM31 1165l127 359h581l-135 -359h-573z" />
    <glyph glyph-name="Wgrave" unicode="&#x1e80;" horiz-adv-x="3571" 
d="M1554 0h-1054l-533 1524h893l256 -899l240 899h932l235 -916l242 916h839l-546 -1524h-1043l-227 846zM2028 1925l120 -336h-651l-194 336h725z" />
    <glyph glyph-name="wgrave" unicode="&#x1e81;" horiz-adv-x="2785" 
d="M1290 0h-923l-394 1102h777l149 -658l141 658h752l137 -651l146 651h737l-377 -1102h-891l-127 528zM1722 1165h-630l-244 359h700z" />
    <glyph glyph-name="Wacute" unicode="&#x1e82;" horiz-adv-x="3571" 
d="M1554 0h-1054l-533 1524h893l256 -899l240 899h932l235 -916l242 916h839l-546 -1524h-1043l-227 846zM1481 1589l118 336h725l-192 -336h-651z" />
    <glyph glyph-name="wacute" unicode="&#x1e83;" horiz-adv-x="2785" 
d="M1290 0h-923l-394 1102h777l149 -658l141 658h752l137 -651l146 651h737l-377 -1102h-891l-127 528zM1106 1165l174 359h700l-243 -359h-631z" />
    <glyph glyph-name="Wdieresis" unicode="&#x1e84;" horiz-adv-x="3571" 
d="M1554 0h-1054l-533 1524h893l256 -899l240 899h932l235 -916l242 916h839l-546 -1524h-1043l-227 846zM2441 1925v-336h-596v336h596zM1763 1925v-336h-594v336h594z" />
    <glyph glyph-name="wdieresis" unicode="&#x1e85;" horiz-adv-x="2785" 
d="M1290 0h-923l-394 1102h777l149 -658l141 658h752l137 -651l146 651h737l-377 -1102h-891l-127 528zM2021 1524v-359h-575v359h575zM1368 1524v-359h-573v359h573z" />
    <glyph glyph-name="Ygrave" unicode="&#x1ef2;" horiz-adv-x="2428" 
d="M829 0v541l-870 983h897l391 -459l398 459h825l-862 -994v-530h-779zM1454 1925l121 -336h-651l-195 336h725z" />
    <glyph glyph-name="ygrave" unicode="&#x1ef3;" horiz-adv-x="1853" 
d="M236 -385v362h235q49 0 49 37v2q0 25 -39 101l-510 985h791l215 -625l172 625h733l-440 -1096q-84 -207 -194.5 -299t-266.5 -92h-745zM1270 1165h-631l-244 359h701z" />
    <glyph glyph-name="uni2009" unicode="&#x2009;" horiz-adv-x="10" 
 />
    <glyph glyph-name="endash" unicode="&#x2013;" horiz-adv-x="1984" 
d="M43 774h1899v-334h-1899v334z" />
    <glyph glyph-name="emdash" unicode="&#x2014;" horiz-adv-x="3059" 
d="M43 774h2974v-334h-2974v334z" />
    <glyph glyph-name="quoteleft" unicode="&#x2018;" horiz-adv-x="770" 
d="M197 1524h352q-80 -155 -96 -250h274v-391h-684v307q0 80 49.5 175t104.5 159z" />
    <glyph glyph-name="quoteright" unicode="&#x2019;" horiz-adv-x="770" 
d="M573 883h-352q80 155 96 250h-274v391h684v-307q0 -80 -49.5 -175t-104.5 -159z" />
    <glyph glyph-name="quotesinglbase" unicode="&#x201a;" horiz-adv-x="770" 
d="M573 -250h-352q80 155 96 250h-274v391h684v-307q0 -80 -49.5 -175t-104.5 -159z" />
    <glyph glyph-name="quotedblleft" unicode="&#x201c;" horiz-adv-x="1515" 
d="M197 1524h352q-80 -155 -96 -250h274v-391h-684v307q0 80 49.5 175t104.5 159zM942 1524h352q-80 -155 -96 -250h275v-391h-685v307q0 80 49.5 175t104.5 159z" />
    <glyph glyph-name="quotedblright" unicode="&#x201d;" horiz-adv-x="1515" 
d="M573 883h-352q80 155 96 250h-274v391h684v-307q0 -80 -49.5 -175t-104.5 -159zM1319 883h-352q80 155 96 250h-275v391h685v-307q0 -80 -49.5 -175t-104.5 -159z" />
    <glyph glyph-name="quotedblbase" unicode="&#x201e;" horiz-adv-x="1515" 
d="M1319 -250h-352q80 155 96 250h-275v391h685v-307q0 -80 -49.5 -175t-104.5 -159zM573 -250h-352q80 155 96 250h-274v391h684v-307q0 -80 -49.5 -175t-104.5 -159z" />
    <glyph glyph-name="dagger" unicode="&#x2020;" horiz-adv-x="1222" 
d="M268 0v791h-245v479h245v254h686v-254h246v-479h-246v-791h-686z" />
    <glyph glyph-name="daggerdbl" unicode="&#x2021;" horiz-adv-x="1214" 
d="M268 252h-245v426h245v178h-245v426h245v242h678v-242h246v-426h-246v-178h246v-426h-246v-252h-678v252z" />
    <glyph glyph-name="bullet" unicode="&#x2022;" horiz-adv-x="1095" 
d="M1075 674q0 -145 -69.5 -262.5t-190.5 -183.5t-268 -66q-146 0 -266.5 66t-190.5 183.5t-70 262.5q0 146 70 263.5t190.5 183t266.5 65.5q224 0 376 -145.5t152 -366.5z" />
    <glyph glyph-name="ellipsis" unicode="&#x2026;" horiz-adv-x="2463" 
d="M778 475v-475h-735v475h735zM1599 475v-475h-735v475h735zM2421 475v-475h-735v475h735z" />
    <glyph glyph-name="perthousand" unicode="&#x2030;" horiz-adv-x="4526" 
d="M686 659q-119 0 -217.5 15t-166.5 40t-119.5 61t-81.5 73.5t-49 82t-25.5 82.5t-6.5 79v26q0 59 13.5 111t57 111t114.5 101t195.5 69.5t289.5 27.5h33q165 0 289.5 -27.5t195.5 -69.5t114.5 -101t57 -111t13.5 -111v-26q0 -41 -6.5 -79t-25.5 -82.5t-49 -82t-81.5 -73.5
t-119.5 -61t-166.5 -40t-217.5 -15h-41zM2165 1524h508l-1727 -1524h-506zM707 963q85 0 125 39t40 98v6q0 58 -40 96.5t-125 38.5t-125.5 -38.5t-40.5 -96.5v-6q0 -58 40.5 -97.5t125.5 -39.5zM2431 -16h-41q-119 0 -217.5 15t-166.5 40t-119.5 60.5t-81.5 73t-49 82
t-25.5 82.5t-6.5 79v26q0 59 13.5 111t57 111t114.5 101t195.5 69.5t289.5 27.5h33q165 0 289.5 -27.5t195.5 -69.5t114.5 -101t57 -111t13.5 -111v-26q0 -41 -6.5 -79t-25.5 -82.5t-49 -82t-81.5 -73t-119.5 -60.5t-166.5 -40t-217.5 -15zM3840 -16h-41q-119 0 -217.5 15
t-166.5 40t-119.5 60.5t-81.5 73t-49 82t-25.5 82.5t-6.5 79v26q0 59 13.5 111t57 111t114.5 101t195.5 69.5t289.5 27.5h33q165 0 289.5 -27.5t195.5 -69.5t114.5 -101t57 -111t13.5 -111v-26q0 -41 -6.5 -79t-25.5 -82.5t-49 -82t-81.5 -73t-119.5 -60.5t-166.5 -40
t-217.5 -15zM2410 287q85 0 125.5 39.5t40.5 97.5v6q0 58 -40.5 96.5t-125.5 38.5t-125 -38.5t-40 -96.5v-6q0 -59 40 -98t125 -39zM3820 287q85 0 125 39t40 98v6q0 58 -40 96.5t-125 38.5t-125.5 -38.5t-40.5 -96.5v-6q0 -58 40.5 -97.5t125.5 -39.5z" />
    <glyph glyph-name="uni2032" unicode="&#x2032;" horiz-adv-x="708" 
d="M709 1524l-140 -596h-569l139 596h570z" />
    <glyph glyph-name="uni2033" unicode="&#x2033;" horiz-adv-x="1349" 
d="M709 1524l-142 -596h-567l141 596h568zM1208 928h-567l141 596h568z" />
    <glyph glyph-name="guilsinglleft" unicode="&#x2039;" horiz-adv-x="763" 
d="M752 219h-512l-234 367l234 358h510l-224 -358z" />
    <glyph glyph-name="guilsinglright" unicode="&#x203a;" horiz-adv-x="763" 
d="M524 219h-512l226 367l-224 358h510l234 -358z" />
    <glyph glyph-name="fraction" unicode="&#x2044;" horiz-adv-x="2306" 
d="M1817 1524h489l-1831 -1524h-475z" />
    <glyph glyph-name="Euro" unicode="&#x20ac;" horiz-adv-x="2492" 
d="M1305 -31q-164 0 -305 17.5t-246.5 48.5t-192 75.5t-146 94t-103.5 109.5t-69.5 118.5t-39.5 122.5h-187v182h166v74h-166v176h187q22 90 65.5 167.5t128 153t202.5 128.5t299 85.5t407 32.5h71q191 0 350.5 -23t270.5 -61t197 -91t137.5 -108.5t84 -118.5t44.5 -116.5
t12 -107.5v-31h-789q-3 15 -9 31.5t-20 41.5t-40.5 46.5t-63.5 41t-96 31t-131 11.5q-138 0 -219 -27t-119 -86h537v-176h-584v-74h584v-182h-539q78 -127 340 -127q89 0 157 18.5t104 43.5t59.5 59t30 55t9.5 41h789v-31q0 -51 -11.5 -104.5t-44.5 -118t-84 -122.5
t-137.5 -114t-197 -96.5t-270.5 -65t-351 -24.5h-71z" />
    <glyph glyph-name="trademark" unicode="&#x2122;" horiz-adv-x="2289" 
d="M915 1247h-217v-456h-469v456h-217v277h903v-277zM969 791v733h585l70 -310l72 310h555v-733h-400v376l-116 -376h-256l-115 376v-376h-395z" />
    <glyph glyph-name="onethird" unicode="&#x2153;" horiz-adv-x="2580" 
d="M1937 -25h-69q-111 0 -202 11t-152 28.5t-107 42.5t-71 50t-41 54.5t-20.5 52t-4.5 46.5v10h487q2 -11 10 -22t41 -24t86 -13q58 0 91 6.5t43 16t10 24.5v2q0 20 -17 28.5t-63 8.5h-193v192h187q69 0 69 31v2q0 13 -8 21.5t-37.5 15t-81.5 6.5q-123 0 -131 -49h-479v12
q0 13 2 26t13.5 39.5t32 48.5t62.5 48t99.5 44t149.5 30t206 12h82q154 0 265 -10.5t174 -26.5t99.5 -42t47 -49.5t10.5 -55.5v-10q0 -65 -53.5 -99t-130.5 -43q102 -11 166.5 -60t64.5 -134v-6q0 -43 -10.5 -75.5t-49 -70t-105 -62t-187 -41t-285.5 -16.5zM248 1159h-225
v234q83 1 141.5 12.5t91 32.5t48 39.5t28.5 46.5h452v-754h-536v389zM1780 1524h489l-1831 -1524h-475z" />
    <glyph glyph-name="twothirds" unicode="&#x2154;" horiz-adv-x="3028" 
d="M2386 -25h-70q-111 0 -202 11t-152 28.5t-107 42.5t-71 50t-41 54.5t-20.5 52t-4.5 46.5v10h488q2 -11 10 -22t41 -24t86 -13q58 0 90.5 6.5t42.5 16t10 24.5v2q0 20 -17 28.5t-63 8.5h-192v192h186q70 0 70 31v2q0 13 -8 21.5t-37.5 15t-81.5 6.5q-123 0 -131 -49h-479
v12q0 13 2 26t13.5 39.5t32 48.5t62.5 48t99.5 44t149.5 30t206 12h82q154 0 265 -10.5t174 -26.5t99.5 -42t47 -49.5t10.5 -55.5v-10q0 -65 -54 -99t-131 -43q102 -11 167 -60t65 -134v-6q0 -43 -10.5 -75.5t-49 -70t-105 -62t-187 -41t-285.5 -16.5zM1264 770h-1246v115
q0 40 3 65.5t15.5 59t36 56t66 49t104.5 46t152.5 39.5t208.5 37q92 13 121 25.5t29 33.5v2q0 20 -23 30.5t-88 10.5q-39 0 -65 -7t-37 -19.5t-14.5 -21.5t-4.5 -21h-493v6q0 25 2.5 44.5t15.5 49t36 52t67.5 47t106 40.5t156.5 26.5t214 10.5h37q183 0 307 -18.5t187 -53.5
t87.5 -75t24.5 -94v-11q0 -71 -44.5 -113.5t-172 -72.5t-363.5 -45q-242 -16 -274 -45h848v-248zM2232 1524h490l-1831 -1524h-475z" />
    <glyph glyph-name="oneeighth" unicode="&#x215b;" horiz-adv-x="2627" 
d="M2597 582v-13q0 -71 -64 -112.5t-159 -55.5q48 -7 88.5 -19t78 -32.5t59 -53t21.5 -73.5v-16q0 -24 -4.5 -43t-20 -43.5t-42 -43.5t-74.5 -38t-114 -31t-164 -20t-220 -8h-49q-122 0 -220 8t-164 20t-114 31t-74.5 38t-42 43.5t-20 43.5t-4.5 43v16q0 41 21.5 73.5
t58.5 53t78.5 32.5t89.5 19q-95 14 -159 55.5t-64 112.5v13q0 29 8 51.5t30 46t65.5 39.5t109.5 30t167.5 20.5t233.5 6.5h49q132 0 233.5 -6.5t167.5 -20.5t109.5 -30t66 -39.5t30.5 -46t8 -51.5zM2079 532v5q0 24 -25.5 36.5t-95.5 12.5t-95.5 -12.5t-25.5 -36.5v-5
q0 -53 121 -53t121 53zM2089 256v2q0 30 -28 45.5t-103 15.5q-76 0 -103.5 -15t-27.5 -46v-2q0 -31 27.5 -47t103.5 -16q74 0 102.5 16t28.5 47zM248 1159h-225v234q83 1 141.5 12.5t91 32.5t48 39.5t28.5 46.5h452v-754h-536v389zM1780 1524h489l-1831 -1524h-475z" />
    <glyph glyph-name="threeeighths" unicode="&#x215c;" horiz-adv-x="2998" 
d="M2968 582v-13q0 -71 -64 -112.5t-160 -55.5q48 -7 89 -19t78.5 -32.5t59 -53t21.5 -73.5v-16q0 -24 -4.5 -43t-20 -43.5t-42 -43.5t-74.5 -38t-114 -31t-164 -20t-220 -8h-49q-122 0 -220 8t-164 20t-114 31t-74.5 38t-42 43.5t-20 43.5t-4.5 43v16q0 41 21.5 73.5
t58.5 53t78.5 32.5t89.5 19q-95 14 -159 55.5t-64 112.5v13q0 29 8 51.5t30 46t65.5 39.5t109.5 30t167.5 20.5t233.5 6.5h49q132 0 233.5 -6.5t167.5 -20.5t109.5 -30t66 -39.5t30.5 -46t8 -51.5zM2449 532v5q0 24 -25 36.5t-95 12.5t-95.5 -12.5t-25.5 -36.5v-5
q0 -53 121 -53q69 0 94.5 14t25.5 39zM2460 256v2q0 30 -28 45.5t-103 15.5q-76 0 -103.5 -15t-27.5 -46v-2q0 -31 27.5 -47t103.5 -16q74 0 102.5 16t28.5 47zM2148 1524h490l-1831 -1524h-475zM674 748h-70q-111 0 -202 11t-152 28.5t-107 42.5t-71 50t-41 54t-20.5 51.5
t-4.5 46.5v10h488q2 -11 10 -22t41 -24t86 -13q58 0 90.5 6.5t42.5 16t10 24.5v2q0 20 -17 28.5t-63 8.5h-192v193h186q70 0 70 30v2q0 13 -8 21.5t-37.5 15t-81.5 6.5q-123 0 -131 -49h-480v12q0 13 2 26t13.5 39.5t32 48.5t63 48t100 44t149.5 30t206 12h82
q154 0 265 -10.5t174 -26.5t99.5 -42t47 -49.5t10.5 -55.5v-10q0 -65 -54 -99t-131 -43q102 -11 167 -60t65 -134v-6q0 -43 -10.5 -75.5t-49 -70t-105 -61.5t-187 -40.5t-285.5 -16.5z" />
    <glyph glyph-name="fiveeighths" unicode="&#x215d;" horiz-adv-x="2938" 
d="M2908 582v-13q0 -71 -64 -112.5t-159 -55.5q48 -7 89 -19t78.5 -32.5t59 -53t21.5 -73.5v-16q0 -24 -4.5 -43t-20 -43.5t-42 -43.5t-74.5 -38t-114 -31t-164 -20t-220 -8h-49q-122 0 -220 8t-164 20t-114 31t-74.5 38t-42 43.5t-20 43.5t-4.5 43v16q0 41 21 73.5t58.5 53
t78.5 32.5t89 19q-95 14 -159 55.5t-64 112.5v13q0 29 8 51.5t30.5 46t66 39.5t109.5 30t167.5 20.5t233.5 6.5h49q132 0 233.5 -6.5t167.5 -20.5t109.5 -30t65.5 -39.5t30 -46t8 -51.5zM2390 532v5q0 24 -25.5 36.5t-95.5 12.5t-95.5 -12.5t-25.5 -36.5v-5q0 -53 121 -53
t121 53zM2400 256v2q0 30 -28 45.5t-103 15.5q-76 0 -103.5 -15t-27.5 -46v-2q0 -31 27.5 -47t103.5 -16q74 0 102.5 16t28.5 47zM2089 1524h489l-1830 -1524h-476zM639 745h-31q-118 0 -212 10.5t-154.5 26.5t-104.5 40.5t-66 45.5t-34 49.5t-14.5 45t-2.5 38.5v7h480
q2 -7 9.5 -14.5t37.5 -16t76 -8.5q129 0 129 55v6q0 55 -129 55q-45 0 -75 -7.5t-38.5 -14t-9.5 -12.5h-465v473h1159v-209h-692v-115q90 70 334 70q101 0 175.5 -11t121.5 -30t75 -48.5t38.5 -62.5t10.5 -76v-12q0 -46 -11 -82t-49.5 -76t-103 -66t-180.5 -43.5t-274 -17.5
z" />
    <glyph glyph-name="seveneighths" unicode="&#x215e;" horiz-adv-x="2789" 
d="M2759 582v-13q0 -71 -64 -112.5t-160 -55.5q48 -7 89 -19t78.5 -32.5t59 -53t21.5 -73.5v-16q0 -24 -4.5 -43t-20 -43.5t-42 -43.5t-74.5 -38t-114 -31t-164 -20t-220 -8h-49q-122 0 -220 8t-164 20t-114 31t-74.5 38t-42 43.5t-20 43.5t-4.5 43v16q0 41 21.5 73.5
t58.5 53t78.5 32.5t89.5 19q-95 14 -159 55.5t-64 112.5v13q0 29 8 51.5t30 46t65.5 39.5t109.5 30t167.5 20.5t233.5 6.5h49q132 0 233.5 -6.5t167.5 -20.5t109.5 -30t66 -39.5t30.5 -46t8 -51.5zM2241 532v5q0 24 -25.5 36.5t-95.5 12.5t-95.5 -12.5t-25.5 -36.5v-5
q0 -53 121 -53t121 53zM2251 256v2q0 30 -28 45.5t-103 15.5q-76 0 -103.5 -15t-27.5 -46v-2q0 -31 27.5 -47t103.5 -16q74 0 102.5 16t28.5 47zM27 1524h1222v-211q-122 -122 -170 -183q-66 -83 -84 -149.5t-18 -208.5v-2h-615v121q0 47 22 83t60.5 65t126.5 83
q180 109 207 131q23 19 23 31h-287v-137h-487v377zM1939 1524h490l-1831 -1524h-475z" />
    <glyph glyph-name="minus" unicode="&#x2212;" horiz-adv-x="1198" 
d="M23 813h1153v-360h-1153v360z" />
    <glyph glyph-name="uni24C5" unicode="&#x24c5;" horiz-adv-x="2492" 
d="M2468 735q0 -88 -16 -166.5t-55.5 -157t-101 -143t-157 -121.5t-219.5 -95.5t-293.5 -60.5t-372.5 -22h-16q-203 0 -372 22.5t-292.5 61t-219 95.5t-157 122t-100.5 143.5t-55 156.5t-16 165v58q0 86 15.5 163.5t54.5 155.5t100 142.5t156 121t218 95.5t291.5 61
t370.5 22h26q203 0 372.5 -22.5t292.5 -61.5t219 -96t156.5 -122t99.5 -143t55 -154.5t16 -161.5v-58zM1231 174h26q206 0 361.5 26.5t257 73.5t164.5 118.5t88.5 154.5t25.5 188v58q0 104 -26 186t-89 153.5t-164 119t-257 74t-361 26.5h-26q-204 0 -359 -26.5t-255.5 -74
t-163.5 -119t-89 -153.5t-26 -186v-58q0 -104 25.5 -186.5t88 -154t163 -119t256 -74.5t360.5 -27zM1477 565h-295v-241h-553v882h848q151 0 254.5 -20.5t161.5 -61t82 -93.5t24 -126v-31q0 -74 -25.5 -128.5t-84 -96t-161.5 -63t-251 -21.5zM1182 963v-146h172q86 0 86 72
v4q0 70 -86 70h-172z" />
    <glyph glyph-name="J.alt" unicode="&#xe489;" horiz-adv-x="1196" 
d="M37 0v541h147q97 0 140 49t43 153v781h782v-955q0 -302 -160 -435.5t-489 -133.5h-463z" />
    <glyph glyph-name="a.alt" unicode="&#xe4c0;" horiz-adv-x="1849" 
d="M1057 440v74l-238 -63q-40 -11 -60 -29t-20 -49v-2q0 -36 29 -63t94 -27q92 0 143.5 45.5t51.5 113.5zM1063 139q-25 -24 -64 -47.5t-102.5 -50.5t-159 -44t-205.5 -17h-12q-107 0 -193.5 20t-143.5 53t-95.5 77.5t-55 93t-16.5 100.5v41q0 60 19.5 108t64.5 89t128 67.5
t202 36.5l580 47q28 3 38.5 14t10.5 31v2q0 69 -152 69h-4q-46 0 -79.5 -7.5t-49.5 -16t-25.5 -23.5t-11 -23t-2.5 -20h-692v25q0 39 4.5 68.5t23 69.5t50.5 69.5t92 60.5t142.5 51t206.5 32.5t280 12.5h116q162 0 292.5 -13t216.5 -33t149.5 -51t97.5 -61t54 -68.5t25 -68
t5 -65.5v-395q0 -270 31 -361v-12h-739q-27 43 -27 139z" />
    <glyph glyph-name="r.alt" unicode="&#xe4d1;" horiz-adv-x="1361" 
d="M799 322v-322h-750v1102h746v-277q159 301 528 301v-626q-99 16 -223 16q-169 0 -235 -45.5t-66 -148.5z" />
    <glyph glyph-name="idotaccent" horiz-adv-x="843" 
d="M795 1524v-359h-746v359h746zM795 1102v-1102h-746v1102h746z" />
    <glyph glyph-name="space_uni0326" 
d="M901 -655h-332q29 42 60.5 118t36.5 113h-281v361h662v-277q0 -66 -47.5 -159t-98.5 -156z" />
    <glyph glyph-name="zero.num" horiz-adv-x="1406" 
d="M678 1546h49q169 0 294 -25t194 -62.5t110 -92t52.5 -101.5t11.5 -104v-31q0 -56 -11.5 -103t-52.5 -102t-110 -92t-194 -62.5t-294 -25.5h-49q-168 0 -292.5 25.5t-193 62.5t-109 92t-52 102t-11.5 103v31q0 39 5.5 73t23 74.5t46 73t79 64t117.5 53t166 34.5t221 13z
M846 1157q0 24 -6 46.5t-21 45.5t-45 37t-72 14q-43 0 -73 -14t-44.5 -37t-20 -45t-5.5 -47v-12q0 -25 6 -48.5t20.5 -47t44.5 -38t72 -14.5q43 0 73 14.5t44.5 38t20.5 47t6 48.5v12z" />
    <glyph glyph-name="one.num" horiz-adv-x="829" 
d="M248 1159h-225v234q83 1 141.5 12.5t91 32.5t48 39.5t28.5 46.5h452v-754h-536v389z" />
    <glyph glyph-name="two.num" horiz-adv-x="1280" 
d="M1264 770h-1246v115q0 40 3 65.5t15.5 59t36 56t66 49t104.5 46t152.5 39.5t208.5 37q92 13 121 25.5t29 33.5v2q0 20 -23 30.5t-88 10.5q-39 0 -65 -7t-37 -19.5t-14.5 -21.5t-4.5 -21h-493v6q0 25 2.5 44.5t15.5 49t36 52t67.5 47t106 40.5t156.5 26.5t214 10.5h37
q183 0 307 -18.5t187 -53.5t87.5 -75t24.5 -94v-11q0 -71 -44.5 -113.5t-172 -72.5t-363.5 -45q-242 -16 -274 -45h848v-248z" />
    <glyph glyph-name="three.num" horiz-adv-x="1316" 
d="M674 745h-70q-111 0 -202 11t-152 28.5t-107 42.5t-71 50t-41 54.5t-20.5 52t-4.5 46.5v10h488q2 -11 10 -22t41 -24t86 -13q58 0 90.5 6.5t42.5 16t10 24.5v2q0 20 -17 28.5t-63 8.5h-192v193h186q70 0 70 30v2q0 13 -8 21.5t-37.5 15t-81.5 6.5q-123 0 -131 -49h-480
v12q0 13 2 26t13.5 39.5t32 48.5t63 48t100 44t149.5 30t206 12h82q154 0 265 -10.5t174 -26.5t99.5 -42t47 -49.5t10.5 -55.5v-10q0 -65 -54 -99t-131 -43q102 -11 167 -60t65 -134v-6q0 -43 -10.5 -75.5t-49 -70t-105 -62t-187 -41t-285.5 -16.5z" />
    <glyph glyph-name="four.num" horiz-adv-x="1261" 
d="M8 1171l570 353h536v-344h137v-248h-137v-162h-518v162h-588v239zM336 1180h260v157z" />
    <glyph glyph-name="five.num" horiz-adv-x="1273" 
d="M639 745h-31q-118 0 -212 10.5t-154.5 26.5t-104.5 40.5t-66 45.5t-34 49.5t-14.5 45t-2.5 38.5v7h480q2 -7 9.5 -14.5t37.5 -16t76 -8.5q129 0 129 55v6q0 55 -129 55q-45 0 -75 -7.5t-38.5 -14t-9.5 -12.5h-465v473h1159v-209h-692v-115q90 70 334 70q101 0 175.5 -11
t121.5 -30t75 -48.5t38.5 -62.5t10.5 -76v-12q0 -46 -11 -82t-49.5 -76t-103 -66t-180.5 -43.5t-274 -17.5z" />
    <glyph glyph-name="six.num" horiz-adv-x="1376" 
d="M737 745h-57q-124 0 -224.5 14t-168 37t-118 56.5t-78.5 67t-44.5 74.5t-21.5 73t-5 68v28q0 383 650 383h43q620 0 620 -270h-493q-30 45 -131 45q-47 0 -81.5 -12.5t-51 -29t-26.5 -41.5t-11.5 -41t-1.5 -36v-2q106 74 370 74h11q114 0 196 -10.5t131 -27.5t77.5 -46
t38 -59t9.5 -72v-14q0 -40 -11 -72.5t-50 -69t-105 -60.5t-185.5 -40.5t-281.5 -16.5zM557 1014q0 -62 148 -62q147 0 147 62v2q0 8 -1.5 14t-10 15t-23 15t-43.5 10.5t-69 4.5q-148 0 -148 -59v-2z" />
    <glyph glyph-name="seven.num" horiz-adv-x="1267" 
d="M27 1524h1222v-211q-122 -122 -170 -183q-66 -83 -84 -149.5t-18 -208.5v-2h-615v121q0 47 22 83t60.5 65t126.5 83q180 109 207 131q23 19 23 31h-287v-137h-487v377z" />
    <glyph glyph-name="eight.num" horiz-adv-x="1339" 
d="M1309 1352v-13q0 -71 -64 -112.5t-160 -55.5q48 -7 89 -19t78.5 -32.5t59 -53t21.5 -73.5v-16q0 -24 -4.5 -43t-20 -43.5t-42 -43.5t-74.5 -38t-114 -31t-164 -20t-220 -8h-49q-122 0 -220 8t-164 20t-114 31t-74.5 38t-42 43.5t-20 43.5t-4.5 43v16q0 41 21.5 73.5
t58.5 53t78.5 32.5t89.5 19q-95 14 -159 55.5t-64 112.5v13q0 29 8 51.5t30 46t65.5 39.5t109.5 30t167.5 20.5t233.5 6.5h49q132 0 233.5 -6.5t167.5 -20.5t109.5 -30t66 -39.5t30.5 -46t8 -51.5zM791 1303v4q0 24 -25.5 36.5t-95.5 12.5t-95.5 -12.5t-25.5 -36.5v-4
q0 -54 121 -54t121 54zM801 1026v2q0 31 -28 46.5t-103 15.5q-76 0 -103.5 -15.5t-27.5 -46.5v-2q0 -31 27.5 -47t103.5 -16q74 0 102.5 16t28.5 47z" />
    <glyph glyph-name="nine.num" horiz-adv-x="1380" 
d="M823 1278q0 12 -3.5 20t-16.5 18.5t-45 16.5t-82 6q-49 0 -81 -6t-45.5 -16.5t-17.5 -19t-4 -19.5v-2q0 -59 148 -59q40 0 69 4.5t43.5 10.5t23 15t10 15t1.5 14v2zM674 745q-116 0 -211 10t-158.5 26t-111.5 39.5t-75 47t-43 51.5t-21 50.5t-5 46.5h494q2 -7 10 -15
t39.5 -19t79.5 -11t82.5 12.5t51.5 29t27 41t11.5 40.5t1.5 36v3q-132 -74 -365 -74h-12q-109 0 -191.5 12t-132.5 31.5t-81 48.5t-42.5 59t-11.5 66v12q0 41 9.5 72t47 68t101.5 61t182 40.5t281 16.5h57q124 0 225.5 -14t170 -36t120.5 -54.5t81.5 -65t47.5 -72t23.5 -71
t5.5 -66.5v-28q0 -37 -5.5 -70t-22.5 -74t-45 -75t-77.5 -67.5t-115 -56.5t-162.5 -37t-215 -14h-45z" />
    <glyph glyph-name="zero.den" horiz-adv-x="1406" 
d="M678 776h49q169 0 294 -25t194 -62.5t110 -92t52.5 -101.5t11.5 -104v-31q0 -56 -11.5 -103t-52.5 -102t-110 -92t-194 -62.5t-294 -25.5h-49q-168 0 -292.5 25.5t-193 62.5t-109 92t-52 102t-11.5 103v31q0 39 5.5 73t23 74.5t46 73t79 64t117.5 53t166 34.5t221 13z
M846 387q0 24 -6 46.5t-21 45.5t-45 37t-72 14q-43 0 -73 -14t-44.5 -37t-20 -45t-5.5 -47v-12q0 -25 6 -48.5t20.5 -47t44.5 -38t72 -14.5q43 0 73 14.5t44.5 38t20.5 47t6 48.5v12z" />
    <glyph glyph-name="one.den" horiz-adv-x="829" 
d="M248 389h-225v234q83 1 141.5 12.5t91 32.5t48 39.5t28.5 46.5h452v-754h-536v389z" />
    <glyph glyph-name="two.den" horiz-adv-x="1280" 
d="M1264 0h-1246v115q0 40 3 65.5t15.5 59t36 56t66 49t104.5 46t152.5 39.5t208.5 37q92 13 121 25.5t29 33.5v2q0 20 -23 30.5t-88 10.5q-39 0 -65 -7t-37 -19.5t-14.5 -21.5t-4.5 -21h-493v6q0 25 2.5 44.5t15.5 49t36 52t67.5 47t106 40.5t156.5 26.5t214 10.5h37
q183 0 307 -18.5t187 -53.5t87.5 -75t24.5 -94v-11q0 -71 -44.5 -113.5t-172 -72.5t-363.5 -45q-242 -16 -274 -45h848v-248z" />
    <glyph glyph-name="three.den" horiz-adv-x="1316" 
d="M674 -25h-70q-111 0 -202 11t-152 28.5t-107 42.5t-71 50t-41 54.5t-20.5 52t-4.5 46.5v10h488q2 -11 10 -22t41 -24t86 -13q58 0 90.5 6.5t42.5 16t10 24.5v2q0 20 -17 28.5t-63 8.5h-192v192h186q70 0 70 31v2q0 13 -8 21.5t-37.5 15t-81.5 6.5q-123 0 -131 -49h-480
v12q0 13 2 26t13.5 39.5t32 48.5t63 48t100 44t149.5 30t206 12h82q154 0 265 -10.5t174 -26.5t99.5 -42t47 -49.5t10.5 -55.5v-10q0 -65 -54 -99t-131 -43q102 -11 167 -60t65 -134v-6q0 -43 -10.5 -75.5t-49 -70t-105 -62t-187 -41t-285.5 -16.5z" />
    <glyph glyph-name="four.den" horiz-adv-x="1261" 
d="M8 401l570 353h536v-344h137v-248h-137v-162h-518v162h-588v239zM336 410h260v157z" />
    <glyph glyph-name="five.den" horiz-adv-x="1273" 
d="M639 -25h-31q-118 0 -212 10.5t-154.5 26.5t-104.5 40.5t-66 45.5t-34 49.5t-14.5 45t-2.5 38.5v7h480q2 -7 9.5 -14.5t37.5 -16t76 -8.5q129 0 129 55v6q0 55 -129 55q-45 0 -75 -7.5t-38.5 -14t-9.5 -12.5h-465v473h1159v-209h-692v-115q90 70 334 70q101 0 175.5 -11
t121.5 -30t75 -48.5t38.5 -62.5t10.5 -76v-12q0 -46 -11 -82t-49.5 -76t-103 -66t-180.5 -43.5t-274 -17.5z" />
    <glyph glyph-name="six.den" horiz-adv-x="1376" 
d="M737 -25h-57q-124 0 -224.5 14t-168 37t-118 56.5t-78.5 67t-44.5 74.5t-21.5 73t-5 68v28q0 383 650 383h43q620 0 620 -270h-493q-30 45 -131 45q-47 0 -81.5 -12.5t-51 -29t-26.5 -41.5t-11.5 -41t-1.5 -36v-2q106 74 370 74h11q114 0 196 -10.5t131 -27.5t77.5 -46
t38 -59t9.5 -72v-15q0 -40 -11 -72t-50 -68.5t-105 -61t-185.5 -40.5t-281.5 -16zM557 244q0 -62 148 -62q147 0 147 62v2q0 8 -1.5 14t-10 15t-23 15t-43.5 10.5t-69 4.5q-148 0 -148 -59v-2z" />
    <glyph glyph-name="seven.den" horiz-adv-x="1267" 
d="M27 754h1222v-211q-122 -122 -170 -183q-66 -83 -84 -149.5t-18 -208.5v-2h-615v121q0 47 22 83t60.5 65t126.5 83q180 109 207 131q23 19 23 31h-287v-137h-487v377z" />
    <glyph glyph-name="eight.den" horiz-adv-x="1339" 
d="M1309 582v-13q0 -71 -64 -112.5t-160 -55.5q48 -7 89 -19t78.5 -32.5t59 -53t21.5 -73.5v-16q0 -24 -4.5 -43t-20 -43.5t-42 -43.5t-74.5 -38t-114 -31t-164 -20t-220 -8h-49q-122 0 -220 8t-164 20t-114 31t-74.5 38t-42 43.5t-20 43.5t-4.5 43v16q0 41 21.5 73.5
t58.5 53t78.5 32.5t89.5 19q-95 14 -159 55.5t-64 112.5v13q0 29 8 51.5t30 46t65.5 39.5t109.5 30t167.5 20.5t233.5 6.5h49q132 0 233.5 -6.5t167.5 -20.5t109.5 -30t66 -39.5t30.5 -46t8 -51.5zM791 532v5q0 24 -25.5 36.5t-95.5 12.5t-95.5 -12.5t-25.5 -36.5v-5
q0 -53 121 -53t121 53zM801 256v2q0 30 -28 45.5t-103 15.5q-76 0 -103.5 -15t-27.5 -46v-2q0 -31 27.5 -47t103.5 -16q74 0 102.5 16t28.5 47z" />
    <glyph glyph-name="nine.den" horiz-adv-x="1380" 
d="M823 508q0 12 -3.5 20t-16.5 18.5t-45 16.5t-82 6q-49 0 -81 -6t-45.5 -16.5t-17.5 -19t-4 -19.5v-2q0 -60 148 -60q40 0 69 4.5t43.5 10.5t23 15.5t10 15.5t1.5 14v2zM674 -25q-116 0 -211 10t-158.5 26t-111.5 39.5t-75 47t-43 51.5t-21 50.5t-5 46.5h494q2 -7 10 -15
t39.5 -19t79.5 -11t82.5 12.5t51.5 29t27 41t11.5 40.5t1.5 36v2q-130 -73 -365 -73h-12q-109 0 -191.5 12t-132.5 31.5t-81 48.5t-42.5 59t-11.5 66v12q0 41 9.5 72t47 68t101.5 61t182 40.5t281 16.5h57q124 0 225.5 -14t170 -36t120.5 -54.5t81.5 -65t47.5 -72t23.5 -71
t5.5 -66.5v-28q0 -37 -5.5 -70t-22.5 -74t-45 -75t-77.5 -67.5t-115 -56.5t-162.5 -37t-215 -14h-45z" />
    <glyph glyph-name="zero.sub" horiz-adv-x="1406" 
d="M678 584h49q169 0 294 -25t194 -62.5t110 -92t52.5 -101.5t11.5 -104v-31q0 -56 -11.5 -103t-52.5 -102t-110 -92t-194 -62.5t-294 -25.5h-49q-168 0 -292.5 25.5t-193 62.5t-109 92t-52 102t-11.5 103v31q0 39 5.5 73t23 74.5t46 73t79 64t117.5 53t166 34.5t221 13z
M846 195q0 24 -6 46.5t-21 45.5t-45 37t-72 14q-43 0 -73 -14t-44.5 -37t-20 -45t-5.5 -47v-13q0 -25 6 -48t20.5 -47t44.5 -38t72 -14q43 0 73 14t44.5 38t20.5 47t6 48v13z" />
    <glyph glyph-name="one.sub" horiz-adv-x="829" 
d="M248 197h-225v233q83 1 141.5 12.5t91 32.5t48 39.5t28.5 46.5h452v-754h-536v390z" />
    <glyph glyph-name="two.sub" horiz-adv-x="1280" 
d="M1264 -193h-1246v115q0 40 3 65.5t15.5 59t36 56t66 49t104.5 46t152.5 39.5t208.5 37q92 13 121 26t29 34v2q0 20 -23 30.5t-88 10.5q-39 0 -65 -7t-37 -20t-14.5 -22t-4.5 -21h-493v6q0 25 2.5 44.5t15.5 49t36 52t67.5 47.5t106 41t156.5 26.5t214 10.5h37
q147 0 256.5 -13t175.5 -34t106 -53.5t54 -66t14 -75.5v-10q0 -71 -44 -113.5t-172 -73t-364 -45.5q-242 -16 -274 -45h848v-248z" />
    <glyph glyph-name="three.sub" horiz-adv-x="1316" 
d="M674 -217h-70q-111 0 -202 11t-152 28.5t-107 42.5t-71 50t-41 54.5t-20.5 52t-4.5 46.5v10h488q2 -11 10 -22.5t41 -24.5t86 -13q58 0 90.5 7t42.5 16.5t10 24.5v2q0 19 -17 27.5t-63 8.5h-192v193h186q70 0 70 31v2q0 13 -8 21.5t-37.5 15t-81.5 6.5q-123 0 -131 -49
h-480v12q0 13 2 26t13.5 39.5t32 48.5t63 48t100 44t149.5 30t206 12h82q154 0 265 -10.5t174 -27t99.5 -42t47 -49.5t10.5 -56v-10q0 -64 -53.5 -98t-131.5 -43q102 -11 167 -60.5t65 -134.5v-6q0 -43 -10.5 -75.5t-49 -70t-105 -61.5t-187 -40.5t-285.5 -16.5z" />
    <glyph glyph-name="four.sub" horiz-adv-x="1261" 
d="M8 209l570 352h536v-344h137v-248h-137v-162h-518v162h-588v240zM336 217h260v158z" />
    <glyph glyph-name="five.sub" horiz-adv-x="1273" 
d="M639 -217h-31q-118 0 -212 10.5t-154.5 26.5t-104.5 40.5t-66 45.5t-34 49.5t-14.5 45t-2.5 38.5v6h480q2 -7 9.5 -14.5t37.5 -16t76 -8.5q129 0 129 55v7q0 55 -129 55q-45 0 -75 -7.5t-38 -14.5t-10 -13h-465v473h1159v-209h-692v-114q89 69 334 69q126 0 210.5 -16
t129.5 -47.5t63 -70.5t18 -93v-12q0 -46 -11 -82t-49.5 -76t-103 -66t-180.5 -43.5t-274 -17.5z" />
    <glyph glyph-name="six.sub" horiz-adv-x="1376" 
d="M737 -217h-57q-124 0 -224.5 14t-168 37t-118 56.5t-78.5 66.5t-44.5 74t-21.5 73t-5 68v29q0 383 650 383h43q620 0 620 -271h-493q-30 45 -131 45q-47 0 -81.5 -12.5t-51 -29t-26.5 -41t-11.5 -40.5t-1.5 -36v-2q105 73 370 73h11q114 0 196 -10.5t131 -27.5t77.5 -46
t38 -59t9.5 -72v-14q0 -40 -11 -72t-50 -68.5t-105 -61t-185.5 -40.5t-281.5 -16zM557 51q0 -61 148 -61q147 0 147 61v2q0 8 -1.5 14t-10 15.5t-23 15.5t-43.5 10.5t-69 4.5q-148 0 -148 -60v-2z" />
    <glyph glyph-name="seven.sub" horiz-adv-x="1267" 
d="M27 561h1222v-211l-22 -22t-33 -32.5t-35.5 -36.5t-41 -45t-38.5 -46q-66 -83 -84 -149.5t-18 -208.5v-3h-615v121q0 68 41.5 111.5t167.5 120.5q180 109 207 131q23 19 23 31h-287v-138h-487v377z" />
    <glyph glyph-name="eight.sub" horiz-adv-x="1339" 
d="M1309 389v-12q0 -71 -64 -112.5t-160 -55.5q48 -7 89 -19t78.5 -32.5t59 -53t21.5 -73.5v-17q0 -24 -4.5 -43t-20 -43.5t-42 -43.5t-74.5 -38t-114 -31t-164 -20t-220 -8h-49q-122 0 -220 8t-164 20t-114 31t-74.5 38t-42 43.5t-20 43.5t-4.5 43v17q0 41 21.5 73.5
t58.5 53t78.5 32.5t89.5 19q-95 14 -159 55.5t-64 112.5v12q0 29 8 51.5t30 46t65.5 40t109.5 30t167.5 20.5t233.5 7h49q158 0 272 -10.5t179.5 -27t103 -43.5t49 -52.5t11.5 -61.5zM791 340v4q0 24 -25.5 36.5t-95.5 12.5t-95.5 -12.5t-25.5 -36.5v-4q0 -53 121 -53
t121 53zM801 63v3q0 30 -28 45.5t-103 15.5q-76 0 -103.5 -15t-27.5 -46v-3q0 -31 27.5 -47t103.5 -16q74 0 102.5 16t28.5 47z" />
    <glyph glyph-name="nine.sub" horiz-adv-x="1380" 
d="M823 315q0 12 -3.5 20t-16.5 19t-45 17t-82 6q-49 0 -81 -6t-45.5 -17t-17.5 -19.5t-4 -19.5v-2q0 -59 148 -59q40 0 69 4.5t43.5 10.5t23 15t10 15t1.5 14v2zM674 -217q-116 0 -211 10t-158.5 26t-111.5 39t-75 46.5t-43 51.5t-21 50.5t-5 46.5h494q2 -7 10 -15
t39.5 -19t79.5 -11t82.5 12.5t51.5 29t27 41.5t11.5 41t1.5 36v2q-132 -74 -365 -74h-12q-109 0 -191.5 12t-132.5 31.5t-81 48.5t-42.5 59t-11.5 66v13q0 41 9.5 72t47 68t101.5 61t182 40.5t281 16.5h57q124 0 225.5 -14t170 -36t120.5 -54.5t81.5 -65t47.5 -72t23.5 -71
t5.5 -66.5v-29q0 -37 -5.5 -70t-22.5 -74t-45 -75t-77.5 -67t-115 -56t-162.5 -37t-215 -14h-45z" />
    <glyph glyph-name="zero.sup" horiz-adv-x="1406" 
d="M678 1546h49q169 0 294 -25t194 -62.5t110 -92t52.5 -101.5t11.5 -104v-31q0 -56 -11.5 -103t-52.5 -102t-110 -92t-194 -62.5t-294 -25.5h-49q-168 0 -292.5 25.5t-193 62.5t-109 92t-52 102t-11.5 103v31q0 39 5.5 73t23 74.5t46 73t79 64t117.5 53t166 34.5t221 13z
M846 1157q0 24 -6 46.5t-21 45.5t-45 37t-72 14q-43 0 -73 -14t-44.5 -37t-20 -45t-5.5 -47v-12q0 -25 6 -48.5t20.5 -47t44.5 -38t72 -14.5q43 0 73 14.5t44.5 38t20.5 47t6 48.5v12z" />
    <glyph glyph-name="one.sup" horiz-adv-x="829" 
d="M248 1159h-225v234q83 1 141.5 12.5t91 32.5t48 39.5t28.5 46.5h452v-754h-536v389z" />
    <glyph glyph-name="two.sup" horiz-adv-x="1280" 
d="M1264 770h-1246v115q0 40 3 65.5t15.5 59t36 56t66 49t104.5 46t152.5 39.5t208.5 37q92 13 121 25.5t29 33.5v2q0 20 -23 30.5t-88 10.5q-39 0 -65 -7t-37 -19.5t-14.5 -21.5t-4.5 -21h-493v6q0 25 2.5 44.5t15.5 49t36 52t67.5 47t106 40.5t156.5 26.5t214 10.5h37
q183 0 307 -18.5t187 -53.5t87.5 -75t24.5 -94v-11q0 -71 -44.5 -113.5t-172 -72.5t-363.5 -45q-242 -16 -274 -45h848v-248z" />
    <glyph glyph-name="three.sup" horiz-adv-x="1316" 
d="M674 745h-70q-111 0 -202 11t-152 28.5t-107 42.5t-71 50t-41 54.5t-20.5 52t-4.5 46.5v10h488q2 -11 10 -22t41 -24t86 -13q58 0 90.5 6.5t42.5 16t10 24.5v2q0 20 -17 28.5t-63 8.5h-192v193h186q70 0 70 30v2q0 13 -8 21.5t-37.5 15t-81.5 6.5q-123 0 -131 -49h-480
v12q0 13 2 26t13.5 39.5t32 48.5t63 48t100 44t149.5 30t206 12h82q154 0 265 -10.5t174 -26.5t99.5 -42t47 -49.5t10.5 -55.5v-10q0 -65 -54 -99t-131 -43q102 -11 167 -60t65 -134v-6q0 -43 -10.5 -75.5t-49 -70t-105 -62t-187 -41t-285.5 -16.5z" />
    <glyph glyph-name="four.sup" horiz-adv-x="1261" 
d="M8 1171l570 353h536v-344h137v-248h-137v-162h-518v162h-588v239zM336 1180h260v157z" />
    <glyph glyph-name="five.sup" horiz-adv-x="1273" 
d="M639 745h-31q-118 0 -212 10.5t-154.5 26.5t-104.5 40.5t-66 45.5t-34 49.5t-14.5 45t-2.5 38.5v7h480q2 -7 9.5 -14.5t37.5 -16t76 -8.5q129 0 129 55v6q0 55 -129 55q-45 0 -75 -7.5t-38.5 -14t-9.5 -12.5h-465v473h1159v-209h-692v-115q90 70 334 70q101 0 175.5 -11
t121.5 -30t75 -48.5t38.5 -62.5t10.5 -76v-12q0 -46 -11 -82t-49.5 -76t-103 -66t-180.5 -43.5t-274 -17.5z" />
    <glyph glyph-name="six.sup" horiz-adv-x="1376" 
d="M737 745h-57q-124 0 -224.5 14t-168 37t-118 56.5t-78.5 67t-44.5 74.5t-21.5 73t-5 68v28q0 383 650 383h43q620 0 620 -270h-493q-30 45 -131 45q-47 0 -81.5 -12.5t-51 -29t-26.5 -41.5t-11.5 -41t-1.5 -36v-2q106 74 370 74h11q114 0 196 -10.5t131 -27.5t77.5 -46
t38 -59t9.5 -72v-14q0 -40 -11 -72.5t-50 -69t-105 -60.5t-185.5 -40.5t-281.5 -16.5zM557 1014q0 -62 148 -62q147 0 147 62v2q0 8 -1.5 14t-10 15t-23 15t-43.5 10.5t-69 4.5q-148 0 -148 -59v-2z" />
    <glyph glyph-name="seven.sup" horiz-adv-x="1267" 
d="M27 1524h1222v-211q-122 -122 -170 -183q-66 -83 -84 -149.5t-18 -208.5v-2h-615v121q0 47 22 83t60.5 65t126.5 83q180 109 207 131q23 19 23 31h-287v-137h-487v377z" />
    <glyph glyph-name="eight.sup" horiz-adv-x="1339" 
d="M1309 1352v-13q0 -71 -64 -112.5t-160 -55.5q48 -7 89 -19t78.5 -32.5t59 -53t21.5 -73.5v-16q0 -24 -4.5 -43t-20 -43.5t-42 -43.5t-74.5 -38t-114 -31t-164 -20t-220 -8h-49q-122 0 -220 8t-164 20t-114 31t-74.5 38t-42 43.5t-20 43.5t-4.5 43v16q0 41 21.5 73.5
t58.5 53t78.5 32.5t89.5 19q-95 14 -159 55.5t-64 112.5v13q0 29 8 51.5t30 46t65.5 39.5t109.5 30t167.5 20.5t233.5 6.5h49q132 0 233.5 -6.5t167.5 -20.5t109.5 -30t66 -39.5t30.5 -46t8 -51.5zM791 1303v4q0 24 -25.5 36.5t-95.5 12.5t-95.5 -12.5t-25.5 -36.5v-4
q0 -54 121 -54t121 54zM801 1026v2q0 31 -28 46.5t-103 15.5q-76 0 -103.5 -15.5t-27.5 -46.5v-2q0 -31 27.5 -47t103.5 -16q74 0 102.5 16t28.5 47z" />
    <glyph glyph-name="nine.sup" horiz-adv-x="1380" 
d="M823 1278q0 12 -3.5 20t-16.5 18.5t-45 16.5t-82 6q-49 0 -81 -6t-45.5 -16.5t-17.5 -19t-4 -19.5v-2q0 -59 148 -59q40 0 69 4.5t43.5 10.5t23 15t10 15t1.5 14v2zM674 745q-116 0 -211 10t-158.5 26t-111.5 39.5t-75 47t-43 51.5t-21 50.5t-5 46.5h494q2 -7 10 -15
t39.5 -19t79.5 -11t82.5 12.5t51.5 29t27 41t11.5 40.5t1.5 36v3q-132 -74 -365 -74h-12q-109 0 -191.5 12t-132.5 31.5t-81 48.5t-42.5 59t-11.5 66v12q0 41 9.5 72t47 68t101.5 61t182 40.5t281 16.5h57q124 0 225.5 -14t170 -36t120.5 -54.5t81.5 -65t47.5 -72t23.5 -71
t5.5 -66.5v-28q0 -37 -5.5 -70t-22.5 -74t-45 -75t-77.5 -67.5t-115 -56.5t-162.5 -37t-215 -14h-45z" />
    <glyph glyph-name="IJ.alt" horiz-adv-x="2086" 
d="M834 1524v-1524h-777v1524h777zM928 0v541h147q97 0 139.5 49t42.5 153v781h783v-955q0 -302 -160 -435.5t-489 -133.5h-463z" />
    <glyph glyph-name="a.alt2" horiz-adv-x="1955" 
d="M1161 555v16q0 45 -18.5 88t-64 76t-109.5 33h-11q-61 0 -104 -31.5t-60.5 -75.5t-17.5 -94v-10q0 -85 46 -150t134 -65h11q65 0 111 34t64.5 80.5t18.5 98.5zM1161 1102h746v-1102h-746v145q-26 -23 -60 -44t-94.5 -48.5t-151 -44t-196.5 -16.5h-45q-123 0 -224 31
t-168 82.5t-112.5 121.5t-66 145.5t-20.5 157.5v52q0 79 19.5 152.5t64.5 142.5t110.5 120.5t165 82t221.5 30.5h47q333 0 510 -129v121z" />
    <glyph glyph-name="Jcircumflex.alt" horiz-adv-x="1196" 
d="M37 0v541h147q97 0 140 49t43 153v781h782v-955q0 -302 -160 -435.5t-489 -133.5h-463zM1092 1925l350 -338h-590l-111 119l-112 -119h-584l346 338h701z" />
    <glyph glyph-name="aacute.alt" horiz-adv-x="1849" 
d="M584 1176l170 348h700l-240 -348h-630zM1057 440v74l-238 -63q-40 -11 -60 -29t-20 -49v-2q0 -36 29 -63t94 -27q92 0 143.5 45.5t51.5 113.5zM1063 139q-25 -24 -64 -47.5t-102.5 -50.5t-159 -44t-205.5 -17h-12q-107 0 -193.5 20t-143.5 53t-95.5 77.5t-55 93
t-16.5 100.5v41q0 60 19.5 108t64.5 89t128 67.5t202 36.5l580 47q28 3 38.5 14t10.5 31v2q0 69 -152 69h-4q-46 0 -79.5 -7.5t-49.5 -16t-25.5 -23.5t-11 -23t-2.5 -20h-692v25q0 39 4.5 68.5t23 69.5t50.5 69.5t92 60.5t142.5 51t206.5 32.5t280 12.5h116q162 0 292.5 -13
t216.5 -33t149.5 -51t97.5 -61t54 -68.5t25 -68t5 -65.5v-395q0 -270 31 -361v-12h-739q-27 43 -27 139z" />
    <glyph glyph-name="aacute.alt2" horiz-adv-x="1955" 
d="M1161 555v16q0 45 -18.5 88t-64 76t-109.5 33h-11q-61 0 -104 -31.5t-60.5 -75.5t-17.5 -94v-10q0 -85 46 -150t134 -65h11q65 0 111 34t64.5 80.5t18.5 98.5zM1161 1102h746v-1102h-746v145q-26 -23 -60 -44t-94.5 -48.5t-151 -44t-196.5 -16.5h-45q-123 0 -224 31
t-168 82.5t-112.5 121.5t-66 145.5t-20.5 157.5v52q0 79 19.5 152.5t64.5 142.5t110.5 120.5t165 82t221.5 30.5h47q333 0 510 -129v121zM627 1165l174 359h700l-244 -359h-630z" />
    <glyph glyph-name="abreve.alt" horiz-adv-x="1849" 
d="M852 1169q-87 0 -159.5 13.5t-122 36t-88 53.5t-61 62.5t-37 67t-19.5 63.5t-5 55v4h414q1 -12 7 -24.5t19 -27.5t41 -24.5t66 -9.5h4q37 0 63.5 9.5t39.5 25t18.5 27t7.5 24.5h410v-4q0 -38 -13 -80.5t-48 -91.5t-87.5 -88t-140.5 -65t-198 -26h-111zM1057 440v74
l-238 -63q-40 -11 -60 -29t-20 -49v-2q0 -36 29 -63t94 -27q92 0 143.5 45.5t51.5 113.5zM1063 139q-25 -24 -64 -47.5t-102.5 -50.5t-159 -44t-205.5 -17h-12q-107 0 -193.5 20t-143.5 53t-95.5 77.5t-55 93t-16.5 100.5v41q0 60 19.5 108t64.5 89t128 67.5t202 36.5
l580 47q28 3 38.5 14t10.5 31v2q0 69 -152 69h-4q-46 0 -79.5 -7.5t-49.5 -16t-25.5 -23.5t-11 -23t-2.5 -20h-692v25q0 39 4.5 68.5t23 69.5t50.5 69.5t92 60.5t142.5 51t206.5 32.5t280 12.5h116q162 0 292.5 -13t216.5 -33t149.5 -51t97.5 -61t54 -68.5t25 -68t5 -65.5
v-395q0 -270 31 -361v-12h-739q-27 43 -27 139z" />
    <glyph glyph-name="abreve.alt2" horiz-adv-x="1955" 
d="M1161 555v16q0 45 -18.5 88t-64 76t-109.5 33h-11q-61 0 -104 -31.5t-60.5 -75.5t-17.5 -94v-10q0 -85 46 -150t134 -65h11q65 0 111 34t64.5 80.5t18.5 98.5zM1161 1102h746v-1102h-746v145q-26 -23 -60 -44t-94.5 -48.5t-151 -44t-196.5 -16.5h-45q-123 0 -224 31
t-168 82.5t-112.5 121.5t-66 145.5t-20.5 157.5v52q0 79 19.5 152.5t64.5 142.5t110.5 120.5t165 82t221.5 30.5h47q333 0 510 -129v121zM1464 1520q0 -40 -12.5 -84t-47 -95t-86.5 -90t-140.5 -65.5t-200.5 -26.5h-111q-88 0 -161 14t-123 36.5t-88 54t-60 63.5t-36 68.5
t-18.5 66t-4.5 58.5v4h413v-2q0 -12 5 -25.5t18 -29.5t42 -26.5t69 -10.5h4q39 0 66.5 10.5t40 26.5t17.5 29.5t5 25.5v2h409v-4z" />
    <glyph glyph-name="acircumflex.alt" horiz-adv-x="1849" 
d="M1260 1524l317 -348h-569l-107 133l-104 -133h-564l320 348h707zM1057 440v74l-238 -63q-40 -11 -60 -29t-20 -49v-2q0 -36 29 -63t94 -27q92 0 143.5 45.5t51.5 113.5zM1063 139q-25 -24 -64 -47.5t-102.5 -50.5t-159 -44t-205.5 -17h-12q-107 0 -193.5 20t-143.5 53
t-95.5 77.5t-55 93t-16.5 100.5v41q0 60 19.5 108t64.5 89t128 67.5t202 36.5l580 47q28 3 38.5 14t10.5 31v2q0 69 -152 69h-4q-46 0 -79.5 -7.5t-49.5 -16t-25.5 -23.5t-11 -23t-2.5 -20h-692v25q0 39 4.5 68.5t23 69.5t50.5 69.5t92 60.5t142.5 51t206.5 32.5t280 12.5
h116q162 0 292.5 -13t216.5 -33t149.5 -51t97.5 -61t54 -68.5t25 -68t5 -65.5v-395q0 -270 31 -361v-12h-739q-27 43 -27 139z" />
    <glyph glyph-name="acircumflex.alt2" horiz-adv-x="1955" 
d="M1161 555v16q0 45 -18.5 88t-64 76t-109.5 33h-11q-61 0 -104 -31.5t-60.5 -75.5t-17.5 -94v-10q0 -85 46 -150t134 -65h11q65 0 111 34t64.5 80.5t18.5 98.5zM1161 1102h746v-1102h-746v145q-26 -23 -60 -44t-94.5 -48.5t-151 -44t-196.5 -16.5h-45q-123 0 -224 31
t-168 82.5t-112.5 121.5t-66 145.5t-20.5 157.5v52q0 79 19.5 152.5t64.5 142.5t110.5 120.5t165 82t221.5 30.5h47q333 0 510 -129v121zM1315 1524l317 -359h-569l-107 144l-104 -144h-563l319 359h707z" />
    <glyph glyph-name="adieresis.alt" horiz-adv-x="1849" 
d="M1522 1524v-348h-578v348h578zM866 1524v-348h-575v348h575zM1057 440v74l-238 -63q-40 -11 -60 -29t-20 -49v-2q0 -36 29 -63t94 -27q92 0 143.5 45.5t51.5 113.5zM1063 139q-25 -24 -64 -47.5t-102.5 -50.5t-159 -44t-205.5 -17h-12q-107 0 -193.5 20t-143.5 53
t-95.5 77.5t-55 93t-16.5 100.5v41q0 60 19.5 108t64.5 89t128 67.5t202 36.5l580 47q28 3 38.5 14t10.5 31v2q0 69 -152 69h-4q-46 0 -79.5 -7.5t-49.5 -16t-25.5 -23.5t-11 -23t-2.5 -20h-692v25q0 39 4.5 68.5t23 69.5t50.5 69.5t92 60.5t142.5 51t206.5 32.5t280 12.5
h116q162 0 292.5 -13t216.5 -33t149.5 -51t97.5 -61t54 -68.5t25 -68t5 -65.5v-395q0 -270 31 -361v-12h-739q-27 43 -27 139z" />
    <glyph glyph-name="adieresis.alt2" horiz-adv-x="1955" 
d="M1161 555v16q0 45 -18.5 88t-64 76t-109.5 33h-11q-61 0 -104 -31.5t-60.5 -75.5t-17.5 -94v-10q0 -85 46 -150t134 -65h11q65 0 111 34t64.5 80.5t18.5 98.5zM1161 1102h746v-1102h-746v145q-26 -23 -60 -44t-94.5 -48.5t-151 -44t-196.5 -16.5h-45q-123 0 -224 31
t-168 82.5t-112.5 121.5t-66 145.5t-20.5 157.5v52q0 79 19.5 152.5t64.5 142.5t110.5 120.5t165 82t221.5 30.5h47q333 0 510 -129v121zM1573 1524v-359h-576v359h576zM920 1524v-359h-574v359h574z" />
    <glyph glyph-name="agrave.alt" horiz-adv-x="1849" 
d="M1237 1176h-631l-239 348h700zM1057 440v74l-238 -63q-40 -11 -60 -29t-20 -49v-2q0 -36 29 -63t94 -27q92 0 143.5 45.5t51.5 113.5zM1063 139q-25 -24 -64 -47.5t-102.5 -50.5t-159 -44t-205.5 -17h-12q-107 0 -193.5 20t-143.5 53t-95.5 77.5t-55 93t-16.5 100.5v41
q0 60 19.5 108t64.5 89t128 67.5t202 36.5l580 47q28 3 38.5 14t10.5 31v2q0 69 -152 69h-4q-46 0 -79.5 -7.5t-49.5 -16t-25.5 -23.5t-11 -23t-2.5 -20h-692v25q0 39 4.5 68.5t23 69.5t50.5 69.5t92 60.5t142.5 51t206.5 32.5t280 12.5h116q162 0 292.5 -13t216.5 -33
t149.5 -51t97.5 -61t54 -68.5t25 -68t5 -65.5v-395q0 -270 31 -361v-12h-739q-27 43 -27 139z" />
    <glyph glyph-name="agrave.alt2" horiz-adv-x="1955" 
d="M1161 555v16q0 45 -18.5 88t-64 76t-109.5 33h-11q-61 0 -104 -31.5t-60.5 -75.5t-17.5 -94v-10q0 -85 46 -150t134 -65h11q65 0 111 34t64.5 80.5t18.5 98.5zM1161 1102h746v-1102h-746v145q-26 -23 -60 -44t-94.5 -48.5t-151 -44t-196.5 -16.5h-45q-123 0 -224 31
t-168 82.5t-112.5 121.5t-66 145.5t-20.5 157.5v52q0 79 19.5 152.5t64.5 142.5t110.5 120.5t165 82t221.5 30.5h47q333 0 510 -129v121zM1274 1165h-631l-244 359h701z" />
    <glyph glyph-name="amacron.alt" horiz-adv-x="1849" 
d="M1057 440v74l-238 -63q-40 -11 -60 -29t-20 -49v-2q0 -36 29 -63t94 -27q92 0 143.5 45.5t51.5 113.5zM1063 139q-25 -24 -64 -47.5t-102.5 -50.5t-159 -44t-205.5 -17h-12q-107 0 -193.5 20t-143.5 53t-95.5 77.5t-55 93t-16.5 100.5v41q0 60 19.5 108t64.5 89t128 67.5
t202 36.5l580 47q28 3 38.5 14t10.5 31v2q0 69 -152 69h-4q-46 0 -79.5 -7.5t-49.5 -16t-25.5 -23.5t-11 -23t-2.5 -20h-692v25q0 39 4.5 68.5t23 69.5t50.5 69.5t92 60.5t142.5 51t206.5 32.5t280 12.5h116q162 0 292.5 -13t216.5 -33t149.5 -51t97.5 -61t54 -68.5t25 -68
t5 -65.5v-395q0 -270 31 -361v-12h-739q-27 43 -27 139zM391 1192v291h1043v-291h-1043z" />
    <glyph glyph-name="amacron.alt2" horiz-adv-x="1955" 
d="M1161 555v16q0 45 -18.5 88t-64 76t-109.5 33h-11q-61 0 -104 -31.5t-60.5 -75.5t-17.5 -94v-10q0 -85 46 -150t134 -65h11q65 0 111 34t64.5 80.5t18.5 98.5zM1161 1102h746v-1102h-746v145q-26 -23 -60 -44t-94.5 -48.5t-151 -44t-196.5 -16.5h-45q-123 0 -224 31
t-168 82.5t-112.5 121.5t-66 145.5t-20.5 157.5v52q0 79 19.5 152.5t64.5 142.5t110.5 120.5t165 82t221.5 30.5h47q333 0 510 -129v121zM422 1182v291h1042v-291h-1042z" />
    <glyph glyph-name="aogonek.alt" horiz-adv-x="1849" 
d="M1038 -233v10q0 82 117.5 132.5t370.5 90.5h-436q-27 43 -27 139q-25 -24 -64 -47.5t-102.5 -50.5t-159 -44t-205.5 -17h-12q-107 0 -193.5 20t-143.5 53t-95.5 77.5t-55 93t-16.5 100.5v41q0 60 19.5 108t64.5 89t128 67.5t202 36.5l580 47q28 3 38.5 14t10.5 31v2
q0 69 -152 69h-4q-46 0 -79.5 -7.5t-49.5 -16t-25.5 -23.5t-11 -23t-2.5 -20h-692v25q0 39 4.5 68.5t23 69.5t50.5 69.5t92 60.5t142.5 51t206.5 32.5t280 12.5h116q162 0 292.5 -13t216.5 -33t149.5 -51t97.5 -61t54 -68.5t25 -68t5 -65.5v-395q0 -270 31 -361v-12
q-63 -34 -96 -61t-33 -54v-2q0 -35 51 -35h78v-233h-424q-198 0 -282.5 38.5t-84.5 113.5zM1057 440v74l-238 -63q-40 -11 -60 -29t-20 -49v-2q0 -36 29 -63t94 -27q92 0 143.5 45.5t51.5 113.5z" />
    <glyph glyph-name="aogonek.alt2" horiz-adv-x="1955" 
d="M1161 1102h746v-1102q-63 -34 -96 -61t-33 -54v-2q0 -35 51 -35h78v-233h-424q-198 0 -282.5 38.5t-84.5 113.5v10q0 82 117.5 132.5t370.5 90.5h-443v145q-26 -23 -60 -44t-94.5 -48.5t-151 -44t-196.5 -16.5h-45q-123 0 -224 31t-168 82.5t-112.5 121.5t-66 145.5
t-20.5 157.5v52q0 79 19.5 152.5t64.5 142.5t110.5 120.5t165 82t221.5 30.5h47q333 0 510 -129v121zM1161 555v16q0 45 -18.5 88t-64 76t-109.5 33h-11q-61 0 -104 -31.5t-60.5 -75.5t-17.5 -94v-10q0 -85 46 -150t134 -65h11q65 0 111 34t64.5 80.5t18.5 98.5z" />
    <glyph glyph-name="aring.alt" horiz-adv-x="1849" 
d="M1057 440v74l-238 -63q-40 -11 -60 -29t-20 -49v-2q0 -36 29 -63t94 -27q92 0 143.5 45.5t51.5 113.5zM1063 139q-25 -24 -64 -47.5t-102.5 -50.5t-159 -44t-205.5 -17h-12q-107 0 -193.5 20t-143.5 53t-95.5 77.5t-55 93t-16.5 100.5v41q0 60 19.5 108t64.5 89t128 67.5
t202 36.5l580 47q28 3 38.5 14t10.5 31v2q0 69 -152 69h-4q-46 0 -79.5 -7.5t-49.5 -16t-25.5 -23.5t-11 -23t-2.5 -20h-692v25q0 39 4.5 68.5t23 69.5t50.5 69.5t92 60.5t142.5 51t206.5 32.5t280 12.5h116q162 0 292.5 -13t216.5 -33t149.5 -51t97.5 -61t54 -68.5t25 -68
t5 -65.5v-395q0 -270 31 -361v-12h-739q-27 43 -27 139zM471 1417q0 252 432 252t432 -252q0 -43 -11.5 -78t-41.5 -68t-78 -55t-124.5 -35.5t-176.5 -13.5q-125 0 -212.5 19.5t-134 56t-66 78.5t-19.5 96zM756 1419q0 -88 147 -88q148 0 148 88q0 86 -148 86
q-147 0 -147 -86z" />
    <glyph glyph-name="aring.alt2" horiz-adv-x="1955" 
d="M1161 555v16q0 45 -18.5 88t-64 76t-109.5 33h-11q-61 0 -104 -31.5t-60.5 -75.5t-17.5 -94v-10q0 -85 46 -150t134 -65h11q65 0 111 34t64.5 80.5t18.5 98.5zM1161 1102h746v-1102h-746v145q-26 -23 -60 -44t-94.5 -48.5t-151 -44t-196.5 -16.5h-45q-123 0 -224 31
t-168 82.5t-112.5 121.5t-66 145.5t-20.5 157.5v52q0 79 19.5 152.5t64.5 142.5t110.5 120.5t165 82t221.5 30.5h47q333 0 510 -129v121zM524 1407q0 252 432 252q433 0 433 -252q0 -54 -20 -96.5t-66.5 -78.5t-134.5 -55.5t-212 -19.5q-125 0 -212.5 19.5t-134 56t-66 78.5
t-19.5 96zM809 1409q0 -88 147 -88q148 0 148 88q0 86 -148 86q-147 0 -147 -86z" />
    <glyph glyph-name="aringacute.alt" horiz-adv-x="1849" 
d="M606 1706l174 358h701l-244 -358h-631zM481 1417q0 252 432 252q433 0 433 -252q0 -54 -20 -96.5t-66.5 -78.5t-134.5 -55.5t-212 -19.5q-125 0 -212.5 19.5t-134 56t-66 78.5t-19.5 96zM766 1419q0 -88 147 -88q148 0 148 88q0 86 -148 86q-147 0 -147 -86zM1057 440v74
l-238 -63q-40 -11 -60 -29t-20 -49v-2q0 -36 29 -63t94 -27q92 0 143.5 45.5t51.5 113.5zM1063 139q-25 -24 -64 -47.5t-102.5 -50.5t-159 -44t-205.5 -17h-12q-107 0 -193.5 20t-143.5 53t-95.5 77.5t-55 93t-16.5 100.5v41q0 60 19.5 108t64.5 89t128 67.5t202 36.5
l580 47q28 3 38.5 14t10.5 31v2q0 69 -152 69h-4q-46 0 -79.5 -7.5t-49.5 -16t-25.5 -23.5t-11 -23t-2.5 -20h-692v25q0 39 4.5 68.5t23 69.5t50.5 69.5t92 60.5t142.5 51t206.5 32.5t280 12.5h116q162 0 292.5 -13t216.5 -33t149.5 -51t97.5 -61t54 -68.5t25 -68t5 -65.5
v-395q0 -270 31 -361v-12h-739q-27 43 -27 139z" />
    <glyph glyph-name="aringacute.alt2" horiz-adv-x="1955" 
d="M649 1696l174 358h701l-244 -358h-631zM524 1407q0 252 432 252q433 0 433 -252q0 -54 -20 -96.5t-66.5 -78.5t-134.5 -55.5t-212 -19.5q-125 0 -212.5 19.5t-134 56t-66 78.5t-19.5 96zM809 1409q0 -88 147 -88q148 0 148 88q0 86 -148 86q-147 0 -147 -86zM1161 555v16
q0 45 -18.5 88t-64 76t-109.5 33h-11q-61 0 -104 -31.5t-60.5 -75.5t-17.5 -94v-10q0 -85 46 -150t134 -65h11q65 0 111 34t64.5 80.5t18.5 98.5zM1161 1102h746v-1102h-746v145q-26 -23 -60 -44t-94.5 -48.5t-151 -44t-196.5 -16.5h-45q-123 0 -224 31t-168 82.5
t-112.5 121.5t-66 145.5t-20.5 157.5v52q0 79 19.5 152.5t64.5 142.5t110.5 120.5t165 82t221.5 30.5h47q333 0 510 -129v121z" />
    <glyph glyph-name="atilde.alt" horiz-adv-x="1849" 
d="M1057 440v74l-238 -63q-40 -11 -60 -29t-20 -49v-2q0 -36 29 -63t94 -27q92 0 143.5 45.5t51.5 113.5zM1063 139q-25 -24 -64 -47.5t-102.5 -50.5t-159 -44t-205.5 -17h-12q-107 0 -193.5 20t-143.5 53t-95.5 77.5t-55 93t-16.5 100.5v41q0 60 19.5 108t64.5 89t128 67.5
t202 36.5l580 47q28 3 38.5 14t10.5 31v2q0 69 -152 69h-4q-46 0 -79.5 -7.5t-49.5 -16t-25.5 -23.5t-11 -23t-2.5 -20h-692v25q0 39 4.5 68.5t23 69.5t50.5 69.5t92 60.5t142.5 51t206.5 32.5t280 12.5h116q162 0 292.5 -13t216.5 -33t149.5 -51t97.5 -61t54 -68.5t25 -68
t5 -65.5v-395q0 -270 31 -361v-12h-739q-27 43 -27 139zM1186 1174q-74 0 -126.5 11.5t-170.5 49.5q-91 29 -113 29q-33 0 -33 -43v-47h-387v180q0 202 279 202h4q74 0 132.5 -12t174.5 -49q86 -27 105 -27q13 0 20.5 9.5t7.5 23.5v55h389v-153q0 -32 -4 -58t-20.5 -60
t-44.5 -56.5t-82 -38.5t-127 -16h-4z" />
    <glyph glyph-name="atilde.alt2" horiz-adv-x="1955" 
d="M1161 555v16q0 45 -18.5 88t-64 76t-109.5 33h-11q-61 0 -104 -31.5t-60.5 -75.5t-17.5 -94v-10q0 -85 46 -150t134 -65h11q65 0 111 34t64.5 80.5t18.5 98.5zM1161 1102h746v-1102h-746v145q-26 -23 -60 -44t-94.5 -48.5t-151 -44t-196.5 -16.5h-45q-123 0 -224 31
t-168 82.5t-112.5 121.5t-66 145.5t-20.5 157.5v52q0 79 19.5 152.5t64.5 142.5t110.5 120.5t165 82t221.5 30.5h47q333 0 510 -129v121zM1251 1163q-52 0 -97.5 7.5t-79 17t-120.5 37.5q-88 28 -112 28q-33 0 -33 -43v-47h-387v180q0 203 278 203h5q74 0 132.5 -12
t174.5 -49q86 -27 104 -27q13 0 21 9.5t8 23.5v55h389v-153q0 -32 -4 -58.5t-20.5 -60t-45 -56.5t-82.5 -39t-127 -16h-4z" />
    <glyph glyph-name="racute.alt" horiz-adv-x="1361" 
d="M799 322v-322h-750v1102h746v-277q159 301 528 301v-626q-99 16 -223 16q-169 0 -235 -45.5t-66 -148.5zM416 1165l174 359h700l-243 -359h-631z" />
    <glyph glyph-name="rcaron.alt" horiz-adv-x="1361" 
d="M799 322v-322h-750v1102h746v-277q159 301 528 301v-626q-99 16 -223 16q-169 0 -235 -45.5t-66 -148.5zM369 1165l-318 359h570l104 -144l106 144h564l-320 -359h-706z" />
    <glyph glyph-name="rcommaaccent.alt" horiz-adv-x="1361" 
d="M799 322v-322h-750v1102h746v-277q159 301 528 301v-626q-99 16 -223 16q-169 0 -235 -45.5t-66 -148.5zM610 -655h-331q29 42 60 118t36 113h-281v361h662v-277q0 -66 -47.5 -159t-98.5 -156z" />
    <glyph glyph-name="space_uni0326.alt" 
d="M530 1757h336q-29 -42 -60 -118t-36 -113h279v-361h-664v277q0 66 47 159t98 156z" />
    <glyph glyph-name="ordfeminine.alt" horiz-adv-x="1349" 
d="M629 985q61 0 97 31t36 76v41l-156 -41q-59 -16 -59 -54v-2q0 -51 82 -51zM768 879q-31 -20 -52.5 -31.5t-71 -32t-115.5 -31t-146 -10.5h-10q-104 0 -179 20t-114.5 54t-57.5 72.5t-18 83.5v24q0 83 77 134t263 65l367 28q51 5 51 37v2q0 47 -100 47h-3q-110 0 -110 -59
h-524v16q0 23 2.5 40t15 44t35 46.5t67 41.5t105.5 35.5t155.5 23t212.5 9.5h78q164 0 283.5 -17t181 -40.5t96.5 -59t42.5 -62t7.5 -61.5v-270q0 -153 20 -227v-10h-541q-18 30 -18 88z" />
    <glyph glyph-name="ordfeminine.alt2" horiz-adv-x="1409" 
d="M821 1159v10q0 48 -33 86.5t-96 38.5h-6q-62 0 -92.5 -37t-30.5 -90v-6q0 -56 30.5 -96.5t90.5 -40.5h6q65 0 98 40.5t33 94.5zM821 1524h545v-733h-545v100q-121 -107 -358 -107h-31q-110 0 -194 31t-132 83.5t-71 114t-23 130.5v35q0 66 22.5 126t69 112t129 83
t191.5 31h33q245 0 364 -90v84z" />
    <glyph glyph-name="caron.alt" 
d="M442 1163l21 361h526l-51 -361h-496z" />
    <glyph glyph-name="plus.uc" horiz-adv-x="1282" 
d="M1260 543h-402v-361h-436v361h-399v356h399v358h436v-358h402v-356z" />
    <glyph glyph-name="minus.uc" horiz-adv-x="1198" 
d="M23 901h1153v-360h-1153v360z" />
    <glyph glyph-name="multiply.uc" horiz-adv-x="1169" 
d="M928 160l-338 305l-334 -305l-256 284l305 279l-301 272l236 285l338 -305l333 305l258 -285l-305 -280l299 -271z" />
    <glyph glyph-name="divide.uc" horiz-adv-x="1206" 
d="M821 1329v-358h-438v358h438zM23 899h1161v-356h-1161v356zM821 467v-356h-438v356h438z" />
    <glyph glyph-name="equal.uc" horiz-adv-x="1206" 
d="M27 1090h1153v-334h-1153v334zM27 686h1153v-334h-1153v334z" />
    <glyph glyph-name="less.uc" horiz-adv-x="1120" 
d="M1096 197l-1073 315v395l1073 314v-371l-658 -143l658 -140v-370z" />
    <glyph glyph-name="greater.uc" horiz-adv-x="1079" 
d="M25 197v370l632 140l-632 143v371l1032 -314v-395z" />
    <glyph glyph-name="questiondown.uc" horiz-adv-x="2064" 
d="M758 981h731v-102q0 -29 -0.5 -46.5t-3.5 -43.5t-8.5 -42.5t-15.5 -38t-25 -36.5t-37.5 -32t-51.5 -29.5t-68 -24.5t-87 -21l-272 -53q-87 -17 -121.5 -34.5t-34.5 -43.5v-2q0 -22 14.5 -34t67.5 -19.5t155 -7.5q84 0 143.5 9t91 21.5t49.5 34t22.5 38t5.5 42.5h747v-24
q0 -38 -2 -65.5t-12 -72t-27.5 -77.5t-53 -75t-84 -72.5t-124.5 -61.5t-171 -50.5t-226.5 -32t-288.5 -12.5h-98q-178 0 -322 14t-244 37.5t-174 59t-117 73t-69 86t-34.5 91t-8.5 94.5v18q0 50 10 95.5t36.5 93.5t68 86.5t109 70.5t155.5 50l276 55q55 12 77 30t22 52v2z
M754 1049v475h735v-475h-735z" />
    <glyph glyph-name="exclamdown.uc" horiz-adv-x="1005" 
d="M1010 0h-1014l274 979h465zM870 1524v-475h-735v475h735z" />
    <glyph glyph-name="hyphen.uc" horiz-adv-x="796" 
d="M43 915h711v-438h-711v438z" />
    <glyph glyph-name="endash.uc" horiz-adv-x="1984" 
d="M43 862h1899v-334h-1899v334z" />
    <glyph glyph-name="emdash.uc" horiz-adv-x="3059" 
d="M43 862h2974v-334h-2974v334z" />
    <glyph glyph-name="guilsinglleft.uc" horiz-adv-x="763" 
d="M752 262h-512l-234 367l234 358h510l-224 -358z" />
    <glyph glyph-name="guilsinglright.uc" horiz-adv-x="763" 
d="M524 262h-512l226 367l-224 358h510l234 -358z" />
    <glyph glyph-name="guillemotleft.uc" horiz-adv-x="1271" 
d="M487 629l226 -367h-473l-234 367l234 358h471zM1049 629l211 -367h-474l-225 367l227 358h472z" />
    <glyph glyph-name="guillemotright.uc" horiz-adv-x="1271" 
d="M223 629l-211 358h473l226 -358l-224 -367h-475zM1034 262h-475l227 367l-225 358h473l232 -358z" />
    <glyph glyph-name="parenleft.uc" horiz-adv-x="825" 
d="M18 772q0 137 38.5 267t109 242.5t160.5 209t202 180.5h330q-291 -413 -291 -899q0 -145 24 -280.5t70 -255.5t90 -208t107 -194h-330q-510 417 -510 938z" />
    <glyph glyph-name="parenright.uc" horiz-adv-x="825" 
d="M807 772q0 -521 -510 -938h-330q63 106 107 194t90 208t70 255.5t24 280.5q0 486 -291 899h330q112 -84 202 -180.5t160.5 -209t109 -242.5t38.5 -267z" />
    <glyph glyph-name="bracketleft.uc" horiz-adv-x="847" 
d="M55 -166v1839h772v-272h-247v-1297h247v-270h-772z" />
    <glyph glyph-name="bracketright.uc" horiz-adv-x="847" 
d="M20 -166v270h248v1297h-248v272h773v-1839h-773z" />
    <glyph glyph-name="braceleft.uc" horiz-adv-x="903" 
d="M883 -166h-459q-358 0 -358 221q0 56 28 133.5t61 140t61 126t28 94.5q0 40 -20 59t-64 19h-154v262h154q84 0 84 61q0 34 -28 97t-61 123.5t-61 135.5t-28 130q0 237 358 237h459v-272h-195q-102 0 -102 -70q0 -29 34 -96t67.5 -142t33.5 -122q0 -86 -58 -136.5
t-194 -74.5q136 -23 194 -67t58 -118q0 -42 -21 -104t-46.5 -114t-46.5 -104.5t-21 -76.5q0 -36 24 -54t78 -18h195v-270z" />
    <glyph glyph-name="braceright.uc" horiz-adv-x="903" 
d="M479 -166h-459v270h195q100 0 100 72q0 29 -33 103.5t-66.5 158.5t-33.5 137q0 74 58 118t194 67q-137 24 -194.5 74t-57.5 137q0 47 33 122t66.5 142t33.5 96q0 70 -100 70h-195v272h459q357 0 357 -237q0 -55 -27.5 -130t-61 -135.5t-61 -123.5t-27.5 -97q0 -61 82 -61
h156v-262h-156q-44 0 -63 -19t-19 -59q0 -31 27.5 -94.5t61 -126t61 -140t27.5 -133.5q0 -221 -357 -221z" />
    <glyph glyph-name="slash.uc" horiz-adv-x="1075" 
d="M1118 1671l-635 -1837h-536l631 1837h540z" />
    <glyph glyph-name="backslash.uc" horiz-adv-x="1075" 
d="M1128 -166h-536l-633 1837h539z" />
    <glyph glyph-name="bar.uc" horiz-adv-x="704" 
d="M596 1671v-1837h-485v1837h485z" />
    <glyph glyph-name="at.uc" horiz-adv-x="2736" 
d="M1372 -201q-196 0 -363 18t-292.5 49t-227.5 77.5t-172.5 98t-123.5 117t-83.5 128t-49.5 137.5t-25 138.5t-6 137.5v25q0 72 5.5 132t22.5 134.5t46.5 135.5t81 127t121.5 117t173 98.5t230 78.5t297.5 49.5t371.5 18.5h33q258 0 463.5 -28.5t339 -72t230.5 -112.5
t147 -132t78.5 -150.5t34.5 -147.5t6 -142v-22q0 -65 -8.5 -124.5t-30 -124t-56 -118.5t-90 -103t-127.5 -83t-173.5 -54t-223.5 -20h-37q-101 0 -181 12t-125.5 27.5t-81 40.5t-49 40.5t-26.5 37.5q-26 -21 -44 -34.5t-65.5 -39.5t-95.5 -42t-124 -29t-160 -13h-27
q-98 0 -178 17.5t-132.5 48t-93 71.5t-59.5 87t-31 96t-9 98t7 92l21 139q55 383 496 383h28q315 0 490 -157l16 149h721l-94 -741q-3 -32 6 -49t43 -17q99 0 164 111t65 315v4q0 58 -1.5 90.5t-11 89.5t-27 91t-53.5 82.5t-86.5 78t-129.5 63t-179.5 52t-239.5 31
t-306 12.5h-33q-158 0 -291.5 -13.5t-234.5 -36t-182.5 -58t-138 -74t-98.5 -89t-66.5 -98.5t-39 -106.5t-19.5 -109.5t-5 -111v-23q0 -56 4.5 -103.5t18.5 -106t37 -107t64.5 -101t96.5 -93t136.5 -78.5t182 -63t235.5 -39.5t294 -14.5q209 0 384.5 15t281 33.5t202.5 50
t134.5 49t91.5 46.5l94 -192q-46 -26 -79.5 -42.5t-134.5 -49.5t-216.5 -52.5t-316 -36t-441.5 -16.5zM1470 670l9 71q11 84 -14 126t-97 42q-33 0 -56 -12.5t-36 -37t-19.5 -47.5t-11.5 -58l-14 -78q-27 -182 96 -182q34 0 59 12t39.5 28t24.5 42.5t13.5 46.5t6.5 47z" />
    <glyph glyph-name="grave.uc" 
d="M1018 1925l121 -336h-652l-194 336h725z" />
    <glyph glyph-name="dieresis.uc" 
d="M1352 1925v-336h-596v336h596zM674 1925v-336h-594v336h594z" />
    <glyph glyph-name="macron.uc" 
d="M180 1606v290h1073v-290h-1073z" />
    <glyph glyph-name="acute.uc" 
d="M295 1589l119 336h725l-193 -336h-651z" />
    <glyph glyph-name="circumflex.uc" 
d="M1065 1925l350 -338h-590l-110 119l-113 -119h-584l347 338h700z" />
    <glyph glyph-name="caron.uc" 
d="M371 1589l-353 336h590l111 -117l112 117h584l-344 -336h-700z" />
    <glyph glyph-name="breve.uc" 
d="M668 1583q-92 0 -168 15t-127 38.5t-89.5 57t-60.5 67t-35.5 72t-17.5 68t-4 59.5v4h422q0 -11 5 -25.5t17 -33.5t40.5 -32t68.5 -13h4q39 0 67 13t39.5 32t16 33.5t4.5 25.5h416v-4q0 -41 -11.5 -86t-45 -98.5t-85.5 -95t-143.5 -69.5t-208.5 -28h-104z" />
    <glyph glyph-name="dotaccent.uc" 
d="M1090 1948v-359h-746v359h746z" />
    <glyph glyph-name="ring.uc" 
d="M285 1831q0 252 436 252q126 0 214.5 -20t135 -56t66.5 -79t20 -97q0 -43 -11.5 -78t-42 -68t-78.5 -55t-125.5 -35.5t-178.5 -13.5q-102 0 -179.5 13.5t-125.5 36t-78 55.5t-41.5 68t-11.5 77zM569 1833q0 -88 152 -88q151 0 151 88q0 86 -151 86q-152 0 -152 -86z" />
    <glyph glyph-name="tilde.uc" 
d="M997 1587q-25 0 -44.5 1t-42.5 4.5t-35 5t-40.5 9.5t-38 10.5t-49.5 15t-55 16.5q-91 30 -125 30q-30 0 -30 -43v-49h-385v185q0 202 278 202h4q74 0 129 -11.5t187 -49.5q89 -27 112 -27q29 0 29 33v55h391v-157q0 -32 -4 -58.5t-21 -60t-45 -56.5t-81.5 -39t-126.5 -16
h-7z" />
    <glyph glyph-name="hungarumlaut.uc" 
d="M692 1589l117 336h604l-127 -336h-594zM20 1589l105 336h604l-117 -336h-592z" />
    <glyph glyph-name="emdash.altuc" horiz-adv-x="6033" 
d="M5990 858v-334h-5947v334h5947z" />
    <glyph glyph-name="f.short" horiz-adv-x="1228" 
d="M1202 1524v-340h-153q-34 0 -45 -13.5t-11 -46.5v-22h209v-406h-209v-696h-747v696h-230v406h230v65q0 183 106 270t336 87h514z" />
    <glyph glyph-name="f_f.short" horiz-adv-x="2263" 
d="M993 0h-747v696h-230v406h230v65q0 183 106 270t336 87h522v-340h-161q-34 0 -45 -13.5t-11 -46.5v-22h287v65q0 183 106 270t336 87h514v-340h-153q-33 0 -44 -13.5t-11 -46.5v-22h208v-406h-208v-696h-748v696h-287v-696z" />
    <glyph glyph-name="j.short" horiz-adv-x="843" 
d="M795 1524v-359h-746v359h746zM-45 -41h27q43 0 55 13t12 59v1071h746v-1151q0 -96 -22.5 -164t-62 -104t-84.5 -52t-100 -16h-571v344z" />
    </font>
</defs>
</svg>
