<?xml version="1.0" standalone="no"?>
<!DOCTYPE svg PUBLIC "-//W3C//DTD SVG 1.1//EN" "http://www.w3.org/Graphics/SVG/1.1/DTD/svg11.dtd" >
<svg xmlns="http://www.w3.org/2000/svg" xmlns:xlink="http://www.w3.org/1999/xlink" version="1.1">
<metadata>
Created by FontForge 20170731 at Sun May 23 11:50:53 2021
 By Aleksey,,,
Copyright (C)2017 Commercial Type.
</metadata>
<defs>
<font id="DrukCy-Bold" horiz-adv-x="686" >
  <font-face 
    font-family="Druk Cy Bold"
    font-weight="700"
    font-stretch="normal"
    units-per-em="2048"
    panose-1="0 0 0 0 0 0 0 0 0 0"
    ascent="1649"
    descent="-399"
    x-height="1102"
    cap-height="1524"
    bbox="-109 -440 1993 2159"
    underline-thickness="172"
    underline-position="-212"
    unicode-range="U+0020-FB04"
  />
<missing-glyph horiz-adv-x="1024" 
 />
    <glyph glyph-name="f_f" unicode="ff" horiz-adv-x="974" 
d="M563 0v858h-172v-858h-260v858h-123v244h123v270q0 61 42.5 106.5t125.5 45.5h229v-232h-96q-25 0 -33 -10.5t-8 -36.5v-143h172v270q0 61 42.5 106.5t125.5 45.5h230v-232h-97q-25 0 -33 -10.5t-8 -36.5v-143h133v-244h-133v-858h-260z" />
    <glyph glyph-name="f_i" unicode="fi" horiz-adv-x="860" 
d="M518 1524v-232h-86q-25 0 -33 -10.5t-8 -36.5v-143h127v-244h-127v-858h-260v858h-123v244h123v270q0 61 42.5 106.5t125.5 45.5h219zM827 1413v-258h-262v258h262zM827 1102v-1102h-262v1102h262z" />
    <glyph glyph-name="f_l" unicode="fl" horiz-adv-x="860" 
d="M518 1524v-232h-86q-25 0 -33 -10.5t-8 -36.5v-143h127v-244h-127v-858h-260v858h-123v244h123v270q0 61 42.5 106.5t125.5 45.5h219zM827 1524v-1524h-262v1524h262z" />
    <glyph glyph-name="emdash.alt" unicode="&#x2014;&#x2014;" horiz-adv-x="2019" 
d="M27 707h1966v-185h-1966v185z" />
    <glyph glyph-name=".notdef" horiz-adv-x="1024" 
 />
    <glyph glyph-name=".null" horiz-adv-x="0" 
 />
    <glyph glyph-name="nonmarkingreturn" horiz-adv-x="682" 
 />
    <glyph glyph-name="space" unicode=" " horiz-adv-x="210" 
 />
    <glyph glyph-name="exclam" unicode="!" horiz-adv-x="327" 
d="M14 1524h297l-96 -1182h-104zM285 295v-295h-244v295h244z" />
    <glyph glyph-name="quotedbl" unicode="&#x22;" horiz-adv-x="466" 
d="M213 1524v-391h-186v391h186zM440 1524v-391h-186v391h186z" />
    <glyph glyph-name="numbersign" unicode="#" horiz-adv-x="753" 
d="M346 0l43 508h-74l-43 -508h-184l43 508h-125l19 201h122l17 192h-125l18 201h123l37 430h186l-36 -430h71l37 430h189l-37 -430h121l-15 -201h-125l-16 -192h123l-15 -201h-125l-45 -508h-184zM334 709h72l16 192h-72z" />
    <glyph glyph-name="dollar" unicode="$" horiz-adv-x="720" 
d="M705 324q0 -160 -85.5 -253.5t-230.5 -93.5v-124h-72v124q-148 1 -224.5 83t-76.5 237v272h252v-276q0 -75 49 -92v428l-151 155q-81 84 -112 176.5t-31 223.5v47q0 157 80 234t214 77v121h72v-121q148 -3 213.5 -75.5t65.5 -223.5v-207h-238v209q0 64 -41 76v-383
l135 -141q73 -75 108 -125.5t54 -120t19 -172.5v-55zM274 1190q0 -68 8 -103.5t35 -70.5v305q-43 -12 -43 -78v-53zM446 371q0 67 -12 105t-45 77v-354q57 15 57 112v60z" />
    <glyph glyph-name="percent" unicode="%" horiz-adv-x="1003" 
d="M20 1055v262q0 105 54.5 162t148.5 57h41q94 0 147.5 -57.5t53.5 -161.5v-262q0 -103 -53.5 -162t-147.5 -59h-41q-94 0 -148.5 57.5t-54.5 163.5zM705 1524h169l-571 -1524h-170zM276 1040v293q0 41 -34 41q-33 0 -33 -41v-293q0 -41 33 -41q34 0 34 41zM539 209v262
q0 106 54 163.5t148 57.5h41q94 0 147.5 -58.5t53.5 -162.5v-262q0 -103 -53.5 -161t-147.5 -58h-41q-94 0 -148 56.5t-54 162.5zM760 154q35 0 35 41v292q0 41 -35 41q-33 0 -33 -41v-292q0 -41 33 -41z" />
    <glyph glyph-name="ampersand" unicode="&#x26;" horiz-adv-x="919" 
d="M922 188q-48 -194 -58 -225q-146 19 -217 82q-75 -68 -207 -68h-26q-187 0 -290.5 108.5t-103.5 311.5v74q0 130 51 222t146 165q-49 107 -69.5 182t-20.5 170v58q0 49 12 93.5t39.5 87t81.5 68t129 25.5h45q140 0 197 -70.5t57 -203.5v-27q0 -125 -42 -204t-165 -179
l168 -369q4 31 6.5 68t4 66t2 75t0.5 68.5v75.5v69h229q-3 -233 -24 -391.5t-70 -279.5q45 -38 125 -52zM360 1221q0 -55 10.5 -95.5t41.5 -107.5q33 46 43 87.5t10 117.5v30q0 52 -10.5 70t-40.5 18q-31 0 -42.5 -19t-11.5 -69v-32zM276 469q0 -134 47.5 -200t133.5 -66
q39 0 71 16l-223 461q-29 -74 -29 -158v-53z" />
    <glyph glyph-name="quotesingle" unicode="'" horiz-adv-x="243" 
d="M217 1524v-391h-190v391h190z" />
    <glyph glyph-name="parenleft" unicode="(" horiz-adv-x="430" 
d="M51 705q0 521 223 950h160q-62 -164 -102.5 -414.5t-40.5 -529.5q0 -277 42.5 -530.5t106.5 -448.5h-159q-230 449 -230 973z" />
    <glyph glyph-name="parenright" unicode=")" horiz-adv-x="430" 
d="M-10 -268q149 470 149 979q0 277 -40.5 527.5t-102.5 416.5h158q225 -425 225 -950q0 -532 -232 -973h-157z" />
    <glyph glyph-name="asterisk" unicode="*" horiz-adv-x="477" 
d="M295 1389l102 81l74 -124l-125 -52l123 -55l-70 -121l-104 84l16 -135h-147l18 135l-102 -84l-74 125l123 51l-125 52l74 124l102 -81l-16 135h147z" />
    <glyph glyph-name="plus" unicode="+" horiz-adv-x="696" 
d="M670 522h-221v-248h-201v248h-221v187h221v249h201v-249h221v-187z" />
    <glyph glyph-name="comma" unicode="," horiz-adv-x="296" 
d="M207 -195h-137q49 116 51 195h-94v295h243v-217q0 -144 -63 -273z" />
    <glyph glyph-name="hyphen" unicode="-" horiz-adv-x="366" 
d="M27 735h313v-248h-313v248z" />
    <glyph glyph-name="period" unicode="." horiz-adv-x="296" 
d="M270 295v-295h-243v295h243z" />
    <glyph glyph-name="slash" unicode="/" horiz-adv-x="440" 
d="M440 1655l-266 -1923h-194l268 1923h192z" />
    <glyph glyph-name="zero" unicode="0" horiz-adv-x="757" 
d="M725 1155v-817q0 -166 -85 -263.5t-234 -97.5h-62q-155 0 -233 95.5t-78 265.5v815q0 389 313 389h62q317 0 317 -387zM438 338v844q0 50 -13 72t-48 22q-34 0 -48 -22.5t-14 -71.5v-844q0 -88 60 -88q36 0 49.5 22t13.5 66z" />
    <glyph glyph-name="one" unicode="1" horiz-adv-x="489" 
d="M174 1120h-160v234q58 0 98 12.5t61.5 37.5t31.5 53t14 67h227v-1524h-272v1120z" />
    <glyph glyph-name="two" unicode="2" horiz-adv-x="735" 
d="M709 524v-524h-691v156q0 143 32.5 241.5t152.5 296.5l131 217q35 58 52.5 101t20.5 65t3 56v92q0 37 -12 53t-40 16q-29 0 -40 -15.5t-11 -53.5v-236h-256v268q0 57 14.5 105.5t46 90t87.5 65.5t131 24h55q148 0 228.5 -74t80.5 -219v-86q0 -74 -3 -113t-15.5 -90.5
t-39.5 -99.5t-75 -110q-49 -67 -149 -195q-75 -98 -113 -162.5t-42.5 -83t-4.5 -39.5v-6h190v260h267z" />
    <glyph glyph-name="three" unicode="3" horiz-adv-x="708" 
d="M289 1055h-250v196q0 56 14 105t43.5 92t84 68.5t128.5 25.5h58q150 0 224.5 -78.5t74.5 -214.5v-170q0 -172 -99 -231q113 -38 113 -174v-381q0 -146 -82 -231t-221 -85h-58q-81 0 -140.5 23t-92.5 63t-48 87t-15 102v307h266v-242q0 -71 57 -71q55 0 55 71v297
q0 36 -9 49t-42 13h-141v272h127q33 0 45 15t12 53v209q0 40 -12 54.5t-41 14.5q-27 0 -39 -15t-12 -54v-170z" />
    <glyph glyph-name="four" unicode="4" horiz-adv-x="743" 
d="M10 571q145 385 342 963h240v-934h141v-260h-141v-340h-266v340h-316v231zM326 600v371q-67 -215 -125 -371h125z" />
    <glyph glyph-name="five" unicode="5" horiz-adv-x="714" 
d="M309 678h-268v846h625v-264h-363v-302q82 144 186 144h25q86 0 128 -59t42 -140v-629q0 -124 -73.5 -210.5t-215.5 -86.5h-82q-65 0 -116.5 17t-83 44.5t-52 64t-28.5 72t-8 73.5v311h272v-252q0 -35 11 -53t40 -18q51 0 51 71v461q0 24 -2 37.5t-13 26t-32 12.5
q-15 0 -24 -6.5t-13 -19t-5 -22.5t-1 -26v-92z" />
    <glyph glyph-name="six" unicode="6" horiz-adv-x="753" 
d="M524 981h17q91 0 137.5 -59.5t46.5 -133.5v-503q0 -123 -83 -214t-228 -91h-62q-156 0 -237.5 84t-81.5 212v945q0 149 78.5 236t236.5 87h58q139 0 214.5 -73.5t75.5 -178.5v-229h-280v170q0 30 -10 44.5t-39 14.5q-52 0 -52 -59v-387q23 28 36 42t42.5 40.5t62 39.5
t68.5 13zM315 317q0 -37 13 -58t51 -21q61 0 61 79v351q0 41 -14 58t-47 17q-64 0 -64 -73v-353z" />
    <glyph glyph-name="seven" unicode="7" horiz-adv-x="665" 
d="M23 1524h626v-246q-21 -139 -90 -496q-65 -365 -65 -600v-182h-328v156q0 102 22.5 223.5t87.5 318.5q101 305 129.5 416.5t28.5 163.5h-162v-223h-249v469z" />
    <glyph glyph-name="eight" unicode="8" horiz-adv-x="735" 
d="M692 1253v-219q0 -73 -31 -124.5t-75 -78.5q121 -57 121 -215v-323q0 -142 -80 -228.5t-232 -87.5h-57q-156 0 -232.5 82.5t-76.5 235.5v321q0 150 121 215q-47 26 -77 77t-30 126v223q0 57 15.5 105.5t48.5 90t93 65.5t140 24h47q152 0 228.5 -80t76.5 -209zM420 995
v242q0 66 -53 66q-52 0 -52 -66v-240q0 -65 54 -65q51 0 51 63zM424 305v299q0 38 -13 57t-44 19q-30 0 -43 -18t-13 -58v-299q0 -67 56 -67q57 0 57 67z" />
    <glyph glyph-name="nine" unicode="9" horiz-adv-x="753" 
d="M236 539h-17q-63 0 -107.5 36t-63.5 86.5t-19 108.5v475q0 56 17 107t51 94.5t94 69.5t139 26h61q164 0 247 -82.5t83 -208.5v-983q0 -129 -75 -210t-228 -81h-62q-154 0 -226.5 64.5t-72.5 173.5v242h281v-170q0 -30 10.5 -45t40.5 -15q47 0 47 60v387
q-99 -135 -200 -135zM436 1202q0 39 -12 60.5t-51 21.5q-62 0 -62 -82v-350q0 -78 62 -78q63 0 63 76v352z" />
    <glyph glyph-name="colon" unicode=":" horiz-adv-x="305" 
d="M274 895v-291h-243v291h243zM274 295v-295h-243v295h243z" />
    <glyph glyph-name="semicolon" unicode=";" horiz-adv-x="305" 
d="M274 895v-291h-243v291h243zM211 -197h-137q49 116 51 197h-94v295h243v-217q0 -146 -63 -275z" />
    <glyph glyph-name="less" unicode="&#x3c;" horiz-adv-x="585" 
d="M559 311l-539 215v179l539 215v-193l-317 -111l317 -110v-195z" />
    <glyph glyph-name="equal" unicode="=" horiz-adv-x="677" 
d="M31 815h616v-172h-616v172zM31 588h616v-170h-616v170z" />
    <glyph glyph-name="greater" unicode="&#x3e;" horiz-adv-x="583" 
d="M27 920l536 -215v-179l-536 -215v195l317 110l-317 111v193z" />
    <glyph glyph-name="question" unicode="?" horiz-adv-x="673" 
d="M408 342h-213v262q0 74 13 117.5t56 112.5l72 114q27 42 35 79t8 95v101q0 40 -11 55.5t-40 15.5q-30 0 -41 -16t-11 -55v-234h-253v242q0 55 6.5 98t24.5 84.5t48.5 68.5t80.5 43.5t118 16.5h55q158 0 226.5 -77t68.5 -220v-106q0 -97 -18.5 -162t-73.5 -135l-100 -137
q-32 -45 -41.5 -75.5t-9.5 -99.5v-188zM424 295v-295h-244v295h244z" />
    <glyph glyph-name="at" unicode="@" horiz-adv-x="1185" 
d="M932 51l102 -121q-22 -32 -52.5 -63t-82.5 -69t-128 -61.5t-163 -23.5h-20q-55 0 -102.5 6t-106.5 26t-106 53.5t-93.5 94t-78 141t-51 200.5t-19.5 268v227q0 367 145.5 566.5t421.5 199.5h37q257 0 388.5 -156t131.5 -469v-213q0 -166 -21 -282.5t-60.5 -179.5
t-87.5 -90t-109 -27h-15q-153 0 -209 137q-73 -137 -186 -137h-10q-64 0 -114 63t-46 172l27 600q3 82 45.5 139.5t111.5 57.5h13q80 0 155 -111l4 103h252l-45 -823q0 -18 5 -27.5t22 -9.5q43 0 68.5 103t25.5 306v215q0 133 -23.5 226t-69.5 146t-107.5 76t-145.5 23h-37
q-185 0 -285.5 -151t-101.5 -461v-219q0 -120 14 -217t35.5 -161.5t54 -112.5t64.5 -74t72 -41.5t70.5 -20t66.5 -4.5h20q194 0 324 176zM616 340l27 510q2 39 -5.5 53.5t-29.5 14.5q-21 0 -28 -15.5t-9 -52.5l-26 -512q-2 -39 5 -54.5t28 -15.5q20 0 28 16.5t10 55.5z" />
    <glyph glyph-name="A" unicode="A" horiz-adv-x="706" 
d="M451 0l-27 256h-164l-27 -256h-241l192 1524h324l207 -1524h-264zM287 518h108l-55 524z" />
    <glyph glyph-name="B" unicode="B" horiz-adv-x="761" 
d="M39 0v1524h412q139 0 201.5 -62.5t62.5 -210.5v-202q0 -85 -40 -141t-89 -72q151 -39 151 -240v-254q0 -178 -62 -260t-188 -82h-448zM377 1290h-66v-362h62q36 0 54.5 20t18.5 70v190q0 42 -16 62t-53 20zM377 682h-66v-440h76q37 0 53.5 20t16.5 80v248
q0 49 -17.5 70.5t-62.5 21.5z" />
    <glyph glyph-name="C" unicode="C" horiz-adv-x="753" 
d="M387 244q68 0 68 92v336h270v-344q0 -72 -16 -132.5t-50.5 -111.5t-98 -80t-150.5 -29h-56q-76 0 -133.5 19.5t-92.5 52t-57 80.5t-30 98t-8 111v860q0 73 16.5 132.5t52.5 109t100 77t152 27.5h56q76 0 132.5 -18.5t91 -49t55.5 -75.5t28.5 -91t7.5 -102v-256h-270v246
q0 88 -70 88q-37 0 -52.5 -21t-15.5 -67v-860q0 -92 70 -92z" />
    <glyph glyph-name="D" unicode="D" horiz-adv-x="757" 
d="M39 0v1524h387q154 0 225.5 -77t71.5 -249v-860q0 -170 -68 -254t-229 -84h-387zM311 1282v-1028h54q45 0 62 24.5t17 81.5v820q0 55 -16.5 78.5t-54.5 23.5h-62z" />
    <glyph glyph-name="E" unicode="E" horiz-adv-x="636" 
d="M39 1524h569v-269h-297v-331h234v-275h-234v-375h312v-274h-584v1524z" />
    <glyph glyph-name="F" unicode="F" horiz-adv-x="638" 
d="M39 0v1524h584v-267h-312v-331h230v-275h-230v-651h-272z" />
    <glyph glyph-name="G" unicode="G" horiz-adv-x="765" 
d="M301 -20h-20q-116 0 -182 86t-66 213v907q0 74 16.5 135.5t51.5 112.5t98.5 79.5t150.5 28.5h56q78 0 135.5 -20t91.5 -51.5t54 -79.5t27 -95.5t7 -107.5v-168h-266v170q0 49 -15.5 72.5t-54.5 23.5q-68 0 -68 -96v-848q0 -98 74 -98q38 0 59 24t21 70v328h-100v256h362
v-922h-166q-17 75 -41 145q-81 -165 -225 -165z" />
    <glyph glyph-name="H" unicode="H" horiz-adv-x="765" 
d="M455 0v643h-144v-643h-272v1524h272v-582h144v582h272v-1524h-272z" />
    <glyph glyph-name="I" unicode="I" horiz-adv-x="350" 
d="M311 1524v-1524h-272v1524h272z" />
    <glyph glyph-name="J" unicode="J" horiz-adv-x="716" 
d="M23 670h262v-353q0 -67 53 -67h8q51 0 51 67v1207h283v-1215q0 -157 -76.5 -241t-212.5 -84h-90q-139 0 -208.5 70.5t-69.5 226.5v389z" />
    <glyph glyph-name="K" unicode="K" horiz-adv-x="761" 
d="M494 0l-183 645v-645h-272v1524h272v-586l178 586h269l-215 -693l237 -831h-286z" />
    <glyph glyph-name="L" unicode="L" horiz-adv-x="614" 
d="M39 1524h272v-1250h289v-274h-561v1524z" />
    <glyph glyph-name="M" unicode="M" horiz-adv-x="935" 
d="M39 0v1524h336l104 -770l105 770h313v-1524h-246v901l-135 -901h-102l-138 901v-901h-237z" />
    <glyph glyph-name="N" unicode="N" horiz-adv-x="761" 
d="M39 1524h256l186 -779v779h242v-1524h-231l-211 836v-836h-242v1524z" />
    <glyph glyph-name="O" unicode="O" horiz-adv-x="780" 
d="M748 1155v-807q0 -169 -86 -270t-238 -101h-62q-161 0 -245 96t-84 275v805q0 389 327 389h62q326 0 326 -387zM463 340v836q0 100 -72 100q-39 0 -56.5 -24t-17.5 -76v-836q0 -39 18 -64.5t58 -25.5q70 0 70 90z" />
    <glyph glyph-name="P" unicode="P" horiz-adv-x="731" 
d="M440 610h-129v-610h-272v1524h387q85 0 141 -20t86.5 -61.5t42 -93t11.5 -126.5v-305q0 -146 -65 -227t-202 -81zM311 1288v-430h51q42 0 56 22.5t14 63.5v254q0 45 -14 67.5t-56 22.5h-51z" />
    <glyph glyph-name="Q" unicode="Q" horiz-adv-x="780" 
d="M748 348q0 -144 -62.5 -239t-177.5 -121l131 -305h-340v299q-130 19 -198 112.5t-68 253.5v805q0 389 327 389h62q326 0 326 -387v-807zM463 340v836q0 100 -72 100q-39 0 -56.5 -24t-17.5 -76v-836q0 -39 18 -64.5t58 -25.5q70 0 70 90z" />
    <glyph glyph-name="R" unicode="R" horiz-adv-x="747" 
d="M311 651v-651h-272v1524h430q123 0 186.5 -65.5t63.5 -188.5v-244q0 -83 -37 -135t-84 -70q45 -16 81 -59.5t36 -120.5v-518q0 -73 22 -113v-10h-272q-25 33 -25 117v444q0 52 -15 71t-56 19h-58zM311 1288v-385h54q41 0 58 19.5t17 72.5v207q0 50 -13 68t-54 18h-62z
" />
    <glyph glyph-name="S" unicode="S" horiz-adv-x="727" 
d="M713 358q0 -176 -84 -276t-248 -100h-53q-155 0 -233.5 80.5t-78.5 234.5v274h269v-243q0 -92 69 -92q68 0 68 110v29q0 84 -15.5 129t-72.5 108l-158 174q-81 88 -113 180.5t-32 207.5v65q0 145 82.5 224t226.5 79h55q157 0 225 -72.5t68 -226.5v-205h-262v191
q0 40 -12.5 60t-46.5 20q-33 0 -46.5 -20.5t-13.5 -61.5v-35q0 -56 17.5 -99t66.5 -98l156 -174q97 -109 131.5 -197.5t34.5 -193.5v-72z" />
    <glyph glyph-name="T" unicode="T" 
d="M674 1255h-195v-1255h-272v1255h-195v269h662v-269z" />
    <glyph glyph-name="U" unicode="U" horiz-adv-x="768" 
d="M731 354q0 -184 -83.5 -280.5t-231.5 -96.5h-68q-151 0 -231 95.5t-80 281.5v1170h280v-1180q0 -94 68 -94q66 0 66 94v1180h280v-1170z" />
    <glyph glyph-name="V" unicode="V" horiz-adv-x="731" 
d="M737 1524l-194 -1524h-346l-203 1524h282l101 -1022l100 1022h260z" />
    <glyph glyph-name="W" unicode="W" horiz-adv-x="1163" 
d="M666 0l-80 838l-80 -838h-322l-190 1524h282l89 -975l96 975h260l96 -967l90 967h262l-194 -1524h-309z" />
    <glyph glyph-name="X" unicode="X" horiz-adv-x="733" 
d="M365 528l-109 -528h-266l192 815l-166 709h275l84 -457l82 457h258l-162 -709l190 -815h-274z" />
    <glyph glyph-name="Y" unicode="Y" horiz-adv-x="669" 
d="M481 600v-600h-272v590l-225 934h272l92 -541l92 541h246z" />
    <glyph glyph-name="Z" unicode="Z" horiz-adv-x="675" 
d="M37 1524h602v-242l-332 -1016h355v-266h-648v246l332 1016h-309v262z" />
    <glyph glyph-name="bracketleft" unicode="[" horiz-adv-x="401" 
d="M66 -268v1923h327v-195h-110v-1532h110v-196h-327z" />
    <glyph glyph-name="backslash" unicode="\" horiz-adv-x="440" 
d="M268 -268l-268 1923h193l268 -1923h-193z" />
    <glyph glyph-name="bracketright" unicode="]" horiz-adv-x="401" 
d="M8 1460v195h328v-1923h-328v196h111v1532h-111z" />
    <glyph glyph-name="asciicircum" unicode="^" horiz-adv-x="477" 
d="M0 887l133 637h209l135 -637h-182l-59 336l-56 -336h-180z" />
    <glyph glyph-name="underscore" unicode="_" horiz-adv-x="673" 
d="M0 -236v195h674v-195h-674z" />
    <glyph glyph-name="grave" unicode="`" horiz-adv-x="692" 
d="M412 1434l84 -279h-209l-92 279h217z" />
    <glyph glyph-name="a" unicode="a" 
d="M25 180v240q0 82 27.5 135t86.5 90q28 18 115 60.5t98 48.5q17 10 17 41v59q0 34 -11 46.5t-34 12.5h-9q-25 0 -35 -14t-10 -45v-109h-233v152q0 40 11.5 75t38 69t80 53.5t128.5 19.5h47q154 0 216.5 -63t62.5 -179v-608q0 -18 7 -24.5t31 -6.5h29v-233h-244
q-39 0 -57 29t-18 96q-29 -53 -76 -94t-111 -41h-8q-71 0 -110 56t-39 134zM369 274v269q-51 -29 -68 -51q-25 -32 -25 -84v-134q0 -65 43 -65q50 0 50 65z" />
    <glyph glyph-name="b" unicode="b" horiz-adv-x="688" 
d="M33 1524h262v-545q9 16 24 35t39 43.5t57 40.5t66 16h13q75 0 119 -58t44 -136v-693q0 -94 -58 -169.5t-144 -75.5h-4q-40 0 -72.5 13.5t-58.5 42t-40 50t-36 59.5q-8 -29 -17.5 -83.5t-9.5 -63.5h-184v1524zM295 281q0 -72 49 -72t49 67v541q0 41 -12.5 56.5t-38.5 15.5
q-47 0 -47 -72v-536z" />
    <glyph glyph-name="c" unicode="c" horiz-adv-x="651" 
d="M629 256q0 -122 -68 -200.5t-203 -78.5h-43q-148 0 -218 78t-70 209v555q0 303 284 303h51q267 0 267 -266v-182h-242v155q0 39 -10 58.5t-39 19.5q-28 0 -37.5 -18t-9.5 -58v-555q0 -34 9.5 -50.5t35.5 -16.5q49 0 49 63v222h244v-238z" />
    <glyph glyph-name="d" unicode="d" horiz-adv-x="696" 
d="M401 1524h263v-1524h-263v123q-26 -53 -73.5 -99.5t-108.5 -46.5h-4q-81 0 -132.5 69t-51.5 167v682q0 86 43.5 152.5t120.5 66.5h10q111 0 196 -135v545zM295 283q0 -76 51 -76q55 0 55 86v510q0 86 -55 86q-51 0 -51 -76v-530z" />
    <glyph glyph-name="e" unicode="e" horiz-adv-x="653" 
d="M629 240q0 -125 -77.5 -192.5t-199.5 -67.5h-49q-126 0 -201 67.5t-75 192.5v606q0 122 67.5 199t208.5 77h49q277 0 277 -280v-326h-350v-240q0 -34 11.5 -50.5t39.5 -16.5q47 0 47 67v164h252v-200zM279 846v-133h106v133q0 37 -11.5 55.5t-41.5 18.5q-33 0 -43 -18
t-10 -56z" />
    <glyph glyph-name="f" unicode="f" horiz-adv-x="552" 
d="M539 1524v-232h-101q-25 0 -33 -10.5t-8 -36.5v-143h142v-244h-142v-858h-260v858h-129v244h129v270q0 61 42.5 106.5t125.5 45.5h234z" />
    <glyph glyph-name="g" unicode="g" horiz-adv-x="692" 
d="M659 -152q0 -37 -7 -69.5t-27.5 -66t-52.5 -57.5t-86 -39t-124 -15h-36q-158 0 -221.5 53t-63.5 147v148h252v-90q0 -24 9.5 -35.5t35.5 -11.5h10q28 0 38.5 13t10.5 42v256q-77 -143 -178 -143q-81 0 -134.5 60t-53.5 155v657q0 117 45 186.5t129 69.5h2q63 0 108 -36.5
t86 -102.5v133h258v-1254zM297 262q0 -65 49 -65q24 0 37.5 18.5t13.5 48.5v553q0 70 -51 70q-49 0 -49 -68v-557z" />
    <glyph glyph-name="h" unicode="h" horiz-adv-x="696" 
d="M33 0v1524h262v-549q88 131 197 131h10q74 0 118 -48.5t44 -123.5v-934h-265v815q0 62 -51 62q-30 0 -41.5 -18t-11.5 -52v-807h-262z" />
    <glyph glyph-name="i" unicode="i" horiz-adv-x="327" 
d="M295 1413v-258h-262v258h262zM295 1102v-1102h-262v1102h262z" />
    <glyph glyph-name="j" unicode="j" horiz-adv-x="329" 
d="M297 1413v-258h-262v258h262zM-109 -141h107q21 0 29 8.5t8 34.5v1200h262v-1340q0 -62 -41.5 -104.5t-110.5 -42.5h-254v244z" />
    <glyph glyph-name="k" unicode="k" horiz-adv-x="700" 
d="M453 0l-158 489v-489h-262v1524h262v-805l154 383h249l-192 -463l207 -639h-260z" />
    <glyph glyph-name="l" unicode="l" horiz-adv-x="327" 
d="M295 1524v-1524h-262v1524h262z" />
    <glyph glyph-name="m" unicode="m" horiz-adv-x="1048" 
d="M295 803v-803h-262v1102h260v-129q89 137 188 137h8q64 0 106.5 -38.5t55.5 -96.5q91 135 197 135h10q74 0 116 -50t42 -126v-934h-262v803q0 37 -9.5 55.5t-39.5 18.5q-29 0 -39.5 -18.5t-10.5 -55.5v-803h-262v803q0 37 -10 55.5t-41 18.5q-27 0 -37 -18.5t-10 -55.5z
" />
    <glyph glyph-name="n" unicode="n" horiz-adv-x="696" 
d="M33 0v1102h260v-133q42 64 89.5 100.5t109.5 36.5h14q44 0 76.5 -18.5t49 -48.5t24.5 -59.5t8 -57.5v-922h-265v811q0 66 -51 66q-30 0 -41.5 -18.5t-11.5 -55.5v-803h-262z" />
    <glyph glyph-name="o" unicode="o" horiz-adv-x="690" 
d="M313 -20q-144 0 -215 85.5t-71 225.5v522q0 148 75.5 228.5t210.5 80.5h62q136 0 212.5 -80t76.5 -225v-522q0 -138 -78.5 -226.5t-210.5 -88.5h-62zM291 295q0 -78 53 -78q55 0 55 78v524q0 76 -55 76q-53 0 -53 -76v-524z" />
    <glyph glyph-name="p" unicode="p" horiz-adv-x="696" 
d="M33 1102h262v-121q82 133 192 133h5q86 0 130 -64.5t44 -170.5v-658q0 -107 -54.5 -175.5t-130.5 -68.5h-4q-104 0 -182 119v-481h-262v1487zM295 266q0 -35 14 -54t37 -19q51 0 51 71v559q0 70 -51 70t-51 -70v-557z" />
    <glyph glyph-name="q" unicode="q" horiz-adv-x="696" 
d="M483 1102h181v-1487h-263v506q-77 -141 -184 -141h-12q-76 0 -125 70t-49 161v635q0 55 10 100.5t32 84.5t63 61t97 22h17q36 0 67.5 -14.5t56 -42t41.5 -53t36 -62.5q23 62 32 160zM297 268q0 -71 51 -71q53 0 53 79v539q0 74 -55 74q-49 0 -49 -74v-547z" />
    <glyph glyph-name="r" unicode="r" horiz-adv-x="622" 
d="M295 825v-825h-262v1102h260v-137q57 143 174 143h12q125 0 125 -135v-400h-244v252q0 30 -6.5 42t-25.5 12t-26 -13t-7 -41z" />
    <glyph glyph-name="s" unicode="s" horiz-adv-x="610" 
d="M602 264q0 -123 -69 -202.5t-203 -79.5h-54q-135 0 -200.5 66t-65.5 173v180h242v-147q0 -61 47 -61h2q43 0 43 63v25q0 44 -11.5 74t-45.5 63l-140 133q-70 67 -96 133.5t-26 157.5v35q0 114 65.5 179.5t192.5 65.5h55q250 0 250 -209v-149h-234v115q0 57 -43 57
t-43 -57v-23q0 -36 9.5 -57t37.5 -49l146 -144q82 -82 111.5 -148t29.5 -157v-37z" />
    <glyph glyph-name="t" unicode="t" horiz-adv-x="538" 
d="M520 0h-262q-54 0 -89.5 38.5t-35.5 96.5v723h-125v244h125v364h260v-364h127v-244h-127v-565q0 -25 7 -35t32 -10h88v-248z" />
    <glyph glyph-name="u" unicode="u" 
d="M653 1102v-1102h-254v135q-44 -67 -89 -103t-109 -36h-8q-73 0 -116.5 58.5t-43.5 131.5v916h264v-809q0 -68 45 -68q51 0 51 74v803h260z" />
    <glyph glyph-name="v" unicode="v" horiz-adv-x="632" 
d="M641 1102l-180 -1102h-301l-168 1102h254l73 -703l72 703h250z" />
    <glyph glyph-name="w" unicode="w" horiz-adv-x="1011" 
d="M580 0l-70 598l-72 -598h-280l-166 1102h258l74 -682l73 682h232l73 -690l72 690h246l-168 -1102h-272z" />
    <glyph glyph-name="x" unicode="x" horiz-adv-x="636" 
d="M395 0l-78 348l-81 -348h-244l158 592l-148 510h250l72 -314l63 314h240l-140 -502l158 -600h-250z" />
    <glyph glyph-name="y" unicode="y" horiz-adv-x="636" 
d="M416 -219q-29 -166 -152 -166h-237v244h108q25 0 33.5 12t11.5 43l4 43q2 29 -2 61l-190 1084h258l76 -608l69 608h252z" />
    <glyph glyph-name="z" unicode="z" horiz-adv-x="544" 
d="M29 1102h493v-217l-254 -652h269v-233h-529v219l256 653h-235v230z" />
    <glyph glyph-name="braceleft" unicode="{" horiz-adv-x="421" 
d="M72 596h-41v205h41q34 0 47.5 17t13.5 52q0 82 -31.5 290.5t-31.5 262.5q0 115 66 173.5t188 58.5h90v-189h-43q-80 0 -80 -88q0 -46 28.5 -243.5t28.5 -249.5q0 -74 -22 -119t-82 -68q60 -23 82 -64.5t22 -109.5q0 -54 -28.5 -251.5t-28.5 -245.5q0 -109 88 -109h35
v-186h-90q-123 0 -188.5 62t-65.5 179q0 47 31.5 257t31.5 288t-61 78z" />
    <glyph glyph-name="bar" unicode="|" horiz-adv-x="342" 
d="M264 1655v-1923h-186v1923h186z" />
    <glyph glyph-name="braceright" unicode="}" horiz-adv-x="421" 
d="M348 801h43v-205h-43q-61 0 -61 -78t32.5 -288t32.5 -257q0 -117 -65.5 -179t-188.5 -62h-90v186h33q90 0 90 109q0 48 -29.5 245.5t-29.5 251.5q0 67 22.5 109t83.5 65q-61 23 -83.5 67.5t-22.5 119.5q0 52 29.5 249.5t29.5 243.5q0 88 -80 88h-43v189h90
q121 0 187.5 -58.5t66.5 -173.5q0 -54 -32.5 -262.5t-32.5 -290.5q0 -35 14 -52t47 -17z" />
    <glyph glyph-name="asciitilde" unicode="~" horiz-adv-x="573" 
d="M420 623q-43 0 -75.5 18.5t-74.5 65.5q-49 54 -59 58q-3 1 -6 1q-15 0 -15 -23v-127h-172v242q0 62 36 108t102 46q42 0 74.5 -19.5t76.5 -66.5q51 -56 62 -56q14 0 14 21v129h172v-244q0 -68 -38.5 -110.5t-96.5 -42.5z" />
    <glyph glyph-name="exclamdown" unicode="&#xa1;" horiz-adv-x="327" 
d="M311 -422h-297l97 1182h104zM41 807v295h244v-295h-244z" />
    <glyph glyph-name="cent" unicode="&#xa2;" horiz-adv-x="661" 
d="M641 256q0 -117 -67.5 -196.5t-196.5 -82.5v-131h-70v131q-141 3 -210.5 81.5t-69.5 205.5v555q0 143 69.5 223t210.5 80v131h70v-131q264 -3 264 -266v-180h-221v158q0 67 -43 79v-714q41 17 41 75v222h223v-240zM266 274q0 -61 41 -77v716q-41 -12 -41 -77v-562z" />
    <glyph glyph-name="sterling" unicode="&#xa3;" horiz-adv-x="841" 
d="M815 510v-510h-803v182q97 68 128.5 133t31.5 179q0 31 -10 141h-150v225h129q-16 144 -16 207v141q0 334 307 334h62q81 0 138 -24.5t87 -68t42.5 -92t12.5 -106.5v-262h-252v219q0 44 -12.5 65t-46.5 21q-36 0 -49 -20t-13 -66v-168q0 -58 7 -180h256v-225h-246
q0 -24 1 -64t1 -55q0 -90 -29 -153.5t-86 -122.5h256v270h254z" />
    <glyph glyph-name="yen" unicode="&#xa5;" horiz-adv-x="724" 
d="M702 446h-204v-446h-273v446h-202v172h202v54h-202v172h174l-197 680h268l99 -494l92 494h243l-178 -680h178v-172h-204v-54h204v-172z" />
    <glyph glyph-name="brokenbar" unicode="&#xa6;" horiz-adv-x="342" 
d="M264 1655v-873h-186v873h186zM264 702v-970h-186v970h186z" />
    <glyph glyph-name="section" unicode="&#xa7;" horiz-adv-x="821" 
d="M727 -92q0 -143 -76 -225t-227 -82h-64q-280 0 -280 295v213h262v-203q0 -37 13 -53.5t44 -16.5q28 0 40 17t12 57v90q0 60 -16.5 95t-72.5 83l-180 141q-99 78 -131.5 142.5t-32.5 175.5v68q0 165 168 213q-49 54 -67.5 118t-18.5 166v39q0 138 74 219.5t240 81.5h37
q156 0 223 -71t67 -228v-162h-258v158q0 42 -12 58t-43 16t-42 -18t-11 -56v-35q0 -70 15 -104t67 -78q87 -65 176 -139q107 -90 138.5 -152t31.5 -168v-49q0 -176 -174 -227q59 -62 78.5 -112t19.5 -134v-133zM455 670l-138 106q-49 -8 -49 -67v-35q-1 -43 15.5 -69.5
t70.5 -67.5l140 -109q25 5 37 22t12 60v20q0 43 -16.5 69.5t-71.5 70.5z" />
    <glyph glyph-name="dieresis" unicode="&#xa8;" horiz-adv-x="692" 
d="M322 1372v-217h-205v217h205zM575 1372v-217h-204v217h204z" />
    <glyph glyph-name="copyright" unicode="&#xa9;" horiz-adv-x="1054" 
d="M541 -23h-21q-485 0 -485 523v528q0 252 128 385t359 133h25q231 0 352 -130t121 -388v-528q0 -134 -35.5 -236t-100.5 -164t-151 -92.5t-192 -30.5zM195 530q0 -415 329 -415h17q323 0 323 415v471q0 408 -319 408h-21q-177 0 -253 -102.5t-76 -305.5v-471zM500 477
q0 -53 37 -53q34 0 34 53v219h213v-239q0 -101 -63 -166.5t-166 -65.5h-37q-116 0 -177.5 68.5t-61.5 181.5v565q0 126 58.5 194.5t174.5 68.5h45q103 0 164 -56.5t61 -179.5v-168h-213v154q0 20 -1.5 29.5t-8.5 16.5t-22 7q-22 0 -29.5 -12.5t-7.5 -40.5v-576z" />
    <glyph glyph-name="ordfeminine" unicode="&#xaa;" horiz-adv-x="413" 
d="M221 999q-15 -31 -44.5 -56t-67.5 -25q-43 0 -68 33t-25 79v109q0 46 16.5 74.5t53.5 52.5q16 10 66.5 35t58.5 30q10 7 10 25v18q0 33 -24 33h-2q-25 0 -25 -35v-41h-147v70q0 53 34.5 92t120.5 39h29q94 0 131 -37.5t37 -108.5v-309q0 -16 16 -16h23v-137h-146
q-24 0 -35.5 17t-11.5 58zM221 1206q-22 -9 -35 -22q-14 -14 -14 -47v-58q0 -35 23 -35q26 0 26 37v125z" />
    <glyph glyph-name="guillemotleft" unicode="&#xab;" horiz-adv-x="550" 
d="M205 586l102 -342h-188l-99 280v123l99 277h188zM451 586l88 -342h-191l-98 342l98 338h193z" />
    <glyph glyph-name="registered" unicode="&#xae;" horiz-adv-x="567" 
d="M295 817h-16q-118 0 -187 72.5t-69 202.5v176q0 123 68 195.5t188 72.5h18q116 0 182 -71t66 -195v-178q0 -125 -71.5 -200t-178.5 -75zM109 1102q0 -209 170 -209h16q164 0 164 209v158q0 200 -162 200h-18q-91 0 -130.5 -50.5t-39.5 -156.5v-151zM270 1147v-191h-104
v451h156q81 0 81 -82v-61q0 -46 -38 -66q38 -10 38 -59v-133q0 -25 7 -39v-11h-101q-6 15 -6 41v123q0 15 -3.5 21t-16.5 6h-13zM270 1331v-104h15q11 0 14.5 4.5t3.5 21.5v54q0 24 -18 24h-15z" />
    <glyph glyph-name="macron" unicode="&#xaf;" horiz-adv-x="692" 
d="M152 1180v178h391v-178h-391z" />
    <glyph glyph-name="degree" unicode="&#xb0;" horiz-adv-x="421" 
d="M6 1329q0 86 58.5 143.5t148.5 57.5q87 0 145 -58t58 -143t-58 -142t-145 -57q-90 0 -148.5 57t-58.5 142zM137 1331q0 -35 19 -56.5t55 -21.5q35 0 54.5 21t19.5 57q0 32 -21 54t-53 22q-35 0 -54.5 -22t-19.5 -54z" />
    <glyph glyph-name="two.sup" unicode="&#xb2;" horiz-adv-x="450" 
d="M432 1073v-250h-422v90q0 58 30.5 113t133.5 170q44 52 54 75t10 62v33q0 19 -6 27t-23 8q-27 0 -27 -35v-109h-159v117q0 70 40 116t130 46h30q105 0 149 -45.5t44 -116.5v-37q0 -70 -28.5 -119.5t-100.5 -115.5q-84 -75 -99.5 -94.5t-15.5 -44.5h109v110h151z" />
    <glyph glyph-name="three.sup" unicode="&#xb3;" horiz-adv-x="430" 
d="M178 1290h-158v74q0 84 41 128t134 44h24q92 0 136 -39.5t44 -126.5v-47q0 -46 -18.5 -74t-42.5 -37q76 -29 76 -110v-113q0 -83 -47 -129.5t-142 -46.5h-28q-179 0 -179 162v104h164v-94q0 -35 27 -35q24 0 24 35v100q0 18 -6 24.5t-20 6.5h-80v141h76q28 0 28 33v78
q0 21 -5.5 29t-20.5 8t-21 -8.5t-6 -28.5v-78z" />
    <glyph glyph-name="acute" unicode="&#xb4;" horiz-adv-x="692" 
d="M195 1155l86 279h215l-90 -279h-211z" />
    <glyph glyph-name="paragraph" unicode="&#xb6;" horiz-adv-x="763" 
d="M23 1319q0 94 61.5 149.5t165.5 55.5h510v-201h-80v-1323h-174v1323h-70v-1323h-174v700h-12q-107 0 -167 54t-60 157v408z" />
    <glyph glyph-name="periodcentered" unicode="&#xb7;" horiz-adv-x="296" 
d="M270 795v-295h-243v295h243z" />
    <glyph glyph-name="cedilla" unicode="&#xb8;" horiz-adv-x="692" 
d="M508 -227q0 -77 -54 -117.5t-143 -40.5h-125v129h103q45 0 45 35v2q0 31 -45 31h-72v188h123v-74h6q79 -3 120.5 -40t41.5 -107v-6z" />
    <glyph glyph-name="one.sup" unicode="&#xb9;" horiz-adv-x="301" 
d="M96 1307h-88v135q60 0 84 22t29 60h147v-697h-172v480z" />
    <glyph glyph-name="ordmasculine" unicode="&#xba;" horiz-adv-x="425" 
d="M231 918h-36q-84 0 -128 48t-44 140v235q0 91 45 141t127 50h36q79 0 125.5 -49t46.5 -140v-237q0 -87 -47.5 -137.5t-124.5 -50.5zM184 1096q0 -39 29 -39t29 39v260q0 39 -29 39t-29 -39v-260z" />
    <glyph glyph-name="guillemotright" unicode="&#xbb;" horiz-adv-x="548" 
d="M242 244l102 340l-102 340h190l96 -281v-121l-98 -278h-188zM10 244l90 340l-90 340h191l98 -340l-98 -340h-191z" />
    <glyph glyph-name="onequarter" unicode="&#xbc;" horiz-adv-x="768" 
d="M96 1307h-88v135q60 0 84 22t29 60h147v-697h-172v480zM563 1524h166l-547 -1524h-166zM352 121v119q112 270 176 460h170v-432h58v-147h-58v-121h-163v121h-183zM471 268h64v178q-22 -77 -64 -178z" />
    <glyph glyph-name="onehalf" unicode="&#xbd;" horiz-adv-x="866" 
d="M563 1524h166l-547 -1524h-166zM848 0h-422v90q0 58 30.5 113t133.5 170q44 52 53.5 75t9.5 62v33q0 20 -5.5 27.5t-22.5 7.5q-27 0 -27 -35v-109h-160v117q0 70 40 116t130 46h31q105 0 148.5 -45.5t43.5 -116.5v-37q0 -70 -28.5 -119.5t-100.5 -115.5q-82 -74 -98 -94
t-16 -46h108v111h152v-250zM96 1307h-88v135q60 0 84 22t29 60h147v-697h-172v480z" />
    <glyph glyph-name="threequarters" unicode="&#xbe;" horiz-adv-x="876" 
d="M461 121v119q112 270 176 460h170v-432h57v-147h-57v-121h-164v121h-182zM580 268h63v178q-25 -85 -63 -178zM672 1524h166l-547 -1524h-166zM178 1290h-158v74q0 84 41 128t134 44h24q92 0 136 -39.5t44 -126.5v-47q0 -46 -18.5 -74t-42.5 -37q76 -29 76 -110v-113
q0 -83 -47 -129.5t-142 -46.5h-28q-179 0 -179 162v104h164v-94q0 -35 27 -35q24 0 24 35v100q0 18 -6 24.5t-20 6.5h-80v141h76q28 0 28 33v78q0 21 -5.5 29t-20.5 8t-21 -8.5t-6 -28.5v-78z" />
    <glyph glyph-name="questiondown" unicode="&#xbf;" horiz-adv-x="673" 
d="M266 760h213v-262q0 -74 -13 -117.5t-56 -112.5l-72 -114q-27 -42 -35 -79t-8 -95v-101q0 -40 11 -56t40 -16q30 0 40.5 16t10.5 56v234h254v-242q0 -55 -6.5 -98t-24.5 -84.5t-48.5 -68.5t-80.5 -43.5t-118 -16.5h-56q-158 0 -226 76.5t-68 220.5v106q0 97 18.5 162
t73.5 135l100 137q32 45 41.5 75t9.5 99v189zM250 807v295h244v-295h-244z" />
    <glyph glyph-name="Agrave" unicode="&#xc0;" horiz-adv-x="706" 
d="M451 0l-27 256h-164l-27 -256h-241l192 1524h324l207 -1524h-264zM287 518h108l-55 524zM369 1812l88 -235h-213l-90 235h215z" />
    <glyph glyph-name="Aacute" unicode="&#xc1;" horiz-adv-x="706" 
d="M451 0l-27 256h-164l-27 -256h-241l192 1524h324l207 -1524h-264zM287 518h108l-55 524zM238 1577l88 235h217l-92 -235h-213z" />
    <glyph glyph-name="Acircumflex" unicode="&#xc2;" horiz-adv-x="706" 
d="M451 0l-27 256h-164l-27 -256h-241l192 1524h324l207 -1524h-264zM287 518h108l-55 524zM449 1812l135 -235h-183l-57 96l-55 -96h-183l134 235h209z" />
    <glyph glyph-name="Atilde" unicode="&#xc3;" horiz-adv-x="706" 
d="M451 0l-27 256h-164l-27 -256h-241l192 1524h324l207 -1524h-264zM287 518h108l-55 524zM276 1608v-33h-147v70q0 76 31 116.5t86 40.5q51 0 110 -26q46 -21 56 -21q12 0 12 21v32h147v-69q0 -77 -34.5 -116.5t-81.5 -39.5q-43 0 -111 29q-45 18 -51 18q-17 0 -17 -22z
" />
    <glyph glyph-name="Adieresis" unicode="&#xc4;" horiz-adv-x="706" 
d="M451 0l-27 256h-164l-27 -256h-241l192 1524h324l207 -1524h-264zM287 518h108l-55 524zM573 1794v-217h-204v217h204zM317 1794v-217h-204v217h204z" />
    <glyph glyph-name="Aring" unicode="&#xc5;" horiz-adv-x="706" 
d="M451 0l-27 256h-164l-27 -256h-241l192 1524h324l207 -1524h-264zM287 518h108l-55 524zM506 1729q0 -71 -46 -116.5t-118 -45.5t-118 45.5t-46 116.5t46 116t118 45t118 -45t46 -116zM276 1729q0 -29 18 -48.5t48 -19.5t48 19.5t18 48.5t-18 48t-48 19t-48 -19t-18 -48z
" />
    <glyph glyph-name="AE" unicode="&#xc6;" horiz-adv-x="1046" 
d="M457 0v268h-166l-45 -268h-262l286 1524h742v-271h-283v-329h219v-277h-219v-373h303v-274h-575zM336 528h121v705z" />
    <glyph glyph-name="Ccedilla" unicode="&#xc7;" horiz-adv-x="753" 
d="M561 -227q0 -77 -53.5 -117.5t-142.5 -40.5h-125v129h102q45 0 45 35v2q0 31 -45 31h-72v170q-70 12 -118 44.5t-73 82.5t-35.5 104.5t-10.5 122.5v860q0 73 16.5 132.5t52.5 109t100 77t152 27.5h56q76 0 132.5 -18.5t91 -49t55.5 -75.5t28.5 -91t7.5 -102v-256h-270
v246q0 88 -70 88q-37 0 -52.5 -21t-15.5 -67v-860q0 -92 70 -92q68 0 68 92v336h270v-344q0 -72 -16 -132.5t-50.5 -111.5t-98 -80t-150.5 -29h-17v-49h6q79 -3 120.5 -40t41.5 -107v-6z" />
    <glyph glyph-name="Egrave" unicode="&#xc8;" horiz-adv-x="636" 
d="M39 1524h569v-269h-297v-331h234v-275h-234v-375h312v-274h-584v1524zM356 1812l88 -235h-213l-90 235h215z" />
    <glyph glyph-name="Eacute" unicode="&#xc9;" horiz-adv-x="636" 
d="M39 1524h569v-269h-297v-331h234v-275h-234v-375h312v-274h-584v1524zM217 1577l88 235h217l-92 -235h-213z" />
    <glyph glyph-name="Ecircumflex" unicode="&#xca;" horiz-adv-x="636" 
d="M39 1524h569v-269h-297v-331h234v-275h-234v-375h312v-274h-584v1524zM432 1812l135 -235h-182l-57 96l-56 -96h-182l133 235h209z" />
    <glyph glyph-name="Edieresis" unicode="&#xcb;" horiz-adv-x="636" 
d="M39 1524h569v-269h-297v-331h234v-275h-234v-375h312v-274h-584v1524zM559 1794v-217h-205v217h205zM303 1794v-217h-205v217h205z" />
    <glyph glyph-name="Igrave" unicode="&#xcc;" horiz-adv-x="350" 
d="M311 1524v-1524h-272v1524h272zM195 1812l88 -235h-213l-90 235h215z" />
    <glyph glyph-name="Iacute" unicode="&#xcd;" horiz-adv-x="350" 
d="M311 1524v-1524h-272v1524h272zM68 1577l88 235h217l-92 -235h-213z" />
    <glyph glyph-name="Icircumflex" unicode="&#xce;" horiz-adv-x="350" 
d="M311 1524v-1524h-272v1524h272zM274 1808l136 -235h-183l-57 96l-55 -96h-183l134 235h208z" />
    <glyph glyph-name="Idieresis" unicode="&#xcf;" horiz-adv-x="350" 
d="M311 1524v-1524h-272v1524h272zM406 1794v-217h-205v217h205zM150 1794v-217h-205v217h205z" />
    <glyph glyph-name="Eth" unicode="&#xd0;" horiz-adv-x="763" 
d="M47 0v666h-51v241h51v617h387q154 0 225.5 -77t71.5 -249v-860q0 -170 -68 -254t-229 -84h-387zM319 1282v-375h89v-241h-89v-412h54q45 0 62.5 24.5t17.5 81.5v820q0 55 -17 78.5t-55 23.5h-62z" />
    <glyph glyph-name="Ntilde" unicode="&#xd1;" horiz-adv-x="761" 
d="M39 1524h256l186 -779v779h242v-1524h-231l-211 836v-836h-242v1524zM328 1608v-33h-148v70q0 76 31 116.5t86 40.5q52 0 111 -26q46 -21 55 -21q12 0 12 21v32h148v-69q0 -77 -35 -116.5t-82 -39.5q-43 0 -111 29q-45 18 -51 18q-16 0 -16 -22z" />
    <glyph glyph-name="Ograve" unicode="&#xd2;" horiz-adv-x="780" 
d="M410 1812l88 -233h-213l-90 233h215zM748 1155v-807q0 -169 -86 -270t-238 -101h-62q-161 0 -245 96t-84 275v805q0 389 327 389h62q326 0 326 -387zM463 340v836q0 100 -72 100q-39 0 -56.5 -24t-17.5 -76v-836q0 -39 18 -64.5t58 -25.5q70 0 70 90z" />
    <glyph glyph-name="Oacute" unicode="&#xd3;" horiz-adv-x="780" 
d="M283 1579l88 233h217l-92 -233h-213zM748 1155v-807q0 -169 -86 -270t-238 -101h-62q-161 0 -245 96t-84 275v805q0 389 327 389h62q326 0 326 -387zM463 340v836q0 100 -72 100q-39 0 -56.5 -24t-17.5 -76v-836q0 -39 18 -64.5t58 -25.5q70 0 70 90z" />
    <glyph glyph-name="Ocircumflex" unicode="&#xd4;" horiz-adv-x="780" 
d="M494 1812l135 -233h-183l-57 94l-55 -94h-182l133 233h209zM748 1155v-807q0 -169 -86 -270t-238 -101h-62q-161 0 -245 96t-84 275v805q0 389 327 389h62q326 0 326 -387zM463 340v836q0 100 -72 100q-39 0 -56.5 -24t-17.5 -76v-836q0 -39 18 -64.5t58 -25.5
q70 0 70 90z" />
    <glyph glyph-name="Otilde" unicode="&#xd5;" horiz-adv-x="780" 
d="M748 1155v-807q0 -169 -86 -270t-238 -101h-62q-161 0 -245 96t-84 275v805q0 389 327 389h62q326 0 326 -387zM463 340v836q0 100 -72 100q-39 0 -56.5 -24t-17.5 -76v-836q0 -39 18 -64.5t58 -25.5q70 0 70 90zM317 1610v-33h-147v70q0 76 31 116.5t86 40.5
q51 0 110 -26q46 -21 56 -21q12 0 12 21v32h147v-69q0 -77 -34.5 -116.5t-81.5 -39.5q-43 0 -111 29q-45 18 -51 18q-17 0 -17 -22z" />
    <glyph glyph-name="Odieresis" unicode="&#xd6;" horiz-adv-x="780" 
d="M365 1794v-215h-205v215h205zM621 1794v-215h-205v215h205zM748 1155v-807q0 -169 -86 -270t-238 -101h-62q-161 0 -245 96t-84 275v805q0 389 327 389h62q326 0 326 -387zM463 340v836q0 100 -72 100q-39 0 -56.5 -24t-17.5 -76v-836q0 -39 18 -64.5t58 -25.5
q70 0 70 90z" />
    <glyph glyph-name="multiply" unicode="&#xd7;" horiz-adv-x="636" 
d="M623 438l-129 -133l-177 178l-172 -178l-129 123l177 182l-179 181l133 135l175 -178l172 178l129 -127l-174 -181z" />
    <glyph glyph-name="Oslash" unicode="&#xd8;" horiz-adv-x="772" 
d="M739 348q0 -169 -86 -270t-237 -101h-51q-119 0 -197 72l-21 -49h-151l70 170q-33 81 -33 178v805q0 389 327 389h52q119 0 190 -65l21 47h151l-67 -172q32 -71 32 -197v-807zM309 1176v-459l154 428v31q0 100 -76 100q-42 0 -60 -24t-18 -76zM309 340q0 -90 80 -90
q74 0 74 90v467l-154 -422v-45z" />
    <glyph glyph-name="Ugrave" unicode="&#xd9;" horiz-adv-x="768" 
d="M731 354q0 -184 -83.5 -280.5t-231.5 -96.5h-68q-151 0 -231 95.5t-80 281.5v1170h280v-1180q0 -94 68 -94q66 0 66 94v1180h280v-1170zM406 1812l88 -235h-213l-91 235h216z" />
    <glyph glyph-name="Uacute" unicode="&#xda;" horiz-adv-x="768" 
d="M731 354q0 -184 -83.5 -280.5t-231.5 -96.5h-68q-151 0 -231 95.5t-80 281.5v1170h280v-1180q0 -94 68 -94q66 0 66 94v1180h280v-1170zM274 1577l88 235h218l-93 -235h-213z" />
    <glyph glyph-name="Ucircumflex" unicode="&#xdb;" horiz-adv-x="768" 
d="M731 354q0 -184 -83.5 -280.5t-231.5 -96.5h-68q-151 0 -231 95.5t-80 281.5v1170h280v-1180q0 -94 68 -94q66 0 66 94v1180h280v-1170zM487 1812l136 -235h-183l-57 96l-55 -96h-183l134 235h208z" />
    <glyph glyph-name="Udieresis" unicode="&#xdc;" horiz-adv-x="768" 
d="M731 354q0 -184 -83.5 -280.5t-231.5 -96.5h-68q-151 0 -231 95.5t-80 281.5v1170h280v-1180q0 -94 68 -94q66 0 66 94v1180h280v-1170zM614 1794v-217h-204v217h204zM358 1794v-217h-204v217h204z" />
    <glyph glyph-name="Yacute" unicode="&#xdd;" horiz-adv-x="669" 
d="M481 600v-600h-272v590l-225 934h272l92 -541l92 541h246zM233 1577l89 235h217l-93 -235h-213z" />
    <glyph glyph-name="Thorn" unicode="&#xde;" horiz-adv-x="741" 
d="M453 385h-142v-385h-272v1524h272v-307h142q137 0 201.5 -64t64.5 -209v-268q0 -291 -266 -291zM311 993v-383h64q38 0 53.5 19.5t15.5 62.5v217q0 45 -15 64.5t-56 19.5h-62z" />
    <glyph glyph-name="germandbls" unicode="&#xdf;" horiz-adv-x="692" 
d="M543 907q66 -24 96.5 -71t30.5 -136v-434q0 -136 -55 -201t-191 -65h-96v244h32q39 0 39 51v369q0 26 -8.5 37.5t-32.5 11.5h-30v241h28q39 0 39 58v225q0 61 -47 61h-12q-43 0 -43 -59v-1239h-260v1241q0 131 70 207t210 76h56q146 0 212 -68.5t66 -204.5v-176
q0 -64 -31.5 -109.5t-72.5 -58.5z" />
    <glyph glyph-name="agrave" unicode="&#xe0;" 
d="M344 1434l84 -279h-209l-92 279h217zM25 180v240q0 82 27.5 135t86.5 90q28 18 115 60.5t98 48.5q17 10 17 41v59q0 34 -11 46.5t-34 12.5h-9q-25 0 -35 -14t-10 -45v-109h-233v152q0 40 11.5 75t38 69t80 53.5t128.5 19.5h47q154 0 216.5 -63t62.5 -179v-608
q0 -18 7 -24.5t31 -6.5h29v-233h-244q-39 0 -57 29t-18 96q-29 -53 -76 -94t-111 -41h-8q-71 0 -110 56t-39 134zM369 274v269q-51 -29 -68 -51q-25 -32 -25 -84v-134q0 -65 43 -65q50 0 50 65z" />
    <glyph glyph-name="aacute" unicode="&#xe1;" 
d="M217 1155l86 279h215l-90 -279h-211zM25 180v240q0 82 27.5 135t86.5 90q28 18 115 60.5t98 48.5q17 10 17 41v59q0 34 -11 46.5t-34 12.5h-9q-25 0 -35 -14t-10 -45v-109h-233v152q0 40 11.5 75t38 69t80 53.5t128.5 19.5h47q154 0 216.5 -63t62.5 -179v-608
q0 -18 7 -24.5t31 -6.5h29v-233h-244q-39 0 -57 29t-18 96q-29 -53 -76 -94t-111 -41h-8q-71 0 -110 56t-39 134zM369 274v269q-51 -29 -68 -51q-25 -32 -25 -84v-134q0 -65 43 -65q50 0 50 65z" />
    <glyph glyph-name="acircumflex" unicode="&#xe2;" 
d="M434 1434l127 -279h-186l-49 127l-52 -127h-182l125 279h217zM25 180v240q0 82 27.5 135t86.5 90q28 18 115 60.5t98 48.5q17 10 17 41v59q0 34 -11 46.5t-34 12.5h-9q-25 0 -35 -14t-10 -45v-109h-233v152q0 40 11.5 75t38 69t80 53.5t128.5 19.5h47q154 0 216.5 -63
t62.5 -179v-608q0 -18 7 -24.5t31 -6.5h29v-233h-244q-39 0 -57 29t-18 96q-29 -53 -76 -94t-111 -41h-8q-71 0 -110 56t-39 134zM369 274v269q-51 -29 -68 -51q-25 -32 -25 -84v-134q0 -65 43 -65q50 0 50 65z" />
    <glyph glyph-name="atilde" unicode="&#xe3;" 
d="M25 180v240q0 82 27.5 135t86.5 90q28 18 115 60.5t98 48.5q17 10 17 41v59q0 34 -11 46.5t-34 12.5h-9q-25 0 -35 -14t-10 -45v-109h-233v152q0 40 11.5 75t38 69t80 53.5t128.5 19.5h47q154 0 216.5 -63t62.5 -179v-608q0 -18 7 -24.5t31 -6.5h29v-233h-244
q-39 0 -57 29t-18 96q-29 -53 -76 -94t-111 -41h-8q-71 0 -110 56t-39 134zM369 274v269q-51 -29 -68 -51q-25 -32 -25 -84v-134q0 -65 43 -65q50 0 50 65zM246 1186v-33h-148v96q0 63 30 101.5t83 38.5q7 0 13.5 -0.5t11.5 -1t12 -2t10.5 -2t11 -3.5t10.5 -4t11.5 -5
t11.5 -5.5t14 -6.5t15 -7q41 -17 47 -17q12 0 12 21v33h150v-115q0 -52 -30.5 -86.5t-80.5 -34.5q-32 0 -54 7.5t-69 31.5q-40 18 -47 18q-14 0 -14 -24z" />
    <glyph glyph-name="adieresis" unicode="&#xe4;" 
d="M25 180v240q0 82 27.5 135t86.5 90q28 18 115 60.5t98 48.5q17 10 17 41v59q0 34 -11 46.5t-34 12.5h-9q-25 0 -35 -14t-10 -45v-109h-233v152q0 40 11.5 75t38 69t80 53.5t128.5 19.5h47q154 0 216.5 -63t62.5 -179v-608q0 -18 7 -24.5t31 -6.5h29v-233h-244
q-39 0 -57 29t-18 96q-29 -53 -76 -94t-111 -41h-8q-71 0 -110 56t-39 134zM369 274v269q-51 -29 -68 -51q-25 -32 -25 -84v-134q0 -65 43 -65q50 0 50 65zM295 1372v-217h-205v217h205zM549 1372v-217h-205v217h205z" />
    <glyph glyph-name="aring" unicode="&#xe5;" 
d="M25 180v240q0 82 27.5 135t86.5 90q28 18 115 60.5t98 48.5q17 10 17 41v59q0 34 -11 46.5t-34 12.5h-9q-25 0 -35 -14t-10 -45v-109h-233v152q0 40 11.5 75t38 69t80 53.5t128.5 19.5h47q154 0 216.5 -63t62.5 -179v-608q0 -18 7 -24.5t31 -6.5h29v-233h-244
q-39 0 -57 29t-18 96q-29 -53 -76 -94t-111 -41h-8q-71 0 -110 56t-39 134zM369 274v269q-51 -29 -68 -51q-25 -32 -25 -84v-134q0 -65 43 -65q50 0 50 65zM481 1313q0 -71 -46 -116.5t-118 -45.5t-117.5 45.5t-45.5 116.5t45.5 116.5t117.5 45.5t118 -45.5t46 -116.5z
M252 1313q0 -29 17.5 -48.5t47.5 -19.5t48 19.5t18 48.5t-18 48t-48 19t-47.5 -19t-17.5 -48z" />
    <glyph glyph-name="ae" unicode="&#xe6;" horiz-adv-x="993" 
d="M971 254q0 -128 -71.5 -201t-209.5 -73h-43q-200 0 -256 149q-81 -139 -207 -139h-8q-72 0 -111.5 56t-39.5 134v201q0 82 27.5 135t86.5 90q28 18 115 60.5t98 48.5q17 10 17 41v98q0 34 -11 46.5t-34 12.5h-9q-25 0 -35 -14t-10 -45v-147h-233v190q0 40 11.5 75t38 69
t80 53.5t128.5 19.5h47q109 0 164 -55q50 63 164 63h30q132 0 201.5 -71.5t69.5 -229.5v-307h-350v-240q0 -35 11 -50t38 -15q51 0 51 65v164h250v-184zM621 854v-143h106v141q0 66 -53 66t-53 -64zM369 274v230q-51 -29 -68 -51q-25 -32 -25 -84v-95q0 -65 43 -65
q50 0 50 65z" />
    <glyph glyph-name="ccedilla" unicode="&#xe7;" horiz-adv-x="651" 
d="M516 -227q0 -77 -54 -117.5t-143 -40.5h-124v129h102q45 0 45 35v2q0 31 -45 31h-72v176q-101 22 -149.5 95t-48.5 181v555q0 303 284 303h51q267 0 267 -266v-182h-242v155q0 39 -10 58.5t-39 19.5q-28 0 -37.5 -18t-9.5 -58v-555q0 -34 9.5 -50.5t35.5 -16.5
q49 0 49 63v222h244v-238q0 -122 -68 -200.5t-203 -78.5h-10v-51h6q79 -3 120.5 -40t41.5 -107v-6z" />
    <glyph glyph-name="egrave" unicode="&#xe8;" horiz-adv-x="653" 
d="M348 1434l84 -275h-209l-92 275h217zM629 240q0 -125 -77.5 -192.5t-199.5 -67.5h-49q-126 0 -201 67.5t-75 192.5v606q0 122 67.5 199t208.5 77h49q277 0 277 -280v-326h-350v-240q0 -34 11.5 -50.5t39.5 -16.5q47 0 47 67v164h252v-200zM279 846v-133h106v133
q0 37 -11.5 55.5t-41.5 18.5q-33 0 -43 -18t-10 -56z" />
    <glyph glyph-name="eacute" unicode="&#xe9;" horiz-adv-x="653" 
d="M223 1159l86 275h215l-90 -275h-211zM629 240q0 -125 -77.5 -192.5t-199.5 -67.5h-49q-126 0 -201 67.5t-75 192.5v606q0 122 67.5 199t208.5 77h49q277 0 277 -280v-326h-350v-240q0 -34 11.5 -50.5t39.5 -16.5q47 0 47 67v164h252v-200zM279 846v-133h106v133
q0 37 -11.5 55.5t-41.5 18.5q-33 0 -43 -18t-10 -56z" />
    <glyph glyph-name="ecircumflex" unicode="&#xea;" horiz-adv-x="653" 
d="M438 1434l127 -275h-186l-49 123l-51 -123h-183l125 275h217zM629 240q0 -125 -77.5 -192.5t-199.5 -67.5h-49q-126 0 -201 67.5t-75 192.5v606q0 122 67.5 199t208.5 77h49q277 0 277 -280v-326h-350v-240q0 -34 11.5 -50.5t39.5 -16.5q47 0 47 67v164h252v-200z
M279 846v-133h106v133q0 37 -11.5 55.5t-41.5 18.5q-33 0 -43 -18t-10 -56z" />
    <glyph glyph-name="edieresis" unicode="&#xeb;" horiz-adv-x="653" 
d="M352 1122q277 0 277 -280v-326h-350v-240q0 -34 11.5 -50.5t39.5 -16.5q47 0 47 67v164h252v-200q0 -125 -77.5 -192.5t-199.5 -67.5h-49q-126 0 -201 67.5t-75 192.5v606q0 122 67.5 199t208.5 77h49zM559 1376v-217h-205v217h205zM305 1376v-217h-205v217h205zM279 846
v-133h106v133q0 37 -11.5 55.5t-41.5 18.5q-33 0 -43 -18t-10 -56z" />
    <glyph glyph-name="igrave" unicode="&#xec;" horiz-adv-x="327" 
d="M295 1102v-1102h-262v1102h262zM186 1434l84 -279h-209l-92 279h217z" />
    <glyph glyph-name="iacute" unicode="&#xed;" horiz-adv-x="327" 
d="M295 1102v-1102h-262v1102h262zM59 1155l86 279h215l-90 -279h-211z" />
    <glyph glyph-name="icircumflex" unicode="&#xee;" horiz-adv-x="327" 
d="M272 1434l107 -279h-176l-39 135l-41 -135h-174l106 279h217zM295 1102v-1102h-262v1102h262z" />
    <glyph glyph-name="idieresis" unicode="&#xef;" horiz-adv-x="327" 
d="M141 1372v-217h-190v217h190zM377 1372v-217h-191v217h191zM295 1102v-1102h-262v1102h262z" />
    <glyph glyph-name="eth" unicode="&#xf0;" horiz-adv-x="690" 
d="M664 295q0 -138 -78 -226.5t-209 -88.5h-66q-143 0 -213.5 85.5t-70.5 225.5v588q0 100 51.5 163.5t122.5 63.5h4q61 0 109.5 -31.5t101.5 -93.5l-113 229l-190 -86v176l118 54l-84 170h242l41 -80l150 67v-176l-78 -35l71 -139q54 -106 72.5 -175.5t18.5 -180.5v-510z
M291 295q0 -78 53 -78q55 0 55 78v524q0 76 -55 76q-53 0 -53 -76v-524z" />
    <glyph glyph-name="ntilde" unicode="&#xf1;" horiz-adv-x="696" 
d="M33 0v1102h260v-133q42 64 89.5 100.5t109.5 36.5h14q44 0 76.5 -18.5t49 -48.5t24.5 -59.5t8 -57.5v-922h-265v811q0 66 -51 66q-30 0 -41.5 -18.5t-11.5 -55.5v-803h-262zM274 1186v-33h-147v96q0 63 30 101.5t83 38.5q9 0 17 -1t13.5 -1.5t14.5 -3t12.5 -3.5t14 -5.5
t13.5 -6t17 -8t18 -8.5q41 -17 48 -17q12 0 12 21v33h149v-115q0 -52 -30 -86.5t-80 -34.5q-32 0 -54 7.5t-69 31.5q-40 18 -47 18q-15 0 -15 -24z" />
    <glyph glyph-name="ograve" unicode="&#xf2;" horiz-adv-x="690" 
d="M365 1434l84 -275h-209l-93 275h218zM313 -20q-144 0 -215 85.5t-71 225.5v522q0 148 75.5 228.5t210.5 80.5h62q136 0 212.5 -80t76.5 -225v-522q0 -138 -78.5 -226.5t-210.5 -88.5h-62zM291 295q0 -78 53 -78q55 0 55 78v524q0 76 -55 76q-53 0 -53 -76v-524z" />
    <glyph glyph-name="oacute" unicode="&#xf3;" horiz-adv-x="690" 
d="M240 1159l86 275h215l-90 -275h-211zM313 -20q-144 0 -215 85.5t-71 225.5v522q0 148 75.5 228.5t210.5 80.5h62q136 0 212.5 -80t76.5 -225v-522q0 -138 -78.5 -226.5t-210.5 -88.5h-62zM291 295q0 -78 53 -78q55 0 55 78v524q0 76 -55 76q-53 0 -53 -76v-524z" />
    <glyph glyph-name="ocircumflex" unicode="&#xf4;" horiz-adv-x="690" 
d="M453 1434l127 -275h-187l-49 123l-51 -123h-182l125 275h217zM313 -20q-144 0 -215 85.5t-71 225.5v522q0 148 75.5 228.5t210.5 80.5h62q136 0 212.5 -80t76.5 -225v-522q0 -138 -78.5 -226.5t-210.5 -88.5h-62zM291 295q0 -78 53 -78q55 0 55 78v524q0 76 -55 76
q-53 0 -53 -76v-524z" />
    <glyph glyph-name="otilde" unicode="&#xf5;" horiz-adv-x="690" 
d="M313 -20q-144 0 -215 85.5t-71 225.5v522q0 148 75.5 228.5t210.5 80.5h62q136 0 212.5 -80t76.5 -225v-522q0 -138 -78.5 -226.5t-210.5 -88.5h-62zM291 295q0 -78 53 -78q55 0 55 78v524q0 76 -55 76q-53 0 -53 -76v-524zM270 1190v-33h-147v96q0 63 30 101.5t83 38.5
q9 0 17 -1t13.5 -1.5t14.5 -3t12.5 -3.5t14 -5.5t13.5 -6t17 -8t18 -8.5q41 -17 47 -17q13 0 13 21v33h149v-115q0 -52 -30 -86.5t-80 -34.5q-32 0 -54 7.5t-69 31.5q-40 18 -47 18q-15 0 -15 -24z" />
    <glyph glyph-name="odieresis" unicode="&#xf6;" horiz-adv-x="690" 
d="M313 -20q-144 0 -215 85.5t-71 225.5v522q0 148 75.5 228.5t210.5 80.5h62q136 0 212.5 -80t76.5 -225v-522q0 -138 -78.5 -226.5t-210.5 -88.5h-62zM291 295q0 -78 53 -78q55 0 55 78v524q0 76 -55 76q-53 0 -53 -76v-524zM322 1376v-217h-205v217h205zM575 1376v-217
h-204v217h204z" />
    <glyph glyph-name="divide" unicode="&#xf7;" horiz-adv-x="694" 
d="M453 979v-211h-211v211h211zM27 709h641v-187h-641v187zM453 457v-211h-211v211h211z" />
    <glyph glyph-name="oslash" unicode="&#xf8;" horiz-adv-x="679" 
d="M653 295q0 -138 -77 -226.5t-209 -88.5h-54q-102 0 -174 61l-20 -41h-137l73 143q-28 60 -28 148v522q0 148 75.5 228.5t210.5 80.5h54q108 0 178 -57l20 37h135l-71 -141q24 -67 24 -144v-522zM283 821v-280l114 252v28q0 76 -57 76t-57 -76zM283 293q0 -78 57 -78
t57 78v264l-114 -248v-16z" />
    <glyph glyph-name="ugrave" unicode="&#xf9;" 
d="M371 1434l84 -279h-209l-92 279h217zM653 1102v-1102h-254v135q-44 -67 -89 -103t-109 -36h-8q-73 0 -116.5 58.5t-43.5 131.5v916h264v-809q0 -68 45 -68q51 0 51 74v803h260z" />
    <glyph glyph-name="uacute" unicode="&#xfa;" 
d="M653 1102v-1102h-254v135q-44 -67 -89 -103t-109 -36h-8q-73 0 -116.5 58.5t-43.5 131.5v916h264v-809q0 -68 45 -68q51 0 51 74v803h260zM240 1155l86 279h215l-90 -279h-211z" />
    <glyph glyph-name="ucircumflex" unicode="&#xfb;" 
d="M653 1102v-1102h-254v135q-44 -67 -89 -103t-109 -36h-8q-73 0 -116.5 58.5t-43.5 131.5v916h264v-809q0 -68 45 -68q51 0 51 74v803h260zM451 1434l127 -279h-187l-49 127l-51 -127h-182l124 279h218z" />
    <glyph glyph-name="udieresis" unicode="&#xfc;" 
d="M653 1102v-1102h-254v135q-44 -67 -89 -103t-109 -36h-8q-73 0 -116.5 58.5t-43.5 131.5v916h264v-809q0 -68 45 -68q51 0 51 74v803h260zM319 1372v-217h-204v217h204zM573 1372v-217h-204v217h204z" />
    <glyph glyph-name="yacute" unicode="&#xfd;" horiz-adv-x="636" 
d="M416 -219q-29 -166 -152 -166h-237v244h108q25 0 33.5 12t11.5 43l4 43q2 29 -2 61l-190 1084h258l76 -608l69 608h252zM211 1155l86 279h215l-90 -279h-211z" />
    <glyph glyph-name="thorn" unicode="&#xfe;" horiz-adv-x="696" 
d="M33 1524h262v-545q77 135 199 135h4q82 0 125 -64.5t43 -170.5v-658q0 -107 -54.5 -175.5t-130.5 -68.5h-4q-104 0 -182 119v-481h-262v1909zM295 266q0 -35 14 -54t37 -19q51 0 51 71v559q0 70 -51 70t-51 -70v-557z" />
    <glyph glyph-name="ydieresis" unicode="&#xff;" horiz-adv-x="636" 
d="M416 -219q-29 -166 -152 -166h-237v244h108q25 0 33.5 12t11.5 43l4 43q2 29 -2 61l-190 1084h258l76 -608l69 608h252zM297 1372v-217h-205v217h205zM551 1372v-217h-205v217h205z" />
    <glyph glyph-name="Amacron" unicode="&#x100;" horiz-adv-x="706" 
d="M451 0l-27 256h-164l-27 -256h-241l192 1524h324l207 -1524h-264zM287 518h108l-55 524zM147 1591v181h396v-181h-396z" />
    <glyph glyph-name="amacron" unicode="&#x101;" 
d="M25 180v240q0 82 27.5 135t86.5 90q28 18 115 60.5t98 48.5q17 10 17 41v59q0 34 -11 46.5t-34 12.5h-9q-25 0 -35 -14t-10 -45v-109h-233v152q0 40 11.5 75t38 69t80 53.5t128.5 19.5h47q154 0 216.5 -63t62.5 -179v-608q0 -18 7 -24.5t31 -6.5h29v-233h-244
q-39 0 -57 29t-18 96q-29 -53 -76 -94t-111 -41h-8q-71 0 -110 56t-39 134zM369 274v269q-51 -29 -68 -51q-25 -32 -25 -84v-134q0 -65 43 -65q50 0 50 65zM125 1180v178h391v-178h-391z" />
    <glyph glyph-name="Abreve" unicode="&#x102;" horiz-adv-x="706" 
d="M451 0l-27 256h-164l-27 -256h-241l192 1524h324l207 -1524h-264zM287 518h108l-55 524zM565 1782q0 -95 -63 -153t-154 -58h-8q-96 0 -157.5 57.5t-61.5 153.5v10h174v-6q0 -24 13 -38.5t34 -14.5h4q21 0 34 14.5t13 38.5v6h172v-10z" />
    <glyph glyph-name="abreve" unicode="&#x103;" 
d="M25 180v240q0 82 27.5 135t86.5 90q28 18 115 60.5t98 48.5q17 10 17 41v59q0 34 -11 46.5t-34 12.5h-9q-25 0 -35 -14t-10 -45v-109h-233v152q0 40 11.5 75t38 69t80 53.5t128.5 19.5h47q154 0 216.5 -63t62.5 -179v-608q0 -18 7 -24.5t31 -6.5h29v-233h-244
q-39 0 -57 29t-18 96q-29 -53 -76 -94t-111 -41h-8q-71 0 -110 56t-39 134zM369 274v269q-51 -29 -68 -51q-25 -32 -25 -84v-134q0 -65 43 -65q50 0 50 65zM528 1376q0 -105 -62.5 -164t-154.5 -59h-6q-98 0 -159.5 58.5t-61.5 164.5v17h174v-13q0 -67 49 -67h2
q22 0 35.5 17t13.5 50v13h170v-17z" />
    <glyph glyph-name="Aogonek" unicode="&#x104;" horiz-adv-x="706" 
d="M451 0l-27 256h-164l-27 -256h-241l192 1524h324l207 -1524h-264zM287 518h108l-55 524zM436 -254v31q0 53 38.5 105.5t113.5 117.5h127q-52 -64 -71 -100t-19 -72v-8q0 -23 13 -32t40 -9h37v-164h-119q-69 0 -114.5 34.5t-45.5 96.5z" />
    <glyph glyph-name="aogonek" unicode="&#x105;" 
d="M410 -254v31q0 53 38 105.5t113 117.5h-117q-39 0 -57 29t-18 96q-29 -53 -76 -94t-111 -41h-8q-71 0 -110 56t-39 134v240q0 82 27.5 135t86.5 90q28 18 115 60.5t98 48.5q17 10 17 41v59q0 34 -11 46.5t-34 12.5h-9q-25 0 -35 -14t-10 -45v-109h-233v152q0 40 11.5 75
t38 69t80 53.5t128.5 19.5h47q154 0 216.5 -63t62.5 -179v-608q0 -18 7 -24.5t31 -6.5h29v-233q-52 -64 -71 -100t-19 -72v-8q0 -23 13 -32t40 -9h37v-164h-119q-69 0 -114 34.5t-45 96.5zM369 274v269q-51 -29 -68 -51q-25 -32 -25 -84v-134q0 -65 43 -65q50 0 50 65z" />
    <glyph glyph-name="Cacute" unicode="&#x106;" horiz-adv-x="753" 
d="M283 1579l88 233h217l-92 -233h-213zM387 244q68 0 68 92v336h270v-344q0 -72 -16 -132.5t-50.5 -111.5t-98 -80t-150.5 -29h-56q-76 0 -133.5 19.5t-92.5 52t-57 80.5t-30 98t-8 111v860q0 73 16.5 132.5t52.5 109t100 77t152 27.5h56q76 0 132.5 -18.5t91 -49
t55.5 -75.5t28.5 -91t7.5 -102v-256h-270v246q0 88 -70 88q-37 0 -52.5 -21t-15.5 -67v-860q0 -92 70 -92z" />
    <glyph glyph-name="cacute" unicode="&#x107;" horiz-adv-x="651" 
d="M229 1159l86 275h215l-90 -275h-211zM629 256q0 -122 -68 -200.5t-203 -78.5h-43q-148 0 -218 78t-70 209v555q0 303 284 303h51q267 0 267 -266v-182h-242v155q0 39 -10 58.5t-39 19.5q-28 0 -37.5 -18t-9.5 -58v-555q0 -34 9.5 -50.5t35.5 -16.5q49 0 49 63v222h244
v-238z" />
    <glyph glyph-name="Ccircumflex" unicode="&#x108;" horiz-adv-x="753" 
d="M489 1812l136 -233h-183l-57 94l-55 -94h-183l134 233h208zM387 244q68 0 68 92v336h270v-344q0 -72 -16 -132.5t-50.5 -111.5t-98 -80t-150.5 -29h-56q-76 0 -133.5 19.5t-92.5 52t-57 80.5t-30 98t-8 111v860q0 73 16.5 132.5t52.5 109t100 77t152 27.5h56
q76 0 132.5 -18.5t91 -49t55.5 -75.5t28.5 -91t7.5 -102v-256h-270v246q0 88 -70 88q-37 0 -52.5 -21t-15.5 -67v-860q0 -92 70 -92z" />
    <glyph glyph-name="ccircumflex" unicode="&#x109;" horiz-adv-x="651" 
d="M444 1434l127 -275h-186l-49 123l-51 -123h-183l125 275h217zM629 256q0 -122 -68 -200.5t-203 -78.5h-43q-148 0 -218 78t-70 209v555q0 303 284 303h51q267 0 267 -266v-182h-242v155q0 39 -10 58.5t-39 19.5q-28 0 -37.5 -18t-9.5 -58v-555q0 -34 9.5 -50.5
t35.5 -16.5q49 0 49 63v222h244v-238z" />
    <glyph glyph-name="Cdotaccent" unicode="&#x10a;" horiz-adv-x="753" 
d="M516 1835v-256h-262v256h262zM387 244q68 0 68 92v336h270v-344q0 -72 -16 -132.5t-50.5 -111.5t-98 -80t-150.5 -29h-56q-76 0 -133.5 19.5t-92.5 52t-57 80.5t-30 98t-8 111v860q0 73 16.5 132.5t52.5 109t100 77t152 27.5h56q76 0 132.5 -18.5t91 -49t55.5 -75.5
t28.5 -91t7.5 -102v-256h-270v246q0 88 -70 88q-37 0 -52.5 -21t-15.5 -67v-860q0 -92 70 -92z" />
    <glyph glyph-name="cdotaccent" unicode="&#x10b;" horiz-adv-x="651" 
d="M467 1413v-254h-262v254h262zM629 256q0 -122 -68 -200.5t-203 -78.5h-43q-148 0 -218 78t-70 209v555q0 303 284 303h51q267 0 267 -266v-182h-242v155q0 39 -10 58.5t-39 19.5q-28 0 -37.5 -18t-9.5 -58v-555q0 -34 9.5 -50.5t35.5 -16.5q49 0 49 63v222h244v-238z" />
    <glyph glyph-name="Ccaron" unicode="&#x10c;" horiz-adv-x="753" 
d="M281 1579l-136 233h185l55 -98l55 98h183l-136 -233h-206zM387 244q68 0 68 92v336h270v-344q0 -72 -16 -132.5t-50.5 -111.5t-98 -80t-150.5 -29h-56q-76 0 -133.5 19.5t-92.5 52t-57 80.5t-30 98t-8 111v860q0 73 16.5 132.5t52.5 109t100 77t152 27.5h56
q76 0 132.5 -18.5t91 -49t55.5 -75.5t28.5 -91t7.5 -102v-256h-270v246q0 88 -70 88q-37 0 -52.5 -21t-15.5 -67v-860q0 -92 70 -92z" />
    <glyph glyph-name="ccaron" unicode="&#x10d;" horiz-adv-x="651" 
d="M229 1159l-125 275h187l49 -127l51 127h182l-124 -275h-220zM629 256q0 -122 -68 -200.5t-203 -78.5h-43q-148 0 -218 78t-70 209v555q0 303 284 303h51q267 0 267 -266v-182h-242v155q0 39 -10 58.5t-39 19.5q-28 0 -37.5 -18t-9.5 -58v-555q0 -34 9.5 -50.5t35.5 -16.5
q49 0 49 63v222h244v-238z" />
    <glyph glyph-name="Dcaron" unicode="&#x10e;" horiz-adv-x="757" 
d="M39 0v1524h387q154 0 225.5 -77t71.5 -249v-860q0 -170 -68 -254t-229 -84h-387zM311 1282v-1028h54q45 0 62 24.5t17 81.5v820q0 55 -16.5 78.5t-54.5 23.5h-62zM246 1577l-135 235h184l55 -98l56 98h182l-135 -235h-207z" />
    <glyph glyph-name="dcaron" unicode="&#x10f;" horiz-adv-x="696" 
d="M698 1217l13 307h178l-25 -307h-166zM401 1524h263v-1524h-263v123q-26 -53 -73.5 -99.5t-108.5 -46.5h-4q-81 0 -132.5 69t-51.5 167v682q0 86 43.5 152.5t120.5 66.5h10q111 0 196 -135v545zM295 283q0 -76 51 -76q55 0 55 86v510q0 86 -55 86q-51 0 -51 -76v-530z" />
    <glyph glyph-name="Dcroat" unicode="&#x110;" horiz-adv-x="763" 
d="M47 0v666h-51v241h51v617h387q154 0 225.5 -77t71.5 -249v-860q0 -170 -68 -254t-229 -84h-387zM319 1282v-375h89v-241h-89v-412h54q45 0 62.5 24.5t17.5 81.5v820q0 55 -17 78.5t-55 23.5h-62z" />
    <glyph glyph-name="dcroat" unicode="&#x111;" horiz-adv-x="696" 
d="M401 1524h263v-144h65v-186h-65v-1194h-263v123q-26 -53 -73.5 -99.5t-108.5 -46.5h-4q-81 0 -132.5 69t-51.5 167v682q0 86 43.5 152.5t120.5 66.5h10q111 0 196 -135v215h-153v186h153v144zM295 283q0 -76 51 -76q55 0 55 86v510q0 86 -55 86q-51 0 -51 -76v-530z" />
    <glyph glyph-name="Emacron" unicode="&#x112;" horiz-adv-x="636" 
d="M39 1524h569v-269h-297v-331h234v-275h-234v-375h312v-274h-584v1524zM131 1591v181h395v-181h-395z" />
    <glyph glyph-name="emacron" unicode="&#x113;" horiz-adv-x="653" 
d="M629 240q0 -125 -77.5 -192.5t-199.5 -67.5h-49q-126 0 -201 67.5t-75 192.5v606q0 122 67.5 199t208.5 77h49q277 0 277 -280v-326h-350v-240q0 -34 11.5 -50.5t39.5 -16.5q47 0 47 67v164h252v-200zM279 846v-133h106v133q0 37 -11.5 55.5t-41.5 18.5q-33 0 -43 -18
t-10 -56zM133 1184v178h391v-178h-391z" />
    <glyph glyph-name="Ebreve" unicode="&#x114;" horiz-adv-x="636" 
d="M39 1524h569v-269h-297v-331h234v-275h-234v-375h312v-274h-584v1524zM555 1782q0 -95 -63 -153t-154 -58h-8q-96 0 -157.5 57.5t-61.5 153.5v10h174v-6q0 -24 13 -38.5t34 -14.5h4q21 0 34 14.5t13 38.5v6h172v-10z" />
    <glyph glyph-name="ebreve" unicode="&#x115;" horiz-adv-x="653" 
d="M629 240q0 -125 -77.5 -192.5t-199.5 -67.5h-49q-126 0 -201 67.5t-75 192.5v606q0 122 67.5 199t208.5 77h49q277 0 277 -280v-326h-350v-240q0 -34 11.5 -50.5t39.5 -16.5q47 0 47 67v164h252v-200zM279 846v-133h106v133q0 37 -11.5 55.5t-41.5 18.5q-33 0 -43 -18
t-10 -56zM551 1380q0 -105 -62.5 -164t-154.5 -59h-6q-98 0 -160 58.5t-62 164.5v17h175v-13q0 -67 49 -67h2q22 0 35.5 17t13.5 50v13h170v-17z" />
    <glyph glyph-name="Edotaccent" unicode="&#x116;" horiz-adv-x="636" 
d="M39 1524h569v-269h-297v-331h234v-275h-234v-375h312v-274h-584v1524zM465 1835v-258h-262v258h262z" />
    <glyph glyph-name="edotaccent" unicode="&#x117;" horiz-adv-x="653" 
d="M459 1413v-254h-262v254h262zM629 240q0 -125 -77.5 -192.5t-199.5 -67.5h-49q-126 0 -201 67.5t-75 192.5v606q0 122 67.5 199t208.5 77h49q277 0 277 -280v-326h-350v-240q0 -34 11.5 -50.5t39.5 -16.5q47 0 47 67v164h252v-200zM279 846v-133h106v133q0 37 -11.5 55.5
t-41.5 18.5q-33 0 -43 -18t-10 -56z" />
    <glyph glyph-name="Eogonek" unicode="&#x118;" horiz-adv-x="636" 
d="M252 -254v31q0 53 38 105.5t113 117.5h-364v1524h569v-269h-297v-331h234v-275h-234v-375h312v-274h-93q-52 -64 -71 -100t-19 -72v-8q0 -41 54 -41h36v-164h-118q-69 0 -114.5 34.5t-45.5 96.5z" />
    <glyph glyph-name="eogonek" unicode="&#x119;" horiz-adv-x="653" 
d="M522 -221v-164h-119q-69 0 -114 34.5t-45 96.5v31q0 51 33.5 98t101.5 107q-8 -2 -27 -2h-49q-126 0 -201 67.5t-75 192.5v606q0 122 67.5 199t208.5 77h49q277 0 277 -280v-326h-350v-240q0 -34 11.5 -50.5t39.5 -16.5q47 0 47 67v164h252v-192q0 -44 -6 -76t-25.5 -66
t-30.5 -49t-47 -59q-50 -63 -69 -98.5t-19 -71.5v-8q0 -23 13 -32t40 -9h37zM279 846v-133h106v133q0 37 -11.5 55.5t-41.5 18.5q-33 0 -43 -18t-10 -56z" />
    <glyph glyph-name="Ecaron" unicode="&#x11a;" horiz-adv-x="636" 
d="M39 1524h569v-269h-297v-331h234v-275h-234v-375h312v-274h-584v1524zM229 1577l-135 235h185l55 -98l55 98h182l-135 -235h-207z" />
    <glyph glyph-name="ecaron" unicode="&#x11b;" horiz-adv-x="653" 
d="M221 1159l-125 275h187l49 -127l51 127h182l-125 -275h-219zM629 240q0 -125 -77.5 -192.5t-199.5 -67.5h-49q-126 0 -201 67.5t-75 192.5v606q0 122 67.5 199t208.5 77h49q277 0 277 -280v-326h-350v-240q0 -34 11.5 -50.5t39.5 -16.5q47 0 47 67v164h252v-200zM279 846
v-133h106v133q0 37 -11.5 55.5t-41.5 18.5q-33 0 -43 -18t-10 -56z" />
    <glyph glyph-name="Gcircumflex" unicode="&#x11c;" horiz-adv-x="765" 
d="M487 1812l136 -233h-183l-57 94l-55 -94h-183l134 233h208zM301 -20h-20q-116 0 -182 86t-66 213v907q0 74 16.5 135.5t51.5 112.5t98.5 79.5t150.5 28.5h56q78 0 135.5 -20t91.5 -51.5t54 -79.5t27 -95.5t7 -107.5v-168h-266v170q0 49 -15.5 72.5t-54.5 23.5
q-68 0 -68 -96v-848q0 -98 74 -98q38 0 59 24t21 70v328h-100v256h362v-922h-166q-17 75 -41 145q-81 -165 -225 -165z" />
    <glyph glyph-name="gcircumflex" unicode="&#x11d;" horiz-adv-x="692" 
d="M659 -152q0 -37 -7 -69.5t-27.5 -66t-52.5 -57.5t-86 -39t-124 -15h-36q-158 0 -221.5 53t-63.5 147v148h252v-90q0 -24 9.5 -35.5t35.5 -11.5h10q28 0 38.5 13t10.5 42v256q-77 -143 -178 -143q-81 0 -134.5 60t-53.5 155v657q0 117 45 186.5t129 69.5h2q63 0 108 -36.5
t86 -102.5v133h258v-1254zM297 262q0 -65 49 -65q24 0 37.5 18.5t13.5 48.5v553q0 70 -51 70q-49 0 -49 -68v-557zM451 1434l127 -279h-187l-49 127l-51 -127h-182l124 279h218z" />
    <glyph glyph-name="Gbreve" unicode="&#x11e;" horiz-adv-x="765" 
d="M301 -20h-20q-116 0 -182 86t-66 213v907q0 74 16.5 135.5t51.5 112.5t98.5 79.5t150.5 28.5h56q78 0 135.5 -20t91.5 -51.5t54 -79.5t27 -95.5t7 -107.5v-168h-266v170q0 49 -15.5 72.5t-54.5 23.5q-68 0 -68 -96v-848q0 -98 74 -98q38 0 59 24t21 70v328h-100v256h362
v-922h-166q-17 75 -41 145q-81 -165 -225 -165zM602 1784q0 -95 -63 -153t-154 -58h-8q-96 0 -157.5 57.5t-61.5 153.5v10h174v-6q0 -24 13 -38.5t34 -14.5h4q21 0 34 14.5t13 38.5v6h172v-10z" />
    <glyph glyph-name="gbreve" unicode="&#x11f;" horiz-adv-x="692" 
d="M659 -152q0 -37 -7 -69.5t-27.5 -66t-52.5 -57.5t-86 -39t-124 -15h-36q-158 0 -221.5 53t-63.5 147v148h252v-90q0 -24 9.5 -35.5t35.5 -11.5h10q28 0 38.5 13t10.5 42v256q-77 -143 -178 -143q-81 0 -134.5 60t-53.5 155v657q0 117 45 186.5t129 69.5h2q63 0 108 -36.5
t86 -102.5v133h258v-1254zM297 262q0 -65 49 -65q24 0 37.5 18.5t13.5 48.5v553q0 70 -51 70q-49 0 -49 -68v-557zM565 1376q0 -105 -62.5 -164t-154.5 -59h-6q-98 0 -159.5 58.5t-61.5 164.5v17h174v-13q0 -67 49 -67h2q22 0 35.5 17t13.5 50v13h170v-17z" />
    <glyph glyph-name="Gdotaccent" unicode="&#x120;" horiz-adv-x="765" 
d="M520 1835v-256h-262v256h262zM301 -20h-20q-116 0 -182 86t-66 213v907q0 74 16.5 135.5t51.5 112.5t98.5 79.5t150.5 28.5h56q78 0 135.5 -20t91.5 -51.5t54 -79.5t27 -95.5t7 -107.5v-168h-266v170q0 49 -15.5 72.5t-54.5 23.5q-68 0 -68 -96v-848q0 -98 74 -98
q38 0 59 24t21 70v328h-100v256h362v-922h-166q-17 75 -41 145q-81 -165 -225 -165z" />
    <glyph glyph-name="gdotaccent" unicode="&#x121;" horiz-adv-x="692" 
d="M659 -152q0 -37 -7 -69.5t-27.5 -66t-52.5 -57.5t-86 -39t-124 -15h-36q-158 0 -221.5 53t-63.5 147v148h252v-90q0 -24 9.5 -35.5t35.5 -11.5h10q28 0 38.5 13t10.5 42v256q-77 -143 -178 -143q-81 0 -134.5 60t-53.5 155v657q0 117 45 186.5t129 69.5h2q63 0 108 -36.5
t86 -102.5v133h258v-1254zM297 262q0 -65 49 -65q24 0 37.5 18.5t13.5 48.5v553q0 70 -51 70q-49 0 -49 -68v-557zM475 1413v-258h-262v258h262z" />
    <glyph glyph-name="uni0122" unicode="&#x122;" horiz-adv-x="765" 
d="M301 -20h-20q-116 0 -182 86t-66 213v907q0 74 16.5 135.5t51.5 112.5t98.5 79.5t150.5 28.5h56q78 0 135.5 -20t91.5 -51.5t54 -79.5t27 -95.5t7 -107.5v-168h-266v170q0 49 -15.5 72.5t-54.5 23.5q-68 0 -68 -96v-848q0 -98 74 -98q38 0 59 24t21 70v328h-100v256h362
v-922h-166q-17 75 -41 145q-81 -165 -225 -165zM449 -416h-105q24 67 29 137h-88v226h209v-144q0 -103 -45 -219z" />
    <glyph glyph-name="uni0123" unicode="&#x123;" horiz-adv-x="692" 
d="M659 -152q0 -37 -7 -69.5t-27.5 -66t-52.5 -57.5t-86 -39t-124 -15h-36q-158 0 -221.5 53t-63.5 147v148h252v-90q0 -24 9.5 -35.5t35.5 -11.5h10q28 0 38.5 13t10.5 42v256q-77 -143 -178 -143q-81 0 -134.5 60t-53.5 155v657q0 117 45 186.5t129 69.5h2q63 0 108 -36.5
t86 -102.5v133h258v-1254zM297 262q0 -65 49 -65q24 0 37.5 18.5t13.5 48.5v553q0 70 -51 70q-49 0 -49 -68v-557zM281 1520h108q-25 -89 -29 -142h86v-223h-210v141q0 124 45 224z" />
    <glyph glyph-name="Hcircumflex" unicode="&#x124;" horiz-adv-x="765" 
d="M455 0v643h-144v-643h-272v1524h272v-582h144v582h272v-1524h-272zM487 1812l136 -235h-183l-57 96l-55 -96h-183l134 235h208z" />
    <glyph glyph-name="hcircumflex" unicode="&#x125;" horiz-adv-x="696" 
d="M33 0v1524h262v-549q88 131 197 131h10q74 0 118 -48.5t44 -123.5v-934h-265v815q0 62 -51 62q-30 0 -41.5 -18t-11.5 -52v-807h-262zM428 1812l135 -235h-182l-57 96l-56 -96h-182l133 235h209z" />
    <glyph glyph-name="Hbar" unicode="&#x126;" horiz-adv-x="765" 
d="M-12 1126v207h51v191h272v-191h144v191h272v-191h53v-207h-53v-1126h-272v643h-144v-643h-272v1126h-51zM311 942h144v184h-144v-184z" />
    <glyph glyph-name="hbar" unicode="&#x127;" horiz-adv-x="696" 
d="M295 807v-807h-262v1194h-66v186h66v144h262v-144h154v-186h-154v-219q88 131 197 131h10q74 0 118 -48.5t44 -123.5v-934h-265v815q0 62 -51 62q-30 0 -41.5 -18t-11.5 -52z" />
    <glyph glyph-name="Itilde" unicode="&#x128;" horiz-adv-x="350" 
d="M311 1524v-1524h-272v1524h272zM102 1608v-33h-147v70q0 76 31 116.5t86 40.5q51 0 110 -26q46 -21 56 -21q12 0 12 21v32h147v-69q0 -77 -34.5 -116.5t-81.5 -39.5q-43 0 -111 29q-45 18 -51 18q-17 0 -17 -22z" />
    <glyph glyph-name="itilde" unicode="&#x129;" horiz-adv-x="331" 
d="M106 1190v-37h-139v117q0 58 25 86t65 28q50 0 121 -36q31 -15 37 -15q10 0 10 21v35h140v-136q0 -45 -26 -71.5t-63 -26.5q-29 0 -52 8.5t-68 32.5q-33 16 -39 16q-11 0 -11 -22zM297 1102v-1102h-262v1102h262z" />
    <glyph glyph-name="Imacron" unicode="&#x12a;" horiz-adv-x="350" 
d="M311 1524v-1524h-272v1524h272zM-23 1591v181h396v-181h-396z" />
    <glyph glyph-name="imacron" unicode="&#x12b;" horiz-adv-x="327" 
d="M-12 1180v180h352v-180h-352zM295 1102v-1102h-262v1102h262z" />
    <glyph glyph-name="Ibreve" unicode="&#x12c;" horiz-adv-x="350" 
d="M311 1524v-1524h-272v1524h272zM397 1782q0 -95 -63 -153t-154 -58h-8q-96 0 -157.5 57.5t-61.5 153.5v10h174v-6q0 -24 13 -38.5t34 -14.5h4q21 0 34 14.5t13 38.5v6h172v-10z" />
    <glyph glyph-name="ibreve" unicode="&#x12d;" horiz-adv-x="327" 
d="M360 1346q0 -88 -46 -140.5t-144 -52.5h-8q-195 0 -195 193v47h164v-33q0 -47 35 -47t35 47v33h159v-47zM295 1102v-1102h-262v1102h262z" />
    <glyph glyph-name="Iogonek" unicode="&#x12e;" horiz-adv-x="350" 
d="M33 -254v31q0 53 38 105.5t113 117.5h-145v1524h272v-1524q-52 -64 -71 -100t-19 -72v-8q0 -23 13 -32t40 -9h37v-164h-118q-69 0 -114.5 34.5t-45.5 96.5z" />
    <glyph glyph-name="iogonek" unicode="&#x12f;" horiz-adv-x="327" 
d="M16 -254v31q0 53 38.5 105.5t113.5 117.5h-135v1102h262v-1102q-52 -64 -71 -100t-19 -72v-8q0 -23 13 -32t40 -9h37v-164h-119q-69 0 -114.5 34.5t-45.5 96.5zM295 1413v-258h-262v258h262z" />
    <glyph glyph-name="Idotaccent" unicode="&#x130;" horiz-adv-x="350" 
d="M311 1524v-1524h-272v1524h272zM307 1835v-258h-262v258h262z" />
    <glyph glyph-name="dotlessi" unicode="&#x131;" horiz-adv-x="327" 
d="M295 1102v-1102h-262v1102h262z" />
    <glyph glyph-name="IJ" unicode="&#x132;" horiz-adv-x="1067" 
d="M311 1524v-1524h-272v1524h272zM373 670h262v-353q0 -67 53 -67h8q52 0 52 67v1207h282v-1215q0 -157 -76.5 -241t-212.5 -84h-90q-139 0 -208.5 70.5t-69.5 226.5v389z" />
    <glyph glyph-name="ij" unicode="&#x133;" horiz-adv-x="657" 
d="M295 1413v-258h-262v258h262zM295 1102v-1102h-262v1102h262zM625 1413v-258h-263v258h263zM219 -141h107q21 0 28.5 8.5t7.5 34.5v1200h263v-1340q0 -62 -41.5 -104.5t-110.5 -42.5h-254v244z" />
    <glyph glyph-name="Jcircumflex" unicode="&#x134;" horiz-adv-x="716" 
d="M23 670h262v-353q0 -67 53 -67h8q51 0 51 67v1207h283v-1215q0 -157 -76.5 -241t-212.5 -84h-90q-139 0 -208.5 70.5t-69.5 226.5v389zM635 1812l135 -235h-182l-58 96l-55 -96h-182l133 235h209z" />
    <glyph glyph-name="jcircumflex" unicode="&#x135;" horiz-adv-x="329" 
d="M270 1434l107 -279h-176l-39 135l-41 -135h-174l106 279h217zM-109 -141h107q21 0 29 8.5t8 34.5v1200h262v-1340q0 -62 -41.5 -104.5t-110.5 -42.5h-254v244z" />
    <glyph glyph-name="uni0136" unicode="&#x136;" horiz-adv-x="761" 
d="M494 0l-183 645v-645h-272v1524h272v-586l178 586h269l-215 -693l237 -831h-286zM465 -416h-105q24 67 29 137h-88v226h209v-144q0 -103 -45 -219z" />
    <glyph glyph-name="uni0137" unicode="&#x137;" horiz-adv-x="700" 
d="M453 0l-158 489v-489h-262v1524h262v-805l154 383h249l-192 -463l207 -639h-260zM432 -416h-104q23 63 28 137h-88v226h209v-144q0 -103 -45 -219z" />
    <glyph glyph-name="Lacute" unicode="&#x139;" horiz-adv-x="614" 
d="M39 1524h272v-1250h289v-274h-561v1524zM70 1577l88 235h217l-92 -235h-213z" />
    <glyph glyph-name="lacute" unicode="&#x13a;" horiz-adv-x="327" 
d="M295 1524v-1524h-262v1524h262zM57 1577l88 235h217l-92 -235h-213z" />
    <glyph glyph-name="uni013B" unicode="&#x13b;" horiz-adv-x="614" 
d="M39 1524h272v-1250h289v-274h-561v1524zM385 -416h-104q23 63 28 137h-88v226h209v-144q0 -103 -45 -219z" />
    <glyph glyph-name="uni013C" unicode="&#x13c;" horiz-adv-x="327" 
d="M295 1524v-1524h-262v1524h262zM229 -416h-104q24 67 29 137h-88v226h208v-144q0 -103 -45 -219z" />
    <glyph glyph-name="Lcaron" unicode="&#x13d;" horiz-adv-x="614" 
d="M346 1217l12 307h179l-25 -307h-166zM39 1524h272v-1250h289v-274h-561v1524z" />
    <glyph glyph-name="lcaron" unicode="&#x13e;" horiz-adv-x="327" 
d="M295 1524v-1524h-262v1524h262zM330 1217l12 307h178l-24 -307h-166z" />
    <glyph glyph-name="Ldot" unicode="&#x13f;" horiz-adv-x="628" 
d="M608 938v-295h-241v295h241zM39 1524h272v-1250h289v-274h-561v1524z" />
    <glyph glyph-name="ldot" unicode="&#x140;" horiz-adv-x="587" 
d="M580 938v-295h-242v295h242zM295 1524v-1524h-262v1524h262z" />
    <glyph glyph-name="Lslash" unicode="&#x141;" horiz-adv-x="647" 
d="M70 1524h272v-623l195 137v-225l-195 -133v-406h289v-274h-561v494l-68 -45v217l68 47v811z" />
    <glyph glyph-name="lslash" unicode="&#x142;" horiz-adv-x="378" 
d="M319 1524v-455l58 41v-209l-58 -41v-860h-262v678l-55 -39v205l55 39v641h262z" />
    <glyph glyph-name="Nacute" unicode="&#x143;" horiz-adv-x="761" 
d="M39 1524h256l186 -779v779h242v-1524h-231l-211 836v-836h-242v1524zM276 1577l89 235h217l-93 -235h-213z" />
    <glyph glyph-name="nacute" unicode="&#x144;" horiz-adv-x="696" 
d="M33 0v1102h260v-133q42 64 89.5 100.5t109.5 36.5h14q44 0 76.5 -18.5t49 -48.5t24.5 -59.5t8 -57.5v-922h-265v811q0 66 -51 66q-30 0 -41.5 -18.5t-11.5 -55.5v-803h-262zM242 1155l86 279h215l-90 -279h-211z" />
    <glyph glyph-name="uni0145" unicode="&#x145;" horiz-adv-x="761" 
d="M39 1524h256l186 -779v779h242v-1524h-231l-211 836v-836h-242v1524zM442 -416h-104q24 67 29 137h-88v226h208v-144q0 -103 -45 -219z" />
    <glyph glyph-name="uni0146" unicode="&#x146;" horiz-adv-x="696" 
d="M33 0v1102h260v-133q42 64 89.5 100.5t109.5 36.5h14q44 0 76.5 -18.5t49 -48.5t24.5 -59.5t8 -57.5v-922h-265v811q0 66 -51 66q-30 0 -41.5 -18.5t-11.5 -55.5v-803h-262zM412 -416h-105q24 67 29 137h-88v226h209v-144q0 -103 -45 -219z" />
    <glyph glyph-name="Ncaron" unicode="&#x147;" horiz-adv-x="761" 
d="M39 1524h256l186 -779v779h242v-1524h-231l-211 836v-836h-242v1524zM281 1577l-136 235h185l55 -98l55 98h183l-136 -235h-206z" />
    <glyph glyph-name="ncaron" unicode="&#x148;" horiz-adv-x="696" 
d="M33 0v1102h260v-133q42 64 89.5 100.5t109.5 36.5h14q44 0 76.5 -18.5t49 -48.5t24.5 -59.5t8 -57.5v-922h-265v811q0 66 -51 66q-30 0 -41.5 -18.5t-11.5 -55.5v-803h-262zM240 1155l-127 279h186l49 -127l51 127h183l-127 -279h-215z" />
    <glyph glyph-name="napostrophe" unicode="&#x149;" horiz-adv-x="884" 
d="M221 0v1102h260v-133q42 64 89.5 100.5t109.5 36.5h14q44 0 76.5 -18.5t49 -48.5t24.5 -59.5t8 -57.5v-922h-264v811q0 66 -51 66q-30 0 -42 -18.5t-12 -55.5v-803h-262zM178 1073h-129q36 115 39 189h-88v262h227v-211q0 -123 -49 -240z" />
    <glyph glyph-name="Eng" unicode="&#x14a;" horiz-adv-x="761" 
d="M723 -207q0 -88 -43 -133t-119 -45h-196v240h79q48 0 48 55v90l-211 844v-844h-242v1524h256l190 -828v828h238v-1731z" />
    <glyph glyph-name="eng" unicode="&#x14b;" horiz-adv-x="696" 
d="M399 -98v909q0 66 -51 66q-30 0 -41.5 -18.5t-11.5 -55.5v-803h-262v1102h254v-139q46 69 92.5 106t105.5 37h25q34 0 61.5 -12.5t44.5 -32.5t28 -45t15.5 -48.5t4.5 -45.5v-1160q0 -62 -41.5 -104.5t-110.5 -42.5h-195v244h45q21 0 29 8.5t8 34.5z" />
    <glyph glyph-name="Omacron" unicode="&#x14c;" horiz-adv-x="780" 
d="M748 1155v-807q0 -169 -86 -270t-238 -101h-62q-161 0 -245 96t-84 275v805q0 389 327 389h62q326 0 326 -387zM463 340v836q0 100 -72 100q-39 0 -56.5 -24t-17.5 -76v-836q0 -39 18 -64.5t58 -25.5q70 0 70 90zM193 1593v181h395v-181h-395z" />
    <glyph glyph-name="omacron" unicode="&#x14d;" horiz-adv-x="690" 
d="M313 -20q-144 0 -215 85.5t-71 225.5v522q0 148 75.5 228.5t210.5 80.5h62q136 0 212.5 -80t76.5 -225v-522q0 -138 -78.5 -226.5t-210.5 -88.5h-62zM291 295q0 -78 53 -78q55 0 55 78v524q0 76 -55 76q-53 0 -53 -76v-524zM150 1184v178h391v-178h-391z" />
    <glyph glyph-name="Obreve" unicode="&#x14e;" horiz-adv-x="780" 
d="M748 1155v-807q0 -169 -86 -270t-238 -101h-62q-161 0 -245 96t-84 275v805q0 389 327 389h62q326 0 326 -387zM463 340v836q0 100 -72 100q-39 0 -56.5 -24t-17.5 -76v-836q0 -39 18 -64.5t58 -25.5q70 0 70 90zM612 1784q0 -95 -63 -153t-154 -58h-8q-96 0 -157.5 57.5
t-61.5 153.5v10h174v-6q0 -24 13 -38.5t34 -14.5h4q21 0 34 14.5t13 38.5v6h172v-10z" />
    <glyph glyph-name="obreve" unicode="&#x14f;" horiz-adv-x="690" 
d="M313 -20q-144 0 -215 85.5t-71 225.5v522q0 148 75.5 228.5t210.5 80.5h62q136 0 212.5 -80t76.5 -225v-522q0 -138 -78.5 -226.5t-210.5 -88.5h-62zM291 295q0 -78 53 -78q55 0 55 78v524q0 76 -55 76q-53 0 -53 -76v-524zM567 1380q0 -105 -62.5 -164t-154.5 -59h-6
q-98 0 -159.5 58.5t-61.5 164.5v17h174v-13q0 -67 49 -67h2q22 0 35.5 17t13.5 50v13h170v-17z" />
    <glyph glyph-name="Ohungarumlaut" unicode="&#x150;" horiz-adv-x="780" 
d="M190 1579l50 233h184l-55 -233h-179zM418 1579l53 233h182l-59 -233h-176zM748 1155v-807q0 -169 -86 -270t-238 -101h-62q-161 0 -245 96t-84 275v805q0 389 327 389h62q326 0 326 -387zM463 340v836q0 100 -72 100q-39 0 -56.5 -24t-17.5 -76v-836q0 -39 18 -64.5
t58 -25.5q70 0 70 90z" />
    <glyph glyph-name="ohungarumlaut" unicode="&#x151;" horiz-adv-x="690" 
d="M160 1159l49 275h180l-53 -275h-176zM383 1159l51 275h180l-57 -275h-174zM313 -20q-144 0 -215 85.5t-71 225.5v522q0 148 75.5 228.5t210.5 80.5h62q136 0 212.5 -80t76.5 -225v-522q0 -138 -78.5 -226.5t-210.5 -88.5h-62zM291 295q0 -78 53 -78q55 0 55 78v524
q0 76 -55 76q-53 0 -53 -76v-524z" />
    <glyph glyph-name="OE" unicode="&#x152;" horiz-adv-x="1052" 
d="M473 92q-63 -112 -199 -112q-114 0 -177.5 93t-63.5 279v817q0 169 63 269t187 100q41 0 73.5 -9.5t55 -27t34.5 -31t27 -34.5v88h545v-271h-283v-329h219v-277h-219v-373h303v-274h-565v92zM463 1165q0 111 -72 111q-74 0 -74 -111v-805q0 -110 74 -110q72 0 72 110v805
z" />
    <glyph glyph-name="oe" unicode="&#x153;" horiz-adv-x="1026" 
d="M1001 238q0 -125 -77 -194t-199 -69h-55q-46 0 -91.5 21t-66.5 47q-63 -63 -154 -63h-49q-142 0 -212 85.5t-70 225.5v522q0 148 73.5 228.5t206.5 80.5h53q52 0 97 -19t65 -44q21 26 63 44.5t93 18.5h55q130 0 199 -71.5t69 -210.5v-324h-350v-242q0 -34 11.5 -49.5
t39.5 -15.5q50 0 50 65v166h249v-202zM651 844v-131h107v131q0 38 -11 56t-42 18q-32 0 -43 -18.5t-11 -55.5zM291 295q0 -78 53 -78q55 0 55 78v524q0 76 -55 76q-53 0 -53 -76v-524z" />
    <glyph glyph-name="Racute" unicode="&#x154;" horiz-adv-x="747" 
d="M311 651v-651h-272v1524h430q123 0 186.5 -65.5t63.5 -188.5v-244q0 -83 -37 -135t-84 -70q45 -16 81 -59.5t36 -120.5v-518q0 -73 22 -113v-10h-272q-25 33 -25 117v444q0 52 -15 71t-56 19h-58zM311 1288v-385h54q41 0 58 19.5t17 72.5v207q0 50 -13 68t-54 18h-62z
M254 1577l88 235h217l-92 -235h-213z" />
    <glyph glyph-name="racute" unicode="&#x155;" horiz-adv-x="622" 
d="M295 825v-825h-262v1102h260v-137q57 143 174 143h12q125 0 125 -135v-400h-244v252q0 30 -6.5 42t-25.5 12t-26 -13t-7 -41zM225 1155l86 279h215l-90 -279h-211z" />
    <glyph glyph-name="uni0156" unicode="&#x156;" horiz-adv-x="747" 
d="M311 651v-651h-272v1524h430q123 0 186.5 -65.5t63.5 -188.5v-244q0 -83 -37 -135t-84 -70q45 -16 81 -59.5t36 -120.5v-518q0 -73 22 -113v-10h-272q-25 33 -25 117v444q0 52 -15 71t-56 19h-58zM311 1288v-385h54q41 0 58 19.5t17 72.5v207q0 50 -13 68t-54 18h-62z
M442 -416h-104q24 67 29 137h-88v226h208v-144q0 -103 -45 -219z" />
    <glyph glyph-name="uni0157" unicode="&#x157;" horiz-adv-x="622" 
d="M295 825v-825h-262v1102h260v-137q57 143 174 143h12q125 0 125 -135v-400h-244v252q0 30 -6.5 42t-25.5 12t-26 -13t-7 -41zM221 -416h-104q23 63 28 137h-88v226h209v-144q0 -103 -45 -219z" />
    <glyph glyph-name="Rcaron" unicode="&#x158;" horiz-adv-x="747" 
d="M311 651v-651h-272v1524h430q123 0 186.5 -65.5t63.5 -188.5v-244q0 -83 -37 -135t-84 -70q45 -16 81 -59.5t36 -120.5v-518q0 -73 22 -113v-10h-272q-25 33 -25 117v444q0 52 -15 71t-56 19h-58zM311 1288v-385h54q41 0 58 19.5t17 72.5v207q0 50 -13 68t-54 18h-62z
M256 1577l-135 235h184l55 -98l56 98h182l-135 -235h-207z" />
    <glyph glyph-name="rcaron" unicode="&#x159;" horiz-adv-x="622" 
d="M295 825v-825h-262v1102h260v-137q57 143 174 143h12q125 0 125 -135v-400h-244v252q0 30 -6.5 42t-25.5 12t-26 -13t-7 -41zM225 1155l-127 279h187l49 -127l51 127h182l-127 -279h-215z" />
    <glyph glyph-name="Sacute" unicode="&#x15a;" horiz-adv-x="727" 
d="M262 1579l88 233h217l-92 -233h-213zM713 358q0 -176 -84 -276t-248 -100h-53q-155 0 -233.5 80.5t-78.5 234.5v274h269v-243q0 -92 69 -92q68 0 68 110v29q0 84 -15.5 129t-72.5 108l-158 174q-81 88 -113 180.5t-32 207.5v65q0 145 82.5 224t226.5 79h55
q157 0 225 -72.5t68 -226.5v-205h-262v191q0 40 -12.5 60t-46.5 20q-33 0 -46.5 -20.5t-13.5 -61.5v-35q0 -56 17.5 -99t66.5 -98l156 -174q97 -109 131.5 -197.5t34.5 -193.5v-72z" />
    <glyph glyph-name="sacute" unicode="&#x15b;" horiz-adv-x="610" 
d="M207 1159l86 275h215l-90 -275h-211zM602 264q0 -123 -69 -202.5t-203 -79.5h-54q-135 0 -200.5 66t-65.5 173v180h242v-147q0 -61 47 -61h2q43 0 43 63v25q0 44 -11.5 74t-45.5 63l-140 133q-70 67 -96 133.5t-26 157.5v35q0 114 65.5 179.5t192.5 65.5h55
q250 0 250 -209v-149h-234v115q0 57 -43 57t-43 -57v-23q0 -36 9.5 -57t37.5 -49l146 -144q82 -82 111.5 -148t29.5 -157v-37z" />
    <glyph glyph-name="Scircumflex" unicode="&#x15c;" horiz-adv-x="727" 
d="M475 1812l135 -233h-182l-57 94l-56 -94h-182l133 233h209zM713 358q0 -176 -84 -276t-248 -100h-53q-155 0 -233.5 80.5t-78.5 234.5v274h269v-243q0 -92 69 -92q68 0 68 110v29q0 84 -15.5 129t-72.5 108l-158 174q-81 88 -113 180.5t-32 207.5v65q0 145 82.5 224
t226.5 79h55q157 0 225 -72.5t68 -226.5v-205h-262v191q0 40 -12.5 60t-46.5 20q-33 0 -46.5 -20.5t-13.5 -61.5v-35q0 -56 17.5 -99t66.5 -98l156 -174q97 -109 131.5 -197.5t34.5 -193.5v-72z" />
    <glyph glyph-name="scircumflex" unicode="&#x15d;" horiz-adv-x="610" 
d="M422 1434l127 -275h-187l-49 123l-51 -123h-182l125 275h217zM602 264q0 -123 -69 -202.5t-203 -79.5h-54q-135 0 -200.5 66t-65.5 173v180h242v-147q0 -61 47 -61h2q43 0 43 63v25q0 44 -11.5 74t-45.5 63l-140 133q-70 67 -96 133.5t-26 157.5v35q0 114 65.5 179.5
t192.5 65.5h55q250 0 250 -209v-149h-234v115q0 57 -43 57t-43 -57v-23q0 -36 9.5 -57t37.5 -49l146 -144q82 -82 111.5 -148t29.5 -157v-37z" />
    <glyph glyph-name="uni015E" unicode="&#x15e;" horiz-adv-x="727" 
d="M530 -227q0 -77 -53.5 -117.5t-142.5 -40.5h-125v129h102q45 0 45 35v2q0 31 -45 31h-71v178q-224 40 -224 307v274h269v-243q0 -92 69 -92q68 0 68 110v29q0 84 -15.5 129t-72.5 108l-158 174q-81 88 -113 180.5t-32 207.5v65q0 145 82.5 224t226.5 79h55
q157 0 225 -72.5t68 -226.5v-205h-262v191q0 40 -12.5 60t-46.5 20q-33 0 -46.5 -20.5t-13.5 -61.5v-35q0 -56 17.5 -99t66.5 -98l156 -174q97 -109 131.5 -197.5t34.5 -193.5v-72q0 -176 -84 -276t-248 -100h-19v-56h7q161 -6 161 -147v-6z" />
    <glyph glyph-name="uni015F" unicode="&#x15f;" horiz-adv-x="610" 
d="M475 -227q0 -77 -53.5 -117.5t-142.5 -40.5h-125v129h102q45 0 45 35v2q0 31 -45 31h-72v180q-89 21 -131.5 81.5t-42.5 147.5v180h242v-147q0 -61 47 -61h2q43 0 43 63v25q0 44 -11.5 74t-45.5 63l-140 133q-70 67 -96 133.5t-26 157.5v35q0 114 65.5 179.5t192.5 65.5
h55q250 0 250 -209v-149h-234v115q0 57 -43 57t-43 -57v-23q0 -36 9.5 -57t37.5 -49l146 -144q82 -82 111.5 -148t29.5 -157v-37q0 -123 -69 -202.5t-203 -79.5h-23v-56h6q79 -3 120.5 -40t41.5 -107v-6z" />
    <glyph glyph-name="Scaron" unicode="&#x160;" horiz-adv-x="727" 
d="M264 1579l-135 233h184l56 -100l55 100h182l-135 -233h-207zM713 358q0 -176 -84 -276t-248 -100h-53q-155 0 -233.5 80.5t-78.5 234.5v274h269v-243q0 -92 69 -92q68 0 68 110v29q0 84 -15.5 129t-72.5 108l-158 174q-81 88 -113 180.5t-32 207.5v65q0 145 82.5 224
t226.5 79h55q157 0 225 -72.5t68 -226.5v-205h-262v191q0 40 -12.5 60t-46.5 20q-33 0 -46.5 -20.5t-13.5 -61.5v-35q0 -56 17.5 -99t66.5 -98l156 -174q97 -109 131.5 -197.5t34.5 -193.5v-72z" />
    <glyph glyph-name="scaron" unicode="&#x161;" horiz-adv-x="610" 
d="M203 1159l-125 275h186l49 -127l52 127h182l-125 -275h-219zM602 264q0 -123 -69 -202.5t-203 -79.5h-54q-135 0 -200.5 66t-65.5 173v180h242v-147q0 -61 47 -61h2q43 0 43 63v25q0 44 -11.5 74t-45.5 63l-140 133q-70 67 -96 133.5t-26 157.5v35q0 114 65.5 179.5
t192.5 65.5h55q250 0 250 -209v-149h-234v115q0 57 -43 57t-43 -57v-23q0 -36 9.5 -57t37.5 -49l146 -144q82 -82 111.5 -148t29.5 -157v-37z" />
    <glyph glyph-name="Tcommaaccent" unicode="&#x162;" 
d="M403 -416h-104q24 67 29 137h-88v226h209v-144q0 -20 -1.5 -40.5t-3.5 -36.5t-6.5 -34t-7 -29t-8 -26.5t-7.5 -21t-7 -18.5zM674 1255h-195v-1255h-272v1255h-195v269h662v-269z" />
    <glyph glyph-name="tcommaaccent" unicode="&#x163;" horiz-adv-x="538" 
d="M520 0h-262q-54 0 -89.5 38.5t-35.5 96.5v723h-125v244h125v364h260v-364h127v-244h-127v-565q0 -25 7 -35t32 -10h88v-248zM406 -416h-105q24 67 29 137h-88v226h209v-144q0 -103 -45 -219z" />
    <glyph glyph-name="Tcaron" unicode="&#x164;" 
d="M674 1255h-195v-1255h-272v1255h-195v269h662v-269zM240 1577l-136 235h185l55 -98l55 98h183l-136 -235h-206z" />
    <glyph glyph-name="tcaron" unicode="&#x165;" horiz-adv-x="538" 
d="M428 1217l12 307h178l-24 -307h-166zM520 0h-262q-54 0 -89.5 38.5t-35.5 96.5v723h-125v244h125v364h260v-364h127v-244h-127v-565q0 -25 7 -35t32 -10h88v-248z" />
    <glyph glyph-name="Tbar" unicode="&#x166;" 
d="M674 1255h-195v-307h139v-233h-139v-715h-272v715h-139v233h139v307h-195v269h662v-269z" />
    <glyph glyph-name="tbar" unicode="&#x167;" horiz-adv-x="538" 
d="M520 248v-248h-262q-54 0 -89.5 38.5t-35.5 96.5v346h-125v213h125v164h-125v244h125v364h260v-364h127v-244h-127v-164h127v-213h-127v-188q0 -25 7 -35t32 -10h88z" />
    <glyph glyph-name="Utilde" unicode="&#x168;" horiz-adv-x="768" 
d="M731 354q0 -184 -83.5 -280.5t-231.5 -96.5h-68q-151 0 -231 95.5t-80 281.5v1170h280v-1180q0 -94 68 -94q66 0 66 94v1180h280v-1170zM317 1608v-33h-147v70q0 76 31 116.5t86 40.5q51 0 110 -26q46 -21 56 -21q12 0 12 21v32h147v-69q0 -77 -34.5 -116.5t-81.5 -39.5
q-43 0 -111 29q-45 18 -51 18q-17 0 -17 -22z" />
    <glyph glyph-name="utilde" unicode="&#x169;" 
d="M653 1102v-1102h-254v135q-44 -67 -89 -103t-109 -36h-8q-73 0 -116.5 58.5t-43.5 131.5v916h264v-809q0 -68 45 -68q51 0 51 74v803h260zM276 1186v-33h-147v96q0 63 30 101.5t83 38.5q9 0 17 -1t13.5 -1.5t14.5 -3t12.5 -3.5t14 -5.5t13.5 -6t17 -8t18 -8.5
q41 -17 48 -17q12 0 12 21v33h149v-115q0 -52 -30 -86.5t-80 -34.5q-32 0 -54 7.5t-69 31.5q-40 18 -47 18q-15 0 -15 -24z" />
    <glyph glyph-name="Umacron" unicode="&#x16a;" horiz-adv-x="768" 
d="M731 354q0 -184 -83.5 -280.5t-231.5 -96.5h-68q-151 0 -231 95.5t-80 281.5v1170h280v-1180q0 -94 68 -94q66 0 66 94v1180h280v-1170zM186 1591v181h396v-181h-396z" />
    <glyph glyph-name="umacron" unicode="&#x16b;" 
d="M653 1102v-1102h-254v135q-44 -67 -89 -103t-109 -36h-8q-73 0 -116.5 58.5t-43.5 131.5v916h264v-809q0 -68 45 -68q51 0 51 74v803h260zM150 1180v178h391v-178h-391z" />
    <glyph glyph-name="Ubreve" unicode="&#x16c;" horiz-adv-x="768" 
d="M731 354q0 -184 -83.5 -280.5t-231.5 -96.5h-68q-151 0 -231 95.5t-80 281.5v1170h280v-1180q0 -94 68 -94q66 0 66 94v1180h280v-1170zM606 1782q0 -95 -63 -153t-154 -58h-8q-96 0 -157.5 57.5t-61.5 153.5v10h174v-6q0 -24 13 -38.5t34 -14.5h4q21 0 34 14.5t13 38.5
v6h172v-10z" />
    <glyph glyph-name="ubreve" unicode="&#x16d;" 
d="M653 0v1102h-260v-803q0 -74 -51 -74q-45 0 -45 68v809h-264v-916q0 -73 43.5 -131.5t116.5 -58.5h8q64 0 109 36t89 103v-135h254zM565 1376q0 -105 -62.5 -164t-154.5 -59h-6q-98 0 -159.5 58.5t-61.5 164.5v17h174v-13q0 -67 49 -67h2q22 0 35.5 17t13.5 50v13h170
v-17z" />
    <glyph glyph-name="Uring" unicode="&#x16e;" horiz-adv-x="768" 
d="M731 354q0 -184 -83.5 -280.5t-231.5 -96.5h-68q-151 0 -231 95.5t-80 281.5v1170h280v-1180q0 -94 68 -94q66 0 66 94v1180h280v-1170zM547 1729q0 -71 -46 -116.5t-118 -45.5t-118 45.5t-46 116.5t46 116t118 45t118 -45t46 -116zM317 1729q0 -29 18 -48.5t48 -19.5
t48 19.5t18 48.5t-18 48t-48 19t-48 -19t-18 -48z" />
    <glyph glyph-name="uring" unicode="&#x16f;" 
d="M653 1102v-1102h-254v135q-44 -67 -89 -103t-109 -36h-8q-73 0 -116.5 58.5t-43.5 131.5v916h264v-809q0 -68 45 -68q51 0 51 74v803h260zM506 1313q0 -71 -46 -116.5t-118 -45.5t-118 45.5t-46 116.5t46 116.5t118 45.5t118 -45.5t46 -116.5zM276 1313q0 -29 18 -48.5
t48 -19.5t48 19.5t18 48.5t-18 48t-48 19t-48 -19t-18 -48z" />
    <glyph glyph-name="Uhungarumlaut" unicode="&#x170;" horiz-adv-x="768" 
d="M731 354q0 -184 -83.5 -280.5t-231.5 -96.5h-68q-151 0 -231 95.5t-80 281.5v1170h280v-1180q0 -94 68 -94q66 0 66 94v1180h280v-1170zM182 1577l49 235h185l-56 -235h-178zM410 1577l53 235h182l-59 -235h-176z" />
    <glyph glyph-name="uhungarumlaut" unicode="&#x171;" 
d="M653 1102v-1102h-254v135q-44 -67 -89 -103t-109 -36h-8q-73 0 -116.5 58.5t-43.5 131.5v916h264v-809q0 -68 45 -68q51 0 51 74v803h260zM150 1155l49 279h180l-53 -279h-176zM373 1155l51 279h180l-57 -279h-174z" />
    <glyph glyph-name="Uogonek" unicode="&#x172;" horiz-adv-x="768" 
d="M588 -221v-164h-119q-69 0 -114.5 34.5t-45.5 96.5v31q0 95 133 200h-94q-151 0 -231 95.5t-80 281.5v1170h280v-1180q0 -94 68 -94q66 0 66 94v1180h280v-1170q0 -37 -4 -71.5t-8.5 -59t-16.5 -53t-18 -42t-23.5 -38.5t-22 -31.5t-25.5 -31.5t-23 -27
q-53 -62 -72.5 -98.5t-19.5 -73.5v-8q0 -23 13 -32t40 -9h37z" />
    <glyph glyph-name="uogonek" unicode="&#x173;" 
d="M375 -254v31q0 53 38 105.5t113 117.5h-127v135q-44 -67 -89 -103t-109 -36h-8q-73 0 -116.5 58.5t-43.5 131.5v916h264v-809q0 -68 45 -68q51 0 51 74v803h260v-1102q-52 -64 -71 -100t-19 -72v-8q0 -23 13 -32t40 -9h37v-164h-118q-69 0 -114.5 34.5t-45.5 96.5z" />
    <glyph glyph-name="Wcircumflex" unicode="&#x174;" horiz-adv-x="1163" 
d="M666 0l-80 838l-80 -838h-322l-190 1524h282l89 -975l96 975h260l96 -967l90 967h262l-194 -1524h-309zM688 1812l135 -235h-182l-57 96l-56 -96h-182l133 235h209z" />
    <glyph glyph-name="wcircumflex" unicode="&#x175;" horiz-adv-x="1011" 
d="M580 0l-70 598l-72 -598h-280l-166 1102h258l74 -682l73 682h232l73 -690l72 690h246l-168 -1102h-272zM614 1434l127 -279h-186l-49 127l-51 -127h-183l125 279h217z" />
    <glyph glyph-name="Ycircumflex" unicode="&#x176;" horiz-adv-x="669" 
d="M481 600v-600h-272v590l-225 934h272l92 -541l92 541h246zM451 1812l135 -235h-183l-57 96l-55 -96h-182l133 235h209z" />
    <glyph glyph-name="ycircumflex" unicode="&#x177;" horiz-adv-x="636" 
d="M416 -219q-29 -166 -152 -166h-237v244h108q25 0 33.5 12t11.5 43l4 43q2 29 -2 61l-190 1084h258l76 -608l69 608h252zM428 1434l127 -279h-186l-50 127l-51 -127h-182l125 279h217z" />
    <glyph glyph-name="Ydieresis" unicode="&#x178;" horiz-adv-x="669" 
d="M481 600v-600h-272v590l-225 934h272l92 -541l92 541h246zM580 1794v-217h-205v217h205zM324 1794v-217h-205v217h205z" />
    <glyph glyph-name="Zacute" unicode="&#x179;" horiz-adv-x="675" 
d="M37 1524h602v-242l-332 -1016h355v-266h-648v246l332 1016h-309v262zM219 1577l88 235h217l-92 -235h-213z" />
    <glyph glyph-name="zacute" unicode="&#x17a;" horiz-adv-x="544" 
d="M29 1102h493v-217l-254 -652h269v-233h-529v219l256 653h-235v230zM166 1155l86 279h215l-90 -279h-211z" />
    <glyph glyph-name="Zdotaccent" unicode="&#x17b;" horiz-adv-x="675" 
d="M37 1524h602v-242l-332 -1016h355v-266h-648v246l332 1016h-309v262zM471 1835v-258h-262v258h262z" />
    <glyph glyph-name="zdotaccent" unicode="&#x17c;" horiz-adv-x="544" 
d="M29 1102h493v-217l-254 -652h269v-233h-529v219l256 653h-235v230zM408 1413v-258h-263v258h263z" />
    <glyph glyph-name="Zcaron" unicode="&#x17d;" horiz-adv-x="675" 
d="M37 1524h602v-242l-332 -1016h355v-266h-648v246l332 1016h-309v262zM236 1577l-136 235h185l55 -98l55 98h183l-136 -235h-206z" />
    <glyph glyph-name="zcaron" unicode="&#x17e;" horiz-adv-x="544" 
d="M29 1102h493v-217l-254 -652h269v-233h-529v219l256 653h-235v230zM168 1155l-127 279h186l49 -127l52 127h182l-127 -279h-215z" />
    <glyph glyph-name="uni0192" unicode="&#x192;" horiz-adv-x="557" 
d="M541 741h-154l-53 -1126h-260l53 1126h-119v244h131l17 358q5 91 54 136t161 45h170v-232h-76q-28 0 -39 -11.5t-14 -43.5l-13 -252h142v-244z" />
    <glyph glyph-name="Aringacute" unicode="&#x1fa;" horiz-adv-x="706" 
d="M508 1729q0 -71 -46 -116.5t-118 -45.5t-118 45.5t-46 116.5t46 116t118 45t118 -45t46 -116zM279 1729q0 -29 17.5 -48.5t47.5 -19.5t48 19.5t18 48.5t-18 48t-48 19t-47.5 -19t-17.5 -48zM242 1923l88 236h217l-92 -236h-213zM451 0l-27 256h-164l-27 -256h-241
l192 1524h324l207 -1524h-264zM287 518h108l-55 524z" />
    <glyph glyph-name="aringacute" unicode="&#x1fb;" 
d="M225 1507l86 279h215l-90 -279h-211zM489 1313q0 -71 -45.5 -116.5t-117.5 -45.5t-118 45.5t-46 116.5t46 116.5t118 45.5t117.5 -45.5t45.5 -116.5zM260 1313q0 -29 18 -48.5t48 -19.5t47.5 19.5t17.5 48.5t-17.5 48t-47.5 19t-48 -19t-18 -48zM25 180v240
q0 82 27.5 135t86.5 90q28 18 115 60.5t98 48.5q17 10 17 41v59q0 34 -11 46.5t-34 12.5h-9q-25 0 -35 -14t-10 -45v-109h-233v152q0 40 11.5 75t38 69t80 53.5t128.5 19.5h47q154 0 216.5 -63t62.5 -179v-608q0 -18 7 -24.5t31 -6.5h29v-233h-244q-39 0 -57 29t-18 96
q-29 -53 -76 -94t-111 -41h-8q-71 0 -110 56t-39 134zM369 274v269q-51 -29 -68 -51q-25 -32 -25 -84v-134q0 -65 43 -65q50 0 50 65z" />
    <glyph glyph-name="AEacute" unicode="&#x1fc;" horiz-adv-x="1046" 
d="M457 0v268h-166l-45 -268h-262l286 1524h742v-271h-283v-329h219v-277h-219v-373h303v-274h-575zM336 528h121v705zM526 1577l88 235h217l-92 -235h-213z" />
    <glyph glyph-name="aeacute" unicode="&#x1fd;" horiz-adv-x="993" 
d="M971 254q0 -128 -71.5 -201t-209.5 -73h-43q-200 0 -256 149q-81 -139 -207 -139h-8q-72 0 -111.5 56t-39.5 134v201q0 82 27.5 135t86.5 90q28 18 115 60.5t98 48.5q17 10 17 41v98q0 34 -11 46.5t-34 12.5h-9q-25 0 -35 -14t-10 -45v-147h-233v190q0 40 11.5 75t38 69
t80 53.5t128.5 19.5h47q109 0 164 -55q50 63 164 63h30q132 0 201.5 -71.5t69.5 -229.5v-307h-350v-240q0 -35 11 -50t38 -15q51 0 51 65v164h250v-184zM621 854v-143h106v141q0 66 -53 66t-53 -64zM369 274v230q-51 -29 -68 -51q-25 -32 -25 -84v-95q0 -65 43 -65
q50 0 50 65zM395 1155l86 279h215l-90 -279h-211z" />
    <glyph glyph-name="Oslashacute" unicode="&#x1fe;" horiz-adv-x="772" 
d="M276 1579l89 233h217l-93 -233h-213zM739 348q0 -169 -86 -270t-237 -101h-51q-119 0 -197 72l-21 -49h-151l70 170q-33 81 -33 178v805q0 389 327 389h52q119 0 190 -65l21 47h151l-67 -172q32 -71 32 -197v-807zM309 1176v-459l154 428v31q0 100 -76 100q-42 0 -60 -24
t-18 -76zM309 340q0 -90 80 -90q74 0 74 90v467l-154 -422v-45z" />
    <glyph glyph-name="oslashacute" unicode="&#x1ff;" horiz-adv-x="679" 
d="M233 1159l86 275h216l-91 -275h-211zM653 295q0 -138 -77 -226.5t-209 -88.5h-54q-102 0 -174 61l-20 -41h-137l73 143q-28 60 -28 148v522q0 148 75.5 228.5t210.5 80.5h54q108 0 178 -57l20 37h135l-71 -141q24 -67 24 -144v-522zM283 821v-280l114 252v28q0 76 -57 76
t-57 -76zM283 293q0 -78 57 -78t57 78v264l-114 -248v-16z" />
    <glyph glyph-name="uni0218" unicode="&#x218;" horiz-adv-x="727" 
d="M713 358q0 -176 -84 -276t-248 -100h-53q-155 0 -233.5 80.5t-78.5 234.5v274h269v-243q0 -92 69 -92q68 0 68 110v29q0 84 -15.5 129t-72.5 108l-158 174q-81 88 -113 180.5t-32 207.5v65q0 145 82.5 224t226.5 79h55q157 0 225 -72.5t68 -226.5v-205h-262v191
q0 40 -12.5 60t-46.5 20q-33 0 -46.5 -20.5t-13.5 -61.5v-35q0 -56 17.5 -99t66.5 -98l156 -174q97 -109 131.5 -197.5t34.5 -193.5v-72zM420 -420h-105q24 67 29 137h-88v226h209v-144q0 -103 -45 -219z" />
    <glyph glyph-name="uni0219" unicode="&#x219;" horiz-adv-x="610" 
d="M602 264q0 -123 -69 -202.5t-203 -79.5h-54q-135 0 -200.5 66t-65.5 173v180h242v-147q0 -61 47 -61h2q43 0 43 63v25q0 44 -11.5 74t-45.5 63l-140 133q-70 67 -96 133.5t-26 157.5v35q0 114 65.5 179.5t192.5 65.5h55q250 0 250 -209v-149h-234v115q0 57 -43 57
t-43 -57v-23q0 -36 9.5 -57t37.5 -49l146 -144q82 -82 111.5 -148t29.5 -157v-37zM362 -418h-104q24 67 29 137h-88v226h209v-144q0 -20 -1.5 -40.5t-3.5 -36.5t-6.5 -34t-7 -29t-8 -26.5t-7.5 -21t-7 -18.5z" />
    <glyph glyph-name="uni021A" unicode="&#x21a;" 
d="M403 -416h-104q24 67 29 137h-88v226h209v-144q0 -20 -1.5 -40.5t-3.5 -36.5t-6.5 -34t-7 -29t-8 -26.5t-7.5 -21t-7 -18.5zM674 1255h-195v-1255h-272v1255h-195v269h662v-269z" />
    <glyph glyph-name="uni021B" unicode="&#x21b;" horiz-adv-x="538" 
d="M520 0h-262q-54 0 -89.5 38.5t-35.5 96.5v723h-125v244h125v364h260v-364h127v-244h-127v-565q0 -25 7 -35t32 -10h88v-248zM406 -416h-105q24 67 29 137h-88v226h209v-144q0 -103 -45 -219z" />
    <glyph glyph-name="uni0237" unicode="&#x237;" horiz-adv-x="329" 
d="M-109 -141h107q21 0 29 8.5t8 34.5v1200h262v-1340q0 -62 -41.5 -104.5t-110.5 -42.5h-254v244z" />
    <glyph glyph-name="uni02BC" unicode="&#x2bc;" horiz-adv-x="276" 
d="M203 1073h-129q36 115 39 189h-88v262h227v-211q0 -123 -49 -240z" />
    <glyph glyph-name="circumflex" unicode="&#x2c6;" horiz-adv-x="692" 
d="M455 1434l127 -279h-187l-49 127l-51 -127h-182l125 279h217z" />
    <glyph glyph-name="caron" unicode="&#x2c7;" horiz-adv-x="692" 
d="M240 1155l-127 279h186l49 -127l51 127h183l-127 -279h-215z" />
    <glyph glyph-name="breve" unicode="&#x2d8;" horiz-adv-x="692" 
d="M569 1376q0 -105 -62.5 -164t-154.5 -59h-6q-98 0 -159.5 58.5t-61.5 164.5v17h174v-13q0 -67 49 -67h2q22 0 35.5 17t13.5 50v13h170v-17z" />
    <glyph glyph-name="dotaccent" unicode="&#x2d9;" horiz-adv-x="692" 
d="M477 1413v-258h-262v258h262z" />
    <glyph glyph-name="ring" unicode="&#x2da;" horiz-adv-x="692" 
d="M510 1313q0 -71 -46 -116.5t-118 -45.5t-118 45.5t-46 116.5t46 116.5t118 45.5t118 -45.5t46 -116.5zM281 1313q0 -29 17.5 -48.5t47.5 -19.5t48 19.5t18 48.5t-18 48t-48 19t-47.5 -19t-17.5 -48z" />
    <glyph glyph-name="ogonek" unicode="&#x2db;" horiz-adv-x="692" 
d="M205 -254v31q0 53 38 105.5t113 117.5h127q-52 -64 -71 -100t-19 -72v-8q0 -23 13 -32t40 -9h37v-164h-118q-69 0 -114.5 34.5t-45.5 96.5z" />
    <glyph glyph-name="tilde" unicode="&#x2dc;" horiz-adv-x="692" 
d="M272 1186v-33h-147v96q0 63 30 101.5t83 38.5q9 0 17 -1t13.5 -1.5t14.5 -3t12.5 -3.5t14 -5.5t13.5 -6t17 -8t18 -8.5q41 -17 48 -17q12 0 12 21v33h149v-115q0 -52 -30 -86.5t-80 -34.5q-32 0 -54 7.5t-69 31.5q-40 18 -47 18q-15 0 -15 -24z" />
    <glyph glyph-name="hungarumlaut" unicode="&#x2dd;" horiz-adv-x="692" 
d="M119 1155l49 279h180l-53 -279h-176zM342 1155l51 279h180l-57 -279h-174z" />
    <glyph glyph-name="uni0401" unicode="&#x401;" horiz-adv-x="636" 
d="M39 1524h569v-269h-297v-331h234v-275h-234v-375h312v-274h-584v1524zM559 1794v-217h-205v217h205zM303 1794v-217h-205v217h205z" />
    <glyph glyph-name="uni0402" unicode="&#x402;" horiz-adv-x="884" 
d="M674 1255h-236v-342q73 23 170 23q125 0 185.5 -66t60.5 -178v-583q0 -180 -66 -266.5t-229 -86.5h-63v244h6q48 0 64 27.5t16 81.5v483q0 59 -17.5 78.5t-60.5 19.5q-46 0 -66 -10v-680h-272v1255h-154v269h662v-269z" />
    <glyph glyph-name="uni0403" unicode="&#x403;" horiz-adv-x="618" 
d="M172 1577l88 235h217l-92 -235h-213zM39 0v1524h563v-269h-291v-1255h-272z" />
    <glyph glyph-name="uni0404" unicode="&#x404;" horiz-adv-x="753" 
d="M725 328q0 -72 -16 -132.5t-50.5 -111.5t-98 -80t-150.5 -29h-56q-76 0 -133.5 19.5t-92.5 52t-57 80.5t-30 98t-8 111v860q0 73 16.5 132.5t52.5 109t100 77t152 27.5h56q76 0 132.5 -18.5t91 -49t55.5 -75.5t28.5 -91t7.5 -102v-215h-270v205q0 88 -70 88
q-37 0 -52.5 -21t-15.5 -67v-260h203v-287h-203v-313q0 -92 70 -92q68 0 68 92v260h270v-268z" />
    <glyph glyph-name="uni0405" unicode="&#x405;" horiz-adv-x="727" 
d="M713 358q0 -176 -84 -276t-248 -100h-53q-155 0 -233.5 80.5t-78.5 234.5v274h269v-243q0 -92 69 -92q68 0 68 110v29q0 84 -15.5 129t-72.5 108l-158 174q-81 88 -113 180.5t-32 207.5v65q0 145 82.5 224t226.5 79h55q157 0 225 -72.5t68 -226.5v-205h-262v191
q0 40 -12.5 60t-46.5 20q-33 0 -46.5 -20.5t-13.5 -61.5v-35q0 -56 17.5 -99t66.5 -98l156 -174q97 -109 131.5 -197.5t34.5 -193.5v-72z" />
    <glyph glyph-name="uni0406" unicode="&#x406;" horiz-adv-x="350" 
d="M311 1524v-1524h-272v1524h272z" />
    <glyph glyph-name="uni0407" unicode="&#x407;" horiz-adv-x="350" 
d="M311 1524v-1524h-272v1524h272zM406 1794v-217h-205v217h205zM150 1794v-217h-205v217h205z" />
    <glyph glyph-name="uni0408" unicode="&#x408;" horiz-adv-x="716" 
d="M23 670h262v-353q0 -67 53 -67h8q51 0 51 67v1207h283v-1215q0 -157 -76.5 -241t-212.5 -84h-90q-139 0 -208.5 70.5t-69.5 226.5v389z" />
    <glyph glyph-name="uni0409" unicode="&#x409;" horiz-adv-x="1157" 
d="M78 0h-68v276h17q40 0 54.5 23.5t16.5 79.5q15 366 15 1145h624v-549h129q137 0 202 -80.5t65 -226.5v-369q0 -59 -7 -102.5t-25.5 -82t-49.5 -62.5t-81 -38t-118 -14h-387v1255h-94q0 -709 -19 -987q-9 -141 -69 -204.5t-205 -63.5zM737 236h51q42 0 56 22t14 66v317
q0 41 -14 63.5t-56 22.5h-51v-491z" />
    <glyph glyph-name="uni040A" unicode="&#x40a;" horiz-adv-x="1146" 
d="M455 0v686h-144v-686h-272v1524h272v-561h144v561h272v-561h129q266 0 266 -308v-356q0 -74 -11.5 -125t-41.5 -92.5t-86 -61.5t-141 -20h-387zM727 236h51q42 0 56 22t14 66v305q0 41 -14 63.5t-56 22.5h-51v-479z" />
    <glyph glyph-name="uni040B" unicode="&#x40b;" horiz-adv-x="884" 
d="M674 1255h-236v-342q73 23 170 23q125 0 185.5 -66t60.5 -178v-692h-272v592q0 59 -17.5 78.5t-60.5 19.5q-46 0 -66 -10v-680h-272v1255h-154v269h662v-269z" />
    <glyph glyph-name="uni040C" unicode="&#x40c;" horiz-adv-x="761" 
d="M494 0l-183 645v-645h-272v1524h272v-586l178 586h269l-215 -693l237 -831h-286zM254 1577l88 235h217l-92 -235h-213z" />
    <glyph glyph-name="uni040E" unicode="&#x40e;" horiz-adv-x="673" 
d="M438 166q-29 -166 -151 -166h-228v244h88q25 0 34 12t12 43l4 43q3 36 -2 61l-211 1121h272l90 -633l88 633h256zM569 1782q0 -95 -63 -153t-154 -58h-8q-96 0 -157.5 57.5t-61.5 153.5v10h174v-6q0 -24 13 -38.5t34 -14.5h4q21 0 34 14.5t13 38.5v6h172v-10z" />
    <glyph glyph-name="uni040F" unicode="&#x40f;" horiz-adv-x="745" 
d="M500 -215h-252v215h-209v1524h272v-1256h123v1256h273v-1524h-207v-215z" />
    <glyph glyph-name="uni0410" unicode="&#x410;" horiz-adv-x="706" 
d="M451 0l-27 256h-164l-27 -256h-241l192 1524h324l207 -1524h-264zM287 518h108l-55 524z" />
    <glyph glyph-name="uni0411" unicode="&#x411;" horiz-adv-x="731" 
d="M39 0v1524h604v-269h-332v-301h129q137 0 202 -80.5t65 -226.5v-348q0 -59 -7 -102.5t-25.5 -82t-49.5 -62.5t-81 -38t-118 -14h-387zM311 236h51q42 0 56 22t14 66v297q0 41 -14 63.5t-56 22.5h-51v-471z" />
    <glyph glyph-name="uni0412" unicode="&#x412;" horiz-adv-x="761" 
d="M39 0v1524h412q139 0 201.5 -62.5t62.5 -210.5v-202q0 -85 -40 -141t-89 -72q151 -39 151 -240v-254q0 -178 -62 -260t-188 -82h-448zM377 1290h-66v-362h62q36 0 54.5 20t18.5 70v190q0 42 -16 62t-53 20zM377 682h-66v-440h76q37 0 53.5 20t16.5 80v248
q0 49 -17.5 70.5t-62.5 21.5z" />
    <glyph glyph-name="uni0413" unicode="&#x413;" horiz-adv-x="618" 
d="M39 0v1524h563v-269h-291v-1255h-272z" />
    <glyph glyph-name="uni0414" unicode="&#x414;" horiz-adv-x="808" 
d="M547 -215v215h-285v-215h-252v489h51q17 50 21 191q10 313 10 1059h635v-1250h72v-489h-252zM332 483q-3 -59 -8.5 -111.5t-9.5 -75.5l-5 -22h152v981h-119q0 -550 -10 -772z" />
    <glyph glyph-name="uni0415" unicode="&#x415;" horiz-adv-x="636" 
d="M39 1524h569v-269h-297v-331h234v-275h-234v-375h312v-274h-584v1524z" />
    <glyph glyph-name="uni0416" unicode="&#x416;" horiz-adv-x="1148" 
d="M438 0v649l-170 -649h-286l231 831l-209 693h268l166 -588v588h273v-588l166 588h268l-209 -693l231 -831h-286l-170 649v-649h-273z" />
    <glyph glyph-name="uni0417" unicode="&#x417;" horiz-adv-x="716" 
d="M301 1206v-151h-270v196q0 56 15 105t47 92t91 68.5t138 25.5h57q299 0 299 -293v-170q0 -173 -98 -231q112 -38 112 -174v-381q0 -148 -78.5 -232t-224.5 -84h-57q-83 0 -143.5 23t-94.5 63t-49.5 87t-15.5 102v307h272v-242q0 -71 57 -71q56 0 56 71v297
q0 35 -9.5 48.5t-42.5 13.5h-141v272h127q33 0 45.5 15t12.5 53v190q0 40 -12.5 55t-41.5 15q-27 0 -39 -15.5t-12 -54.5z" />
    <glyph glyph-name="uni0418" unicode="&#x418;" horiz-adv-x="786" 
d="M481 0v809l-176 -809h-266v1524h266v-815l176 815h267v-1524h-267z" />
    <glyph glyph-name="uni0419" unicode="&#x419;" horiz-adv-x="786" 
d="M481 0v809l-176 -809h-266v1524h266v-815l176 815h267v-1524h-267zM612 1782q0 -95 -63 -153t-154 -58h-8q-96 0 -157.5 57.5t-61.5 153.5v10h174v-6q0 -24 13 -38.5t34 -14.5h4q21 0 34 14.5t13 38.5v6h172v-10z" />
    <glyph glyph-name="uni041A" unicode="&#x41a;" horiz-adv-x="774" 
d="M506 0l-182 645v-645h-273v1524h273v-586l178 586h268l-215 -693l238 -831h-287z" />
    <glyph glyph-name="uni041B" unicode="&#x41b;" horiz-adv-x="786" 
d="M475 0v1255h-104q0 -709 -19 -987q-9 -141 -69 -204.5t-205 -63.5h-68v276h17q40 0 54.5 23.5t16.5 79.5q15 366 15 1145h635v-1524h-273z" />
    <glyph glyph-name="uni041C" unicode="&#x41c;" horiz-adv-x="935" 
d="M39 0v1524h336l104 -770l105 770h313v-1524h-246v901l-135 -901h-102l-138 901v-901h-237z" />
    <glyph glyph-name="uni041D" unicode="&#x41d;" horiz-adv-x="765" 
d="M455 0v643h-144v-643h-272v1524h272v-582h144v582h272v-1524h-272z" />
    <glyph glyph-name="uni041E" unicode="&#x41e;" horiz-adv-x="780" 
d="M748 1155v-807q0 -169 -86 -270t-238 -101h-62q-161 0 -245 96t-84 275v805q0 389 327 389h62q326 0 326 -387zM463 340v836q0 100 -72 100q-39 0 -56.5 -24t-17.5 -76v-836q0 -39 18 -64.5t58 -25.5q70 0 70 90z" />
    <glyph glyph-name="uni041F" unicode="&#x41f;" horiz-adv-x="745" 
d="M39 0v1524h668v-1524h-273v1255h-123v-1255h-272z" />
    <glyph glyph-name="uni0420" unicode="&#x420;" horiz-adv-x="731" 
d="M440 610h-129v-610h-272v1524h387q85 0 141 -20t86.5 -61.5t42 -93t11.5 -126.5v-305q0 -146 -65 -227t-202 -81zM311 1288v-430h51q42 0 56 22.5t14 63.5v254q0 45 -14 67.5t-56 22.5h-51z" />
    <glyph glyph-name="uni0421" unicode="&#x421;" horiz-adv-x="753" 
d="M387 244q68 0 68 92v336h270v-344q0 -72 -16 -132.5t-50.5 -111.5t-98 -80t-150.5 -29h-56q-76 0 -133.5 19.5t-92.5 52t-57 80.5t-30 98t-8 111v860q0 73 16.5 132.5t52.5 109t100 77t152 27.5h56q76 0 132.5 -18.5t91 -49t55.5 -75.5t28.5 -91t7.5 -102v-256h-270v246
q0 88 -70 88q-37 0 -52.5 -21t-15.5 -67v-860q0 -92 70 -92z" />
    <glyph glyph-name="uni0422" unicode="&#x422;" 
d="M674 1255h-195v-1255h-272v1255h-195v269h662v-269z" />
    <glyph glyph-name="uni0423" unicode="&#x423;" horiz-adv-x="673" 
d="M438 166q-29 -166 -151 -166h-228v244h88q25 0 34 12t12 43l4 43q3 36 -2 61l-211 1121h272l90 -633l88 633h256z" />
    <glyph glyph-name="uni0424" unicode="&#x424;" horiz-adv-x="1136" 
d="M432 1544h273v-125h14q385 0 385 -401v-469q0 -199 -91.5 -303.5t-293.5 -104.5h-14v-161h-273v161h-14q-385 0 -385 402v469q0 199 91 303t294 104h14v125zM432 1147h-2q-61 0 -87 -25t-26 -90v-497q0 -62 25 -91.5t88 -29.5h2v733zM705 1147v-733h2q61 0 86.5 24.5
t25.5 89.5v498q0 62 -24.5 91.5t-87.5 29.5h-2z" />
    <glyph glyph-name="uni0425" unicode="&#x425;" horiz-adv-x="733" 
d="M365 528l-109 -528h-266l192 815l-166 709h275l84 -457l82 457h258l-162 -709l190 -815h-274z" />
    <glyph glyph-name="uni0426" unicode="&#x426;" horiz-adv-x="788" 
d="M526 -215v215h-487v1524h272v-1256h123v1256h273v-1250h71v-489h-252z" />
    <glyph glyph-name="uni0427" unicode="&#x427;" horiz-adv-x="757" 
d="M446 0v610q-67 -22 -163 -22h-7q-125 0 -185 65.5t-60 177.5v693h272v-592q0 -59 17.5 -78.5t60.5 -19.5h4q41 0 61 10v680h273v-1524h-273z" />
    <glyph glyph-name="uni0428" unicode="&#x428;" horiz-adv-x="1120" 
d="M39 0v1524h272v-1250h113v1250h272v-1250h113v1250h272v-1524h-1042z" />
    <glyph glyph-name="uni0429" unicode="&#x429;" horiz-adv-x="1163" 
d="M39 0v1524h272v-1250h113v1250h272v-1250h113v1250h272v-1250h72v-489h-252v215h-862z" />
    <glyph glyph-name="uni042A" unicode="&#x42a;" horiz-adv-x="868" 
d="M12 1255v269h437v-549h129q266 0 266 -307v-369q0 -59 -7 -102.5t-25.5 -82t-49.5 -62.5t-81 -38t-118 -14h-387v1255h-164zM449 236h51q42 0 55.5 22t13.5 66v317q0 42 -13.5 64t-55.5 22h-51v-491z" />
    <glyph glyph-name="uni042B" unicode="&#x42b;" horiz-adv-x="1077" 
d="M440 975q137 0 202 -80.5t65 -226.5v-369q0 -59 -7 -102.5t-25.5 -82t-49.5 -62.5t-81 -38t-118 -14h-387v1524h272v-549h129zM311 236h51q42 0 56 22t14 66v317q0 41 -14 63.5t-56 22.5h-51v-491zM1038 1524v-1524h-272v1524h272z" />
    <glyph glyph-name="uni042C" unicode="&#x42c;" horiz-adv-x="731" 
d="M440 975q137 0 202 -80.5t65 -226.5v-369q0 -59 -7 -102.5t-25.5 -82t-49.5 -62.5t-81 -38t-118 -14h-387v1524h272v-549h129zM311 236h51q42 0 56 22t14 66v317q0 41 -14 63.5t-56 22.5h-51v-491z" />
    <glyph glyph-name="uni042D" unicode="&#x42d;" horiz-adv-x="753" 
d="M721 336q0 -61 -8 -111t-30 -98t-57 -80.5t-93 -52t-134 -19.5h-55q-87 0 -150.5 29t-98 80t-50.5 111.5t-16 132.5v268h270v-260q0 -92 68 -92q69 0 69 92v313h-203v287h203v260q0 46 -15 67t-52 21q-70 0 -70 -88v-205h-270v215q0 56 7.5 102t28.5 91t55.5 75.5t91 49
t132.5 18.5h55q88 0 152 -27.5t100 -77t53 -109.5t17 -132v-860z" />
    <glyph glyph-name="uni042E" unicode="&#x42e;" horiz-adv-x="1148" 
d="M1116 348q0 -170 -85.5 -270.5t-237.5 -100.5h-62q-161 0 -245.5 96t-84.5 275v295h-90v-643h-272v1524h272v-582h90v211q0 389 328 389h62q325 0 325 -387v-807zM831 340v836q0 100 -71 100q-39 0 -56.5 -24t-17.5 -76v-836q0 -39 18 -64.5t58 -25.5q69 0 69 90z" />
    <glyph glyph-name="uni042F" unicode="&#x42f;" horiz-adv-x="757" 
d="M446 569h-22l-148 -569h-286l170 641q-109 53 -109 236v348q0 74 12 125.5t42.5 92.5t87 61t141.5 20h385v-1524h-273v569zM446 817v471h-51q-42 0 -55.5 -22t-13.5 -66v-297q0 -42 13.5 -64t55.5 -22h51z" />
    <glyph glyph-name="uni0430" unicode="&#x430;" 
d="M25 180v240q0 82 27.5 135t86.5 90q28 18 115 60.5t98 48.5q17 10 17 41v59q0 34 -11 46.5t-34 12.5h-9q-25 0 -35 -14t-10 -45v-109h-233v152q0 40 11.5 75t38 69t80 53.5t128.5 19.5h47q154 0 216.5 -63t62.5 -179v-608q0 -18 7 -24.5t31 -6.5h29v-233h-244
q-39 0 -57 29t-18 96q-29 -53 -76 -94t-111 -41h-8q-71 0 -110 56t-39 134zM369 274v269q-51 -29 -68 -51q-25 -32 -25 -84v-134q0 -65 43 -65q50 0 50 65z" />
    <glyph glyph-name="uni0431" unicode="&#x431;" horiz-adv-x="692" 
d="M664 287q0 -129 -75 -217t-218 -88h-41q-156 0 -229.5 84t-73.5 221v831q0 95 14 158.5t51.5 113t106 72.5t172.5 23h18q26 0 35.5 7.5t9.5 31.5h232q0 -147 -42.5 -204.5t-168.5 -57.5h-35q-80 0 -105.5 -28t-25.5 -116v-86q80 86 186 86h10q97 0 138 -68.5t41 -207.5
v-555zM344 215q27 0 41 18.5t14 47.5v530q0 84 -55 84q-53 0 -53 -84v-530q0 -66 53 -66z" />
    <glyph glyph-name="uni0432" unicode="&#x432;" horiz-adv-x="679" 
d="M397 0h-364v1102h344q157 0 208.5 -41t51.5 -166v-121q0 -83 -27.5 -123t-77.5 -57q29 -11 45.5 -20.5t35 -29.5t26.5 -55t8 -86v-163q0 -68 -10 -110.5t-37.5 -73.5t-76 -43.5t-126.5 -12.5zM295 684h29q53 0 53 74v73q0 32 -12 47t-41 15h-29v-209zM295 209h29
q34 0 48.5 18.5t14.5 57.5v121q0 37 -15 54t-48 17h-29v-268z" />
    <glyph glyph-name="uni0433" unicode="&#x433;" horiz-adv-x="495" 
d="M33 0v1102h452v-244h-190v-858h-262z" />
    <glyph glyph-name="uni0434" unicode="&#x434;" horiz-adv-x="753" 
d="M240 -205h-240v449h33q24 19 33 96q2 17 3.5 35.5t2.5 45.5t2 49.5t1.5 66t0.5 74.5v95v109v134v153h596v-858h71v-449h-239v205h-264v-205zM301 332q-6 -49 -18 -88h127v614h-91q0 -368 -18 -526z" />
    <glyph glyph-name="uni0435" unicode="&#x435;" horiz-adv-x="653" 
d="M629 240q0 -125 -77.5 -192.5t-199.5 -67.5h-49q-126 0 -201 67.5t-75 192.5v606q0 122 67.5 199t208.5 77h49q277 0 277 -280v-326h-350v-240q0 -34 11.5 -50.5t39.5 -16.5q47 0 47 67v164h252v-200zM279 846v-133h106v133q0 37 -11.5 55.5t-41.5 18.5q-33 0 -43 -18
t-10 -56z" />
    <glyph glyph-name="uni0436" unicode="&#x436;" horiz-adv-x="1052" 
d="M399 0v455l-151 -455h-260l196 578l-182 524h250l147 -440v440h254v-440l148 440h250l-183 -524l197 -578h-260l-152 455v-455h-254z" />
    <glyph glyph-name="uni0437" unicode="&#x437;" horiz-adv-x="657" 
d="M625 258q0 -281 -289 -281h-43q-136 0 -203 76.5t-67 202.5v182h243v-166q0 -63 49 -63q52 0 52 55v148q0 59 -74 59h-107v229h107q42 0 58 14t16 62v55q0 39 -11.5 57.5t-40.5 18.5q-30 0 -40.5 -19.5t-10.5 -58.5v-100h-241v127q0 116 65.5 191t204.5 75h51
q152 0 211 -67.5t59 -210.5v-74q0 -83 -27 -123t-77 -57q29 -11 45.5 -20.5t35 -29.5t26.5 -55t8 -86v-141z" />
    <glyph glyph-name="uni0438" unicode="&#x438;" horiz-adv-x="712" 
d="M680 0h-256v578l-135 -578h-256v1102h256v-580l135 580h256v-1102z" />
    <glyph glyph-name="uni0439" unicode="&#x439;" horiz-adv-x="712" 
d="M680 0h-256v578l-135 -578h-256v1102h256v-580l135 580h256v-1102zM578 1376q0 -104 -63 -163.5t-155 -59.5h-6q-98 0 -159.5 58.5t-61.5 164.5v17h174v-13q0 -67 49 -67h2q23 0 36.5 17t13.5 50v13h170v-17z" />
    <glyph glyph-name="uni043A" unicode="&#x43a;" horiz-adv-x="700" 
d="M453 0l-158 442v-442h-262v1102h262v-430l154 430h249l-192 -522l207 -580h-260z" />
    <glyph glyph-name="uni043B" unicode="&#x43b;" horiz-adv-x="716" 
d="M86 340q2 17 3.5 35.5t2.5 45.5t2 49.5t1.5 66t0.5 74.5v95v109v134v153h588v-1102h-262v858h-82q0 -468 -18 -637q-13 -124 -69.5 -172.5t-170.5 -48.5h-72v248h13q32 0 44 21t19 71z" />
    <glyph glyph-name="uni043C" unicode="&#x43c;" horiz-adv-x="876" 
d="M379 0l-115 651v-651h-231v1102h317l103 -576l102 576h289v-1102h-232v655l-114 -655h-119z" />
    <glyph glyph-name="uni043D" unicode="&#x43d;" horiz-adv-x="692" 
d="M295 0h-262v1102h262v-422h102v422h262v-1102h-262v436h-102v-436z" />
    <glyph glyph-name="uni043E" unicode="&#x43e;" horiz-adv-x="690" 
d="M313 -20q-144 0 -215 85.5t-71 225.5v522q0 148 75.5 228.5t210.5 80.5h62q136 0 212.5 -80t76.5 -225v-522q0 -138 -78.5 -226.5t-210.5 -88.5h-62zM291 295q0 -78 53 -78q55 0 55 78v524q0 76 -55 76q-53 0 -53 -76v-524z" />
    <glyph glyph-name="uni043F" unicode="&#x43f;" horiz-adv-x="681" 
d="M295 0h-262v1102h616v-1102h-262v858h-92v-858z" />
    <glyph glyph-name="uni0440" unicode="&#x440;" horiz-adv-x="696" 
d="M33 1102h262v-121q82 133 192 133h5q86 0 130 -64.5t44 -170.5v-658q0 -107 -54.5 -175.5t-130.5 -68.5h-4q-104 0 -182 119v-481h-262v1487zM295 266q0 -35 14 -54t37 -19q51 0 51 71v559q0 70 -51 70t-51 -70v-557z" />
    <glyph glyph-name="uni0441" unicode="&#x441;" horiz-adv-x="651" 
d="M629 256q0 -122 -68 -200.5t-203 -78.5h-43q-148 0 -218 78t-70 209v555q0 303 284 303h51q267 0 267 -266v-182h-242v155q0 39 -10 58.5t-39 19.5q-28 0 -37.5 -18t-9.5 -58v-555q0 -34 9.5 -50.5t35.5 -16.5q49 0 49 63v222h244v-238z" />
    <glyph glyph-name="uni0442" unicode="&#x442;" horiz-adv-x="548" 
d="M143 0v858h-133v244h529v-244h-133v-858h-263z" />
    <glyph glyph-name="uni0443" unicode="&#x443;" horiz-adv-x="638" 
d="M416 -219q-29 -166 -152 -166h-237v244h108q25 0 33.5 12t11.5 43l4 43q2 29 -2 61l-190 1084h258l76 -608l69 608h252z" />
    <glyph glyph-name="uni0444" unicode="&#x444;" horiz-adv-x="1028" 
d="M713 -20h-68v-365h-262v365h-70q-144 0 -215 85.5t-71 225.5v522q0 148 75.5 228.5t210.5 80.5h70v402h262v-402h68q136 0 212 -80t76 -225v-522q0 -138 -78 -226.5t-210 -88.5zM344 217h39v678h-39q-53 0 -53 -76v-524q0 -78 53 -78zM682 895h-37v-678h37q55 0 55 78
v524q0 76 -55 76z" />
    <glyph glyph-name="uni0445" unicode="&#x445;" horiz-adv-x="636" 
d="M395 0l-78 348l-81 -348h-244l158 592l-148 510h250l72 -314l63 314h240l-140 -502l158 -600h-250z" />
    <glyph glyph-name="uni0446" unicode="&#x446;" horiz-adv-x="731" 
d="M721 244v-449h-240v205h-448v1102h262v-858h92v858h262v-858h72z" />
    <glyph glyph-name="uni0447" unicode="&#x447;" horiz-adv-x="665" 
d="M283 688q0 -34 11.5 -47.5t39.5 -13.5q21 0 37 8v467h262v-1102h-262v424q-55 -25 -129 -25q-111 0 -166.5 59.5t-55.5 184.5v459h263v-414z" />
    <glyph glyph-name="uni0448" unicode="&#x448;" horiz-adv-x="1015" 
d="M33 0v1102h262v-858h82v858h262v-858h82v858h262v-1102h-950z" />
    <glyph glyph-name="uni0449" unicode="&#x449;" horiz-adv-x="1064" 
d="M33 0v1102h262v-858h82v858h262v-858h82v858h262v-858h72v-449h-240v205h-782z" />
    <glyph glyph-name="uni044A" unicode="&#x44a;" horiz-adv-x="794" 
d="M10 858v244h406v-348h84q148 0 209 -59t61 -193v-221q0 -146 -61 -213.5t-209 -67.5h-346v858h-144zM416 211h28q64 0 64 65v205q0 34 -14.5 48t-49.5 14h-28v-332z" />
    <glyph glyph-name="uni044B" unicode="&#x44b;" horiz-adv-x="985" 
d="M33 0v1102h262v-348h84q148 0 209 -59t61 -193v-221q0 -146 -61 -213.5t-209 -67.5h-346zM295 211h29q63 0 63 65v205q0 34 -14 48t-49 14h-29v-332zM952 1102v-1102h-262v1102h262z" />
    <glyph glyph-name="uni044C" unicode="&#x44c;" horiz-adv-x="673" 
d="M33 0v1102h262v-348h84q148 0 209 -59t61 -193v-221q0 -146 -61 -213.5t-209 -67.5h-346zM295 211h29q63 0 63 65v205q0 34 -14 48t-49 14h-29v-332z" />
    <glyph glyph-name="uni044D" unicode="&#x44d;" horiz-adv-x="651" 
d="M625 264q0 -131 -70.5 -209t-218.5 -78h-43q-135 0 -202.5 78t-67.5 201v182h243v-166q0 -63 49 -63q26 0 35.5 16.5t9.5 50.5v195h-174v229h174v131q0 40 -9.5 58t-37.5 18q-29 0 -39 -19.5t-10 -58.5v-100h-241v127q0 125 62 195.5t208 70.5h51q281 0 281 -303v-555z
" />
    <glyph glyph-name="uni044E" unicode="&#x44e;" horiz-adv-x="1030" 
d="M1004 295q0 -138 -78.5 -226.5t-210.5 -88.5h-62q-144 0 -215 85.5t-71 225.5v145h-72v-436h-262v1102h262v-422h72v133q0 148 75.5 228.5t210.5 80.5h62q136 0 212.5 -80t76.5 -225v-522zM631 295q0 -78 53 -78q55 0 55 78v524q0 76 -55 76q-53 0 -53 -76v-524z" />
    <glyph glyph-name="uni044F" unicode="&#x44f;" horiz-adv-x="681" 
d="M387 369h-18l-109 -369h-260l127 424q-94 52 -94 197v200q0 146 61 213.5t209 67.5h346v-1102h-262v369zM387 891h-29q-63 0 -63 -66v-184q0 -34 14 -47.5t49 -13.5h29v311z" />
    <glyph glyph-name="uni0451" unicode="&#x451;" horiz-adv-x="653" 
d="M352 1122q277 0 277 -280v-326h-350v-240q0 -34 11.5 -50.5t39.5 -16.5q47 0 47 67v164h252v-200q0 -125 -77.5 -192.5t-199.5 -67.5h-49q-126 0 -201 67.5t-75 192.5v606q0 122 67.5 199t208.5 77h49zM559 1376v-217h-205v217h205zM305 1376v-217h-205v217h205zM279 846
v-133h106v133q0 37 -11.5 55.5t-41.5 18.5q-33 0 -43 -18t-10 -56z" />
    <glyph glyph-name="uni0452" unicode="&#x452;" horiz-adv-x="696" 
d="M664 -238q0 -62 -41.5 -104.5t-110.5 -42.5h-256v244h106q21 0 29 8.5t8 34.5v913q0 62 -51 62q-30 0 -41.5 -18t-11.5 -52v-807h-262v1194h-66v186h66v144h262v-144h154v-186h-154v-219q88 131 197 131h10q74 0 118 -48.5t44 -123.5v-1172z" />
    <glyph glyph-name="uni0453" unicode="&#x453;" horiz-adv-x="495" 
d="M33 0v1102h452v-244h-190v-858h-262zM133 1155l86 279h215l-90 -279h-211z" />
    <glyph glyph-name="uni0454" unicode="&#x454;" horiz-adv-x="651" 
d="M629 256q0 -122 -68 -200.5t-203 -78.5h-43q-148 0 -218 78t-70 209v555q0 303 284 303h51q267 0 267 -266v-127h-242v100q0 39 -10 58.5t-39 19.5q-28 0 -37.5 -18t-9.5 -58v-131h174v-229h-174v-195q0 -34 9.5 -50.5t35.5 -16.5q49 0 49 63v166h244v-182z" />
    <glyph glyph-name="uni0455" unicode="&#x455;" horiz-adv-x="612" 
d="M602 264q0 -123 -69 -202.5t-203 -79.5h-54q-135 0 -200.5 66t-65.5 173v180h242v-147q0 -61 47 -61h2q43 0 43 63v25q0 44 -11.5 74t-45.5 63l-140 133q-70 67 -96 133.5t-26 157.5v35q0 114 65.5 179.5t192.5 65.5h55q250 0 250 -209v-149h-234v115q0 57 -43 57
t-43 -57v-23q0 -36 9.5 -57t37.5 -49l146 -144q82 -82 111.5 -148t29.5 -157v-37z" />
    <glyph glyph-name="uni0456" unicode="&#x456;" horiz-adv-x="327" 
d="M295 1413v-258h-262v258h262zM295 1102v-1102h-262v1102h262z" />
    <glyph glyph-name="uni0457" unicode="&#x457;" horiz-adv-x="327" 
d="M154 1413v-258h-164v258h164zM338 1413v-258h-164v258h164zM295 1102v-1102h-262v1102h262z" />
    <glyph glyph-name="uni0458" unicode="&#x458;" horiz-adv-x="329" 
d="M297 1413v-258h-262v258h262zM-109 -141h107q21 0 29 8.5t8 34.5v1200h262v-1340q0 -62 -41.5 -104.5t-110.5 -42.5h-254v244z" />
    <glyph glyph-name="uni0459" unicode="&#x459;" horiz-adv-x="1062" 
d="M96 1102h588v-348h84q148 0 209 -59t61 -193v-221q0 -146 -61 -213.5t-209 -67.5h-346v858h-82q0 -468 -18 -637q-13 -124 -69.5 -172.5t-170.5 -48.5h-72v248h13q32 0 44 21t19 71q2 17 3.5 35.5t2.5 45.5t2 49.5t1.5 66t0.5 74.5v95v109v134v153zM684 543v-332h29
q63 0 63 65v205q0 34 -14 48t-49 14h-29z" />
    <glyph glyph-name="uni045A" unicode="&#x45a;" horiz-adv-x="1038" 
d="M295 0h-262v1102h262v-389h102v389h262v-389h84q148 0 209.5 -59t61.5 -193v-180q0 -145 -61.5 -213t-209.5 -68h-346v469h-102v-469zM659 502v-291h29q64 0 64 65v164q0 34 -14.5 48t-49.5 14h-29z" />
    <glyph glyph-name="uni045B" unicode="&#x45b;" horiz-adv-x="696" 
d="M295 807v-807h-262v1194h-66v186h66v144h262v-144h154v-186h-154v-219q88 131 197 131h10q74 0 118 -48.5t44 -123.5v-934h-265v815q0 62 -51 62q-30 0 -41.5 -18t-11.5 -52z" />
    <glyph glyph-name="uni045C" unicode="&#x45c;" horiz-adv-x="700" 
d="M266 1155l86 279h215l-90 -279h-211zM453 0l-158 442v-442h-262v1102h262v-430l154 430h249l-192 -522l207 -580h-260z" />
    <glyph glyph-name="uni045E" unicode="&#x45e;" horiz-adv-x="638" 
d="M416 -219q-29 -166 -152 -166h-237v244h108q25 0 33.5 12t11.5 43l4 43q2 29 -2 61l-190 1084h258l76 -608l69 608h252zM549 1376q0 -105 -62.5 -164t-154.5 -59h-6q-98 0 -160 58.5t-62 164.5v17h175v-13q0 -67 49 -67h2q22 0 35.5 17t13.5 50v13h170v-17z" />
    <glyph glyph-name="uni045F" unicode="&#x45f;" horiz-adv-x="681" 
d="M649 0h-188v-205h-240v205h-188v1102h262v-858h92v858h262v-1102z" />
    <glyph glyph-name="uni0490" unicode="&#x490;" horiz-adv-x="622" 
d="M43 0v1524h311v215h252v-484h-291v-1255h-272z" />
    <glyph glyph-name="uni0491" unicode="&#x491;" horiz-adv-x="495" 
d="M33 0v1102h233v205h219v-449h-190v-858h-262z" />
    <glyph glyph-name="uni0492" unicode="&#x492;" horiz-adv-x="626" 
d="M47 0v666h-51v241h51v617h563v-269h-291v-348h123v-241h-123v-666h-272z" />
    <glyph glyph-name="uni0493" unicode="&#x493;" horiz-adv-x="516" 
d="M53 0v428h-53v213h53v461h453v-244h-191v-217h99v-213h-99v-428h-262z" />
    <glyph glyph-name="uni0496" unicode="&#x496;" horiz-adv-x="1187" 
d="M438 0v649l-170 -649h-286l231 831l-209 693h268l166 -588v588h273v-588l166 588h268l-209 -693l154 -557h88v-489h-252v215h-45l-170 649v-649h-273z" />
    <glyph glyph-name="uni0497" unicode="&#x497;" horiz-adv-x="1073" 
d="M399 0v455l-151 -455h-260l196 578l-182 524h250l147 -440v440h254v-440l148 440h250l-183 -524l113 -334h92v-449h-219v205h-49l-152 455v-455h-254z" />
    <glyph glyph-name="uni049A" unicode="&#x49a;" horiz-adv-x="794" 
d="M494 0l-183 645v-645h-272v1524h272v-586l178 586h269l-215 -693l157 -557h84v-489h-252v215h-38z" />
    <glyph glyph-name="uni049B" unicode="&#x49b;" horiz-adv-x="722" 
d="M453 0l-158 442v-442h-262v1102h262v-430l154 430h249l-192 -522l119 -336h98v-449h-219v205h-51z" />
    <glyph glyph-name="uni04A2" unicode="&#x4a2;" horiz-adv-x="808" 
d="M455 0v643h-144v-643h-272v1524h272v-582h144v582h272v-1250h72v-489h-252v215h-92z" />
    <glyph glyph-name="uni04A3" unicode="&#x4a3;" horiz-adv-x="741" 
d="M295 0h-262v1102h262v-422h102v422h262v-858h72v-449h-219v205h-115v436h-102v-436z" />
    <glyph glyph-name="uni04AE" unicode="&#x4ae;" horiz-adv-x="669" 
d="M481 600v-600h-272v590l-225 934h272l92 -541l92 541h246z" />
    <glyph glyph-name="uni04AF" unicode="&#x4af;" horiz-adv-x="632" 
d="M440 0v-385h-262v385l-186 1102h254l73 -703l72 703h250z" />
    <glyph glyph-name="uni04B0" unicode="&#x4b0;" horiz-adv-x="669" 
d="M625 401h-144v-401h-272v401h-143v234h131l-213 889h272l92 -541l92 541h246l-197 -889h136v-234z" />
    <glyph glyph-name="uni04B1" unicode="&#x4b1;" horiz-adv-x="632" 
d="M440 0h123v-186h-123v-199h-262v199h-123v186h123l-186 1102h254l73 -703l72 703h250z" />
    <glyph glyph-name="uni04B2" unicode="&#x4b2;" horiz-adv-x="768" 
d="M365 528l-109 -528h-266l192 815l-166 709h275l84 -457l82 457h258l-162 -709l125 -541h80v-489h-252v215h-37z" />
    <glyph glyph-name="uni04B3" unicode="&#x4b3;" horiz-adv-x="655" 
d="M395 0l-78 348l-81 -348h-244l158 592l-148 510h250l72 -314l63 314h240l-140 -502l93 -356h75v-449h-219v205h-41z" />
    <glyph glyph-name="uni04BA" unicode="&#x4ba;" horiz-adv-x="757" 
d="M311 1524v-611q70 23 164 23h6q125 0 185.5 -66t60.5 -178v-692h-272v592q0 59 -17.5 78.5t-60.5 19.5h-4q-42 0 -62 -10v-680h-272v1524h272z" />
    <glyph glyph-name="uni04BB" unicode="&#x4bb;" horiz-adv-x="696" 
d="M33 0v1524h262v-549q88 131 197 131h10q74 0 118 -48.5t44 -123.5v-934h-265v815q0 62 -51 62q-30 0 -41.5 -18t-11.5 -52v-807h-262z" />
    <glyph glyph-name="uni04C0" unicode="&#x4c0;" horiz-adv-x="350" 
d="M311 1524v-1524h-272v1524h272z" />
    <glyph glyph-name="uni04CF" unicode="&#x4cf;" horiz-adv-x="327" 
d="M295 1524v-1524h-262v1524h262z" />
    <glyph glyph-name="uni04D8" unicode="&#x4d8;" horiz-adv-x="757" 
d="M33 328v567h407v301q0 46 -15 67t-52 21q-70 0 -70 -88v-205h-270v215q0 56 7.5 102t28.5 91t55.5 75.5t91 49t132.5 18.5h55q88 0 152 -27.5t100 -77t53 -109.5t17 -132v-860q0 -61 -8 -111t-30 -98t-57 -80.5t-93 -52t-134 -19.5h-55q-87 0 -150.5 29t-98 80
t-50.5 111.5t-16 132.5zM303 336q0 -92 68 -92q69 0 69 92v293h-137v-293z" />
    <glyph glyph-name="uni04D9" unicode="&#x4d9;" horiz-adv-x="653" 
d="M627 252q0 -122 -68 -199.5t-209 -77.5h-49q-276 0 -276 281v346h350v219q0 68 -51 68q-48 0 -48 -68v-143h-251v180q0 125 77 192.5t199 67.5h49q126 0 201.5 -67.5t75.5 -192.5v-606zM322 178q33 0 43 18t10 56v154h-107v-154q0 -37 12 -55.5t42 -18.5z" />
    <glyph glyph-name="uni04E8" unicode="&#x4e8;" horiz-adv-x="788" 
d="M756 1155v-807q0 -169 -86 -270t-238 -101h-70q-161 0 -245 96t-84 275v805q0 389 327 389h70q326 0 326 -387zM315 1188v-277h158v277q0 104 -78 104q-42 0 -61 -25.5t-19 -78.5zM315 328q0 -95 82 -95q76 0 76 95v327h-158v-327z" />
    <glyph glyph-name="uni04E9" unicode="&#x4e9;" horiz-adv-x="702" 
d="M313 -20q-144 0 -215 85.5t-71 225.5v522q0 148 75.5 228.5t210.5 80.5h74q136 0 212.5 -80t76.5 -225v-522q0 -138 -78.5 -226.5t-210.5 -88.5h-74zM289 827v-163h125v163q0 78 -64 78q-61 0 -61 -78zM289 287q0 -80 61 -80q33 0 48.5 23t15.5 57v166h-125v-166z" />
    <glyph glyph-name="Wgrave" unicode="&#x1e80;" horiz-adv-x="1163" 
d="M666 0l-80 838l-80 -838h-322l-190 1524h282l89 -975l96 975h260l96 -967l90 967h262l-194 -1524h-309zM606 1812l88 -235h-213l-90 235h215z" />
    <glyph glyph-name="wgrave" unicode="&#x1e81;" horiz-adv-x="1011" 
d="M580 0l-70 598l-72 -598h-280l-166 1102h258l74 -682l73 682h232l73 -690l72 690h246l-168 -1102h-272zM528 1434l84 -279h-209l-92 279h217z" />
    <glyph glyph-name="Wacute" unicode="&#x1e82;" horiz-adv-x="1163" 
d="M666 0l-80 838l-80 -838h-322l-190 1524h282l89 -975l96 975h260l96 -967l90 967h262l-194 -1524h-309zM483 1577l88 235h217l-92 -235h-213z" />
    <glyph glyph-name="wacute" unicode="&#x1e83;" horiz-adv-x="1011" 
d="M410 1155l86 279h215l-90 -279h-211zM580 0l-70 598l-72 -598h-280l-166 1102h258l74 -682l73 682h232l73 -690l72 690h246l-168 -1102h-272z" />
    <glyph glyph-name="Wdieresis" unicode="&#x1e84;" horiz-adv-x="1163" 
d="M666 0l-80 838l-80 -838h-322l-190 1524h282l89 -975l96 975h260l96 -967l90 967h262l-194 -1524h-309zM815 1794v-217h-205v217h205zM559 1794v-217h-205v217h205z" />
    <glyph glyph-name="wdieresis" unicode="&#x1e85;" horiz-adv-x="1011" 
d="M580 0l-70 598l-72 -598h-280l-166 1102h258l74 -682l73 682h232l73 -690l72 690h246l-168 -1102h-272zM483 1372v-217h-204v217h204zM737 1372v-217h-205v217h205z" />
    <glyph glyph-name="Ygrave" unicode="&#x1ef2;" horiz-adv-x="669" 
d="M481 600v-600h-272v590l-225 934h272l92 -541l92 541h246zM367 1812l88 -235h-213l-90 235h215z" />
    <glyph glyph-name="ygrave" unicode="&#x1ef3;" horiz-adv-x="636" 
d="M416 -219q-29 -166 -152 -166h-237v244h108q25 0 33.5 12t11.5 43l4 43q2 29 -2 61l-190 1084h258l76 -608l69 608h252zM350 1434l84 -279h-209l-92 279h217z" />
    <glyph glyph-name="uni2009" unicode="&#x2009;" horiz-adv-x="24" 
 />
    <glyph glyph-name="endash" unicode="&#x2013;" horiz-adv-x="684" 
d="M27 707h630v-185h-630v185z" />
    <glyph glyph-name="emdash" unicode="&#x2014;" horiz-adv-x="1036" 
d="M27 707h983v-185h-983v185z" />
    <glyph glyph-name="quoteleft" unicode="&#x2018;" horiz-adv-x="276" 
d="M74 1524h129q-36 -115 -39 -189h88v-262h-227v211q0 123 49 240z" />
    <glyph glyph-name="quoteright" unicode="&#x2019;" horiz-adv-x="276" 
d="M203 1073h-129q36 115 39 189h-88v262h227v-211q0 -123 -49 -240z" />
    <glyph glyph-name="quotesinglbase" unicode="&#x201a;" horiz-adv-x="276" 
d="M252 51q0 -122 -49 -239h-129q36 115 39 188h-88v262h227v-211z" />
    <glyph glyph-name="quotedblleft" unicode="&#x201c;" horiz-adv-x="538" 
d="M74 1524h129q-36 -115 -39 -189h88v-262h-227v211q0 123 49 240zM336 1524h129q-36 -115 -39 -189h88v-262h-227v211q0 123 49 240z" />
    <glyph glyph-name="quotedblright" unicode="&#x201d;" horiz-adv-x="538" 
d="M203 1073h-129q36 115 39 189h-88v262h227v-211q0 -123 -49 -240zM465 1073h-129q36 115 39 189h-88v262h227v-211q0 -123 -49 -240z" />
    <glyph glyph-name="quotedblbase" unicode="&#x201e;" horiz-adv-x="538" 
d="M252 51q0 -122 -49 -239h-129q36 115 39 188h-88v262h227v-211zM514 51q0 -122 -49 -239h-129q36 115 39 188h-88v262h227v-211z" />
    <glyph glyph-name="dagger" unicode="&#x2020;" horiz-adv-x="546" 
d="M141 0v973h-131v258h131v293h265v-293h131v-258h-131v-973h-265z" />
    <glyph glyph-name="daggerdbl" unicode="&#x2021;" horiz-adv-x="546" 
d="M141 295h-131v256h131v422h-131v256h131v295h265v-295h131v-256h-131v-422h131v-256h-131v-295h-265v295z" />
    <glyph glyph-name="bullet" unicode="&#x2022;" horiz-adv-x="475" 
d="M238 453q-94 0 -154.5 63t-60.5 158t60.5 159t154.5 64q93 0 154 -64t61 -159q0 -94 -61 -157.5t-154 -63.5z" />
    <glyph glyph-name="ellipsis" unicode="&#x2026;" horiz-adv-x="868" 
d="M598 295h244v-295h-244v295zM311 0v295h244v-295h-244zM270 0h-243v295h243v-295z" />
    <glyph glyph-name="perthousand" unicode="&#x2030;" horiz-adv-x="1484" 
d="M20 1055v262q0 105 54.5 162t148.5 57h41q94 0 147.5 -57.5t53.5 -161.5v-262q0 -103 -53.5 -162t-147.5 -59h-41q-94 0 -148.5 57.5t-54.5 163.5zM705 1524h169l-571 -1524h-170zM276 1040v293q0 41 -34 41q-33 0 -33 -41v-293q0 -41 33 -41q34 0 34 41zM1262 -10h-39
q-94 0 -149.5 57t-55.5 162v262q0 105 55.5 163t149.5 58h39q95 0 148.5 -58.5t53.5 -162.5v-262q0 -103 -53.5 -161t-148.5 -58zM782 -10h-41q-94 0 -148 56.5t-54 162.5v262q0 106 54 163.5t148 57.5h41q94 0 147.5 -58.5t53.5 -162.5v-262q0 -103 -53.5 -161t-147.5 -58z
M1241 154q35 0 35 41v292q0 41 -35 41q-33 0 -33 -41v-292q0 -41 33 -41zM760 154q35 0 35 41v292q0 41 -35 41q-33 0 -33 -41v-292q0 -41 33 -41z" />
    <glyph glyph-name="uni2032" unicode="&#x2032;" horiz-adv-x="235" 
d="M236 1524l-46 -391h-190l43 391h193z" />
    <glyph glyph-name="uni2033" unicode="&#x2033;" horiz-adv-x="458" 
d="M231 1524l-45 -391h-186l43 391h188zM459 1524l-45 -391h-189l47 391h187z" />
    <glyph glyph-name="guilsinglleft" unicode="&#x2039;" horiz-adv-x="325" 
d="M221 586l92 -342h-202l-91 280v123l91 277h204z" />
    <glyph glyph-name="guilsinglright" unicode="&#x203a;" horiz-adv-x="325" 
d="M102 584l-90 340h205l88 -279v-123l-88 -278h-207z" />
    <glyph glyph-name="fraction" unicode="&#x2044;" horiz-adv-x="712" 
d="M547 1524h166l-547 -1524h-166z" />
    <glyph glyph-name="zero.sup" unicode="&#x2070;" horiz-adv-x="464" 
d="M221 1536h25q100 0 149 -53t49 -148v-334q0 -87 -54 -137.5t-144 -50.5h-29q-90 0 -142 50.5t-52 137.5v334q0 95 50 148t148 53zM264 1339q0 43 -31 43q-30 0 -30 -43v-329q0 -39 28 -39q33 0 33 39v329z" />
    <glyph glyph-name="four.sup" unicode="&#x2074;" horiz-adv-x="425" 
d="M10 1065q110 266 176 461h170v-432h58v-148h-58v-121h-163v121h-183v119zM129 1094h64v178q-22 -77 -64 -178z" />
    <glyph glyph-name="five.sup" unicode="&#x2075;" horiz-adv-x="432" 
d="M416 1006q0 -94 -46.5 -143.5t-138.5 -49.5h-30q-183 0 -183 168v82h170v-84q0 -31 25 -31q10 0 17.5 9.5t7.5 21.5v170q0 37 -25 37q-27 0 -27 -37v-33h-159v408h368v-146h-211v-125q17 22 29.5 35.5t37.5 27t52 13.5q57 0 85 -36t28 -97v-190z" />
    <glyph glyph-name="six.sup" unicode="&#x2076;" horiz-adv-x="454" 
d="M436 997q0 -82 -53.5 -133t-151.5 -51q-107 0 -157.5 51t-50.5 135v357q0 77 46 128.5t156 51.5t153.5 -46t43.5 -128v-53h-172v53q0 33 -27 33q-22 0 -22 -33v-152q52 66 125 66q56 0 83 -36t27 -89v-154zM201 995q0 -41 26 -41q31 0 31 41v111q0 43 -31 43
q-26 0 -26 -43v-111z" />
    <glyph glyph-name="seven.sup" unicode="&#x2077;" horiz-adv-x="397" 
d="M330 1149q-27 -131 -27 -324h-201q0 82 12 146.5t46 161.5q29 78 39 105.5t23 67t16.5 57.5t3.5 34h-72v-121h-152v248h369v-74q0 -19 -4.5 -49t-11 -58.5t-19 -87.5t-22.5 -106z" />
    <glyph glyph-name="eight.sup" unicode="&#x2078;" horiz-adv-x="436" 
d="M414 1374v-53q0 -86 -66 -125q72 -30 72 -131v-78q0 -81 -48 -127.5t-145 -46.5h-18q-191 0 -191 176v76q0 99 68 131q-61 39 -61 125v53q0 162 184 162h18q91 0 139 -41.5t48 -120.5zM244 1290v76q0 37 -27 37q-24 0 -24 -37v-76q0 -15 7 -25t19 -10q25 0 25 35z
M246 989v98q0 39 -29 39q-12 0 -19.5 -11t-7.5 -28v-98q0 -14 7.5 -24.5t19.5 -10.5q29 0 29 35z" />
    <glyph glyph-name="nine.sup" unicode="&#x2079;" horiz-adv-x="454" 
d="M432 993q0 -35 -9.5 -65t-31 -57t-63.5 -42.5t-101 -15.5q-112 0 -153 45t-41 125v57h172v-53q0 -33 26 -33q23 0 23 33v152q-49 -66 -121 -66q-54 0 -84.5 38t-30.5 89v152q0 83 50.5 133.5t154.5 50.5q109 0 159 -50t50 -134v-359zM225 1395q-30 0 -30 -41v-113
q0 -41 30 -41q29 0 29 41v113q0 41 -29 41z" />
    <glyph glyph-name="zero.sub" unicode="&#x2080;" horiz-adv-x="464" 
d="M221 504h25q100 0 149 -53t49 -148v-334q0 -87 -54 -137.5t-144 -50.5h-29q-90 0 -142 50.5t-52 137.5v334q0 95 50 148t148 53zM264 307q0 43 -31 43q-30 0 -30 -43v-330q0 -38 28 -38q33 0 33 38v330z" />
    <glyph glyph-name="one.sub" unicode="&#x2081;" horiz-adv-x="301" 
d="M96 270h-88v136q60 0 84 21.5t29 59.5h147v-696h-172v479z" />
    <glyph glyph-name="two.sub" unicode="&#x2082;" horiz-adv-x="450" 
d="M432 41v-250h-422v90q0 58 30.5 113t133.5 170q44 52 54 75t10 62v33q0 19 -6 27t-23 8q-27 0 -27 -35v-109h-159v117q0 70 40 116t130 46h30q105 0 149 -45.5t44 -116.5v-37q0 -70 -28.5 -119.5t-100.5 -115.5q-83 -75 -99 -95t-16 -45h109v111h151z" />
    <glyph glyph-name="three.sub" unicode="&#x2083;" horiz-adv-x="430" 
d="M178 258h-158v74q0 84 41 128t134 44h24q92 0 136 -39.5t44 -126.5v-47q0 -46 -18.5 -74t-42.5 -37q76 -29 76 -110v-113q0 -83 -47 -129.5t-142 -46.5h-28q-179 0 -179 162v104h164v-94q0 -35 27 -35q24 0 24 35v100q0 18 -6 24.5t-20 6.5h-80v141h76q28 0 28 33v78
q0 21 -5.5 29t-20.5 8t-21 -8.5t-6 -28.5v-78z" />
    <glyph glyph-name="four.sub" unicode="&#x2084;" horiz-adv-x="425" 
d="M10 -88v119q110 266 176 461h170v-433h58v-147h-58v-121h-163v121h-183zM129 59h64v179q-23 -80 -64 -179z" />
    <glyph glyph-name="five.sub" unicode="&#x2085;" horiz-adv-x="432" 
d="M416 -27q0 -192 -185 -192h-30q-183 0 -183 168v82h170v-84q0 -31 25 -31q10 0 17.5 9.5t7.5 21.5v170q0 37 -25 37q-27 0 -27 -37v-33h-159v408h368v-146h-211v-125q17 22 29.5 35.5t37.5 27t52 13.5q57 0 85 -36t28 -97v-191z" />
    <glyph glyph-name="six.sub" unicode="&#x2086;" horiz-adv-x="454" 
d="M436 -35q0 -82 -53.5 -133t-151.5 -51q-107 0 -157.5 51t-50.5 135v357q0 77 46 128.5t156 51.5t153.5 -46t43.5 -128v-54h-172v54q0 32 -27 32q-22 0 -22 -32v-152q52 66 125 66q56 0 83 -36t27 -89v-154zM201 -37q0 -41 26 -41q31 0 31 41v111q0 43 -31 43
q-26 0 -26 -43v-111z" />
    <glyph glyph-name="seven.sub" unicode="&#x2087;" horiz-adv-x="397" 
d="M330 115q-27 -131 -27 -324h-201q0 82 12 145.5t46 161.5q29 78 39 105.5t23 67t16.5 57.5t3.5 34h-72v-120h-152v247h369v-73q0 -19 -4.5 -49t-11 -58.5t-19 -87.5t-22.5 -106z" />
    <glyph glyph-name="eight.sub" unicode="&#x2088;" horiz-adv-x="436" 
d="M414 342v-53q0 -86 -66 -125q72 -30 72 -131v-78q0 -81 -48 -127.5t-145 -46.5h-18q-191 0 -191 176v76q0 99 68 131q-61 39 -61 125v53q0 162 184 162h18q91 0 139 -41.5t48 -120.5zM244 258v76q0 37 -27 37q-24 0 -24 -37v-76q0 -15 7 -25t19 -10q25 0 25 35zM246 -43
v98q0 39 -29 39q-12 0 -19.5 -11t-7.5 -28v-98q0 -14 7.5 -24.5t19.5 -10.5q29 0 29 35z" />
    <glyph glyph-name="nine.sub" unicode="&#x2089;" horiz-adv-x="454" 
d="M432 -39q0 -35 -9.5 -65t-31 -57t-63.5 -42.5t-101 -15.5q-112 0 -153 45t-41 125v57h172v-53q0 -33 26 -33q23 0 23 33v151q-48 -65 -121 -65q-54 0 -84.5 38t-30.5 89v151q0 83 50.5 134t154.5 51q109 0 159 -50.5t50 -134.5v-358zM225 362q-18 0 -24 -9.5t-6 -30.5
v-113q0 -41 30 -41q29 0 29 41v113q0 40 -29 40z" />
    <glyph glyph-name="Euro" unicode="&#x20ac;" horiz-adv-x="843" 
d="M815 330q0 -57 -9.5 -106.5t-32 -96t-57.5 -79t-89.5 -52t-124.5 -19.5h-64q-74 0 -130.5 19.5t-91 52t-56 80.5t-29.5 98t-8 111v258h-113v172h113v53h-113v172h113v203q0 57 10.5 107t34 94.5t59.5 76t90 50t121 18.5h64q92 0 156 -27t97 -76.5t46.5 -105.5t13.5 -127
v-166h-270v156q0 88 -70 88q-36 0 -51.5 -21.5t-15.5 -66.5v-203h268v-172h-268v-53h268v-172h-268v-258q0 -92 69 -92q68 0 68 92v207h270v-215z" />
    <glyph glyph-name="uni20B4" unicode="&#x20b4;" horiz-adv-x="755" 
d="M745 985v-172h-735v172h332l10 10q49 55 66.5 98t17.5 99v35q0 41 -13 61.5t-46 20.5q-35 0 -47.5 -20t-12.5 -60v-191h-262v205q0 154 68 226.5t225 72.5h55q144 0 227 -79t83 -224v-41q0 -120 -64 -213h96zM727 297q0 -155 -78.5 -235t-232.5 -80h-54
q-164 0 -247.5 100t-83.5 276v33q0 94 53 197h-74v172h735v-172h-356q-43 -51 -55 -93t-12 -120v-29q0 -110 67 -110q70 0 70 92v207h268v-238z" />
    <glyph glyph-name="uni20B8" unicode="&#x20b8;" horiz-adv-x="690" 
d="M12 1352v172h662v-172h-662zM674 1030h-195v-1030h-272v1030h-195v268h662v-268z" />
    <glyph glyph-name="uni20BD" unicode="&#x20bd;" horiz-adv-x="815" 
d="M676 385h-281v-385h-272v385h-113v172h113v53h-113v172h113v742h389q84 0 140 -20t86 -61.5t41.5 -93t11.5 -126.5v-303q0 -147 -65 -228.5t-202 -81.5h-129v-53h281v-172zM395 1288v-450h51q42 0 56 22.5t14 63.5v276q0 44 -14 66t-56 22h-51z" />
    <glyph glyph-name="uni2116" unicode="&#x2116;" horiz-adv-x="1316" 
d="M1014 801q-103 0 -166.5 58t-63.5 161v295q0 103 63 161t167 58h39q103 0 164 -58.5t61 -160.5v-295q0 -100 -59.5 -159.5t-165.5 -59.5h-39zM1028 977q43 0 43 47v289q0 47 -43 47q-37 0 -37 -47v-289q0 -47 37 -47zM795 557v191h471v-191h-471zM39 1524h256l186 -779
v779h242v-1524h-231l-211 836v-836h-242v1524z" />
    <glyph glyph-name="trademark" unicode="&#x2122;" horiz-adv-x="706" 
d="M281 1393h-64v-445h-147v445h-62v131h273v-131zM307 948v576h162l31 -250l26 250h160v-576h-117v326l-45 -326h-57l-43 326v-326h-117z" />
    <glyph glyph-name="onethird" unicode="&#x2153;" horiz-adv-x="849" 
d="M96 1307h-88v135q60 0 84 22t29 60h147v-697h-172v480zM563 1524h166l-547 -1524h-166zM598 467h-158v74q0 84 40.5 128t133.5 44h25q92 0 136 -39.5t44 -126.5v-47q0 -46 -18.5 -74t-42.5 -37q76 -29 76 -110v-113q0 -83 -47 -129.5t-142 -46.5h-29q-178 0 -178 162v104
h164v-94q0 -35 27 -35q24 0 24 35v100q0 18 -6 24.5t-20 6.5h-80v141h76q28 0 28 33v78q0 21 -5.5 29t-20.5 8t-21 -8.5t-6 -28.5v-78z" />
    <glyph glyph-name="twothirds" unicode="&#x2154;" horiz-adv-x="1003" 
d="M432 1073v-250h-422v90q0 58 30.5 113t133.5 170q44 52 54 75t10 62v33q0 19 -6 27t-23 8q-27 0 -27 -35v-109h-159v117q0 70 40 116t130 46h30q105 0 149 -45.5t44 -116.5v-37q0 -70 -28.5 -119.5t-100.5 -115.5q-84 -75 -99.5 -94.5t-15.5 -44.5h109v110h151zM752 467
h-158v74q0 84 40.5 128t133.5 44h25q92 0 136 -39.5t44 -126.5v-47q0 -46 -18.5 -74t-43.5 -37q76 -29 76 -110v-113q0 -83 -46.5 -129.5t-141.5 -46.5h-29q-178 0 -178 162v104h164v-94q0 -35 26 -35q25 0 25 35v100q0 18 -6.5 24.5t-20.5 6.5h-80v141h76q29 0 29 33v78
q0 20 -6 28.5t-21 8.5t-20.5 -8t-5.5 -29v-78zM717 1524h166l-547 -1524h-166z" />
    <glyph glyph-name="oneeighth" unicode="&#x215b;" horiz-adv-x="851" 
d="M829 498v53q0 79 -47.5 120.5t-138.5 41.5h-18q-185 0 -185 -162v-53q0 -85 62 -125q-68 -32 -68 -131v-76q0 -176 191 -176h18q97 0 145 46.5t48 127.5v78q0 101 -72 131q65 39 65 125zM563 1524h166l-547 -1524h-166zM96 1307h-88v135q60 0 84 22t29 60h147v-697h-172
v480zM662 264v-98q0 -35 -29 -35q-12 0 -19.5 10.5t-7.5 24.5v98q0 17 7.5 28t19.5 11q29 0 29 -39zM659 543v-76q0 -35 -24 -35q-12 0 -19.5 10t-7.5 25v76q0 37 25 37q26 0 26 -37z" />
    <glyph glyph-name="threeeighths" unicode="&#x215c;" horiz-adv-x="958" 
d="M936 498v53q0 79 -47.5 120.5t-138.5 41.5h-19q-184 0 -184 -162v-53q0 -86 61 -125q-67 -31 -67 -131v-76q0 -176 190 -176h19q96 0 144 46.5t48 127.5v78q0 101 -72 131q66 39 66 125zM670 1524h166l-547 -1524h-166zM178 1290h-158v74q0 84 41 128t134 44h24
q92 0 136 -39.5t44 -126.5v-47q0 -46 -18.5 -74t-42.5 -37q76 -29 76 -110v-113q0 -83 -47 -129.5t-142 -46.5h-28q-179 0 -179 162v104h164v-94q0 -35 27 -35q24 0 24 35v100q0 18 -6 24.5t-20 6.5h-80v141h76q28 0 28 33v78q0 21 -5.5 29t-20.5 8t-21 -8.5t-6 -28.5v-78z
M768 264v-98q0 -35 -29 -35q-12 0 -19 10.5t-7 24.5v98q0 39 26 39q29 0 29 -39zM766 543v-76q0 -35 -25 -35q-12 0 -19 10t-7 25v76q0 37 24 37q27 0 27 -37z" />
    <glyph glyph-name="fiveeighths" unicode="&#x215d;" horiz-adv-x="958" 
d="M936 498v53q0 79 -47.5 120.5t-138.5 41.5h-19q-184 0 -184 -162v-53q0 -86 61 -125q-67 -31 -67 -131v-76q0 -176 190 -176h19q96 0 144 46.5t48 127.5v78q0 101 -72 131q66 39 66 125zM670 1524h166l-547 -1524h-166zM416 1006q0 -94 -46.5 -143.5t-138.5 -49.5h-30
q-183 0 -183 168v82h170v-84q0 -31 25 -31q10 0 17.5 9.5t7.5 21.5v170q0 37 -25 37q-27 0 -27 -37v-33h-159v408h368v-146h-211v-125q17 22 29.5 35.5t37.5 27t52 13.5q57 0 85 -36t28 -97v-190zM768 264v-98q0 -35 -29 -35q-12 0 -19 10.5t-7 24.5v98q0 39 26 39
q29 0 29 -39zM766 543v-76q0 -35 -25 -35q-12 0 -19 10t-7 25v76q0 37 24 37q27 0 27 -37z" />
    <glyph glyph-name="seveneighths" unicode="&#x215e;" horiz-adv-x="886" 
d="M864 498v53q0 79 -47.5 120.5t-138.5 41.5h-19q-184 0 -184 -162v-53q0 -85 62 -125q-68 -32 -68 -131v-76q0 -176 190 -176h19q96 0 144 46.5t48 127.5v78q0 102 -71 131q65 39 65 125zM598 1524h166l-547 -1524h-166zM330 1149q-27 -131 -27 -324h-201q0 82 12 146.5
t46 161.5q29 78 39 105.5t23 67t16.5 57.5t3.5 34h-72v-121h-152v248h369v-74q0 -19 -4.5 -49t-11 -58.5t-19 -87.5t-22.5 -106zM696 264v-98q0 -35 -28 -35q-12 0 -19.5 10.5t-7.5 24.5v98q0 17 7.5 28t19.5 11q28 0 28 -39zM694 543v-76q0 -35 -24 -35q-12 0 -19.5 10
t-7.5 25v76q0 37 25 37q26 0 26 -37z" />
    <glyph glyph-name="minus" unicode="&#x2212;" horiz-adv-x="647" 
d="M27 709h594v-187h-594v187z" />
    <glyph glyph-name="uni24C5" unicode="&#x24c5;" horiz-adv-x="1054" 
d="M541 -23h-21q-485 0 -485 523v528q0 252 128 385t359 133h25q231 0 352 -130t121 -388v-528q0 -134 -35.5 -236t-100.5 -164t-151 -92.5t-192 -30.5zM195 530q0 -415 329 -415h17q323 0 323 415v471q0 408 -319 408h-21q-177 0 -253 -102.5t-76 -305.5v-471zM602 639h-90
v-393h-211v1036h301q100 0 146.5 -45.5t46.5 -159.5v-229q0 -108 -48 -158.5t-145 -50.5zM512 1110v-299h31q24 0 33.5 14.5t9.5 46.5v181q0 32 -9 44.5t-34 12.5h-31z" />
    <glyph glyph-name="zero.den" unicode="&#xe402;" horiz-adv-x="464" 
d="M221 713h25q100 0 149 -53t49 -148v-334q0 -87 -54 -137.5t-144 -50.5h-29q-90 0 -142 50.5t-52 137.5v334q0 95 50 148t148 53zM264 516q0 43 -31 43q-30 0 -30 -43v-330q0 -39 28 -39q33 0 33 39v330z" />
    <glyph glyph-name="one.den" unicode="&#xe403;" horiz-adv-x="301" 
d="M96 479h-88v135q60 0 84 22t29 60h147v-696h-172v479z" />
    <glyph glyph-name="two.den" unicode="&#xe404;" horiz-adv-x="450" 
d="M432 0h-422v90q0 58 30.5 113t133.5 170q44 52 54 75t10 62v33q0 19 -6 27t-23 8q-27 0 -27 -35v-109h-159v117q0 70 40 116t130 46h30q105 0 149 -45.5t44 -116.5v-37q0 -70 -28.5 -119.5t-100.5 -115.5q-83 -75 -99 -95t-16 -45h109v111h151v-250z" />
    <glyph glyph-name="three.den" unicode="&#xe405;" horiz-adv-x="430" 
d="M178 467h-158v74q0 84 41 128t134 44h24q92 0 136 -39.5t44 -126.5v-47q0 -46 -18.5 -74t-42.5 -37q76 -29 76 -110v-113q0 -83 -47 -129.5t-142 -46.5h-28q-179 0 -179 162v104h164v-94q0 -35 27 -35q24 0 24 35v100q0 18 -6 24.5t-20 6.5h-80v141h76q28 0 28 33v78
q0 21 -5.5 29t-20.5 8t-21 -8.5t-6 -28.5v-78z" />
    <glyph glyph-name="four.den" unicode="&#xe406;" horiz-adv-x="425" 
d="M10 121v119q112 270 176 460h170v-432h58v-147h-58v-121h-163v121h-183zM129 268h64v178q-22 -77 -64 -178z" />
    <glyph glyph-name="five.den" unicode="&#xe407;" horiz-adv-x="432" 
d="M416 182q0 -192 -185 -192h-30q-183 0 -183 168v82h170v-84q0 -31 25 -31q10 0 17.5 9.5t7.5 21.5v170q0 36 -25 36q-27 0 -27 -36v-33h-159v407h368v-145h-211v-125q17 22 29.5 35.5t37.5 27t52 13.5q57 0 85 -36t28 -97v-191z" />
    <glyph glyph-name="six.den" unicode="&#xe408;" horiz-adv-x="454" 
d="M436 174q0 -82 -53.5 -133t-151.5 -51q-107 0 -157.5 51t-50.5 135v356q0 77 46 129t156 52t153.5 -46t43.5 -128v-54h-172v54q0 32 -27 32q-22 0 -22 -32v-152q52 66 125 66q56 0 83 -36t27 -89v-154zM201 172q0 -41 26 -41q31 0 31 41v111q0 43 -31 43q-26 0 -26 -43
v-111z" />
    <glyph glyph-name="seven.den" unicode="&#xe409;" horiz-adv-x="397" 
d="M330 324q-27 -131 -27 -324h-201q0 82 12 145.5t46 161.5q29 78 39 105.5t23 67t16.5 57.5t3.5 34h-72v-120h-152v247h369v-73q0 -19 -4.5 -49t-11 -58.5t-19 -87.5t-22.5 -106z" />
    <glyph glyph-name="eight.den" unicode="&#xe40a;" horiz-adv-x="436" 
d="M414 551v-53q0 -86 -66 -125q72 -30 72 -131v-78q0 -81 -48 -127.5t-145 -46.5h-18q-191 0 -191 176v76q0 99 68 131q-61 39 -61 125v53q0 162 184 162h18q91 0 139 -41.5t48 -120.5zM246 166v98q0 39 -29 39q-12 0 -19.5 -11t-7.5 -28v-98q0 -14 7.5 -24.5t19.5 -10.5
q29 0 29 35zM244 467v76q0 37 -27 37q-24 0 -24 -37v-76q0 -15 7 -25t19 -10q25 0 25 35z" />
    <glyph glyph-name="nine.den" unicode="&#xe40b;" horiz-adv-x="454" 
d="M432 170q0 -35 -9.5 -65t-31 -57t-63.5 -42.5t-101 -15.5q-112 0 -153 45t-41 125v57h172v-53q0 -33 26 -33q23 0 23 33v151q-48 -65 -121 -65q-54 0 -84.5 38t-30.5 89v151q0 83 50.5 134t154.5 51q109 0 159 -50.5t50 -134.5v-358zM225 571q-30 0 -30 -41v-112
q0 -41 30 -41q29 0 29 41v112q0 41 -29 41z" />
    <glyph glyph-name="zero.num" unicode="&#xe416;" horiz-adv-x="464" 
d="M221 1536h25q100 0 149 -53t49 -148v-334q0 -87 -54 -137.5t-144 -50.5h-29q-90 0 -142 50.5t-52 137.5v334q0 95 50 148t148 53zM264 1339q0 43 -31 43q-30 0 -30 -43v-329q0 -39 28 -39q33 0 33 39v329z" />
    <glyph glyph-name="one.num" unicode="&#xe417;" horiz-adv-x="301" 
d="M96 1307h-88v135q60 0 84 22t29 60h147v-697h-172v480z" />
    <glyph glyph-name="two.num" unicode="&#xe418;" horiz-adv-x="450" 
d="M432 1073v-250h-422v90q0 58 30.5 113t133.5 170q44 52 54 75t10 62v33q0 19 -6 27t-23 8q-27 0 -27 -35v-109h-159v117q0 70 40 116t130 46h30q105 0 149 -45.5t44 -116.5v-37q0 -70 -28.5 -119.5t-100.5 -115.5q-84 -75 -99.5 -94.5t-15.5 -44.5h109v110h151z" />
    <glyph glyph-name="three.num" unicode="&#xe419;" horiz-adv-x="430" 
d="M178 1290h-158v74q0 84 41 128t134 44h24q92 0 136 -39.5t44 -126.5v-47q0 -46 -18.5 -74t-42.5 -37q76 -29 76 -110v-113q0 -83 -47 -129.5t-142 -46.5h-28q-179 0 -179 162v104h164v-94q0 -35 27 -35q24 0 24 35v100q0 18 -6 24.5t-20 6.5h-80v141h76q28 0 28 33v78
q0 21 -5.5 29t-20.5 8t-21 -8.5t-6 -28.5v-78z" />
    <glyph glyph-name="four.num" unicode="&#xe41a;" horiz-adv-x="425" 
d="M10 946v119q110 266 176 461h170v-432h58v-148h-58v-121h-163v121h-183zM129 1094h64v178q-22 -77 -64 -178z" />
    <glyph glyph-name="five.num" unicode="&#xe41b;" horiz-adv-x="432" 
d="M416 1006q0 -94 -46.5 -143.5t-138.5 -49.5h-30q-183 0 -183 168v82h170v-84q0 -31 25 -31q10 0 17.5 9.5t7.5 21.5v170q0 37 -25 37q-27 0 -27 -37v-33h-159v408h368v-146h-211v-125q17 22 29.5 35.5t37.5 27t52 13.5q57 0 85 -36t28 -97v-190z" />
    <glyph glyph-name="six.num" unicode="&#xe41c;" horiz-adv-x="454" 
d="M436 997q0 -82 -53.5 -133t-151.5 -51q-107 0 -157.5 51t-50.5 135v357q0 77 46 128.5t156 51.5t153.5 -46t43.5 -128v-53h-172v53q0 33 -27 33q-22 0 -22 -33v-152q52 66 125 66q56 0 83 -36t27 -89v-154zM201 995q0 -41 26 -41q31 0 31 41v111q0 43 -31 43
q-26 0 -26 -43v-111z" />
    <glyph glyph-name="seven.num" unicode="&#xe41d;" horiz-adv-x="397" 
d="M330 1149q-27 -131 -27 -324h-201q0 82 12 146.5t46 161.5q29 78 39 105.5t23 67t16.5 57.5t3.5 34h-72v-121h-152v248h369v-74q0 -19 -4.5 -49t-11 -58.5t-19 -87.5t-22.5 -106z" />
    <glyph glyph-name="eight.num" unicode="&#xe41e;" horiz-adv-x="436" 
d="M414 1374v-53q0 -86 -66 -125q72 -30 72 -131v-78q0 -81 -48 -127.5t-145 -46.5h-18q-191 0 -191 176v76q0 99 68 131q-61 39 -61 125v53q0 162 184 162h18q91 0 139 -41.5t48 -120.5zM244 1290v76q0 37 -27 37q-24 0 -24 -37v-76q0 -15 7 -25t19 -10q25 0 25 35z
M246 989v98q0 39 -29 39q-12 0 -19.5 -11t-7.5 -28v-98q0 -14 7.5 -24.5t19.5 -10.5q29 0 29 35z" />
    <glyph glyph-name="nine.num" unicode="&#xe41f;" horiz-adv-x="454" 
d="M432 993q0 -35 -9.5 -65t-31 -57t-63.5 -42.5t-101 -15.5q-112 0 -153 45t-41 125v57h172v-53q0 -33 26 -33q23 0 23 33v152q-49 -66 -121 -66q-54 0 -84.5 38t-30.5 89v152q0 83 50.5 133.5t154.5 50.5q109 0 159 -50t50 -134v-359zM225 1395q-30 0 -30 -41v-113
q0 -41 30 -41q29 0 29 41v113q0 41 -29 41z" />
    <glyph glyph-name="f_f_i" unicode="&#xfb03;" horiz-adv-x="1292" 
d="M563 0v858h-172v-858h-260v858h-123v244h123v270q0 61 42.5 106.5t125.5 45.5h229v-232h-96q-25 0 -33 -10.5t-8 -36.5v-143h172v270q0 61 42.5 106.5t125.5 45.5h219v-232h-86q-25 0 -33 -10.5t-8 -36.5v-143h127v-244h-127v-858h-260zM1260 1413v-258h-263v258h263z
M1260 1102v-1102h-263v1102h263z" />
    <glyph glyph-name="f_f_l" unicode="&#xfb04;" horiz-adv-x="1292" 
d="M563 0v858h-172v-858h-260v858h-123v244h123v270q0 61 42.5 106.5t125.5 45.5h229v-232h-96q-25 0 -33 -10.5t-8 -36.5v-143h172v270q0 61 42.5 106.5t125.5 45.5h219v-232h-86q-25 0 -33 -10.5t-8 -36.5v-143h127v-244h-127v-858h-260zM1260 1524v-1524h-263v1524h263z
" />
    <glyph glyph-name="idotaccent" horiz-adv-x="327" 
d="M295 1413v-258h-262v258h262zM295 1102v-1102h-262v1102h262z" />
    <glyph glyph-name="space_uni0326" horiz-adv-x="692" 
d="M406 -416h-105q24 67 29 137h-88v226h209v-144q0 -103 -45 -219z" />
    <glyph glyph-name="E.alt" horiz-adv-x="626" 
d="M39 1524h563v-269h-291v-331h277v-275h-277v-375h299v-274h-571v1524z" />
    <glyph glyph-name="F.alt" horiz-adv-x="618" 
d="M39 1524h561v-269h-289v-331h275v-275h-275v-649h-272v1524z" />
    <glyph glyph-name="J.alt" horiz-adv-x="483" 
d="M14 0v274h111q23 0 31 12.5t8 39.5v1198h282v-1346q0 -88 -42.5 -133t-116.5 -45h-273z" />
    <glyph glyph-name="IJ.alt" horiz-adv-x="833" 
d="M311 1524v-1524h-272v1524h272zM365 0v274h110q23 0 31 12.5t8 39.5v1198h283v-1346q0 -88 -43 -133t-117 -45h-272z" />
    <glyph glyph-name="a.alt" horiz-adv-x="655" 
d="M369 125q-29 -53 -76 -94t-111 -41h-8q-71 0 -110 56t-39 134v240q0 82 27.5 135t86.5 90q28 18 115 60.5t98 48.5q17 10 17 41v59q0 34 -11 46.5t-34 12.5h-9q-25 0 -35 -14t-10 -45v-109h-233v152q0 40 11.5 75t38 69t80 53.5t128.5 19.5h47q154 0 216.5 -63t62.5 -179
v-620q0 -84 3.5 -135.5t7 -66.5t11.5 -40v-10h-250q-24 29 -24 125zM369 274v269q-51 -29 -68 -51q-25 -32 -25 -84v-134q0 -65 43 -65q50 0 50 65z" />
    <glyph glyph-name="a.alt2" 
d="M395 1102h258v-1102h-258v123q-26 -53 -73 -99.5t-105 -46.5h-6q-78 0 -129 69.5t-51 166.5v682q0 85 43 152t114 67h15q109 0 192 -129v117zM293 283q0 -76 49 -76q53 0 53 86v518q0 84 -53 84q-26 0 -37.5 -18t-11.5 -58v-536z" />
    <glyph glyph-name="r.alt" horiz-adv-x="555" 
d="M293 1102v-164q64 172 172 172h14q34 0 58 -8v-299q-52 18 -113 18h-8q-66 0 -93.5 -21t-27.5 -67v-733h-262v1102h260z" />
    <glyph glyph-name="Eacute.alt" horiz-adv-x="636" 
d="M39 1524h569v-269h-297v-331h234v-275h-234v-375h312v-274h-584v1524zM213 1577l88 235h217l-92 -235h-213z" />
    <glyph glyph-name="Ebreve.alt" horiz-adv-x="626" 
d="M39 1524h563v-269h-291v-331h277v-275h-277v-375h299v-274h-571v1524zM547 1782q0 -95 -63 -153t-154 -58h-8q-96 0 -158 57.5t-62 153.5v10h174v-6q0 -23 13 -38t35 -15h4q21 0 34 14.5t13 38.5v6h172v-10z" />
    <glyph glyph-name="Ecaron.alt" horiz-adv-x="626" 
d="M39 1524h563v-269h-291v-331h277v-275h-277v-375h299v-274h-571v1524zM223 1577l-135 235h184l56 -98l55 98h182l-135 -235h-207z" />
    <glyph glyph-name="Ecircumflex.alt" horiz-adv-x="636" 
d="M39 1524h569v-269h-297v-331h234v-275h-234v-375h312v-274h-584v1524zM426 1812l135 -235h-182l-57 96l-56 -96h-182l133 235h209z" />
    <glyph glyph-name="Edieresis.alt" horiz-adv-x="636" 
d="M39 1524h569v-269h-297v-331h234v-275h-234v-375h312v-274h-584v1524zM559 1794v-217h-205v217h205zM303 1794v-217h-205v217h205z" />
    <glyph glyph-name="Edotaccent.alt" horiz-adv-x="626" 
d="M39 1524h563v-269h-291v-331h277v-275h-277v-375h299v-274h-571v1524zM459 1835v-258h-262v258h262z" />
    <glyph glyph-name="Egrave.alt" horiz-adv-x="636" 
d="M39 1524h569v-269h-297v-331h234v-275h-234v-375h312v-274h-584v1524zM362 1812l89 -235h-213l-91 235h215z" />
    <glyph glyph-name="Emacron.alt" horiz-adv-x="626" 
d="M39 1524h563v-269h-291v-331h277v-275h-277v-375h299v-274h-571v1524zM129 1591v181h395v-181h-395z" />
    <glyph glyph-name="Eogonek.alt" horiz-adv-x="626" 
d="M39 1524h563v-269h-291v-331h277v-275h-277v-375h299v-274h-86q-52 -64 -71 -100t-19 -72v-8q0 -23 13 -32t40 -9h37v-164h-118q-69 0 -114.5 34.5t-45.5 96.5v31q0 53 38 105.5t113 117.5h-358v1524z" />
    <glyph glyph-name="Jcircumflex.alt" horiz-adv-x="483" 
d="M14 0v274h111q23 0 31 12.5t8 39.5v1198h282v-1346q0 -88 -42.5 -133t-116.5 -45h-273zM406 1812l135 -235h-183l-57 96l-55 -96h-183l134 235h209z" />
    <glyph glyph-name="aacute.alt" horiz-adv-x="655" 
d="M217 1155l86 279h215l-90 -279h-211zM369 125q-29 -53 -76 -94t-111 -41h-8q-71 0 -110 56t-39 134v240q0 82 27.5 135t86.5 90q28 18 115 60.5t98 48.5q17 10 17 41v59q0 34 -11 46.5t-34 12.5h-9q-25 0 -35 -14t-10 -45v-109h-233v152q0 40 11.5 75t38 69t80 53.5
t128.5 19.5h47q154 0 216.5 -63t62.5 -179v-620q0 -84 3.5 -135.5t7 -66.5t11.5 -40v-10h-250q-24 29 -24 125zM369 274v269q-51 -29 -68 -51q-25 -32 -25 -84v-134q0 -65 43 -65q50 0 50 65z" />
    <glyph glyph-name="aacute.alt2" 
d="M395 1102h258v-1102h-258v123q-26 -53 -73 -99.5t-105 -46.5h-6q-78 0 -129 69.5t-51 166.5v682q0 85 43 152t114 67h15q109 0 192 -129v117zM293 283q0 -76 49 -76q53 0 53 86v518q0 84 -53 84q-26 0 -37.5 -18t-11.5 -58v-536zM231 1155l86 279h215l-90 -279h-211z" />
    <glyph glyph-name="abreve.alt" horiz-adv-x="655" 
d="M369 125q-29 -53 -76 -94t-111 -41h-8q-71 0 -110 56t-39 134v240q0 82 27.5 135t86.5 90q28 18 115 60.5t98 48.5q17 10 17 41v59q0 34 -11 46.5t-34 12.5h-9q-25 0 -35 -14t-10 -45v-109h-233v152q0 40 11.5 75t38 69t80 53.5t128.5 19.5h47q154 0 216.5 -63t62.5 -179
v-620q0 -84 3.5 -135.5t7 -66.5t11.5 -40v-10h-250q-24 29 -24 125zM369 274v269q-51 -29 -68 -51q-25 -32 -25 -84v-134q0 -65 43 -65q50 0 50 65zM528 1376q0 -105 -62.5 -164t-154.5 -59h-6q-98 0 -159.5 58.5t-61.5 164.5v17h174v-13q0 -67 49 -67h2q22 0 35.5 17
t13.5 50v13h170v-17z" />
    <glyph glyph-name="abreve.alt2" 
d="M395 1102h258v-1102h-258v123q-26 -53 -73 -99.5t-105 -46.5h-6q-78 0 -129 69.5t-51 166.5v682q0 85 43 152t114 67h15q109 0 192 -129v117zM293 283q0 -76 49 -76q53 0 53 86v518q0 84 -53 84q-26 0 -37.5 -18t-11.5 -58v-536zM559 1376q0 -105 -62.5 -164t-154.5 -59
h-6q-98 0 -159.5 58.5t-61.5 164.5v17h174v-13q0 -67 49 -67h2q22 0 35.5 17t13.5 50v13h170v-17z" />
    <glyph glyph-name="acircumflex.alt" horiz-adv-x="655" 
d="M432 1434l127 -279h-186l-49 127l-52 -127h-182l125 279h217zM369 125q-29 -53 -76 -94t-111 -41h-8q-71 0 -110 56t-39 134v240q0 82 27.5 135t86.5 90q28 18 115 60.5t98 48.5q17 10 17 41v59q0 34 -11 46.5t-34 12.5h-9q-25 0 -35 -14t-10 -45v-109h-233v152
q0 40 11.5 75t38 69t80 53.5t128.5 19.5h47q154 0 216.5 -63t62.5 -179v-620q0 -84 3.5 -135.5t7 -66.5t11.5 -40v-10h-250q-24 29 -24 125zM369 274v269q-51 -29 -68 -51q-25 -32 -25 -84v-134q0 -65 43 -65q50 0 50 65z" />
    <glyph glyph-name="acircumflex.alt2" 
d="M395 1102h258v-1102h-258v123q-26 -53 -73 -99.5t-105 -46.5h-6q-78 0 -129 69.5t-51 166.5v682q0 85 43 152t114 67h15q109 0 192 -129v117zM293 283q0 -76 49 -76q53 0 53 86v518q0 84 -53 84q-26 0 -37.5 -18t-11.5 -58v-536zM444 1434l127 -279h-186l-49 127
l-51 -127h-183l125 279h217z" />
    <glyph glyph-name="adieresis.alt" horiz-adv-x="655" 
d="M369 125q-29 -53 -76 -94t-111 -41h-8q-71 0 -110 56t-39 134v240q0 82 27.5 135t86.5 90q28 18 115 60.5t98 48.5q17 10 17 41v59q0 34 -11 46.5t-34 12.5h-9q-25 0 -35 -14t-10 -45v-109h-233v152q0 40 11.5 75t38 69t80 53.5t128.5 19.5h47q154 0 216.5 -63t62.5 -179
v-620q0 -84 3.5 -135.5t7 -66.5t11.5 -40v-10h-250q-24 29 -24 125zM369 274v269q-51 -29 -68 -51q-25 -32 -25 -84v-134q0 -65 43 -65q50 0 50 65zM295 1372v-217h-205v217h205zM549 1372v-217h-205v217h205z" />
    <glyph glyph-name="adieresis.alt2" 
d="M395 1102h258v-1102h-258v123q-26 -53 -73 -99.5t-105 -46.5h-6q-78 0 -129 69.5t-51 166.5v682q0 85 43 152t114 67h15q109 0 192 -129v117zM293 283q0 -76 49 -76q53 0 53 86v518q0 84 -53 84q-26 0 -37.5 -18t-11.5 -58v-536zM315 1372v-217h-204v217h204zM569 1372
v-217h-204v217h204z" />
    <glyph glyph-name="agrave.alt" horiz-adv-x="655" 
d="M344 1434l84 -279h-209l-92 279h217zM369 125q-29 -53 -76 -94t-111 -41h-8q-71 0 -110 56t-39 134v240q0 82 27.5 135t86.5 90q28 18 115 60.5t98 48.5q17 10 17 41v59q0 34 -11 46.5t-34 12.5h-9q-25 0 -35 -14t-10 -45v-109h-233v152q0 40 11.5 75t38 69t80 53.5
t128.5 19.5h47q154 0 216.5 -63t62.5 -179v-620q0 -84 3.5 -135.5t7 -66.5t11.5 -40v-10h-250q-24 29 -24 125zM369 274v269q-51 -29 -68 -51q-25 -32 -25 -84v-134q0 -65 43 -65q50 0 50 65z" />
    <glyph glyph-name="agrave.alt2" 
d="M395 1102h258v-1102h-258v123q-26 -53 -73 -99.5t-105 -46.5h-6q-78 0 -129 69.5t-51 166.5v682q0 85 43 152t114 67h15q109 0 192 -129v117zM293 283q0 -76 49 -76q53 0 53 86v518q0 84 -53 84q-26 0 -37.5 -18t-11.5 -58v-536zM356 1434l84 -279h-209l-92 279h217z" />
    <glyph glyph-name="amacron.alt" horiz-adv-x="655" 
d="M369 125q-29 -53 -76 -94t-111 -41h-8q-71 0 -110 56t-39 134v240q0 82 27.5 135t86.5 90q28 18 115 60.5t98 48.5q17 10 17 41v59q0 34 -11 46.5t-34 12.5h-9q-25 0 -35 -14t-10 -45v-109h-233v152q0 40 11.5 75t38 69t80 53.5t128.5 19.5h47q154 0 216.5 -63t62.5 -179
v-620q0 -84 3.5 -135.5t7 -66.5t11.5 -40v-10h-250q-24 29 -24 125zM369 274v269q-51 -29 -68 -51q-25 -32 -25 -84v-134q0 -65 43 -65q50 0 50 65zM127 1180v178h391v-178h-391z" />
    <glyph glyph-name="amacron.alt2" 
d="M395 1102h258v-1102h-258v123q-26 -53 -73 -99.5t-105 -46.5h-6q-78 0 -129 69.5t-51 166.5v682q0 85 43 152t114 67h15q109 0 192 -129v117zM293 283q0 -76 49 -76q53 0 53 86v518q0 84 -53 84q-26 0 -37.5 -18t-11.5 -58v-536zM141 1180v178h391v-178h-391z" />
    <glyph glyph-name="aogonek.alt" horiz-adv-x="655" 
d="M365 -254v31q0 53 38 105.5t113 117.5h-123q-24 29 -24 125q-29 -53 -76 -94t-111 -41h-8q-71 0 -110 56t-39 134v240q0 82 27.5 135t86.5 90q28 18 115 60.5t98 48.5q17 10 17 41v59q0 34 -11 46.5t-34 12.5h-9q-25 0 -35 -14t-10 -45v-109h-233v152q0 40 11.5 75t38 69
t80 53.5t128.5 19.5h47q154 0 216.5 -63t62.5 -179v-620q0 -84 3.5 -135.5t7 -66.5t11.5 -40v-10q-52 -64 -71 -100t-19 -72v-8q0 -23 13 -32t40 -9h37v-164h-119q-69 0 -114 34.5t-45 96.5zM369 274v269q-51 -29 -68 -51q-25 -32 -25 -84v-134q0 -65 43 -65q50 0 50 65z
" />
    <glyph glyph-name="aogonek.alt2" 
d="M375 -254v31q0 53 38 105.5t113 117.5h-131v123q-26 -53 -73 -99.5t-105 -46.5h-6q-78 0 -129 69.5t-51 166.5v682q0 85 43 152t114 67h15q109 0 192 -129v117h258v-1102q-52 -64 -71 -100t-19 -72v-8q0 -23 13 -32t40 -9h37v-164h-118q-69 0 -114.5 34.5t-45.5 96.5z
M293 283q0 -76 49 -76q53 0 53 86v518q0 84 -53 84q-26 0 -37.5 -18t-11.5 -58v-536z" />
    <glyph glyph-name="aring.alt" horiz-adv-x="655" 
d="M369 125q-29 -53 -76 -94t-111 -41h-8q-71 0 -110 56t-39 134v240q0 82 27.5 135t86.5 90q28 18 115 60.5t98 48.5q17 10 17 41v59q0 34 -11 46.5t-34 12.5h-9q-25 0 -35 -14t-10 -45v-109h-233v152q0 40 11.5 75t38 69t80 53.5t128.5 19.5h47q154 0 216.5 -63t62.5 -179
v-620q0 -84 3.5 -135.5t7 -66.5t11.5 -40v-10h-250q-24 29 -24 125zM369 274v269q-51 -29 -68 -51q-25 -32 -25 -84v-134q0 -65 43 -65q50 0 50 65zM475 1313q0 -71 -46 -116.5t-118 -45.5t-118 45.5t-46 116.5t46 116.5t118 45.5t118 -45.5t46 -116.5zM246 1313
q0 -29 17.5 -48.5t47.5 -19.5t48 19.5t18 48.5t-18 48t-48 19t-47.5 -19t-17.5 -48z" />
    <glyph glyph-name="aring.alt2" 
d="M395 1102h258v-1102h-258v123q-26 -53 -73 -99.5t-105 -46.5h-6q-78 0 -129 69.5t-51 166.5v682q0 85 43 152t114 67h15q109 0 192 -129v117zM293 283q0 -76 49 -76q53 0 53 86v518q0 84 -53 84q-26 0 -37.5 -18t-11.5 -58v-536zM494 1313q0 -71 -46 -116.5t-118 -45.5
t-118 45.5t-46 116.5t46 116.5t118 45.5t118 -45.5t46 -116.5zM264 1313q0 -29 18 -48.5t48 -19.5t47.5 19.5t17.5 48.5t-17.5 48t-47.5 19t-48 -19t-18 -48z" />
    <glyph glyph-name="aringacute.alt" horiz-adv-x="655" 
d="M481 1313q0 -71 -46 -116.5t-118 -45.5t-117.5 45.5t-45.5 116.5t45.5 116.5t117.5 45.5t118 -45.5t46 -116.5zM252 1313q0 -29 17.5 -48.5t47.5 -19.5t48 19.5t18 48.5t-18 48t-48 19t-47.5 -19t-17.5 -48zM217 1507l86 279h215l-90 -279h-211zM369 125q-29 -53 -76 -94
t-111 -41h-8q-71 0 -110 56t-39 134v240q0 82 27.5 135t86.5 90q28 18 115 60.5t98 48.5q17 10 17 41v59q0 34 -11 46.5t-34 12.5h-9q-25 0 -35 -14t-10 -45v-109h-233v152q0 40 11.5 75t38 69t80 53.5t128.5 19.5h47q154 0 216.5 -63t62.5 -179v-620q0 -84 3.5 -135.5
t7 -66.5t11.5 -40v-10h-250q-24 29 -24 125zM369 274v269q-51 -29 -68 -51q-25 -32 -25 -84v-134q0 -65 43 -65q50 0 50 65z" />
    <glyph glyph-name="aringacute.alt2" 
d="M233 1507l86 279h216l-91 -279h-211zM498 1313q0 -71 -46 -116.5t-118 -45.5t-118 45.5t-46 116.5t46 116.5t118 45.5t118 -45.5t46 -116.5zM268 1313q0 -29 18 -48.5t48 -19.5t47.5 19.5t17.5 48.5t-17.5 48t-47.5 19t-48 -19t-18 -48zM395 1102h258v-1102h-258v123
q-26 -53 -73 -99.5t-105 -46.5h-6q-78 0 -129 69.5t-51 166.5v682q0 85 43 152t114 67h15q109 0 192 -129v117zM293 283q0 -76 49 -76q53 0 53 86v518q0 84 -53 84q-26 0 -37.5 -18t-11.5 -58v-536z" />
    <glyph glyph-name="atilde.alt" horiz-adv-x="655" 
d="M369 125q-29 -53 -76 -94t-111 -41h-8q-71 0 -110 56t-39 134v240q0 82 27.5 135t86.5 90q28 18 115 60.5t98 48.5q17 10 17 41v59q0 34 -11 46.5t-34 12.5h-9q-25 0 -35 -14t-10 -45v-109h-233v152q0 40 11.5 75t38 69t80 53.5t128.5 19.5h47q154 0 216.5 -63t62.5 -179
v-620q0 -84 3.5 -135.5t7 -66.5t11.5 -40v-10h-250q-24 29 -24 125zM369 274v269q-51 -29 -68 -51q-25 -32 -25 -84v-134q0 -65 43 -65q50 0 50 65zM246 1186v-33h-148v96q0 63 30 101.5t83 38.5q7 0 13.5 -0.5t11.5 -1t12 -2t10.5 -2t11 -3.5t10.5 -4t11.5 -5t11.5 -5.5
t14 -6.5t15 -7q41 -17 47 -17q12 0 12 21v33h150v-115q0 -52 -30.5 -86.5t-80.5 -34.5q-32 0 -54 7.5t-69 31.5q-40 18 -47 18q-14 0 -14 -24z" />
    <glyph glyph-name="atilde.alt2" 
d="M395 1102h258v-1102h-258v123q-26 -53 -73 -99.5t-105 -46.5h-6q-78 0 -129 69.5t-51 166.5v682q0 85 43 152t114 67h15q109 0 192 -129v117zM293 283q0 -76 49 -76q53 0 53 86v518q0 84 -53 84q-26 0 -37.5 -18t-11.5 -58v-536zM264 1186v-33h-147v96q0 63 29.5 101.5
t82.5 38.5q7 0 13.5 -0.5t11.5 -1t12 -2t10.5 -2t11 -3.5t10.5 -4t11.5 -5t11.5 -5.5t14 -6.5t15 -7q41 -17 47 -17q13 0 13 21v33h149v-115q0 -52 -30 -86.5t-80 -34.5q-32 0 -54 7.5t-69 31.5q-40 18 -47 18q-15 0 -15 -24z" />
    <glyph glyph-name="racute.alt" horiz-adv-x="555" 
d="M293 1102v-164q64 172 172 172h14q34 0 58 -8v-299q-52 18 -113 18h-8q-66 0 -93.5 -21t-27.5 -67v-733h-262v1102h260zM184 1155l86 279h215l-90 -279h-211z" />
    <glyph glyph-name="rcaron.alt" horiz-adv-x="555" 
d="M293 1102v-164q64 172 172 172h14q34 0 58 -8v-299q-52 18 -113 18h-8q-66 0 -93.5 -21t-27.5 -67v-733h-262v1102h260zM184 1155l-127 279h187l49 -127l51 127h182l-127 -279h-215z" />
    <glyph glyph-name="rcommaaccent.alt" horiz-adv-x="555" 
d="M293 1102v-164q64 172 172 172h14q34 0 58 -8v-299q-52 18 -113 18h-8q-66 0 -93.5 -21t-27.5 -67v-733h-262v1102h260zM223 -416h-104q23 63 28 137h-88v226h209v-144q0 -103 -45 -219z" />
    <glyph glyph-name="space_uni0326.alt" horiz-adv-x="692" 
d="M285 1520h108q-24 -84 -28 -142h86v-223h-211v141q0 124 45 224z" />
    <glyph glyph-name="ordfeminine.alt" horiz-adv-x="401" 
d="M221 999q-15 -31 -44.5 -56t-67.5 -25q-43 0 -68 33t-25 79v109q0 46 16.5 74.5t53.5 52.5q16 10 66.5 35t58.5 30q10 7 10 25v18q0 33 -24 33h-2q-25 0 -25 -35v-41h-147v70q0 53 34.5 92t120.5 39h29q94 0 131 -37.5t37 -108.5v-325q0 -93 12 -129v-8h-154
q-12 18 -12 75zM221 1206q-22 -9 -35 -22q-14 -14 -14 -47v-58q0 -35 23 -35q26 0 26 37v125z" />
    <glyph glyph-name="ordfeminine.alt2" horiz-adv-x="434" 
d="M244 1524h162v-600h-162v71q-14 -33 -42.5 -58.5t-64.5 -25.5h-4q-48 0 -78 37.5t-30 98.5v356q0 54 26.5 90.5t71.5 36.5h8q73 0 113 -78v72zM186 1083q0 -41 27 -41q31 0 31 48v268q0 45 -31 45q-27 0 -27 -41v-279z" />
    <glyph glyph-name="caron.alt" horiz-adv-x="692" 
d="M250 1217l12 307h178l-24 -307h-166z" />
    <glyph glyph-name="plus.uc" horiz-adv-x="696" 
d="M670 606h-221v-248h-201v248h-221v187h221v249h201v-249h221v-187z" />
    <glyph glyph-name="minus.uc" horiz-adv-x="647" 
d="M27 793h594v-187h-594v187z" />
    <glyph glyph-name="multiply.uc" horiz-adv-x="636" 
d="M623 522l-129 -133l-177 178l-172 -178l-129 123l177 182l-179 180l133 136l175 -179l172 179l129 -127l-174 -181z" />
    <glyph glyph-name="divide.uc" horiz-adv-x="694" 
d="M453 1063v-211h-211v211h211zM27 793h641v-187h-641v187zM453 541v-211h-211v211h211z" />
    <glyph glyph-name="equal.uc" horiz-adv-x="677" 
d="M31 899h616v-172h-616v172zM31 672h616v-170h-616v170z" />
    <glyph glyph-name="less.uc" horiz-adv-x="585" 
d="M559 395l-539 215v178l539 216v-193l-317 -111l317 -110v-195z" />
    <glyph glyph-name="greater.uc" horiz-adv-x="583" 
d="M27 1004l536 -216v-178l-536 -215v195l317 110l-317 111v193z" />
    <glyph glyph-name="questiondown.uc" horiz-adv-x="673" 
d="M266 1182h213v-262q0 -74 -13 -117.5t-56 -112.5l-72 -115q-27 -42 -35 -79t-8 -95v-100q0 -40 11 -56t40 -16q30 0 40.5 16t10.5 56v234h254v-242q0 -55 -6.5 -98t-24.5 -84.5t-48.5 -68.5t-80.5 -43.5t-118 -16.5h-56q-158 0 -226 76.5t-68 220.5v106q0 97 18.5 162
t73.5 135l100 137q32 45 41.5 75t9.5 99v189zM250 1229v295h244v-295h-244z" />
    <glyph glyph-name="exclamdown.uc" horiz-adv-x="327" 
d="M311 0h-297l97 1182h104zM285 1524v-295h-244v295h244z" />
    <glyph glyph-name="hyphen.uc" horiz-adv-x="366" 
d="M27 819h313v-248h-313v248z" />
    <glyph glyph-name="endash.uc" horiz-adv-x="684" 
d="M27 791h630v-185h-630v185z" />
    <glyph glyph-name="emdash.uc" horiz-adv-x="1036" 
d="M27 791h983v-185h-983v185z" />
    <glyph glyph-name="guilsinglleft.uc" horiz-adv-x="325" 
d="M221 631l92 -342h-202l-91 280v123l91 277h204z" />
    <glyph glyph-name="guilsinglright.uc" horiz-adv-x="325" 
d="M102 629l-90 340h205l88 -279v-123l-88 -278h-207z" />
    <glyph glyph-name="guillemotleft.uc" horiz-adv-x="550" 
d="M205 631l102 -342h-188l-99 280v123l99 277h188zM451 631l88 -342h-191l-98 342l98 338h193z" />
    <glyph glyph-name="guillemotright.uc" horiz-adv-x="548" 
d="M242 289l102 340l-102 340h190l96 -281v-121l-98 -278h-188zM10 289l90 340l-90 340h191l98 -340l-98 -340h-191z" />
    <glyph glyph-name="parenleft.uc" horiz-adv-x="428" 
d="M293 770q0 -455 145 -936h-157q-45 93 -78.5 175t-72 202.5t-59 261.5t-20.5 291q0 466 223 907h158q-57 -163 -98 -405t-41 -496z" />
    <glyph glyph-name="parenright.uc" horiz-adv-x="428" 
d="M377 764q0 -150 -20.5 -291t-59 -261.5t-72 -202.5t-78.5 -175h-157q145 481 145 936q0 254 -41 496t-98 405h158q223 -441 223 -907z" />
    <glyph glyph-name="bracketleft.uc" horiz-adv-x="401" 
d="M66 -150v1823h327v-196h-110v-1430h110v-197h-327z" />
    <glyph glyph-name="bracketright.uc" horiz-adv-x="401" 
d="M8 1477v196h328v-1823h-328v197h111v1430h-111z" />
    <glyph glyph-name="braceleft.uc" horiz-adv-x="421" 
d="M72 664h-41v206h41q34 0 47.5 16.5t13.5 51.5q0 72 -31.5 266t-31.5 248q0 107 66.5 164t187.5 57h90v-188h-43q-80 0 -80 -78q0 -46 28.5 -228t28.5 -227q0 -74 -22 -118.5t-82 -67.5q61 -23 82.5 -64t21.5 -110q0 -46 -28.5 -228t-28.5 -231q0 -96 88 -96h35v-187h-90
q-122 0 -188 61t-66 171q0 46 31.5 240.5t31.5 263.5q0 78 -61 78z" />
    <glyph glyph-name="braceright.uc" horiz-adv-x="421" 
d="M348 870h43v-206h-43q-61 0 -61 -78q0 -69 32.5 -263.5t32.5 -240.5q0 -110 -66 -171t-188 -61h-90v187h33q90 0 90 96q0 50 -29.5 231.5t-29.5 227.5q0 68 22.5 110t81.5 64q-60 23 -82 67.5t-22 118.5q0 45 29.5 227t29.5 228q0 78 -80 78h-43v188h90q120 0 187 -57.5
t67 -163.5q0 -54 -32.5 -248t-32.5 -266q0 -35 14 -51.5t47 -16.5z" />
    <glyph glyph-name="slash.uc" horiz-adv-x="440" 
d="M444 1671l-258 -1837h-192l256 1837h194z" />
    <glyph glyph-name="backslash.uc" horiz-adv-x="442" 
d="M254 -166l-256 1837h192l259 -1837h-195z" />
    <glyph glyph-name="bar.uc" horiz-adv-x="342" 
d="M264 1671v-1837h-186v1837h186z" />
    <glyph glyph-name="at.uc" horiz-adv-x="1187" 
d="M936 156l102 -121q-22 -32 -52.5 -63t-82.5 -69t-128 -61.5t-163 -23.5h-20q-55 0 -102.5 6t-106.5 26t-106 53.5t-94 93.5t-78 140.5t-50.5 200.5t-19.5 268v228q0 367 145.5 566t421.5 199h37q520 0 520 -624v-213q0 -134 -14.5 -235.5t-39 -166t-60.5 -105.5
t-75.5 -57t-88.5 -16h-15q-153 0 -209 137q-73 -137 -186 -137h-10q-64 0 -114 63.5t-46 172.5l27 600q3 82 45.5 139t111.5 57h13q81 0 155 -110l4 102h252l-45 -823q0 -18 5 -27.5t22 -9.5q43 0 68.5 103.5t25.5 306.5v215q0 133 -23.5 226t-69.5 146t-107.5 76t-145.5 23
h-37q-185 0 -285.5 -151t-101.5 -462v-219q0 -120 14 -216.5t35.5 -161t54 -112.5t64.5 -74t72 -41.5t70.5 -20t66.5 -4.5h20q194 0 324 176zM621 444l26 510q2 39 -5.5 53.5t-29.5 14.5q-21 0 -28 -15.5t-9 -52.5l-26 -512q-2 -39 5 -54t28 -15q20 0 28.5 16t10.5 55z" />
    <glyph glyph-name="grave.uc" horiz-adv-x="692" 
d="M410 1812l88 -235h-213l-90 235h215z" />
    <glyph glyph-name="dieresis.uc" horiz-adv-x="692" 
d="M578 1794v-217h-205v217h205zM322 1794v-217h-205v217h205z" />
    <glyph glyph-name="macron.uc" horiz-adv-x="692" 
d="M150 1591v181h395v-181h-395z" />
    <glyph glyph-name="acute.uc" horiz-adv-x="692" 
d="M193 1577l88 235h217l-92 -235h-213z" />
    <glyph glyph-name="circumflex.uc" horiz-adv-x="692" 
d="M449 1812l135 -235h-183l-57 96l-55 -96h-183l134 235h209z" />
    <glyph glyph-name="caron.uc" horiz-adv-x="692" 
d="M242 1577l-136 235h185l55 -98l55 98h183l-135 -235h-207z" />
    <glyph glyph-name="breve.uc" horiz-adv-x="692" 
d="M569 1782q0 -95 -63 -153t-154 -58h-8q-96 0 -157.5 57.5t-61.5 153.5v10h174v-6q0 -24 13 -38.5t34 -14.5h4q21 0 34 14.5t13 38.5v6h172v-10z" />
    <glyph glyph-name="dotaccent.uc" horiz-adv-x="692" 
d="M477 1835v-258h-262v258h262z" />
    <glyph glyph-name="ring.uc" horiz-adv-x="692" 
d="M510 1729q0 -71 -46 -116.5t-118 -45.5t-118 45.5t-46 116.5t46 116t118 45t118 -45t46 -116zM281 1729q0 -29 17.5 -48.5t47.5 -19.5t48 19.5t18 48.5t-18 48t-48 19t-47.5 -19t-17.5 -48z" />
    <glyph glyph-name="tilde.uc" horiz-adv-x="692" 
d="M272 1608v-33h-147v70q0 76 31 116.5t86 40.5q51 0 110 -26q46 -21 56 -21q12 0 12 21v32h147v-69q0 -77 -34.5 -116.5t-81.5 -39.5q-43 0 -111 29q-45 18 -51 18q-17 0 -17 -22z" />
    <glyph glyph-name="hungarumlaut.uc" horiz-adv-x="692" 
d="M115 1577l49 235h184l-55 -235h-178zM342 1577l53 235h183l-60 -235h-176z" />
    <glyph glyph-name="emdash.altuc" horiz-adv-x="2019" 
d="M27 791h1966v-185h-1966v185z" />
    <glyph glyph-name="f.short" horiz-adv-x="532" 
d="M518 1524v-232h-86q-25 0 -33 -10.5t-8 -36.5v-143h127v-244h-127v-858h-260v858h-123v244h123v270q0 61 42.5 106.5t125.5 45.5h219z" />
    <glyph glyph-name="f_f.short" horiz-adv-x="964" 
d="M563 0v858h-172v-858h-260v858h-123v244h123v270q0 61 42.5 106.5t125.5 45.5h229v-232h-96q-25 0 -33 -10.5t-8 -36.5v-143h172v270q0 61 42.5 106.5t125.5 45.5h219v-232h-86q-25 0 -33 -10.5t-8 -36.5v-143h127v-244h-127v-858h-260z" />
    <glyph glyph-name="j.short" horiz-adv-x="329" 
d="M297 1413v-258h-262v258h262zM-57 -141h55q21 0 29 8.5t8 34.5v1200h262v-1340q0 -62 -41.5 -104.5t-110.5 -42.5h-202v244z" />
    <glyph glyph-name="uni0401.alt" horiz-adv-x="636" 
d="M39 1524h569v-269h-297v-331h234v-275h-234v-375h312v-274h-584v1524zM559 1794v-217h-205v217h205zM303 1794v-217h-205v217h205z" />
    <glyph glyph-name="uni0408.alt" horiz-adv-x="485" 
d="M14 0v274h111q23 0 31 12.5t8 39.5v1198h282v-1346q0 -88 -42.5 -133t-116.5 -45h-273z" />
    <glyph glyph-name="uni0414.bgr" horiz-adv-x="851" 
d="M262 0v-215h-252v489h80l160 1250h346l168 -1250h78v-489h-252v215h-328zM489 274l-73 752l-74 -752h147z" />
    <glyph glyph-name="uni0415.alt" horiz-adv-x="636" 
d="M39 1524h563v-269h-291v-331h277v-275h-277v-375h299v-274h-571v1524z" />
    <glyph glyph-name="uni0416.bgr" horiz-adv-x="1148" 
d="M438 0v649l-170 -649h-286l231 831l-209 693h268l166 -588v588h273v-588l166 588h268l-209 -693l231 -831h-286l-170 649v-649h-273z" />
    <glyph glyph-name="uni041A.bgr" horiz-adv-x="761" 
d="M494 0l-183 645v-645h-272v1524h272v-586l178 586h269l-215 -693l237 -831h-286z" />
    <glyph glyph-name="uni041B.bgr" horiz-adv-x="727" 
d="M-8 0l194 1524h346l203 -1524h-282l-101 1022l-100 -1022h-260z" />
    <glyph glyph-name="uni042F.alt" horiz-adv-x="757" 
d="M446 0v610h-47q-41 0 -56 -19t-15 -71v-403q0 -84 -25 -117h-272v10q22 40 22 113v467q0 77 32 121t75 59q-47 18 -84 70t-37 135v293q0 123 63.5 189.5t186.5 66.5h430v-1524h-273zM446 862v426h-61q-41 0 -54.5 -18t-13.5 -68v-248q0 -52 17.5 -72t58.5 -20h53z" />
    <glyph glyph-name="uni0430.alt" horiz-adv-x="655" 
d="M369 125q-29 -53 -76 -94t-111 -41h-8q-71 0 -110 56t-39 134v240q0 82 27.5 135t86.5 90q28 18 115 60.5t98 48.5q17 10 17 41v59q0 34 -11 46.5t-34 12.5h-9q-25 0 -35 -14t-10 -45v-109h-233v152q0 40 11.5 75t38 69t80 53.5t128.5 19.5h47q154 0 216.5 -63t62.5 -179
v-620q0 -84 3.5 -135.5t7 -66.5t11.5 -40v-10h-250q-24 29 -24 125zM369 274v269q-51 -29 -68 -51q-25 -32 -25 -84v-134q0 -65 43 -65q50 0 50 65z" />
    <glyph glyph-name="uni0430.alt2" 
d="M395 1102h258v-1102h-258v123q-26 -53 -73 -99.5t-105 -46.5h-6q-78 0 -129 69.5t-51 166.5v682q0 85 43 152t114 67h15q109 0 192 -129v117zM293 283q0 -76 49 -76q53 0 53 86v518q0 84 -53 84q-26 0 -37.5 -18t-11.5 -58v-536z" />
    <glyph glyph-name="uni0431.alt" horiz-adv-x="690" 
d="M664 287q0 -129 -75 -217t-218 -88h-41q-156 0 -229.5 84t-73.5 221v831q0 99 14 165.5t51.5 118t106 75.5t172.5 24h100q58 0 99 6.5t53 12.5l12 6v-223q-31 -25 -164 -25h-51q-80 0 -105.5 -31t-25.5 -129v-86q80 86 186 86h10q97 0 138 -68.5t41 -207.5v-555zM344 215
q27 0 41 18.5t14 47.5v530q0 84 -55 84q-53 0 -53 -84v-530q0 -66 53 -66z" />
    <glyph glyph-name="uni0431.locl" horiz-adv-x="692" 
d="M664 295q0 -138 -78.5 -226.5t-210.5 -88.5h-62q-144 0 -215 85.5t-71 225.5v520q0 78 25 134t87 95q-98 67 -98 193q0 117 75 184.5t218 67.5h55q26 0 35.5 7.5t9.5 31.5h232q0 -147 -42.5 -204.5t-168.5 -57.5h-76q-55 0 -81 -16.5t-26 -55.5q0 -30 20 -47.5t52 -20.5
l70 -8q250 -28 250 -297v-522zM291 295q0 -78 53 -78q55 0 55 78v524q0 76 -55 76q-53 0 -53 -76v-524z" />
    <glyph glyph-name="uni0431.loclalt" horiz-adv-x="690" 
d="M664 295q0 -138 -78.5 -226.5t-210.5 -88.5h-62q-144 0 -215 85.5t-71 225.5v520q0 78 25 134t87 95q-98 64 -98 193q0 125 75 196.5t218 71.5h137q58 0 99 6.5t53 12.5l12 6v-223q-31 -25 -164 -25h-92q-55 0 -81 -19t-26 -63q0 -34 19.5 -52.5t52.5 -21.5l70 -8
q250 -28 250 -297v-522zM291 295q0 -78 53 -78q55 0 55 78v524q0 76 -55 76q-53 0 -53 -76v-524z" />
    <glyph glyph-name="uni0432.bgr" horiz-adv-x="692" 
d="M27 276v992q0 119 77.5 194.5t210.5 75.5h58q140 0 212 -74.5t72 -206.5v-217q0 -61 -23.5 -108.5t-64.5 -67.5q97 -52 97 -207v-378q0 -129 -85 -213t-221 -84h-28q-134 0 -219.5 74.5t-85.5 219.5zM289 1243v-303h71q21 0 31 16t10 54v231q0 78 -53 78h-8
q-51 0 -51 -76zM289 293q0 -82 57 -82t57 82v383q0 31 -10 45t-37 14h-67v-442z" />
    <glyph glyph-name="uni0433.bgr" horiz-adv-x="610" 
d="M602 244q0 -128 -67.5 -195t-198.5 -67h-53q-134 0 -203.5 79.5t-69.5 202.5v37q0 90 29.5 156t112.5 149l145 144q28 28 37.5 49t9.5 57v23q0 57 -43 57t-43 -57v-115h-233v115q0 114 61.5 178.5t187.5 64.5h56q127 0 192.5 -65.5t65.5 -179.5v-35q0 -91 -26.5 -157
t-96.5 -134l-139 -133q-35 -33 -46.5 -63.5t-11.5 -73.5v-25q0 -63 43 -63h2q47 0 47 61v147h242v-157z" />
    <glyph glyph-name="uni0433.locl" horiz-adv-x="495" 
d="M33 0v1102h452v-244h-190v-858h-262z" />
    <glyph glyph-name="uni0434.bgr" horiz-adv-x="692" 
d="M659 -152q0 -37 -7 -69.5t-27.5 -66t-52.5 -57.5t-86 -39t-124 -15h-36q-158 0 -221.5 53t-63.5 147v148h252v-90q0 -24 9.5 -35.5t35.5 -11.5h10q28 0 38.5 13t10.5 42v256q-77 -143 -178 -143q-81 0 -134.5 60t-53.5 155v657q0 117 45 186.5t129 69.5h2q63 0 108 -36.5
t86 -102.5v133h258v-1254zM297 262q0 -65 49 -65q24 0 37.5 18.5t13.5 48.5v553q0 70 -51 70q-49 0 -49 -68v-557z" />
    <glyph glyph-name="uni0434.locl" horiz-adv-x="753" 
d="M240 -205h-240v449h33q24 19 33 96q2 17 3.5 35.5t2.5 45.5t2 49.5t1.5 66t0.5 74.5v95v109v134v153h596v-858h71v-449h-239v205h-264v-205zM301 332q-6 -49 -18 -88h127v614h-91q0 -368 -18 -526z" />
    <glyph glyph-name="uni0436.bgr" horiz-adv-x="1052" 
d="M395 0v442l-147 -442h-260l196 578l-182 524h250l143 -428v850h262v-850l144 428h250l-183 -524l197 -578h-260l-148 442v-442h-262z" />
    <glyph glyph-name="uni0437.bgr" horiz-adv-x="651" 
d="M625 -119q0 -280 -289 -280h-43q-136 0 -203 76t-67 202v346h243v-329q0 -64 49 -64q52 0 52 55v402q0 59 -74 59h-115v230h115q42 0 58 13.5t16 61.5v178q0 39 -11.5 57.5t-40.5 18.5q-30 0 -40.5 -19.5t-10.5 -58.5v-161h-241v188q0 116 65.5 191t204.5 75h51
q152 0 211 -67.5t59 -210.5v-197q0 -83 -27 -123t-77 -57q29 -11 45.5 -20.5t35 -29.5t26.5 -55t8 -86v-395z" />
    <glyph glyph-name="uni0438.bgr" 
d="M653 1102v-1102h-254v135q-44 -67 -89 -103t-109 -36h-8q-73 0 -116.5 58.5t-43.5 131.5v916h264v-809q0 -68 45 -68q51 0 51 74v803h260z" />
    <glyph glyph-name="uni0439.bgr" 
d="M653 0v1102h-260v-803q0 -74 -51 -74q-45 0 -45 68v809h-264v-916q0 -73 43.5 -131.5t116.5 -58.5h8q64 0 109 36t89 103v-135h254zM565 1376q0 -105 -62.5 -164t-154.5 -59h-6q-98 0 -159.5 58.5t-61.5 164.5v17h174v-13q0 -67 49 -67h2q22 0 35.5 17t13.5 50v13h170
v-17z" />
    <glyph glyph-name="uni043A.bgr" horiz-adv-x="700" 
d="M453 0l-158 489v-489h-262v1524h262v-805l154 383h249l-192 -463l207 -639h-260z" />
    <glyph glyph-name="uni043B.bgr" horiz-adv-x="632" 
d="M-8 0l180 1102h301l168 -1102h-254l-74 702l-71 -702h-250z" />
    <glyph glyph-name="uni043D.bgr" horiz-adv-x="692" 
d="M295 0h-262v1102h262v-422h102v422h262v-1102h-262v436h-102v-436z" />
    <glyph glyph-name="uni043F.bgr" horiz-adv-x="696" 
d="M33 0v1102h260v-133q42 64 89.5 100.5t109.5 36.5h14q44 0 76.5 -18.5t49 -48.5t24.5 -59.5t8 -57.5v-922h-265v811q0 66 -51 66q-30 0 -41.5 -18.5t-11.5 -55.5v-803h-262z" />
    <glyph glyph-name="uni043F.locl" horiz-adv-x="681" 
d="M295 0h-262v1102h616v-1102h-262v858h-92v-858z" />
    <glyph glyph-name="uni0442.bgr" horiz-adv-x="1048" 
d="M295 803v-803h-262v1102h260v-129q89 137 188 137h8q64 0 106.5 -38.5t55.5 -96.5q91 135 197 135h10q74 0 116 -50t42 -126v-934h-262v803q0 37 -9.5 55.5t-39.5 18.5q-29 0 -39.5 -18.5t-10.5 -55.5v-803h-262v803q0 37 -10 55.5t-41 18.5q-27 0 -37 -18.5t-10 -55.5z
" />
    <glyph glyph-name="uni0442.locl" horiz-adv-x="548" 
d="M143 0v858h-133v244h529v-244h-133v-858h-263z" />
    <glyph glyph-name="uni0446.bgr" horiz-adv-x="735" 
d="M653 1102v-858h72v-449h-240v205h-86v135q-44 -67 -89 -103t-109 -36h-8q-73 0 -116.5 58.5t-43.5 131.5v916h264v-809q0 -68 45 -68q51 0 51 74v803h260z" />
    <glyph glyph-name="uni0447.bgr" horiz-adv-x="665" 
d="M283 688q0 -34 11.5 -47.5t39.5 -13.5q21 0 37 8v467h262v-1102h-262v424q-55 -25 -129 -25q-111 0 -166.5 59.5t-55.5 184.5v459h263v-414z" />
    <glyph glyph-name="uni0448.bgr" horiz-adv-x="1048" 
d="M754 299v803h262v-1102h-260v129q-89 -137 -189 -137h-8q-64 0 -106.5 38.5t-55.5 96.5q-91 -135 -196 -135h-11q-74 0 -115.5 49.5t-41.5 126.5v934h262v-803q0 -37 9.5 -55.5t39.5 -18.5q29 0 39 18.5t10 55.5v803h262v-803q0 -37 10.5 -55.5t41.5 -18.5q27 0 37 18.5
t10 55.5z" />
    <glyph glyph-name="uni0449.bgr" horiz-adv-x="1097" 
d="M754 299v803h262v-858h71v-449h-239v205h-92v129q-89 -137 -189 -137h-8q-64 0 -106.5 38.5t-55.5 96.5q-91 -135 -196 -135h-11q-74 0 -115.5 49.5t-41.5 126.5v934h262v-803q0 -37 9.5 -55.5t39.5 -18.5q29 0 39 18.5t10 55.5v803h262v-803q0 -37 10.5 -55.5
t41.5 -18.5q27 0 37 18.5t10 55.5z" />
    <glyph glyph-name="uni044A.bgr" horiz-adv-x="808" 
d="M442 -18q-76 0 -133 23.5t-90 64t-49 90t-16 106.5v592h-144v244h406v-369h35q171 0 252 -63.5t81 -220.5v-183q0 -118 -81 -201t-224 -83h-37zM416 293q0 -78 53 -78t53 78v131q0 58 -16 78t-68 20h-22v-229z" />
    <glyph glyph-name="uni044C.bgr" horiz-adv-x="681" 
d="M315 -18q-76 0 -133 23.5t-90 64t-49 90t-16 106.5v836h262v-369h35q171 0 252 -63.5t81 -220.5v-183q0 -118 -81 -201t-224 -83h-37zM289 293q0 -78 53 -78t53 78v131q0 58 -16 78t-68 20h-22v-229z" />
    <glyph glyph-name="uni044E.bgr" horiz-adv-x="1030" 
d="M1004 295q0 -138 -78.5 -226.5t-210.5 -88.5h-62q-144 0 -215 85.5t-71 225.5v145h-72v-436h-262v1524h262v-844h72v133q0 148 75.5 228.5t210.5 80.5h62q136 0 212.5 -80t76.5 -225v-522zM631 295q0 -78 53 -78q55 0 55 78v524q0 76 -55 76q-53 0 -53 -76v-524z" />
    <glyph glyph-name="uni044F.alt" horiz-adv-x="681" 
d="M305 125q0 -90 -22 -125h-263v10q23 53 23 113v168q0 103 59 149q-69 54 -69 181v200q0 146 61 213.5t209 67.5h346v-1102h-262v369h-39q-26 0 -34.5 -17.5t-8.5 -52.5v-174zM387 580v311h-29q-63 0 -63 -66v-184q0 -34 14 -47.5t49 -13.5h29z" />
    <glyph glyph-name="uni0458.short" horiz-adv-x="329" 
d="M297 1413v-258h-262v258h262zM-57 -141h55q21 0 29 8.5t8 34.5v1200h262v-1340q0 -62 -41.5 -104.5t-110.5 -42.5h-202v244z" />
    <glyph glyph-name="f_b" horiz-adv-x="1220" 
d="M518 1524v-232h-86q-25 0 -33 -10.5t-8 -36.5v-143h127v-244h-127v-858h-260v858h-123v244h123v270q0 61 42.5 106.5t125.5 45.5h219zM565 1524h262v-545q9 16 24 35t39.5 43.5t57.5 40.5t66 16h12q75 0 119.5 -58.5t44.5 -135.5v-693q0 -94 -58.5 -169.5t-144.5 -75.5
h-4q-40 0 -72.5 13.5t-58.5 42t-40 50t-36 59.5q-8 -29 -17 -83t-9 -64h-185v1524zM827 281q0 -72 50 -72q49 0 49 67v541q0 41 -13 56.5t-39 15.5q-47 0 -47 -72v-536z" />
    <glyph glyph-name="f_h" horiz-adv-x="1228" 
d="M518 1524v-232h-86q-25 0 -33 -10.5t-8 -36.5v-143h127v-244h-127v-858h-260v858h-123v244h123v270q0 61 42.5 106.5t125.5 45.5h219zM565 0v1524h262v-549q88 131 197 131h10q74 0 118 -48.5t44 -123.5v-934h-264v815q0 62 -51 62q-54 0 -54 -70v-807h-262z" />
    <glyph glyph-name="f_k" horiz-adv-x="1232" 
d="M518 1524v-232h-86q-25 0 -33 -10.5t-8 -36.5v-143h127v-244h-127v-858h-260v858h-123v244h123v270q0 61 42.5 106.5t125.5 45.5h219zM985 0l-158 489v-489h-262v1524h262v-805l154 383h250l-193 -463l207 -639h-260z" />
    <glyph glyph-name="f_j" horiz-adv-x="862" 
d="M518 1524v-232h-86q-25 0 -33 -10.5t-8 -36.5v-143h127v-244h-127v-858h-260v858h-123v244h123v270q0 61 42.5 106.5t125.5 45.5h219zM829 1413v-258h-262v258h262zM424 -141h106q21 0 29 8.5t8 34.5v1200h262v-1340q0 -62 -41.5 -104.5t-109.5 -42.5h-254v244z" />
    <glyph glyph-name="f_f_b" horiz-adv-x="1652" 
d="M563 0v858h-172v-858h-260v858h-123v244h123v270q0 61 42.5 106.5t125.5 45.5h229v-232h-96q-25 0 -33 -10.5t-8 -36.5v-143h172v270q0 61 42.5 106.5t125.5 45.5h219v-232h-86q-25 0 -33 -10.5t-8 -36.5v-143h127v-244h-127v-858h-260zM997 1524h263v-545q9 16 24 35
t39 43.5t57 40.5t66 16h12q75 0 119.5 -58.5t44.5 -135.5v-693q0 -94 -58.5 -169.5t-144.5 -75.5h-4q-40 0 -72.5 13.5t-58.5 42t-40 50t-36 59.5q-8 -29 -17 -83t-9 -64h-185v1524zM1260 281q0 -72 49 -72t49 67v541q0 41 -12.5 56.5t-38.5 15.5q-47 0 -47 -72v-536z" />
    <glyph glyph-name="f_f_h" horiz-adv-x="1660" 
d="M563 0v858h-172v-858h-260v858h-123v244h123v270q0 61 42.5 106.5t125.5 45.5h229v-232h-96q-25 0 -33 -10.5t-8 -36.5v-143h172v270q0 61 42.5 106.5t125.5 45.5h219v-232h-86q-25 0 -33 -10.5t-8 -36.5v-143h127v-244h-127v-858h-260zM997 0v1524h263v-549
q88 131 196 131h10q74 0 118 -48.5t44 -123.5v-934h-264v815q0 62 -51 62q-30 0 -41.5 -18t-11.5 -52v-807h-263z" />
    <glyph glyph-name="f_f_k" horiz-adv-x="1665" 
d="M563 0v858h-172v-858h-260v858h-123v244h123v270q0 61 42.5 106.5t125.5 45.5h229v-232h-96q-25 0 -33 -10.5t-8 -36.5v-143h172v270q0 61 42.5 106.5t125.5 45.5h219v-232h-86q-25 0 -33 -10.5t-8 -36.5v-143h127v-244h-127v-858h-260zM1417 0l-157 489v-489h-263v1524
h263v-805l153 383h250l-193 -463l207 -639h-260z" />
    <glyph glyph-name="f_f_j" horiz-adv-x="1294" 
d="M563 0v858h-172v-858h-260v858h-123v244h123v270q0 61 42.5 106.5t125.5 45.5h229v-232h-96q-25 0 -33 -10.5t-8 -36.5v-143h172v270q0 61 42.5 106.5t125.5 45.5h219v-232h-86q-25 0 -33 -10.5t-8 -36.5v-143h127v-244h-127v-858h-260zM1262 1413v-258h-263v258h263z
M856 -141h107q21 0 28.5 8.5t7.5 34.5v1200h263v-1340q0 -62 -41.5 -104.5t-110.5 -42.5h-254v244z" />
    </font>
</defs>
</svg>
