<?xml version="1.0" standalone="no"?>
<!DOCTYPE svg PUBLIC "-//W3C//DTD SVG 1.1//EN" "http://www.w3.org/Graphics/SVG/1.1/DTD/svg11.dtd" >
<svg xmlns="http://www.w3.org/2000/svg" xmlns:xlink="http://www.w3.org/1999/xlink" version="1.1">
<metadata>
Created by FontForge 20170731 at Sun May 23 11:50:55 2021
 By Aleksey,,,
Copyright (C)2017 Commercial Type.
</metadata>
<defs>
<font id="DrukCondCy-Super" horiz-adv-x="587" >
  <font-face 
    font-family="Druk Cond Cy Super"
    font-weight="1000"
    font-stretch="condensed"
    units-per-em="2048"
    panose-1="0 0 0 0 0 0 0 0 0 0"
    ascent="1649"
    descent="-399"
    x-height="1102"
    cap-height="1524"
    bbox="-61 -432 1681 2013"
    underline-thickness="172"
    underline-position="-212"
    unicode-range="U+0020-FB04"
  />
<missing-glyph horiz-adv-x="1024" 
 />
    <glyph glyph-name="f_f" unicode="ff" horiz-adv-x="768" 
d="M430 0v895h-90v-895h-254v895h-78v207h78v287q0 65 39.5 100t95.5 35h189v-199h-48q-22 0 -22 -25v-198h90v287q0 65 39 100t94 35h197v-199h-53q-23 0 -23 -25v-198h76v-207h-76v-895h-254z" />
    <glyph glyph-name="f_i" unicode="fi" horiz-adv-x="706" 
d="M414 1524v-199h-52q-22 0 -22 -25v-198h72v-205h-72v-897h-252v897h-80v205h80v287q0 65 39 100t94 35h193zM690 1368v-238h-252v238h252zM690 1102v-1102h-252v1102h252z" />
    <glyph glyph-name="f_l" unicode="fl" horiz-adv-x="706" 
d="M414 1524v-199h-52q-22 0 -22 -25v-198h72v-205h-72v-897h-252v897h-80v205h80v287q0 65 39 100t94 35h193zM690 1524v-1524h-252v1524h252z" />
    <glyph glyph-name="emdash.alt" unicode="&#x2014;&#x2014;" horiz-adv-x="1697" 
d="M16 696h1665v-159h-1665v159z" />
    <glyph glyph-name=".notdef" horiz-adv-x="1024" 
 />
    <glyph glyph-name=".null" horiz-adv-x="0" 
 />
    <glyph glyph-name="nonmarkingreturn" horiz-adv-x="682" 
 />
    <glyph glyph-name="space" unicode=" " horiz-adv-x="159" 
 />
    <glyph glyph-name="exclam" unicode="!" horiz-adv-x="288" 
d="M10 1524h269q-1 -28 -32.5 -562t-33.5 -663h-139q-2 122 -33 654t-31 571zM254 264v-264h-221v264h221z" />
    <glyph glyph-name="quotedbl" unicode="&#x22;" horiz-adv-x="387" 
d="M180 1524v-324h-164v324h164zM371 1524v-324h-168v324h168z" />
    <glyph glyph-name="numbersign" unicode="#" horiz-adv-x="522" 
d="M246 0l24 522h-41l-24 -522h-152l23 522h-70l8 154h70l10 229h-69l8 156h67l21 463h155l-22 -463h41l20 463h156l-22 -463h67l-8 -156h-66l-10 -229h66l-9 -154h-65l-25 -522h-153zM238 676h38l11 229h-39z" />
    <glyph glyph-name="dollar" unicode="$" horiz-adv-x="600" 
d="M317 -14v-90h-43v90q-260 0 -260 229v410h234v-387q0 -45 26 -54v475l-127 99q-68 51 -98.5 114.5t-30.5 155.5v275q0 235 256 235v82h43v-82q134 0 193 -53t59 -170v-336h-225v321q0 49 -27 54v-418l136 -105q73 -55 103 -117.5t30 -156.5v-313q0 -124 -69.5 -191
t-199.5 -67zM248 1053q0 -56 26 -82v383q-26 -5 -26 -54v-247zM346 530q0 40 -6 59t-23 36v-441q29 6 29 56v290z" />
    <glyph glyph-name="percent" unicode="%" horiz-adv-x="813" 
d="M16 1024v340q0 85 44 128.5t122 43.5h27q168 0 168 -172v-340q0 -83 -45.5 -126.5t-124.5 -43.5h-25q-166 0 -166 170zM553 1524h145l-438 -1524h-147zM213 997v396q0 22 -16 22q-17 0 -17 -22v-396q0 -20 17 -20q16 0 16 20zM434 162v340q0 84 44 127t122 43h29
q168 0 168 -170v-340q0 -84 -45.5 -128t-124.5 -44h-25q-168 0 -168 172zM616 113q15 0 15 20v397q0 21 -15 21q-16 0 -16 -21v-397q0 -20 16 -20z" />
    <glyph glyph-name="ampersand" unicode="&#x26;" horiz-adv-x="724" 
d="M727 184l-49 -198q-132 0 -205 47q-63 -45 -162 -45q-299 0 -299 311v158q0 129 38 209.5t130 177.5l-14 41q-27 80 -37 112t-19.5 84t-9.5 105v143q0 93 54 151t168 58h34q103 0 157 -51.5t54 -147.5v-153q0 -56 -10.5 -99.5t-38 -85.5t-53.5 -71.5t-78 -81.5l100 -395
q3 110 0 458h205q0 -500 -69 -710q35 -14 104 -17zM317 1151q0 -61 21 -143q17 42 22 68.5t5 68.5v201q0 18 -5 25t-18 7q-25 0 -25 -32v-195zM244 334q2 -81 25.5 -119.5t76.5 -38.5q13 0 33 4l-133 465q-2 -72 -2 -246v-65z" />
    <glyph glyph-name="quotesingle" unicode="'" horiz-adv-x="198" 
d="M182 1524v-324h-166v324h166z" />
    <glyph glyph-name="parenleft" unicode="(" horiz-adv-x="313" 
d="M18 717q0 522 154 917h143q-35 -142 -61.5 -393.5t-26.5 -519.5t28 -519.5t64 -414.5h-145q-156 404 -156 930z" />
    <glyph glyph-name="parenright" unicode=")" horiz-adv-x="315" 
d="M-6 -213q36 163 64 414.5t28 519.5t-26.5 519.5t-61.5 393.5h143q156 -400 156 -917q0 -520 -158 -930h-145z" />
    <glyph glyph-name="asterisk" unicode="*" horiz-adv-x="368" 
d="M233 1430l68 59l64 -105l-91 -32l91 -33l-64 -107l-68 64l15 -96h-129l18 96l-69 -62l-64 105l92 33l-92 32l59 105l72 -59l-16 94h129z" />
    <glyph glyph-name="plus" unicode="+" horiz-adv-x="471" 
d="M455 547h-140v-154h-159v154h-140v147h140v154h159v-154h140v-147z" />
    <glyph glyph-name="comma" unicode="," horiz-adv-x="251" 
d="M186 -164h-127q36 88 39 164h-82v264h220v-205q0 -104 -50 -223z" />
    <glyph glyph-name="hyphen" unicode="-" horiz-adv-x="290" 
d="M16 731h258v-233h-258v233z" />
    <glyph glyph-name="period" unicode="." horiz-adv-x="251" 
d="M236 262v-262h-220v262h220z" />
    <glyph glyph-name="slash" unicode="/" horiz-adv-x="339" 
d="M344 1634l-190 -1847h-170l190 1847h170z" />
    <glyph glyph-name="zero" unicode="0" horiz-adv-x="622" 
d="M604 1237v-956q0 -143 -72 -219t-200 -76h-39q-131 0 -203 78t-72 217v956q0 144 68 222.5t207 78.5h39q138 0 205 -79.5t67 -221.5zM338 256v1014q0 21 -5.5 31t-21.5 10q-14 0 -19 -9.5t-5 -31.5v-1014q0 -39 24 -39q27 0 27 39z" />
    <glyph glyph-name="one" unicode="1" horiz-adv-x="395" 
d="M119 1198h-109v215q137 0 144 111h221v-1524h-256v1198z" />
    <glyph glyph-name="two" unicode="2" horiz-adv-x="581" 
d="M279 1337q-23 0 -23 -30v-297h-231v315q0 92 59 152.5t176 60.5h45q126 0 191 -60.5t65 -170.5v-195q0 -96 -15 -158.5t-69 -162.5l-94 -170q-91 -149 -113 -204t-22 -114v-90h96v307h223v-520h-553v270q0 80 6 123t35.5 117t94.5 192l86 172q41 92 53 129.5t12 79.5v224
q0 30 -22 30z" />
    <glyph glyph-name="three" unicode="3" horiz-adv-x="581" 
d="M260 989h-233v336q0 95 59 153t180 58h35q126 0 189 -55.5t63 -153.5v-332q0 -52 -23.5 -85t-48.5 -48q35 -15 59.5 -51t24.5 -86v-502q0 -114 -69 -175.5t-193 -61.5h-37q-134 0 -193 61t-59 154v434h246v-395q0 -27 25 -27q22 0 22 27v434q0 24 -22 24h-119v228h110
q27 0 27 26v351q0 16 -4.5 22t-17.5 6q-21 0 -21 -28v-314z" />
    <glyph glyph-name="four" unicode="4" horiz-adv-x="571" 
d="M12 483q201 992 213 1047h248v-1012h86v-237h-86v-281h-248v281h-213v202zM225 518v467q-3 -50 -26.5 -213t-32.5 -254h59z" />
    <glyph glyph-name="five" unicode="5" horiz-adv-x="583" 
d="M262 723h-237v801h520v-221h-287v-261q73 88 154 88h12q67 0 105 -48t38 -115v-756q0 -98 -68 -161.5t-188 -63.5h-51q-125 0 -183.5 58.5t-58.5 148.5v421h244v-383q0 -28 23 -28q22 0 22 28v672q0 29 -22 29q-23 0 -23 -29v-180z" />
    <glyph glyph-name="six" unicode="6" horiz-adv-x="620" 
d="M446 969h13q68 0 106.5 -47t38.5 -119v-565q0 -113 -73.5 -182.5t-194.5 -69.5h-49q-128 0 -198.5 68t-70.5 184v1052q0 104 68 175t201 71h39q134 0 198 -67t64 -177v-284h-258v282q0 31 -23 31q-22 0 -22 -31v-413q44 50 75 69q40 23 86 23zM285 244q0 -35 26 -35
q27 0 27 35v491q0 21 -5.5 30t-19.5 9q-28 0 -28 -39v-491z" />
    <glyph glyph-name="seven" unicode="7" horiz-adv-x="542" 
d="M16 1524h512v-183q-4 -97 -14 -191.5t-28 -230.5t-29 -233q-37 -312 -37 -559v-127h-305v111q0 91 3 150t19 158.5t47 213.5q89 323 109 424.5t20 261.5h-75v-309h-222v514z" />
    <glyph glyph-name="eight" unicode="8" horiz-adv-x="614" 
d="M588 1309v-351q0 -98 -82 -151q92 -52 92 -154v-417q0 -124 -73 -187t-197 -63h-39q-132 0 -202.5 62.5t-70.5 189.5v415q0 58 22.5 93t65.5 61q-77 47 -77 151v351q0 105 64 166t198 61h39q132 0 196 -61.5t64 -165.5zM332 918v376q0 35 -25 35q-26 0 -26 -35v-376
q0 -33 28 -33q23 0 23 33zM332 242v430q0 35 -25 35q-26 0 -26 -35v-430q0 -33 28 -33q23 0 23 33z" />
    <glyph glyph-name="nine" unicode="9" horiz-adv-x="618" 
d="M186 557h-12q-74 0 -116 50.5t-42 133.5v537q0 112 64 185t194 73h56q130 0 200 -68.5t70 -187.5v-1044q0 -104 -67.5 -177t-198.5 -73h-43q-134 0 -197 63.5t-63 165.5v303h260v-285q0 -32 22 -32q21 0 21 32v416q-67 -92 -148 -92zM334 1280q0 35 -25 35q-26 0 -26 -35
v-489q0 -21 5 -30t19 -9q27 0 27 39v489z" />
    <glyph glyph-name="colon" unicode=":" horiz-adv-x="256" 
d="M238 901v-262h-220v262h220zM238 262v-262h-220v262h220z" />
    <glyph glyph-name="semicolon" unicode=";" horiz-adv-x="256" 
d="M238 901v-262h-220v262h220zM188 -164h-127q36 93 39 164h-82v262h220v-203q0 -98 -50 -223z" />
    <glyph glyph-name="less" unicode="&#x3c;" horiz-adv-x="407" 
d="M389 397l-373 148v149l373 148v-166l-192 -58l192 -55v-166z" />
    <glyph glyph-name="equal" unicode="=" horiz-adv-x="462" 
d="M18 770h426v-135h-426v135zM18 608h426v-137h-426v137z" />
    <glyph glyph-name="greater" unicode="&#x3e;" horiz-adv-x="407" 
d="M18 842l373 -148v-149l-373 -148v166l193 55l-193 58v166z" />
    <glyph glyph-name="question" unicode="?" horiz-adv-x="557" 
d="M348 297h-190v266q0 67 8.5 104t36.5 93l67 137q23 49 23 125v285q0 18 -5.5 26t-19.5 8t-18 -7.5t-4 -26.5v-369h-232v369q0 227 236 227h49q126 0 185 -59.5t59 -163.5v-267q0 -79 -12 -127t-50 -110l-90 -148q-26 -42 -34.5 -72.5t-8.5 -80.5v-209zM362 264v-264h-219
v264h219z" />
    <glyph glyph-name="at" unicode="@" horiz-adv-x="937" 
d="M729 49l82 -80q-43 -68 -132.5 -121t-215.5 -53h-2q-41 0 -80.5 5.5t-85 21t-84 40t-75 65t-62 93.5t-41 128.5t-15.5 166.5v562q0 242 124 384t335 142h2q97 0 175.5 -25t139 -77t93.5 -139.5t33 -205.5v-499q0 -115 -18.5 -194t-53.5 -119.5t-75 -57t-93 -16.5h-27
q-116 0 -155 94q-64 -94 -142 -94h-4q-65 0 -105.5 50.5t-37.5 131.5l16 700q3 73 38.5 114.5t88.5 41.5h6q84 0 146 -86l2 80h231l-28 -877q0 -32 18 -32q26 0 40.5 76t14.5 188v495q0 98 -23.5 166t-68 103.5t-95 50t-116.5 14.5h-2q-144 0 -230.5 -103t-86.5 -309v-559
q0 -100 21 -175.5t51.5 -118t73.5 -68t79 -33.5t76 -8h2q164 0 266 137zM481 250l17 674q3 32 -21 32q-18 0 -18 -32l-17 -672q-3 -31 19 -31q17 0 20 29z" />
    <glyph glyph-name="A" unicode="A" horiz-adv-x="583" 
d="M336 0l-14 274h-89l-14 -274h-223l127 1524h328l137 -1524h-252zM248 498h61l-30 579z" />
    <glyph glyph-name="B" unicode="B" horiz-adv-x="618" 
d="M18 0v1524h394q172 0 172 -193v-344q0 -68 -33.5 -109t-67.5 -51q45 -13 83 -55t38 -123v-418q0 -114 -49.5 -172.5t-144.5 -58.5h-392zM297 1331h-18v-434h18q31 0 31 39v358q0 21 -6 29t-25 8zM303 709h-24v-510h24q19 0 25 8.5t6 30.5v430q0 23 -6.5 32t-24.5 9z" />
    <glyph glyph-name="C" unicode="C" horiz-adv-x="608" 
d="M311 209q27 0 27 43v444h254v-450q0 -112 -64.5 -186t-193.5 -74h-41q-275 0 -275 284v992q2 128 67 202t206 74h43q131 0 194.5 -65.5t63.5 -182.5v-403h-254v395q0 21 -5.5 30t-21.5 9q-26 0 -26 -39v-1030q0 -43 26 -43z" />
    <glyph glyph-name="D" unicode="D" horiz-adv-x="608" 
d="M18 0v1524h371q92 0 146.5 -52t54.5 -167v-1074q0 -115 -54 -173t-143 -58h-375zM272 1315v-1100h25q18 0 24.5 11.5t6.5 39.5v1002q0 25 -6.5 36t-24.5 11h-25z" />
    <glyph glyph-name="E" unicode="E" horiz-adv-x="477" 
d="M18 1524h439v-234h-185v-370h156v-242h-156v-440h191v-238h-445v1524z" />
    <glyph glyph-name="F" unicode="F" horiz-adv-x="466" 
d="M18 0v1524h435v-234h-181v-372h150l2 -240h-152v-678h-254z" />
    <glyph glyph-name="G" unicode="G" horiz-adv-x="622" 
d="M227 -14h-6q-98 0 -150.5 72t-52.5 180v1036q0 118 65.5 191t209.5 73h35q75 0 129 -20.5t83 -56t41.5 -76.5t12.5 -91v-342h-250v332q0 20 -6.5 29.5t-24.5 9.5q-16 0 -22 -9.5t-6 -29.5v-1040q0 -47 37 -47q36 0 36 47v454h-53v199h299v-897h-174q-10 58 -27 96
q-73 -110 -176 -110z" />
    <glyph glyph-name="H" unicode="H" horiz-adv-x="610" 
d="M334 0v664h-55v-664h-261v1524h261v-592h55v592h258v-1524h-258z" />
    <glyph glyph-name="I" unicode="I" horiz-adv-x="296" 
d="M279 1524v-1524h-261v1524h261z" />
    <glyph glyph-name="J" unicode="J" horiz-adv-x="577" 
d="M14 657h236v-424q0 -26 22 -26h2q21 0 21 26v1291h264v-1305q0 -106 -62 -169.5t-188 -63.5h-69q-118 0 -172 61.5t-54 163.5v446z" />
    <glyph glyph-name="K" unicode="K" horiz-adv-x="618" 
d="M354 0l-80 600l2 -600h-258v1524h258l-2 -549l86 549h258l-124 -690l131 -834h-271z" />
    <glyph glyph-name="L" unicode="L" horiz-adv-x="454" 
d="M18 1524h258l3 -1282h163l-2 -242h-422v1524z" />
    <glyph glyph-name="M" unicode="M" horiz-adv-x="712" 
d="M18 0v1524h297l45 -740l46 740h288v-1524h-217v852l-76 -852h-92l-78 852v-852h-213z" />
    <glyph glyph-name="N" unicode="N" horiz-adv-x="612" 
d="M18 1524h263l100 -826l-2 826h215v-1524h-240l-121 913l3 -913h-218v1524z" />
    <glyph glyph-name="O" unicode="O" horiz-adv-x="630" 
d="M612 1237v-956q0 -141 -73 -218t-201 -77h-43q-133 0 -205 77.5t-72 217.5v956q0 144 68 222.5t209 78.5h41q140 0 208 -79.5t68 -221.5zM346 258v1008q0 45 -31 45q-17 0 -22.5 -10t-5.5 -35v-1008q0 -41 28 -41q31 0 31 41z" />
    <glyph glyph-name="P" unicode="P" horiz-adv-x="595" 
d="M399 631h-123v-631h-258v1524h377q86 0 136.5 -49t50.5 -150v-491q0 -97 -52 -150t-131 -53zM276 1327v-489h19q17 0 24 8.5t7 30.5v411q0 21 -6 30t-25 9h-19z" />
    <glyph glyph-name="Q" unicode="Q" horiz-adv-x="630" 
d="M612 281q0 -116 -49 -188.5t-139 -96.5l84 -252h-279v248q-102 17 -156.5 92t-54.5 197v956q0 144 68 222.5t209 78.5h41q141 0 208.5 -79.5t67.5 -221.5v-956zM346 258v1008q0 45 -31 45q-17 0 -22.5 -10t-5.5 -35v-1008q0 -41 28 -41q31 0 31 41z" />
    <glyph glyph-name="R" unicode="R" horiz-adv-x="606" 
d="M279 670v-670h-261v1524h404q71 0 116.5 -46.5t45.5 -136.5v-358q0 -125 -92 -164q39 -16 67.5 -52t28.5 -89v-604q0 -47 12 -68v-6h-256q-16 19 -16 63v572q0 35 -29 35h-20zM279 1331v-444h20q29 0 29 35v374q0 20 -5 27.5t-22 7.5h-22z" />
    <glyph glyph-name="S" unicode="S" horiz-adv-x="610" 
d="M596 256q0 -126 -66.5 -198t-201.5 -72h-60q-254 0 -254 235v400h254v-381q0 -41 27 -41q29 0 29 43v297q0 38 -8.5 58.5t-36.5 45.5l-134 115q-66 55 -95.5 120t-29.5 152v270q0 111 64 174.5t197 63.5h59q246 0 246 -217v-336h-250v324q0 32 -27 32q-26 0 -26 -32v-260
q0 -31 8 -47.5t33 -38.5l131 -115q79 -65 110 -127.5t31 -161.5v-303z" />
    <glyph glyph-name="T" unicode="T" horiz-adv-x="518" 
d="M504 1290h-117v-1290h-256v1290h-117v234h490v-234z" />
    <glyph glyph-name="U" unicode="U" horiz-adv-x="622" 
d="M604 236q0 -107 -70.5 -179.5t-201.5 -72.5h-41q-140 0 -206.5 70.5t-66.5 181.5v1288h267v-1258q0 -39 26 -39q29 0 29 39v1258h264v-1288z" />
    <glyph glyph-name="V" unicode="V" horiz-adv-x="626" 
d="M631 1524l-137 -1524h-347l-151 1524h278l52 -1039l53 1039h252z" />
    <glyph glyph-name="W" unicode="W" horiz-adv-x="901" 
d="M487 0l-32 868l-35 -868h-299l-125 1524h268l31 -996l43 996h242l45 -1002l30 1002h250l-125 -1524h-293z" />
    <glyph glyph-name="X" unicode="X" horiz-adv-x="598" 
d="M295 602l-45 -602h-254l104 801l-98 723h264l37 -553l35 553h248l-94 -723l110 -801h-260z" />
    <glyph glyph-name="Y" unicode="Y" horiz-adv-x="567" 
d="M420 600v-600h-258v600l-168 924h258l45 -527l45 527h231z" />
    <glyph glyph-name="Z" unicode="Z" horiz-adv-x="520" 
d="M20 1524h478v-213l-207 -1078h217v-233h-496v213l203 1079h-195v232z" />
    <glyph glyph-name="bracketleft" unicode="[" horiz-adv-x="296" 
d="M18 -215v1849h269v-170h-72v-1509h72v-170h-269z" />
    <glyph glyph-name="backslash" unicode="\" horiz-adv-x="337" 
d="M186 -213l-190 1847h168l190 -1847h-168z" />
    <glyph glyph-name="bracketright" unicode="]" horiz-adv-x="296" 
d="M10 1464v170h269v-1849h-269v170h72v1509h-72z" />
    <glyph glyph-name="asciicircum" unicode="^" horiz-adv-x="387" 
d="M2 858l74 666h235l74 -666h-166l-26 387l-25 -387h-166z" />
    <glyph glyph-name="underscore" unicode="_" horiz-adv-x="561" 
d="M4 -203v164h553v-164h-553z" />
    <glyph glyph-name="grave" unicode="`" horiz-adv-x="444" 
d="M289 1368l69 -238h-196l-76 238h203z" />
    <glyph glyph-name="a" unicode="a" horiz-adv-x="573" 
d="M12 139v342q0 63 25 101.5t78 64.5q25 12 89 38t72 30q9 5 11.5 7t5 7t2.5 14v187q0 26 -23 26h-2q-22 0 -22 -26v-209h-228v211q0 96 63.5 141t174.5 45h27q125 0 189.5 -42.5t64.5 -141.5v-721q0 -12 12 -12h18v-201h-211q-29 0 -45 23.5t-16 66.5q-23 -40 -62 -70
t-92 -30h-4q-60 0 -93.5 44t-33.5 105zM295 190v371q-28 -16 -35.5 -31t-7.5 -43v-297q0 -28 22 -28q21 0 21 28z" />
    <glyph glyph-name="b" unicode="b" 
d="M16 1524h252v-516q71 100 160 100h8q65 0 100 -48.5t35 -123.5v-764q0 -73 -43 -128.5t-108 -55.5h-4q-56 0 -95.5 28t-74.5 84q-11 -47 -15 -100h-215v1524zM268 199q0 -35 23 -35q24 0 24 33v702q0 33 -22 33q-25 0 -25 -33v-700z" />
    <glyph glyph-name="c" unicode="c" horiz-adv-x="550" 
d="M537 190q0 -94 -62 -150t-166 -56h-53q-110 0 -175 57t-65 172v672q0 104 58 168.5t182 64.5h57q117 0 170.5 -55.5t53.5 -151.5v-272h-228v279q0 26 -20 26q-21 0 -21 -26v-723q0 -29 21 -29q20 0 20 29v315h228v-320z" />
    <glyph glyph-name="d" unicode="d" horiz-adv-x="589" 
d="M322 1524h251v-1524h-249v86q-74 -100 -154 -100h-4q-66 0 -108 55t-42 133v760q0 75 39 125.5t99 50.5h8q52 0 88.5 -24.5t71.5 -67.5v506zM272 201q0 -35 25 -35t25 35v692q0 37 -25 37t-25 -35v-694z" />
    <glyph glyph-name="e" unicode="e" horiz-adv-x="563" 
d="M549 213q0 -107 -64.5 -168t-173.5 -61h-49q-246 0 -246 237v656q0 115 62.5 178t183.5 63h49q108 0 173 -57t65 -180v-346h-287v-345q0 -32 25 -32q24 0 24 32v289h238v-266zM262 924v-246h49v246q0 22 -4.5 30.5t-19.5 8.5q-14 0 -19.5 -9t-5.5 -30z" />
    <glyph glyph-name="f" unicode="f" horiz-adv-x="425" 
d="M418 1524v-199h-56q-22 0 -22 -25v-198h78v-207h-78v-895h-252v895h-80v207h80v287q0 65 39 100t94 35h197z" />
    <glyph glyph-name="g" unicode="g" horiz-adv-x="589" 
d="M573 -147q0 -97 -63.5 -151t-183.5 -54h-60q-123 0 -180 47t-57 125v153h245v-123q0 -26 23 -26q25 0 25 29v231q-69 -96 -154 -96q-66 0 -109 47.5t-43 128.5v772q0 72 37.5 123t104.5 51h8q35 0 68 -17.5t49 -33.5t41 -45v88h249v-1249zM272 195q0 -33 25 -33t25 33
v702q0 33 -25 33t-25 -33v-702z" />
    <glyph glyph-name="h" unicode="h" horiz-adv-x="589" 
d="M16 0v1524h252v-514q73 102 164 102h8q37 0 64.5 -14t41.5 -37t20.5 -46t6.5 -46v-969h-254v889q0 35 -26 35q-25 0 -25 -37v-887h-252z" />
    <glyph glyph-name="i" unicode="i" horiz-adv-x="284" 
d="M268 1368v-238h-252v238h252zM268 1102v-1102h-252v1102h252z" />
    <glyph glyph-name="j" unicode="j" horiz-adv-x="284" 
d="M268 1368v-238h-252v238h252zM-55 -125h49q22 0 22 25v1202h252v-1325q0 -57 -32 -88t-78 -31h-213v217z" />
    <glyph glyph-name="k" unicode="k" horiz-adv-x="575" 
d="M268 0h-252v1524h252v-781l62 359h237l-92 -465l105 -637h-246l-68 455z" />
    <glyph glyph-name="l" unicode="l" horiz-adv-x="284" 
d="M268 1524v-1524h-252v1524h252z" />
    <glyph glyph-name="m" unicode="m" horiz-adv-x="884" 
d="M268 889v-889h-252v1102h248v-96q68 106 160 106h10q98 0 127 -102q70 102 166 102h10q36 0 63 -15t41 -38.5t20.5 -47t6.5 -44.5v-967h-256v889q0 11 -1 17.5t-5.5 11t-13.5 4.5q-25 0 -25 -33v-889h-254v889q0 33 -22 33q-23 0 -23 -33z" />
    <glyph glyph-name="n" unicode="n" horiz-adv-x="589" 
d="M16 0v1102h248v-96q78 106 168 106h10q69 0 100 -45.5t31 -97.5v-969h-254v889q0 35 -26 35q-25 0 -25 -37v-887h-252z" />
    <glyph glyph-name="o" unicode="o" horiz-adv-x="591" 
d="M274 -16q-131 0 -194.5 66t-63.5 202v600q0 133 67 199.5t193 66.5h41q258 0 258 -266v-600q0 -133 -68.5 -200.5t-191.5 -67.5h-41zM270 211q0 -37 25 -37q27 0 27 37v684q0 39 -27 39q-25 0 -25 -39v-684z" />
    <glyph glyph-name="p" unicode="p" 
d="M16 1102h248v-98q77 108 166 108h4q70 0 103.5 -50t33.5 -138v-756q0 -76 -42.5 -129t-104.5 -53h-4q-88 0 -152 94v-422h-252v1444zM268 195q0 -33 25 -33q22 0 22 33v706q0 35 -22 35q-25 0 -25 -35v-706z" />
    <glyph glyph-name="q" unicode="q" 
d="M379 1102h192v-1444h-249v428q-68 -98 -154 -98h-6q-61 0 -103.5 52.5t-42.5 131.5v737q0 94 42 148.5t120 54.5h10q56 0 94.5 -28.5t75.5 -79.5q18 53 21 98zM272 195q0 -33 25 -33t25 43v698q0 37 -27 37q-23 0 -23 -33v-712z" />
    <glyph glyph-name="r" unicode="r" horiz-adv-x="538" 
d="M268 901v-901h-252v1102h248v-96q67 102 144 102h14q50 0 77 -31.5t27 -77.5v-397h-221v299q0 25 -18 25q-19 0 -19 -25z" />
    <glyph glyph-name="s" unicode="s" horiz-adv-x="530" 
d="M518 193q0 -101 -61 -155t-168 -54h-62q-215 0 -215 186v266h224v-256q0 -26 22 -26q23 0 23 26v203q0 27 -7.5 41.5t-29.5 32.5l-109 73q-69 48 -93 99.5t-24 124.5v172q0 192 224 192h55q103 0 157 -39.5t54 -128.5v-223h-217v211q0 29 -21 29q-22 0 -22 -29v-168
q0 -25 6 -36t27 -29l112 -76q74 -53 99.5 -104t25.5 -130v-202z" />
    <glyph glyph-name="t" unicode="t" horiz-adv-x="421" 
d="M412 0h-238q-36 0 -62 25t-26 75v797h-78v205h78v352h252v-352h74v-205h-74v-664q0 -24 22 -24h52v-209z" />
    <glyph glyph-name="u" unicode="u" 
d="M571 1102v-1102h-247v96q-75 -104 -168 -104h-9q-66 0 -98.5 45.5t-32.5 97.5v967h254v-889q0 -33 27 -33q22 0 22 35v887h252z" />
    <glyph glyph-name="v" unicode="v" horiz-adv-x="555" 
d="M559 1102l-119 -1102h-325l-119 1102h254l31 -744l30 744h248z" />
    <glyph glyph-name="w" unicode="w" horiz-adv-x="837" 
d="M451 0l-31 631l-29 -631h-278l-117 1102h252l26 -719l33 719h228l36 -744l25 744h246l-117 -1102h-274z" />
    <glyph glyph-name="x" unicode="x" horiz-adv-x="548" 
d="M305 0l-35 379l-34 -379h-240l100 588l-96 514h246l30 -344l27 344h244l-96 -508l102 -594h-248z" />
    <glyph glyph-name="y" unicode="y" horiz-adv-x="550" 
d="M383 -236q-20 -106 -117 -106h-211v205h78q21 0 21 22q0 2 1 20.5t1 26.5q0 24 -9 86l-151 1084h250l37 -649l26 649h246z" />
    <glyph glyph-name="z" unicode="z" horiz-adv-x="456" 
d="M16 1102h424v-180l-159 -713h165v-209h-436v180l166 725h-160v197z" />
    <glyph glyph-name="braceleft" unicode="{" horiz-adv-x="319" 
d="M27 633h-19v162h27q26 0 34.5 12t8.5 39q0 49 -20.5 319t-20.5 312q0 75 42.5 116t121.5 41h108v-164h-39q-24 0 -34.5 -10.5t-10.5 -34.5t20.5 -284.5t20.5 -292.5q0 -55 -20.5 -86.5t-69.5 -46.5q49 -15 69.5 -42.5t20.5 -74.5q0 -36 -20.5 -295.5t-20.5 -288.5
q0 -65 58 -65h26v-162h-108q-164 0 -164 150q0 27 20.5 310.5t20.5 327.5q0 58 -51 58z" />
    <glyph glyph-name="bar" unicode="|" horiz-adv-x="288" 
d="M225 1634v-1847h-162v1847h162z" />
    <glyph glyph-name="braceright" unicode="}" horiz-adv-x="317" 
d="M283 795h26v-162h-18q-49 0 -49 -58q0 -44 20.5 -327.5t20.5 -310.5q0 -76 -43.5 -113t-122.5 -37h-107v162h27q57 0 57 65q0 29 -20.5 288.5t-20.5 295.5q0 46 21 74t69 41q-49 15 -69.5 47t-20.5 88q0 32 20.5 292.5t20.5 284.5t-11 34.5t-36 10.5h-37v164h107
q81 0 123.5 -40.5t42.5 -116.5q0 -42 -20.5 -312t-20.5 -319q0 -27 8 -39t33 -12z" />
    <glyph glyph-name="asciitilde" unicode="~" horiz-adv-x="446" 
d="M326 586q-36 0 -59.5 10t-51.5 33q-25 22 -35 22t-10 -14v-57h-160v135q0 68 30 108.5t83 40.5q33 0 56 -10.5t52 -34.5q25 -22 35 -22q13 0 13 18v55h157v-153q0 -60 -30 -95.5t-80 -35.5z" />
    <glyph glyph-name="exclamdown" unicode="&#xa1;" horiz-adv-x="288" 
d="M279 -422h-269q1 28 32.5 562t33.5 663h139q2 -122 33 -654t31 -571zM35 838v264h221v-264h-221z" />
    <glyph glyph-name="cent" unicode="&#xa2;" horiz-adv-x="555" 
d="M315 -16h-6v-90h-41v90h-18q-106 0 -170 56t-64 171v676q0 104 57 167.5t177 63.5h18v88h41v-88h10q114 0 168 -55t54 -148v-276h-203v264q0 44 -29 49v-790q29 6 29 49v299h203v-322q0 -93 -62 -148.5t-164 -55.5zM242 211q0 -44 26 -49v790q-26 -5 -26 -49v-692z" />
    <glyph glyph-name="sterling" unicode="&#xa3;" horiz-adv-x="653" 
d="M635 584v-584h-621v201h23q38 3 59 32t21 101v8q0 33 -13 291h-90v194h80q-12 258 -12 392v67q0 252 270 252h21q248 0 248 -227v-437h-230v424q0 35 -26 35q-27 0 -27 -35v-6q0 -93 4 -465h172v-194h-172q2 -88 2 -221q0 -144 -59 -207h123v379h227z" />
    <glyph glyph-name="yen" unicode="&#xa5;" horiz-adv-x="563" 
d="M543 500h-125v-500h-258v500h-123v135h123v24h-123v134h108l-151 731h256l43 -453l2 -100l4 100l43 453h227l-139 -731h113v-134h-125v-24h125v-135z" />
    <glyph glyph-name="brokenbar" unicode="&#xa6;" horiz-adv-x="288" 
d="M225 1634v-882h-162v882h162zM225 711v-924h-162v924h162z" />
    <glyph glyph-name="section" unicode="&#xa7;" horiz-adv-x="653" 
d="M590 -121q0 -112 -65 -171.5t-185 -59.5h-55q-119 0 -174.5 52t-55.5 167v293h236v-297q0 -31 24 -31q25 0 25 31v200q0 48 -6.5 70.5t-32.5 54.5l-203 246q-53 66 -73.5 117t-20.5 123v20q0 143 146 191l-15 24q-39 58 -54 106t-15 122v184q0 101 59.5 159t179.5 58h64
q225 0 225 -203v-262h-234v248q0 18 -4.5 25.5t-17.5 7.5q-23 0 -23 -33v-164q0 -42 6 -62.5t31 -58.5l209 -282q48 -66 68 -110t20 -101v-21q0 -84 -37.5 -130t-107.5 -70l12 -19q44 -57 59 -99.5t15 -115.5v-209zM254 664l162 -215q10 13 10 34q0 27 -35 72l-160 213
q-10 -13 -10 -35q0 -24 33 -69z" />
    <glyph glyph-name="dieresis" unicode="&#xa8;" horiz-adv-x="444" 
d="M207 1325v-195h-182v195h182zM420 1325v-195h-182v195h182z" />
    <glyph glyph-name="copyright" unicode="&#xa9;" horiz-adv-x="788" 
d="M403 -14h-14q-175 0 -273 89t-98 275v828q0 175 101 267.5t272 92.5h15q168 0 266 -89.5t98 -270.5v-828q0 -180 -104 -272t-263 -92zM137 377q0 -293 256 -293h10q250 0 250 293v770q0 293 -247 293h-13q-127 0 -191.5 -70t-64.5 -223v-770zM383 334q0 -33 18 -33
q19 0 19 33v399h184v-407q0 -78 -48.5 -130.5t-141.5 -52.5h-21q-103 0 -155 52t-52 149v840q0 93 52 145.5t151 52.5h25q93 0 141.5 -45.5t48.5 -128.5v-331h-184v325q0 27 -19 27q-18 0 -18 -27v-868z" />
    <glyph glyph-name="ordfeminine" unicode="&#xaa;" horiz-adv-x="358" 
d="M186 944q-36 -59 -92 -59h-4q-37 0 -57.5 25.5t-20.5 64.5v182q0 40 15.5 62t50.5 38q26 11 96 37q12 5 12 19v104q0 17 -16 17q-14 0 -14 -17v-117h-138v123q0 55 39 82t105 27h16q78 0 117 -26t39 -83v-405q0 -10 8 -10h10v-117h-129q-37 0 -37 53zM158 1161v-157
q0 -17 14 -17t14 19v198q-16 -8 -22 -16t-6 -27z" />
    <glyph glyph-name="guillemotleft" unicode="&#xab;" horiz-adv-x="479" 
d="M188 571l74 -307h-178l-72 260v97l72 251h180zM403 571l62 -307h-176l-74 307l76 301h178z" />
    <glyph glyph-name="registered" unicode="&#xae;" horiz-adv-x="440" 
d="M229 856h-16q-92 0 -145.5 50.5t-53.5 148.5v280q0 95 52.5 146t146.5 51h20q92 0 142.5 -49.5t50.5 -143.5v-284q0 -95 -55 -147t-142 -52zM82 1055q0 -73 31.5 -108.5t99.5 -35.5h16q131 0 131 144v284q0 140 -127 140h-20q-68 0 -99.5 -33.5t-31.5 -110.5v-280z
M211 1167v-211h-90v482h135q37 0 53.5 -15t16.5 -47v-112q0 -40 -31 -52q31 -12 31 -43v-186q0 -14 6 -20v-7h-90q-9 18 -9 23v172q0 16 -12 16h-10zM211 1372v-135h10q12 0 12 14v107q0 14 -12 14h-10z" />
    <glyph glyph-name="macron" unicode="&#xaf;" horiz-adv-x="444" 
d="M53 1141v159h338v-159h-338z" />
    <glyph glyph-name="degree" unicode="&#xb0;" horiz-adv-x="335" 
d="M10 1380q0 66 44 108t116 42q69 0 112.5 -42.5t43.5 -107.5q0 -64 -44 -106.5t-112 -42.5q-72 0 -116 42.5t-44 106.5zM113 1380q0 -25 14.5 -40t40.5 -15t40.5 15t14.5 40q0 27 -14.5 42.5t-40.5 15.5t-40.5 -15.5t-14.5 -42.5z" />
    <glyph glyph-name="two.sup" unicode="&#xb2;" horiz-adv-x="376" 
d="M367 821h-357v107q0 75 20.5 117t100.5 151q46 73 56 94.5t10 57.5v49q0 20 -15 20q-14 0 -14 -20v-115h-152v109q0 141 154 141h25q90 0 128.5 -35t38.5 -100v-47q0 -46 -13 -81t-32 -60t-69 -81q-61 -70 -74.5 -94.5t-13.5 -60.5v-31h65v127h142v-248z" />
    <glyph glyph-name="three.sup" unicode="&#xb3;" horiz-adv-x="372" 
d="M162 1278h-150v131q0 56 37.5 89.5t116.5 33.5h20q166 0 166 -121v-117q0 -32 -17 -53.5t-38 -28.5q65 -21 65 -96v-158q0 -147 -172 -147h-22q-87 0 -122.5 35.5t-35.5 97.5v162h156v-154q0 -18 14 -18q13 0 13 18v166q0 9 -3 12t-12 3h-72v120h70q14 0 14 15v137
q0 16 -14 16t-14 -16v-127z" />
    <glyph glyph-name="acute" unicode="&#xb4;" horiz-adv-x="444" 
d="M86 1130l72 238h202l-77 -238h-197z" />
    <glyph glyph-name="paragraph" unicode="&#xb6;" horiz-adv-x="618" 
d="M14 1319q0 100 49.5 152.5t135.5 52.5h411v-168h-53v-1356h-154v1356h-41v-1356h-155v731h-8q-75 0 -130 49.5t-55 149.5v389z" />
    <glyph glyph-name="periodcentered" unicode="&#xb7;" horiz-adv-x="251" 
d="M236 778v-264h-220v264h220z" />
    <glyph glyph-name="cedilla" unicode="&#xb8;" horiz-adv-x="444" 
d="M356 -164q0 -58 -38 -91.5t-107 -33.5h-121v109h86q29 0 29 20q0 19 -29 19h-67v141h106v-47h8q65 0 99 -30.5t34 -82.5v-4z" />
    <glyph glyph-name="one.sup" unicode="&#xb9;" horiz-adv-x="245" 
d="M66 1343h-58v127q71 0 74 54h147v-703h-161z" />
    <glyph glyph-name="ordmasculine" unicode="&#xba;" horiz-adv-x="362" 
d="M195 881h-25q-73 0 -114.5 37t-41.5 108v358q0 72 41.5 110t114.5 38h25q72 0 112.5 -37.5t40.5 -110.5v-358q0 -72 -40.5 -108.5t-112.5 -36.5zM168 1014q0 -23 14 -23q15 0 15 23v383q0 24 -15 24q-14 0 -14 -24v-383z" />
    <glyph glyph-name="guillemotright" unicode="&#xbb;" horiz-adv-x="479" 
d="M215 264l74 305l-74 303h178l74 -254v-96l-74 -258h-178zM12 264l64 305l-66 303h178l74 -303l-72 -305h-178z" />
    <glyph glyph-name="onequarter" unicode="&#xbc;" horiz-adv-x="628" 
d="M446 1524h146l-428 -1524h-144zM297 109v116l111 480h176v-461h43v-135h-43v-109h-156v109h-131zM66 1343h-58v127q71 0 74 54h147v-703h-161zM395 244h33v250z" />
    <glyph glyph-name="onehalf" unicode="&#xbd;" horiz-adv-x="710" 
d="M446 1524h146l-428 -1524h-144zM66 1343h-58v127q71 0 74 54h147v-703h-161zM702 0h-356v106q0 75 20.5 118t100.5 151q46 72 55.5 93.5t9.5 57.5v49q0 21 -14 21t-14 -21v-114h-152v108q0 142 154 142h24q168 0 168 -136v-47q0 -66 -21.5 -104t-92.5 -117
q-61 -70 -74.5 -94.5t-13.5 -60.5v-31h65v127h141v-248z" />
    <glyph glyph-name="threequarters" unicode="&#xbe;" horiz-adv-x="733" 
d="M549 1524h145l-428 -1524h-143zM162 1278h-150v131q0 56 37.5 89.5t116.5 33.5h20q166 0 166 -121v-117q0 -32 -17 -53.5t-38 -28.5q65 -21 65 -96v-158q0 -147 -172 -147h-22q-87 0 -122.5 35.5t-35.5 97.5v162h156v-154q0 -18 14 -18q13 0 13 18v166q0 9 -3 12t-12 3
h-72v120h70q14 0 14 15v137q0 16 -14 16t-14 -16v-127zM401 109v116l111 480h176v-461h43v-135h-43v-109h-156v109h-131zM500 244h32v250z" />
    <glyph glyph-name="questiondown" unicode="&#xbf;" horiz-adv-x="557" 
d="M209 805h190v-266q0 -67 -8.5 -104t-36.5 -93l-67 -137q-23 -49 -23 -125v-285q0 -35 25 -35q14 0 18 8t4 27v369h232v-369q0 -227 -236 -227h-49q-126 0 -185 59.5t-59 163.5v266q0 80 12 128t50 110l90 147q26 42 34.5 73t8.5 81v209zM195 838v264h219v-264h-219z" />
    <glyph glyph-name="Agrave" unicode="&#xc0;" horiz-adv-x="583" 
d="M336 0l-14 274h-89l-14 -274h-223l127 1524h328l137 -1524h-252zM248 498h61l-30 579zM324 1747l71 -195h-202l-78 195h209z" />
    <glyph glyph-name="Aacute" unicode="&#xc1;" horiz-adv-x="583" 
d="M336 0l-14 274h-89l-14 -274h-223l127 1524h328l137 -1524h-252zM248 498h61l-30 579zM184 1552l76 195h209l-82 -195h-203z" />
    <glyph glyph-name="Acircumflex" unicode="&#xc2;" horiz-adv-x="583" 
d="M336 0l-14 274h-89l-14 -274h-223l127 1524h328l137 -1524h-252zM248 498h61l-30 579zM391 1747l103 -195h-175l-34 76l-33 -76h-174l102 195h211z" />
    <glyph glyph-name="Atilde" unicode="&#xc3;" horiz-adv-x="583" 
d="M336 0l-14 274h-89l-14 -274h-223l127 1524h328l137 -1524h-252zM248 498h61l-30 579zM287 1718q43 -16 49 -16q10 0 10 16v33h133v-90q0 -48 -22.5 -77.5t-65.5 -29.5h-4q-31 0 -100 27q-46 16 -49 16q-13 0 -13 -16v-31h-131v95q0 47 23 74.5t67 27.5h2q27 0 101 -29z
" />
    <glyph glyph-name="Adieresis" unicode="&#xc4;" horiz-adv-x="583" 
d="M336 0l-14 274h-89l-14 -274h-223l127 1524h328l137 -1524h-252zM248 498h61l-30 579zM485 1743v-191h-184v191h184zM270 1743v-191h-182v191h182z" />
    <glyph glyph-name="Aring" unicode="&#xc5;" horiz-adv-x="583" 
d="M336 0l-14 274h-89l-14 -274h-223l127 1524h328l137 -1524h-252zM248 498h61l-30 579zM152 1675q0 56 38.5 91.5t96.5 35.5t95.5 -35.5t37.5 -91.5q0 -58 -37.5 -93.5t-95.5 -35.5t-96.5 35.5t-38.5 93.5zM287 1726q-23 0 -38.5 -15t-15.5 -38t15.5 -38t38.5 -15
q22 0 36.5 15t14.5 38t-14.5 38t-36.5 15z" />
    <glyph glyph-name="AE" unicode="&#xc6;" horiz-adv-x="770" 
d="M340 0v242h-80l-20 -242h-248l180 1524h580v-234h-158v-370h129v-242h-129v-440h164v-238h-418zM281 465h59v684z" />
    <glyph glyph-name="Ccedilla" unicode="&#xc7;" horiz-adv-x="604" 
d="M467 -164q0 -58 -38 -91.5t-107 -33.5h-121v109h86q28 0 28 20q0 19 -28 19h-68v133q-201 36 -201 278v992q2 128 67 202t206 74h43q131 0 194.5 -65.5t63.5 -182.5v-403h-254v395q0 21 -5.5 30t-21.5 9q-26 0 -26 -39v-1030q0 -43 26 -43q27 0 27 43v444h254v-450
q0 -112 -64.5 -186t-193.5 -74h-8v-33h8q65 0 99 -30.5t34 -82.5v-4z" />
    <glyph glyph-name="Egrave" unicode="&#xc8;" horiz-adv-x="477" 
d="M279 1747l71 -195h-203l-77 195h209zM18 1524h439v-234h-185v-370h156v-242h-156v-440h191v-238h-445v1524z" />
    <glyph glyph-name="Eacute" unicode="&#xc9;" horiz-adv-x="477" 
d="M141 1552l76 195h209l-82 -195h-203zM18 1524h439v-234h-185v-370h156v-242h-156v-440h191v-238h-445v1524z" />
    <glyph glyph-name="Ecircumflex" unicode="&#xca;" horiz-adv-x="477" 
d="M346 1747l103 -195h-175l-34 76l-33 -76h-174l102 195h211zM18 1524h439v-234h-185v-370h156v-242h-156v-440h191v-238h-445v1524z" />
    <glyph glyph-name="Edieresis" unicode="&#xcb;" horiz-adv-x="477" 
d="M440 1743v-191h-184v191h184zM225 1743v-191h-182v191h182zM18 1524h439v-234h-185v-370h156v-242h-156v-440h191v-238h-445v1524z" />
    <glyph glyph-name="Igrave" unicode="&#xcc;" horiz-adv-x="296" 
d="M279 1524v-1524h-261v1524h261zM178 1747l72 -195h-203l-78 195h209z" />
    <glyph glyph-name="Iacute" unicode="&#xcd;" horiz-adv-x="296" 
d="M279 1524v-1524h-261v1524h261zM45 1552l76 195h209l-82 -195h-203z" />
    <glyph glyph-name="Icircumflex" unicode="&#xce;" horiz-adv-x="296" 
d="M279 1524v-1524h-261v1524h261zM252 1747l102 -195h-174l-35 76l-32 -76h-174l102 195h211z" />
    <glyph glyph-name="Idieresis" unicode="&#xcf;" horiz-adv-x="296" 
d="M279 1524v-1524h-261v1524h261zM346 1743v-191h-184v191h184zM131 1743v-191h-182v191h182z" />
    <glyph glyph-name="Eth" unicode="&#xd0;" horiz-adv-x="618" 
d="M29 0v672h-29v223h29v629h370q92 0 146.5 -52t54.5 -167v-1074q0 -115 -54 -173t-143 -58h-374zM283 1315v-420h41v-223h-41v-457h24q18 0 24.5 11.5t6.5 39.5v1002q0 25 -6.5 36t-24.5 11h-24z" />
    <glyph glyph-name="Ntilde" unicode="&#xd1;" horiz-adv-x="612" 
d="M319 1718q43 -16 50 -16q10 0 10 16v33h133v-90q0 -48 -22.5 -77.5t-65.5 -29.5h-4q-32 0 -101 27q-46 16 -49 16q-12 0 -12 -16v-31h-131v95q0 47 23 74.5t67 27.5h2q10 0 18.5 -1t20 -5t17 -6t22 -8.5t22.5 -8.5zM18 1524h263l100 -826l-2 826h215v-1524h-240l-121 913
l3 -913h-218v1524z" />
    <glyph glyph-name="Ograve" unicode="&#xd2;" horiz-adv-x="626" 
d="M348 1747l70 -188h-203l-76 188h209zM612 1237v-956q0 -141 -73 -218t-201 -77h-43q-133 0 -205 77.5t-72 217.5v956q0 144 68 222.5t209 78.5h41q140 0 208 -79.5t68 -221.5zM346 258v1008q0 45 -31 45q-17 0 -22.5 -10t-5.5 -35v-1008q0 -41 28 -41q31 0 31 41z" />
    <glyph glyph-name="Oacute" unicode="&#xd3;" horiz-adv-x="626" 
d="M215 1559l74 188h209l-80 -188h-203zM612 1237v-956q0 -141 -73 -218t-201 -77h-43q-133 0 -205 77.5t-72 217.5v956q0 144 68 222.5t209 78.5h41q140 0 208 -79.5t68 -221.5zM346 258v1008q0 45 -31 45q-17 0 -22.5 -10t-5.5 -35v-1008q0 -41 28 -41q31 0 31 41z" />
    <glyph glyph-name="Ocircumflex" unicode="&#xd4;" horiz-adv-x="626" 
d="M426 1747l98 -188h-176l-35 71l-32 -71h-175l97 188h223zM612 1237v-956q0 -141 -73 -218t-201 -77h-43q-133 0 -205 77.5t-72 217.5v956q0 144 68 222.5t209 78.5h41q140 0 208 -79.5t68 -221.5zM346 258v1008q0 45 -31 45q-17 0 -22.5 -10t-5.5 -35v-1008q0 -41 28 -41
q31 0 31 41z" />
    <glyph glyph-name="Otilde" unicode="&#xd5;" horiz-adv-x="626" 
d="M317 1726q43 -16 50 -16q10 0 10 16v33h133v-90q0 -48 -22.5 -77t-65.5 -29h-4q-34 0 -101 26q-11 4 -23 8.5t-17 6.5t-9 2q-12 0 -12 -17v-30h-131v94q0 47 23 74.5t67 27.5h2q10 0 18.5 -1t20 -5t17 -6t22 -8.5t22.5 -8.5zM612 1237v-956q0 -141 -73 -218t-201 -77h-43
q-133 0 -205 77.5t-72 217.5v956q0 144 68 222.5t209 78.5h41q140 0 208 -79.5t68 -221.5zM346 258v1008q0 45 -31 45q-17 0 -22.5 -10t-5.5 -35v-1008q0 -41 28 -41q31 0 31 41z" />
    <glyph glyph-name="Odieresis" unicode="&#xd6;" horiz-adv-x="626" 
d="M301 1743v-184h-184v184h184zM516 1743v-184h-184v184h184zM612 1237v-956q0 -141 -73 -218t-201 -77h-43q-133 0 -205 77.5t-72 217.5v956q0 144 68 222.5t209 78.5h41q140 0 208 -79.5t68 -221.5zM346 258v1008q0 45 -31 45q-17 0 -22.5 -10t-5.5 -35v-1008
q0 -41 28 -41q31 0 31 41z" />
    <glyph glyph-name="multiply" unicode="&#xd7;" horiz-adv-x="438" 
d="M428 514l-102 -102l-107 106l-106 -106l-103 102l107 109l-107 106l103 105l106 -109l107 109l102 -105l-106 -106z" />
    <glyph glyph-name="Oslash" unicode="&#xd8;" horiz-adv-x="626" 
d="M608 276q0 -137 -74.5 -213.5t-201.5 -76.5h-33q-94 0 -152 45l-18 -41h-117l49 121q-43 74 -43 170v960q0 138 69.5 217.5t207.5 79.5h33q88 0 147 -39l14 35h119l-47 -109q47 -73 47 -182v-967zM281 1096l-7 -336l74 373v133q0 47 -35 47q-18 0 -25 -10.5t-7 -36.5
v-170zM281 260q0 -45 32 -45q35 0 35 45v170l4 361l-71 -363v-168z" />
    <glyph glyph-name="Ugrave" unicode="&#xd9;" horiz-adv-x="622" 
d="M346 1747l72 -195h-203l-78 195h209zM604 236q0 -107 -70.5 -179.5t-201.5 -72.5h-41q-140 0 -206.5 70.5t-66.5 181.5v1288h267v-1258q0 -39 26 -39q29 0 29 39v1258h264v-1288z" />
    <glyph glyph-name="Uacute" unicode="&#xda;" horiz-adv-x="622" 
d="M209 1552l76 195h209l-82 -195h-203zM604 236q0 -107 -70.5 -179.5t-201.5 -72.5h-41q-140 0 -206.5 70.5t-66.5 181.5v1288h267v-1258q0 -39 26 -39q29 0 29 39v1258h264v-1288z" />
    <glyph glyph-name="Ucircumflex" unicode="&#xdb;" horiz-adv-x="622" 
d="M416 1747l102 -195h-174l-35 76l-33 -76h-174l103 195h211zM604 236q0 -107 -70.5 -179.5t-201.5 -72.5h-41q-140 0 -206.5 70.5t-66.5 181.5v1288h267v-1258q0 -39 26 -39q29 0 29 39v1258h264v-1288z" />
    <glyph glyph-name="Udieresis" unicode="&#xdc;" horiz-adv-x="622" 
d="M604 236q0 -107 -70.5 -179.5t-201.5 -72.5h-41q-140 0 -206.5 70.5t-66.5 181.5v1288h267v-1258q0 -39 26 -39q29 0 29 39v1258h264v-1288zM510 1743v-191h-184v191h184zM295 1743v-191h-182v191h182z" />
    <glyph glyph-name="Yacute" unicode="&#xdd;" horiz-adv-x="563" 
d="M420 600v-600h-258v600l-168 924h258l45 -527l45 527h231zM195 1552l75 195h209l-82 -195h-202z" />
    <glyph glyph-name="Thorn" unicode="&#xde;" horiz-adv-x="595" 
d="M395 342h-119v-342h-258v1524h258v-275h119q88 0 137.5 -49t49.5 -149v-510q0 -96 -51.5 -147.5t-135.5 -51.5zM276 1057v-514h21q31 0 31 39v438q0 21 -6.5 29t-24.5 8h-21z" />
    <glyph glyph-name="germandbls" unicode="&#xdf;" horiz-adv-x="593" 
d="M471 934q45 -11 78 -52t33 -100v-604q0 -80 -45.5 -129t-118.5 -49h-129v193h14q14 0 14 20v549q0 22 -16 22h-12v193h12q16 0 16 18v316q0 35 -22 35h-4q-23 0 -23 -35v-1311h-252v1309q0 101 59.5 164t184.5 63h66q120 0 179.5 -53t59.5 -135v-261q0 -57 -29 -96.5
t-65 -56.5z" />
    <glyph glyph-name="agrave" unicode="&#xe0;" horiz-adv-x="573" 
d="M305 1368l68 -231h-197l-76 231h205zM12 139v342q0 63 25 101.5t78 64.5q25 12 89 38t72 30q9 5 11.5 7t5 7t2.5 14v187q0 26 -23 26h-2q-22 0 -22 -26v-209h-228v211q0 96 63.5 141t174.5 45h27q125 0 189.5 -42.5t64.5 -141.5v-721q0 -12 12 -12h18v-201h-211
q-29 0 -45 23.5t-16 66.5q-23 -40 -62 -70t-92 -30h-4q-60 0 -93.5 44t-33.5 105zM295 190v371q-28 -16 -35.5 -31t-7.5 -43v-297q0 -28 22 -28q21 0 21 28z" />
    <glyph glyph-name="aacute" unicode="&#xe1;" horiz-adv-x="573" 
d="M176 1137l70 231h203l-76 -231h-197zM12 139v342q0 63 25 101.5t78 64.5q25 12 89 38t72 30q9 5 11.5 7t5 7t2.5 14v187q0 26 -23 26h-2q-22 0 -22 -26v-209h-228v211q0 96 63.5 141t174.5 45h27q125 0 189.5 -42.5t64.5 -141.5v-721q0 -12 12 -12h18v-201h-211
q-29 0 -45 23.5t-16 66.5q-23 -40 -62 -70t-92 -30h-4q-60 0 -93.5 44t-33.5 105zM295 190v371q-28 -16 -35.5 -31t-7.5 -43v-297q0 -28 22 -28q21 0 21 28z" />
    <glyph glyph-name="acircumflex" unicode="&#xe2;" horiz-adv-x="573" 
d="M377 1368l98 -231h-170l-33 104l-30 -104h-168l98 231h205zM12 139v342q0 63 25 101.5t78 64.5q25 12 89 38t72 30q9 5 11.5 7t5 7t2.5 14v187q0 26 -23 26h-2q-22 0 -22 -26v-209h-228v211q0 96 63.5 141t174.5 45h27q125 0 189.5 -42.5t64.5 -141.5v-721q0 -12 12 -12
h18v-201h-211q-29 0 -45 23.5t-16 66.5q-23 -40 -62 -70t-92 -30h-4q-60 0 -93.5 44t-33.5 105zM295 190v371q-28 -16 -35.5 -31t-7.5 -43v-297q0 -28 22 -28q21 0 21 28z" />
    <glyph glyph-name="atilde" unicode="&#xe3;" horiz-adv-x="573" 
d="M12 139v342q0 63 25 101.5t78 64.5q25 12 89 38t72 30q9 5 11.5 7t5 7t2.5 14v187q0 26 -23 26h-2q-22 0 -22 -26v-209h-228v211q0 96 63.5 141t174.5 45h27q125 0 189.5 -42.5t64.5 -141.5v-721q0 -12 12 -12h18v-201h-211q-29 0 -45 23.5t-16 66.5q-23 -40 -62 -70
t-92 -30h-4q-60 0 -93.5 44t-33.5 105zM295 190v371q-28 -16 -35.5 -31t-7.5 -43v-297q0 -28 22 -28q21 0 21 28zM332 1352h133v-109q0 -46 -23 -74t-69 -28h-4q-39 0 -95 30q-40 21 -43 21q-10 0 -10 -16v-39h-135v108q0 46 24 74.5t70 28.5h4q38 0 92 -29q38 -23 46 -23
q10 0 10 17v39z" />
    <glyph glyph-name="adieresis" unicode="&#xe4;" horiz-adv-x="573" 
d="M258 1331v-194h-182v194h182zM471 1331v-194h-182v194h182zM12 139v342q0 63 25 101.5t78 64.5q25 12 89 38t72 30q9 5 11.5 7t5 7t2.5 14v187q0 26 -23 26h-2q-22 0 -22 -26v-209h-228v211q0 96 63.5 141t174.5 45h27q125 0 189.5 -42.5t64.5 -141.5v-721q0 -12 12 -12
h18v-201h-211q-29 0 -45 23.5t-16 66.5q-23 -40 -62 -70t-92 -30h-4q-60 0 -93.5 44t-33.5 105zM295 190v371q-28 -16 -35.5 -31t-7.5 -43v-297q0 -28 22 -28q21 0 21 28z" />
    <glyph glyph-name="aring" unicode="&#xe5;" horiz-adv-x="573" 
d="M12 139v342q0 63 25 101.5t78 64.5q25 12 89 38t72 30q9 5 11.5 7t5 7t2.5 14v187q0 26 -23 26h-2q-22 0 -22 -26v-209h-228v211q0 96 63.5 141t174.5 45h27q125 0 189.5 -42.5t64.5 -141.5v-721q0 -12 12 -12h18v-201h-211q-29 0 -45 23.5t-16 66.5q-23 -40 -62 -70
t-92 -30h-4q-60 0 -93.5 44t-33.5 105zM295 190v371q-28 -16 -35.5 -31t-7.5 -43v-297q0 -28 22 -28q21 0 21 28zM408 1264q0 -57 -38 -93t-96 -36t-96.5 36.5t-38.5 92.5t38.5 91.5t96.5 35.5t96 -35.5t38 -91.5zM221 1264q0 -24 14.5 -39t38.5 -15q22 0 37 15t15 39
q0 23 -15 37t-37 14q-23 0 -38 -14t-15 -37z" />
    <glyph glyph-name="ae" unicode="&#xe6;" horiz-adv-x="841" 
d="M827 213q0 -107 -63.5 -168t-173.5 -61h-49q-167 0 -217 110q-75 -104 -174 -104h-5q-64 0 -98.5 43.5t-34.5 105.5v318q0 62 25 100.5t78 65.5q26 14 92.5 40t68.5 27q12 7 15.5 11.5t3.5 17.5v211q0 26 -23 26h-2q-22 0 -22 -26v-234h-228v236q0 95 62.5 140.5
t171.5 45.5h20q105 0 154 -43q43 43 135 43h23q111 0 176 -57t65 -182v-340h-284v-349q0 -18 5 -25t17 -7q25 0 25 32v293h237v-270zM543 924v-242h47v242q0 23 -4.5 31t-20.5 8q-13 0 -17.5 -9t-4.5 -30zM295 190v349q-26 -15 -34.5 -29.5t-8.5 -44.5v-275q0 -28 22 -28
q21 0 21 28z" />
    <glyph glyph-name="ccedilla" unicode="&#xe7;" horiz-adv-x="546" 
d="M428 -164q0 -58 -38 -91.5t-107 -33.5h-121v109h86q28 0 28 20q0 19 -28 19h-68v133q-76 16 -120 71.5t-44 149.5v672q0 104 58 168.5t182 64.5h57q117 0 170.5 -55.5t53.5 -151.5v-272h-228v279q0 26 -20 26q-21 0 -21 -26v-723q0 -29 21 -29q20 0 20 29v315h228v-320
q0 -94 -62 -150t-166 -56h-22v-31h8q65 0 99 -30.5t34 -82.5v-4z" />
    <glyph glyph-name="egrave" unicode="&#xe8;" horiz-adv-x="563" 
d="M315 1368l68 -229h-195l-75 229h202zM549 213q0 -107 -64.5 -168t-173.5 -61h-49q-246 0 -246 237v656q0 115 62.5 178t183.5 63h49q108 0 173 -57t65 -180v-346h-287v-345q0 -32 25 -32q24 0 24 32v289h238v-266zM262 924v-246h49v246q0 22 -4.5 30.5t-19.5 8.5
q-14 0 -19.5 -9t-5.5 -30z" />
    <glyph glyph-name="eacute" unicode="&#xe9;" horiz-adv-x="563" 
d="M186 1139l70 229h203l-76 -229h-197zM549 213q0 -107 -64.5 -168t-173.5 -61h-49q-246 0 -246 237v656q0 115 62.5 178t183.5 63h49q108 0 173 -57t65 -180v-346h-287v-345q0 -32 25 -32q24 0 24 32v289h238v-266zM262 924v-246h49v246q0 22 -4.5 30.5t-19.5 8.5
q-14 0 -19.5 -9t-5.5 -30z" />
    <glyph glyph-name="ecircumflex" unicode="&#xea;" horiz-adv-x="563" 
d="M387 1368l96 -229h-168l-32 102l-31 -102h-168l98 229h205zM549 213q0 -107 -64.5 -168t-173.5 -61h-49q-246 0 -246 237v656q0 115 62.5 178t183.5 63h49q108 0 173 -57t65 -180v-346h-287v-345q0 -32 25 -32q24 0 24 32v289h238v-266zM262 924v-246h49v246
q0 22 -4.5 30.5t-19.5 8.5q-14 0 -19.5 -9t-5.5 -30z" />
    <glyph glyph-name="edieresis" unicode="&#xeb;" horiz-adv-x="563" 
d="M311 1118q108 0 173 -57t65 -180v-346h-287v-345q0 -32 25 -32q24 0 24 32v289h238v-266q0 -107 -64.5 -168t-173.5 -61h-49q-246 0 -246 237v656q0 115 62.5 178t183.5 63h49zM481 1331v-192h-182v192h182zM268 1331v-192h-182v192h182zM262 924v-246h49v246
q0 22 -4.5 30.5t-19.5 8.5q-14 0 -19.5 -9t-5.5 -30z" />
    <glyph glyph-name="igrave" unicode="&#xec;" horiz-adv-x="284" 
d="M268 1102v-1102h-252v1102h252zM174 1368l70 -238h-197l-76 238h203z" />
    <glyph glyph-name="iacute" unicode="&#xed;" horiz-adv-x="284" 
d="M45 1130l72 238h202l-77 -238h-197zM268 1102v-1102h-252v1102h252z" />
    <glyph glyph-name="icircumflex" unicode="&#xee;" horiz-adv-x="284" 
d="M246 1368l65 -238h-145l-25 117l-24 -117h-146l68 238h207zM268 1102v-1102h-252v1102h252z" />
    <glyph glyph-name="idieresis" unicode="&#xef;" horiz-adv-x="284" 
d="M131 1327v-197h-158v197h158zM309 1327v-197h-155v197h155zM268 1102v-1102h-252v1102h252z" />
    <glyph glyph-name="eth" unicode="&#xf0;" horiz-adv-x="585" 
d="M569 236q0 -113 -70.5 -182.5t-197.5 -69.5h-22q-136 0 -199.5 61t-63.5 180v668q0 96 37 154.5t107 58.5h8q77 0 147 -70l-75 176l-146 -77v143l96 51l-81 195h251l35 -84l111 59v-145l-62 -33l62 -147q36 -72 49.5 -132t13.5 -145v-661zM266 213q0 -21 5.5 -30t21.5 -9
q24 0 24 39v680q0 13 -0.5 19t-6 13t-17.5 7q-27 0 -27 -39v-680z" />
    <glyph glyph-name="ntilde" unicode="&#xf1;" horiz-adv-x="589" 
d="M16 0v1102h248v-96q78 106 168 106h10q69 0 100 -45.5t31 -97.5v-969h-254v889q0 35 -26 35q-25 0 -25 -37v-887h-252zM350 1343h133v-108q0 -46 -23 -74t-69 -28h-4q-39 0 -94 30q-40 21 -43 21q-10 0 -10 -17v-39h-136v109q0 46 24.5 74t70.5 28h4q40 0 92 -28
q38 -23 45 -23q10 0 10 17v38z" />
    <glyph glyph-name="ograve" unicode="&#xf2;" horiz-adv-x="591" 
d="M328 1368l67 -229h-194l-76 229h203zM274 -16q-131 0 -194.5 66t-63.5 202v600q0 133 67 199.5t193 66.5h41q258 0 258 -266v-600q0 -133 -68.5 -200.5t-191.5 -67.5h-41zM270 211q0 -37 25 -37q27 0 27 37v684q0 39 -27 39q-25 0 -25 -39v-684z" />
    <glyph glyph-name="oacute" unicode="&#xf3;" horiz-adv-x="591" 
d="M199 1139l69 229h203l-76 -229h-196zM274 -16q-131 0 -194.5 66t-63.5 202v600q0 133 67 199.5t193 66.5h41q258 0 258 -266v-600q0 -133 -68.5 -200.5t-191.5 -67.5h-41zM270 211q0 -37 25 -37q27 0 27 37v684q0 39 -27 39q-25 0 -25 -39v-684z" />
    <glyph glyph-name="ocircumflex" unicode="&#xf4;" horiz-adv-x="591" 
d="M399 1364l99 -225h-170l-31 100l-31 -100h-168l97 225h204zM274 -16q-131 0 -194.5 66t-63.5 202v600q0 133 67 199.5t193 66.5h41q258 0 258 -266v-600q0 -133 -68.5 -200.5t-191.5 -67.5h-41zM270 211q0 -37 25 -37q27 0 27 37v684q0 39 -27 39q-25 0 -25 -39v-684z
" />
    <glyph glyph-name="otilde" unicode="&#xf5;" horiz-adv-x="591" 
d="M274 -16q-131 0 -194.5 66t-63.5 202v600q0 133 67 199.5t193 66.5h41q258 0 258 -266v-600q0 -133 -68.5 -200.5t-191.5 -67.5h-41zM270 211q0 -37 25 -37q27 0 27 37v684q0 39 -27 39q-25 0 -25 -39v-684zM350 1352h133v-109q0 -46 -23 -74t-69 -28h-4q-39 0 -94 30
q-40 21 -43 21q-10 0 -10 -16v-39h-136v108q0 46 24.5 74.5t70.5 28.5h4q38 0 92 -29q38 -23 45 -23q10 0 10 17v39z" />
    <glyph glyph-name="odieresis" unicode="&#xf6;" horiz-adv-x="591" 
d="M281 1331v-192h-183v192h183zM494 1331v-192h-183v192h183zM274 -16q-131 0 -194.5 66t-63.5 202v600q0 133 67 199.5t193 66.5h41q258 0 258 -266v-600q0 -133 -68.5 -200.5t-191.5 -67.5h-41zM270 211q0 -37 25 -37q27 0 27 37v684q0 39 -27 39q-25 0 -25 -39v-684z
" />
    <glyph glyph-name="divide" unicode="&#xf7;" horiz-adv-x="471" 
d="M315 879v-160h-159v160h159zM16 694h439v-147h-439v147zM315 522v-160h-159v160h159z" />
    <glyph glyph-name="oslash" unicode="&#xf8;" horiz-adv-x="579" 
d="M563 254q0 -135 -69.5 -202.5t-200.5 -67.5h-6q-93 0 -148 36l-16 -28h-107l47 86q-47 65 -47 176v594q0 270 267 270h12q85 0 141 -37l17 29h110l-53 -84q53 -69 53 -178v-594zM262 213q0 -41 27 -41q16 0 22 9.5t6 31.5v102l7 244l-62 -229v-117zM262 778l-6 -225
l61 231v109q0 13 -1 20.5t-7.5 15t-19.5 7.5q-27 0 -27 -43v-115z" />
    <glyph glyph-name="ugrave" unicode="&#xf9;" 
d="M571 1102v-1102h-247v96q-75 -104 -168 -104h-9q-66 0 -98.5 45.5t-32.5 97.5v967h254v-889q0 -33 27 -33q22 0 22 35v887h252zM326 1368l69 -238h-196l-76 238h203z" />
    <glyph glyph-name="uacute" unicode="&#xfa;" 
d="M197 1130l71 238h203l-78 -238h-196zM571 1102v-1102h-247v96q-75 -104 -168 -104h-9q-66 0 -98.5 45.5t-32.5 97.5v967h254v-889q0 -33 27 -33q22 0 22 35v887h252z" />
    <glyph glyph-name="ucircumflex" unicode="&#xfb;" 
d="M397 1368l99 -238h-170l-33 111l-31 -111h-168l96 238h207zM571 1102v-1102h-247v96q-75 -104 -168 -104h-9q-66 0 -98.5 45.5t-32.5 97.5v967h254v-889q0 -33 27 -33q22 0 22 35v887h252z" />
    <glyph glyph-name="udieresis" unicode="&#xfc;" 
d="M281 1325v-195h-183v195h183zM494 1325v-195h-183v195h183zM571 1102v-1102h-247v96q-75 -104 -168 -104h-9q-66 0 -98.5 45.5t-32.5 97.5v967h254v-889q0 -33 27 -33q22 0 22 35v887h252z" />
    <glyph glyph-name="yacute" unicode="&#xfd;" horiz-adv-x="550" 
d="M383 -236q-20 -106 -117 -106h-211v205h78q21 0 21 22q0 2 1 20.5t1 26.5q0 24 -9 86l-151 1084h250l37 -649l26 649h246zM178 1130l72 238h203l-78 -238h-197z" />
    <glyph glyph-name="thorn" unicode="&#xfe;" 
d="M16 1524h252v-518q72 106 162 106h6q68 0 101.5 -49.5t33.5 -136.5v-758q0 -76 -42.5 -129t-104.5 -53h-4q-88 0 -152 94v-422h-252v1866zM268 195q0 -33 25 -33q22 0 22 33v706q0 35 -22 35q-25 0 -25 -35v-706z" />
    <glyph glyph-name="ydieresis" unicode="&#xff;" horiz-adv-x="550" 
d="M383 -236q-20 -106 -117 -106h-211v205h78q21 0 21 22q0 2 1 20.5t1 26.5q0 24 -9 86l-151 1084h250l37 -649l26 649h246zM260 1325v-195h-182v195h182zM473 1325v-195h-182v195h182z" />
    <glyph glyph-name="Amacron" unicode="&#x100;" horiz-adv-x="583" 
d="M336 0l-14 274h-89l-14 -274h-223l127 1524h328l137 -1524h-252zM248 498h61l-30 579zM119 1561v157h338v-157h-338z" />
    <glyph glyph-name="amacron" unicode="&#x101;" horiz-adv-x="573" 
d="M12 139v342q0 63 25 101.5t78 64.5q25 12 89 38t72 30q9 5 11.5 7t5 7t2.5 14v187q0 26 -23 26h-2q-22 0 -22 -26v-209h-228v211q0 96 63.5 141t174.5 45h27q125 0 189.5 -42.5t64.5 -141.5v-721q0 -12 12 -12h18v-201h-211q-29 0 -45 23.5t-16 66.5q-23 -40 -62 -70
t-92 -30h-4q-60 0 -93.5 44t-33.5 105zM295 190v371q-28 -16 -35.5 -31t-7.5 -43v-297q0 -28 22 -28q21 0 21 28zM104 1147v160h338v-160h-338z" />
    <glyph glyph-name="Abreve" unicode="&#x102;" horiz-adv-x="583" 
d="M336 0l-14 274h-89l-14 -274h-223l127 1524h328l137 -1524h-252zM248 498h61l-30 579zM475 1720q0 -76 -48.5 -125t-137.5 -49h-6q-90 0 -138.5 49t-48.5 125v19h158v-17q0 -39 31 -39h2q32 0 32 39v17h156v-19z" />
    <glyph glyph-name="abreve" unicode="&#x103;" horiz-adv-x="573" 
d="M12 139v342q0 63 25 101.5t78 64.5q25 12 89 38t72 30q9 5 11.5 7t5 7t2.5 14v187q0 26 -23 26h-2q-22 0 -22 -26v-209h-228v211q0 96 63.5 141t174.5 45h27q125 0 189.5 -42.5t64.5 -141.5v-721q0 -12 12 -12h18v-201h-211q-29 0 -45 23.5t-16 66.5q-23 -40 -62 -70
t-92 -30h-4q-60 0 -93.5 44t-33.5 105zM295 190v371q-28 -16 -35.5 -31t-7.5 -43v-297q0 -28 22 -28q21 0 21 28zM461 1315q0 -84 -49 -132t-138 -48h-4q-94 0 -141 47t-47 133v24h158v-16q0 -51 30 -51h2q33 0 33 51v16h156v-24z" />
    <glyph glyph-name="Aogonek" unicode="&#x104;" horiz-adv-x="577" 
d="M336 0l-14 274h-89l-14 -274h-223l127 1524h328l137 -1524h-2q-56 -74 -56 -152v-4q0 -47 41 -47h15v-139h-86q-63 0 -105.5 29.5t-42.5 87.5v12q0 103 129 213h-145zM248 498h61l-30 579z" />
    <glyph glyph-name="aogonek" unicode="&#x105;" horiz-adv-x="571" 
d="M336 -225v12q0 103 129 213h-107q-29 0 -45 23.5t-16 66.5q-23 -40 -62 -70t-92 -30h-4q-60 0 -93.5 44t-33.5 105v342q0 63 25 101.5t78 64.5q25 12 89 38t72 30q9 5 11.5 7t5 7t2.5 14v187q0 26 -23 26h-2q-22 0 -22 -26v-209h-228v211q0 96 63.5 141t174.5 45h27
q125 0 189.5 -42.5t64.5 -141.5v-721q0 -12 12 -12h18v-201q-55 -73 -55 -152v-4q0 -47 41 -47h14v-139h-86q-63 0 -105 29.5t-42 87.5zM295 190v371q-28 -16 -35.5 -31t-7.5 -43v-297q0 -28 22 -28q21 0 21 28z" />
    <glyph glyph-name="Cacute" unicode="&#x106;" horiz-adv-x="608" 
d="M215 1559l72 188h209l-78 -188h-203zM311 209q27 0 27 43v444h254v-450q0 -112 -64.5 -186t-193.5 -74h-41q-275 0 -275 284v992q2 128 67 202t206 74h43q131 0 194.5 -65.5t63.5 -182.5v-403h-254v395q0 21 -5.5 30t-21.5 9q-26 0 -26 -39v-1030q0 -43 26 -43z" />
    <glyph glyph-name="cacute" unicode="&#x107;" horiz-adv-x="546" 
d="M186 1139l70 229h203l-76 -229h-197zM537 190q0 -94 -62 -150t-166 -56h-53q-110 0 -175 57t-65 172v672q0 104 58 168.5t182 64.5h57q117 0 170.5 -55.5t53.5 -151.5v-272h-228v279q0 26 -20 26q-21 0 -21 -26v-723q0 -29 21 -29q20 0 20 29v315h228v-320z" />
    <glyph glyph-name="Ccircumflex" unicode="&#x108;" horiz-adv-x="608" 
d="M426 1747l98 -188h-176l-35 71l-32 -71h-177l99 188h223zM311 209q27 0 27 43v444h254v-450q0 -112 -64.5 -186t-193.5 -74h-41q-275 0 -275 284v992q2 128 67 202t206 74h43q131 0 194.5 -65.5t63.5 -182.5v-403h-254v395q0 21 -5.5 30t-21.5 9q-26 0 -26 -39v-1030
q0 -43 26 -43z" />
    <glyph glyph-name="ccircumflex" unicode="&#x109;" horiz-adv-x="546" 
d="M387 1368l98 -229h-170l-30 102l-31 -102h-168l96 229h205zM537 190q0 -94 -62 -150t-166 -56h-53q-110 0 -175 57t-65 172v672q0 104 58 168.5t182 64.5h57q117 0 170.5 -55.5t53.5 -151.5v-272h-228v279q0 26 -20 26q-21 0 -21 -26v-723q0 -29 21 -29q20 0 20 29v315
h228v-320z" />
    <glyph glyph-name="Cdotaccent" unicode="&#x10a;" horiz-adv-x="608" 
d="M438 1774v-215h-252v215h252zM311 209q27 0 27 43v444h254v-450q0 -112 -64.5 -186t-193.5 -74h-41q-275 0 -275 284v992q2 128 67 202t206 74h43q131 0 194.5 -65.5t63.5 -182.5v-403h-254v395q0 21 -5.5 30t-21.5 9q-26 0 -26 -39v-1030q0 -43 26 -43z" />
    <glyph glyph-name="cdotaccent" unicode="&#x10b;" horiz-adv-x="546" 
d="M412 1368v-229h-254v229h254zM537 190q0 -94 -62 -150t-166 -56h-53q-110 0 -175 57t-65 172v672q0 104 58 168.5t182 64.5h57q117 0 170.5 -55.5t53.5 -151.5v-272h-228v279q0 26 -20 26q-21 0 -21 -26v-723q0 -29 21 -29q20 0 20 29v315h228v-320z" />
    <glyph glyph-name="Ccaron" unicode="&#x10c;" horiz-adv-x="608" 
d="M203 1559l-99 188h179l32 -78l35 78h176l-98 -188h-225zM311 209q27 0 27 43v444h254v-450q0 -112 -64.5 -186t-193.5 -74h-41q-275 0 -275 284v992q2 128 67 202t206 74h43q131 0 194.5 -65.5t63.5 -182.5v-403h-254v395q0 21 -5.5 30t-21.5 9q-26 0 -26 -39v-1030
q0 -43 26 -43z" />
    <glyph glyph-name="ccaron" unicode="&#x10d;" horiz-adv-x="546" 
d="M180 1139l-94 229h168l31 -111l32 111h168l-94 -229h-211zM537 190q0 -94 -62 -150t-166 -56h-53q-110 0 -175 57t-65 172v672q0 104 58 168.5t182 64.5h57q117 0 170.5 -55.5t53.5 -151.5v-272h-228v279q0 26 -20 26q-21 0 -21 -26v-723q0 -29 21 -29q20 0 20 29v315
h228v-320z" />
    <glyph glyph-name="Dcaron" unicode="&#x10e;" horiz-adv-x="608" 
d="M166 1552l-103 195h175l32 -78l35 78h174l-102 -195h-211zM18 0v1524h371q92 0 146.5 -52t54.5 -167v-1074q0 -115 -54 -173t-143 -58h-375zM272 1315v-1100h25q18 0 24.5 11.5t6.5 39.5v1002q0 25 -6.5 36t-24.5 11h-25z" />
    <glyph glyph-name="dcaron" unicode="&#x10f;" 
d="M594 1278l8 246h168l-16 -246h-160zM322 1524h251v-1524h-249v86q-74 -100 -154 -100h-4q-66 0 -108 55t-42 133v760q0 75 39 125.5t99 50.5h8q52 0 88.5 -24.5t71.5 -67.5v506zM272 201q0 -35 25 -35t25 35v692q0 37 -25 37t-25 -35v-694z" />
    <glyph glyph-name="Dcroat" unicode="&#x110;" horiz-adv-x="618" 
d="M29 0v672h-29v223h29v629h370q92 0 146.5 -52t54.5 -167v-1074q0 -115 -54 -173t-143 -58h-374zM283 1315v-420h41v-223h-41v-457h24q18 0 24.5 11.5t6.5 39.5v1002q0 25 -6.5 36t-24.5 11h-24z" />
    <glyph glyph-name="dcroat" unicode="&#x111;" 
d="M322 1524h251v-133h39v-183h-39v-1208h-249v86q-74 -100 -154 -100h-4q-66 0 -108 55t-42 133v760q0 75 39 125.5t99 50.5h8q52 0 88.5 -24.5t71.5 -67.5v190h-117v183h117v133zM272 201q0 -35 25 -35t25 35v692q0 37 -25 37t-25 -35v-694z" />
    <glyph glyph-name="Emacron" unicode="&#x112;" horiz-adv-x="477" 
d="M18 1524h439v-234h-185v-370h156v-242h-156v-440h191v-238h-445v1524zM72 1561v157h338v-157h-338z" />
    <glyph glyph-name="emacron" unicode="&#x113;" horiz-adv-x="563" 
d="M549 213q0 -107 -64.5 -168t-173.5 -61h-49q-246 0 -246 237v656q0 115 62.5 178t183.5 63h49q108 0 173 -57t65 -180v-346h-287v-345q0 -32 25 -32q24 0 24 32v289h238v-266zM262 924v-246h49v246q0 22 -4.5 30.5t-19.5 8.5q-14 0 -19.5 -9t-5.5 -30zM117 1149v160h338
v-160h-338z" />
    <glyph glyph-name="Ebreve" unicode="&#x114;" horiz-adv-x="477" 
d="M18 1524h439v-234h-185v-370h156v-242h-156v-440h191v-238h-445v1524zM432 1720q0 -76 -48.5 -125t-137.5 -49h-6q-90 0 -138.5 49t-48.5 125v19h158v-17q0 -39 31 -39h2q32 0 32 39v17h156v-19z" />
    <glyph glyph-name="ebreve" unicode="&#x115;" horiz-adv-x="563" 
d="M549 213q0 -107 -64.5 -168t-173.5 -61h-49q-246 0 -246 237v656q0 115 62.5 178t183.5 63h49q108 0 173 -57t65 -180v-346h-287v-345q0 -32 25 -32q24 0 24 32v289h238v-266zM262 924v-246h49v246q0 22 -4.5 30.5t-19.5 8.5q-14 0 -19.5 -9t-5.5 -30zM473 1315
q0 -84 -49 -132t-137 -48h-4q-95 0 -142 47.5t-47 132.5v24h158v-16q0 -51 31 -51h2q32 0 32 51v16h156v-24z" />
    <glyph glyph-name="Edotaccent" unicode="&#x116;" horiz-adv-x="477" 
d="M369 1774v-222h-252v222h252zM18 1524h439v-234h-185v-370h156v-242h-156v-440h191v-238h-445v1524z" />
    <glyph glyph-name="edotaccent" unicode="&#x117;" horiz-adv-x="563" 
d="M412 1368v-229h-254v229h254zM549 213q0 -107 -64.5 -168t-173.5 -61h-49q-246 0 -246 237v656q0 115 62.5 178t183.5 63h49q108 0 173 -57t65 -180v-346h-287v-345q0 -32 25 -32q24 0 24 32v289h238v-266zM262 924v-246h49v246q0 22 -4.5 30.5t-19.5 8.5q-14 0 -19.5 -9
t-5.5 -30z" />
    <glyph glyph-name="Eogonek" unicode="&#x118;" horiz-adv-x="475" 
d="M18 1524h439v-234h-185v-370h156v-242h-156v-440h191v-238h-66q-53 -70 -53 -152v-4q0 -25 10 -36t33 -11h12v-139h-86q-64 0 -105.5 29.5t-41.5 87.5v12q0 105 127 213h-275v1524z" />
    <glyph glyph-name="eogonek" unicode="&#x119;" horiz-adv-x="563" 
d="M467 -203v-139h-88q-63 0 -105.5 29.5t-42.5 87.5v12q0 101 113 199q-12 -2 -33 -2h-49q-246 0 -246 237v656q0 115 62.5 178t183.5 63h49q108 0 173 -57t65 -180v-346h-287v-345q0 -32 25 -32q24 0 24 32v289h238v-266q0 -48 -15.5 -94.5t-28.5 -67.5t-42 -63
q-53 -83 -53 -140v-4q0 -47 43 -47h14zM262 924v-246h49v246q0 22 -4.5 30.5t-19.5 8.5q-14 0 -19.5 -9t-5.5 -30z" />
    <glyph glyph-name="Ecaron" unicode="&#x11a;" horiz-adv-x="477" 
d="M137 1552l-102 195h174l33 -78l34 78h175l-103 -195h-211zM18 1524h439v-234h-185v-370h156v-242h-156v-440h191v-238h-445v1524z" />
    <glyph glyph-name="ecaron" unicode="&#x11b;" horiz-adv-x="563" 
d="M178 1139l-94 225h168l31 -107l32 107h168l-94 -225h-211zM549 213q0 -107 -64.5 -168t-173.5 -61h-49q-246 0 -246 237v656q0 115 62.5 178t183.5 63h49q108 0 173 -57t65 -180v-346h-287v-345q0 -32 25 -32q24 0 24 32v289h238v-266zM262 924v-246h49v246
q0 22 -4.5 30.5t-19.5 8.5q-14 0 -19.5 -9t-5.5 -30z" />
    <glyph glyph-name="Gcircumflex" unicode="&#x11c;" horiz-adv-x="622" 
d="M422 1747l98 -188h-176l-35 71l-33 -71h-174l97 188h223zM227 -14h-6q-98 0 -150.5 72t-52.5 180v1036q0 118 65.5 191t209.5 73h35q75 0 129 -20.5t83 -56t41.5 -76.5t12.5 -91v-342h-250v332q0 20 -6.5 29.5t-24.5 9.5q-16 0 -22 -9.5t-6 -29.5v-1040q0 -47 37 -47
q36 0 36 47v454h-53v199h299v-897h-174q-10 58 -27 96q-73 -110 -176 -110z" />
    <glyph glyph-name="gcircumflex" unicode="&#x11d;" 
d="M393 1368l99 -238h-170l-33 111l-31 -111h-168l96 238h207zM573 -147q0 -97 -63.5 -151t-183.5 -54h-60q-123 0 -180 47t-57 125v153h245v-123q0 -26 23 -26q25 0 25 29v231q-69 -96 -154 -96q-66 0 -109 47.5t-43 128.5v772q0 72 37.5 123t104.5 51h8q35 0 68 -17.5
t49 -33.5t41 -45v88h249v-1249zM272 195q0 -33 25 -33t25 33v702q0 33 -25 33t-25 -33v-702z" />
    <glyph glyph-name="Gbreve" unicode="&#x11e;" horiz-adv-x="622" 
d="M504 1729q0 -76 -49 -125.5t-138 -49.5h-6q-90 0 -138 49.5t-48 125.5v18h158v-16q0 -39 30 -39h2q33 0 33 39v16h156v-18zM227 -14h-6q-98 0 -150.5 72t-52.5 180v1036q0 118 65.5 191t209.5 73h35q75 0 129 -20.5t83 -56t41.5 -76.5t12.5 -91v-342h-250v332
q0 20 -6.5 29.5t-24.5 9.5q-16 0 -22 -9.5t-6 -29.5v-1040q0 -47 37 -47q36 0 36 47v454h-53v199h299v-897h-174q-10 58 -27 96q-73 -110 -176 -110z" />
    <glyph glyph-name="gbreve" unicode="&#x11f;" 
d="M573 -147q0 -97 -63.5 -151t-183.5 -54h-60q-123 0 -180 47t-57 125v153h245v-123q0 -26 23 -26q25 0 25 29v231q-69 -96 -154 -96q-66 0 -109 47.5t-43 128.5v772q0 72 37.5 123t104.5 51h8q35 0 68 -17.5t49 -33.5t41 -45v88h249v-1249zM272 195q0 -33 25 -33t25 33
v702q0 33 -25 33t-25 -33v-702zM479 1307q0 -84 -49 -132.5t-137 -48.5h-4q-94 0 -141.5 47.5t-47.5 133.5v24h158v-16q0 -51 31 -51h2q33 0 33 51v16h155v-24z" />
    <glyph glyph-name="Gdotaccent" unicode="&#x120;" horiz-adv-x="622" 
d="M438 1774v-215h-252v215h252zM227 -14h-6q-98 0 -150.5 72t-52.5 180v1036q0 118 65.5 191t209.5 73h35q75 0 129 -20.5t83 -56t41.5 -76.5t12.5 -91v-342h-250v332q0 20 -6.5 29.5t-24.5 9.5q-16 0 -22 -9.5t-6 -29.5v-1040q0 -47 37 -47q36 0 36 47v454h-53v199h299
v-897h-174q-10 58 -27 96q-73 -110 -176 -110z" />
    <glyph glyph-name="gdotaccent" unicode="&#x121;" 
d="M573 -147q0 -97 -63.5 -151t-183.5 -54h-60q-123 0 -180 47t-57 125v153h245v-123q0 -26 23 -26q25 0 25 29v231q-69 -96 -154 -96q-66 0 -109 47.5t-43 128.5v772q0 72 37.5 123t104.5 51h8q35 0 68 -17.5t49 -33.5t41 -45v88h249v-1249zM272 195q0 -33 25 -33t25 33
v702q0 33 -25 33t-25 -33v-702zM418 1368v-238h-252v238h252z" />
    <glyph glyph-name="uni0122" unicode="&#x122;" horiz-adv-x="622" 
d="M389 -336h-108q21 57 24 117h-82v186h201v-135q0 -78 -35 -168zM227 -14h-6q-98 0 -150.5 72t-52.5 180v1036q0 118 65.5 191t209.5 73h35q75 0 129 -20.5t83 -56t41.5 -76.5t12.5 -91v-342h-250v332q0 20 -6.5 29.5t-24.5 9.5q-16 0 -22 -9.5t-6 -29.5v-1040
q0 -47 37 -47q36 0 36 47v454h-53v199h299v-897h-174q-10 58 -27 96q-73 -110 -176 -110z" />
    <glyph glyph-name="uni0123" unicode="&#x123;" 
d="M219 1434h109q-22 -61 -25 -117h82v-187h-201v136q0 78 35 168zM573 -147q0 -97 -63.5 -151t-183.5 -54h-60q-123 0 -180 47t-57 125v153h245v-123q0 -26 23 -26q25 0 25 29v231q-69 -96 -154 -96q-66 0 -109 47.5t-43 128.5v772q0 72 37.5 123t104.5 51h8q35 0 68 -17.5
t49 -33.5t41 -45v88h249v-1249zM272 195q0 -33 25 -33t25 33v702q0 33 -25 33t-25 -33v-702z" />
    <glyph glyph-name="Hcircumflex" unicode="&#x124;" horiz-adv-x="610" 
d="M334 0v664h-55v-664h-261v1524h261v-592h55v592h258v-1524h-258zM410 1747l102 -195h-174l-35 76l-33 -76h-174l103 195h211z" />
    <glyph glyph-name="hcircumflex" unicode="&#x125;" horiz-adv-x="589" 
d="M16 0v1524h252v-514q73 102 164 102h8q37 0 64.5 -14t41.5 -37t20.5 -46t6.5 -46v-969h-254v889q0 35 -26 35q-25 0 -25 -37v-887h-252zM391 1745l103 -195h-175l-34 76l-33 -76h-174l102 195h211z" />
    <glyph glyph-name="Hbar" unicode="&#x126;" horiz-adv-x="622" 
d="M2 1133v174h23v217h260v-217h55v217h258v-217h25v-174h-25v-1133h-258v664h-55v-664h-260v1133h-23zM285 932h55v201h-55v-201z" />
    <glyph glyph-name="hbar" unicode="&#x127;" horiz-adv-x="589" 
d="M268 887v-887h-252v1208h-39v183h39v133h252v-133h117v-183h-117v-198q73 102 164 102h8q37 0 64.5 -14t41.5 -37t20.5 -46t6.5 -46v-969h-254v889q0 35 -26 35q-25 0 -25 -37z" />
    <glyph glyph-name="Itilde" unicode="&#x128;" horiz-adv-x="296" 
d="M279 1524v-1524h-261v1524h261zM147 1718q43 -16 50 -16q10 0 10 16v33h133v-90q0 -48 -22.5 -77.5t-65.5 -29.5h-4q-32 0 -101 27q-46 16 -49 16q-12 0 -12 -16v-31h-131v95q0 47 23 74.5t67 27.5h2q10 0 18.5 -1t20 -5t17 -6t22 -8.5t22.5 -8.5z" />
    <glyph glyph-name="itilde" unicode="&#x129;" horiz-adv-x="284" 
d="M188 1343h123v-114q0 -44 -20 -70t-60 -26h-4q-39 0 -82 30q-35 21 -39 21q-10 0 -10 -17v-39h-123v115q0 96 82 96h2q34 0 80 -28q38 -23 41 -23q10 0 10 17v38zM268 1102v-1102h-252v1102h252z" />
    <glyph glyph-name="Imacron" unicode="&#x12a;" horiz-adv-x="296" 
d="M279 1524v-1524h-261v1524h261zM-20 1561v157h337v-157h-337z" />
    <glyph glyph-name="imacron" unicode="&#x12b;" horiz-adv-x="284" 
d="M-6 1141v157h297v-157h-297zM268 1102v-1102h-252v1102h252z" />
    <glyph glyph-name="Ibreve" unicode="&#x12c;" horiz-adv-x="296" 
d="M279 1524v-1524h-261v1524h261zM338 1720q0 -76 -48.5 -125t-137.5 -49h-7q-90 0 -138 49t-48 125v19h158v-17q0 -39 30 -39h3q32 0 32 39v17h156v-19z" />
    <glyph glyph-name="ibreve" unicode="&#x12d;" horiz-adv-x="284" 
d="M307 1284q0 -69 -41 -113.5t-121 -44.5h-4q-85 0 -124.5 43.5t-39.5 114.5v49h140v-30q0 -22 5.5 -31.5t20.5 -9.5q27 0 27 41v30h137v-49zM268 1102v-1102h-252v1102h252z" />
    <glyph glyph-name="Iogonek" unicode="&#x12e;" horiz-adv-x="296" 
d="M45 -225v12q0 103 129 213h-156v1524h261v-1524q-56 -74 -56 -152v-4q0 -47 41 -47h15v-139h-86q-63 0 -105.5 29.5t-42.5 87.5z" />
    <glyph glyph-name="iogonek" unicode="&#x12f;" horiz-adv-x="284" 
d="M35 -225v12q0 103 129 213h-148v1102h252v-1102q-55 -73 -55 -152v-4q0 -47 41 -47h14v-139h-86q-63 0 -105 29.5t-42 87.5zM268 1368v-238h-252v238h252z" />
    <glyph glyph-name="Idotaccent" unicode="&#x130;" horiz-adv-x="296" 
d="M279 1524v-1524h-261v1524h261zM274 1774v-222h-251v222h251z" />
    <glyph glyph-name="dotlessi" unicode="&#x131;" horiz-adv-x="284" 
d="M268 1102v-1102h-252v1102h252z" />
    <glyph glyph-name="IJ" unicode="&#x132;" horiz-adv-x="874" 
d="M279 1524v-1524h-261v1524h261zM311 657h236v-424q0 -26 22 -26h2q21 0 21 26v1291h264v-1305q0 -106 -62 -169.5t-188 -63.5h-69q-117 0 -171.5 61.5t-54.5 163.5v446z" />
    <glyph glyph-name="ij" unicode="&#x133;" horiz-adv-x="569" 
d="M268 1368v-238h-252v238h252zM268 1102v-1102h-252v1102h252zM553 1368v-238h-252v238h252zM229 -125h50q22 0 22 25v1202h252v-1325q0 -57 -32.5 -88t-78.5 -31h-213v217z" />
    <glyph glyph-name="Jcircumflex" unicode="&#x134;" horiz-adv-x="577" 
d="M528 1747l103 -195h-174l-35 76l-33 -76h-174l102 195h211zM14 657h236v-424q0 -26 22 -26h2q21 0 21 26v1291h264v-1305q0 -106 -62 -169.5t-188 -63.5h-69q-118 0 -172 61.5t-54 163.5v446z" />
    <glyph glyph-name="jcircumflex" unicode="&#x135;" horiz-adv-x="284" 
d="M244 1368l65 -238h-145l-27 117l-24 -117h-144l68 238h207zM-55 -125h49q22 0 22 25v1202h252v-1325q0 -57 -32 -88t-78 -31h-213v217z" />
    <glyph glyph-name="uni0136" unicode="&#x136;" horiz-adv-x="618" 
d="M383 -332h-109q22 61 25 117h-82v186h201v-135q0 -78 -35 -168zM354 0l-80 600l2 -600h-258v1524h258l-2 -549l86 549h258l-124 -690l131 -834h-271z" />
    <glyph glyph-name="uni0137" unicode="&#x137;" horiz-adv-x="575" 
d="M367 -332h-109q22 61 25 117h-82v186h200v-135q0 -80 -34 -168zM268 0h-252v1524h252v-781l62 359h237l-92 -465l105 -637h-246l-68 455z" />
    <glyph glyph-name="Lacute" unicode="&#x139;" horiz-adv-x="454" 
d="M47 1552l76 195h209l-82 -195h-203zM18 1524h258l3 -1282h163l-2 -242h-422v1524z" />
    <glyph glyph-name="lacute" unicode="&#x13a;" horiz-adv-x="284" 
d="M41 1550l76 195h209l-82 -195h-203zM268 1524v-1524h-252v1524h252z" />
    <glyph glyph-name="uni013B" unicode="&#x13b;" horiz-adv-x="454" 
d="M299 -332h-109q22 61 25 117h-82v186h201v-135q0 -78 -35 -168zM18 1524h258l3 -1282h163l-2 -242h-422v1524z" />
    <glyph glyph-name="uni013C" unicode="&#x13c;" horiz-adv-x="284" 
d="M209 -332h-109q22 61 25 117h-82v186h201v-135q0 -78 -35 -168zM268 1524v-1524h-252v1524h252z" />
    <glyph glyph-name="Lcaron" unicode="&#x13d;" horiz-adv-x="454" 
d="M297 1278l8 246h168l-16 -246h-160zM18 1524h258l3 -1282h163l-2 -242h-422v1524z" />
    <glyph glyph-name="lcaron" unicode="&#x13e;" horiz-adv-x="284" 
d="M289 1278l8 246h168l-16 -246h-160zM268 1524v-1524h-252v1524h252z" />
    <glyph glyph-name="Ldot" unicode="&#x13f;" horiz-adv-x="530" 
d="M522 913v-262h-219v262h219zM18 1524h258l3 -1282h163l-2 -242h-422v1524z" />
    <glyph glyph-name="ldot" unicode="&#x140;" horiz-adv-x="520" 
d="M512 928v-262h-219v262h219zM268 1524v-1524h-252v1524h252z" />
    <glyph glyph-name="Lslash" unicode="&#x141;" horiz-adv-x="475" 
d="M39 1524h258v-574l102 92v-215l-102 -90l2 -495h164l-2 -242h-422v508l-35 -31v207l35 31v809z" />
    <glyph glyph-name="lslash" unicode="&#x142;" horiz-adv-x="335" 
d="M295 1524v-445l37 31v-199l-37 -30v-881h-252v670l-39 -33v197l39 32v658h252z" />
    <glyph glyph-name="Nacute" unicode="&#x143;" horiz-adv-x="612" 
d="M209 1552l76 195h209l-82 -195h-203zM18 1524h263l100 -826l-2 826h215v-1524h-240l-121 913l3 -913h-218v1524z" />
    <glyph glyph-name="nacute" unicode="&#x144;" horiz-adv-x="589" 
d="M199 1130l71 238h203l-78 -238h-196zM16 0v1102h248v-96q78 106 168 106h10q69 0 100 -45.5t31 -97.5v-969h-254v889q0 35 -26 35q-25 0 -25 -37v-887h-252z" />
    <glyph glyph-name="uni0145" unicode="&#x145;" horiz-adv-x="612" 
d="M377 -332h-109q22 61 25 117h-82v186h201v-135q0 -78 -35 -168zM18 1524h263l100 -826l-2 826h215v-1524h-240l-121 913l3 -913h-218v1524z" />
    <glyph glyph-name="uni0146" unicode="&#x146;" horiz-adv-x="589" 
d="M362 -332h-108q22 61 25 117h-82v186h200v-135q0 -78 -35 -168zM16 0v1102h248v-96q78 106 168 106h10q69 0 100 -45.5t31 -97.5v-969h-254v889q0 35 -26 35q-25 0 -25 -37v-887h-252z" />
    <glyph glyph-name="Ncaron" unicode="&#x147;" horiz-adv-x="612" 
d="M205 1552l-103 195h174l33 -78l35 78h174l-102 -195h-211zM18 1524h263l100 -826l-2 826h215v-1524h-240l-121 913l3 -913h-218v1524z" />
    <glyph glyph-name="ncaron" unicode="&#x148;" horiz-adv-x="589" 
d="M195 1130l-99 238h168l31 -111l33 111h168l-97 -238h-204zM16 0v1102h248v-96q78 106 168 106h10q69 0 100 -45.5t31 -97.5v-969h-254v889q0 35 -26 35q-25 0 -25 -37v-887h-252z" />
    <glyph glyph-name="napostrophe" unicode="&#x149;" horiz-adv-x="768" 
d="M156 1149h-117q35 97 35 151h-74v224h201v-174q0 -104 -45 -201zM195 0v1102h247v-96q78 106 168 106h11q69 0 100 -45.5t31 -97.5v-969h-254v889q0 35 -27 35q-25 0 -25 -37v-887h-251z" />
    <glyph glyph-name="Eng" unicode="&#x14a;" horiz-adv-x="608" 
d="M590 -195q0 -66 -36 -106.5t-95 -40.5h-176v203h55q27 0 27 28v111l-134 913v-913h-213v1524h261l100 -838l-2 838h213v-1719z" />
    <glyph glyph-name="eng" unicode="&#x14b;" horiz-adv-x="589" 
d="M319 -102v991q0 35 -26 35q-25 0 -25 -37v-887h-252v1102h248v-96q79 106 170 106h12q35 0 61 -14.5t39.5 -37.5t20 -46t6.5 -45v-1192q0 -57 -31 -88t-77 -31h-191v217h23q22 0 22 23z" />
    <glyph glyph-name="Omacron" unicode="&#x14c;" horiz-adv-x="626" 
d="M147 1569v157h338v-157h-338zM612 1237v-956q0 -141 -73 -218t-201 -77h-43q-133 0 -205 77.5t-72 217.5v956q0 144 68 222.5t209 78.5h41q140 0 208 -79.5t68 -221.5zM346 258v1008q0 45 -31 45q-17 0 -22.5 -10t-5.5 -35v-1008q0 -41 28 -41q31 0 31 41z" />
    <glyph glyph-name="omacron" unicode="&#x14d;" horiz-adv-x="591" 
d="M129 1149v160h338v-160h-338zM274 -16q-131 0 -194.5 66t-63.5 202v600q0 133 67 199.5t193 66.5h41q258 0 258 -266v-600q0 -133 -68.5 -200.5t-191.5 -67.5h-41zM270 211q0 -37 25 -37q27 0 27 37v684q0 39 -27 39q-25 0 -25 -39v-684z" />
    <glyph glyph-name="Obreve" unicode="&#x14e;" horiz-adv-x="626" 
d="M506 1729q0 -76 -49 -125.5t-138 -49.5h-6q-90 0 -138 49.5t-48 125.5v18h158v-16q0 -39 30 -39h2q33 0 33 39v16h156v-18zM612 1237v-956q0 -141 -73 -218t-201 -77h-43q-133 0 -205 77.5t-72 217.5v956q0 144 68 222.5t209 78.5h41q140 0 208 -79.5t68 -221.5zM346 258
v1008q0 45 -31 45q-17 0 -22.5 -10t-5.5 -35v-1008q0 -41 28 -41q31 0 31 41z" />
    <glyph glyph-name="obreve" unicode="&#x14f;" horiz-adv-x="591" 
d="M274 -16q-131 0 -194.5 66t-63.5 202v600q0 133 67 199.5t193 66.5h41q258 0 258 -266v-600q0 -133 -68.5 -200.5t-191.5 -67.5h-41zM270 211q0 -37 25 -37q27 0 27 37v684q0 39 -27 39q-25 0 -25 -39v-684zM485 1315q0 -84 -49 -132t-137 -48h-4q-95 0 -142 47.5
t-47 132.5v24h158v-16q0 -51 31 -51h2q33 0 33 51v16h155v-24z" />
    <glyph glyph-name="Ohungarumlaut" unicode="&#x150;" horiz-adv-x="626" 
d="M137 1559l51 188h172l-53 -188h-170zM338 1559l53 188h174l-57 -188h-170zM612 1237v-956q0 -141 -73 -218t-201 -77h-43q-133 0 -205 77.5t-72 217.5v956q0 144 68 222.5t209 78.5h41q140 0 208 -79.5t68 -221.5zM346 258v1008q0 45 -31 45q-17 0 -22.5 -10t-5.5 -35
v-1008q0 -41 28 -41q31 0 31 41z" />
    <glyph glyph-name="ohungarumlaut" unicode="&#x151;" horiz-adv-x="591" 
d="M123 1139l49 229h168l-49 -229h-168zM319 1139l52 229h168l-52 -229h-168zM274 -16q-131 0 -194.5 66t-63.5 202v600q0 133 67 199.5t193 66.5h41q258 0 258 -266v-600q0 -133 -68.5 -200.5t-191.5 -67.5h-41zM270 211q0 -37 25 -37q27 0 27 37v684q0 39 -27 39
q-25 0 -25 -39v-684z" />
    <glyph glyph-name="OE" unicode="&#x152;" horiz-adv-x="782" 
d="M354 63q-16 -28 -51.5 -52.5t-83.5 -24.5h-8q-92 0 -142.5 72t-50.5 204v1004q0 118 48.5 194t144.5 76h8q88 0 135 -74v62h408v-234h-156v-370h127v-242h-127v-440h162v-238h-414v63zM342 1268q0 45 -27 45q-16 0 -22 -11t-6 -34v-1008q0 -25 5.5 -35t22.5 -10
q27 0 27 45v1008z" />
    <glyph glyph-name="oe" unicode="&#x153;" horiz-adv-x="872" 
d="M444 27q-65 -45 -145 -45h-29q-254 0 -254 268v600q0 137 66.5 202.5t187.5 65.5h33q94 0 148 -43q46 41 129 41h43q108 0 171.5 -56.5t63.5 -180.5v-344h-287v-345q0 -34 25 -34t25 34v289h237v-266q0 -107 -62.5 -168t-170.5 -61h-45q-74 0 -136 43zM571 922v-246h50
v254q-2 18 -7 24.5t-18 6.5q-14 0 -19.5 -9t-5.5 -30zM268 209q0 -37 27 -37q13 0 18.5 8.5t5.5 28.5v684q0 21 -4 31t-20 10q-27 0 -27 -41v-684z" />
    <glyph glyph-name="Racute" unicode="&#x154;" horiz-adv-x="606" 
d="M186 1552l76 195h209l-82 -195h-203zM279 670v-670h-261v1524h404q71 0 116.5 -46.5t45.5 -136.5v-358q0 -125 -92 -164q39 -16 67.5 -52t28.5 -89v-604q0 -47 12 -68v-6h-256q-16 19 -16 63v572q0 35 -29 35h-20zM279 1331v-444h20q29 0 29 35v374q0 20 -5 27.5t-22 7.5
h-22z" />
    <glyph glyph-name="racute" unicode="&#x155;" horiz-adv-x="538" 
d="M190 1130l72 238h203l-78 -238h-197zM268 901v-901h-252v1102h248v-96q67 102 144 102h14q50 0 77 -31.5t27 -77.5v-397h-221v299q0 25 -18 25q-19 0 -19 -25z" />
    <glyph glyph-name="uni0156" unicode="&#x156;" horiz-adv-x="606" 
d="M377 -332h-109q22 61 25 117h-82v186h201v-135q0 -78 -35 -168zM279 670v-670h-261v1524h404q71 0 116.5 -46.5t45.5 -136.5v-358q0 -125 -92 -164q39 -16 67.5 -52t28.5 -89v-604q0 -47 12 -68v-6h-256q-16 19 -16 63v572q0 35 -29 35h-20zM279 1331v-444h20q29 0 29 35
v374q0 20 -5 27.5t-22 7.5h-22z" />
    <glyph glyph-name="uni0157" unicode="&#x157;" horiz-adv-x="538" 
d="M207 -332h-109q22 61 25 117h-82v186h201v-135q0 -78 -35 -168zM268 901v-901h-252v1102h248v-96q67 102 144 102h14q50 0 77 -31.5t27 -77.5v-397h-221v299q0 25 -18 25q-19 0 -19 -25z" />
    <glyph glyph-name="Rcaron" unicode="&#x158;" horiz-adv-x="606" 
d="M180 1552l-102 195h174l33 -78l34 78h175l-103 -195h-211zM279 670v-670h-261v1524h404q71 0 116.5 -46.5t45.5 -136.5v-358q0 -125 -92 -164q39 -16 67.5 -52t28.5 -89v-604q0 -47 12 -68v-6h-256q-16 19 -16 63v572q0 35 -29 35h-20zM279 1331v-444h20q29 0 29 35v374
q0 20 -5 27.5t-22 7.5h-22z" />
    <glyph glyph-name="rcaron" unicode="&#x159;" horiz-adv-x="538" 
d="M184 1130l-98 238h168l31 -111l32 111h168l-96 -238h-205zM268 901v-901h-252v1102h248v-96q67 102 144 102h14q50 0 77 -31.5t27 -77.5v-397h-221v299q0 25 -18 25q-19 0 -19 -25z" />
    <glyph glyph-name="Sacute" unicode="&#x15a;" horiz-adv-x="610" 
d="M209 1559l74 188h209l-80 -188h-203zM596 256q0 -126 -66.5 -198t-201.5 -72h-60q-254 0 -254 235v400h254v-381q0 -41 27 -41q29 0 29 43v297q0 38 -8.5 58.5t-36.5 45.5l-134 115q-66 55 -95.5 120t-29.5 152v270q0 111 64 174.5t197 63.5h59q246 0 246 -217v-336h-250
v324q0 32 -27 32q-26 0 -26 -32v-260q0 -31 8 -47.5t33 -38.5l131 -115q79 -65 110 -127.5t31 -161.5v-303z" />
    <glyph glyph-name="sacute" unicode="&#x15b;" horiz-adv-x="530" 
d="M170 1139l68 229h202l-73 -229h-197zM518 193q0 -101 -61 -155t-168 -54h-62q-215 0 -215 186v266h224v-256q0 -26 22 -26q23 0 23 26v203q0 27 -7.5 41.5t-29.5 32.5l-109 73q-69 48 -93 99.5t-24 124.5v172q0 192 224 192h55q103 0 157 -39.5t54 -128.5v-223h-217v211
q0 29 -21 29q-22 0 -22 -29v-168q0 -25 6 -36t27 -29l112 -76q74 -53 99.5 -104t25.5 -130v-202z" />
    <glyph glyph-name="Scircumflex" unicode="&#x15c;" horiz-adv-x="610" 
d="M420 1747l98 -188h-176l-35 71l-33 -71h-174l97 188h223zM596 256q0 -126 -66.5 -198t-201.5 -72h-60q-254 0 -254 235v400h254v-381q0 -41 27 -41q29 0 29 43v297q0 38 -8.5 58.5t-36.5 45.5l-134 115q-66 55 -95.5 120t-29.5 152v270q0 111 64 174.5t197 63.5h59
q246 0 246 -217v-336h-250v324q0 32 -27 32q-26 0 -26 -32v-260q0 -31 8 -47.5t33 -38.5l131 -115q79 -65 110 -127.5t31 -161.5v-303z" />
    <glyph glyph-name="scircumflex" unicode="&#x15d;" horiz-adv-x="530" 
d="M373 1368l98 -229h-170l-31 102l-30 -102h-168l96 229h205zM518 193q0 -101 -61 -155t-168 -54h-62q-215 0 -215 186v266h224v-256q0 -26 22 -26q23 0 23 26v203q0 27 -7.5 41.5t-29.5 32.5l-109 73q-69 48 -93 99.5t-24 124.5v172q0 192 224 192h55q103 0 157 -39.5
t54 -128.5v-223h-217v211q0 29 -21 29q-22 0 -22 -29v-168q0 -25 6 -36t27 -29l112 -76q74 -53 99.5 -104t25.5 -130v-202z" />
    <glyph glyph-name="uni015E" unicode="&#x15e;" horiz-adv-x="604" 
d="M455 -164q0 -58 -38 -91.5t-108 -33.5h-121v109h86q29 0 29 20q0 19 -29 19h-67v131q-193 27 -193 231v400h254v-381q0 -41 27 -41q29 0 29 43v297q0 38 -8.5 58.5t-36.5 45.5l-134 115q-66 55 -95.5 120t-29.5 152v270q0 111 64 174.5t197 63.5h59q246 0 246 -217v-336
h-250v324q0 32 -27 32q-26 0 -26 -32v-260q0 -31 8 -47.5t33 -38.5l131 -115q79 -65 110 -127.5t31 -161.5v-303q0 -126 -66.5 -198t-201.5 -72h-15v-33h9q65 0 99 -30.5t34 -82.5v-4z" />
    <glyph glyph-name="uni015F" unicode="&#x15f;" horiz-adv-x="522" 
d="M412 -164q0 -58 -38 -91.5t-108 -33.5h-121v109h86q29 0 29 20q0 19 -29 19h-67v131q-152 23 -152 180v266h224v-256q0 -26 22 -26q23 0 23 26v203q0 27 -7.5 41.5t-29.5 32.5l-109 73q-69 48 -93 99.5t-24 124.5v172q0 192 224 192h55q103 0 157 -39.5t54 -128.5v-223
h-217v211q0 29 -21 29q-22 0 -22 -29v-168q0 -25 6 -36t27 -29l112 -76q74 -53 99.5 -104t25.5 -130v-202q0 -101 -61 -155t-168 -54h-19v-31h9q65 0 99 -30.5t34 -82.5v-4z" />
    <glyph glyph-name="Scaron" unicode="&#x160;" horiz-adv-x="610" 
d="M199 1559l-99 188h176l33 -78l35 78h178l-98 -188h-225zM596 256q0 -126 -66.5 -198t-201.5 -72h-60q-254 0 -254 235v400h254v-381q0 -41 27 -41q29 0 29 43v297q0 38 -8.5 58.5t-36.5 45.5l-134 115q-66 55 -95.5 120t-29.5 152v270q0 111 64 174.5t197 63.5h59
q246 0 246 -217v-336h-250v324q0 32 -27 32q-26 0 -26 -32v-260q0 -31 8 -47.5t33 -38.5l131 -115q79 -65 110 -127.5t31 -161.5v-303z" />
    <glyph glyph-name="scaron" unicode="&#x161;" horiz-adv-x="530" 
d="M162 1139l-94 229h168l30 -111l33 111h168l-94 -229h-211zM518 193q0 -101 -61 -155t-168 -54h-62q-215 0 -215 186v266h224v-256q0 -26 22 -26q23 0 23 26v203q0 27 -7.5 41.5t-29.5 32.5l-109 73q-69 48 -93 99.5t-24 124.5v172q0 192 224 192h55q103 0 157 -39.5
t54 -128.5v-223h-217v211q0 29 -21 29q-22 0 -22 -29v-168q0 -25 6 -36t27 -29l112 -76q74 -53 99.5 -104t25.5 -130v-202z" />
    <glyph glyph-name="Tcommaaccent" unicode="&#x162;" horiz-adv-x="518" 
d="M326 -332h-109q22 61 25 117h-82v186h200v-135q0 -80 -34 -168zM504 1290h-117v-1290h-256v1290h-117v234h490v-234z" />
    <glyph glyph-name="tcommaaccent" unicode="&#x163;" horiz-adv-x="421" 
d="M332 -332h-109q22 61 25 117h-82v186h201v-135q0 -78 -35 -168zM412 0h-238q-36 0 -62 25t-26 75v797h-78v205h78v352h252v-352h74v-205h-74v-664q0 -24 22 -24h52v-209z" />
    <glyph glyph-name="Tcaron" unicode="&#x164;" horiz-adv-x="518" 
d="M156 1552l-103 195h174l33 -78l35 78h174l-102 -195h-211zM504 1290h-117v-1290h-256v1290h-117v234h490v-234z" />
    <glyph glyph-name="tcaron" unicode="&#x165;" horiz-adv-x="421" 
d="M358 1278l9 246h168l-17 -246h-160zM412 0h-238q-36 0 -62 25t-26 75v797h-78v205h78v352h252v-352h74v-205h-74v-664q0 -24 22 -24h52v-209z" />
    <glyph glyph-name="Tbar" unicode="&#x166;" horiz-adv-x="518" 
d="M504 1290h-117v-340h80v-200h-80v-750h-256v750h-80v200h80v340h-117v234h490v-234z" />
    <glyph glyph-name="tbar" unicode="&#x167;" horiz-adv-x="421" 
d="M412 209v-209h-238q-36 0 -62 25t-26 75v478h-78v176h78v143h-78v205h78v352h252v-352h74v-205h-74v-143h74v-176h-74v-345q0 -24 22 -24h52z" />
    <glyph glyph-name="Utilde" unicode="&#x168;" horiz-adv-x="622" 
d="M317 1718q43 -16 50 -16q10 0 10 16v33h133v-90q0 -48 -22.5 -77.5t-65.5 -29.5h-4q-32 0 -101 27q-46 16 -49 16q-12 0 -12 -16v-31h-131v95q0 47 23 74.5t67 27.5h2q10 0 18.5 -1t20 -5t17 -6t22 -8.5t22.5 -8.5zM604 236q0 -107 -70.5 -179.5t-201.5 -72.5h-41
q-140 0 -206.5 70.5t-66.5 181.5v1288h267v-1258q0 -39 26 -39q29 0 29 39v1258h264v-1288z" />
    <glyph glyph-name="utilde" unicode="&#x169;" 
d="M571 1102v-1102h-247v96q-75 -104 -168 -104h-9q-66 0 -98.5 45.5t-32.5 97.5v967h254v-889q0 -33 27 -33q22 0 22 35v887h252zM352 1343h133v-108q0 -46 -23 -74t-69 -28h-4q-39 0 -94 30q-40 21 -43 21q-10 0 -10 -17v-39h-136v109q0 46 24.5 74t70.5 28h4q40 0 92 -28
q38 -23 45 -23q10 0 10 17v38z" />
    <glyph glyph-name="Umacron" unicode="&#x16a;" horiz-adv-x="622" 
d="M604 236q0 -107 -70.5 -179.5t-201.5 -72.5h-41q-140 0 -206.5 70.5t-66.5 181.5v1288h267v-1258q0 -39 26 -39q29 0 29 39v1258h264v-1288zM143 1561v157h338v-157h-338z" />
    <glyph glyph-name="umacron" unicode="&#x16b;" 
d="M571 1102v-1102h-247v96q-75 -104 -168 -104h-9q-66 0 -98.5 45.5t-32.5 97.5v967h254v-889q0 -33 27 -33q22 0 22 35v887h252zM127 1141v159h338v-159h-338z" />
    <glyph glyph-name="Ubreve" unicode="&#x16c;" horiz-adv-x="622" 
d="M604 236q0 -107 -70.5 -179.5t-201.5 -72.5h-41q-140 0 -206.5 70.5t-66.5 181.5v1288h267v-1258q0 -39 26 -39q29 0 29 39v1258h264v-1288zM502 1720q0 -75 -49 -124.5t-138 -49.5h-6q-90 0 -138 49t-48 125v19h158v-17q0 -39 30 -39h2q33 0 33 39v17h156v-19z" />
    <glyph glyph-name="ubreve" unicode="&#x16d;" 
d="M571 0v1102h-252v-887q0 -35 -22 -35q-27 0 -27 33v889h-254v-967q0 -52 32.5 -97.5t98.5 -45.5h9q93 0 168 104v-96h247zM483 1307q0 -84 -49 -132.5t-137 -48.5h-4q-94 0 -141.5 47.5t-47.5 133.5v24h158v-16q0 -51 31 -51h2q33 0 33 51v16h155v-24z" />
    <glyph glyph-name="Uring" unicode="&#x16e;" horiz-adv-x="622" 
d="M604 236q0 -107 -70.5 -179.5t-201.5 -72.5h-41q-140 0 -206.5 70.5t-66.5 181.5v1288h267v-1258q0 -39 26 -39q29 0 29 39v1258h264v-1288zM176 1675q0 56 38.5 91.5t96.5 35.5t95.5 -35.5t37.5 -91.5q0 -58 -37.5 -93.5t-95.5 -35.5t-96.5 35.5t-38.5 93.5zM311 1726
q-23 0 -38 -15t-15 -38t15 -38t38 -15q22 0 36.5 15t14.5 38t-14.5 38t-36.5 15z" />
    <glyph glyph-name="uring" unicode="&#x16f;" 
d="M428 1255q0 -57 -38 -93t-95 -36q-58 0 -96.5 36.5t-38.5 92.5t38.5 91.5t96.5 35.5t95.5 -35.5t37.5 -91.5zM242 1255q0 -24 14.5 -38.5t38.5 -14.5q22 0 36.5 14.5t14.5 38.5q0 23 -14.5 37.5t-36.5 14.5q-23 0 -38 -14.5t-15 -37.5zM571 1102v-1102h-247v96
q-75 -104 -168 -104h-9q-66 0 -98.5 45.5t-32.5 97.5v967h254v-889q0 -33 27 -33q22 0 22 35v887h252z" />
    <glyph glyph-name="Uhungarumlaut" unicode="&#x170;" horiz-adv-x="622" 
d="M129 1552l51 195h172l-53 -195h-170zM330 1552l53 195h174l-57 -195h-170zM604 236q0 -107 -70.5 -179.5t-201.5 -72.5h-41q-140 0 -206.5 70.5t-66.5 181.5v1288h267v-1258q0 -39 26 -39q29 0 29 39v1258h264v-1288z" />
    <glyph glyph-name="uhungarumlaut" unicode="&#x171;" 
d="M571 1102v-1102h-247v96q-75 -104 -168 -104h-9q-66 0 -98.5 45.5t-32.5 97.5v967h254v-889q0 -33 27 -33q22 0 22 35v887h252zM115 1130l51 238h168l-53 -238h-166zM311 1130l51 238h168l-53 -238h-166z" />
    <glyph glyph-name="Uogonek" unicode="&#x172;" horiz-adv-x="622" 
d="M494 -203v-139h-88q-63 0 -105.5 29.5t-42.5 87.5v12q0 100 119 201q-28 -4 -45 -4h-41q-140 0 -206.5 70.5t-66.5 181.5v1288h267v-1258q0 -39 26 -39q29 0 29 39v1258h264v-1288q0 -51 -18.5 -98.5t-34.5 -69.5t-57 -74q-58 -83 -58 -146v-4q0 -47 43 -47h15z" />
    <glyph glyph-name="uogonek" unicode="&#x173;" horiz-adv-x="589" 
d="M571 1102v-1102q-55 -73 -55 -152v-4q0 -47 41 -47h14v-139h-86q-63 0 -105 29.5t-42 87.5v12q0 103 129 213h-143v96q-75 -104 -168 -104h-9q-66 0 -98.5 45.5t-32.5 97.5v967h254v-889q0 -33 27 -33q22 0 22 35v887h252z" />
    <glyph glyph-name="Wcircumflex" unicode="&#x174;" horiz-adv-x="905" 
d="M559 1747l103 -195h-175l-34 76l-33 -76h-174l102 195h211zM487 0l-32 868l-35 -868h-299l-125 1524h268l31 -996l43 996h242l45 -1002l30 1002h250l-125 -1524h-293z" />
    <glyph glyph-name="wcircumflex" unicode="&#x175;" horiz-adv-x="837" 
d="M522 1368l99 -238h-170l-33 111l-31 -111h-168l96 238h207zM451 0l-31 631l-29 -631h-278l-117 1102h252l26 -719l33 719h228l36 -744l25 744h246l-117 -1102h-274z" />
    <glyph glyph-name="Ycircumflex" unicode="&#x176;" horiz-adv-x="563" 
d="M420 600v-600h-258v600l-168 924h258l45 -527l45 527h231zM401 1747l103 -195h-174l-35 76l-33 -76h-174l102 195h211z" />
    <glyph glyph-name="ycircumflex" unicode="&#x177;" horiz-adv-x="550" 
d="M383 -236q-20 -106 -117 -106h-211v205h78q21 0 21 22q0 2 1 20.5t1 26.5q0 24 -9 86l-151 1084h250l37 -649l26 649h246zM379 1368l98 -238h-170l-33 111l-30 -111h-168l96 238h207z" />
    <glyph glyph-name="Ydieresis" unicode="&#x178;" horiz-adv-x="563" 
d="M420 600v-600h-258v600l-168 924h258l45 -527l45 527h231zM496 1743v-191h-185v191h185zM281 1743v-191h-183v191h183z" />
    <glyph glyph-name="Zacute" unicode="&#x179;" horiz-adv-x="516" 
d="M158 1552l75 195h209l-82 -195h-202zM20 1524h478v-213l-207 -1078h217v-233h-496v213l203 1079h-195v232z" />
    <glyph glyph-name="zacute" unicode="&#x17a;" horiz-adv-x="456" 
d="M129 1130l72 238h202l-77 -238h-197zM16 1102h424v-180l-159 -713h165v-209h-436v180l166 725h-160v197z" />
    <glyph glyph-name="Zdotaccent" unicode="&#x17b;" horiz-adv-x="516" 
d="M20 1524h478v-213l-207 -1078h217v-233h-496v213l203 1079h-195v232zM387 1774v-222h-252v222h252z" />
    <glyph glyph-name="zdotaccent" unicode="&#x17c;" horiz-adv-x="456" 
d="M16 1102h424v-180l-159 -713h165v-209h-436v180l166 725h-160v197zM358 1368v-238h-252v238h252z" />
    <glyph glyph-name="Zcaron" unicode="&#x17d;" horiz-adv-x="516" 
d="M158 1552l-103 195h174l33 -78l35 78h174l-102 -195h-211zM20 1524h478v-213l-207 -1078h217v-233h-496v213l203 1079h-195v232z" />
    <glyph glyph-name="zcaron" unicode="&#x17e;" horiz-adv-x="456" 
d="M129 1130l-98 238h168l30 -111l33 111h168l-96 -238h-205zM16 1102h424v-180l-159 -713h165v-209h-436v180l166 725h-160v197z" />
    <glyph glyph-name="uni0192" unicode="&#x192;" horiz-adv-x="423" 
d="M414 754h-88l-35 -1096h-248l31 1096h-66v198h72l12 428q6 144 154 144h168v-199h-47q-14 0 -19.5 -5t-5.5 -22l-10 -346h82v-198z" />
    <glyph glyph-name="Aringacute" unicode="&#x1fa;" horiz-adv-x="583" 
d="M336 0l-14 274h-89l-14 -274h-223l127 1524h328l137 -1524h-252zM248 498h61l-30 579zM188 1819l76 194h209l-82 -194h-203zM152 1675q0 56 38.5 91.5t96.5 35.5t95.5 -35.5t37.5 -91.5q0 -58 -37.5 -93.5t-95.5 -35.5t-96.5 35.5t-38.5 93.5zM287 1726q-23 0 -38.5 -15
t-15.5 -38t15.5 -38t38.5 -15q22 0 36.5 15t14.5 38t-14.5 38t-36.5 15z" />
    <glyph glyph-name="aringacute" unicode="&#x1fb;" horiz-adv-x="573" 
d="M12 139v342q0 63 25 101.5t78 64.5q25 12 89 38t72 30q9 5 11.5 7t5 7t2.5 14v187q0 26 -23 26h-2q-22 0 -22 -26v-209h-228v211q0 96 63.5 141t174.5 45h27q125 0 189.5 -42.5t64.5 -141.5v-721q0 -12 12 -12h18v-201h-211q-29 0 -45 23.5t-16 66.5q-23 -40 -62 -70
t-92 -30h-4q-60 0 -93.5 44t-33.5 105zM295 190v371q-28 -16 -35.5 -31t-7.5 -43v-297q0 -28 22 -28q21 0 21 28zM176 1407l72 238h203l-78 -238h-197zM406 1264q0 -57 -38 -93t-96 -36t-96.5 36.5t-38.5 92.5t38.5 91.5t96.5 35.5t96 -35.5t38 -91.5zM219 1264
q0 -24 14.5 -39t38.5 -15q22 0 37 15t15 39q0 23 -15 37t-37 14q-23 0 -38 -14t-15 -37z" />
    <glyph glyph-name="AEacute" unicode="&#x1fc;" horiz-adv-x="770" 
d="M350 1552l76 195h209l-82 -195h-203zM340 0v242h-80l-20 -242h-248l180 1524h580v-234h-158v-370h129v-242h-129v-440h164v-238h-418zM281 465h59v684z" />
    <glyph glyph-name="aeacute" unicode="&#x1fd;" horiz-adv-x="841" 
d="M330 1130l71 238h203l-78 -238h-196zM827 213q0 -107 -63.5 -168t-173.5 -61h-49q-167 0 -217 110q-75 -104 -174 -104h-5q-64 0 -98.5 43.5t-34.5 105.5v318q0 62 25 100.5t78 65.5q26 14 92.5 40t68.5 27q12 7 15.5 11.5t3.5 17.5v211q0 26 -23 26h-2q-22 0 -22 -26
v-234h-228v236q0 95 62.5 140.5t171.5 45.5h20q105 0 154 -43q43 43 135 43h23q111 0 176 -57t65 -182v-340h-284v-349q0 -18 5 -25t17 -7q25 0 25 32v293h237v-270zM543 924v-242h47v242q0 23 -4.5 31t-20.5 8q-13 0 -17.5 -9t-4.5 -30zM295 190v349q-26 -15 -34.5 -29.5
t-8.5 -44.5v-275q0 -28 22 -28q21 0 21 28z" />
    <glyph glyph-name="Oslashacute" unicode="&#x1fe;" horiz-adv-x="626" 
d="M211 1559l74 188h209l-80 -188h-203zM608 276q0 -137 -74.5 -213.5t-201.5 -76.5h-33q-94 0 -152 45l-18 -41h-117l49 121q-43 74 -43 170v960q0 138 69.5 217.5t207.5 79.5h33q88 0 147 -39l14 35h119l-47 -109q47 -73 47 -182v-967zM281 1096l-7 -336l74 373v133
q0 47 -35 47q-18 0 -25 -10.5t-7 -36.5v-170zM281 260q0 -45 32 -45q35 0 35 45v170l4 361l-71 -363v-168z" />
    <glyph glyph-name="oslashacute" unicode="&#x1ff;" horiz-adv-x="579" 
d="M563 254q0 -135 -69.5 -202.5t-200.5 -67.5h-6q-93 0 -148 36l-16 -28h-107l47 86q-47 65 -47 176v594q0 270 267 270h12q85 0 141 -37l17 29h110l-53 -84q53 -69 53 -178v-594zM186 1139l70 229h203l-76 -229h-197zM262 213q0 -41 27 -41q16 0 22 9.5t6 31.5v102l7 244
l-62 -229v-117zM262 778l-6 -225l61 231v109q0 13 -1 20.5t-7.5 15t-19.5 7.5q-27 0 -27 -43v-115z" />
    <glyph glyph-name="uni0218" unicode="&#x218;" horiz-adv-x="610" 
d="M375 -340h-109q22 61 25 117h-82v186h201v-135q0 -78 -35 -168zM596 256q0 -126 -66.5 -198t-201.5 -72h-60q-254 0 -254 235v400h254v-381q0 -41 27 -41q29 0 29 43v297q0 38 -8.5 58.5t-36.5 45.5l-134 115q-66 55 -95.5 120t-29.5 152v270q0 111 64 174.5t197 63.5h59
q246 0 246 -217v-336h-250v324q0 32 -27 32q-26 0 -26 -32v-260q0 -31 8 -47.5t33 -38.5l131 -115q79 -65 110 -127.5t31 -161.5v-303z" />
    <glyph glyph-name="uni0219" unicode="&#x219;" horiz-adv-x="530" 
d="M328 -340h-109q22 61 25 117h-82v186h200v-135q0 -80 -34 -168zM518 193q0 -101 -61 -155t-168 -54h-62q-215 0 -215 186v266h224v-256q0 -26 22 -26q23 0 23 26v203q0 27 -7.5 41.5t-29.5 32.5l-109 73q-69 48 -93 99.5t-24 124.5v172q0 192 224 192h55q103 0 157 -39.5
t54 -128.5v-223h-217v211q0 29 -21 29q-22 0 -22 -29v-168q0 -25 6 -36t27 -29l112 -76q74 -53 99.5 -104t25.5 -130v-202z" />
    <glyph glyph-name="uni021A" unicode="&#x21a;" horiz-adv-x="518" 
d="M326 -332h-109q22 61 25 117h-82v186h200v-135q0 -80 -34 -168zM504 1290h-117v-1290h-256v1290h-117v234h490v-234z" />
    <glyph glyph-name="uni021B" unicode="&#x21b;" horiz-adv-x="421" 
d="M332 -332h-109q22 61 25 117h-82v186h201v-135q0 -78 -35 -168zM412 0h-238q-36 0 -62 25t-26 75v797h-78v205h78v352h252v-352h74v-205h-74v-664q0 -24 22 -24h52v-209z" />
    <glyph glyph-name="uni0237" unicode="&#x237;" horiz-adv-x="284" 
d="M-55 -125h49q22 0 22 25v1202h252v-1325q0 -57 -32 -88t-78 -31h-213v217z" />
    <glyph glyph-name="uni02BC" unicode="&#x2bc;" horiz-adv-x="231" 
d="M172 1149h-117q35 97 35 151h-74v224h201v-174q0 -104 -45 -201z" />
    <glyph glyph-name="circumflex" unicode="&#x2c6;" horiz-adv-x="444" 
d="M326 1368l98 -238h-170l-33 111l-31 -111h-167l96 238h207z" />
    <glyph glyph-name="caron" unicode="&#x2c7;" horiz-adv-x="444" 
d="M121 1130l-98 238h167l31 -111l33 111h168l-96 -238h-205z" />
    <glyph glyph-name="breve" unicode="&#x2d8;" horiz-adv-x="444" 
d="M412 1307q0 -84 -49.5 -132.5t-137.5 -48.5h-4q-94 0 -141 47.5t-47 133.5v24h157v-16q0 -51 31 -51h2q33 0 33 51v16h156v-24z" />
    <glyph glyph-name="dotaccent" unicode="&#x2d9;" horiz-adv-x="444" 
d="M348 1368v-238h-252v238h252z" />
    <glyph glyph-name="ring" unicode="&#x2da;" horiz-adv-x="444" 
d="M356 1255q0 -57 -38 -93t-95 -36q-58 0 -96.5 36.5t-38.5 92.5t38.5 91.5t96.5 35.5t95.5 -35.5t37.5 -91.5zM170 1255q0 -24 14.5 -38.5t38.5 -14.5q22 0 36.5 14.5t14.5 38.5q0 23 -14.5 37.5t-36.5 14.5q-23 0 -38 -14.5t-15 -37.5z" />
    <glyph glyph-name="ogonek" unicode="&#x2db;" horiz-adv-x="444" 
d="M106 -225v12q0 102 130 213h104q-55 -73 -55 -152v-4q0 -47 41 -47h14v-139h-86q-63 0 -105.5 29.5t-42.5 87.5z" />
    <glyph glyph-name="tilde" unicode="&#x2dc;" horiz-adv-x="444" 
d="M279 1343h133v-108q0 -46 -23.5 -74t-69.5 -28h-4q-39 0 -94 30q-40 21 -43 21q-10 0 -10 -17v-39h-135v109q0 46 24 74t70 28h4q40 0 92 -28q38 -23 45 -23q11 0 11 17v38z" />
    <glyph glyph-name="hungarumlaut" unicode="&#x2dd;" horiz-adv-x="444" 
d="M16 1130l52 238h168l-54 -238h-166zM213 1130l51 238h168l-53 -238h-166z" />
    <glyph glyph-name="uni0401" unicode="&#x401;" horiz-adv-x="475" 
d="M440 1743v-191h-184v191h184zM225 1743v-191h-182v191h182zM18 1524h439v-234h-185v-370h156v-242h-156v-440h191v-238h-445v1524z" />
    <glyph glyph-name="uni0402" unicode="&#x402;" horiz-adv-x="675" 
d="M487 1288h-137v-389q30 10 86 10h15q104 0 158.5 -50t54.5 -165v-790q0 -66 -36 -114t-112 -48h-160v229h25q25 0 25 29v637q0 39 -29 39h-6q-17 0 -21 -4v-672h-258v1288h-84v236h479v-236z" />
    <glyph glyph-name="uni0403" unicode="&#x403;" horiz-adv-x="464" 
d="M18 0v1524h437v-236h-181v-1288h-256zM131 1552l76 195h209l-82 -195h-203z" />
    <glyph glyph-name="uni0404" unicode="&#x404;" horiz-adv-x="604" 
d="M590 244q0 -110 -64.5 -184t-193.5 -74h-43q-273 0 -273 284v990q0 129 66 203.5t207 74.5h43q131 0 194.5 -65.5t63.5 -182.5v-319h-254v311q0 39 -27 39q-26 0 -26 -39v-360h147v-232h-147v-438q0 -43 26 -43q27 0 27 43v389h254v-397z" />
    <glyph glyph-name="uni0405" unicode="&#x405;" horiz-adv-x="604" 
d="M596 256q0 -126 -66.5 -198t-201.5 -72h-60q-254 0 -254 235v400h254v-381q0 -41 27 -41q29 0 29 43v297q0 38 -8.5 58.5t-36.5 45.5l-134 115q-66 55 -95.5 120t-29.5 152v270q0 111 64 174.5t197 63.5h59q246 0 246 -217v-336h-250v324q0 32 -27 32q-26 0 -26 -32v-260
q0 -31 8 -47.5t33 -38.5l131 -115q79 -65 110 -127.5t31 -161.5v-303z" />
    <glyph glyph-name="uni0406" unicode="&#x406;" horiz-adv-x="296" 
d="M279 1524v-1524h-261v1524h261z" />
    <glyph glyph-name="uni0407" unicode="&#x407;" horiz-adv-x="294" 
d="M279 1524v-1524h-261v1524h261zM346 1743v-191h-184v191h184zM131 1743v-191h-182v191h182z" />
    <glyph glyph-name="uni0408" unicode="&#x408;" horiz-adv-x="577" 
d="M14 657h236v-424q0 -26 22 -26h2q21 0 21 26v1291h264v-1305q0 -106 -62 -169.5t-188 -63.5h-69q-118 0 -172 61.5t-54 163.5v446z" />
    <glyph glyph-name="uni0409" unicode="&#x409;" horiz-adv-x="925" 
d="M45 0h-41v240h8q19 0 27.5 9.5t11.5 29.5q9 44 10.5 227.5t1.5 1017.5h545v-561h123q79 0 130.5 -53t51.5 -150v-559q0 -102 -50 -151.5t-134 -49.5h-379v1288h-53q0 -698 -7 -891.5t-32 -251.5q-22 -87 -69.5 -116t-143.5 -29zM608 203h19q19 0 24.5 9.5t5.5 29.5v465
q0 23 -6.5 32t-23.5 9h-19v-545z" />
    <glyph glyph-name="uni040A" unicode="&#x40a;" horiz-adv-x="907" 
d="M332 0v700h-53v-700h-263v1524h263v-568h53v568h260v-568h123q79 0 129.5 -52t50.5 -148v-555q0 -102 -50 -151.5t-134 -49.5h-379zM592 203h18q31 0 31 39v458q0 23 -7 32t-24 9h-18v-538z" />
    <glyph glyph-name="uni040B" unicode="&#x40b;" horiz-adv-x="675" 
d="M487 1288h-137v-389q30 10 86 10h15q104 0 158.5 -50t54.5 -165v-694h-258v637q0 39 -29 39h-6q-17 0 -21 -4v-672h-258v1288h-84v236h479v-236z" />
    <glyph glyph-name="uni040C" unicode="&#x40c;" horiz-adv-x="618" 
d="M354 0l-80 600l2 -600h-258v1524h258l-2 -549l86 549h258l-124 -690l131 -834h-271zM213 1552l76 195h209l-82 -195h-203z" />
    <glyph glyph-name="uni040E" unicode="&#x40e;" horiz-adv-x="577" 
d="M416 215q-17 -130 -57.5 -172.5t-143.5 -42.5h-149v223h36q33 0 43.5 7t10.5 28v4q0 4 -1 12t-4 34.5t-6 60.5l-149 1155h266l37 -779l33 779h250zM489 1720q0 -76 -48.5 -125t-137.5 -49h-6q-90 0 -138 49t-48 125v19h157v-17q0 -39 31 -39h2q33 0 33 39v17h155v-19z
" />
    <glyph glyph-name="uni040F" unicode="&#x40f;" horiz-adv-x="608" 
d="M418 -178h-225v178h-175v1524h258v-1288h56v1288h260v-1524h-174v-178z" />
    <glyph glyph-name="uni0410" unicode="&#x410;" horiz-adv-x="577" 
d="M336 0l-14 274h-89l-14 -274h-223l127 1524h328l137 -1524h-252zM248 498h61l-30 579z" />
    <glyph glyph-name="uni0411" unicode="&#x411;" horiz-adv-x="591" 
d="M16 0v1524h525v-236h-265v-332h123q79 0 130 -52.5t51 -149.5v-553q0 -102 -50.5 -151.5t-134.5 -49.5h-379zM276 197h19q31 0 31 39v473q0 22 -7 31.5t-24 9.5h-19v-553z" />
    <glyph glyph-name="uni0412" unicode="&#x412;" horiz-adv-x="614" 
d="M18 0v1524h394q172 0 172 -193v-344q0 -68 -33.5 -109t-67.5 -51q45 -13 83 -55t38 -123v-418q0 -114 -49.5 -172.5t-144.5 -58.5h-392zM297 1331h-18v-434h18q31 0 31 39v358q0 21 -6 29t-25 8zM303 709h-24v-510h24q19 0 25 8.5t6 30.5v430q0 23 -6.5 32t-24.5 9z" />
    <glyph glyph-name="uni0413" unicode="&#x413;" horiz-adv-x="464" 
d="M18 0v1524h437v-236h-181v-1288h-256z" />
    <glyph glyph-name="uni0414" unicode="&#x414;" horiz-adv-x="684" 
d="M451 -178v178h-228v-178h-225v416h37q17 66 26 256q10 266 13 1030h549v-1286h53v-416h-225zM293 481q-9 -154 -27 -250h103v1057h-64q-3 -600 -12 -807z" />
    <glyph glyph-name="uni0415" unicode="&#x415;" horiz-adv-x="475" 
d="M18 1524h439v-234h-185v-370h156v-242h-156v-440h191v-238h-445v1524z" />
    <glyph glyph-name="uni0416" unicode="&#x416;" horiz-adv-x="923" 
d="M336 0l4 649l-74 -649h-266l113 805l-109 719h258l78 -606l-4 606h252l-2 -592l76 592h256l-107 -705l117 -819h-271l-71 649l2 -649h-252z" />
    <glyph glyph-name="uni0417" unicode="&#x417;" horiz-adv-x="593" 
d="M264 1292v-338h-250v355q0 114 70 170.5t186 56.5h43q116 0 185 -55t69 -172v-320q0 -60 -27 -96.5t-61 -52.5q42 -15 72.5 -54.5t30.5 -109.5v-424q0 -139 -71.5 -202.5t-195.5 -63.5h-43q-123 0 -191.5 63t-68.5 180v422h252v-407q0 -33 27 -33q24 0 24 33v403
q0 27 -6.5 34t-27.5 7h-84v232h82q19 0 25.5 7t6.5 31v334q0 20 -5 26.5t-17 6.5q-14 0 -19.5 -6.5t-5.5 -26.5z" />
    <glyph glyph-name="uni0418" unicode="&#x418;" horiz-adv-x="614" 
d="M365 0l4 918l-95 -918h-256v1524h232l-4 -903l92 903h258v-1524h-231z" />
    <glyph glyph-name="uni0419" unicode="&#x419;" horiz-adv-x="614" 
d="M365 0l4 918l-95 -918h-256v1524h232l-4 -903l92 903h258v-1524h-231zM500 1720q0 -75 -49 -124.5t-138 -49.5h-6q-90 0 -138 49t-48 125v19h158v-17q0 -39 30 -39h2q33 0 33 39v17h156v-19z" />
    <glyph glyph-name="uni041A" unicode="&#x41a;" horiz-adv-x="618" 
d="M354 0l-80 600l2 -600h-258v1524h258l-2 -549l86 549h258l-124 -690l131 -834h-271z" />
    <glyph glyph-name="uni041B" unicode="&#x41b;" horiz-adv-x="626" 
d="M350 0v1288h-53q0 -733 -4.5 -899t-28.5 -233q-21 -93 -71 -124.5t-148 -31.5h-41v240h8q18 0 27 9t12 30q9 46 10.5 228.5t1.5 1016.5h545v-1524h-258z" />
    <glyph glyph-name="uni041C" unicode="&#x41c;" horiz-adv-x="714" 
d="M18 0v1524h297l45 -740l46 740h288v-1524h-217v852l-76 -852h-92l-78 852v-852h-213z" />
    <glyph glyph-name="uni041D" unicode="&#x41d;" horiz-adv-x="610" 
d="M334 0v664h-55v-664h-261v1524h261v-592h55v592h258v-1524h-258z" />
    <glyph glyph-name="uni041E" unicode="&#x41e;" horiz-adv-x="626" 
d="M612 1237v-956q0 -141 -73 -218t-201 -77h-43q-133 0 -205 77.5t-72 217.5v956q0 144 68 222.5t209 78.5h41q140 0 208 -79.5t68 -221.5zM346 258v1008q0 45 -31 45q-17 0 -22.5 -10t-5.5 -35v-1008q0 -41 28 -41q31 0 31 41z" />
    <glyph glyph-name="uni041F" unicode="&#x41f;" horiz-adv-x="608" 
d="M18 0v1524h574v-1524h-260v1288h-56v-1288h-258z" />
    <glyph glyph-name="uni0420" unicode="&#x420;" horiz-adv-x="593" 
d="M399 631h-123v-631h-258v1524h377q86 0 136.5 -49t50.5 -150v-491q0 -97 -52 -150t-131 -53zM276 1327v-489h19q17 0 24 8.5t7 30.5v411q0 21 -6 30t-25 9h-19z" />
    <glyph glyph-name="uni0421" unicode="&#x421;" horiz-adv-x="604" 
d="M311 209q27 0 27 43v444h254v-450q0 -112 -64.5 -186t-193.5 -74h-41q-275 0 -275 284v992q2 128 67 202t206 74h43q131 0 194.5 -65.5t63.5 -182.5v-403h-254v395q0 21 -5.5 30t-21.5 9q-26 0 -26 -39v-1030q0 -43 26 -43z" />
    <glyph glyph-name="uni0422" unicode="&#x422;" horiz-adv-x="514" 
d="M504 1290h-117v-1290h-256v1290h-117v234h490v-234z" />
    <glyph glyph-name="uni0423" unicode="&#x423;" horiz-adv-x="577" 
d="M416 215q-17 -130 -57.5 -172.5t-143.5 -42.5h-149v223h36q33 0 43.5 7t10.5 28v4q0 4 -1 12t-4 34.5t-6 60.5l-149 1155h266l37 -779l33 779h250z" />
    <glyph glyph-name="uni0424" unicode="&#x424;" horiz-adv-x="907" 
d="M324 1544h260v-139h125q79 0 130.5 -47t51.5 -154v-844q0 -92 -49.5 -146t-132.5 -54h-125v-180h-260v180h-125q-84 0 -133.5 54t-49.5 146v844q0 107 52 154t131 47h125v139zM324 1194h-19q-18 0 -24.5 -9t-6.5 -30v-739q0 -23 7 -32t24 -9h19v819zM584 1194v-819h18
q17 0 24 9t7 32v739q0 21 -6.5 30t-24.5 9h-18z" />
    <glyph glyph-name="uni0425" unicode="&#x425;" horiz-adv-x="598" 
d="M295 602l-45 -602h-254l104 801l-98 723h264l37 -553l35 553h248l-94 -723l110 -801h-260z" />
    <glyph glyph-name="uni0426" unicode="&#x426;" horiz-adv-x="653" 
d="M420 -178v178h-402v1524h258v-1288h56v1288h260v-1286h53v-416h-225z" />
    <glyph glyph-name="uni0427" unicode="&#x427;" horiz-adv-x="600" 
d="M326 0v647q-24 -12 -97 -12h-4q-96 0 -154.5 51.5t-58.5 163.5v674h258v-617q0 -37 31 -37h2q6 0 14 1t9 1v652h258v-1524h-258z" />
    <glyph glyph-name="uni0428" unicode="&#x428;" horiz-adv-x="905" 
d="M18 0v1524h258v-1286h48v1286h258v-1286h47v1286h260v-1524h-871z" />
    <glyph glyph-name="uni0429" unicode="&#x429;" horiz-adv-x="950" 
d="M18 0v1524h258v-1286h48v1286h258v-1286h47v1286h260v-1286h53v-416h-225v178h-699z" />
    <glyph glyph-name="uni042A" unicode="&#x42a;" horiz-adv-x="679" 
d="M8 1288v236h354v-561h123q79 0 130 -53t51 -150v-559q0 -102 -50.5 -151.5t-134.5 -49.5h-379v1288h-94zM362 203h19q31 0 31 39v465q0 23 -7 32t-24 9h-19v-545z" />
    <glyph glyph-name="uni042B" unicode="&#x42b;" horiz-adv-x="888" 
d="M399 963q79 0 130 -53t51 -150v-559q0 -102 -50.5 -151.5t-134.5 -49.5h-379v1524h260v-561h123zM276 203h19q31 0 31 39v465q0 23 -7 32t-24 9h-19v-545zM872 1524v-1524h-260v1524h260z" />
    <glyph glyph-name="uni042C" unicode="&#x42c;" horiz-adv-x="593" 
d="M399 963q79 0 130 -53t51 -150v-559q0 -102 -50.5 -151.5t-134.5 -49.5h-379v1524h260v-561h123zM276 203h19q31 0 31 39v465q0 23 -7 32t-24 9h-19v-545z" />
    <glyph glyph-name="uni042D" unicode="&#x42d;" horiz-adv-x="604" 
d="M588 270q0 -284 -273 -284h-43q-129 0 -193.5 74t-64.5 184v397h254v-389q0 -43 27 -43t27 43v438h-154v232h154v360q0 39 -27 39t-27 -39v-311h-254v319q0 117 63.5 182.5t194.5 65.5h43q141 0 207 -74.5t66 -203.5v-990z" />
    <glyph glyph-name="uni042E" unicode="&#x42e;" horiz-adv-x="929" 
d="M913 281q0 -141 -72.5 -218t-199.5 -77h-39q-134 0 -206 77.5t-72 217.5v391h-45v-672h-261v1524h261v-600h45v313q0 144 68.5 222.5t209.5 78.5h39q138 0 205 -79.5t67 -221.5v-956zM649 258v1008q0 45 -28 45q-17 0 -23 -10.5t-6 -34.5v-1008q0 -41 29 -41q28 0 28 41z
" />
    <glyph glyph-name="uni042F" unicode="&#x42f;" horiz-adv-x="614" 
d="M334 653h-6l-64 -653h-260l82 727q-59 50 -59 166v440q0 98 49 144.5t123 46.5h393v-1524h-258v653zM334 866v461h-17q-20 0 -26 -7t-6 -28v-387q0 -23 7.5 -31t26.5 -8h15z" />
    <glyph glyph-name="uni0430" unicode="&#x430;" horiz-adv-x="569" 
d="M12 139v342q0 63 25 101.5t78 64.5q25 12 89 38t72 30q9 5 11.5 7t5 7t2.5 14v187q0 26 -23 26h-2q-22 0 -22 -26v-209h-228v211q0 96 63.5 141t174.5 45h27q125 0 189.5 -42.5t64.5 -141.5v-721q0 -12 12 -12h18v-201h-211q-29 0 -45 23.5t-16 66.5q-23 -40 -62 -70
t-92 -30h-4q-60 0 -93.5 44t-33.5 105zM295 190v371q-28 -16 -35.5 -31t-7.5 -43v-297q0 -28 22 -28q21 0 21 28z" />
    <glyph glyph-name="uni0431" unicode="&#x431;" horiz-adv-x="589" 
d="M573 242q0 -126 -68.5 -192t-191.5 -66h-34q-265 0 -265 258v934q0 147 62 213.5t180 85.5l53 10q25 6 32 12.5t7 26.5h221q0 -58 -4.5 -91t-20.5 -64t-48 -48t-86 -27l-48 -10q-66 -17 -87 -48.5t-21 -117.5v-104q30 53 73.5 77.5t86.5 24.5h10q149 0 149 -186v-688z
M293 174q29 0 29 43v670q0 45 -27 45t-27 -45v-670q0 -43 25 -43z" />
    <glyph glyph-name="uni0432" unicode="&#x432;" 
d="M354 0h-340v1102h342q209 0 209 -174v-185q0 -74 -20.5 -109t-61.5 -56q30 -14 47.5 -29.5t30 -49.5t12.5 -87v-195q0 -115 -50.5 -166t-168.5 -51zM268 651h21q28 0 28 35v211q0 35 -28 35h-21v-281zM268 170h21q18 0 25.5 9t7.5 30v242q0 24 -7.5 33.5t-25.5 9.5h-21
v-324z" />
    <glyph glyph-name="uni0433" unicode="&#x433;" horiz-adv-x="432" 
d="M14 0v1102h410v-205h-156v-897h-254z" />
    <glyph glyph-name="uni0434" unicode="&#x434;" horiz-adv-x="649" 
d="M229 -176h-225v381h37q15 153 18 258q4 121 4 639h529v-897h49v-381h-225v176h-187v-176zM279 442q-6 -150 -19 -237h80v694h-53q0 -231 -8 -457z" />
    <glyph glyph-name="uni0435" unicode="&#x435;" horiz-adv-x="559" 
d="M549 213q0 -107 -64.5 -168t-173.5 -61h-49q-246 0 -246 237v656q0 115 62.5 178t183.5 63h49q108 0 173 -57t65 -180v-346h-287v-345q0 -32 25 -32q24 0 24 32v289h238v-266zM262 924v-246h49v246q0 22 -4.5 30.5t-19.5 8.5q-14 0 -19.5 -9t-5.5 -30z" />
    <glyph glyph-name="uni0436" unicode="&#x436;" horiz-adv-x="860" 
d="M305 0l2 479l-69 -479h-242l104 600l-94 502h238l63 -422l-2 422h248v-414l63 414h234l-92 -490l106 -612h-243l-68 467v-467h-248z" />
    <glyph glyph-name="uni0437" unicode="&#x437;" horiz-adv-x="557" 
d="M541 203q0 -105 -65.5 -162t-180.5 -57h-49q-108 0 -171 56t-63 150v254h228v-249q0 -29 24 -29q25 0 25 29v251q0 39 -31 39h-104v185h104q27 0 27 35v208q0 31 -23 31q-22 0 -22 -29v-204h-228v200q0 95 54.5 151t171.5 56h55q123 0 181 -57t58 -152v-180
q0 -117 -81 -151q29 -14 46 -28.5t30.5 -48t13.5 -85.5v-213z" />
    <glyph glyph-name="uni0438" unicode="&#x438;" horiz-adv-x="595" 
d="M580 0h-238v586l-76 -586h-252v1102h240v-588l76 588h250v-1102z" />
    <glyph glyph-name="uni0439" unicode="&#x439;" horiz-adv-x="595" 
d="M580 0h-238v586l-76 -586h-252v1102h240v-588l76 588h250v-1102zM489 1307q0 -84 -49 -132.5t-137 -48.5h-4q-94 0 -141 47.5t-47 133.5v24h157v-16q0 -51 31 -51h2q33 0 33 51v16h155v-24z" />
    <glyph glyph-name="uni043A" unicode="&#x43a;" horiz-adv-x="573" 
d="M334 0l-68 442l2 -442h-254v1102h254v-103l-2 -268l62 371h237l-92 -479l107 -623h-246z" />
    <glyph glyph-name="uni043B" unicode="&#x43b;" horiz-adv-x="602" 
d="M53 281q10 107 10 821h525v-1102h-254v897h-43q0 -406 -7 -558.5t-22 -217.5q-14 -70 -61.5 -95.5t-141.5 -25.5h-57v201h6q22 0 32 15.5t13 64.5z" />
    <glyph glyph-name="uni043C" unicode="&#x43c;" horiz-adv-x="739" 
d="M311 0l-82 700l4 -700h-219v1102h312l47 -490l47 490h303v-1102h-229l4 709l-82 -709h-105z" />
    <glyph glyph-name="uni043D" unicode="&#x43d;" horiz-adv-x="589" 
d="M268 0h-254v1102h254v-461h54v461h251v-1102h-251v436h-54v-436z" />
    <glyph glyph-name="uni043E" unicode="&#x43e;" 
d="M274 -16q-131 0 -194.5 66t-63.5 202v600q0 133 67 199.5t193 66.5h41q258 0 258 -266v-600q0 -133 -68.5 -200.5t-191.5 -67.5h-41zM270 211q0 -37 25 -37q27 0 27 37v684q0 39 -27 39q-25 0 -25 -39v-684z" />
    <glyph glyph-name="uni043F" unicode="&#x43f;" 
d="M268 0h-254v1102h559v-1102h-254v897h-51v-897z" />
    <glyph glyph-name="uni0440" unicode="&#x440;" horiz-adv-x="585" 
d="M16 1102h248v-98q77 108 166 108h4q70 0 103.5 -50t33.5 -138v-756q0 -76 -42.5 -129t-104.5 -53h-4q-88 0 -152 94v-422h-252v1444zM268 195q0 -33 25 -33q22 0 22 33v706q0 35 -22 35q-25 0 -25 -35v-706z" />
    <glyph glyph-name="uni0441" unicode="&#x441;" horiz-adv-x="546" 
d="M537 190q0 -94 -62 -150t-166 -56h-53q-110 0 -175 57t-65 172v672q0 104 58 168.5t182 64.5h57q117 0 170.5 -55.5t53.5 -151.5v-272h-228v279q0 26 -20 26q-21 0 -21 -26v-723q0 -29 21 -29q20 0 20 29v315h228v-320z" />
    <glyph glyph-name="uni0442" unicode="&#x442;" horiz-adv-x="495" 
d="M121 0v897h-113v205h481v-205h-114v-897h-254z" />
    <glyph glyph-name="uni0443" unicode="&#x443;" horiz-adv-x="548" 
d="M383 -236q-20 -106 -117 -106h-211v205h78q21 0 21 22q0 2 1 20.5t1 26.5q0 24 -9 86l-151 1084h250l37 -649l26 649h246z" />
    <glyph glyph-name="uni0444" unicode="&#x444;" horiz-adv-x="892" 
d="M616 -16h-43v-326h-254v326h-47q-130 0 -194 65t-64 201v604q0 128 66 196t192 68h47v406h254v-406h48q125 0 191.5 -65t66.5 -199v-602q0 -132 -68.5 -200t-194.5 -68zM295 174h24v760h-20q-18 0 -24.5 -9t-6.5 -32v-684q0 -35 27 -35zM594 934h-21v-760h25q27 0 27 35
v688q0 37 -31 37z" />
    <glyph glyph-name="uni0445" unicode="&#x445;" horiz-adv-x="548" 
d="M305 0l-35 379l-34 -379h-240l100 588l-96 514h246l30 -344l27 344h244l-96 -508l102 -594h-248z" />
    <glyph glyph-name="uni0446" unicode="&#x446;" horiz-adv-x="628" 
d="M623 205v-381h-226v176h-383v1102h254v-897h51v897h254v-897h50z" />
    <glyph glyph-name="uni0447" unicode="&#x447;" horiz-adv-x="583" 
d="M264 668q0 -35 31 -35q14 0 20 4v465h252v-1102h-252v434q-47 -8 -98 -8q-105 0 -156 51t-51 158v467h254v-434z" />
    <glyph glyph-name="uni0448" unicode="&#x448;" horiz-adv-x="882" 
d="M14 0v1102h254v-897h47v897h252v-897h47v897h254v-1102h-854z" />
    <glyph glyph-name="uni0449" unicode="&#x449;" horiz-adv-x="927" 
d="M14 0v1102h254v-897h47v897h252v-897h47v897h254v-897h50v-381h-226v176h-678z" />
    <glyph glyph-name="uni044A" unicode="&#x44a;" horiz-adv-x="663" 
d="M4 897v205h350v-373h84q113 0 164 -51.5t51 -153.5v-319q0 -205 -215 -205h-338v897h-96zM354 180h15q18 0 26 10t8 37v277q0 27 -7 35t-27 8h-15v-367z" />
    <glyph glyph-name="uni044B" unicode="&#x44b;" horiz-adv-x="864" 
d="M850 1102v-1102h-252v1102h252zM14 0v1102h254v-373h84q113 0 164 -51.5t51 -153.5v-319q0 -205 -215 -205h-338zM268 180h15q18 0 26 10t8 37v277q0 27 -7 35t-27 8h-15v-367z" />
    <glyph glyph-name="uni044C" unicode="&#x44c;" horiz-adv-x="577" 
d="M14 0v1102h254v-373h84q113 0 164 -51.5t51 -153.5v-319q0 -205 -215 -205h-338zM268 180h15q18 0 26 10t8 37v277q0 27 -7 35t-27 8h-15v-367z" />
    <glyph glyph-name="uni044D" unicode="&#x44d;" horiz-adv-x="550" 
d="M537 213q0 -115 -65.5 -172t-176.5 -57h-53q-105 0 -167.5 56t-62.5 150v254h228v-249q0 -13 8 -21t14 -8t14.5 8t8.5 21v290h-131v185h131v245q0 13 -7.5 21t-15.5 8q-6 0 -14 -8t-8 -21v-204h-228v200q0 95 54.5 151t171.5 56h57q126 0 184 -64.5t58 -168.5v-672z" />
    <glyph glyph-name="uni044E" unicode="&#x44e;" horiz-adv-x="880" 
d="M866 252q0 -134 -68.5 -201t-193.5 -67h-39q-132 0 -195 65.5t-63 202.5v184h-39v-436h-254v1102h254v-461h39v209q0 133 66.5 200.5t191.5 67.5h41q260 0 260 -268v-598zM561 211q0 -20 5.5 -28.5t19.5 -8.5q26 0 26 37v684q0 39 -26 39q-25 0 -25 -39v-684z" />
    <glyph glyph-name="uni044F" unicode="&#x44f;" horiz-adv-x="591" 
d="M324 410h-2l-68 -410h-250l88 471q-72 51 -72 176v238q0 217 226 217h332v-1102h-254v410zM324 915h-15q-19 0 -27 -9.5t-8 -35.5v-225q0 -20 8 -28.5t27 -8.5h15v307z" />
    <glyph glyph-name="uni0451" unicode="&#x451;" horiz-adv-x="559" 
d="M311 1118q108 0 173 -57t65 -180v-346h-287v-345q0 -32 25 -32q24 0 24 32v289h238v-266q0 -107 -64.5 -168t-173.5 -61h-49q-246 0 -246 237v656q0 115 62.5 178t183.5 63h49zM481 1331v-192h-182v192h182zM268 1331v-192h-182v192h182zM262 924v-246h49v246
q0 22 -4.5 30.5t-19.5 8.5q-14 0 -19.5 -9t-5.5 -30z" />
    <glyph glyph-name="uni0452" unicode="&#x452;" horiz-adv-x="589" 
d="M573 -223q0 -57 -32.5 -88t-79.5 -31h-213v217h51q20 0 20 23v991q0 33 -26 33q-25 0 -25 -35v-887h-254v1208h-37v183h37v133h254v-133h115v-183h-115v-198q66 102 162 102h10q37 0 64.5 -14t41.5 -37t20.5 -46t6.5 -46v-1192z" />
    <glyph glyph-name="uni0453" unicode="&#x453;" horiz-adv-x="432" 
d="M14 0v1102h410v-205h-156v-897h-254zM113 1130l71 238h203l-78 -238h-196z" />
    <glyph glyph-name="uni0454" unicode="&#x454;" horiz-adv-x="546" 
d="M535 190q0 -94 -62.5 -150t-167.5 -56h-51q-111 0 -175.5 57t-64.5 172v672q0 104 57 168.5t181 64.5h59q116 0 170 -56t54 -151v-200h-230v204q0 29 -20 29q-21 0 -21 -29v-245h129v-185h-129v-290q0 -29 21 -29q20 0 20 29v249h230v-254z" />
    <glyph glyph-name="uni0455" unicode="&#x455;" horiz-adv-x="522" 
d="M518 193q0 -101 -61 -155t-168 -54h-62q-215 0 -215 186v266h224v-256q0 -26 22 -26q23 0 23 26v203q0 27 -7.5 41.5t-29.5 32.5l-109 73q-69 48 -93 99.5t-24 124.5v172q0 192 224 192h55q103 0 157 -39.5t54 -128.5v-223h-217v211q0 29 -21 29q-22 0 -22 -29v-168
q0 -25 6 -36t27 -29l112 -76q74 -53 99.5 -104t25.5 -130v-202z" />
    <glyph glyph-name="uni0456" unicode="&#x456;" horiz-adv-x="282" 
d="M268 1368v-238h-252v238h252zM268 1102v-1102h-252v1102h252z" />
    <glyph glyph-name="uni0457" unicode="&#x457;" horiz-adv-x="282" 
d="M135 1368v-238h-137v238h137zM287 1368v-238h-140v238h140zM268 1102v-1102h-252v1102h252z" />
    <glyph glyph-name="uni0458" unicode="&#x458;" horiz-adv-x="282" 
d="M268 1368v-238h-252v238h252zM-55 -125h49q22 0 22 25v1202h252v-1325q0 -57 -32 -88t-78 -31h-213v217z" />
    <glyph glyph-name="uni0459" unicode="&#x459;" horiz-adv-x="901" 
d="M63 1102h525v-373h86q112 0 163.5 -51.5t51.5 -153.5v-319q0 -205 -215 -205h-338v897h-43q0 -406 -7 -558.5t-22 -217.5q-14 -70 -62.5 -95.5t-142.5 -25.5h-57v201h6q22 0 32 15.5t13 64.5q10 107 10 821zM588 547v-367h14q37 0 37 47v277q0 26 -8 34.5t-27 8.5h-16z
" />
    <glyph glyph-name="uni045A" unicode="&#x45a;" horiz-adv-x="884" 
d="M268 0h-254v1102h254v-418h54v418h251v-418h86q114 0 164.5 -51t50.5 -152v-280q0 -201 -215 -201h-337v479h-54v-479zM573 504v-324h15q18 0 26.5 10t8.5 37v232q0 27 -7.5 36t-25.5 9h-17z" />
    <glyph glyph-name="uni045B" unicode="&#x45b;" 
d="M268 887v-887h-252v1208h-39v183h39v133h252v-133h117v-183h-117v-198q73 102 164 102h8q37 0 64.5 -14t41.5 -37t20.5 -46t6.5 -46v-969h-254v889q0 35 -26 35q-25 0 -25 -37z" />
    <glyph glyph-name="uni045C" unicode="&#x45c;" horiz-adv-x="573" 
d="M197 1130l71 238h203l-78 -238h-196zM334 0l-68 442l2 -442h-254v1102h254v-103l-2 -268l62 371h237l-92 -479l107 -623h-246z" />
    <glyph glyph-name="uni045E" unicode="&#x45e;" horiz-adv-x="548" 
d="M383 -236q-20 -106 -117 -106h-211v205h78q21 0 21 22q0 2 1 20.5t1 26.5q0 24 -9 86l-151 1084h250l37 -649l26 649h246zM473 1307q0 -84 -49 -132.5t-137 -48.5h-4q-94 0 -141.5 47.5t-47.5 133.5v24h158v-16q0 -51 31 -51h2q32 0 32 51v16h156v-24z" />
    <glyph glyph-name="uni045F" unicode="&#x45f;" 
d="M573 0h-167v-176h-224v176h-168v1102h254v-897h51v897h254v-1102z" />
    <glyph glyph-name="uni0490" unicode="&#x490;" horiz-adv-x="466" 
d="M20 0v1524h209v194h226v-194h2v-236h-181v-1288h-256z" />
    <glyph glyph-name="uni0491" unicode="&#x491;" horiz-adv-x="432" 
d="M14 0v1102h185v176h225v-381h-156v-897h-254z" />
    <glyph glyph-name="uni0492" unicode="&#x492;" horiz-adv-x="477" 
d="M31 0v672h-31v221h31v631h436v-236h-180v-395h88v-221h-88v-672h-256z" />
    <glyph glyph-name="uni0493" unicode="&#x493;" horiz-adv-x="450" 
d="M33 0v438h-29v178h29v486h409v-205h-155v-281h82v-178h-82v-438h-254z" />
    <glyph glyph-name="uni0496" unicode="&#x496;" horiz-adv-x="950" 
d="M336 0l4 649l-74 -649h-266l113 805l-109 719h258l78 -606l-4 606h252l-2 -592l76 592h256l-107 -705l82 -581h57v-416h-225v178h-68l-71 649l2 -649h-252z" />
    <glyph glyph-name="uni0497" unicode="&#x497;" horiz-adv-x="882" 
d="M305 0l2 479l-69 -479h-242l104 600l-94 502h238l63 -422l-2 422h248v-414l63 414h234l-92 -490l69 -407h56v-381h-226v176h-36l-68 467v-467h-248z" />
    <glyph glyph-name="uni049A" unicode="&#x49a;" horiz-adv-x="638" 
d="M354 0l-80 600l2 -600h-258v1524h258l-2 -549l86 549h258l-124 -690l94 -596h49v-416h-225v178h-58z" />
    <glyph glyph-name="uni049B" unicode="&#x49b;" horiz-adv-x="598" 
d="M334 0l-68 442l2 -442h-254v1102h254v-103l-2 -268l62 371h237l-92 -479l72 -418h53v-381h-225v176h-39z" />
    <glyph glyph-name="uni04A2" unicode="&#x4a2;" horiz-adv-x="653" 
d="M334 0v664h-55v-664h-261v1524h261v-592h55v592h258v-1286h53v-416h-225v178h-86z" />
    <glyph glyph-name="uni04A3" unicode="&#x4a3;" horiz-adv-x="630" 
d="M268 0h-254v1102h254v-461h54v461h251v-897h52v-381h-226v176h-77v436h-54v-436z" />
    <glyph glyph-name="uni04AE" unicode="&#x4ae;" horiz-adv-x="565" 
d="M420 600v-600h-258v600l-168 924h258l45 -527l45 527h231z" />
    <glyph glyph-name="uni04AF" unicode="&#x4af;" horiz-adv-x="569" 
d="M412 0v-342h-252v342l-164 1102h248l45 -692l43 692h239z" />
    <glyph glyph-name="uni04B0" unicode="&#x4b0;" horiz-adv-x="565" 
d="M502 438h-82v-438h-258v438h-88v224h76l-156 862h258l45 -527l45 527h231l-143 -862h72v-224z" />
    <glyph glyph-name="uni04B1" unicode="&#x4b1;" horiz-adv-x="569" 
d="M412 0h75v-180h-75v-162h-252v162h-78v180h78l-164 1102h248l45 -692l43 692h239z" />
    <glyph glyph-name="uni04B2" unicode="&#x4b2;" horiz-adv-x="622" 
d="M295 602l-45 -602h-254l104 801l-98 723h264l37 -553l35 553h248l-94 -723l77 -563h52v-416h-226v178h-53z" />
    <glyph glyph-name="uni04B3" unicode="&#x4b3;" horiz-adv-x="571" 
d="M305 0l-35 379l-34 -379h-240l100 588l-96 514h246l30 -344l27 344h244l-96 -508l67 -389h51v-381h-223v176h-41z" />
    <glyph glyph-name="uni04BA" unicode="&#x4ba;" horiz-adv-x="602" 
d="M274 1524v-647q24 12 97 12h4q96 0 154.5 -51.5t58.5 -163.5v-674h-258v616q0 37 -31 37h-2q-6 0 -14 -1t-9 -1v-651h-258v1524h258z" />
    <glyph glyph-name="uni04BB" unicode="&#x4bb;" 
d="M16 0v1524h252v-514q73 102 164 102h8q37 0 64.5 -14t41.5 -37t20.5 -46t6.5 -46v-969h-254v889q0 35 -26 35q-25 0 -25 -37v-887h-252z" />
    <glyph glyph-name="uni04C0" unicode="&#x4c0;" horiz-adv-x="296" 
d="M279 1524v-1524h-261v1524h261z" />
    <glyph glyph-name="uni04CF" unicode="&#x4cf;" horiz-adv-x="282" 
d="M268 1524v-1524h-252v1524h252z" />
    <glyph glyph-name="uni04D8" unicode="&#x4d8;" horiz-adv-x="604" 
d="M14 244v678h308v360q0 39 -27 39t-27 -39v-311h-254v319q0 117 63.5 182.5t194.5 65.5h43q141 0 207 -74.5t66 -203.5v-990q0 -284 -273 -284h-43q-129 0 -193.5 74t-64.5 184zM268 252q0 -43 27 -43t27 43v444h-54v-444z" />
    <glyph glyph-name="uni04D9" unicode="&#x4d9;" horiz-adv-x="559" 
d="M547 225q0 -115 -62.5 -179t-183.5 -64h-49q-108 0 -173 58t-65 181v350h287v338q0 35 -25 35q-14 0 -19 -8t-5 -27v-280h-238v258q0 108 64 168.5t174 60.5h49q117 0 181.5 -58.5t64.5 -178.5v-654zM276 139q25 0 25 39v252h-49v-252q0 -24 4 -31.5t20 -7.5z" />
    <glyph glyph-name="uni04E8" unicode="&#x4e8;" horiz-adv-x="628" 
d="M612 1237v-956q0 -141 -73.5 -218t-202.5 -77h-43q-133 0 -205 77.5t-72 217.5v956q0 144 68 222.5t209 78.5h43q140 0 208 -79.5t68 -221.5zM281 1276v-371h69v371q0 45 -35 45q-21 0 -27.5 -10t-6.5 -35zM281 248q0 -43 34 -43q35 0 35 43v438h-69v-438z" />
    <glyph glyph-name="uni04E9" unicode="&#x4e9;" horiz-adv-x="589" 
d="M272 -16q-131 0 -194.5 66t-63.5 202v598q0 133 66.5 200.5t191.5 67.5h45q258 0 258 -268v-598q0 -133 -68.5 -200.5t-191.5 -67.5h-43zM262 901v-258h66v258q0 39 -33 39t-33 -39zM262 205q0 -39 33 -39t33 39v252h-66v-252z" />
    <glyph glyph-name="Wgrave" unicode="&#x1e80;" horiz-adv-x="905" 
d="M487 1747l72 -195h-203l-77 195h208zM487 0l-32 868l-35 -868h-299l-125 1524h268l31 -996l43 996h242l45 -1002l30 1002h250l-125 -1524h-293z" />
    <glyph glyph-name="wgrave" unicode="&#x1e81;" horiz-adv-x="837" 
d="M451 0l-31 631l-29 -631h-278l-117 1102h252l26 -719l33 719h228l36 -744l25 744h246l-117 -1102h-274zM451 1368l69 -238h-196l-76 238h203z" />
    <glyph glyph-name="Wacute" unicode="&#x1e82;" horiz-adv-x="905" 
d="M356 1552l76 195h209l-82 -195h-203zM487 0l-32 868l-35 -868h-299l-125 1524h268l31 -996l43 996h242l45 -1002l30 1002h250l-125 -1524h-293z" />
    <glyph glyph-name="wacute" unicode="&#x1e83;" horiz-adv-x="837" 
d="M322 1130l71 238h203l-78 -238h-196zM451 0l-31 631l-29 -631h-278l-117 1102h252l26 -719l33 719h228l36 -744l25 744h246l-117 -1102h-274z" />
    <glyph glyph-name="Wdieresis" unicode="&#x1e84;" horiz-adv-x="905" 
d="M653 1743v-191h-184v191h184zM438 1743v-191h-182v191h182zM487 0l-32 868l-35 -868h-299l-125 1524h268l31 -996l43 996h242l45 -1002l30 1002h250l-125 -1524h-293z" />
    <glyph glyph-name="wdieresis" unicode="&#x1e85;" horiz-adv-x="837" 
d="M403 1325v-195h-182v195h182zM616 1325v-195h-182v195h182zM451 0l-31 631l-29 -631h-278l-117 1102h252l26 -719l33 719h228l36 -744l25 744h246l-117 -1102h-274z" />
    <glyph glyph-name="Ygrave" unicode="&#x1ef2;" horiz-adv-x="563" 
d="M420 600v-600h-258v600l-168 924h258l45 -527l45 527h231zM330 1747l71 -195h-202l-78 195h209z" />
    <glyph glyph-name="ygrave" unicode="&#x1ef3;" horiz-adv-x="550" 
d="M383 -236q-20 -106 -117 -106h-211v205h78q21 0 21 22q0 2 1 20.5t1 26.5q0 24 -9 86l-151 1084h250l37 -649l26 649h246zM311 1368l70 -238h-197l-75 238h202z" />
    <glyph glyph-name="uni2009" unicode="&#x2009;" horiz-adv-x="6" 
 />
    <glyph glyph-name="endash" unicode="&#x2013;" horiz-adv-x="571" 
d="M16 696h539v-159h-539v159z" />
    <glyph glyph-name="emdash" unicode="&#x2014;" horiz-adv-x="864" 
d="M16 696h832v-159h-832v159z" />
    <glyph glyph-name="quoteleft" unicode="&#x2018;" horiz-adv-x="233" 
d="M59 1524h119q-35 -97 -37 -152h76v-223h-201v174q0 102 43 201z" />
    <glyph glyph-name="quoteright" unicode="&#x2019;" horiz-adv-x="233" 
d="M172 1149h-117q35 97 35 151h-74v224h201v-174q0 -104 -45 -201z" />
    <glyph glyph-name="quotesinglbase" unicode="&#x201a;" horiz-adv-x="233" 
d="M217 49q0 -109 -45 -201h-117q35 97 35 152h-74v223h201v-174z" />
    <glyph glyph-name="quotedblleft" unicode="&#x201c;" horiz-adv-x="454" 
d="M59 1524h119q-35 -97 -37 -152h76v-223h-201v174q0 102 43 201zM283 1524h116q-34 -95 -34 -152h73v-223h-200v174q0 109 45 201z" />
    <glyph glyph-name="quotedblright" unicode="&#x201d;" horiz-adv-x="454" 
d="M172 1149h-117q35 97 35 151h-74v224h201v-174q0 -104 -45 -201zM395 1149h-119q35 97 37 151h-75v224h200v-174q0 -96 -43 -201z" />
    <glyph glyph-name="quotedblbase" unicode="&#x201e;" horiz-adv-x="454" 
d="M217 49q0 -109 -45 -201h-117q35 97 35 152h-74v223h201v-174zM438 49q0 -102 -43 -201h-119q35 97 37 152h-75v223h200v-174z" />
    <glyph glyph-name="dagger" unicode="&#x2020;" horiz-adv-x="448" 
d="M100 0v1106h-88l2 207h88l-2 211h248v-213h88v-205h-88v-1106h-248z" />
    <glyph glyph-name="daggerdbl" unicode="&#x2021;" horiz-adv-x="448" 
d="M100 217h-88v207h88v682h-88v205h88v213h248v-213h88v-205h-88v-682h88v-207h-88v-217h-248v217z" />
    <glyph glyph-name="bullet" unicode="&#x2022;" horiz-adv-x="401" 
d="M201 487q-83 0 -137 53.5t-54 135.5t54 134t137 52q84 0 137 -52t53 -134t-53 -135.5t-137 -53.5z" />
    <glyph glyph-name="ellipsis" unicode="&#x2026;" horiz-adv-x="761" 
d="M524 262h221v-262h-221v262zM270 0v262h219v-262h-219zM236 0h-220v262h220v-262z" />
    <glyph glyph-name="perthousand" unicode="&#x2030;" horiz-adv-x="1196" 
d="M16 1024v340q0 85 44 128.5t122 43.5h27q168 0 168 -172v-340q0 -83 -45.5 -126.5t-124.5 -43.5h-25q-166 0 -166 170zM553 1524h145l-438 -1524h-147zM213 997v396q0 22 -16 22q-17 0 -17 -22v-396q0 -20 17 -20q16 0 16 20zM1010 -10h-25q-166 0 -166 172v340
q0 84 44 127t122 43h27q168 0 168 -170v-340q0 -84 -45.5 -128t-124.5 -44zM627 -10h-25q-168 0 -168 172v340q0 84 44 127t122 43h29q168 0 168 -170v-340q0 -84 -45.5 -128t-124.5 -44zM999 113q17 0 17 20v397q0 21 -17 21q-16 0 -16 -21v-397q0 -20 16 -20zM616 113
q15 0 15 20v397q0 21 -15 21q-16 0 -16 -21v-397q0 -20 16 -20z" />
    <glyph glyph-name="uni2032" unicode="&#x2032;" horiz-adv-x="202" 
d="M201 1524l-31 -324h-168l31 324h168z" />
    <glyph glyph-name="uni2033" unicode="&#x2033;" horiz-adv-x="385" 
d="M197 1524l-31 -324h-164l29 324h166zM383 1524l-31 -324h-164l31 324h164z" />
    <glyph glyph-name="guilsinglleft" unicode="&#x2039;" horiz-adv-x="278" 
d="M203 571l63 -307h-188l-66 260v97l66 251h190z" />
    <glyph glyph-name="guilsinglright" unicode="&#x203a;" horiz-adv-x="278" 
d="M76 571l-66 301h189l67 -251v-97l-67 -260h-187z" />
    <glyph glyph-name="fraction" unicode="&#x2044;" horiz-adv-x="571" 
d="M426 1524h145l-428 -1524h-143z" />
    <glyph glyph-name="zero.sup" unicode="&#x2070;" horiz-adv-x="409" 
d="M193 1532h26q94 0 135 -49.5t41 -124.5v-369q0 -71 -43 -123.5t-133 -52.5h-26q-95 0 -137 51.5t-42 124.5v369q0 73 42.5 123.5t136.5 50.5zM221 1370q0 23 -16 23q-17 0 -17 -23v-389q0 -23 17 -23q16 0 16 23v389z" />
    <glyph glyph-name="four.sup" unicode="&#x2074;" horiz-adv-x="346" 
d="M8 930v117l111 479h176v-461h43v-135h-43v-109h-156v109h-131zM106 1065h33v250z" />
    <glyph glyph-name="five.sup" unicode="&#x2075;" horiz-adv-x="376" 
d="M168 1137h-150v387h328v-125h-182v-129q40 55 94 55h8q48 0 72 -31t24 -82v-251q0 -68 -41 -108t-128 -40h-23q-160 0 -160 133v141h158v-139q0 -18 12 -18q15 0 15 18v244q0 18 -15 18q-12 0 -12 -18v-55z" />
    <glyph glyph-name="six.sup" unicode="&#x2076;" horiz-adv-x="399" 
d="M184 1221q41 51 101 51h4q50 0 74 -31t24 -78v-188q0 -79 -45 -120.5t-127 -41.5h-29q-85 0 -128.5 41t-43.5 121v399q0 71 41 114.5t131 43.5h23q93 0 131.5 -39t38.5 -109v-90h-168v97q0 20 -12 20q-15 0 -15 -20v-170zM184 958q0 -24 17 -24q14 0 14 24v183
q0 24 -14 24q-17 0 -17 -24v-183z" />
    <glyph glyph-name="seven.sup" unicode="&#x2077;" horiz-adv-x="344" 
d="M10 1524h324v-76q0 -28 -4 -64t-8 -62.5t-15.5 -94t-17.5 -107.5q-17 -126 -17 -262v-37h-188v33q0 71 8 123t37 141q45 140 56.5 191.5t11.5 107.5h-47v-145h-140v252z" />
    <glyph glyph-name="eight.sup" unicode="&#x2078;" horiz-adv-x="374" 
d="M360 1401v-117q0 -60 -55 -88q24 -9 42 -33.5t18 -60.5v-150q0 -67 -42 -103t-122 -36h-25q-166 0 -166 139v150q0 68 58 94q-52 27 -52 88v117q0 131 160 131h25q78 0 118.5 -35t40.5 -96zM203 1270v125q0 24 -17 24q-14 0 -14 -24v-125q0 -25 14 -25q17 0 17 25z
M203 958v160q0 25 -17 25q-14 0 -14 -25v-160q0 -24 14 -24q17 0 17 24z" />
    <glyph glyph-name="nine.sup" unicode="&#x2079;" horiz-adv-x="399" 
d="M12 1374q0 76 43.5 117t128.5 41h29q172 0 172 -160v-399q0 -72 -40.5 -116t-131.5 -44h-25q-90 0 -127.5 37.5t-37.5 105.5v95h163v-97q0 -20 15 -20q14 0 14 20v170q-44 -49 -94 -49h-6q-51 0 -77 32t-26 81v186zM199 1411q-15 0 -15 -25v-182q0 -24 15 -24
q8 0 11.5 3.5t4 7.5t0.5 13v182q0 25 -16 25z" />
    <glyph glyph-name="zero.sub" unicode="&#x2080;" horiz-adv-x="409" 
d="M193 451h26q93 0 134.5 -50t41.5 -125v-368q0 -71 -43 -123.5t-133 -52.5h-26q-95 0 -137 51.5t-42 124.5v368q0 73 42.5 124t136.5 51zM221 289q0 22 -16 22q-17 0 -17 -22v-389q0 -23 17 -23q16 0 16 23v389z" />
    <glyph glyph-name="one.sub" unicode="&#x2081;" horiz-adv-x="245" 
d="M66 264h-58v127q71 0 74 53h147v-704h-161z" />
    <glyph glyph-name="two.sub" unicode="&#x2082;" horiz-adv-x="376" 
d="M367 -260h-357v106q0 75 20.5 118t100.5 151q53 84 60 104q6 18 6 47v49q0 21 -15 21q-14 0 -14 -21v-114h-152v108q0 142 154 142h25q167 0 167 -136v-47q0 -66 -21.5 -104t-92.5 -117q-61 -70 -74.5 -94.5t-13.5 -61.5v-30h65v127h142v-248z" />
    <glyph glyph-name="three.sub" unicode="&#x2083;" horiz-adv-x="372" 
d="M162 197h-150v131q0 56 37.5 89.5t116.5 33.5h20q166 0 166 -121v-117q0 -32 -17 -53.5t-38 -28.5q65 -21 65 -96v-158q0 -147 -172 -147h-22q-87 0 -122.5 35.5t-35.5 97.5v162h156v-154q0 -18 14 -18q13 0 13 18v166q0 9 -3 11.5t-12 2.5h-72v121h70q14 0 14 14v138
q0 16 -14 16t-14 -16v-127z" />
    <glyph glyph-name="four.sub" unicode="&#x2084;" horiz-adv-x="346" 
d="M8 -152v117l111 479h176v-460h43v-136h-43v-108h-156v108h-131zM106 -16h33v249z" />
    <glyph glyph-name="five.sub" unicode="&#x2085;" horiz-adv-x="376" 
d="M168 55h-150v387h328v-125h-182v-129q40 56 94 56h8q48 0 72 -31t24 -82v-252q0 -68 -41 -107.5t-128 -39.5h-23q-160 0 -160 133v141h158v-139q0 -19 12 -19q15 0 15 19v244q0 18 -15 18q-12 0 -12 -18v-56z" />
    <glyph glyph-name="six.sub" unicode="&#x2086;" horiz-adv-x="399" 
d="M184 139q41 51 101 51h4q51 0 74.5 -30.5t23.5 -77.5v-188q0 -79 -45 -120.5t-127 -41.5h-29q-85 0 -128.5 41t-43.5 121v399q0 71 41 114.5t131 43.5h23q93 0 131.5 -39t38.5 -109v-90h-168v96q0 21 -12 21q-15 0 -15 -21v-170zM184 -123q0 -24 17 -24q14 0 14 24v182
q0 25 -14 25q-17 0 -17 -25v-182z" />
    <glyph glyph-name="seven.sub" unicode="&#x2087;" horiz-adv-x="344" 
d="M10 442h324v-75q0 -28 -4 -64t-8 -62.5t-15.5 -94t-17.5 -107.5q-17 -126 -17 -262v-37h-188v33q0 71 8 123t37 141q45 140 56.5 191.5t11.5 107.5h-47v-146h-140v252z" />
    <glyph glyph-name="eight.sub" unicode="&#x2088;" horiz-adv-x="374" 
d="M360 319v-116q0 -61 -55 -88q24 -9 42 -34t18 -61v-149q0 -67 -42 -103t-122 -36h-25q-166 0 -166 139v149q0 69 58 95q-52 27 -52 88v116q0 132 160 132h25q78 0 118.5 -35.5t40.5 -96.5zM203 188v125q0 25 -17 25q-14 0 -14 -25v-125q0 -24 14 -24q17 0 17 24z
M203 -123v160q0 24 -17 24q-14 0 -14 -24v-160q0 -24 14 -24q17 0 17 24z" />
    <glyph glyph-name="nine.sub" unicode="&#x2089;" horiz-adv-x="399" 
d="M12 293q0 76 43.5 117t128.5 41h29q172 0 172 -160v-400q0 -72 -40.5 -115.5t-131.5 -43.5h-25q-90 0 -127.5 37.5t-37.5 105.5v94h163v-96q0 -20 15 -20q14 0 14 20v170q-44 -49 -94 -49h-6q-51 0 -77 31.5t-26 80.5v187zM199 330q-15 0 -15 -25v-182q0 -25 15 -25
q8 0 11.5 4t4 8t0.5 13v182q0 25 -16 25z" />
    <glyph glyph-name="Euro" unicode="&#x20ac;" horiz-adv-x="665" 
d="M649 246q0 -113 -64.5 -186.5t-193.5 -73.5h-37q-146 0 -211 72.5t-65 211.5v375h-72v135h72v27h-72v133h72v320q0 129 65 202.5t205 73.5h45q130 0 193 -65.5t63 -180.5v-325h-254v315q0 16 -1 23.5t-7 12.5t-18 5q-27 0 -27 -41v-340h160v-133h-160v-27h160v-135h-160
v-393q0 -43 27 -43q17 0 21.5 10t4.5 33v369h254v-375z" />
    <glyph glyph-name="uni20B4" unicode="&#x20b4;" horiz-adv-x="638" 
d="M631 948v-133h-623v133h283l2 2q33 30 42 48.5t9 50.5v260q0 32 -25 32q-15 0 -20.5 -7t-5.5 -25v-326h-250v338q0 217 246 217h59q132 0 195 -60t63 -165v-252q0 -67 -18 -113h43zM614 221q0 -235 -254 -235h-59q-135 0 -201.5 69t-66.5 191v286q0 65 18 121h-43v135
h623v-135h-269l-4 -2q-34 -33 -43.5 -53.5t-9.5 -58.5v-297q0 -43 29 -43q26 0 26 41v381h254v-400z" />
    <glyph glyph-name="uni20B8" unicode="&#x20b8;" horiz-adv-x="524" 
d="M12 1391v133h502v-133h-502zM514 1128h-123v-1128h-258v1128h-121v236h502v-236z" />
    <glyph glyph-name="uni20BD" unicode="&#x20bd;" horiz-adv-x="636" 
d="M623 831q0 -96 -51.5 -148t-131.5 -52h-123v-27h199v-135h-199v-469h-258v469h-61v135h61v27h-61v133h61v760h379q84 0 134.5 -49.5t50.5 -151.5v-492zM317 1327v-502h19q19 0 26 9t7 32v422q0 39 -33 39h-19z" />
    <glyph glyph-name="uni2116" unicode="&#x2116;" horiz-adv-x="1026" 
d="M805 823q-88 0 -134 47.5t-46 120.5v373q0 74 45.5 121t134.5 47h31q88 0 132 -46.5t44 -121.5v-373q0 -72 -44.5 -120t-131.5 -48h-31zM817 963q23 0 23 26v377q0 29 -23 29q-18 0 -18 -29v-377q0 -26 18 -26zM629 596v199h377v-199h-377zM18 1524h263l100 -826l-2 826
h215v-1524h-240l-121 913l3 -913h-218v1524z" />
    <glyph glyph-name="trademark" unicode="&#x2122;" horiz-adv-x="575" 
d="M344 1274v-340h-104v590h145l14 -205l7 -78l4 80l10 203h139v-590h-104v225l2 115l-13 -111l-20 -229h-51l-19 231zM223 1415h-41v-481h-131v481h-41v109h213v-109z" />
    <glyph glyph-name="onethird" unicode="&#x2153;" horiz-adv-x="714" 
d="M506 457h-150v131q0 56 37.5 89.5t116.5 33.5h20q166 0 166 -121v-117q0 -32 -17 -53.5t-38 -28.5q66 -21 66 -96v-158q0 -147 -172 -147h-23q-87 0 -122.5 35.5t-35.5 97.5v162h156v-154q0 -18 14 -18q13 0 13 18v166q0 9 -3 11.5t-12 2.5h-71v121h69q15 0 15 14v138
q0 16 -15 16q-14 0 -14 -16v-127zM66 1343h-58v127q71 0 74 54h147v-703h-161zM446 1524h146l-428 -1524h-144z" />
    <glyph glyph-name="twothirds" unicode="&#x2154;" horiz-adv-x="847" 
d="M641 457h-149v131q0 56 37 89.5t116 33.5h21q165 0 165 -121v-117q0 -32 -17 -53.5t-38 -28.5q66 -21 66 -96v-158q0 -147 -172 -147h-23q-87 0 -122.5 35.5t-35.5 97.5v162h156v-154q0 -18 14 -18q13 0 13 18v166q0 9 -3 11.5t-12 2.5h-71v121h69q15 0 15 14v138
q0 16 -15 16q-14 0 -14 -16v-127zM367 821h-357v107q0 75 20.5 117t100.5 151q46 73 56 94.5t10 57.5v49q0 20 -15 20q-14 0 -14 -20v-115h-152v109q0 141 154 141h25q90 0 128.5 -35t38.5 -100v-47q0 -46 -13 -81t-32 -60t-69 -81q-61 -70 -74.5 -94.5t-13.5 -60.5v-31h65
v127h142v-248zM582 1524h145l-428 -1524h-143z" />
    <glyph glyph-name="oneeighth" unicode="&#x215b;" horiz-adv-x="710" 
d="M700 463v117q0 61 -40.5 96t-118.5 35h-25q-160 0 -160 -131v-117q0 -61 52 -88q-58 -26 -58 -94v-150q0 -139 166 -139h25q80 0 122 36t42 103v150q0 36 -18 60.5t-42 33.5q55 27 55 88zM446 1524h146l-428 -1524h-144zM66 1343h-58v127q71 0 74 54h147v-703h-161z
M543 297v-160q0 -24 -17 -24q-14 0 -14 24v160q0 25 14 25q17 0 17 -25zM543 573v-124q0 -25 -17 -25q-14 0 -14 25v124q0 25 14 25q17 0 17 -25z" />
    <glyph glyph-name="threeeighths" unicode="&#x215c;" horiz-adv-x="813" 
d="M803 463v117q0 61 -41 96t-119 35h-25q-159 0 -159 -131v-117q0 -61 51 -88q-57 -25 -57 -94v-150q0 -139 165 -139h25q80 0 122 36t42 103v150q0 37 -18 61t-41 33q55 27 55 88zM551 1524h145l-428 -1524h-143zM162 1278h-150v131q0 56 37.5 89.5t116.5 33.5h20
q166 0 166 -121v-117q0 -32 -17 -53.5t-38 -28.5q65 -21 65 -96v-158q0 -147 -172 -147h-22q-87 0 -122.5 35.5t-35.5 97.5v162h156v-154q0 -18 14 -18q13 0 13 18v166q0 9 -3 12t-12 3h-72v120h70q14 0 14 15v137q0 16 -14 16t-14 -16v-127zM645 297v-160q0 -24 -16 -24
q-15 0 -15 24v160q0 25 15 25q16 0 16 -25zM645 573v-124q0 -25 -16 -25q-15 0 -15 25v124q0 25 15 25q16 0 16 -25z" />
    <glyph glyph-name="fiveeighths" unicode="&#x215d;" horiz-adv-x="811" 
d="M801 463v117q0 61 -41 96t-119 35h-25q-159 0 -159 -131v-117q0 -61 51 -88q-57 -25 -57 -94v-150q0 -139 165 -139h25q80 0 122 36t42 103v150q0 36 -18 60.5t-42 33.5q56 28 56 88zM549 1524h145l-428 -1524h-143zM168 1137h-150v387h328v-125h-182v-129q40 55 94 55h8
q48 0 72 -31t24 -82v-251q0 -68 -41 -108t-128 -40h-23q-160 0 -160 133v141h158v-139q0 -18 12 -18q15 0 15 18v244q0 18 -15 18q-12 0 -12 -18v-55zM643 297v-160q0 -24 -16 -24q-15 0 -15 24v160q0 25 15 25q16 0 16 -25zM643 573v-124q0 -25 -16 -25q-15 0 -15 25v124
q0 25 15 25q16 0 16 -25z" />
    <glyph glyph-name="seveneighths" unicode="&#x215e;" horiz-adv-x="751" 
d="M741 463v117q0 61 -40.5 96t-118.5 35h-25q-160 0 -160 -131v-117q0 -61 52 -88q-58 -26 -58 -94v-150q0 -139 166 -139h25q79 0 121 35.5t42 103.5v150q0 37 -18 61t-41 33q55 27 55 88zM487 1524h146l-428 -1524h-144zM10 1524h324v-76q0 -28 -4 -64t-8 -62.5
t-15.5 -94t-17.5 -107.5q-17 -126 -17 -262v-37h-188v33q0 71 8 123t37 141q45 140 56.5 191.5t11.5 107.5h-47v-145h-140v252zM584 297v-160q0 -24 -17 -24q-14 0 -14 24v160q0 25 14 25q17 0 17 -25zM584 573v-124q0 -25 -17 -25q-14 0 -14 25v124q0 25 14 25q17 0 17 -25
z" />
    <glyph glyph-name="minus" unicode="&#x2212;" horiz-adv-x="456" 
d="M16 694h424v-147h-424v147z" />
    <glyph glyph-name="uni24C5" unicode="&#x24c5;" horiz-adv-x="792" 
d="M408 -14h-21q-175 0 -272 88.5t-97 273.5v832q0 176 99 267t272 91h21q168 0 266 -89t98 -269v-830q0 -92 -28.5 -163t-79.5 -114t-116 -65t-142 -22zM137 369q0 -147 61 -216t191 -69h17q251 0 251 287v784q0 147 -60.5 216t-188.5 69h-19q-131 0 -191.5 -66.5
t-60.5 -218.5v-786zM477 664h-86v-498h-184v1198h266q139 0 139 -150v-399q0 -73 -36.5 -112t-98.5 -39zM391 1225v-418h19q11 0 14.5 6t3.5 23v362q0 15 -3.5 21t-14.5 6h-19z" />
    <glyph glyph-name="zero.den" unicode="&#xe402;" horiz-adv-x="409" 
d="M193 711h26q94 0 135 -49.5t41 -124.5v-369q0 -71 -43 -123.5t-133 -52.5h-26q-95 0 -137 51.5t-42 124.5v369q0 73 42.5 123.5t136.5 50.5zM221 549q0 22 -16 22q-17 0 -17 -22v-389q0 -23 17 -23q16 0 16 23v389z" />
    <glyph glyph-name="one.den" unicode="&#xe403;" horiz-adv-x="245" 
d="M66 522h-58v127q71 0 74 53h147v-702h-161z" />
    <glyph glyph-name="two.den" unicode="&#xe404;" horiz-adv-x="376" 
d="M367 0h-357v106q0 75 20.5 118t100.5 151q53 84 60 104q6 18 6 47v49q0 21 -15 21q-14 0 -14 -21v-114h-152v108q0 142 154 142h25q167 0 167 -136v-47q0 -66 -21.5 -104t-92.5 -117q-61 -70 -74.5 -94.5t-13.5 -60.5v-31h65v127h142v-248z" />
    <glyph glyph-name="three.den" unicode="&#xe405;" horiz-adv-x="372" 
d="M162 457h-150v131q0 56 37.5 89.5t116.5 33.5h20q166 0 166 -121v-117q0 -32 -17 -53.5t-38 -28.5q65 -21 65 -96v-158q0 -147 -172 -147h-22q-87 0 -122.5 35.5t-35.5 97.5v162h156v-154q0 -18 14 -18q13 0 13 18v166q0 9 -3 11.5t-12 2.5h-72v121h70q14 0 14 14v138
q0 16 -14 16t-14 -16v-127z" />
    <glyph glyph-name="four.den" unicode="&#xe406;" horiz-adv-x="346" 
d="M8 109v116l111 480h176v-461h43v-135h-43v-109h-156v109h-131zM106 244h33v250z" />
    <glyph glyph-name="five.den" unicode="&#xe407;" horiz-adv-x="376" 
d="M168 315h-150v387h328v-124h-182v-129q40 55 94 55h8q48 0 72 -31t24 -82v-252q0 -68 -41 -107.5t-128 -39.5h-23q-160 0 -160 133v141h158v-139q0 -18 12 -18q15 0 15 18v244q0 18 -15 18q-12 0 -12 -18v-56z" />
    <glyph glyph-name="six.den" unicode="&#xe408;" horiz-adv-x="399" 
d="M184 399q42 52 101 52h4q50 0 74 -31t24 -78v-188q0 -79 -45 -120.5t-127 -41.5h-29q-85 0 -128.5 41t-43.5 121v399q0 71 41 114.5t131 43.5h23q93 0 131.5 -39t38.5 -109v-90h-168v96q0 21 -12 21q-15 0 -15 -21v-170zM184 137q0 -24 17 -24q14 0 14 24v182
q0 25 -14 25q-17 0 -17 -25v-182z" />
    <glyph glyph-name="seven.den" unicode="&#xe409;" horiz-adv-x="344" 
d="M10 702h324v-75q0 -28 -4 -64t-8 -62.5t-15.5 -94t-17.5 -107.5q-17 -126 -17 -262v-37h-188v33q0 71 8 123t37 141q45 140 56.5 191.5t11.5 107.5h-47v-145h-140v251z" />
    <glyph glyph-name="eight.den" unicode="&#xe40a;" horiz-adv-x="374" 
d="M360 580v-117q0 -61 -55 -88q24 -9 42 -33.5t18 -60.5v-150q0 -67 -42 -103t-122 -36h-25q-166 0 -166 139v150q0 68 58 94q-52 27 -52 88v117q0 131 160 131h25q78 0 118.5 -35t40.5 -96zM203 137v160q0 25 -17 25q-14 0 -14 -25v-160q0 -24 14 -24q17 0 17 24zM203 449
v124q0 25 -17 25q-14 0 -14 -25v-124q0 -25 14 -25q17 0 17 25z" />
    <glyph glyph-name="nine.den" unicode="&#xe40b;" horiz-adv-x="399" 
d="M12 553q0 76 43.5 117t128.5 41h29q172 0 172 -160v-399q0 -72 -40.5 -116t-131.5 -44h-25q-90 0 -127.5 37.5t-37.5 105.5v94h163v-96q0 -20 15 -20q14 0 14 20v170q-44 -49 -94 -49h-6q-51 0 -77 32t-26 81v186zM199 590q-15 0 -15 -25v-182q0 -25 15 -25q8 0 11.5 4
t4 8t0.5 13v182q0 25 -16 25z" />
    <glyph glyph-name="zero.num" unicode="&#xe416;" horiz-adv-x="409" 
d="M193 1532h26q94 0 135 -49.5t41 -124.5v-369q0 -71 -43 -123.5t-133 -52.5h-26q-95 0 -137 51.5t-42 124.5v369q0 73 42.5 123.5t136.5 50.5zM221 1370q0 23 -16 23q-17 0 -17 -23v-389q0 -23 17 -23q16 0 16 23v389z" />
    <glyph glyph-name="one.num" unicode="&#xe417;" horiz-adv-x="245" 
d="M66 1343h-58v127q71 0 74 54h147v-703h-161z" />
    <glyph glyph-name="two.num" unicode="&#xe418;" horiz-adv-x="376" 
d="M367 821h-357v107q0 75 20.5 117t100.5 151q46 73 56 94.5t10 57.5v49q0 20 -15 20q-14 0 -14 -20v-115h-152v109q0 141 154 141h25q90 0 128.5 -35t38.5 -100v-47q0 -46 -13 -81t-32 -60t-69 -81q-61 -70 -74.5 -94.5t-13.5 -60.5v-31h65v127h142v-248z" />
    <glyph glyph-name="three.num" unicode="&#xe419;" horiz-adv-x="372" 
d="M162 1278h-150v131q0 56 37.5 89.5t116.5 33.5h20q166 0 166 -121v-117q0 -32 -17 -53.5t-38 -28.5q65 -21 65 -96v-158q0 -147 -172 -147h-22q-87 0 -122.5 35.5t-35.5 97.5v162h156v-154q0 -18 14 -18q13 0 13 18v166q0 9 -3 12t-12 3h-72v120h70q14 0 14 15v137
q0 16 -14 16t-14 -16v-127z" />
    <glyph glyph-name="four.num" unicode="&#xe41a;" horiz-adv-x="346" 
d="M8 930v117l111 479h176v-461h43v-135h-43v-109h-156v109h-131zM106 1065h33v250z" />
    <glyph glyph-name="five.num" unicode="&#xe41b;" horiz-adv-x="376" 
d="M168 1137h-150v387h328v-125h-182v-129q40 55 94 55h8q48 0 72 -31t24 -82v-251q0 -68 -41 -108t-128 -40h-23q-160 0 -160 133v141h158v-139q0 -18 12 -18q15 0 15 18v244q0 18 -15 18q-12 0 -12 -18v-55z" />
    <glyph glyph-name="six.num" unicode="&#xe41c;" horiz-adv-x="399" 
d="M184 1221q41 51 101 51h4q50 0 74 -31t24 -78v-188q0 -79 -45 -120.5t-127 -41.5h-29q-85 0 -128.5 41t-43.5 121v399q0 71 41 114.5t131 43.5h23q93 0 131.5 -39t38.5 -109v-90h-168v97q0 20 -12 20q-15 0 -15 -20v-170zM184 958q0 -24 17 -24q14 0 14 24v183
q0 24 -14 24q-17 0 -17 -24v-183z" />
    <glyph glyph-name="seven.num" unicode="&#xe41d;" horiz-adv-x="344" 
d="M10 1524h324v-76q0 -28 -4 -64t-8 -62.5t-15.5 -94t-17.5 -107.5q-17 -126 -17 -262v-37h-188v33q0 71 8 123t37 141q45 140 56.5 191.5t11.5 107.5h-47v-145h-140v252z" />
    <glyph glyph-name="eight.num" unicode="&#xe41e;" horiz-adv-x="374" 
d="M360 1401v-117q0 -60 -55 -88q24 -9 42 -33.5t18 -60.5v-150q0 -67 -42 -103t-122 -36h-25q-166 0 -166 139v150q0 68 58 94q-52 27 -52 88v117q0 131 160 131h25q78 0 118.5 -35t40.5 -96zM203 1270v125q0 24 -17 24q-14 0 -14 -24v-125q0 -25 14 -25q17 0 17 25z
M203 958v160q0 25 -17 25q-14 0 -14 -25v-160q0 -24 14 -24q17 0 17 24z" />
    <glyph glyph-name="nine.num" unicode="&#xe41f;" horiz-adv-x="399" 
d="M12 1374q0 76 43.5 117t128.5 41h29q172 0 172 -160v-399q0 -72 -40.5 -116t-131.5 -44h-25q-90 0 -127.5 37.5t-37.5 105.5v95h163v-97q0 -20 15 -20q14 0 14 20v170q-44 -49 -94 -49h-6q-51 0 -77 32t-26 81v186zM199 1411q-15 0 -15 -25v-182q0 -24 15 -24
q8 0 11.5 3.5t4 7.5t0.5 13v182q0 25 -16 25z" />
    <glyph glyph-name="f_f_i" unicode="&#xfb03;" horiz-adv-x="1048" 
d="M430 0v897h-90v-897h-252v897h-80v205h80v287q0 65 39 100t94 35h189v-199h-48q-22 0 -22 -25v-198h90v287q0 65 39 100t94 35h193v-199h-49q-23 0 -23 -25v-198h72v-205h-72v-897h-254zM1032 1368v-238h-252v238h252zM1032 1102v-1102h-252v1102h252z" />
    <glyph glyph-name="f_f_l" unicode="&#xfb04;" horiz-adv-x="1048" 
d="M430 0v897h-90v-897h-252v897h-80v205h80v287q0 65 39 100t94 35h189v-199h-48q-22 0 -22 -25v-198h90v287q0 65 39 100t94 35h193v-199h-49q-23 0 -23 -25v-198h72v-205h-72v-897h-254zM1032 1524v-1524h-252v1524h252z" />
    <glyph glyph-name="idotaccent" horiz-adv-x="284" 
d="M268 1368v-238h-252v238h252zM268 1102v-1102h-252v1102h252z" />
    <glyph glyph-name="space_uni0326" horiz-adv-x="444" 
d="M289 -332h-109q22 61 25 117h-82v186h201v-135q0 -78 -35 -168z" />
    <glyph glyph-name="E.alt" horiz-adv-x="475" 
d="M18 1524h439v-234h-181v-372h177v-240h-177v-440h185v-238h-443v1524z" />
    <glyph glyph-name="F.alt" horiz-adv-x="471" 
d="M18 1524h437v-234h-179v-370h175v-242h-175v-678h-258v1524z" />
    <glyph glyph-name="J.alt" horiz-adv-x="405" 
d="M12 0v240h70q22 0 29.5 10.5t7.5 32.5v1241h268v-1329q0 -90 -46 -142.5t-130 -52.5h-199z" />
    <glyph glyph-name="IJ.alt" horiz-adv-x="702" 
d="M279 1524v-1524h-261v1524h261zM309 0v240h70q22 0 29.5 10.5t7.5 32.5v1241h268v-1329q0 -90 -46 -142.5t-130 -52.5h-199z" />
    <glyph glyph-name="a.alt" horiz-adv-x="555" 
d="M297 90q-23 -40 -62 -70t-92 -30h-4q-60 0 -93.5 44t-33.5 105v342q0 63 25 101.5t78 64.5q25 12 89 38t72 30q9 5 11.5 7t5 7t2.5 14v187q0 26 -23 26h-2q-22 0 -22 -26v-209h-228v211q0 96 63.5 141t174.5 45h27q125 0 189.5 -42.5t64.5 -141.5v-750q0 -138 12 -176v-8
h-242q-12 30 -12 90zM295 190v371q-27 -17 -35 -31t-8 -43v-297q0 -28 22 -28q21 0 21 28z" />
    <glyph glyph-name="a.alt2" horiz-adv-x="589" 
d="M322 1102h251v-1102h-251v88q-73 -102 -152 -102h-6q-65 0 -106.5 55t-41.5 135v758q0 76 38.5 125t99.5 49h8q53 0 87 -22.5t73 -69.5v86zM272 203q0 -35 23 -35q27 0 27 35v690q0 37 -27 37q-23 0 -23 -35v-692z" />
    <glyph glyph-name="r.alt" horiz-adv-x="450" 
d="M266 1102v-123q41 129 125 129h6q31 0 43 -6v-285q-35 10 -78 10h-10q-46 0 -65 -15t-19 -46v-766h-252v1102h250z" />
    <glyph glyph-name="Eacute.alt" horiz-adv-x="475" 
d="M141 1552l76 195h209l-82 -195h-203zM18 1524h439v-234h-181v-372h177v-240h-177v-440h185v-238h-443v1524z" />
    <glyph glyph-name="Ebreve.alt" horiz-adv-x="475" 
d="M432 1720q0 -76 -48.5 -125t-137.5 -49h-6q-90 0 -138.5 49t-48.5 125v19h158v-17q0 -39 31 -39h2q32 0 32 39v17h156v-19zM18 1524h439v-234h-181v-372h177v-240h-177v-440h185v-238h-443v1524z" />
    <glyph glyph-name="Ecaron.alt" horiz-adv-x="475" 
d="M141 1552l-102 195h174l33 -78l35 78h174l-103 -195h-211zM18 1524h439v-234h-181v-372h177v-240h-177v-440h185v-238h-443v1524z" />
    <glyph glyph-name="Ecircumflex.alt" horiz-adv-x="475" 
d="M346 1747l103 -195h-175l-34 76l-33 -76h-174l102 195h211zM18 1524h439v-234h-181v-372h177v-240h-177v-440h185v-238h-443v1524z" />
    <glyph glyph-name="Edieresis.alt" horiz-adv-x="475" 
d="M440 1743v-191h-184v191h184zM225 1743v-191h-182v191h182zM18 1524h439v-234h-181v-372h177v-240h-177v-440h185v-238h-443v1524z" />
    <glyph glyph-name="Edotaccent.alt" horiz-adv-x="475" 
d="M369 1774v-222h-252v222h252zM18 1524h439v-234h-181v-372h177v-240h-177v-440h185v-238h-443v1524z" />
    <glyph glyph-name="Egrave.alt" horiz-adv-x="475" 
d="M279 1747l71 -195h-203l-77 195h209zM18 1524h439v-234h-181v-372h177v-240h-177v-440h185v-238h-443v1524z" />
    <glyph glyph-name="Emacron.alt" horiz-adv-x="475" 
d="M74 1561v157h338v-157h-338zM18 1524h439v-234h-181v-372h177v-240h-177v-440h185v-238h-443v1524z" />
    <glyph glyph-name="Eogonek.alt" horiz-adv-x="473" 
d="M18 1524h439v-234h-181v-372h177v-240h-177v-440h185v-238h-64q-55 -73 -55 -152v-4q0 -47 43 -47h14v-139h-88q-63 0 -105 29.5t-42 87.5v12q0 103 129 213h-275v1524z" />
    <glyph glyph-name="Jcircumflex.alt" horiz-adv-x="405" 
d="M358 1747l103 -195h-174l-35 76l-33 -76h-174l102 195h211zM12 0v240h70q22 0 29.5 10.5t7.5 32.5v1241h268v-1329q0 -90 -46 -142.5t-130 -52.5h-199z" />
    <glyph glyph-name="aacute.alt" horiz-adv-x="555" 
d="M178 1137l68 231h203l-74 -231h-197zM297 90q-23 -40 -62 -70t-92 -30h-4q-60 0 -93.5 44t-33.5 105v342q0 63 25 101.5t78 64.5q25 12 89 38t72 30q9 5 11.5 7t5 7t2.5 14v187q0 26 -23 26h-2q-22 0 -22 -26v-209h-228v211q0 96 63.5 141t174.5 45h27q125 0 189.5 -42.5
t64.5 -141.5v-750q0 -138 12 -176v-8h-242q-12 30 -12 90zM295 190v371q-27 -17 -35 -31t-8 -43v-297q0 -28 22 -28q21 0 21 28z" />
    <glyph glyph-name="aacute.alt2" horiz-adv-x="585" 
d="M195 1130l71 238h203l-78 -238h-196zM322 1102h251v-1102h-251v88q-73 -102 -152 -102h-6q-65 0 -106.5 55t-41.5 135v758q0 76 38.5 125t99.5 49h8q53 0 87 -22.5t73 -69.5v86zM272 203q0 -35 23 -35q27 0 27 35v690q0 37 -27 37q-23 0 -23 -35v-692z" />
    <glyph glyph-name="abreve.alt" horiz-adv-x="555" 
d="M297 90q-23 -40 -62 -70t-92 -30h-4q-60 0 -93.5 44t-33.5 105v342q0 63 25 101.5t78 64.5q25 12 89 38t72 30q9 5 11.5 7t5 7t2.5 14v187q0 26 -23 26h-2q-22 0 -22 -26v-209h-228v211q0 96 63.5 141t174.5 45h27q125 0 189.5 -42.5t64.5 -141.5v-750q0 -138 12 -176v-8
h-242q-12 30 -12 90zM295 190v371q-27 -17 -35 -31t-8 -43v-297q0 -28 22 -28q21 0 21 28zM461 1315q0 -84 -49 -132t-138 -48h-4q-94 0 -141 47t-47 133v24h158v-16q0 -51 30 -51h2q33 0 33 51v16h156v-24z" />
    <glyph glyph-name="abreve.alt2" horiz-adv-x="585" 
d="M322 1102h251v-1102h-251v88q-73 -102 -152 -102h-6q-65 0 -106.5 55t-41.5 135v758q0 76 38.5 125t99.5 49h8q53 0 87 -22.5t73 -69.5v86zM272 203q0 -35 23 -35q27 0 27 35v690q0 37 -27 37q-23 0 -23 -35v-692zM475 1307q0 -84 -49 -132.5t-137 -48.5h-4
q-94 0 -141.5 47.5t-47.5 133.5v24h158v-16q0 -51 31 -51h2q32 0 32 51v16h156v-24z" />
    <glyph glyph-name="acircumflex.alt" horiz-adv-x="555" 
d="M377 1368l98 -231h-170l-31 104l-30 -104h-170l98 231h205zM297 90q-23 -40 -62 -70t-92 -30h-4q-60 0 -93.5 44t-33.5 105v342q0 63 25 101.5t78 64.5q25 12 89 38t72 30q9 5 11.5 7t5 7t2.5 14v187q0 26 -23 26h-2q-22 0 -22 -26v-209h-228v211q0 96 63.5 141t174.5 45
h27q125 0 189.5 -42.5t64.5 -141.5v-750q0 -138 12 -176v-8h-242q-12 30 -12 90zM295 190v371q-27 -17 -35 -31t-8 -43v-297q0 -28 22 -28q21 0 21 28z" />
    <glyph glyph-name="acircumflex.alt2" horiz-adv-x="585" 
d="M393 1368l99 -238h-170l-33 111l-31 -111h-168l96 238h207zM322 1102h251v-1102h-251v88q-73 -102 -152 -102h-6q-65 0 -106.5 55t-41.5 135v758q0 76 38.5 125t99.5 49h8q53 0 87 -22.5t73 -69.5v86zM272 203q0 -35 23 -35q27 0 27 35v690q0 37 -27 37q-23 0 -23 -35
v-692z" />
    <glyph glyph-name="adieresis.alt" horiz-adv-x="555" 
d="M258 1331v-194h-182v194h182zM471 1331v-194h-182v194h182zM297 90q-23 -40 -62 -70t-92 -30h-4q-60 0 -93.5 44t-33.5 105v342q0 63 25 101.5t78 64.5q25 12 89 38t72 30q9 5 11.5 7t5 7t2.5 14v187q0 26 -23 26h-2q-22 0 -22 -26v-209h-228v211q0 96 63.5 141t174.5 45
h27q125 0 189.5 -42.5t64.5 -141.5v-750q0 -138 12 -176v-8h-242q-12 30 -12 90zM295 190v371q-27 -17 -35 -31t-8 -43v-297q0 -28 22 -28q21 0 21 28z" />
    <glyph glyph-name="adieresis.alt2" horiz-adv-x="585" 
d="M279 1325v-195h-183v195h183zM492 1325v-195h-183v195h183zM322 1102h251v-1102h-251v88q-73 -102 -152 -102h-6q-65 0 -106.5 55t-41.5 135v758q0 76 38.5 125t99.5 49h8q53 0 87 -22.5t73 -69.5v86zM272 203q0 -35 23 -35q27 0 27 35v690q0 37 -27 37q-23 0 -23 -35
v-692z" />
    <glyph glyph-name="agrave.alt" horiz-adv-x="555" 
d="M303 1368l68 -231h-195l-76 231h203zM297 90q-23 -40 -62 -70t-92 -30h-4q-60 0 -93.5 44t-33.5 105v342q0 63 25 101.5t78 64.5q25 12 89 38t72 30q9 5 11.5 7t5 7t2.5 14v187q0 26 -23 26h-2q-22 0 -22 -26v-209h-228v211q0 96 63.5 141t174.5 45h27q125 0 189.5 -42.5
t64.5 -141.5v-750q0 -138 12 -176v-8h-242q-12 30 -12 90zM295 190v371q-27 -17 -35 -31t-8 -43v-297q0 -28 22 -28q21 0 21 28z" />
    <glyph glyph-name="agrave.alt2" horiz-adv-x="585" 
d="M322 1102h251v-1102h-251v88q-73 -102 -152 -102h-6q-65 0 -106.5 55t-41.5 135v758q0 76 38.5 125t99.5 49h8q53 0 87 -22.5t73 -69.5v86zM272 203q0 -35 23 -35q27 0 27 35v690q0 37 -27 37q-23 0 -23 -35v-692zM317 1368l70 -238h-197l-75 238h202z" />
    <glyph glyph-name="amacron.alt" horiz-adv-x="555" 
d="M297 90q-23 -40 -62 -70t-92 -30h-4q-60 0 -93.5 44t-33.5 105v342q0 63 25 101.5t78 64.5q25 12 89 38t72 30q9 5 11.5 7t5 7t2.5 14v187q0 26 -23 26h-2q-22 0 -22 -26v-209h-228v211q0 96 63.5 141t174.5 45h27q125 0 189.5 -42.5t64.5 -141.5v-750q0 -138 12 -176v-8
h-242q-12 30 -12 90zM295 190v371q-27 -17 -35 -31t-8 -43v-297q0 -28 22 -28q21 0 21 28zM111 1147v160h338v-160h-338z" />
    <glyph glyph-name="amacron.alt2" horiz-adv-x="585" 
d="M123 1141v159h338v-159h-338zM322 1102h251v-1102h-251v88q-73 -102 -152 -102h-6q-65 0 -106.5 55t-41.5 135v758q0 76 38.5 125t99.5 49h8q53 0 87 -22.5t73 -69.5v86zM272 203q0 -35 23 -35q27 0 27 35v690q0 37 -27 37q-23 0 -23 -35v-692z" />
    <glyph glyph-name="aogonek.alt" horiz-adv-x="552" 
d="M317 -225v12q0 103 129 213h-137q-12 30 -12 90q-23 -40 -62 -70t-92 -30h-4q-60 0 -93.5 44t-33.5 105v342q0 63 25 101.5t78 64.5q25 12 89 38t72 30q9 5 11.5 7t5 7t2.5 14v187q0 26 -23 26h-2q-22 0 -22 -26v-209h-228v211q0 96 63.5 141t174.5 45h27
q125 0 189.5 -42.5t64.5 -141.5v-750q0 -138 12 -176v-8q-55 -73 -55 -152v-4q0 -47 41 -47h14v-139h-86q-63 0 -105.5 29.5t-42.5 87.5zM295 190v371q-27 -17 -35 -31t-8 -43v-297q0 -28 22 -28q21 0 21 28z" />
    <glyph glyph-name="aogonek.alt2" horiz-adv-x="589" 
d="M322 1102h251v-1102q-55 -73 -55 -152v-4q0 -47 41 -47h14v-139h-86q-63 0 -105 29.5t-42 87.5v12q0 103 129 213h-147v88q-73 -102 -152 -102h-6q-65 0 -106.5 55t-41.5 135v758q0 76 38.5 125t99.5 49h8q53 0 87 -22.5t73 -69.5v86zM272 203q0 -35 23 -35q27 0 27 35
v690q0 37 -27 37q-23 0 -23 -35v-692z" />
    <glyph glyph-name="aring.alt" horiz-adv-x="555" 
d="M406 1264q0 -57 -38 -93t-96 -36t-96.5 36.5t-38.5 92.5t38.5 91.5t96.5 35.5t96 -35.5t38 -91.5zM219 1264q0 -24 14.5 -39t38.5 -15q22 0 37 15t15 39q0 23 -15 37t-37 14q-23 0 -38 -14t-15 -37zM297 90q-23 -40 -62 -70t-92 -30h-4q-60 0 -93.5 44t-33.5 105v342
q0 63 25 101.5t78 64.5q25 12 89 38t72 30q9 5 11.5 7t5 7t2.5 14v187q0 26 -23 26h-2q-22 0 -22 -26v-209h-228v211q0 96 63.5 141t174.5 45h27q125 0 189.5 -42.5t64.5 -141.5v-750q0 -138 12 -176v-8h-242q-12 30 -12 90zM295 190v371q-27 -17 -35 -31t-8 -43v-297
q0 -28 22 -28q21 0 21 28z" />
    <glyph glyph-name="aring.alt2" horiz-adv-x="585" 
d="M412 1255q0 -57 -38 -93t-95 -36q-58 0 -97 36.5t-39 92.5t39 91.5t97 35.5t95.5 -35.5t37.5 -91.5zM225 1255q0 -24 15 -38.5t39 -14.5q22 0 36.5 14.5t14.5 38.5q0 23 -14.5 37.5t-36.5 14.5q-23 0 -38.5 -14.5t-15.5 -37.5zM322 1102h251v-1102h-251v88
q-73 -102 -152 -102h-6q-65 0 -106.5 55t-41.5 135v758q0 76 38.5 125t99.5 49h8q53 0 87 -22.5t73 -69.5v86zM272 203q0 -35 23 -35q27 0 27 35v690q0 37 -27 37q-23 0 -23 -35v-692z" />
    <glyph glyph-name="aringacute.alt" horiz-adv-x="555" 
d="M176 1407l72 238h203l-78 -238h-197zM406 1264q0 -57 -38 -93t-96 -36t-96.5 36.5t-38.5 92.5t38.5 91.5t96.5 35.5t96 -35.5t38 -91.5zM219 1264q0 -24 14.5 -39t38.5 -15q22 0 37 15t15 39q0 23 -15 37t-37 14q-23 0 -38 -14t-15 -37zM297 90q-23 -40 -62 -70t-92 -30
h-4q-60 0 -93.5 44t-33.5 105v342q0 63 25 101.5t78 64.5q25 12 89 38t72 30q9 5 11.5 7t5 7t2.5 14v187q0 26 -23 26h-2q-22 0 -22 -26v-209h-228v211q0 96 63.5 141t174.5 45h27q125 0 189.5 -42.5t64.5 -141.5v-750q0 -138 12 -176v-8h-242q-12 30 -12 90zM295 190v371
q-27 -17 -35 -31t-8 -43v-297q0 -28 22 -28q21 0 21 28z" />
    <glyph glyph-name="aringacute.alt2" horiz-adv-x="585" 
d="M182 1401l72 237h203l-78 -237h-197zM410 1255q0 -57 -38 -93t-96 -36t-96.5 36.5t-38.5 92.5t38.5 91.5t96.5 35.5t96 -35.5t38 -91.5zM223 1255q0 -24 14.5 -38.5t38.5 -14.5q22 0 37 14.5t15 38.5q0 23 -15 37.5t-37 14.5q-23 0 -38 -14.5t-15 -37.5zM322 1102h251
v-1102h-251v88q-73 -102 -152 -102h-6q-65 0 -106.5 55t-41.5 135v758q0 76 38.5 125t99.5 49h8q53 0 87 -22.5t73 -69.5v86zM272 203q0 -35 23 -35q27 0 27 35v690q0 37 -27 37q-23 0 -23 -35v-692z" />
    <glyph glyph-name="atilde.alt" horiz-adv-x="555" 
d="M297 90q-23 -40 -62 -70t-92 -30h-4q-60 0 -93.5 44t-33.5 105v342q0 63 25 101.5t78 64.5q25 12 89 38t72 30q9 5 11.5 7t5 7t2.5 14v187q0 26 -23 26h-2q-22 0 -22 -26v-209h-228v211q0 96 63.5 141t174.5 45h27q125 0 189.5 -42.5t64.5 -141.5v-750q0 -138 12 -176v-8
h-242q-12 30 -12 90zM295 190v371q-27 -17 -35 -31t-8 -43v-297q0 -28 22 -28q21 0 21 28zM330 1352h133v-109q0 -46 -23 -74t-69 -28h-4q-39 0 -95 30q-40 21 -43 21q-10 0 -10 -16v-39h-135v108q0 46 24 74.5t70 28.5h4q38 0 92 -29q38 -23 45 -23q11 0 11 17v39z" />
    <glyph glyph-name="atilde.alt2" horiz-adv-x="585" 
d="M322 1102h251v-1102h-251v88q-73 -102 -152 -102h-6q-65 0 -106.5 55t-41.5 135v758q0 76 38.5 125t99.5 49h8q53 0 87 -22.5t73 -69.5v86zM272 203q0 -35 23 -35q27 0 27 35v690q0 37 -27 37q-23 0 -23 -35v-692zM350 1343h133v-108q0 -46 -23 -74t-69 -28h-4
q-39 0 -94 30q-40 21 -43 21q-10 0 -10 -17v-39h-136v109q0 46 24.5 74t70.5 28h4q40 0 92 -28q38 -23 45 -23q10 0 10 17v38z" />
    <glyph glyph-name="racute.alt" horiz-adv-x="450" 
d="M145 1130l72 238h203l-78 -238h-197zM266 1102v-123q41 129 125 129h6q31 0 43 -6v-285q-35 10 -78 10h-10q-46 0 -65 -15t-19 -46v-766h-252v1102h250z" />
    <glyph glyph-name="rcaron.alt" horiz-adv-x="450" 
d="M137 1130l-98 238h168l31 -111l32 111h168l-96 -238h-205zM266 1102v-123q41 129 125 129h6q31 0 43 -6v-285q-35 10 -78 10h-10q-46 0 -65 -15t-19 -46v-766h-252v1102h250z" />
    <glyph glyph-name="rcommaaccent.alt" horiz-adv-x="450" 
d="M209 -332h-109q22 61 25 117h-82v186h201v-135q0 -78 -35 -168zM266 1102v-123q41 129 125 129h6q31 0 43 -6v-285q-35 10 -78 10h-10q-46 0 -65 -15t-19 -46v-766h-252v1102h250z" />
    <glyph glyph-name="space_uni0326.alt" horiz-adv-x="444" 
d="M158 1434h108q-21 -57 -24 -117h82v-187h-201v136q0 78 35 168z" />
    <glyph glyph-name="ordfeminine.alt" horiz-adv-x="348" 
d="M186 944q-36 -59 -92 -59h-4q-37 0 -57.5 25.5t-20.5 64.5v182q0 40 15.5 62t50.5 38q26 11 96 37q12 5 12 19v104q0 17 -16 17q-14 0 -14 -17v-117h-138v123q0 55 39 82t105 27h16q78 0 117 -26t39 -83v-458q0 -48 8 -68v-6h-147q-9 18 -9 53zM158 1161v-157
q0 -17 14 -17t14 19v198q-16 -8 -22 -16t-6 -27z" />
    <glyph glyph-name="ordfeminine.alt2" horiz-adv-x="366" 
d="M201 1524h151v-633h-151v53q-38 -59 -95 -59h-2q-40 0 -65 31t-25 77v432q0 45 23 74t61 29h4q34 0 55.5 -14.5t43.5 -43.5v54zM170 1012q0 -23 14 -23q17 0 17 23v387q0 22 -17 22q-14 0 -14 -22v-387z" />
    <glyph glyph-name="caron.alt" horiz-adv-x="444" 
d="M133 1278l8 246h168l-16 -246h-160z" />
    <glyph glyph-name="plus.uc" horiz-adv-x="471" 
d="M455 627h-140v-154h-159v154h-140v147h140v154h159v-154h140v-147z" />
    <glyph glyph-name="minus.uc" horiz-adv-x="456" 
d="M16 774h424v-147h-424v147z" />
    <glyph glyph-name="multiply.uc" horiz-adv-x="438" 
d="M428 594l-102 -102l-107 106l-106 -106l-103 102l107 108l-107 107l103 104l106 -108l107 108l102 -104l-106 -107z" />
    <glyph glyph-name="divide.uc" horiz-adv-x="471" 
d="M315 958v-159h-159v159h159zM16 774h439v-147h-439v147zM315 602v-160h-159v160h159z" />
    <glyph glyph-name="equal.uc" horiz-adv-x="462" 
d="M18 850h426v-135h-426v135zM18 688h426v-137h-426v137z" />
    <glyph glyph-name="less.uc" horiz-adv-x="407" 
d="M389 477l-373 148v149l373 148v-166l-192 -58l192 -55v-166z" />
    <glyph glyph-name="greater.uc" horiz-adv-x="407" 
d="M18 922l373 -148v-149l-373 -148v166l193 55l-193 58v166z" />
    <glyph glyph-name="questiondown.uc" horiz-adv-x="557" 
d="M209 1227h190v-266q0 -67 -8.5 -104t-36.5 -93l-67 -137q-23 -49 -23 -125v-285q0 -35 25 -35q14 0 18 8t4 27v369h232v-369q0 -227 -236 -227h-49q-126 0 -185 59.5t-59 163.5v266q0 80 12 128t50 110l90 147q26 42 34.5 73t8.5 81v209zM195 1260v264h219v-264h-219z
" />
    <glyph glyph-name="exclamdown.uc" horiz-adv-x="288" 
d="M279 0h-269q0 39 31 571t33 654h139q2 -129 33.5 -663t32.5 -562zM254 1524v-264h-221v264h221z" />
    <glyph glyph-name="hyphen.uc" horiz-adv-x="290" 
d="M16 817h258v-233h-258v233z" />
    <glyph glyph-name="endash.uc" horiz-adv-x="571" 
d="M16 782h539v-159h-539v159z" />
    <glyph glyph-name="emdash.uc" horiz-adv-x="864" 
d="M16 782h832v-159h-832v159z" />
    <glyph glyph-name="guilsinglleft.uc" horiz-adv-x="278" 
d="M203 614l63 -307h-188l-66 260v97l66 251h190z" />
    <glyph glyph-name="guilsinglright.uc" horiz-adv-x="278" 
d="M76 614l-66 301h189l67 -251v-97l-67 -260h-187z" />
    <glyph glyph-name="guillemotleft.uc" horiz-adv-x="479" 
d="M188 614l74 -307h-178l-72 260v97l72 251h180zM403 614l62 -307h-176l-74 307l76 301h178z" />
    <glyph glyph-name="guillemotright.uc" horiz-adv-x="479" 
d="M215 307l74 305l-74 303h178l74 -253v-97l-74 -258h-178zM12 307l64 305l-66 303h178l74 -303l-72 -305h-178z" />
    <glyph glyph-name="parenleft.uc" horiz-adv-x="311" 
d="M18 750v14q0 450 154 887h143q-33 -151 -60.5 -393.5t-27.5 -497.5t27.5 -498t60.5 -407h-143q-154 431 -154 895z" />
    <glyph glyph-name="parenright.uc" horiz-adv-x="313" 
d="M295 750q0 -448 -154 -895h-145q33 155 60.5 401t27.5 504q0 254 -27 494.5t-59 396.5h143q28 -84 47.5 -150.5t48 -186t43.5 -260t15 -290.5v-14z" />
    <glyph glyph-name="bracketleft.uc" horiz-adv-x="296" 
d="M18 -143v1794h269v-172h-72v-1454h72v-168h-269z" />
    <glyph glyph-name="bracketright.uc" horiz-adv-x="296" 
d="M10 1479v172h269v-1794h-269v168h72v1454h-72z" />
    <glyph glyph-name="braceleft.uc" horiz-adv-x="319" 
d="M27 672h-19v162h27q26 0 34.5 12.5t8.5 38.5q0 47 -20.5 308.5t-20.5 301.5q0 75 42.5 115.5t121.5 40.5h108v-164h-39q-45 0 -45 -43q0 -24 20.5 -276t20.5 -281q0 -58 -22.5 -90t-75.5 -45q53 -17 75.5 -47.5t22.5 -81.5q0 -30 -20.5 -282t-20.5 -280q0 -45 47 -45h37
v-159h-108q-164 0 -164 147q0 27 20.5 298t20.5 312q0 58 -51 58z" />
    <glyph glyph-name="braceright.uc" horiz-adv-x="317" 
d="M283 834h26v-162h-18q-49 0 -49 -58q0 -41 20.5 -312t20.5 -298q0 -74 -43.5 -110.5t-122.5 -36.5h-107v159h37q47 0 47 45q0 28 -20.5 280t-20.5 282q0 50 22.5 81t74.5 48q-52 13 -74.5 45t-22.5 90q0 29 20.5 281t20.5 276q0 23 -11 33t-36 10h-37v164h107
q81 0 123.5 -40.5t42.5 -115.5q0 -40 -20.5 -301.5t-20.5 -308.5q0 -26 8.5 -38.5t32.5 -12.5z" />
    <glyph glyph-name="slash.uc" horiz-adv-x="337" 
d="M344 1651l-184 -1796h-168l184 1796h168z" />
    <glyph glyph-name="backslash.uc" horiz-adv-x="337" 
d="M178 -145l-184 1796h170l182 -1796h-168z" />
    <glyph glyph-name="bar.uc" horiz-adv-x="288" 
d="M225 1651v-1796h-162v1796h162z" />
    <glyph glyph-name="at.uc" horiz-adv-x="937" 
d="M811 90q-19 -32 -47 -62t-69.5 -60t-101.5 -48t-128 -18q-42 0 -82 5.5t-86 21t-84.5 39.5t-75.5 64.5t-62.5 93.5t-41 129t-15.5 167v618q0 243 124 385t335 142h2q97 0 175.5 -25t139 -76.5t93.5 -138.5t33 -205v-547q0 -115 -18.5 -194t-53.5 -119.5t-75 -57
t-93 -16.5h-27q-115 0 -155 95q-65 -95 -142 -95h-4q-65 0 -105.5 51t-37.5 132l16 733q3 73 38.5 113t88.5 40h6q84 0 146 -86l2 82h231l-28 -909q0 -33 18 -33q26 0 40.5 76t14.5 188v543q0 98 -23.5 166t-68 103.5t-95 50t-116.5 14.5h-2q-144 0 -230.5 -103t-86.5 -311
v-616q0 -100 21 -175.5t51.5 -117.5t74 -68t80.5 -33.5t78 -7.5q161 0 264 148zM481 369l17 704q3 33 -21 33q-18 0 -18 -33l-17 -702q-3 -31 19 -31q17 0 20 29z" />
    <glyph glyph-name="grave.uc" horiz-adv-x="444" 
d="M291 1747l71 -195h-202l-78 195h209z" />
    <glyph glyph-name="dieresis.uc" horiz-adv-x="444" 
d="M422 1743v-191h-184v191h184zM207 1743v-191h-182v191h182z" />
    <glyph glyph-name="macron.uc" horiz-adv-x="444" 
d="M53 1561v157h338v-157h-338z" />
    <glyph glyph-name="acute.uc" horiz-adv-x="444" 
d="M82 1552l76 195h209l-82 -195h-203z" />
    <glyph glyph-name="circumflex.uc" horiz-adv-x="444" 
d="M328 1747l102 -195h-174l-35 76l-33 -76h-174l103 195h211z" />
    <glyph glyph-name="caron.uc" horiz-adv-x="444" 
d="M117 1552l-103 195h174l33 -78l35 78h174l-102 -195h-211z" />
    <glyph glyph-name="breve.uc" horiz-adv-x="444" 
d="M412 1720q0 -75 -49 -124.5t-138 -49.5h-6q-90 0 -138 49t-48 125v19h157v-17q0 -39 31 -39h2q33 0 33 39v17h156v-19z" />
    <glyph glyph-name="dotaccent.uc" horiz-adv-x="444" 
d="M348 1774v-222h-252v222h252z" />
    <glyph glyph-name="ring.uc" horiz-adv-x="444" 
d="M88 1675q0 56 38.5 91.5t96.5 35.5t95.5 -35.5t37.5 -91.5q0 -58 -37.5 -93.5t-95.5 -35.5t-96.5 35.5t-38.5 93.5zM223 1726q-23 0 -38 -15t-15 -38t15 -38t38 -15q22 0 36.5 15t14.5 38t-14.5 38t-36.5 15z" />
    <glyph glyph-name="tilde.uc" horiz-adv-x="444" 
d="M223 1718q43 -16 49 -16q11 0 11 16v33h133v-90q0 -48 -22.5 -77.5t-65.5 -29.5h-4q-32 0 -101 27q-46 16 -49 16q-12 0 -12 -16v-31h-131v95q0 47 23 74.5t67 27.5h2q10 0 18.5 -1t20 -5t17 -6t22 -8.5t22.5 -8.5z" />
    <glyph glyph-name="hungarumlaut.uc" horiz-adv-x="444" 
d="M10 1552l51 195h172l-53 -195h-170zM211 1552l53 195h174l-57 -195h-170z" />
    <glyph glyph-name="emdash.altuc" horiz-adv-x="1697" 
d="M16 782h1665v-159h-1665v159z" />
    <glyph glyph-name="f.short" horiz-adv-x="421" 
d="M414 1524v-199h-52q-22 0 -22 -25v-198h72v-205h-72v-897h-252v897h-80v205h80v287q0 65 39 100t94 35h193z" />
    <glyph glyph-name="f_f.short" horiz-adv-x="763" 
d="M430 0v897h-90v-897h-252v897h-80v205h80v287q0 65 39 100t94 35h189v-199h-48q-22 0 -22 -25v-198h90v287q0 65 39 100t94 35h193v-199h-49q-23 0 -23 -25v-198h72v-205h-72v-897h-254z" />
    <glyph glyph-name="j.short" horiz-adv-x="284" 
d="M268 1368v-238h-252v238h252zM-31 -125h25q22 0 22 23v1204h252v-1325q0 -57 -31.5 -88t-78.5 -31h-189v217z" />
    <glyph glyph-name="uni0401.alt" horiz-adv-x="475" 
d="M440 1743v-191h-184v191h184zM225 1743v-191h-182v191h182zM18 1524h439v-234h-181v-372h177v-240h-177v-440h185v-238h-443v1524z" />
    <glyph glyph-name="uni0408.alt" horiz-adv-x="403" 
d="M12 0v240h70q22 0 29.5 10.5t7.5 32.5v1241h268v-1329q0 -90 -46 -142.5t-130 -52.5h-199z" />
    <glyph glyph-name="uni0414.bgr" horiz-adv-x="698" 
d="M229 0v-178h-225v416h51l117 1286h346l125 -1286h51v-416h-225v178h-240zM381 231l-43 875l-43 -875h86z" />
    <glyph glyph-name="uni0415.alt" horiz-adv-x="475" 
d="M18 1524h439v-234h-181v-372h177v-240h-177v-440h185v-238h-443v1524z" />
    <glyph glyph-name="uni0416.bgr" horiz-adv-x="923" 
d="M336 0l4 649l-74 -649h-266l113 805l-109 719h258l78 -606l-4 606h252l-2 -592l76 592h256l-107 -705l117 -819h-271l-71 649l2 -649h-252z" />
    <glyph glyph-name="uni041A.bgr" horiz-adv-x="618" 
d="M354 0l-80 600l2 -600h-258v1524h258l-2 -549l86 549h258l-124 -690l131 -834h-271z" />
    <glyph glyph-name="uni041B.bgr" horiz-adv-x="626" 
d="M-4 0l137 1524h346l152 -1524h-279l-51 1038l-53 -1038h-252z" />
    <glyph glyph-name="uni042F.alt" horiz-adv-x="610" 
d="M332 0v653h-19q-28 0 -28 -35v-555q0 -40 -19 -63h-250v6q13 30 13 68v571q0 53 27 89t63 52q-94 41 -94 166v389q0 89 45.5 136t115.5 47h406v-1524h-260zM332 868v463h-25q-16 0 -20 -7t-4 -28v-393q0 -35 26 -35h23z" />
    <glyph glyph-name="uni0430.alt" horiz-adv-x="552" 
d="M297 90q-23 -40 -62 -70t-92 -30h-4q-60 0 -93.5 44t-33.5 105v342q0 63 25 101.5t78 64.5q25 12 89 38t72 30q9 5 11.5 7t5 7t2.5 14v187q0 26 -23 26h-2q-22 0 -22 -26v-209h-228v211q0 96 63.5 141t174.5 45h27q125 0 189.5 -42.5t64.5 -141.5v-750q0 -138 12 -176v-8
h-242q-12 30 -12 90zM295 190v371q-27 -17 -35 -31t-8 -43v-297q0 -28 22 -28q21 0 21 28z" />
    <glyph glyph-name="uni0430.alt2" horiz-adv-x="585" 
d="M322 1102h251v-1102h-251v88q-73 -102 -152 -102h-6q-65 0 -106.5 55t-41.5 135v758q0 76 38.5 125t99.5 49h8q53 0 87 -22.5t73 -69.5v86zM272 203q0 -35 23 -35q27 0 27 35v690q0 37 -27 37q-23 0 -23 -35v-692z" />
    <glyph glyph-name="uni0431.alt" horiz-adv-x="589" 
d="M573 242q0 -126 -68.5 -192t-191.5 -66h-34q-265 0 -265 258v895q0 164 65 244.5t218 99.5l170 18q63 4 98 29v-217q-37 -22 -92 -27l-111 -10q-63 -9 -85.5 -41.5t-22.5 -102.5v-116q30 53 73.5 77.5t86.5 24.5h10q149 0 149 -186v-688zM293 174q29 0 29 43v670
q0 45 -27 45t-27 -45v-670q0 -43 25 -43z" />
    <glyph glyph-name="uni0431.locl" 
d="M573 242q0 -125 -69 -191.5t-197 -66.5h-28q-265 0 -265 258v626q0 157 129 195q-125 72 -125 209q0 79 49 132.5t150 70.5l86 8q28 8 36.5 15.5t8.5 25.5h219q0 -124 -33.5 -172t-140.5 -60l-47 -2q-53 -9 -75.5 -26t-22.5 -47q0 -27 16.5 -44t57.5 -40l57 -29
q100 -36 147 -88t47 -146v-628zM268 219q0 -45 27 -45t27 45v672q0 41 -29 41q-25 0 -25 -41v-672z" />
    <glyph glyph-name="uni0431.loclalt" horiz-adv-x="589" 
d="M573 242q0 -125 -69 -191.5t-197 -66.5h-28q-265 0 -265 258v626q0 157 129 195q-62 36 -93.5 86.5t-31.5 128.5q0 102 66.5 162t194.5 63l190 4q66 0 94 21v-209q-42 -21 -106 -21l-113 -2q-49 -2 -72.5 -19t-23.5 -54q0 -31 17.5 -49.5t56.5 -40.5l57 -29
q100 -36 147 -88t47 -146v-628zM268 219q0 -45 27 -45t27 45v672q0 41 -29 41q-25 0 -25 -41v-672z" />
    <glyph glyph-name="uni0432.bgr" 
d="M14 240v1038q0 116 64.5 185t197.5 69h35q252 0 252 -238v-301q0 -83 -18 -122.5t-68 -65.5q50 -22 73 -61t23 -121v-383q0 -112 -64 -184t-194 -72h-43q-258 0 -258 256zM266 1321v-420h27q22 0 22 23v397q0 31 -24 31q-25 0 -25 -31zM266 201q0 -33 27 -33q29 0 29 33
v467q0 28 -29 28h-27v-495z" />
    <glyph glyph-name="uni0433.bgr" horiz-adv-x="522" 
d="M514 180q0 -196 -221 -196h-62q-105 0 -164 53.5t-59 155.5v202q0 80 27 130.5t100 101.5l111 75q21 13 27 26t6 42v168q0 29 -23 29q-20 0 -20 -29v-211h-216v211q0 180 213 180h56q219 0 219 -192v-172q0 -72 -23.5 -123.5t-93.5 -98.5l-108 -71q-23 -17 -29 -33.5
t-6 -54.5v-193q0 -26 22 -26q23 0 23 26v256h221v-256z" />
    <glyph glyph-name="uni0433.locl" horiz-adv-x="432" 
d="M14 0v1102h410v-205h-156v-897h-254z" />
    <glyph glyph-name="uni0434.bgr" horiz-adv-x="589" 
d="M575 -147q0 -97 -63.5 -151t-183.5 -54h-60q-123 0 -180 47t-57 125v153h245v-123q0 -26 23 -26q25 0 25 29v231q-69 -96 -154 -96q-66 0 -109 47.5t-43 128.5v772q0 72 37.5 123t104.5 51h8q35 0 68 -17.5t49 -33.5t41 -45v88h249v-1249zM274 195q0 -33 25 -33t25 33
v702q0 33 -25 33t-25 -33v-702z" />
    <glyph glyph-name="uni0434.locl" horiz-adv-x="649" 
d="M229 -176h-225v381h37q15 153 18 258q4 121 4 639h529v-897h49v-381h-225v176h-187v-176zM279 442q-6 -150 -19 -237h80v694h-53q0 -231 -8 -457z" />
    <glyph glyph-name="uni0436.bgr" horiz-adv-x="860" 
d="M303 0l2 475l-67 -475h-242l104 610l-94 492h238l61 -400l-2 822h252v-811l61 389h234l-92 -479l106 -623h-243l-66 463v-463h-252z" />
    <glyph glyph-name="uni0437.bgr" horiz-adv-x="557" 
d="M541 -133q0 -105 -65.5 -162t-180.5 -57h-49q-108 0 -171 55.5t-63 149.5v495h228v-491q0 -29 24 -29q25 0 25 29v503q0 39 -31 39h-108v193h108q27 0 27 35v286q0 31 -23 31q-22 0 -22 -29v-274h-228v270q0 95 54.5 151t171.5 56h55q123 0 181 -57t58 -152v-258
q0 -119 -81 -151q45 -20 67.5 -54t22.5 -110v-469z" />
    <glyph glyph-name="uni0438.bgr" 
d="M571 1102v-1102h-247v96q-75 -104 -168 -104h-9q-66 0 -98.5 45.5t-32.5 97.5v967h254v-889q0 -33 27 -33q22 0 22 35v887h252z" />
    <glyph glyph-name="uni0439.bgr" 
d="M571 0v1102h-252v-887q0 -35 -22 -35q-27 0 -27 33v889h-254v-967q0 -52 32.5 -97.5t98.5 -45.5h9q93 0 168 104v-96h247zM483 1307q0 -84 -49 -132.5t-137 -48.5h-4q-94 0 -141.5 47.5t-47.5 133.5v24h158v-16q0 -51 31 -51h2q33 0 33 51v16h155v-24z" />
    <glyph glyph-name="uni043A.bgr" horiz-adv-x="575" 
d="M268 0h-252v1524h252v-781l62 359h237l-92 -465l105 -637h-246l-68 455z" />
    <glyph glyph-name="uni043B.bgr" horiz-adv-x="552" 
d="M-6 0l119 1102h325l119 -1102h-254l-31 743l-30 -743h-248z" />
    <glyph glyph-name="uni043D.bgr" horiz-adv-x="589" 
d="M268 0h-254v1102h254v-461h54v461h251v-1102h-251v436h-54v-436z" />
    <glyph glyph-name="uni043F.bgr" 
d="M16 0v1102h248v-96q78 106 168 106h10q69 0 100 -45.5t31 -97.5v-969h-254v889q0 35 -26 35q-25 0 -25 -37v-887h-252z" />
    <glyph glyph-name="uni043F.locl" 
d="M268 0h-254v1102h559v-1102h-254v897h-51v-897z" />
    <glyph glyph-name="uni0442.bgr" horiz-adv-x="884" 
d="M268 889v-889h-252v1102h248v-96q68 106 160 106h10q98 0 127 -102q70 102 166 102h10q36 0 63 -15t41 -38.5t20.5 -47t6.5 -44.5v-967h-256v889q0 11 -1 17.5t-5.5 11t-13.5 4.5q-25 0 -25 -33v-889h-254v889q0 33 -22 33q-23 0 -23 -33z" />
    <glyph glyph-name="uni0442.locl" horiz-adv-x="495" 
d="M121 0v897h-113v205h481v-205h-114v-897h-254z" />
    <glyph glyph-name="uni0446.bgr" horiz-adv-x="628" 
d="M571 1102v-897h52v-381h-226v176h-73v96q-75 -104 -168 -104h-9q-66 0 -98.5 45.5t-32.5 97.5v967h254v-889q0 -33 27 -33q22 0 22 35v887h252z" />
    <glyph glyph-name="uni0447.bgr" horiz-adv-x="583" 
d="M264 668q0 -35 31 -35q14 0 20 4v465h252v-1102h-252v434q-47 -8 -98 -8q-105 0 -156 51t-51 158v467h254v-434z" />
    <glyph glyph-name="uni0448.bgr" horiz-adv-x="884" 
d="M616 213v889h252v-1102h-247v96q-68 -106 -160 -106h-10q-98 0 -127 102q-70 -102 -166 -102h-11q-36 0 -63 15t-41 38.5t-20.5 47t-6.5 44.5v967h256v-889q0 -33 21 -33q24 0 24 33v889h254v-889q0 -33 23 -33q22 0 22 33z" />
    <glyph glyph-name="uni0449.bgr" horiz-adv-x="925" 
d="M616 213v889h252v-897h52v-381h-226v176h-73v96q-68 -106 -160 -106h-10q-98 0 -127 102q-70 -102 -166 -102h-11q-36 0 -63 15t-41 38.5t-20.5 47t-6.5 44.5v967h256v-889q0 -33 21 -33q24 0 24 33v889h254v-889q0 -33 23 -33q22 0 22 33z" />
    <glyph glyph-name="uni044A.bgr" horiz-adv-x="671" 
d="M367 -16q-267 0 -267 262v651h-96v205h350v-377h41q264 0 264 -227v-254q0 -117 -66 -188.5t-198 -71.5h-28zM354 211q0 -37 27 -37q25 0 25 37v285q0 43 -33 43h-19v-328z" />
    <glyph glyph-name="uni044C.bgr" horiz-adv-x="585" 
d="M281 -16q-267 0 -267 262v856h254v-377h41q264 0 264 -227v-254q0 -117 -66 -188.5t-198 -71.5h-28zM268 211q0 -37 27 -37q24 0 24 37v285q0 23 -7.5 33t-24.5 10h-19v-328z" />
    <glyph glyph-name="uni044E.bgr" horiz-adv-x="880" 
d="M866 252q0 -134 -68.5 -201t-193.5 -67h-39q-132 0 -195 65.5t-63 202.5v184h-39v-436h-254v1524h254v-883h39v209q0 133 66.5 200.5t191.5 67.5h41q260 0 260 -268v-598zM561 211q0 -20 5.5 -28.5t19.5 -8.5q26 0 26 37v684q0 39 -26 39q-25 0 -25 -39v-684z" />
    <glyph glyph-name="uni044F.alt" horiz-adv-x="591" 
d="M279 76q0 -59 -17 -76h-248v4q13 30 13 70v313q0 97 55 135q-62 50 -62 156v207q0 217 226 217h332v-1102h-254v410h-15q-19 0 -24.5 -9.5t-5.5 -35.5v-289zM324 608v307h-15q-19 0 -27 -9.5t-8 -35.5v-225q0 -20 8 -28.5t27 -8.5h15z" />
    <glyph glyph-name="uni0458.short" horiz-adv-x="282" 
d="M268 1368v-238h-252v238h252zM-31 -125h25q22 0 22 23v1204h252v-1325q0 -57 -31.5 -88t-78.5 -31h-189v217z" />
    <glyph glyph-name="f_b" horiz-adv-x="1009" 
d="M414 1524v-199h-52q-22 0 -22 -25v-198h72v-205h-72v-897h-252v897h-80v205h80v287q0 65 39 100t94 35h193zM438 1524h252v-516q71 100 160 100h8q65 0 100 -48.5t35 -123.5v-764q0 -73 -43 -128.5t-108 -55.5h-4q-56 0 -95.5 28t-74.5 84q-11 -47 -15 -100h-215v1524z
M690 199q0 -35 23 -35q24 0 24 33v702q0 33 -22 33q-25 0 -25 -33v-700z" />
    <glyph glyph-name="f_f_b" horiz-adv-x="1351" 
d="M430 0v897h-90v-897h-252v897h-80v205h80v287q0 65 39 100t94 35h189v-199h-48q-22 0 -22 -25v-198h90v287q0 65 39 100t94 35h193v-199h-49q-23 0 -23 -25v-198h72v-205h-72v-897h-254zM780 1524h252v-516q71 100 160 100h8q65 0 100 -48.5t35 -123.5v-764
q0 -73 -43 -128.5t-108 -55.5h-4q-56 0 -95.5 28t-74.5 84q-11 -47 -15 -100h-215v1524zM1032 199q0 -35 23 -35q24 0 24 33v702q0 33 -22 33q-25 0 -25 -33v-700z" />
    <glyph glyph-name="f_f_h" horiz-adv-x="1353" 
d="M430 0v897h-90v-897h-252v897h-80v205h80v287q0 65 39 100t94 35h189v-199h-48q-22 0 -22 -25v-198h90v287q0 65 39 100t94 35h193v-199h-49q-23 0 -23 -25v-198h72v-205h-72v-897h-254zM780 0v1524h252v-514q73 102 164 102h8q37 0 64.5 -14t41.5 -37t20.5 -46t6.5 -46
v-969h-254v889q0 35 -26 35q-25 0 -25 -37v-887h-252z" />
    <glyph glyph-name="f_f_j" horiz-adv-x="1048" 
d="M430 0v897h-90v-897h-252v897h-80v205h80v287q0 65 39 100t94 35h189v-199h-48q-22 0 -22 -25v-198h90v287q0 65 39 100t94 35h193v-199h-49q-23 0 -23 -25v-198h72v-205h-72v-897h-254zM1032 1368v-238h-252v238h252zM709 -125h49q22 0 22 25v1202h252v-1325
q0 -57 -32 -88t-78 -31h-213v217z" />
    <glyph glyph-name="f_f_k" horiz-adv-x="1339" 
d="M430 0v897h-90v-897h-252v897h-80v205h80v287q0 65 39 100t94 35h189v-199h-48q-22 0 -22 -25v-198h90v287q0 65 39 100t94 35h193v-199h-49q-23 0 -23 -25v-198h72v-205h-72v-897h-254zM1032 0h-252v1524h252v-781l62 359h237l-92 -465l104 -637h-245l-68 455z" />
    <glyph glyph-name="f_h" horiz-adv-x="1011" 
d="M414 1524v-199h-52q-22 0 -22 -25v-198h72v-205h-72v-897h-252v897h-80v205h80v287q0 65 39 100t94 35h193zM438 0v1524h252v-514q73 102 164 102h8q37 0 64.5 -14t41.5 -37t20.5 -46t6.5 -46v-969h-254v889q0 35 -26 35q-25 0 -25 -37v-887h-252z" />
    <glyph glyph-name="f_j" horiz-adv-x="706" 
d="M414 1524v-199h-52q-22 0 -22 -25v-198h72v-205h-72v-897h-252v897h-80v205h80v287q0 65 39 100t94 35h193zM690 1368v-238h-252v238h252zM367 -125h49q22 0 22 25v1202h252v-1325q0 -57 -32 -88t-78 -31h-213v217z" />
    <glyph glyph-name="f_k" horiz-adv-x="997" 
d="M414 1524v-199h-52q-22 0 -22 -25v-198h72v-205h-72v-897h-252v897h-80v205h80v287q0 65 39 100t94 35h193zM690 0h-252v1524h252v-781l62 359h237l-92 -465l104 -637h-245l-68 455z" />
    </font>
</defs>
</svg>
