<?xml version="1.0" standalone="no"?>
<!DOCTYPE svg PUBLIC "-//W3C//DTD SVG 1.1//EN" "http://www.w3.org/Graphics/SVG/1.1/DTD/svg11.dtd" >
<svg xmlns="http://www.w3.org/2000/svg" xmlns:xlink="http://www.w3.org/1999/xlink" version="1.1">
<metadata>
Created by FontForge 20170731 at Sun May 23 11:50:56 2021
 By Aleksey,,,
Copyright (c) 2018 by Jorge Cisterna. All rights reserved.
</metadata>
<defs>
<font id="Recoleta-Medium" horiz-adv-x="1228" >
  <font-face 
    font-family="Recoleta Medium"
    font-weight="500"
    font-stretch="normal"
    units-per-em="2048"
    panose-1="0 0 6 0 0 0 0 0 0 0"
    ascent="1638"
    descent="-410"
    x-height="983"
    cap-height="1454"
    bbox="-1446 -638.6 2767 1966"
    underline-thickness="102"
    underline-position="-307"
    unicode-range="U+0020-FB02"
  />
<missing-glyph horiz-adv-x="1085" 
d="M102 1495h881v-1495h-881v1495zM236 1423l307 -587l307 587h-614zM498 748l-314 598v-1196zM590 748l311 -598v1196zM543 659l-307 -587h614z" />
    <glyph glyph-name="fi" unicode="fi" horiz-adv-x="1316" 
d="M676 1427q-99 0 -169.5 -94t-70.5 -243v-107h269q15 0 24.5 -10.5t9.5 -24.5v-33q0 -14 -9.5 -23t-24.5 -9h-269v-711q0 -28 15.5 -49.5t34 -32t34 -24.5t15.5 -29v-8q0 -12 -10 -20.5t-25 -8.5h-340q-17 0 -27 8.5t-10 20.5v8q0 15 12.5 29t27.5 24.5t27.5 32t12.5 49.5
v711h-158q-15 0 -26 9.5t-11 22.5v33q0 14 11 24.5t26 10.5h158v84q0 137 67 237.5t181 150.5t262 50q97 0 179 -26.5t132 -67t78 -86t28 -86.5q0 -40 -26.5 -66t-67.5 -26q-38 0 -67.5 15.5t-49 40t-36.5 54.5t-35.5 60t-40 54.5t-55 40t-76.5 15.5zM1174 172q0 -27 13 -48
t28.5 -31.5t28.5 -24.5t13 -29v-8q0 -14 -12.5 -22.5t-32.5 -8.5h-317q-20 0 -31.5 8.5t-11.5 22.5v8q0 15 12 29t26 24.5t26 31.5t12 48v537q0 28 -12 52t-26 36.5t-26 26.5t-12 26v6q0 18 37 37l211 102q35 15 54.5 4t19.5 -38v-789z" />
    <glyph glyph-name="fl" unicode="fl" horiz-adv-x="1316" 
d="M1174 170q0 -27 13 -48t28.5 -31t28.5 -24.5t13 -29.5v-6q0 -14 -12.5 -22.5t-32.5 -8.5h-317q-20 0 -31.5 8.5t-11.5 22.5v6q0 15 12 29.5t26 24.5t26 31t12 48v1022q-18 20 -37 54.5t-34.5 63t-38 56.5t-58.5 44t-84 17q-98 2 -169 -92.5t-71 -244.5v-107h269
q15 0 24.5 -10.5t9.5 -24.5v-33q0 -14 -9.5 -23t-24.5 -9h-269v-711q0 -28 15.5 -49.5t34 -32t34 -24.5t15.5 -29v-8q0 -12 -10 -20.5t-25 -8.5h-340q-17 0 -27 8.5t-10 20.5v8q0 15 12.5 29t27.5 24.5t27.5 32t12.5 49.5v711h-158q-15 0 -26 9.5t-11 22.5v33q0 14 11 24.5
t26 10.5h158v84q0 137 67 237.5t181 150.5t262 50q128 0 233 -45l154 74q34 16 54 4.5t20 -37.5v-1331z" />
    <glyph glyph-name=".notdef" horiz-adv-x="1085" 
d="M102 1495h881v-1495h-881v1495zM236 1423l307 -587l307 587h-614zM498 748l-314 598v-1196zM590 748l311 -598v1196zM543 659l-307 -587h614z" />
    <glyph glyph-name=".null" horiz-adv-x="0" 
 />
    <glyph glyph-name="nonmarkingreturn" horiz-adv-x="682" 
 />
    <glyph glyph-name="space" unicode=" " horiz-adv-x="440" 
 />
    <glyph glyph-name="exclam" unicode="!" horiz-adv-x="524" 
d="M209 420q-31 208 -50.5 499t-23.5 470q0 35 26.5 59.5t64.5 30.5t75.5 1t64 -29t25.5 -60q-2 -169 -23.5 -464t-56.5 -507q-4 -20 -27.5 -27.5t-47 0t-27.5 27.5zM264 -25q-69 0 -114.5 38.5t-45.5 107.5q0 71 45 109t115 38q68 0 113 -38.5t45 -108.5q0 -69 -45 -107.5
t-113 -38.5z" />
    <glyph glyph-name="quotedbl" unicode="&#x22;" horiz-adv-x="815" 
d="M143 897q-15 69 -35.5 222.5t-23.5 238.5q0 61 37 94t88 33q54 0 90.5 -32.5t36.5 -94.5q-3 -85 -26 -238t-40 -223q-9 -30 -37 -41t-55.5 1t-34.5 40zM543 897q-15 71 -36 223.5t-24 237.5q0 61 37 94t88 33q54 0 90.5 -32.5t36.5 -94.5q-3 -85 -26 -238.5t-39 -222.5
q-9 -30 -37 -41t-55.5 1t-34.5 40z" />
    <glyph glyph-name="numbersign" unicode="#" horiz-adv-x="1398" 
d="M1303 983q34 0 34 -27v-71q0 -27 -34 -27h-242l-72 -274h244q37 0 37 -25v-74q0 -24 -37 -24h-277l-114 -438q-6 -23 -41 -23h-90q-34 0 -23 41l113 420h-348l-115 -438q-6 -23 -39 -23h-92q-34 0 -23 41l113 420h-199q-37 0 -37 24v74q0 10 11 17.5t26 7.5h232l71 274
h-235q-15 0 -25 8t-10 19v71q0 12 10 19.5t25 7.5h270l99 371q6 24 34 24h90q35 0 25 -43l-92 -352h348l98 371q6 24 33 24h92q37 0 23 -43l-92 -352h209zM834 584l71 274h-346l-74 -274h349z" />
    <glyph glyph-name="dollar" unicode="$" horiz-adv-x="1138" 
d="M1067 397q0 -155 -127.5 -273.5t-329.5 -131.5v-195q0 -37 -26 -37h-45q-27 0 -27 37v195q-104 6 -192 39.5t-141.5 79.5t-83 94.5t-29.5 89.5q0 59 30.5 91t77.5 32q44 0 79 -29.5t61 -74t51.5 -91.5t63 -88.5t83.5 -58.5v530q-163 66 -228 105q-163 99 -194 259
q-8 41 -8 87q0 165 120 274t322 119v127q0 15 7.5 25t19.5 10h43q12 0 20.5 -10t8.5 -25v-129q187 -14 299 -99.5t112 -183.5q0 -56 -29.5 -89.5t-82.5 -33.5q-41 0 -70.5 28.5t-49 71.5t-40.5 88t-56 83t-83 51v-528q159 -62 198 -81q159 -78 213 -194q33 -71 33 -164z
M332 1145q0 -97 49.5 -158.5t142.5 -107.5v487q-89 -12 -140.5 -72.5t-51.5 -148.5zM610 68q87 12 147 82.5t60 166.5q0 88 -53.5 144.5t-153.5 101.5v-495z" />
    <glyph glyph-name="percent" unicode="%" horiz-adv-x="1814" 
d="M430 698q-156 0 -265.5 110.5t-109.5 276.5q0 171 102.5 280.5t266.5 109.5q153 0 262 -114t109 -280q0 -169 -107 -276t-258 -107zM471 0q-20 0 -26.5 12t4.5 29l768 1391q13 22 32 22h88q19 0 25.5 -12t-2.5 -29l-764 -1390q-14 -23 -41 -23h-84zM453 768
q70 0 106.5 65t36.5 168q0 94 -23.5 184.5t-72.5 154t-111 63.5q-73 0 -110 -68t-37 -174q0 -97 25 -186t74 -148t112 -59zM1395 -20q-156 0 -265.5 110.5t-109.5 278.5q0 171 102.5 279t266.5 108q154 0 262 -112.5t108 -278.5q0 -169 -107 -277t-257 -108zM1417 49
q70 0 107 66t37 168q0 95 -23.5 186t-72.5 154t-111 63q-73 0 -110.5 -68.5t-37.5 -173.5q0 -99 25 -188t74 -148t112 -59z" />
    <glyph glyph-name="ampersand" unicode="&#x26;" horiz-adv-x="1486" 
d="M1440 135q43 0 43 -33v-10q0 -38 -59.5 -75t-133.5 -37q-86 0 -148.5 34t-127.5 105q-185 -139 -436 -139q-244 0 -376 96.5t-132 288.5q0 70 28 133.5t79 115t107 91t128 77.5q-89 99 -134 177.5t-45 173.5q0 153 112.5 246.5t295.5 93.5q169 0 273 -84.5t104 -221.5
q0 -64 -26.5 -121.5t-72 -101.5t-95 -77t-107.5 -60l356 -389q86 208 86 463q0 38 44.5 54t89 0t44.5 -56q0 -343 -155 -580l41 -43q63 -69 99.5 -95t66.5 -26h51zM616 1393q-63 0 -101 -55t-38 -144q0 -81 38.5 -145.5t117.5 -149.5q151 101 151 272q0 100 -46.5 161
t-121.5 61zM612 53q186 0 326 150l-444 489q-181 -129 -181 -350q0 -129 78 -209t221 -80z" />
    <glyph glyph-name="quotesingle" unicode="'" horiz-adv-x="415" 
d="M143 897q-15 69 -35.5 222.5t-23.5 238.5q0 61 37 94t88 33q54 0 90.5 -32.5t36.5 -94.5q-3 -85 -26 -238t-40 -223q-9 -30 -37 -41t-55.5 1t-34.5 40z" />
    <glyph glyph-name="parenleft" unicode="(" horiz-adv-x="546" 
d="M418 -205q-153 146 -248.5 373.5t-95.5 521.5q0 295 96 522t250 373q34 31 63.5 11t5.5 -62q-93 -141 -142.5 -362t-49.5 -482t49.5 -482t142.5 -362q24 -42 -5.5 -62t-65.5 11z" />
    <glyph glyph-name="parenright" unicode=")" horiz-adv-x="546" 
d="M129 -205q-36 -31 -66.5 -11t-7.5 62q94 141 144.5 362t50.5 482t-50.5 482t-144.5 362q-23 42 6.5 61.5t65.5 -10.5q155 -147 250.5 -373.5t95.5 -521.5q0 -293 -95.5 -519.5t-248.5 -375.5z" />
    <glyph glyph-name="asterisk" unicode="*" horiz-adv-x="802" 
d="M315 872q-24 -57 -79 -49q-44 7 -67 45q-29 47 15 86l2 2l166 154l-209 29q-61 3 -73 51q-10 42 20 76q38 40 90 12l189 -100l-43 208q-12 46 11.5 74.5t70.5 30.5q46 2 69 -27t8 -78l-47 -208l187 100q55 31 90 -10q28 -34 17 -77q-13 -48 -68 -52l-205 -29l166 -158
q42 -38 13 -84q-24 -37 -68 -42q-54 -5 -78 51l-86 194z" />
    <glyph glyph-name="plus" unicode="+" 
d="M563 131q-26 0 -26 39v324h-322q-35 0 -39 26l2 98q0 27 37 27h322v324q0 39 26 39h103q26 0 26 -39v-324l324 2q17 0 27 -7.5t10 -18.5v-101q0 -26 -37 -26h-322v-324q0 -39 -28 -39h-103z" />
    <glyph glyph-name="comma" unicode="," horiz-adv-x="468" 
d="M150 -289q-27 -15 -49 7.5t1 45.5q57 55 82 95t33 86q7 35 -20 35q-50 0 -83.5 40.5t-33.5 104.5q0 71 41.5 116.5t109.5 45.5q67 0 113.5 -50t46.5 -135q0 -112 -60.5 -212.5t-180.5 -178.5z" />
    <glyph glyph-name="hyphen" unicode="-" horiz-adv-x="940" 
d="M143 600q-34 0 -34 37v55q0 35 34 35h654q34 0 34 -35v-55q0 -37 -34 -37h-654z" />
    <glyph glyph-name="period" unicode="." horiz-adv-x="489" 
d="M246 -20q-69 0 -114.5 38t-45.5 107q0 71 45 109t115 38q68 0 112.5 -38.5t44.5 -108.5q0 -69 -44.5 -107t-112.5 -38z" />
    <glyph glyph-name="slash" unicode="/" horiz-adv-x="776" 
d="M78 -203q-35 0 -25 41l518 1768q6 24 39 24h86q36 0 25 -41l-512 -1767q-6 -25 -41 -25h-90z" />
    <glyph glyph-name="zero" unicode="0" horiz-adv-x="1370" 
d="M694 -20q-130 0 -242.5 52.5t-194 148t-128.5 237.5t-47 313q0 345 159.5 544.5t442.5 199.5q129 0 240.5 -55t192.5 -152.5t127 -238.5t46 -306q0 -171 -45.5 -312t-125.5 -234.5t-189 -145t-236 -51.5zM731 80q137 0 226.5 143.5t89.5 388.5q0 196 -50.5 369t-144 281
t-207.5 108q-141 0 -230 -147.5t-89 -401.5q0 -201 50.5 -370t144 -270t210.5 -101z" />
    <glyph glyph-name="one" unicode="1" horiz-adv-x="641" 
d="M154 0q-41 0 -41 29v6q0 15 16 30.5t35 28t35 36.5t16 54v965q0 35 -14 55t-33.5 26t-39.5 10t-34 13t-14 27v8q0 26 47 47l250 111q54 20 84.5 6.5t30.5 -47.5q0 -19 -12.5 -38t-25 -48t-12.5 -72v-1063q0 -30 17 -54t37.5 -36.5t37.5 -28t17 -30.5v-6q0 -29 -41 -29
h-356z" />
    <glyph glyph-name="two" unicode="2" horiz-adv-x="1202" 
d="M1112 346q18 0 27.5 -11.5t5.5 -29.5l-60 -260q-14 -45 -51 -45h-921q-19 0 -32 11.5t-13 29.5v20q0 85 41.5 170t107.5 157t145.5 143t159.5 140t146 137t107.5 145t41.5 153q0 119 -69 192.5t-152 73.5q-71 0 -121.5 -37.5t-78 -90.5t-51.5 -106t-57.5 -90.5
t-80.5 -37.5q-56 0 -90.5 31t-34.5 87q0 59 36.5 120t100 112t160 83t205.5 32q215 0 346 -100t131 -290q0 -86 -39.5 -166t-103.5 -143.5t-142 -123.5t-159.5 -116.5t-152 -111t-122.5 -119t-68 -129.5h623q37 0 66 17.5t45.5 42.5t30 50t27 42.5t28.5 17.5h18z" />
    <glyph glyph-name="three" unicode="3" horiz-adv-x="1161" 
d="M606 838q215 -3 347 -116.5t132 -295.5q0 -191 -144.5 -318.5t-393.5 -127.5q-120 0 -216 26t-151.5 67t-84.5 86.5t-29 90.5q0 58 29 91.5t81 33.5q31 0 56 -16t43.5 -42t36 -57t39 -62.5t48 -57.5t67 -42t91.5 -16q127 0 206 80.5t79 214.5q0 165 -88.5 256.5
t-227.5 91.5h-28q-39 0 -52 27.5t11 58.5l342 432h-660q-51 0 -51 49v117q0 45 49 45h893q45 0 45 -39v-22q0 -20 -7.5 -35.5t-29.5 -40.5z" />
    <glyph glyph-name="four" unicode="4" horiz-adv-x="1171" 
d="M1092 459q15 0 24.5 -8.5t9.5 -22.5v-51q0 -14 -9.5 -22.5t-24.5 -8.5h-152v-172q0 -30 14 -52.5t30 -33.5t30 -24.5t14 -28.5v-6q0 -29 -41 -29h-336q-41 0 -41 29v6q0 15 13 28.5t28 24.5t28 33.5t13 52.5v172h-614q-32 0 -50 14.5t-18 40.5v9q0 46 25 84l608 892
q24 36 49.5 52t63.5 16h143q41 0 41 -43v-952h152zM147 459h545l2 796z" />
    <glyph glyph-name="five" unicode="5" horiz-adv-x="1165" 
d="M614 913q131 0 240.5 -53.5t176.5 -155.5t67 -233q0 -215 -148 -353t-391 -138q-121 0 -218.5 24.5t-156.5 65t-90 88t-31 96.5q0 60 35.5 88.5t85.5 28.5q28 0 51 -15.5t39.5 -40.5t33.5 -54.5t38.5 -59.5t48.5 -55t69.5 -40.5t96.5 -15.5q128 0 210.5 89t82.5 243
q0 182 -81.5 282.5t-229.5 100.5q-74 0 -137.5 -24.5t-137.5 -75.5q-40 -32 -88.5 -10t-42.5 69l84 657q3 33 41 33h756q35 0 35 -37v-123q0 -37 -35 -37h-680l-88 -452q139 108 364 108z" />
    <glyph glyph-name="six" unicode="6" horiz-adv-x="1224" 
d="M670 938q97 0 181 -32t148.5 -93t102 -157.5t37.5 -217.5q0 -131 -67.5 -236t-183.5 -163.5t-257 -58.5q-156 0 -280.5 90t-196.5 256t-72 379q0 124 22.5 237.5t69.5 211t114.5 169t162.5 112t208 40.5q112 0 205.5 -32t149 -81.5t86 -105t30.5 -107.5
q0 -60 -33.5 -89.5t-84.5 -29.5q-45 0 -78.5 25t-51.5 63t-40 82t-43.5 82t-61.5 64t-94 26q-137 0 -221.5 -155t-93.5 -422q61 67 152 105t190 38zM659 82q108 0 174 83t66 222q0 125 -36.5 227t-105.5 162t-157 60q-105 0 -182 -73.5t-86 -170.5q20 -236 106.5 -373
t220.5 -137z" />
    <glyph glyph-name="seven" unicode="7" horiz-adv-x="1069" 
d="M1014 1454q43 0 43 -37v-22q0 -23 -25 -86l-516 -1266q-15 -43 -63 -43h-148q-28 0 -39.5 20.5t-1.5 40.5l621 1203h-617q-35 0 -62.5 -29t-41.5 -63.5t-35 -63.5t-45 -29h-23q-42 0 -36 47l43 275q5 28 18 40.5t41 12.5h887z" />
    <glyph glyph-name="eight" unicode="8" horiz-adv-x="1230" 
d="M831 778q58 -26 101 -50t88 -59.5t73.5 -74t47 -92.5t18.5 -117q0 -133 -73.5 -226t-195 -136t-278.5 -43q-132 0 -238 31.5t-170.5 83.5t-98 116t-33.5 133q0 65 23.5 121.5t57.5 96t85 75t92.5 56.5t93.5 42q-65 32 -112 64t-90 75.5t-65 99.5t-22 122q0 172 133 274.5
t361 102.5q113 0 203 -29.5t146 -80t85 -114t29 -135.5q0 -215 -261 -336zM616 1376q-112 0 -181.5 -61t-69.5 -156q0 -49 17.5 -91.5t43.5 -72.5t70.5 -59.5t83.5 -49t98 -44.5q83 49 146 129t63 178q0 92 -75.5 159.5t-195.5 67.5zM639 82q128 0 209.5 64.5t81.5 168.5
q0 40 -12 76.5t-28.5 64t-49 56t-58 47t-72 43t-75.5 37.5t-82 37q-12 5 -18 8q-100 -53 -172 -144t-72 -196q0 -118 96 -190t252 -72z" />
    <glyph glyph-name="nine" unicode="9" horiz-adv-x="1214" 
d="M586 1475q250 0 398.5 -198.5t148.5 -526.5q0 -233 -63.5 -405t-190 -268.5t-304.5 -96.5q-106 0 -196.5 28.5t-149 75t-91 104t-32.5 117.5q0 54 34 85.5t87 31.5q36 0 63 -19t45 -48.5t34 -66t34.5 -73t41.5 -66t60.5 -48.5t86.5 -19q76 0 132.5 44.5t91.5 126.5
t53 188.5t20 238.5q-109 -148 -340 -148q-97 0 -181.5 31t-149 90.5t-101.5 154t-37 212.5q0 195 141.5 325t364.5 130zM618 635q119 0 190 75t71 191q-17 135 -57 238t-111.5 168t-165.5 65q-103 0 -165.5 -79.5t-62.5 -215.5q0 -180 85 -311t216 -131z" />
    <glyph glyph-name="colon" unicode=":" horiz-adv-x="520" 
d="M260 670q-69 0 -113.5 38t-44.5 107q0 71 44.5 109.5t113.5 38.5q68 0 113 -38.5t45 -109.5q0 -69 -45 -107t-113 -38zM260 -20q-69 0 -113.5 38t-44.5 107q0 71 44.5 109t113.5 38q68 0 113 -38.5t45 -108.5q0 -69 -45 -107t-113 -38z" />
    <glyph glyph-name="semicolon" unicode=";" horiz-adv-x="548" 
d="M279 670q-68 0 -113 38t-45 107q0 71 45 109.5t113 38.5q69 0 114 -38.5t45 -109.5q0 -69 -45 -107t-114 -38zM190 -289q-27 -15 -48.5 7.5t1.5 45.5q57 55 82.5 95t34.5 86q4 35 -22 35q-48 0 -82.5 41t-34.5 104q0 71 41.5 116.5t109.5 45.5q67 0 113.5 -50t46.5 -135
q0 -112 -61 -212.5t-181 -178.5z" />
    <glyph glyph-name="less" unicode="&#x3c;" 
d="M920 299q34 -17 34 -41v-135q0 -16 -12 -23.5t-37 2.5l-633 324q-41 18 -41 55v148q0 22 10 33.5t33 21.5l631 311q21 9 33 0t12 -24v-131q0 -29 -35 -41l-540 -246z" />
    <glyph glyph-name="equal" unicode="=" 
d="M225 674q-37 0 -37 26v103q0 12 10 20t27 8h779q15 0 24.5 -8t9.5 -20v-103q0 -26 -34 -26h-779zM225 297q-37 0 -37 27v102q0 27 37 27h779q15 0 24.5 -7.5t9.5 -19.5v-102q0 -12 -9.5 -19.5t-24.5 -7.5h-779z" />
    <glyph glyph-name="greater" unicode="&#x3e;" 
d="M952 684q24 -10 34.5 -21.5t10.5 -33.5v-150q0 -37 -43 -55l-632 -324q-23 -10 -36.5 -2t-13.5 23v135q0 25 37 41l553 254l-545 246q-36 13 -36 41v133q0 15 12 24t33 0z" />
    <glyph glyph-name="question" unicode="?" horiz-adv-x="1085" 
d="M403 424q-10 65 5.5 122.5t48 101.5t74 85.5t85.5 82.5t80.5 84t60 99.5t23.5 120.5q0 116 -67.5 184t-157.5 68q-71 0 -120.5 -37.5t-75.5 -90.5t-48.5 -106t-55 -90.5t-79.5 -37.5q-56 0 -90.5 31t-34.5 87q0 57 37 117.5t100 112t157.5 84.5t199.5 33
q137 0 242.5 -39.5t171 -127t65.5 -214.5q0 -72 -24.5 -133.5t-63.5 -106.5t-86.5 -85t-95 -77.5t-86.5 -75.5t-63.5 -87t-24.5 -105q0 -28 -40.5 -40t-84 -1t-52.5 41zM494 -25q-66 0 -110 37t-44 103q0 69 43.5 106t110.5 37t110 -37t43 -106q0 -66 -43.5 -103t-109.5 -37
z" />
    <glyph glyph-name="at" unicode="@" horiz-adv-x="1853" 
d="M1014 1507q178 0 330 -55.5t256.5 -151t163.5 -226.5t59 -279q0 -102 -28 -195.5t-80.5 -168t-137 -119t-188.5 -44.5q-84 0 -157 37.5t-106 100.5q-104 -140 -297 -140q-94 0 -174.5 41.5t-131 122t-50.5 184.5q0 222 139.5 360t356.5 138q162 0 254 -100l10 53
q3 29 33 29h137q38 0 29 -35l-117 -516q-17 -73 14.5 -118.5t95.5 -45.5q74 0 131 58t85 150t28 201q0 275 -190 442t-494 167q-153 0 -295 -61.5t-246.5 -164.5t-166.5 -246t-62 -300q0 -178 77 -320t223 -224.5t335 -82.5q181 0 358 70q25 10 34 -2t1 -35l-14 -35
q-5 -17 -15 -25.5t-28 -15.5q-145 -66 -359 -66q-167 0 -310.5 58t-242.5 157.5t-155 234.5t-56 286q0 170 67.5 328.5t187.5 281.5t301.5 197.5t394.5 74.5zM879 342q82 0 149 67.5t88 163.5l55 238q13 103 -30.5 163t-122.5 60q-80 0 -148.5 -61.5t-109 -164.5t-43.5 -222
q-3 -123 41 -183.5t121 -60.5z" />
    <glyph glyph-name="A" unicode="A" horiz-adv-x="1394" 
d="M1296 170q16 -36 42.5 -61t44.5 -40t18 -34v-6q0 -29 -43 -29h-365q-43 0 -43 29v6q0 14 16 28.5t33.5 25.5t28 32.5t-1.5 48.5l-80 203h-618l-76 -203q-12 -27 -1.5 -48.5t28 -32.5t33.5 -25.5t16 -28.5v-6q0 -29 -45 -29h-232q-43 0 -43 29v6q0 15 11.5 28t27.5 23
t35 32.5t31 51.5l430 1104q12 30 -5 57t-40 50t-23 38v6q0 13 9 21t26 8h162q41 0 67 -18.5t43 -59.5zM369 483h534l-274 701z" />
    <glyph glyph-name="B" unicode="B" horiz-adv-x="1384" 
d="M922 782q192 -26 297.5 -125.5t105.5 -248.5q0 -185 -162.5 -296.5t-429.5 -111.5h-579q-43 0 -43 29v8q0 14 11.5 28t26 24.5t26 32t11.5 48.5v1114q0 27 -11.5 48.5t-26 32.5t-26 25t-11.5 29v6q0 29 43 29h497q252 0 393.5 -101.5t141.5 -262.5q0 -116 -71 -198
t-193 -110zM434 1268v-359q0 -40 25 -64t65 -24h185q116 0 186 64.5t70 165.5q0 140 -86.5 219.5t-235.5 79.5h-135q-74 0 -74 -82zM713 104q358 0 358 265q0 143 -117 246.5t-321 103.5h-199v-492q0 -54 31 -88.5t80 -34.5h168z" />
    <glyph glyph-name="C" unicode="C" horiz-adv-x="1378" 
d="M750 -20q-180 0 -341.5 108.5t-257.5 285.5t-96 369q0 157 50.5 292.5t139.5 231.5t216 151t274 55q117 0 225.5 -36t183 -92t119 -123.5t44.5 -131.5q0 -52 -31 -82.5t-86 -30.5q-38 0 -69.5 21.5t-56 56t-49 76t-55 83.5t-66.5 76.5t-91.5 56t-122.5 21.5
q-157 0 -269 -134.5t-112 -346.5q0 -149 44 -279.5t115.5 -219t164.5 -139t190 -50.5q80 0 152 28t124 74t88.5 95t61.5 102q14 21 37 25.5t39 -10.5t12 -44q-13 -98 -56.5 -184.5t-114 -155.5t-175.5 -109t-231 -40z" />
    <glyph glyph-name="D" unicode="D" horiz-adv-x="1536" 
d="M154 0q-45 0 -45 29v6q0 15 12 29t26.5 25t26.5 32.5t12 48.5v1114q0 27 -12 48.5t-26.5 32.5t-26.5 25t-12 29v6q0 29 45 29h450q249 0 446.5 -94.5t306.5 -259t109 -367.5q0 -222 -100 -389.5t-274 -255.5t-396 -88h-542zM553 104h129q233 0 381.5 145.5t148.5 391.5
q0 201 -86 363.5t-236 254t-333 91.5h-57q-32 0 -51 -18.5t-19 -57.5v-1024q0 -69 33 -107.5t90 -38.5z" />
    <glyph glyph-name="E" unicode="E" horiz-adv-x="1243" 
d="M154 0q-45 0 -45 29v6q0 15 12 29t26.5 25t26.5 33t12 50v1110q0 28 -12 50.5t-26.5 33.5t-26.5 25t-12 28v6q0 29 41 29h890q27 0 40 -12t18 -39l49 -221q9 -47 -33 -47h-10q-22 0 -46 22.5t-46.5 54.5t-46.5 63.5t-55 54t-64 22.5h-344q-70 0 -70 -80v-477h316
q30 0 53 21t34 46.5t26 46.5t30 21h12q14 0 22.5 -10.5t8.5 -28.5v-291q0 -17 -8.5 -28t-22.5 -11h-12q-15 0 -30 20t-26 44.5t-34 44.5t-53 20h-316l-2 -479q0 -45 23 -77t69 -32h387q33 0 63 23.5t52.5 56.5t43 66t44 56.5t47.5 23.5h15q17 0 25 -14t5 -33l-47 -228
q-6 -28 -19 -40.5t-40 -12.5h-944z" />
    <glyph glyph-name="F" unicode="F" horiz-adv-x="1181" 
d="M154 0q-45 0 -45 29v6q0 15 12 29t26.5 25t26.5 32.5t12 48.5v1114q0 28 -12 49.5t-26.5 32t-26.5 24.5t-12 29v6q0 29 41 29h894q27 0 40 -13t18 -40l49 -221q4 -22 -5.5 -34.5t-29.5 -12.5h-8q-27 0 -58.5 34t-57.5 74.5t-65 74.5t-79 34h-342q-70 0 -70 -76v-541h322
q26 0 48.5 21t35.5 46.5t29.5 46.5t31.5 21h15q30 0 30 -39v-290q0 -17 -8.5 -28t-21.5 -11h-15q-15 0 -31.5 20t-29.5 44.5t-35.5 44.5t-48.5 20h-322v-459q0 -27 13 -48.5t29 -32.5t29 -25t13 -29v-6q0 -29 -45 -29h-321z" />
    <glyph glyph-name="G" unicode="G" horiz-adv-x="1476" 
d="M788 -20q-195 0 -361.5 102t-262.5 273t-96 368q0 168 53.5 309.5t146.5 237.5t219 149.5t269 53.5q124 0 235 -35t184 -90.5t115.5 -121.5t42.5 -130q0 -52 -30.5 -83.5t-81.5 -31.5q-38 0 -71.5 21.5t-60 55.5t-54 75t-60 82.5t-70.5 75.5t-93.5 55.5t-121.5 21.5
q-162 0 -270.5 -140.5t-108.5 -350.5q0 -154 44 -291.5t117.5 -233.5t171.5 -152.5t204 -56.5q154 0 252 60v336q0 29 -20.5 51t-45 32t-45 23t-20.5 27v8q0 15 13 24t34 9l385 -2q20 0 31.5 -8.5t11.5 -22.5v-8q0 -14 -17.5 -27t-39 -23.5t-39 -32.5t-17.5 -52v-291
q0 -36 -13.5 -61.5t-49.5 -55.5q-81 -65 -208.5 -107t-271.5 -42z" />
    <glyph glyph-name="H" unicode="H" horiz-adv-x="1589" 
d="M154 0q-43 0 -43 29v6q0 15 11.5 29t26 25t26 32.5t11.5 48.5v1114q0 27 -11.5 48.5t-26 32.5t-26 25t-11.5 29v6q0 29 43 29h319q43 0 43 -29v-6q0 -15 -12.5 -29t-27.5 -25t-27.5 -32.5t-12.5 -48.5l-2 -489h715v489q0 27 -12 48.5t-26 32.5t-26 25t-12 29v6
q0 29 43 29h320q45 0 45 -29v-6q0 -15 -13 -29t-29 -25t-29 -32.5t-13 -48.5v-1114q0 -27 13 -48.5t29 -32.5t29 -25t13 -29v-6q0 -29 -45 -29h-320q-43 0 -43 29v6q0 15 12 29t26 25t26 32.5t12 48.5v512h-713l-2 -512q0 -27 13 -48.5t28 -32.5t28 -25t13 -29v-6
q0 -29 -43 -29h-319z" />
    <glyph glyph-name="I" unicode="I" horiz-adv-x="624" 
d="M111 29v6q0 14 11.5 28t26 24.5t26 32t11.5 48.5v1116q0 27 -11.5 48.5t-26 32.5t-26 25t-11.5 29v6q0 29 43 29h319q43 0 43 -29v-6q0 -15 -13 -29t-28 -25t-28 -32.5t-13 -48.5v-1116q0 -27 13 -48.5t28 -32t28 -24.5t13 -28v-6q0 -29 -43 -29h-319q-43 0 -43 29z" />
    <glyph glyph-name="J" unicode="J" horiz-adv-x="1095" 
d="M682 1284q0 27 -12 48.5t-27 32.5t-27 25t-12 29v6q0 29 45 29h322q43 0 43 -29v-6q0 -15 -13 -29t-28 -25t-28 -32.5t-13 -48.5l-2 -719q-3 -582 -461 -585q-97 -1 -176.5 22.5t-129.5 60t-83.5 83.5t-47.5 91.5t-14 86.5q0 56 31.5 89t83.5 33q41 0 69 -20t43.5 -52
t27.5 -70.5t26.5 -77t35 -70.5t58.5 -52t92 -20q88 0 142.5 92t54.5 256v852z" />
    <glyph glyph-name="K" unicode="K" horiz-adv-x="1419" 
d="M1346 172q20 -33 42.5 -57t36 -33.5t22.5 -20.5t9 -26v-6q0 -13 -11 -21t-30 -8h-362q-41 0 -41 29v6q0 16 21.5 37t33 36t-3.5 50l-373 624l-256 -256v-354q0 -27 13 -48.5t29 -33t29 -26t13 -29.5v-6q0 -29 -45 -29h-319q-43 0 -43 29v6q0 18 18.5 35.5t37.5 42.5
t19 59v1112q0 27 -11.5 48.5t-26 32.5t-26 25t-11.5 29v6q0 29 43 29h319q43 0 43 -29v-6q0 -15 -13 -29t-28 -25t-28 -32.5t-13 -48.5v-602l596 598q24 24 26 45.5t-9.5 34t-24 29.5t-12.5 30v6q0 29 45 29h254q43 0 43 -29v-6q0 -19 -23 -36t-66 -45t-73 -58l-330 -328z
" />
    <glyph glyph-name="L" unicode="L" horiz-adv-x="1200" 
d="M154 0q-20 0 -31.5 8.5t-11.5 20.5v6q0 15 11.5 29t26 25t26 32.5t11.5 48.5v1114q0 28 -11.5 49t-26 31.5t-26 25t-11.5 29.5v6q0 29 43 29h321q45 0 45 -29v-6q0 -15 -13 -29.5t-29 -25t-29 -31.5t-13 -49v-1083q0 -42 19.5 -69.5t56.5 -27.5h375q46 0 84 38.5t59 84.5
t47.5 84.5t52.5 38.5h21q38 0 29 -41l-52 -256q-6 -28 -19 -40.5t-40 -12.5h-915z" />
    <glyph glyph-name="M" unicode="M" horiz-adv-x="1837" 
d="M1720 174q5 -28 19.5 -50.5t28.5 -34t25 -25.5t11 -29v-6q0 -29 -45 -29h-309q-45 0 -45 29v6q0 14 13 29t28 26t24.5 33t4.5 51l-162 920l-379 -1043q-9 -26 -22.5 -37.5t-37.5 -11.5q-45 0 -65 47l-397 1073l-154 -948q-5 -29 6 -51t26.5 -33t29.5 -26t14 -29v-6
q0 -29 -43 -29h-209q-43 0 -43 29v6q0 15 11 29t24.5 25.5t27.5 34t19 50.5l184 1106q4 27 -6.5 48.5t-25 32.5t-27.5 26t-13 30v6q0 14 10.5 22.5t28.5 8.5h181q69 0 90 -59l366 -1061l369 1061q21 59 84 59h190q16 0 26.5 -8t10.5 -21v-6q0 -15 -13.5 -30.5t-29 -28
t-25.5 -37t-5 -55.5z" />
    <glyph glyph-name="N" unicode="N" horiz-adv-x="1542" 
d="M1403 1454q20 0 32.5 -8.5t12.5 -22.5v-6q0 -14 -13.5 -28t-29.5 -24.5t-29.5 -32t-13.5 -48.5v-1214q0 -33 -17.5 -51.5t-48.5 -18.5h-73q-36 0 -76 57l-830 1127v-1010q0 -28 14 -50t31.5 -33.5t31.5 -26t14 -29.5v-6q0 -13 -12.5 -21t-33.5 -8h-210q-46 0 -46 29v6
q0 18 20 36t40 43t20 60v1108q0 27 -12.5 48t-27.5 31.5t-27.5 24.5t-12.5 29v8q0 14 12.5 22.5t33.5 8.5h202q52 0 86 -49l791 -1100v979q0 27 -13.5 48.5t-29.5 32t-29.5 24.5t-13.5 28v6q0 14 12.5 22.5t32.5 8.5h213z" />
    <glyph glyph-name="O" unicode="O" horiz-adv-x="1572" 
d="M799 -20q-159 0 -296 60.5t-231 163t-147 238.5t-53 285q0 214 90 384.5t253.5 267t372.5 96.5q157 0 292 -61.5t226.5 -165.5t143 -241t51.5 -288q0 -154 -54.5 -291.5t-147.5 -235.5t-223 -155t-277 -57zM864 90q171 0 282 131t111 318q0 227 -69 414.5t-197 299
t-289 111.5q-173 0 -280 -126.5t-107 -326.5q0 -226 67.5 -412.5t194 -297.5t287.5 -111z" />
    <glyph glyph-name="P" unicode="P" horiz-adv-x="1267" 
d="M154 0q-45 0 -45 31v6q0 13 12 27t26.5 25t26.5 32.5t12 48.5v1114q0 26 -12 47t-26.5 32t-26.5 25.5t-12 28.5v8q0 29 45 29h424q108 0 202.5 -16t177 -52t141.5 -90.5t92.5 -134.5t33.5 -180q0 -233 -158.5 -365.5t-435.5 -132.5h-197v-313q0 -27 13 -48.5t29 -32.5
t29 -25t13 -27v-6q0 -14 -12 -22.5t-31 -8.5h-321zM514 586h117q158 0 249 92.5t91 243.5q0 105 -33 188.5t-89 135.5t-125.5 79t-145.5 27h-84q-60 0 -60 -78v-606q0 -82 80 -82z" />
    <glyph glyph-name="Q" unicode="Q" horiz-adv-x="1570" 
d="M1536 -113q14 4 25 -6.5t0 -27.5q-22 -76 -121 -129.5t-223 -53.5q-80 0 -156.5 25t-138 61t-122.5 72t-135 61t-151 25q-125 0 -256 -57q-32 -9 -41.5 21t12.5 56q93 100 230 127q-179 93 -283 273t-104 393q0 214 90 384.5t253.5 267t372.5 96.5q157 0 292 -61.5
t226.5 -165.5t143 -241t51.5 -288q0 -198 -85.5 -362.5t-236 -264t-335.5 -110.5q9 -5 59.5 -33.5t66 -36.5t60.5 -28.5t74 -27.5t73.5 -14.5t88.5 -7.5q71 0 130.5 10.5t80 18.5t59.5 24zM702 1364q-173 0 -280 -126.5t-107 -326.5q0 -226 67.5 -412.5t194 -297.5
t287.5 -111q171 0 282 131t111 318q0 227 -69 414.5t-197 299t-289 111.5z" />
    <glyph glyph-name="R" unicode="R" horiz-adv-x="1363" 
d="M1221 170q20 -29 46 -51.5t45 -32.5t32.5 -23t13.5 -28v-6q0 -29 -43 -29h-357q-43 0 -43 29v6q0 14 13.5 28t26.5 24.5t17 32t-14 50.5l-260 389h-18l-244 -4v-385q0 -27 13 -48.5t29 -32.5t29 -25t13 -29v-6q0 -29 -45 -29h-321q-43 0 -43 29v6q0 15 11.5 29t26 25
t26 32.5t11.5 48.5v1114q0 27 -11.5 48.5t-26 32.5t-26 25t-11.5 29v6q0 29 43 29h462q136 0 248 -28t195 -83t129 -143t47 -201q0 -131 -79 -238.5t-226 -160.5zM651 662q149 0 239.5 80t90.5 227q0 92 -32 166t-85.5 120t-121 70.5t-142.5 24.5h-102q-30 0 -46 -22
t-16 -60v-490q0 -63 25 -89.5t76 -26.5h114z" />
    <glyph glyph-name="S" unicode="S" horiz-adv-x="1257" 
d="M655 -20q-116 0 -216 24t-167.5 62.5t-115.5 87t-70.5 97t-22.5 93.5t26.5 74t74.5 28q37 -1 65.5 -22t48.5 -53.5t40.5 -71.5t48.5 -78t64.5 -71t96.5 -52t138 -20q125 0 202.5 68t77.5 178q0 75 -29 128.5t-78.5 84t-113.5 51.5t-134.5 36.5t-141 32.5t-134.5 46.5
t-113.5 72.5t-78.5 116t-29 171q0 178 141.5 294t387.5 116q126 0 233 -32t174 -82.5t104.5 -110.5t36.5 -120q0 -49 -26.5 -76.5t-79.5 -27.5q-39 0 -67 19.5t-46.5 50t-35.5 68t-40 75t-54 68t-83.5 50t-122.5 19.5q-129 0 -200.5 -70t-71.5 -174q0 -59 23.5 -105
t49.5 -72.5t89.5 -53t96.5 -35.5t117 -30q92 -23 140 -37t123.5 -49t113.5 -77t68.5 -114t30.5 -166q0 -126 -75.5 -221t-197 -142.5t-268.5 -47.5z" />
    <glyph glyph-name="T" unicode="T" horiz-adv-x="1267" 
d="M469 0q-43 0 -43 29v6q0 15 12.5 29t27.5 25t27.5 32.5t12.5 48.5v1173h-223q-39 0 -70 -36t-47.5 -78.5t-39 -78.5t-46.5 -36h-25q-41 0 -35 47l37 242q6 51 58 51h1028q27 0 40.5 -12t18.5 -39l45 -244q4 -21 -6 -33t-29 -12h-24q-24 0 -48 36t-42.5 78.5t-51 78.5
t-71.5 36h-223v-1173q0 -27 13 -48.5t28 -32.5t28 -25t13 -29v-6q0 -29 -46 -29h-319z" />
    <glyph glyph-name="U" unicode="U" horiz-adv-x="1474" 
d="M756 -20q-266 0 -430 155.5t-164 423.5v725q0 27 -12 48.5t-27 32t-27 24.5t-12 28v8q0 29 45 29h322q43 0 43 -29v-8q0 -14 -13 -28t-28 -24.5t-28 -32t-13 -48.5v-725q0 -220 106 -344.5t289 -124.5q71 0 136 28t119 83t86 147.5t32 210.5v725q0 27 -12.5 48.5
t-27.5 32t-27.5 24.5t-12.5 28v8q0 29 45 29h207q45 0 45 -29v-8q0 -14 -13.5 -28t-29.5 -24.5t-29.5 -32t-13.5 -48.5v-727q0 -267 -153 -422t-402 -155z" />
    <glyph glyph-name="V" unicode="V" horiz-adv-x="1452" 
d="M1409 1454q43 0 43 -29v-6q0 -18 -17 -31.5t-44 -39t-43 -64.5l-510 -1214q-17 -38 -40 -54t-59 -16q-59 0 -88 66l-559 1216q-17 38 -43.5 63.5t-42.5 40t-16 33.5v6q0 29 45 29h375q45 0 45 -29v-6q0 -14 -17 -29t-35 -26.5t-29 -33t1 -48.5l428 -1012l403 1014
q11 27 -0.5 48.5t-31 33t-37 25.5t-17.5 28v6q0 29 43 29h246z" />
    <glyph glyph-name="W" unicode="W" horiz-adv-x="2035" 
d="M1985 1454q40 0 40 -29v-6q0 -15 -12.5 -28t-29 -22.5t-35.5 -32t-29 -52.5l-399 -1214q-22 -70 -99 -70q-69 0 -92 66l-278 823l-287 -819q-23 -70 -88 -70q-36 0 -57 15.5t-35 50.5l-486 1216q-13 31 -34 54t-38 32.5t-29.5 23t-12.5 29.5v4q0 29 41 29h360
q20 0 31.5 -8.5t11.5 -20.5v-6q0 -15 -15.5 -29.5t-31.5 -25t-25.5 -32t2.5 -50.5l361 -975l268 768l-69 209q-9 27 -29 49t-38 33.5t-32 25.5t-14 29v4q0 29 39 29h360q39 0 39 -29v-4q0 -14 -16 -27.5t-34 -23.5t-28.5 -32.5t-1.5 -53.5l310 -975l305 975q9 27 -0.5 48
t-26.5 31.5t-32 25t-15 28.5v6q0 31 41 31h240z" />
    <glyph glyph-name="X" unicode="X" horiz-adv-x="1400" 
d="M1272 170q24 -33 58 -58.5t52.5 -41.5t18.5 -35v-6q0 -29 -43 -29h-379q-43 0 -43 29v6q0 14 15 30t29.5 28t20 32.5t-13.5 44.5l-348 467l-336 -467q-18 -23 -14 -44t15 -33t23.5 -28t12.5 -30v-6q0 -29 -45 -29h-256q-43 0 -43 29v6q0 19 23 35.5t61 42t61 57.5
l426 563l-411 551q-20 28 -45.5 50t-43 32.5t-30 24t-12.5 28.5v6q0 29 43 29h370q43 0 43 -29v-6q0 -14 -14.5 -30t-28 -28t-18.5 -32.5t14 -44.5l332 -442l313 442q18 24 12 44.5t-21 32.5t-30.5 28t-15.5 30v6q0 29 43 29h274q43 0 43 -29v-6q0 -15 -16 -29t-37.5 -24.5
t-50 -32.5t-47.5 -49l-393 -539z" />
    <glyph glyph-name="Y" unicode="Y" horiz-adv-x="1376" 
d="M1317 1454q43 0 43 -29v-6q0 -19 -17.5 -33t-48 -39t-51.5 -63l-414 -694v-420q0 -27 13 -48.5t28 -32.5t28 -25t13 -29v-6q0 -29 -43 -29h-321q-43 0 -43 29v6q0 15 12 29t26 25t26 32.5t12 48.5v401l-455 713q-21 34 -53 59.5t-51 41t-19 34.5v6q0 29 45 29h377
q45 0 45 -29v-6q0 -14 -17.5 -29.5t-35 -27t-26.5 -32.5t7 -46l357 -612l362 612q17 27 7 48.5t-28.5 32.5t-36.5 25.5t-18 28.5v6q0 29 41 29h236z" />
    <glyph glyph-name="Z" unicode="Z" horiz-adv-x="1255" 
d="M1198 340q49 0 37 -45l-59 -250q-14 -45 -50 -45h-1040q-19 0 -32 12t-13 29v16q0 19 33 66l819 1229h-563q-33 0 -65.5 -35.5t-54 -77.5t-51.5 -77.5t-59 -35.5h-10q-51 0 -39 58l55 219q6 27 19 39t41 12h975q17 0 29 -12t12 -29v-20q0 -19 -37 -76l-813 -1215h600
q36 0 69 24.5t57 59.5t45.5 70t44 59.5t44.5 24.5h6z" />
    <glyph glyph-name="bracketleft" unicode="[" horiz-adv-x="614" 
d="M201 -215q-43 0 -43 37v1737q0 17 12 26.5t31 9.5h348q31 0 31 -30v-52q0 -30 -31 -30h-180v-1585h180q31 0 31 -31v-51q0 -31 -31 -31h-348z" />
    <glyph glyph-name="backslash" unicode="\" horiz-adv-x="753" 
d="M598 -203q-34 0 -43 25l-500 1767q-14 41 23 41h76q35 0 41 -24l503 -1768q13 -41 -26 -41h-74z" />
    <glyph glyph-name="bracketright" unicode="]" horiz-adv-x="614" 
d="M66 -215q-31 0 -31 31v51q0 13 8.5 22t22.5 9h180v1585h-180q-14 0 -22.5 8.5t-8.5 21.5v52q0 30 31 30h348q43 0 43 -36v-1737q0 -37 -43 -37h-348z" />
    <glyph glyph-name="asciicircum" unicode="^" 
d="M944 1223q21 -25 16.5 -52.5t-26 -34t-49.5 12.5l-285 244l-260 -244q-17 -16 -40 -8.5t-30 30t13 52.5l225 305q14 21 30 27t44 6h49q51 0 74 -31z" />
    <glyph glyph-name="underscore" unicode="_" horiz-adv-x="970" 
d="M94 -127q-33 0 -33 37v53q0 37 33 37h783q32 0 32 -37v-53q0 -37 -32 -37h-783z" />
    <glyph glyph-name="grave" unicode="`" 
d="M690 1124l-405 156q-30 9 -39 31.5t4 48.5l45 90q14 28 37 33.5t53 -15.5l356 -264q14 -11 18 -28.5t-5 -32.5q-18 -30 -64 -19z" />
    <glyph glyph-name="a" unicode="a" horiz-adv-x="1067" 
d="M952 184q4 -37 17 -60.5t29 -33t31 -15.5t25.5 -14t10.5 -22q0 -51 -166 -51q-82 0 -120 25.5t-44 97.5q-81 -131 -284 -131q-172 0 -277.5 81t-105.5 228q-1 145 104.5 226t267.5 81q148 0 238 -70l-4 41q-18 189 -65 275t-150 86q-53 0 -89 -25.5t-55 -62t-35 -73
t-40.5 -62t-59.5 -25.5q-46 0 -73 25.5t-27 68.5q0 97 108 163.5t271 66.5q192 0 311 -113.5t141 -312.5zM518 57q84 0 136.5 61t47.5 146l-6 64q-6 87 -59 138.5t-135 51.5q-86 0 -139.5 -55t-53.5 -146q0 -108 58 -184t151 -76z" />
    <glyph glyph-name="b" unicode="b" horiz-adv-x="1181" 
d="M647 1004q125 0 232 -58t175 -173t68 -265q0 -229 -138 -378.5t-335 -149.5q-181 0 -291 129l2 -74q0 -39 -41 -39l-221 4q-37 0 -37 29v6q0 17 19.5 34.5t39 42.5t19.5 60v1075q0 30 -13.5 52.5t-30.5 33.5t-30.5 24.5t-13.5 28.5v7q0 13 8.5 21.5t32.5 19.5l211 100
q32 15 53 6t21 -41v-604q98 109 270 109zM621 57q122 0 191 98t69 277q0 220 -80.5 357t-212.5 137q-87 0 -149 -67.5t-62 -164.5v-346q0 -112 75 -201.5t169 -89.5z" />
    <glyph glyph-name="c" unicode="c" horiz-adv-x="1032" 
d="M571 -20q-109 0 -207 40.5t-167.5 109.5t-110.5 164.5t-41 201.5q0 151 71 268t188 178t257 62q168 1 290 -82.5t122 -188.5q0 -39 -26 -64t-79 -24q-30 2 -54.5 18t-42.5 41t-36 55t-37.5 59t-42.5 53.5t-57 39.5t-76 15q-105 0 -170 -90.5t-65 -225.5q0 -210 99.5 -335
t264.5 -125q93 0 160 47t104 120q10 15 27 19t29.5 -6.5t9.5 -30.5q-8 -62 -38 -118t-79.5 -101.5t-125.5 -72.5t-167 -27z" />
    <glyph glyph-name="d" unicode="d" horiz-adv-x="1177" 
d="M1042 170q0 -34 19.5 -58.5t39 -42t19.5 -34.5v-6q0 -29 -35 -29h-213q-38 0 -41 39l-6 72q-50 -64 -125 -97.5t-161 -33.5q-94 0 -180 36t-152.5 101t-106 163t-39.5 214q0 147 64.5 264.5t174.5 181.5t243 64q158 0 268 -105v385q0 30 -14.5 52.5t-32.5 33t-32.5 23.5
t-14.5 28v4q0 28 37 41l217 70q71 23 71 -37v-1329zM594 57q84 0 150.5 70.5t66.5 194.5v327q0 102 -78 189.5t-182 87.5q-115 0 -184 -93t-72 -255q-3 -140 32.5 -257.5t105.5 -189.5t161 -74z" />
    <glyph glyph-name="e" unicode="e" horiz-adv-x="1009" 
d="M897 301q17 23 43 16.5t23 -36.5q-7 -48 -37 -98.5t-79.5 -97t-128 -76t-171.5 -29.5q-102 0 -191.5 37t-154.5 103.5t-102.5 165t-37.5 214.5q0 217 142.5 360.5t347.5 143.5q95 0 170.5 -27t120.5 -71t68.5 -96.5t23.5 -107.5q0 -105 -105 -143l-495 -182
q39 -106 116.5 -165.5t184.5 -59.5q92 0 160.5 42t101.5 107zM510 926q-96 0 -153.5 -92.5t-57.5 -241.5q0 -70 12 -131l340 147q54 23 54 86q0 45 -23 97.5t-69.5 93.5t-102.5 41z" />
    <glyph glyph-name="f" unicode="f" horiz-adv-x="731" 
d="M567 1505q117 0 203 -65.5t86 -155.5q0 -34 -25.5 -61t-68.5 -27q-42 0 -68.5 13t-38.5 33.5t-18.5 45t-12 49.5t-14.5 45.5t-31 34t-57 13.5q-51 1 -80.5 -36.5t-36.5 -102.5t0.5 -142.5t28.5 -165.5h271q15 0 24.5 -10.5t9.5 -24.5v-33q0 -14 -9.5 -23t-24.5 -9h-263
v-711q0 -28 15.5 -49.5t34 -32t34 -24.5t15.5 -29v-8q0 -12 -10 -20.5t-25 -8.5h-346q-17 0 -27 8.5t-10 20.5v8q0 15 12.5 29t27.5 24.5t27.5 32t12.5 49.5v711h-158q-15 0 -26 9.5t-11 22.5v33q0 14 11 24.5t26 10.5h158v154q0 164 94 266t270 102z" />
    <glyph glyph-name="g" unicode="g" horiz-adv-x="1103" 
d="M950 983q43 0 67 -8t26.5 -20.5t-5.5 -28.5q-11 -24 -34 -35t-67 -17t-58 -10q58 -52 93.5 -125t35.5 -147q0 -121 -63.5 -216t-174.5 -147q129 -30 191.5 -93.5t62.5 -151.5q0 -134 -139 -215.5t-355 -81.5q-112 0 -204 26t-149.5 68.5t-88.5 95t-31 107.5q0 40 25.5 68
t73.5 28q31 0 53.5 -17.5t38 -45.5t31 -61.5t36 -67.5t47.5 -62t72.5 -46t104.5 -18q110 0 176.5 58.5t66.5 152.5q0 88 -48 145t-132 66q-50 -4 -76 -4q-195 0 -327.5 116t-132.5 286q0 187 130.5 304.5t340.5 117.5q55 0 169.5 -10.5t243.5 -10.5zM303 686
q0 -174 77.5 -300t184.5 -126q94 0 149.5 68t55.5 174q0 173 -76.5 298.5t-195.5 125.5q-89 0 -142 -67t-53 -173z" />
    <glyph glyph-name="h" unicode="h" horiz-adv-x="1189" 
d="M1073 174q3 -35 21.5 -59.5t35.5 -41.5t17 -36v-8q0 -29 -43 -29h-301q-43 0 -43 29v8q0 15 12 29.5t26.5 25.5t25.5 32t10 48l-21 406q-7 164 -63 245.5t-152 81.5q-97 0 -156 -71t-59 -183v-481q0 -27 13 -48t29 -31t29 -24.5t13 -29.5v-6q0 -14 -12.5 -22.5
t-32.5 -8.5h-318q-20 0 -31.5 8.5t-11.5 22.5v6q0 15 13 29.5t28 24.5t28 31t13 48v1087q0 29 -13.5 51t-29.5 33t-29.5 24t-13.5 26v6q0 28 35 43l219 96q31 13 48.5 4t17.5 -37l-2 -637q46 65 121 101.5t166 36.5q157 0 265.5 -107.5t121.5 -325.5z" />
    <glyph glyph-name="i" unicode="i" horiz-adv-x="542" 
d="M272 1153q-76 0 -123 43t-47 111q0 67 47 110t123 43q74 0 120 -43t46 -110q0 -68 -46 -111t-120 -43zM121 0q-20 0 -31.5 8.5t-11.5 22.5v8q0 15 12 29t26 24.5t26 31.5t12 48v537q0 28 -12 52t-26 36.5t-26 26.5t-12 26v6q0 18 37 37l204 102q35 15 54.5 4t19.5 -38
v-789q0 -27 13 -48t29 -31.5t29 -24.5t13 -29v-8q0 -14 -12.5 -22.5t-32.5 -8.5h-311z" />
    <glyph glyph-name="j" unicode="j" horiz-adv-x="528" 
d="M268 1153q-76 0 -123 43t-47 111q0 67 47 110t123 43q74 0 120 -43t46 -110q0 -68 -46 -111t-120 -43zM115 -387q-118 0 -189 48t-71 134q0 46 29 74.5t75 28.5q41 0 66 -20.5t35.5 -50t19.5 -58.5t28 -49.5t52 -20.5q39 0 63.5 28.5t24.5 73.5q0 50 -21 95.5t-42 88
t-21 85.5v639q0 29 -12 52.5t-26 35t-26 26t-12 27.5v6q0 19 35 37l213 102q34 15 54 4t20 -38v-961q0 -137 -50 -240q-74 -147 -245 -147z" />
    <glyph glyph-name="k" unicode="k" horiz-adv-x="1114" 
d="M1038 135q14 -19 41.5 -36t45.5 -31t18 -33v-6q0 -29 -37 -29h-330q-15 0 -25 9t-10 22v4q0 15 11.5 28t22 21t15 22t-9.5 29l-262 350l-139 -129v-186q0 -27 13 -48t29 -31t29 -24.5t13 -29.5v-6q0 -14 -12.5 -22.5t-32.5 -8.5h-312q-20 0 -31.5 8.5t-11.5 22.5v6
q0 15 12 29.5t26 24.5t26 31t12 48v1079q0 29 -13.5 52.5t-29.5 36t-29.5 26t-13.5 25.5v6q0 22 35 37l217 102q34 13 54 2.5t20 -35.5v-1009l369 321q21 16 16.5 35.5t-19 33.5t-30 32t-15.5 32v6q0 31 37 31h262q15 0 25 -8t10 -21v-6q0 -20 -23.5 -38.5t-66.5 -44.5
t-70 -50l-200 -184z" />
    <glyph glyph-name="l" unicode="l" horiz-adv-x="526" 
d="M109 0q-20 0 -31.5 8.5t-11.5 22.5v6q0 15 11.5 29.5t26 24.5t26 31t11.5 48v1079q0 29 -11.5 52.5t-26 36t-26 26t-11.5 25.5v6q0 20 34 37l207 102q35 15 54.5 4t19.5 -37v-1331q0 -27 13 -48t29 -31t29 -24.5t13 -29.5v-6q0 -14 -12.5 -22.5t-32.5 -8.5h-311z" />
    <glyph glyph-name="m" unicode="m" horiz-adv-x="1857" 
d="M1743 172q1 -28 13 -49.5t25.5 -33t24.5 -25.5t11 -29v-8q0 -13 -12 -21t-31 -8h-301q-43 0 -43 29v8q0 18 18.5 35.5t36.5 41.5t16 58l-20 387q-9 185 -63 266.5t-154 81.5q-85 0 -142.5 -68.5t-62.5 -172.5q8 -41 8 -99v-395q0 -27 11.5 -48.5t24.5 -32.5t24.5 -25
t11.5 -29v-8q0 -29 -43 -29h-297q-45 0 -45 29v8q0 15 11 29t24.5 25t24.5 32.5t11 48.5v410q0 153 -60 239t-155 86q-93 0 -151.5 -69t-63.5 -174l2 -492q0 -27 13 -48.5t28 -32.5t28 -25t13 -29v-8q0 -29 -43 -29h-317q-45 0 -45 29v8q0 15 13 29t28 25t28 32.5t13 48.5
v549q0 29 -14 51t-31 33t-31 24.5t-14 28.5v6q0 21 36 37l209 96q32 15 49 3t17 -40v-120q45 76 122 121t171 45q111 0 202.5 -53t143.5 -150q39 96 125 149.5t194 53.5q77 0 140.5 -24t116 -75.5t85.5 -141.5t41 -212z" />
    <glyph glyph-name="n" unicode="n" horiz-adv-x="1204" 
d="M1090 172q1 -28 13 -49.5t25 -32t24 -24.5t11 -29v-8q0 -14 -12.5 -22.5t-32.5 -8.5h-299q-45 0 -45 31v8q0 15 12 29t26.5 24.5t25.5 32t10 49.5l-21 395q-7 171 -63 254.5t-152 83.5q-97 0 -156 -71t-59 -183v-481q0 -27 13 -48t29 -31.5t29 -24.5t13 -29v-8
q0 -31 -45 -31h-317q-20 0 -31.5 8.5t-11.5 22.5v8q0 15 13 29t28 24.5t28 31.5t13 48v549q0 30 -14.5 52.5t-31.5 33t-31.5 23.5t-14.5 28v6q0 21 36 37l199 96q32 15 48 3.5t16 -40.5v-133q43 84 124.5 131.5t186.5 47.5q75 0 140 -25t119 -76t88.5 -139t41.5 -205z" />
    <glyph glyph-name="o" unicode="o" horiz-adv-x="1171" 
d="M614 -20q-127 0 -233 43t-175.5 116t-108 166.5t-38.5 196.5q0 143 68 258.5t184.5 179.5t255.5 64q119 0 221 -41.5t171.5 -112t109 -165t39.5 -200.5q0 -140 -61 -255t-174.5 -182.5t-258.5 -67.5zM645 57q98 0 159.5 91t61.5 253q0 142 -41.5 262.5t-116.5 191.5
t-167 71q-111 0 -175.5 -89t-64.5 -255q0 -129 42 -248t122.5 -198t179.5 -79z" />
    <glyph glyph-name="p" unicode="p" horiz-adv-x="1187" 
d="M647 1004q125 0 232 -58t175 -173t68 -265q0 -229 -138 -378.5t-335 -149.5q-165 0 -270 108v-371q0 -28 13 -49.5t29 -32t29 -24.5t13 -29v-6q0 -31 -45 -31h-312q-45 0 -45 31v6q0 15 12 29t27 24.5t27 32t12 49.5v1004q0 26 -13.5 46t-30.5 30t-30.5 24t-13.5 29v8
q0 27 37 43l188 92q37 16 52.5 6.5t15.5 -38.5l-2 -113q43 74 123.5 115t181.5 41zM621 57q122 0 191 98t69 277q0 220 -80.5 357t-212.5 137q-78 0 -138.5 -56.5t-70.5 -142.5v-379q0 -113 74 -202t168 -89z" />
    <glyph glyph-name="q" unicode="q" horiz-adv-x="1183" 
d="M1128 907q0 -13 -20 -30.5t-40.5 -45.5t-20.5 -67v-1049q0 -27 12 -48.5t26.5 -32.5t26.5 -25t12 -29v-6q0 -29 -43 -29h-307q-43 0 -43 29v6q0 15 13 29t29 25t29 32.5t13 48.5v379q-50 -56 -123 -85t-153 -29q-94 0 -180 36t-152.5 101t-106 163t-39.5 214
q0 147 64.5 264.5t174.5 181.5t243 64q182 0 295 -130v76q0 27 20.5 39.5t54.5 3.5l179 -37q36 -9 36 -43v-6zM594 57q84 0 152.5 70.5t68.5 194.5v327q0 102 -80 189.5t-184 87.5q-115 0 -184 -93t-72 -255q-3 -140 32.5 -257.5t105.5 -189.5t161 -74z" />
    <glyph glyph-name="r" unicode="r" horiz-adv-x="829" 
d="M637 1004q88 0 138 -49.5t50 -123.5q0 -57 -25.5 -93t-80.5 -36q-37 0 -59 16.5t-32 40t-19 47t-28.5 40t-52.5 16.5q-68 0 -104.5 -73.5t-36.5 -180.5v-438q0 -27 14.5 -48t32.5 -31.5t32.5 -24.5t14.5 -29v-8q0 -29 -43 -29h-317q-43 0 -43 29v8q0 15 12 29t27 24.5
t27 31.5t12 48v551q0 28 -14 49.5t-30 31.5t-30 23.5t-14 28.5v6q0 24 36 43l201 92q60 28 60 -34v-160q34 98 104 150.5t168 52.5z" />
    <glyph glyph-name="s" unicode="s" horiz-adv-x="968" 
d="M485 -18q-191 0 -309.5 72t-118.5 163q0 46 28.5 70t74.5 24q42 0 69 -27t44 -65t37.5 -76t64.5 -65t110 -27q85 0 137 41t52 117q0 44 -20.5 76t-55 51.5t-79 34.5t-94 27t-99 26.5t-94 37t-79 54t-55 81.5t-20.5 116q0 125 112.5 208t288.5 83q183 0 296.5 -74.5
t113.5 -169.5q0 -38 -27 -63t-67 -25q-39 0 -65 26.5t-42.5 64.5t-36.5 76t-60 64.5t-99 26.5q-74 0 -123.5 -45.5t-49.5 -112.5q0 -56 33 -94t85.5 -58t116 -36t127 -37t116 -51.5t85.5 -89t33 -140.5q0 -123 -118 -203.5t-312 -80.5z" />
    <glyph glyph-name="t" unicode="t" horiz-adv-x="761" 
d="M455 -20q-133 0 -210 84.5t-77 246.5v572h-117q-15 0 -25 10t-10 25v28q0 37 35 37h64q78 0 126 53.5t60 145.5q3 21 14.5 33t26.5 12h31q39 0 39 -45l2 -199h258q15 0 26 -11t11 -26v-28q0 -15 -11 -25t-26 -10h-258v-574q0 -72 32 -111.5t84 -39.5q62 0 99 29.5
t47 76.5q9 16 25 20.5t29 -4t13 -26.5q0 -110 -78.5 -192t-209.5 -82z" />
    <glyph glyph-name="u" unicode="u" horiz-adv-x="1177" 
d="M1030 193q0 -43 11 -68.5t26 -34t30.5 -12.5t26.5 -12.5t11 -26.5q0 -29 -37 -40t-117 -11q-86 0 -126.5 34t-39.5 117q-89 -159 -307 -159q-171 0 -276 114.5t-105 331.5v354q0 28 -12 51t-27 34.5t-27 25.5t-12 27v6q0 14 10 24t27 13l215 34q70 10 70 -30l-4 -562
q0 -161 52 -243t152 -82q94 0 157 76t63 200v426q0 28 -12.5 51t-27.5 34.5t-27.5 25.5t-12.5 27v6q0 31 34 37l220 34q34 5 49.5 -1.5t15.5 -28.5v-772z" />
    <glyph glyph-name="v" unicode="v" horiz-adv-x="1079" 
d="M1049 983q36 0 36 -29v-6q0 -15 -14 -29.5t-32 -26t-38 -33t-30 -46.5l-305 -768q-15 -45 -60 -45h-86q-24 0 -37 10.5t-24 34.5l-365 768q-17 34 -55.5 72.5t-38.5 62.5v6q0 29 37 29h342q14 0 24.5 -9t10.5 -22v-6q0 -14 -19.5 -35t-30.5 -39.5t1 -62.5l251 -637
l240 608q16 41 7 69.5t-26.5 41.5t-35 27.5t-17.5 27.5v6q0 31 37 31h228z" />
    <glyph glyph-name="w" unicode="w" horiz-adv-x="1521" 
d="M1489 983q35 0 35 -29v-8q0 -15 -12 -28.5t-27.5 -23.5t-34.5 -32t-29 -51l-276 -766q-8 -24 -21 -34.5t-37 -10.5h-53q-49 0 -61 45l-211 664l-211 -664q-15 -45 -59 -45h-37q-45 0 -62 45l-307 766q-13 34 -35.5 59.5t-37.5 41.5t-15 34v8q0 29 37 29h315q35 0 35 -31
v-6q0 -13 -14 -26.5t-28 -24t-21.5 -32.5t4.5 -54l192 -559l213 690q12 37 41 37l98 2q32 0 41 -35l209 -696l189 540q14 38 3.5 64.5t-28.5 38.5t-35.5 26.5t-17.5 28.5v6q0 13 11 22t26 9h221z" />
    <glyph glyph-name="x" unicode="x" horiz-adv-x="1064" 
d="M928 176q21 -26 55 -54t52 -47t18 -38v-8q0 -29 -37 -29h-354q-15 0 -25 9t-10 22v6q0 11 10.5 21.5t22 20t20 22t3.5 32.5t-26 47l-174 217l-192 -225q-27 -32 -28 -54.5t12.5 -33t28.5 -23t15 -24.5v-6q0 -14 -9.5 -22.5t-26.5 -8.5h-252q-37 0 -37 29v8q0 18 20 33.5
t60.5 44.5t72.5 65l269 305l-254 318q-25 32 -53 56.5t-43.5 34.5t-26 23t-10.5 29v8q0 13 9.5 21t24.5 8h351q17 0 27 -8.5t10 -22.5v-6q0 -14 -11 -31.5t-21 -31t-9.5 -35.5t20.5 -47l170 -213l193 213q23 26 23 48.5t-13.5 36t-28 30.5t-14.5 30v6q0 13 10 22t25 9h211
q15 0 24.5 -8t9.5 -21v-8q0 -19 -13 -35.5t-46.5 -47t-58.5 -60.5l-256 -297z" />
    <glyph glyph-name="y" unicode="y" horiz-adv-x="1095" 
d="M1063 983q15 0 25 -8t10 -21v-8q0 -20 -16 -36.5t-41.5 -43t-41.5 -63.5l-387 -848q-21 -47 -33 -73.5t-37 -74t-45 -75.5t-51 -64t-61 -56t-69.5 -34t-82.5 -14q-121 0 -198.5 62.5t-77.5 137.5q0 45 27 74t73 29q38 0 63 -22.5t38 -54.5t25 -64.5t33.5 -55t53.5 -22.5
q56 0 116.5 86.5t113.5 218.5l-400 850q-14 30 -34 53.5t-34.5 34.5t-25 25t-10.5 30v8q0 13 10.5 21t26.5 8h323q15 0 25 -9t10 -22v-6q0 -15 -11 -29t-21.5 -25t-13.5 -34.5t13 -56.5l271 -621l254 598q18 41 7.5 69t-31 41t-40.5 28t-20 30v6q0 14 10 22.5t27 8.5h227z
" />
    <glyph glyph-name="z" unicode="z" horiz-adv-x="999" 
d="M946 289q46 0 31 -51l-57 -193q-14 -45 -52 -45h-774q-18 0 -31.5 12t-13.5 29v16q0 8 4 18.5t7 15.5t12 18t10 14l567 788h-311q-32 0 -61 -21t-49.5 -51t-40 -60t-41.5 -51t-44 -21h-10q-22 0 -31 16.5t0 42.5l52 166q10 28 21.5 39.5t37.5 11.5h702q17 0 29 -12
t12 -29v-20q0 -18 -43 -76l-565 -774h367q44 0 84 34t64.5 74.5t54.5 74.5t57 34h12z" />
    <glyph glyph-name="braceleft" unicode="{" horiz-adv-x="653" 
d="M582 -104q26 0 37 -26t1 -51.5t-36 -25.5q-82 0 -149 20.5t-120 62t-82.5 112.5t-29.5 166v243q0 121 -33.5 175.5t-85.5 54.5q-33 0 -48 29t-1.5 58t49.5 29q51 0 85 51t34 160v289q0 90 29.5 158.5t82.5 109.5t121.5 61t151.5 19q26 1 39 -24t2.5 -50.5t-41.5 -25.5
q-161 0 -164 -240l-2 -282q0 -72 -17 -127t-44.5 -86.5t-53.5 -48t-53 -23.5q28 -7 53.5 -23.5t53 -49t44 -91.5t15.5 -137l-2 -240q-1 -132 39.5 -189.5t124.5 -57.5z" />
    <glyph glyph-name="bar" unicode="|" horiz-adv-x="477" 
d="M184 -184q-26 0 -26 37v1566q0 33 28 37l103 -2q28 0 28 -35l2 -1566q0 -17 -8 -27.5t-20 -9.5h-107z" />
    <glyph glyph-name="braceright" unicode="}" horiz-adv-x="655" 
d="M571 743q35 0 48 -29t-1.5 -58t-46.5 -29q-51 0 -84.5 -54.5t-33.5 -175.5v-243q0 -95 -29.5 -166t-82.5 -112.5t-120 -62t-149 -20.5q-26 0 -36 25.5t1 51.5t37 26q83 0 124 58t40 189l-2 240q-1 65 11 117t30 83.5t42.5 54t45 32.5t41.5 14q-21 5 -41.5 15t-45.5 31.5
t-43 51.5t-30.5 78.5t-12.5 108.5l-2 282q-3 240 -163 240q-31 0 -41.5 25.5t2.5 50.5t39 24q82 1 150.5 -19t121.5 -61t83 -109.5t30 -158.5v-289q0 -109 33.5 -160t84.5 -51z" />
    <glyph glyph-name="asciitilde" unicode="~" 
d="M395 788q62 0 125.5 -21t107.5 -45.5t99 -45.5t102 -21t86 22t62 56q19 29 45 29h47q33 0 27 -37q-21 -116 -96.5 -182t-176.5 -66q-71 0 -136.5 21t-105.5 46.5t-90.5 46.5t-95.5 21q-82 0 -135 -82q-19 -32 -65 -32h-27q-13 0 -20.5 10.5t-4.5 28.5q6 44 24 86t47.5 80
t76.5 61.5t104 23.5z" />
    <glyph glyph-name="exclamdown" unicode="&#xa1;" horiz-adv-x="485" 
d="M244 672q-69 0 -114.5 38t-45.5 107q0 71 45.5 109.5t114.5 38.5q68 0 112.5 -38.5t44.5 -109.5q0 -69 -44.5 -107t-112.5 -38zM373 -352q1 -36 -25.5 -60.5t-64 -29.5t-75.5 1.5t-64.5 31t-26.5 59.5q2 152 21 408t52 470q6 29 51.5 29t51.5 -29q38 -212 58 -463.5
t22 -416.5z" />
    <glyph glyph-name="cent" unicode="&#xa2;" horiz-adv-x="1093" 
d="M954 559q15 24 47.5 17t28.5 -37q-6 -45 -22.5 -89t-48 -89t-74 -80t-106.5 -59t-140 -29v-156q0 -39 -29 -39h-37q-13 0 -21.5 11t-8.5 28v156q-199 23 -333 180t-134 360q0 154 63 274.5t168 188t236 80.5v158q0 15 8.5 25.5t21.5 10.5h39q27 0 27 -36v-158
q149 -13 257 -91.5t108 -170.5q0 -41 -29.5 -70t-75.5 -29q-36 0 -64.5 20t-48.5 52t-38.5 66t-46.5 66.5t-62 49.5v-794q14 -2 43 -2q175 0 272 186zM322 856q0 -162 59.5 -281t161.5 -169v782q-94 -3 -157.5 -99t-63.5 -233z" />
    <glyph glyph-name="sterling" unicode="&#xa3;" horiz-adv-x="1361" 
d="M1219 315q11 18 32 22.5t36.5 -8t12.5 -36.5q-11 -63 -42 -119t-82.5 -102.5t-131.5 -73.5t-180 -27q-88 0 -166 31t-168 86q-98 -108 -243 -108q-92 0 -141.5 48t-49.5 122q0 71 54.5 117t144.5 46q71 0 160 -28q6 41 6 82q0 113 -64 245h-274q-37 0 -37 25v63
q0 11 10 18t27 7h213q-47 85 -72.5 157.5t-25.5 161.5q0 202 141.5 321.5t384.5 119.5q186 0 322.5 -78.5t136.5 -187.5q0 -44 -30 -77.5t-81 -33.5q-35 0 -62.5 15t-46 39t-35 53t-36.5 58t-44.5 53t-64 39t-90.5 15q-119 0 -184.5 -87.5t-65.5 -223.5q0 -68 12 -134.5
t25 -106t37 -103.5h365q36 0 36 -27v-61q0 -25 -36 -25h-324q39 -115 39 -237q0 -73 -27 -150q57 -22 93.5 -34.5t91.5 -23.5t106 -11q111 0 201 47t117 112zM281 68q87 0 137 92q-84 51 -139 51q-41 0 -65 -19t-24 -51q0 -34 25.5 -53.5t65.5 -19.5z" />
    <glyph glyph-name="currency" unicode="&#xa4;" horiz-adv-x="1259" 
d="M1008 449l127 -127q11 -12 11.5 -26.5t-9.5 -23.5l-35 -36q-22 -19 -51 4l-129 133q-128 -88 -299 -88q-163 0 -285 82l-127 -127q-27 -23 -49 -4l-37 36q-10 9 -9 23.5t13 26.5l123 122q-94 115 -94 265q0 145 94 260l-123 123q-12 11 -13 25t9 22l37 37q22 22 49 -5
l125 -127q127 86 287 86q173 0 301 -88l127 129q28 28 51 5l35 -37q10 -8 9.5 -21.5t-11.5 -25.5l-127 -125q96 -113 96 -258q0 -147 -96 -260zM629 422q126 0 202 84t76 203q0 116 -76 199t-202 83q-124 0 -199.5 -83t-75.5 -199q0 -119 75 -203t200 -84z" />
    <glyph glyph-name="yen" unicode="&#xa5;" horiz-adv-x="1464" 
d="M1360 1454q43 0 43 -29v-6q0 -19 -17.5 -33t-48 -39t-51.5 -63l-366 -614h325q17 0 27 -8t10 -19v-41q0 -24 -37 -24h-373v-121h338q17 0 27 -7t10 -18v-41q0 -24 -37 -24h-338v-197q0 -27 13 -48.5t28 -32.5t28 -25t13 -29v-6q0 -29 -43 -29h-321q-43 0 -43 29v6
q0 15 12 29t26 25t26 32.5t12 48.5v197h-340q-37 0 -37 24v41q0 11 10 18t27 7h340v114l-5 7h-372q-15 0 -25 7t-10 17v41q0 11 10 19t25 8h315l-393 614q-21 34 -53 59.5t-51 41t-19 34.5v6q0 29 45 29h377q45 0 45 -29v-6q0 -14 -17.5 -29.5t-35 -27t-26.5 -32.5t7 -46
l357 -612l362 612q17 27 7 48.5t-28.5 32.5t-36.5 25.5t-18 28.5v6q0 29 41 29h236z" />
    <glyph glyph-name="brokenbar" unicode="&#xa6;" horiz-adv-x="477" 
d="M184 723q-12 0 -19 10t-7 25v659q0 33 28 37h103q28 0 28 -37l2 -659q0 -15 -8 -25.5t-20 -9.5h-107zM184 -184q-26 0 -26 37v634q0 33 28 37h103q28 0 28 -37l2 -634q0 -17 -8 -27.5t-20 -9.5h-107z" />
    <glyph glyph-name="section" unicode="&#xa7;" horiz-adv-x="1277" 
d="M1051 315q131 -96 131 -272q0 -141 -145 -245.5t-369 -104.5q-141 0 -258 32t-190.5 83.5t-113.5 113.5t-40 125q0 51 29 81t85 30q32 0 58 -20t46.5 -52.5t43 -72t54 -78.5t72 -71.5t104.5 -52.5t144 -20q109 0 175.5 51.5t66.5 126.5q0 57 -29 100t-78 69t-112.5 46
t-133.5 37t-140 36t-133.5 48.5t-112 69t-76.5 103t-27 145.5q3 206 156 305q-129 98 -129 268q0 171 142 274t358 103q124 0 230.5 -31t177 -81t110 -111.5t39.5 -124.5q0 -52 -29.5 -82.5t-85.5 -30.5q-38 0 -67.5 19.5t-50 51.5t-40 70t-44 76t-55.5 70t-81.5 51.5
t-114.5 19.5q-106 0 -178.5 -58t-72.5 -148q0 -61 28.5 -106t76.5 -72t110 -46.5t131 -36t137.5 -35t130.5 -48.5t110 -71t76.5 -108t28.5 -155q0 -159 -145 -271zM338 717q0 -55 26 -97.5t65 -68.5t100.5 -48.5t117.5 -36.5t131 -35t127 -40q33 37 48.5 68t15.5 73
q0 52 -26 92t-66 64.5t-101.5 47t-118.5 37t-131.5 36t-126.5 41.5q-28 -25 -44.5 -60.5t-16.5 -72.5z" />
    <glyph glyph-name="dieresis" unicode="&#xa8;" 
d="M369 1159q-69 0 -112.5 39.5t-43.5 101.5t43.5 102t112.5 40q68 0 109.5 -40t41.5 -102t-41.5 -101.5t-109.5 -39.5zM799 1159q-69 0 -111.5 39.5t-42.5 101.5t43 102t111 40q67 0 110 -40t43 -102t-43 -101.5t-110 -39.5z" />
    <glyph glyph-name="copyright" unicode="&#xa9;" horiz-adv-x="1792" 
d="M897 -123q-168 0 -321.5 65t-264 175.5t-176 263.5t-65.5 321t65.5 321t176 263t264 175t321.5 65t320.5 -65.5t263 -175.5t176 -262.5t65.5 -320.5t-65 -321t-175.5 -263.5t-263.5 -175.5t-321 -65zM897 -6q138 0 264 56.5t217 152t145 226t54 273.5q0 190 -91 353
t-248 258.5t-341 95.5q-139 0 -265.5 -56.5t-217.5 -151.5t-145 -225.5t-54 -273.5t53.5 -274t144.5 -226t218 -151.5t266 -56.5zM907 244q-97 0 -186 38.5t-152 102.5t-100 149.5t-37 176.5q0 197 135 326t342 128q165 -1 281.5 -80.5t116.5 -183.5q0 -34 -27.5 -58
t-71.5 -24q-46 0 -78.5 27.5t-53.5 67t-43 79t-59 67t-89 27.5q-105 0 -162 -83t-57 -216q0 -163 84.5 -261.5t240.5 -98.5q163 0 244 154q14 22 45.5 8.5t28.5 -43.5q-14 -129 -121 -216t-281 -87z" />
    <glyph glyph-name="ordfeminine" unicode="&#xaa;" horiz-adv-x="868" 
d="M741 907q3 -33 16.5 -49t27 -18t24.5 -10.5t10 -28.5q0 -51 -137 -51q-57 0 -83 18t-30 68q-28 -42 -82.5 -68.5t-128.5 -26.5q-126 0 -203 60.5t-77 163.5q0 104 77.5 163.5t202.5 59.5q107 0 168 -49l-2 26q-12 130 -45 183t-108 53q-34 0 -57.5 -16.5t-36 -39.5
t-24.5 -46t-33.5 -39.5t-53.5 -16.5q-34 0 -55 19.5t-21 52.5q0 71 83 115.5t198 44.5q139 0 231 -79t109 -225zM422 815q49 0 87.5 34t37.5 83l-6 63q-3 50 -43 83.5t-97 33.5q-56 0 -91.5 -34t-35.5 -101q0 -72 40 -117t108 -45z" />
    <glyph glyph-name="guillemotleft" unicode="&#xab;" horiz-adv-x="1067" 
d="M432 993q9 14 30 15.5t38 -9t14 -26.5q-24 -109 -91.5 -212.5t-170.5 -178.5q92 -77 161.5 -174.5t92.5 -174.5q1 -13 -15.5 -24t-41 -9.5t-41.5 21.5q-30 37 -61.5 70t-68 65.5t-60.5 53t-69 57t-65 53.5t-19.5 67.5t19.5 65.5q232 169 348 340zM979 973
q-24 -109 -91.5 -212.5t-170.5 -178.5q92 -77 161.5 -174.5t92.5 -174.5q1 -13 -16 -24t-41.5 -9.5t-41.5 21.5q-30 37 -61 70t-68 66t-60 52.5t-69.5 57.5t-64.5 53q-20 17 -19.5 67.5t19.5 65.5q232 169 348 340q9 14 30 15.5t38 -9t14 -26.5z" />
    <glyph glyph-name="registered" unicode="&#xae;" horiz-adv-x="1792" 
d="M897 1526q168 0 320.5 -65.5t263 -175.5t176 -262.5t65.5 -320.5t-65 -321.5t-175.5 -264t-263.5 -176t-321 -65.5t-321.5 65.5t-264 176t-176 264t-65.5 321.5t65.5 321t176 263t264 175t321.5 65zM897 -4q138 0 264 56.5t217 151t145 225t54 273.5q0 190 -91 353
t-248 258.5t-341 95.5q-139 0 -265.5 -56.5t-217.5 -151.5t-145 -225.5t-54 -273.5q0 -115 34 -222.5t97 -194.5t147 -152.5t188 -101t216 -35.5zM1247 412q13 -21 25.5 -35t19.5 -18.5t11 -11t4 -17.5v-11q0 -9 -7.5 -16.5t-19.5 -7.5h-256q-25 0 -25 20v15q0 11 14 21.5
t20 19.5t-7 41l-115 221l-112 -4v-217q0 -19 13.5 -33.5t26.5 -25t13 -21.5v-17q0 -20 -27 -20h-260q-26 0 -26 20v17q0 11 12.5 21.5t25.5 25t13 33.5v649q0 20 -13 34t-25.5 25t-12.5 23v6q0 18 26 18h287q209 0 324 -67.5t116 -200.5q2 -75 -49.5 -139.5t-142.5 -97.5z
M799 760q0 -55 51 -55h55q70 0 111 48t41 128q0 99 -42 156t-120 57h-53q-19 0 -31 -14t-12 -36v-284z" />
    <glyph glyph-name="macron" unicode="&#xaf;" 
d="M344 1221q-41 0 -41 36v80q0 37 41 37h551q41 0 41 -37v-80q0 -36 -41 -36h-551z" />
    <glyph glyph-name="degree" unicode="&#xb0;" horiz-adv-x="827" 
d="M412 788q-155 0 -253 97.5t-98 238.5q0 144 99 244t254 100t253.5 -96.5t98.5 -236.5q0 -145 -99.5 -246t-254.5 -101zM414 864q82 0 132 73t50 193q0 117 -50 189t-132 72q-83 0 -134 -72t-51 -189q0 -120 51 -193t134 -73z" />
    <glyph glyph-name="plusminus" unicode="&#xb1;" 
d="M563 291q-26 0 -26 37v323h-322q-36 0 -39 27l2 98q0 27 37 27h322v323q0 35 26 39l103 -2q11 0 18.5 -10t7.5 -27v-323l324 2q17 0 27 -8t10 -19v-100q0 -27 -37 -27h-322v-323q0 -18 -8.5 -28.5t-19.5 -8.5h-103zM215 0q-17 0 -27 7t-10 18v100q0 27 37 27h801
q37 0 37 -27v-100q0 -11 -10 -18t-27 -7h-801z" />
    <glyph glyph-name="acute" unicode="&#xb4;" horiz-adv-x="950" 
d="M254 1126q-43 -14 -64 17q-18 34 13 61l358 264q28 21 51.5 15.5t38.5 -33.5l43 -90q14 -25 4.5 -48t-39.5 -32z" />
    <glyph glyph-name="paragraph" unicode="&#xb6;" horiz-adv-x="1355" 
d="M717 -418q-88 -1 -166.5 22t-133 60.5t-95 84t-59.5 91.5t-19 84q0 58 31 92.5t85 34.5q55 0 89.5 -38.5t54.5 -93.5t42.5 -109.5t70 -93t120.5 -38.5q37 0 66 7t58 29.5t48 59.5t31 101.5t12 151.5v1314h-182v-821q0 -39 -39 -39l-209 -2q-198 -2 -332.5 138t-134.5 362
q0 210 134 342.5t333 132.5h692q20 0 33 -9t13 -24v-4q0 -17 -14 -31.5t-30.5 -24t-30.5 -31.5t-14 -52l-2 -1141q0 -136 -34.5 -242.5t-96.5 -174t-143 -102.5t-178 -36z" />
    <glyph glyph-name="periodcentered" unicode="&#xb7;" horiz-adv-x="499" 
d="M250 643q-69 0 -114.5 38.5t-45.5 109.5q0 72 45 109.5t115 37.5t115 -37.5t45 -109.5q0 -71 -45.5 -109.5t-114.5 -38.5z" />
    <glyph glyph-name="cedilla" unicode="&#xb8;" 
d="M692 -113q96 2 166 -38t70 -117q0 -76 -75 -120t-183 -44q-92 0 -172 37q-29 15 -26 55q2 32 21 36q8 2 17 -3q21 -12 57 -21.5t66 -9.5q48 0 80.5 19.5t31.5 58.5q-2 67 -122 67q-27 0 -41.5 17.5t-10.5 44.5l25 131h100z" />
    <glyph glyph-name="ordmasculine" unicode="&#xba;" horiz-adv-x="884" 
d="M451 748q-167 0 -280.5 104t-113.5 264q0 157 109 258t276 101q159 0 271 -107t112 -264q0 -156 -108 -256t-266 -100zM463 819q77 0 120.5 67.5t43.5 178.5q0 141 -61 239.5t-152 98.5q-82 0 -123 -65t-41 -164q0 -149 62 -252t151 -103z" />
    <glyph glyph-name="guillemotright" unicode="&#xbb;" horiz-adv-x="1067" 
d="M520 653q19 -15 19.5 -65.5t-19.5 -67.5q-18 -15 -64.5 -53t-69.5 -57.5t-60 -52.5t-68 -66t-61 -70q-17 -20 -41.5 -21.5t-41.5 9.5t-16 24q23 77 92.5 174.5t161.5 174.5q-103 75 -170.5 178.5t-91.5 212.5q-3 16 14 26.5t38 9t30 -15.5q116 -171 348 -340zM983 653
q19 -15 19.5 -65.5t-19.5 -67.5t-65 -53.5t-69 -57t-60.5 -53t-68 -65.5t-61.5 -70q-17 -20 -41.5 -21.5t-41 9.5t-15.5 24q23 77 92.5 174.5t161.5 174.5q-103 75 -170.5 178.5t-91.5 212.5q-3 16 14 26.5t38 9t30 -15.5q116 -171 348 -340z" />
    <glyph glyph-name="onequarter" unicode="&#xbc;" horiz-adv-x="1458" 
d="M412 709q0 -9 -10 -15t-25 -6h-242q-15 0 -25 6t-10 15v8q0 9 11 18t24 16t24 23t11 37v449q0 31 -16.5 44.5t-37 13t-37 4t-16.5 19.5v5q0 24 33 34l252 88q18 6 28.5 0.5t10.5 -18.5v-6q0 -13 -11.5 -27t-23.5 -38t-12 -60v-508q0 -21 11 -37t25 -23t25 -16t11 -18v-8z
M1192 1180q25 -20 -2 -47l-830 -871q-24 -27 -55 0l-47 43q-24 25 -4 45l833 873q28 25 52 6zM1376 264q23 0 23 -18v-39q0 -21 -23 -21h-102v-73q0 -21 9.5 -35t21 -20.5t21 -15t9.5 -19.5v-5q0 -20 -26 -20h-219q-29 0 -29 20v5q0 13 14.5 23t29.5 25.5t15 41.5v73h-346
q-41 0 -41 33v14q0 32 17 54l342 463q25 38 67 38h90q25 0 25 -26v-498h102zM831 264h289v402z" />
    <glyph glyph-name="onehalf" unicode="&#xbd;" horiz-adv-x="1538" 
d="M403 709q0 -21 -32 -21h-234q-15 0 -25 6t-10 15v8q0 9 10 18t22 16t22 23t10 37v453q0 30 -15.5 42.5t-34.5 11.5t-34.5 3.5t-15.5 19.5v5q0 26 32 34l246 88q39 12 39 -18v-6q0 -13 -11.5 -27t-23.5 -36.5t-12 -57.5v-512q0 -21 10.5 -37t23 -23t23 -16t10.5 -18v-8z
M1188 1180q25 -19 0 -47l-832 -871q-11 -13 -26 -12.5t-29 12.5l-47 43q-24 25 -4 45l835 873q27 27 50 6zM1460 223q11 0 17.5 -7t3.5 -17l-45 -172q-8 -25 -27 -25h-549q-9 0 -16.5 7t-7.5 16v10q0 60 32 114.5t79.5 93t103.5 79.5t103.5 75.5t79.5 79t32 90.5
q0 58 -32 90.5t-85 32.5q-38 0 -65 -21.5t-42.5 -52t-29 -60.5t-33.5 -51.5t-47 -21.5q-33 0 -53.5 20.5t-20.5 57.5q0 73 89.5 135t207.5 62q127 0 203 -57t76 -148q0 -64 -38 -118t-97.5 -93t-121.5 -73t-122 -74t-88 -80h344q28 0 48.5 17t31 37t23.5 37t28 17h18z" />
    <glyph glyph-name="threequarters" unicode="&#xbe;" horiz-adv-x="1519" 
d="M668 936q0 -97 -82.5 -162t-216.5 -65q-141 0 -227.5 61t-86.5 125q0 34 17.5 51t46.5 17q23 0 41.5 -14.5t30.5 -35.5t28 -46.5t33 -46.5t46 -35.5t67 -14.5q62 0 102.5 38.5t40.5 98.5q0 78 -45 121t-127 43h-17q-24 0 -31.5 21t9.5 43l160 198h-336q-31 0 -31 29v65
q0 27 31 27h518q10 0 17.5 -6t7.5 -14v-11q0 -18 -21 -39l-248 -251q124 -6 198.5 -55t74.5 -142zM1313 1180q25 -19 0 -47l-832 -871q-24 -27 -55 0l-47 43q-10 10 -12 22t8 23l833 873q28 25 52 6zM1430 264q22 0 22 -18v-39q0 -21 -22 -21h-103v-73q0 -21 9.5 -35
t21.5 -20.5t21.5 -15t9.5 -19.5v-5q0 -20 -27 -20h-219q-29 0 -29 20v5q0 11 9.5 19.5t20.5 15t20.5 20.5t9.5 35v73h-347q-41 0 -41 33v14q0 32 17 54l340 463q28 38 67 38h93q24 0 24 -26v-498h103zM885 264h289v402z" />
    <glyph glyph-name="questiondown" unicode="&#xbf;" horiz-adv-x="1071" 
d="M580 756q-66 0 -109 36.5t-43 102.5q0 68 43 105.5t109 37.5t109.5 -37.5t43.5 -105.5q0 -66 -43.5 -102.5t-109.5 -36.5zM532 -455q-137 0 -242 39.5t-170 127.5t-65 216q0 71 24.5 132.5t64 106.5t86.5 85t94.5 77.5t87 75.5t64 87t24.5 104q0 28 40 41t83 1.5
t51 -42.5q10 -65 -5.5 -122.5t-47.5 -101.5t-73.5 -85t-85.5 -82t-80 -84t-59.5 -100t-23.5 -121q0 -117 67 -183.5t158 -66.5q52 0 92 20t64 51.5t43.5 70t36 77t34.5 70t46 51.5t65 20q54 0 87.5 -31t33.5 -88q0 -53 -37.5 -113t-101 -112t-158 -86.5t-197.5 -34.5z" />
    <glyph glyph-name="Agrave" unicode="&#xc0;" horiz-adv-x="1394" 
d="M408 1667q-31 3 -44.5 23t-5.5 49l27 96q8 31 30 41.5t54 -4.5l401 -191q15 -8 22 -24t3 -33q-12 -31 -59 -31zM1296 170q16 -36 42.5 -61t44.5 -40t18 -34v-6q0 -29 -43 -29h-365q-43 0 -43 29v6q0 14 16 28.5t33.5 25.5t28 32.5t-1.5 48.5l-80 203h-618l-76 -203
q-12 -27 -1.5 -48.5t28 -32.5t33.5 -25.5t16 -28.5v-6q0 -29 -45 -29h-232q-43 0 -43 29v6q0 15 11.5 28t27.5 23t35 32.5t31 51.5l430 1104q12 30 -5 57t-40 50t-23 38v6q0 13 9 21t26 8h162q41 0 67 -18.5t43 -59.5zM369 483h534l-274 701z" />
    <glyph glyph-name="Aacute" unicode="&#xc1;" horiz-adv-x="1394" 
d="M485 1595q-43 -3 -57 29q-6 18 1.5 33.5t21.5 23.5l403 191q31 14 53 4.5t31 -39.5l25 -96q9 -28 -4.5 -48.5t-45.5 -23.5zM1296 170q16 -36 42.5 -61t44.5 -40t18 -34v-6q0 -29 -43 -29h-365q-43 0 -43 29v6q0 14 16 28.5t33.5 25.5t28 32.5t-1.5 48.5l-80 203h-618
l-76 -203q-12 -27 -1.5 -48.5t28 -32.5t33.5 -25.5t16 -28.5v-6q0 -29 -45 -29h-232q-43 0 -43 29v6q0 15 11.5 28t27.5 23t35 32.5t31 51.5l430 1104q12 30 -5 57t-40 50t-23 38v6q0 13 9 21t26 8h162q41 0 67 -18.5t43 -59.5zM369 483h534l-274 701z" />
    <glyph glyph-name="Acircumflex" unicode="&#xc2;" horiz-adv-x="1394" 
d="M395 1563q-20 -11 -43.5 -2.5t-29 28.5t17.5 47l225 215q33 33 74 33h49q38 0 74 -33l239 -215q17 -16 19.5 -35t-8 -31t-28.5 -16t-42 9l-285 147zM1296 170q16 -36 42.5 -61t44.5 -40t18 -34v-6q0 -29 -43 -29h-365q-43 0 -43 29v6q0 14 16 28.5t33.5 25.5t28 32.5
t-1.5 48.5l-80 203h-618l-76 -203q-12 -27 -1.5 -48.5t28 -32.5t33.5 -25.5t16 -28.5v-6q0 -29 -45 -29h-232q-43 0 -43 29v6q0 15 11.5 28t27.5 23t35 32.5t31 51.5l430 1104q12 30 -5 57t-40 50t-23 38v6q0 13 9 21t26 8h162q41 0 67 -18.5t43 -59.5zM369 483h534
l-274 701z" />
    <glyph glyph-name="Atilde" unicode="&#xc3;" horiz-adv-x="1394" 
d="M346 1593q-13 0 -20 10.5t-4 28.5q16 93 71.5 154t141.5 61q45 0 94 -17t83.5 -38t73.5 -38t68 -17q68 0 96 55q14 27 39 27h17q33 0 24 -39q-26 -105 -80 -158t-129 -53q-54 0 -113 28t-112.5 56t-93.5 28q-58 0 -94 -55q-1 -2 -4 -6.5t-3.5 -5.5t-3 -5t-3.5 -4.5
t-3 -3.5t-3.5 -3.5t-4 -2t-5 -1.5t-5.5 -0.5t-6 -0.5h-21zM1296 170q16 -36 42.5 -61t44.5 -40t18 -34v-6q0 -29 -43 -29h-365q-43 0 -43 29v6q0 14 16 28.5t33.5 25.5t28 32.5t-1.5 48.5l-80 203h-618l-76 -203q-12 -27 -1.5 -48.5t28 -32.5t33.5 -25.5t16 -28.5v-6
q0 -29 -45 -29h-232q-43 0 -43 29v6q0 15 11.5 28t27.5 23t35 32.5t31 51.5l430 1104q12 30 -5 57t-40 50t-23 38v6q0 13 9 21t26 8h162q41 0 67 -18.5t43 -59.5zM369 483h534l-274 701z" />
    <glyph glyph-name="Adieresis" unicode="&#xc4;" horiz-adv-x="1394" 
d="M459 1604q-69 0 -112.5 39.5t-43.5 101.5t43.5 101.5t112.5 39.5q68 0 109.5 -39.5t41.5 -101.5t-41.5 -101.5t-109.5 -39.5zM889 1604q-69 0 -111.5 39.5t-42.5 101.5t42.5 101.5t111.5 39.5q67 0 110 -39.5t43 -101.5t-43 -101.5t-110 -39.5zM1296 170q16 -36 42.5 -61
t44.5 -40t18 -34v-6q0 -29 -43 -29h-365q-43 0 -43 29v6q0 14 16 28.5t33.5 25.5t28 32.5t-1.5 48.5l-80 203h-618l-76 -203q-12 -27 -1.5 -48.5t28 -32.5t33.5 -25.5t16 -28.5v-6q0 -29 -45 -29h-232q-43 0 -43 29v6q0 15 11.5 28t27.5 23t35 32.5t31 51.5l430 1104
q12 30 -5 57t-40 50t-23 38v6q0 13 9 21t26 8h162q41 0 67 -18.5t43 -59.5zM369 483h534l-274 701z" />
    <glyph glyph-name="Aring" unicode="&#xc5;" horiz-adv-x="1394" 
d="M672 1538q-113 0 -186.5 61t-73.5 150q0 96 72.5 156.5t189.5 60.5q114 0 188 -59.5t74 -149.5q0 -96 -72.5 -157.5t-191.5 -61.5zM674 1886q-52 0 -83.5 -34t-31.5 -99q0 -60 32.5 -99.5t82.5 -39.5q51 0 82.5 36.5t31.5 102.5q0 59 -32 96t-82 37zM1296 170
q16 -36 42.5 -61t44.5 -40t18 -34v-6q0 -29 -43 -29h-365q-43 0 -43 29v6q0 14 16 28.5t33.5 25.5t28 32.5t-1.5 48.5l-80 203h-618l-76 -203q-12 -27 -1.5 -48.5t28 -32.5t33.5 -25.5t16 -28.5v-6q0 -29 -45 -29h-232q-43 0 -43 29v6q0 15 11.5 28t27.5 23t35 32.5t31 51.5
l430 1104q12 30 -5 57t-40 50t-23 38v6q0 13 9 21t26 8h162q41 0 67 -18.5t43 -59.5zM369 483h534l-274 701z" />
    <glyph glyph-name="AE" unicode="&#xc6;" horiz-adv-x="1931" 
d="M1866 319q37 0 28 -38l-51 -228q-5 -27 -17.5 -40t-39.5 -13h-862q-45 0 -45 29v6q0 16 12 31t26.5 26t26.5 32t12 48v203h-505l-117 -205q-16 -25 -9.5 -46t21 -32.5t29 -26t14.5 -28.5v-6q0 -14 -12.5 -22.5t-32.5 -8.5h-313q-45 0 -45 31v6q0 18 20 32.5t53 39.5
t54 61l635 1079q19 29 13.5 56t-19.5 43.5t-29 35t-15 31.5v10q0 13 11.5 21t29.5 8h990q27 0 40 -12t19 -39l45 -213q4 -21 -6 -33t-29 -12h-10q-26 0 -56 32.5t-54 71t-62.5 71t-79.5 32.5h-285q-69 0 -69 -82v-469h305q30 0 54.5 21t37 45.5t27.5 45.5t30 21h13
q30 0 30 -45v-281q0 -43 -30 -43h-13q-15 0 -30 19.5t-27.5 43t-37 43t-54.5 19.5h-305v-487q0 -46 24.5 -73.5t65.5 -27.5h323q37 0 70 22.5t56.5 54t44.5 63.5t43 54.5t44 22.5h13zM514 485h442v779z" />
    <glyph glyph-name="Ccedilla" unicode="&#xc7;" horiz-adv-x="1378" 
d="M1239 498q14 21 37 25.5t39 -10.5t12 -44q-13 -95 -54.5 -179.5t-108.5 -152.5t-166 -110t-218 -47l-4 -93q96 2 166 -38t70 -117q0 -76 -75 -120t-183 -44q-92 0 -172 37q-29 15 -26 55q2 32 21 36q8 2 17 -3q21 -12 57 -21.5t66 -9.5q48 0 80.5 19.5t31.5 58.5
q-2 67 -122 67q-27 0 -41.5 17.5t-10.5 44.5l23 115q-166 22 -310 133.5t-228.5 279t-84.5 346.5q0 157 50.5 292.5t139.5 231.5t216 151t274 55q117 0 225.5 -36t183 -92t119 -123.5t44.5 -131.5q0 -52 -31 -82.5t-86 -30.5q-38 0 -69.5 21.5t-56 56t-49 76t-55 83.5
t-66.5 76.5t-91.5 56t-122.5 21.5q-157 0 -269 -134.5t-112 -346.5q0 -149 44 -279.5t115.5 -219t164.5 -139t190 -50.5q80 0 152 28t124 74t88.5 95t61.5 102z" />
    <glyph glyph-name="Egrave" unicode="&#xc8;" horiz-adv-x="1243" 
d="M786 1593l-428 74q-31 3 -44 23t-5 49l27 96q8 31 30 41.5t54 -4.5l401 -191q15 -8 22 -24t3 -33q-12 -31 -60 -31zM154 0q-45 0 -45 29v6q0 15 12 29t26.5 25t26.5 33t12 50v1110q0 28 -12 50.5t-26.5 33.5t-26.5 25t-12 28v6q0 29 41 29h890q27 0 40 -12t18 -39
l49 -221q9 -47 -33 -47h-10q-22 0 -46 22.5t-46.5 54.5t-46.5 63.5t-55 54t-64 22.5h-344q-70 0 -70 -80v-477h316q30 0 53 21t34 46.5t26 46.5t30 21h12q14 0 22.5 -10.5t8.5 -28.5v-291q0 -17 -8.5 -28t-22.5 -11h-12q-15 0 -30 20t-26 44.5t-34 44.5t-53 20h-316l-2 -479
q0 -45 23 -77t69 -32h387q33 0 63 23.5t52.5 56.5t43 66t44 56.5t47.5 23.5h15q17 0 25 -14t5 -33l-47 -228q-6 -28 -19 -40.5t-40 -12.5h-944z" />
    <glyph glyph-name="Eacute" unicode="&#xc9;" horiz-adv-x="1243" 
d="M434 1595q-43 -3 -57 29q-12 38 22 57l404 191q31 14 53 4.5t31 -39.5l24 -96q9 -28 -4 -48.5t-45 -23.5zM154 0q-45 0 -45 29v6q0 15 12 29t26.5 25t26.5 33t12 50v1110q0 28 -12 50.5t-26.5 33.5t-26.5 25t-12 28v6q0 29 41 29h890q27 0 40 -12t18 -39l49 -221
q9 -47 -33 -47h-10q-22 0 -46 22.5t-46.5 54.5t-46.5 63.5t-55 54t-64 22.5h-344q-70 0 -70 -80v-477h316q30 0 53 21t34 46.5t26 46.5t30 21h12q14 0 22.5 -10.5t8.5 -28.5v-291q0 -17 -8.5 -28t-22.5 -11h-12q-15 0 -30 20t-26 44.5t-34 44.5t-53 20h-316l-2 -479
q0 -45 23 -77t69 -32h387q33 0 63 23.5t52.5 56.5t43 66t44 56.5t47.5 23.5h15q17 0 25 -14t5 -33l-47 -228q-6 -28 -19 -40.5t-40 -12.5h-944z" />
    <glyph glyph-name="Ecircumflex" unicode="&#xca;" horiz-adv-x="1243" 
d="M346 1563q-20 -11 -43.5 -2.5t-29 28.5t17.5 47l225 215q33 33 74 33h49q38 0 74 -33l239 -215q17 -16 19.5 -35t-8 -31t-28.5 -16t-42 9l-285 147zM1174 328q17 0 25 -14t5 -33l-47 -228q-6 -28 -19 -40.5t-40 -12.5h-944q-45 0 -45 29v6q0 15 12 29t26.5 25t26.5 33
t12 50v1110q0 28 -12 50.5t-26.5 33.5t-26.5 25t-12 28v6q0 29 41 29h890q27 0 40 -12t18 -39l49 -221q9 -47 -33 -47h-10q-22 0 -46 22.5t-46.5 54.5t-46.5 63.5t-55 54t-64 22.5h-344q-70 0 -70 -80v-477h316q30 0 53 21t34 46.5t26 46.5t30 21h12q14 0 22.5 -10.5
t8.5 -28.5v-291q0 -17 -8.5 -28t-22.5 -11h-12q-15 0 -30 20t-26 44.5t-34 44.5t-53 20h-316l-2 -479q0 -45 23 -77t69 -32h387q33 0 63 23.5t52.5 56.5t43 66t44 56.5t47.5 23.5h15z" />
    <glyph glyph-name="Edieresis" unicode="&#xcb;" horiz-adv-x="1243" 
d="M406 1604q-69 0 -112.5 39.5t-43.5 101.5t43.5 101.5t112.5 39.5q68 0 109.5 -39.5t41.5 -101.5t-41.5 -101.5t-109.5 -39.5zM836 1604q-69 0 -111.5 39.5t-42.5 101.5t42.5 101.5t111.5 39.5q67 0 110 -39.5t43 -101.5t-43 -101.5t-110 -39.5zM154 0q-45 0 -45 29v6
q0 15 12 29t26.5 25t26.5 33t12 50v1110q0 28 -12 50.5t-26.5 33.5t-26.5 25t-12 28v6q0 29 41 29h890q27 0 40 -12t18 -39l49 -221q9 -47 -33 -47h-10q-22 0 -46 22.5t-46.5 54.5t-46.5 63.5t-55 54t-64 22.5h-344q-70 0 -70 -80v-477h316q30 0 53 21t34 46.5t26 46.5
t30 21h12q14 0 22.5 -10.5t8.5 -28.5v-291q0 -17 -8.5 -28t-22.5 -11h-12q-15 0 -30 20t-26 44.5t-34 44.5t-53 20h-316l-2 -479q0 -45 23 -77t69 -32h387q33 0 63 23.5t52.5 56.5t43 66t44 56.5t47.5 23.5h15q17 0 25 -14t5 -33l-47 -228q-6 -28 -19 -40.5t-40 -12.5h-944z
" />
    <glyph glyph-name="Igrave" unicode="&#xcc;" horiz-adv-x="624" 
d="M475 1593l-428 74q-31 3 -44 23t-5 49l27 96q8 31 30 41.5t54 -4.5l401 -191q15 -8 22 -24t3 -33q-12 -31 -60 -31zM111 29v6q0 14 11.5 28t26 24.5t26 32t11.5 48.5v1116q0 27 -11.5 48.5t-26 32.5t-26 25t-11.5 29v6q0 29 43 29h319q43 0 43 -29v-6q0 -15 -13 -29
t-28 -25t-28 -32.5t-13 -48.5v-1116q0 -27 13 -48.5t28 -32t28 -24.5t13 -28v-6q0 -29 -43 -29h-319q-43 0 -43 29z" />
    <glyph glyph-name="Iacute" unicode="&#xcd;" horiz-adv-x="624" 
d="M125 1595q-43 -3 -57 29q-12 38 22 57l404 191q31 14 53 4.5t31 -39.5l24 -96q9 -28 -4 -48.5t-45 -23.5zM111 29v6q0 14 11.5 28t26 24.5t26 32t11.5 48.5v1116q0 27 -11.5 48.5t-26 32.5t-26 25t-11.5 29v6q0 29 43 29h319q43 0 43 -29v-6q0 -15 -13 -29t-28 -25
t-28 -32.5t-13 -48.5v-1116q0 -27 13 -48.5t28 -32t28 -24.5t13 -28v-6q0 -29 -43 -29h-319q-43 0 -43 29z" />
    <glyph glyph-name="Icircumflex" unicode="&#xce;" horiz-adv-x="624" 
d="M641 1636q17 -16 19.5 -35t-8 -31t-28.5 -16t-42 9l-285 147l-262 -147q-20 -11 -43.5 -2.5t-29 28.5t17.5 47l225 215q33 33 74 33h49q37 0 73 -33zM473 1454q43 0 43 -29v-6q0 -15 -13 -29t-28 -25t-28 -32.5t-13 -48.5v-1116q0 -27 13 -48.5t28 -32t28 -24.5t13 -28
v-6q0 -29 -43 -29h-319q-43 0 -43 29v6q0 14 11.5 28t26 24.5t26 32t11.5 48.5v1116q0 27 -11.5 48.5t-26 32.5t-26 25t-11.5 29v6q0 29 43 29h319z" />
    <glyph glyph-name="Idieresis" unicode="&#xcf;" horiz-adv-x="624" 
d="M98 1604q-69 0 -112 39.5t-43 101.5t43 101.5t112 39.5q68 0 110 -39.5t42 -101.5t-42 -101.5t-110 -39.5zM528 1604q-68 0 -110.5 39.5t-42.5 101.5t42.5 101.5t110.5 39.5q67 0 110.5 -39.5t43.5 -101.5t-43.5 -101.5t-110.5 -39.5zM111 29v6q0 14 11.5 28t26 24.5
t26 32t11.5 48.5v1116q0 27 -11.5 48.5t-26 32.5t-26 25t-11.5 29v6q0 29 43 29h319q43 0 43 -29v-6q0 -15 -13 -29t-28 -25t-28 -32.5t-13 -48.5v-1116q0 -27 13 -48.5t28 -32t28 -24.5t13 -28v-6q0 -29 -43 -29h-319q-43 0 -43 29z" />
    <glyph glyph-name="Eth" unicode="&#xd0;" horiz-adv-x="1544" 
d="M610 1454q187 0 348 -55.5t274 -151t177 -229t64 -285.5q0 -222 -100.5 -390t-274.5 -255.5t-396 -87.5h-542q-45 0 -45 29v6q0 15 12 29t27 25t27 32.5t12 48.5v518h-107q-31 0 -31 27v45q0 28 31 28h107v496q0 27 -12 48.5t-27 32.5t-27 25t-12 29v6q0 29 45 29h450z
M688 104q233 0 382 145.5t149 391.5q0 150 -50.5 282.5t-138 225.5t-209 147t-258.5 54h-57q-32 0 -51 -18.5t-19 -57.5v-486h254q15 0 24 -8t9 -20v-41q0 -31 -33 -31h-254v-438q0 -69 33 -107.5t90 -38.5h129z" />
    <glyph glyph-name="Ntilde" unicode="&#xd1;" horiz-adv-x="1542" 
d="M471 1593q-13 0 -20.5 10.5t-4.5 28.5q16 93 71.5 154t141.5 61q58 0 119 -27.5t113.5 -55t87.5 -27.5q68 0 96 55q13 27 39 27h16q15 0 22 -10.5t3 -28.5q-26 -105 -80 -158t-129 -53q-54 0 -113 28t-112.5 56t-93.5 28q-59 0 -95 -55q-2 -3 -5 -8t-4 -7t-3.5 -5.5
t-4 -4.5t-4.5 -3.5t-5.5 -3t-6 -1t-7.5 -0.5h-21zM1403 1454q20 0 32.5 -8.5t12.5 -22.5v-6q0 -14 -13.5 -28t-29.5 -24.5t-29.5 -32t-13.5 -48.5v-1214q0 -33 -17.5 -51.5t-48.5 -18.5h-73q-36 0 -76 57l-830 1127v-1010q0 -28 14 -50t31.5 -33.5t31.5 -26t14 -29.5v-6
q0 -13 -12.5 -21t-33.5 -8h-210q-46 0 -46 29v6q0 18 20 36t40 43t20 60v1108q0 27 -12.5 48t-27.5 31.5t-27.5 24.5t-12.5 29v8q0 14 12.5 22.5t33.5 8.5h202q52 0 86 -49l791 -1100v979q0 27 -13.5 48.5t-29.5 32t-29.5 24.5t-13.5 28v6q0 14 12.5 22.5t32.5 8.5h213z" />
    <glyph glyph-name="Ograve" unicode="&#xd2;" horiz-adv-x="1570" 
d="M944 1593l-428 74q-31 3 -44 23t-5 49l27 96q8 31 30 41.5t54 -4.5l401 -191q15 -8 22 -24t3 -33q-12 -31 -60 -31zM799 -20q-159 0 -296 60.5t-231 163t-147 238.5t-53 285q0 214 90 384.5t253.5 267t372.5 96.5q157 0 292 -61.5t226.5 -165.5t143 -241t51.5 -288
q0 -154 -54.5 -291.5t-147.5 -235.5t-223 -155t-277 -57zM864 90q171 0 282 131t111 318q0 227 -69 414.5t-197 299t-289 111.5q-173 0 -280 -126.5t-107 -326.5q0 -226 67.5 -412.5t194 -297.5t287.5 -111z" />
    <glyph glyph-name="Oacute" unicode="&#xd3;" horiz-adv-x="1570" 
d="M592 1595q-43 -3 -57 29q-12 38 22 57l404 191q31 14 52.5 4.5t30.5 -39.5l25 -96q9 -28 -4 -48.5t-45 -23.5zM799 -20q-159 0 -296 60.5t-231 163t-147 238.5t-53 285q0 214 90 384.5t253.5 267t372.5 96.5q157 0 292 -61.5t226.5 -165.5t143 -241t51.5 -288
q0 -154 -54.5 -291.5t-147.5 -235.5t-223 -155t-277 -57zM864 90q171 0 282 131t111 318q0 227 -69 414.5t-197 299t-289 111.5q-173 0 -280 -126.5t-107 -326.5q0 -226 67.5 -412.5t194 -297.5t287.5 -111z" />
    <glyph glyph-name="Ocircumflex" unicode="&#xd4;" horiz-adv-x="1570" 
d="M504 1563q-20 -11 -43.5 -2.5t-29 28.5t17.5 47l225 215q33 33 74 33h49q37 0 73 -33l240 -215q17 -16 19.5 -35t-8 -31t-28.5 -16t-42 9l-285 147zM788 1475q157 0 292 -61.5t226.5 -165.5t143 -241t51.5 -288q0 -154 -54.5 -291.5t-147.5 -235.5t-223 -155t-277 -57
q-159 0 -296 60.5t-231 163t-147 238.5t-53 285q0 214 90 384.5t253.5 267t372.5 96.5zM864 90q171 0 282 131t111 318q0 227 -69 414.5t-197 299t-289 111.5q-173 0 -280 -126.5t-107 -326.5q0 -226 67.5 -412.5t194 -297.5t287.5 -111z" />
    <glyph glyph-name="Otilde" unicode="&#xd5;" horiz-adv-x="1570" 
d="M649 1847q58 0 119 -27.5t113.5 -55t87.5 -27.5q68 0 96 55q13 27 39 27h16q15 0 22 -10.5t3 -28.5q-26 -105 -80 -158t-129 -53q-54 0 -113 28t-113 56t-94 28q-58 0 -94 -55q-1 -2 -4 -6.5t-3.5 -5.5t-3 -5t-3.5 -4.5t-3 -3.5t-3.5 -3.5t-4 -2t-5 -1.5t-5.5 -0.5
t-6 -0.5h-20q-13 0 -20.5 10.5t-4.5 28.5q16 93 71.5 154t141.5 61zM799 -20q-159 0 -296 60.5t-231 163t-147 238.5t-53 285q0 214 90 384.5t253.5 267t372.5 96.5q157 0 292 -61.5t226.5 -165.5t143 -241t51.5 -288q0 -154 -54.5 -291.5t-147.5 -235.5t-223 -155t-277 -57
zM864 90q171 0 282 131t111 318q0 227 -69 414.5t-197 299t-289 111.5q-173 0 -280 -126.5t-107 -326.5q0 -226 67.5 -412.5t194 -297.5t287.5 -111z" />
    <glyph glyph-name="Odieresis" unicode="&#xd6;" horiz-adv-x="1570" 
d="M567 1604q-69 0 -112 39.5t-43 101.5t43 101.5t112 39.5q68 0 110 -39.5t42 -101.5t-42 -101.5t-110 -39.5zM997 1604q-68 0 -110.5 39.5t-42.5 101.5t42.5 101.5t110.5 39.5q67 0 110.5 -39.5t43.5 -101.5t-43.5 -101.5t-110.5 -39.5zM799 -20q-159 0 -296 60.5
t-231 163t-147 238.5t-53 285q0 214 90 384.5t253.5 267t372.5 96.5q157 0 292 -61.5t226.5 -165.5t143 -241t51.5 -288q0 -154 -54.5 -291.5t-147.5 -235.5t-223 -155t-277 -57zM864 90q171 0 282 131t111 318q0 227 -69 414.5t-197 299t-289 111.5q-173 0 -280 -126.5
t-107 -326.5q0 -226 67.5 -412.5t194 -297.5t287.5 -111z" />
    <glyph glyph-name="multiply" unicode="&#xd7;" 
d="M340 225l-70 70q-16 20 9 45l227 229l-227 230q-25 25 -9 45l70 69q20 17 45 -8l229 -227l230 229q12 12 25 13.5t20 -7.5l69 -69q18 -18 -8 -45l-227 -228l229 -231q12 -12 13.5 -25t-7.5 -20l-69 -70q-19 -19 -45 8l-230 228l-229 -228q-25 -25 -45 -8z" />
    <glyph glyph-name="Oslash" unicode="&#xd8;" horiz-adv-x="1599" 
d="M1362 1202q156 -207 156 -483q0 -206 -92.5 -375.5t-253.5 -266.5t-357 -97q-307 0 -514 210l-141 -135q-23 -17 -43 0l-39 35q-19 19 10 45l143 137q-143 197 -143 455q0 214 90 384.5t254 267t373 96.5q286 0 485 -193l125 119q29 29 51 8l35 -33q22 -19 -6 -47z
M332 911q0 -258 88 -460l700 669q-74 115 -176.5 179.5t-224.5 64.5q-173 0 -280 -126.5t-107 -326.5zM881 90q171 0 282 131t111 318q0 277 -100 485l-705 -672q75 -124 180.5 -193t231.5 -69z" />
    <glyph glyph-name="Ugrave" unicode="&#xd9;" horiz-adv-x="1474" 
d="M973 1593l-428 74q-31 3 -44 23t-5 49l26 96q8 31 30 41.5t54 -4.5l402 -191q15 -7 22 -23.5t2 -33.5q-12 -31 -59 -31zM756 -20q-266 0 -430 155.5t-164 423.5v725q0 27 -12 48.5t-27 32t-27 24.5t-12 28v8q0 29 45 29h322q43 0 43 -29v-8q0 -14 -13 -28t-28 -24.5
t-28 -32t-13 -48.5v-725q0 -220 106 -344.5t289 -124.5q71 0 136 28t119 83t86 147.5t32 210.5v725q0 27 -12.5 48.5t-27.5 32t-27.5 24.5t-12.5 28v8q0 29 45 29h207q45 0 45 -29v-8q0 -14 -13.5 -28t-29.5 -24.5t-29.5 -32t-13.5 -48.5v-727q0 -267 -153 -422t-402 -155z
" />
    <glyph glyph-name="Uacute" unicode="&#xda;" horiz-adv-x="1474" 
d="M575 1595q-43 -3 -57 29q-6 18 1.5 33.5t21.5 23.5l403 191q31 14 53 4.5t31 -39.5l25 -96q9 -28 -4 -48.5t-45 -23.5zM756 -20q-266 0 -430 155.5t-164 423.5v725q0 27 -12 48.5t-27 32t-27 24.5t-12 28v8q0 29 45 29h322q43 0 43 -29v-8q0 -14 -13 -28t-28 -24.5
t-28 -32t-13 -48.5v-725q0 -220 106 -344.5t289 -124.5q71 0 136 28t119 83t86 147.5t32 210.5v725q0 27 -12.5 48.5t-27.5 32t-27.5 24.5t-12.5 28v8q0 29 45 29h207q45 0 45 -29v-8q0 -14 -13.5 -28t-29.5 -24.5t-29.5 -32t-13.5 -48.5v-727q0 -267 -153 -422t-402 -155z
" />
    <glyph glyph-name="Ucircumflex" unicode="&#xdb;" horiz-adv-x="1474" 
d="M481 1563q-20 -11 -43.5 -2.5t-29 28.5t17.5 47l225 215q33 33 74 33h49q38 0 74 -33l239 -215q17 -16 19.5 -35t-8 -31t-28.5 -16t-42 9l-285 147zM1352 1454q45 0 45 -29v-8q0 -14 -13.5 -28t-29.5 -24.5t-29.5 -32t-13.5 -48.5v-727q0 -267 -153 -422t-402 -155
q-266 0 -430 155.5t-164 423.5v725q0 27 -12 48.5t-27 32t-27 24.5t-12 28v8q0 29 45 29h322q43 0 43 -29v-8q0 -14 -13 -28t-28 -24.5t-28 -32t-13 -48.5v-725q0 -220 106 -344.5t289 -124.5q71 0 136 28t119 83t86 147.5t32 210.5v725q0 27 -12.5 48.5t-27.5 32
t-27.5 24.5t-12.5 28v8q0 29 45 29h207z" />
    <glyph glyph-name="Udieresis" unicode="&#xdc;" horiz-adv-x="1474" 
d="M551 1604q-69 0 -112.5 39.5t-43.5 101.5t43.5 101.5t112.5 39.5q68 0 109.5 -39.5t41.5 -101.5t-41.5 -101.5t-109.5 -39.5zM981 1604q-69 0 -111.5 39.5t-42.5 101.5t42.5 101.5t111.5 39.5q67 0 110.5 -39.5t43.5 -101.5t-43.5 -101.5t-110.5 -39.5zM756 -20
q-266 0 -430 155.5t-164 423.5v725q0 27 -12 48.5t-27 32t-27 24.5t-12 28v8q0 29 45 29h322q43 0 43 -29v-8q0 -14 -13 -28t-28 -24.5t-28 -32t-13 -48.5v-725q0 -220 106 -344.5t289 -124.5q71 0 136 28t119 83t86 147.5t32 210.5v725q0 27 -12.5 48.5t-27.5 32
t-27.5 24.5t-12.5 28v8q0 29 45 29h207q45 0 45 -29v-8q0 -14 -13.5 -28t-29.5 -24.5t-29.5 -32t-13.5 -48.5v-727q0 -267 -153 -422t-402 -155z" />
    <glyph glyph-name="Yacute" unicode="&#xdd;" horiz-adv-x="1376" 
d="M528 1595q-43 -3 -57 29q-6 18 1.5 33.5t21.5 23.5l403 191q31 14 53 4.5t31 -39.5l25 -96q9 -28 -4.5 -48.5t-45.5 -23.5zM1317 1454q43 0 43 -29v-6q0 -19 -17.5 -33t-48 -39t-51.5 -63l-414 -694v-420q0 -27 13 -48.5t28 -32.5t28 -25t13 -29v-6q0 -29 -43 -29h-321
q-43 0 -43 29v6q0 15 12 29t26 25t26 32.5t12 48.5v401l-455 713q-21 34 -53 59.5t-51 41t-19 34.5v6q0 29 45 29h377q45 0 45 -29v-6q0 -14 -17.5 -29.5t-35 -27t-26.5 -32.5t7 -46l357 -612l362 612q17 27 7 48.5t-28.5 32.5t-36.5 25.5t-18 28.5v6q0 29 41 29h236z" />
    <glyph glyph-name="Thorn" unicode="&#xde;" horiz-adv-x="1298" 
d="M154 0q-20 0 -31.5 8.5t-11.5 22.5v6q0 15 11.5 29t26 25t26 32.5t11.5 48.5v1110q0 28 -11.5 50t-26 33t-26 25t-11.5 29v6q0 29 43 29h319q43 0 43 -29v-6q0 -15 -13 -29t-28 -25t-28 -33t-13 -50v-76h158q139 0 256 -28t205 -83t137 -142t49 -199q0 -227 -166 -350
t-446 -123h-193v-109q0 -27 13 -48.5t28 -32.5t28 -25t13 -29v-6q0 -14 -11.5 -22.5t-31.5 -8.5h-319zM498 385h147q157 0 248.5 85t91.5 245q0 122 -56 212t-141.5 132.5t-185.5 42.5h-104q-30 0 -47 -18.5t-17 -49.5v-583q0 -31 16.5 -48.5t47.5 -17.5z" />
    <glyph glyph-name="germandbls" unicode="&#xdf;" horiz-adv-x="1185" 
d="M793 803q148 -32 241.5 -141t93.5 -271q0 -91 -36.5 -166t-99.5 -123.5t-145 -75t-175 -26.5q-28 0 -39.5 24t-1.5 48t33 24q98 0 159.5 64.5t61.5 193.5q0 171 -74 278t-205 107q-24 0 -34.5 25.5t-0.5 51.5t35 26q69 0 121.5 67.5t52.5 184.5q0 161 -53 248.5
t-158 87.5q-92 0 -143 -69.5t-51 -174.5v-1012q0 -28 15 -49.5t33 -32.5t33 -25.5t15 -31.5v-6q0 -11 -1.5 -17.5t-8 -9t-9.5 -2.5h-16h-340q-37 0 -37 29v6q0 15 12.5 29t27.5 25.5t27.5 34t12.5 50.5v916q0 185 120.5 301t324.5 116q178 0 302 -107t124 -280
q0 -110 -62 -195t-155 -122z" />
    <glyph glyph-name="agrave" unicode="&#xe0;" horiz-adv-x="1067" 
d="M250 1280q-30 9 -39 31.5t4 48.5l45 90q14 28 37 33.5t53 -15.5l357 -264q14 -11 17.5 -28.5t-5.5 -32.5q-18 -30 -64 -19zM952 184q4 -37 17 -60.5t29 -33t31 -15.5t25.5 -14t10.5 -22q0 -51 -166 -51q-82 0 -120 25.5t-44 97.5q-81 -131 -284 -131q-172 0 -277.5 81
t-105.5 228q-1 145 104.5 226t267.5 81q148 0 238 -70l-4 41q-18 189 -65 275t-150 86q-53 0 -89 -25.5t-55 -62t-35 -73t-40.5 -62t-59.5 -25.5q-46 0 -73 25.5t-27 68.5q0 97 108 163.5t271 66.5q192 0 311 -113.5t141 -312.5zM518 57q84 0 136.5 61t47.5 146l-6 64
q-6 87 -59 138.5t-135 51.5q-86 0 -139.5 -55t-53.5 -146q0 -108 58 -184t151 -76z" />
    <glyph glyph-name="aacute" unicode="&#xe1;" horiz-adv-x="1067" 
d="M307 1135q-42 -14 -63 16q-18 35 12 61l358 265q28 21 52 15.5t39 -34.5l43 -90q14 -25 4.5 -48t-39.5 -32zM952 184q4 -37 17 -60.5t29 -33t31 -15.5t25.5 -14t10.5 -22q0 -51 -166 -51q-82 0 -120 25.5t-44 97.5q-81 -131 -284 -131q-172 0 -277.5 81t-105.5 228
q-1 145 104.5 226t267.5 81q148 0 238 -70l-4 41q-18 189 -65 275t-150 86q-53 0 -89 -25.5t-55 -62t-35 -73t-40.5 -62t-59.5 -25.5q-46 0 -73 25.5t-27 68.5q0 97 108 163.5t271 66.5q192 0 311 -113.5t141 -312.5zM518 57q84 0 136.5 61t47.5 146l-6 64q-6 87 -59 138.5
t-135 51.5q-86 0 -139.5 -55t-53.5 -146q0 -108 58 -184t151 -76z" />
    <glyph glyph-name="acircumflex" unicode="&#xe2;" horiz-adv-x="1067" 
d="M207 1133q-20 -11 -43.5 -2.5t-29 28.5t17.5 47l225 215q33 33 74 33h49q37 0 73 -33l240 -215q17 -16 19.5 -35t-8 -31t-28.5 -16t-42 9l-285 147zM952 184q4 -37 17 -60.5t29 -33t31 -15.5t25.5 -14t10.5 -22q0 -51 -166 -51q-82 0 -120 25.5t-44 97.5
q-81 -131 -284 -131q-172 0 -277.5 81t-105.5 228q-1 145 104.5 226t267.5 81q148 0 238 -70l-4 41q-18 189 -65 275t-150 86q-53 0 -89 -25.5t-55 -62t-35 -73t-40.5 -62t-59.5 -25.5q-46 0 -73 25.5t-27 68.5q0 97 108 163.5t271 66.5q192 0 311 -113.5t141 -312.5z
M518 57q84 0 136.5 61t47.5 146l-6 64q-6 87 -59 138.5t-135 51.5q-86 0 -139.5 -55t-53.5 -146q0 -108 58 -184t151 -76z" />
    <glyph glyph-name="atilde" unicode="&#xe3;" horiz-adv-x="1067" 
d="M143 1212q-13 0 -20 10.5t-4 28.5q16 93 71.5 154t141.5 61q45 0 94 -17t83.5 -38t73.5 -38t68 -17q69 0 97 55q14 27 38 27h17q33 0 24 -39q-26 -105 -80 -158t-129 -53q-54 0 -113 28t-112.5 56t-93.5 28q-58 0 -94 -55q-1 -2 -4 -6.5t-3.5 -5.5t-3 -5t-3.5 -4.5
t-3 -3.5t-3.5 -3.5t-4 -2t-5 -1.5t-5.5 -0.5t-6 -0.5h-21zM952 184q4 -37 17 -60.5t29 -33t31 -15.5t25.5 -14t10.5 -22q0 -51 -166 -51q-82 0 -120 25.5t-44 97.5q-81 -131 -284 -131q-172 0 -277.5 81t-105.5 228q-1 145 104.5 226t267.5 81q148 0 238 -70l-4 41
q-18 189 -65 275t-150 86q-53 0 -89 -25.5t-55 -62t-35 -73t-40.5 -62t-59.5 -25.5q-46 0 -73 25.5t-27 68.5q0 97 108 163.5t271 66.5q192 0 311 -113.5t141 -312.5zM518 57q84 0 136.5 61t47.5 146l-6 64q-6 87 -59 138.5t-135 51.5q-86 0 -139.5 -55t-53.5 -146
q0 -108 58 -184t151 -76z" />
    <glyph glyph-name="adieresis" unicode="&#xe4;" horiz-adv-x="1067" 
d="M270 1159q-69 0 -112 39.5t-43 101.5t43 102t112 40q68 0 110 -40t42 -102t-42 -101.5t-110 -39.5zM700 1159q-68 0 -110.5 39.5t-42.5 101.5t42.5 102t110.5 40q67 0 110.5 -40t43.5 -102t-43.5 -101.5t-110.5 -39.5zM952 184q4 -37 17 -60.5t29 -33t31 -15.5t25.5 -14
t10.5 -22q0 -51 -166 -51q-82 0 -120 25.5t-44 97.5q-81 -131 -284 -131q-172 0 -277.5 81t-105.5 228q-1 145 104.5 226t267.5 81q148 0 238 -70l-4 41q-18 189 -65 275t-150 86q-53 0 -89 -25.5t-55 -62t-35 -73t-40.5 -62t-59.5 -25.5q-46 0 -73 25.5t-27 68.5
q0 97 108 163.5t271 66.5q192 0 311 -113.5t141 -312.5zM518 57q84 0 136.5 61t47.5 146l-6 64q-6 87 -59 138.5t-135 51.5q-86 0 -139.5 -55t-53.5 -146q0 -108 58 -184t151 -76z" />
    <glyph glyph-name="aring" unicode="&#xe5;" horiz-adv-x="1067" 
d="M481 1106q-113 0 -186.5 61t-73.5 150q0 96 72.5 156.5t189.5 60.5q114 0 188 -59.5t74 -149.5q0 -96 -72.5 -157.5t-191.5 -61.5zM483 1454q-52 0 -83 -34t-31 -99q0 -60 32.5 -99.5t81.5 -39.5q51 0 83 36.5t32 102.5q0 59 -32.5 96t-82.5 37zM952 184q4 -37 17 -60.5
t29 -33t31 -15.5t25.5 -14t10.5 -22q0 -51 -166 -51q-82 0 -120 25.5t-44 97.5q-81 -131 -284 -131q-172 0 -277.5 81t-105.5 228q-1 145 104.5 226t267.5 81q148 0 238 -70l-4 41q-18 189 -65 275t-150 86q-53 0 -89 -25.5t-55 -62t-35 -73t-40.5 -62t-59.5 -25.5
q-46 0 -73 25.5t-27 68.5q0 97 108 163.5t271 66.5q192 0 311 -113.5t141 -312.5zM518 57q84 0 136.5 61t47.5 146l-6 64q-6 87 -59 138.5t-135 51.5q-86 0 -139.5 -55t-53.5 -146q0 -108 58 -184t151 -76z" />
    <glyph glyph-name="ae" unicode="&#xe6;" horiz-adv-x="1628" 
d="M1513 309q17 23 43.5 16.5t22.5 -36.5q-7 -48 -37 -98.5t-79.5 -97t-128 -76t-171.5 -29.5q-127 0 -230.5 55.5t-166.5 157.5q-22 -95 -102.5 -158t-212.5 -63q-170 0 -276.5 82.5t-106.5 226.5q0 143 103.5 225t268.5 82q147 0 240 -70l-4 41q-18 188 -66 274.5
t-151 86.5q-52 0 -87 -25.5t-53 -62t-33.5 -73t-41 -62t-62.5 -25.5q-47 0 -74.5 26.5t-27.5 69.5q0 98 113 163t266 65q222 0 348 -154q66 76 159.5 119t200.5 43q95 0 170.5 -26.5t120.5 -70.5t68.5 -96.5t23.5 -107.5q0 -106 -104 -144l-496 -182q39 -106 116.5 -165.5
t184.5 -59.5q87 0 147.5 40.5t114.5 108.5zM1126 934q-96 0 -153.5 -92.5t-57.5 -241.5q0 -64 13 -131l340 147q53 23 53 86q0 45 -23 97.5t-69.5 93.5t-102.5 41zM518 59q85 0 135.5 69t48.5 153l-6 65q-10 78 -63 123t-131 45q-85 0 -138 -49t-53 -127q0 -121 56.5 -200
t150.5 -79z" />
    <glyph glyph-name="ccedilla" unicode="&#xe7;" horiz-adv-x="1032" 
d="M915 317q10 15 27 19t29.5 -6.5t9.5 -30.5q-16 -127 -118.5 -220t-270.5 -99l-4 -93q96 2 165.5 -38t69.5 -117q0 -76 -75 -120t-183 -44q-92 0 -172 37q-29 15 -26 55q3 32 23 36q7 2 16 -3q21 -12 56.5 -21.5t65.5 -9.5q49 0 81.5 19.5t31.5 58.5q-2 67 -123 67
q-27 0 -41 17.5t-10 44.5l22 117q-193 29 -318.5 172.5t-125.5 337.5q0 151 71 268t188 178t257 62q168 1 290 -82.5t122 -188.5q0 -39 -26 -64t-79 -24q-30 2 -54.5 18t-42.5 41t-36 55t-37.5 59t-42.5 53.5t-57 39.5t-76 15q-105 0 -170 -90.5t-65 -225.5
q0 -210 99.5 -335t264.5 -125q93 0 160 47t104 120z" />
    <glyph glyph-name="egrave" unicode="&#xe8;" horiz-adv-x="1009" 
d="M279 1280q-30 9 -39 31.5t4 48.5l45 90q14 28 37 33.5t53 -15.5l356 -264q14 -11 18 -28.5t-5 -32.5q-18 -30 -64 -19zM897 301q17 23 43 16.5t23 -36.5q-7 -48 -37 -98.5t-79.5 -97t-128 -76t-171.5 -29.5q-102 0 -191.5 37t-154.5 103.5t-102.5 165t-37.5 214.5
q0 217 142.5 360.5t347.5 143.5q95 0 170.5 -27t120.5 -71t68.5 -96.5t23.5 -107.5q0 -105 -105 -143l-495 -182q39 -106 116.5 -165.5t184.5 -59.5q92 0 160.5 42t101.5 107zM510 926q-96 0 -153.5 -92.5t-57.5 -241.5q0 -70 12 -131l340 147q54 23 54 86q0 45 -23 97.5
t-69.5 93.5t-102.5 41z" />
    <glyph glyph-name="eacute" unicode="&#xe9;" horiz-adv-x="1009" 
d="M334 1135q-43 -14 -64 16q-18 34 13 61l358 265q28 21 51.5 15.5t38.5 -34.5l43 -90q14 -25 4.5 -48t-39.5 -32zM897 301q17 23 43 16.5t23 -36.5q-7 -48 -37 -98.5t-79.5 -97t-128 -76t-171.5 -29.5q-102 0 -191.5 37t-154.5 103.5t-102.5 165t-37.5 214.5
q0 217 142.5 360.5t347.5 143.5q95 0 170.5 -27t120.5 -71t68.5 -96.5t23.5 -107.5q0 -105 -105 -143l-495 -182q39 -106 116.5 -165.5t184.5 -59.5q92 0 160.5 42t101.5 107zM510 926q-96 0 -153.5 -92.5t-57.5 -241.5q0 -70 12 -131l340 147q54 23 54 86q0 45 -23 97.5
t-69.5 93.5t-102.5 41z" />
    <glyph glyph-name="ecircumflex" unicode="&#xea;" horiz-adv-x="1009" 
d="M236 1133q-20 -11 -44 -2.5t-29.5 28.5t17.5 47l226 215q33 33 73 33h49q38 0 74 -33l240 -215q23 -22 19.5 -46.5t-25.5 -32.5t-54 6l-284 147zM897 301q17 23 43 16.5t23 -36.5q-7 -48 -37 -98.5t-79.5 -97t-128 -76t-171.5 -29.5q-102 0 -191.5 37t-154.5 103.5
t-102.5 165t-37.5 214.5q0 217 142.5 360.5t347.5 143.5q95 0 170.5 -27t120.5 -71t68.5 -96.5t23.5 -107.5q0 -105 -105 -143l-495 -182q39 -106 116.5 -165.5t184.5 -59.5q92 0 160.5 42t101.5 107zM510 926q-96 0 -153.5 -92.5t-57.5 -241.5q0 -70 12 -131l340 147
q54 23 54 86q0 45 -23 97.5t-69.5 93.5t-102.5 41z" />
    <glyph glyph-name="edieresis" unicode="&#xeb;" horiz-adv-x="1009" 
d="M297 1159q-69 0 -112.5 39.5t-43.5 101.5t43.5 102t112.5 40q68 0 110 -40t42 -102t-42 -101.5t-110 -39.5zM727 1159q-69 0 -111.5 39.5t-42.5 101.5t43 102t111 40q67 0 110.5 -40t43.5 -102t-43.5 -101.5t-110.5 -39.5zM897 301q17 23 43 16.5t23 -36.5
q-7 -48 -37 -98.5t-79.5 -97t-128 -76t-171.5 -29.5q-102 0 -191.5 37t-154.5 103.5t-102.5 165t-37.5 214.5q0 217 142.5 360.5t347.5 143.5q95 0 170.5 -27t120.5 -71t68.5 -96.5t23.5 -107.5q0 -105 -105 -143l-495 -182q39 -106 116.5 -165.5t184.5 -59.5q92 0 160.5 42
t101.5 107zM510 926q-96 0 -153.5 -92.5t-57.5 -241.5q0 -70 12 -131l340 147q54 23 54 86q0 45 -23 97.5t-69.5 93.5t-102.5 41z" />
    <glyph glyph-name="igrave" unicode="&#xec;" horiz-adv-x="542" 
d="M459 1124l-406 156q-30 9 -39 31.5t4 48.5l45 90q14 28 37.5 33.5t53.5 -15.5l356 -264q14 -11 17.5 -28.5t-5.5 -32.5q-18 -30 -63 -19zM121 0q-20 0 -31.5 8.5t-11.5 22.5v8q0 15 12 29t26 24.5t26 31.5t12 48v537q0 28 -12 52t-26 36.5t-26 26.5t-12 26v6q0 18 37 37
l204 102q35 15 54.5 4t19.5 -38v-789q0 -27 13 -48t29 -31.5t29 -24.5t13 -29v-8q0 -14 -12.5 -22.5t-32.5 -8.5h-311z" />
    <glyph glyph-name="iacute" unicode="&#xed;" horiz-adv-x="542" 
d="M111 1135q-43 -14 -64 16q-18 35 12 61l359 265q28 21 51.5 15.5t38.5 -34.5l43 -90q14 -25 4.5 -48t-39.5 -32zM121 0q-20 0 -31.5 8.5t-11.5 22.5v8q0 15 12 29t26 24.5t26 31.5t12 48v537q0 28 -12 52t-26 36.5t-26 26.5t-12 26v6q0 18 37 37l204 102q35 15 54.5 4
t19.5 -38v-789q0 -27 13 -48t29 -31.5t29 -24.5t13 -29v-8q0 -14 -12.5 -22.5t-32.5 -8.5h-311z" />
    <glyph glyph-name="icircumflex" unicode="&#xee;" horiz-adv-x="542" 
d="M616 1206q17 -16 19.5 -35t-8 -31t-28.5 -16t-42 9l-285 147l-262 -147q-20 -11 -43.5 -2.5t-29 28.5t17.5 47l225 215q33 33 74 33h49q38 0 74 -33zM393 172q0 -27 13 -48t29 -31.5t29 -24.5t13 -29v-8q0 -14 -12.5 -22.5t-32.5 -8.5h-311q-20 0 -31.5 8.5t-11.5 22.5v8
q0 15 12 29t26 24.5t26 31.5t12 48v537q0 28 -12 52t-26 36.5t-26 26.5t-12 26v6q0 18 37 37l204 102q35 15 54.5 4t19.5 -38v-789z" />
    <glyph glyph-name="idieresis" unicode="&#xef;" horiz-adv-x="542" 
d="M72 1159q-69 0 -112.5 39.5t-43.5 101.5t43.5 102t112.5 40q68 0 109.5 -40t41.5 -102t-41.5 -101.5t-109.5 -39.5zM502 1159q-69 0 -111.5 39.5t-42.5 101.5t43 102t111 40q67 0 110 -40t43 -102t-43 -101.5t-110 -39.5zM121 0q-20 0 -31.5 8.5t-11.5 22.5v8q0 15 12 29
t26 24.5t26 31.5t12 48v537q0 28 -12 52t-26 36.5t-26 26.5t-12 26v6q0 18 37 37l204 102q35 15 54.5 4t19.5 -38v-789q0 -27 13 -48t29 -31.5t29 -24.5t13 -29v-8q0 -14 -12.5 -22.5t-32.5 -8.5h-311z" />
    <glyph glyph-name="eth" unicode="&#xf0;" horiz-adv-x="1177" 
d="M788 1262q148 -145 236 -341t88 -425q0 -235 -142.5 -375.5t-375.5 -140.5q-236 0 -384.5 148t-148.5 374q0 218 132 360t335 142q160 0 263 -109q-57 163 -187 303l-256 -90q-31 -12 -41 12l-16 35q-12 31 22 45l211 74q-79 69 -194 153q-25 20 -26.5 44t14.5 38.5
t36 10.5q185 -51 351 -183l225 78q30 10 41 -12l16 -37q13 -30 -24 -43zM629 57q103 0 168 91.5t65 232.5v33q-22 260 -108.5 386t-208.5 126q-113 0 -177.5 -92.5t-64.5 -251.5q0 -149 40.5 -268t115 -188t170.5 -69z" />
    <glyph glyph-name="ntilde" unicode="&#xf1;" horiz-adv-x="1204" 
d="M293 1212q-13 0 -20.5 10.5t-4.5 28.5q16 93 71.5 154t141.5 61q58 0 119 -27.5t113.5 -55t87.5 -27.5q68 0 96 55q13 27 39 27h16q15 0 22 -10.5t3 -28.5q-26 -105 -80 -158t-129 -53q-54 0 -113 28t-112.5 56t-93.5 28q-59 0 -95 -55q-1 -2 -4 -6.5t-3.5 -5.5t-3 -5
t-3.5 -4.5t-3 -3.5t-3.5 -3.5t-4 -2t-5 -1.5t-5.5 -0.5t-6 -0.5h-20zM1090 172q1 -28 13 -49.5t25 -32t24 -24.5t11 -29v-8q0 -14 -12.5 -22.5t-32.5 -8.5h-299q-45 0 -45 31v8q0 15 12 29t26.5 24.5t25.5 32t10 49.5l-21 395q-7 171 -63 254.5t-152 83.5q-97 0 -156 -71
t-59 -183v-481q0 -27 13 -48t29 -31.5t29 -24.5t13 -29v-8q0 -31 -45 -31h-317q-20 0 -31.5 8.5t-11.5 22.5v8q0 15 13 29t28 24.5t28 31.5t13 48v549q0 30 -14.5 52.5t-31.5 33t-31.5 23.5t-14.5 28v6q0 21 36 37l199 96q32 15 48 3.5t16 -40.5v-133q43 84 124.5 131.5
t186.5 47.5q75 0 140 -25t119 -76t88.5 -139t41.5 -205z" />
    <glyph glyph-name="ograve" unicode="&#xf2;" horiz-adv-x="1171" 
d="M758 1124l-406 156q-30 9 -39 31.5t4 48.5l45 90q14 28 37.5 33.5t53.5 -15.5l356 -264q14 -11 17.5 -28.5t-5.5 -32.5q-18 -30 -63 -19zM614 -20q-127 0 -233 43t-175.5 116t-108 166.5t-38.5 196.5q0 143 68 258.5t184.5 179.5t255.5 64q119 0 221 -41.5t171.5 -112
t109 -165t39.5 -200.5q0 -140 -61 -255t-174.5 -182.5t-258.5 -67.5zM645 57q98 0 159.5 91t61.5 253q0 142 -41.5 262.5t-116.5 191.5t-167 71q-111 0 -175.5 -89t-64.5 -255q0 -129 42 -248t122.5 -198t179.5 -79z" />
    <glyph glyph-name="oacute" unicode="&#xf3;" horiz-adv-x="1171" 
d="M410 1135q-43 -14 -64 16q-18 35 12 61l359 265q28 21 51.5 15.5t38.5 -34.5l43 -90q14 -25 4.5 -48t-39.5 -32zM614 -20q-127 0 -233 43t-175.5 116t-108 166.5t-38.5 196.5q0 143 68 258.5t184.5 179.5t255.5 64q119 0 221 -41.5t171.5 -112t109 -165t39.5 -200.5
q0 -140 -61 -255t-174.5 -182.5t-258.5 -67.5zM645 57q98 0 159.5 91t61.5 253q0 142 -41.5 262.5t-116.5 191.5t-167 71q-111 0 -175.5 -89t-64.5 -255q0 -129 42 -248t122.5 -198t179.5 -79z" />
    <glyph glyph-name="ocircumflex" unicode="&#xf4;" horiz-adv-x="1171" 
d="M309 1133q-20 -11 -43.5 -2.5t-29 28.5t17.5 47l225 215q33 33 74 33h49q38 0 74 -33l239 -215q17 -16 19.5 -35t-8 -31t-28.5 -16t-42 9l-285 147zM567 1004q119 0 221 -41.5t171.5 -112t109 -165t39.5 -200.5q0 -140 -61 -255t-174.5 -182.5t-258.5 -67.5
q-127 0 -233 43t-175.5 116t-108 166.5t-38.5 196.5q0 143 68 258.5t184.5 179.5t255.5 64zM645 57q98 0 159.5 91t61.5 253q0 142 -41.5 262.5t-116.5 191.5t-167 71q-111 0 -175.5 -89t-64.5 -255q0 -129 42 -248t122.5 -198t179.5 -79z" />
    <glyph glyph-name="otilde" unicode="&#xf5;" horiz-adv-x="1171" 
d="M432 1466q58 0 119 -27.5t113.5 -55t87.5 -27.5q68 0 96 55q14 27 39 27h16q15 0 22 -10.5t3 -28.5q-26 -105 -80 -158t-129 -53q-54 0 -113 28t-113 56t-94 28q-58 0 -94 -55q-1 -2 -4 -6.5t-3.5 -5.5t-3 -5t-3.5 -4.5t-3 -3.5t-3.5 -3.5t-4 -2t-5 -1.5t-5.5 -0.5
t-6 -0.5h-20q-13 0 -20.5 10.5t-4.5 28.5q16 93 71.5 154t141.5 61zM614 -20q-127 0 -233 43t-175.5 116t-108 166.5t-38.5 196.5q0 143 68 258.5t184.5 179.5t255.5 64q119 0 221 -41.5t171.5 -112t109 -165t39.5 -200.5q0 -140 -61 -255t-174.5 -182.5t-258.5 -67.5z
M645 57q98 0 159.5 91t61.5 253q0 142 -41.5 262.5t-116.5 191.5t-167 71q-111 0 -175.5 -89t-64.5 -255q0 -129 42 -248t122.5 -198t179.5 -79z" />
    <glyph glyph-name="odieresis" unicode="&#xf6;" horiz-adv-x="1171" 
d="M371 1159q-69 0 -112.5 39.5t-43.5 101.5t43.5 102t112.5 40q68 0 109.5 -40t41.5 -102t-41.5 -101.5t-109.5 -39.5zM801 1159q-69 0 -111.5 39.5t-42.5 101.5t43 102t111 40q67 0 110 -40t43 -102t-43 -101.5t-110 -39.5zM614 -20q-127 0 -233 43t-175.5 116t-108 166.5
t-38.5 196.5q0 143 68 258.5t184.5 179.5t255.5 64q119 0 221 -41.5t171.5 -112t109 -165t39.5 -200.5q0 -140 -61 -255t-174.5 -182.5t-258.5 -67.5zM645 57q98 0 159.5 91t61.5 253q0 142 -41.5 262.5t-116.5 191.5t-167 71q-111 0 -175.5 -89t-64.5 -255q0 -129 42 -248
t122.5 -198t179.5 -79z" />
    <glyph glyph-name="divide" unicode="&#xf7;" 
d="M614 840q-71 0 -115 41.5t-44 105.5t44 106t115 42q70 0 114 -42t44 -106t-44 -105.5t-114 -41.5zM225 492q-15 0 -25 7t-10 19v103q0 12 10 19t25 7h779q36 0 36 -26v-103q0 -26 -36 -26h-779zM614 -20q-71 0 -115 41.5t-44 105.5t44 105.5t115 41.5q70 0 114 -41.5
t44 -105.5t-44 -105.5t-114 -41.5z" />
    <glyph glyph-name="oslash" unicode="&#xf8;" horiz-adv-x="1187" 
d="M1110 924l-113 -107q119 -141 119 -332q0 -140 -60.5 -255t-174 -182.5t-258.5 -67.5q-221 0 -369 122l-117 -112q-19 -18 -37 0l-34 33q-20 20 6 43l112 106q-116 140 -116 330q0 143 68 258.5t184 179.5t255 64q209 0 351 -117l110 106q11 11 24.5 12t24.5 -8l29 -28
q20 -21 -4 -45zM309 582q0 -133 43 -246l439 422q-44 78 -107 123t-135 45q-111 0 -175.5 -89t-64.5 -255zM874 401q0 142 -40 258l-439 -421q48 -84 114 -132.5t144 -48.5q98 0 159.5 91t61.5 253z" />
    <glyph glyph-name="ugrave" unicode="&#xf9;" horiz-adv-x="1177" 
d="M358 1280q-30 9 -38.5 31.5t4.5 48.5l45 90q14 28 37 33.5t53 -15.5l356 -264q14 -11 17.5 -28.5t-5.5 -32.5q-18 -30 -63 -19zM1030 193q0 -43 11 -68.5t26 -34t30.5 -12.5t26.5 -12.5t11 -26.5q0 -29 -37 -40t-117 -11q-86 0 -126.5 34t-39.5 117q-89 -159 -307 -159
q-171 0 -276 114.5t-105 331.5v354q0 28 -12 51t-27 34.5t-27 25.5t-12 27v6q0 14 10 24t27 13l215 34q70 10 70 -30l-4 -562q0 -161 52 -243t152 -82q94 0 157 76t63 200v426q0 28 -12.5 51t-27.5 34.5t-27.5 25.5t-12.5 27v6q0 31 34 37l220 34q34 5 49.5 -1.5t15.5 -28.5
v-772z" />
    <glyph glyph-name="uacute" unicode="&#xfa;" horiz-adv-x="1177" 
d="M414 1135q-43 -14 -64 16q-18 35 12 61l359 265q28 21 51.5 15.5t38.5 -34.5l43 -90q14 -25 4.5 -48t-39.5 -32zM1030 193q0 -43 11 -68.5t26 -34t30.5 -12.5t26.5 -12.5t11 -26.5q0 -29 -37 -40t-117 -11q-86 0 -126.5 34t-39.5 117q-89 -159 -307 -159
q-171 0 -276 114.5t-105 331.5v354q0 28 -12 51t-27 34.5t-27 25.5t-12 27v6q0 14 10 24t27 13l215 34q70 10 70 -30l-4 -562q0 -161 52 -243t152 -82q94 0 157 76t63 200v426q0 28 -12.5 51t-27.5 34.5t-27.5 25.5t-12.5 27v6q0 31 34 37l220 34q34 5 49.5 -1.5t15.5 -28.5
v-772z" />
    <glyph glyph-name="ucircumflex" unicode="&#xfb;" horiz-adv-x="1177" 
d="M315 1133q-20 -11 -43.5 -2.5t-29 28.5t17.5 47l225 215q33 33 74 33h49q38 0 74 -33l240 -215q23 -22 19.5 -46.5t-25.5 -32.5t-54 6l-284 147zM1030 193q0 -43 11 -68.5t26 -34t30.5 -12.5t26.5 -12.5t11 -26.5q0 -29 -37 -40t-117 -11q-86 0 -126.5 34t-39.5 117
q-89 -159 -307 -159q-171 0 -276 114.5t-105 331.5v354q0 28 -12 51t-27 34.5t-27 25.5t-12 27v6q0 14 10 24t27 13l215 34q70 10 70 -30l-4 -562q0 -161 52 -243t152 -82q94 0 157 76t63 200v426q0 28 -12.5 51t-27.5 34.5t-27.5 25.5t-12.5 27v6q0 31 34 37l220 34
q34 5 49.5 -1.5t15.5 -28.5v-772z" />
    <glyph glyph-name="udieresis" unicode="&#xfc;" horiz-adv-x="1177" 
d="M377 1159q-69 0 -112.5 39.5t-43.5 101.5t43.5 102t112.5 40q68 0 109.5 -40t41.5 -102t-41.5 -101.5t-109.5 -39.5zM807 1159q-69 0 -111.5 39.5t-42.5 101.5t43 102t111 40q67 0 110.5 -40t43.5 -102t-43.5 -101.5t-110.5 -39.5zM1030 193q0 -43 11 -68.5t26 -34
t30.5 -12.5t26.5 -12.5t11 -26.5q0 -29 -37 -40t-117 -11q-86 0 -126.5 34t-39.5 117q-89 -159 -307 -159q-171 0 -276 114.5t-105 331.5v354q0 28 -12 51t-27 34.5t-27 25.5t-12 27v6q0 14 10 24t27 13l215 34q70 10 70 -30l-4 -562q0 -161 52 -243t152 -82q94 0 157 76
t63 200v426q0 28 -12.5 51t-27.5 34.5t-27.5 25.5t-12.5 27v6q0 31 34 37l220 34q34 5 49.5 -1.5t15.5 -28.5v-772z" />
    <glyph glyph-name="yacute" unicode="&#xfd;" horiz-adv-x="1095" 
d="M414 1135q-43 -14 -64 16q-18 35 12 61l359 265q28 21 51.5 15.5t38.5 -34.5l43 -90q14 -25 4.5 -48t-39.5 -32zM1063 983q15 0 25 -8t10 -21v-8q0 -20 -16 -36.5t-41.5 -43t-41.5 -63.5l-387 -848q-21 -47 -33 -73.5t-37 -74t-45 -75.5t-51 -64t-61 -56t-69.5 -34
t-82.5 -14q-121 0 -198.5 62.5t-77.5 137.5q0 45 27 74t73 29q38 0 63 -22.5t38 -54.5t25 -64.5t33.5 -55t53.5 -22.5q56 0 116.5 86.5t113.5 218.5l-400 850q-14 30 -34 53.5t-34.5 34.5t-25 25t-10.5 30v8q0 13 10.5 21t26.5 8h323q15 0 25 -9t10 -22v-6q0 -15 -11 -29
t-21.5 -25t-13.5 -34.5t13 -56.5l271 -621l254 598q18 41 7.5 69t-31 41t-40.5 28t-20 30v6q0 14 10 22.5t27 8.5h227z" />
    <glyph glyph-name="thorn" unicode="&#xfe;" horiz-adv-x="1163" 
d="M625 1004q125 0 232 -58t175 -173t68 -265q0 -229 -138 -378.5t-335 -149.5q-166 0 -271 108v-371q0 -27 13 -48t29 -32t29 -25.5t13 -29.5v-6q0 -31 -43 -31h-313q-43 0 -43 31v6q0 15 12 29.5t27 25.5t27 32t12 48v1532q0 26 -13.5 45.5t-30.5 30t-30.5 24.5t-13.5 29
v8q0 28 37 44l219 104q38 16 54.5 6t16.5 -39v-602q46 50 116 77.5t151 27.5zM598 57q122 0 191 98t69 277q0 220 -80.5 357t-212.5 137q-77 0 -136 -54t-71 -137l-2 -407q8 -106 80.5 -188.5t161.5 -82.5z" />
    <glyph glyph-name="ydieresis" unicode="&#xff;" horiz-adv-x="1095" 
d="M377 1159q-69 0 -112.5 39.5t-43.5 101.5t43.5 102t112.5 40q68 0 109.5 -40t41.5 -102t-41.5 -101.5t-109.5 -39.5zM807 1159q-69 0 -111.5 39.5t-42.5 101.5t43 102t111 40q67 0 110.5 -40t43.5 -102t-43.5 -101.5t-110.5 -39.5zM1063 983q15 0 25 -8t10 -21v-8
q0 -20 -16 -36.5t-41.5 -43t-41.5 -63.5l-387 -848q-21 -47 -33 -73.5t-37 -74t-45 -75.5t-51 -64t-61 -56t-69.5 -34t-82.5 -14q-121 0 -198.5 62.5t-77.5 137.5q0 45 27 74t73 29q38 0 63 -22.5t38 -54.5t25 -64.5t33.5 -55t53.5 -22.5q56 0 116.5 86.5t113.5 218.5
l-400 850q-14 30 -34 53.5t-34.5 34.5t-25 25t-10.5 30v8q0 13 10.5 21t26.5 8h323q15 0 25 -9t10 -22v-6q0 -15 -11 -29t-21.5 -25t-13.5 -34.5t13 -56.5l271 -621l254 598q18 41 7.5 69t-31 41t-40.5 28t-20 30v6q0 14 10 22.5t27 8.5h227z" />
    <glyph glyph-name="Amacron" unicode="&#x100;" horiz-adv-x="1394" 
d="M393 1647q-41 0 -41 36v80q0 37 41 37h551q41 0 41 -37v-80q0 -36 -41 -36h-551zM1296 170q16 -36 42.5 -61t44.5 -40t18 -34v-6q0 -29 -43 -29h-365q-43 0 -43 29v6q0 14 16 28.5t33.5 25.5t28 32.5t-1.5 48.5l-80 203h-618l-76 -203q-12 -27 -1.5 -48.5t28 -32.5
t33.5 -25.5t16 -28.5v-6q0 -29 -45 -29h-232q-43 0 -43 29v6q0 15 11.5 28t27.5 23t35 32.5t31 51.5l430 1104q12 30 -5 57t-40 50t-23 38v6q0 13 9 21t26 8h162q41 0 67 -18.5t43 -59.5zM369 483h534l-274 701z" />
    <glyph glyph-name="amacron" unicode="&#x101;" horiz-adv-x="1067" 
d="M207 1219q-41 0 -41 36v80q0 37 41 37h551q41 0 41 -37v-80q0 -36 -41 -36h-551zM952 184q4 -37 17 -60.5t29 -33t31 -15.5t25.5 -14t10.5 -22q0 -51 -166 -51q-82 0 -120 25.5t-44 97.5q-81 -131 -284 -131q-172 0 -277.5 81t-105.5 228q-1 145 104.5 226t267.5 81
q148 0 238 -70l-4 41q-18 189 -65 275t-150 86q-53 0 -89 -25.5t-55 -62t-35 -73t-40.5 -62t-59.5 -25.5q-46 0 -73 25.5t-27 68.5q0 97 108 163.5t271 66.5q192 0 311 -113.5t141 -312.5zM518 57q84 0 136.5 61t47.5 146l-6 64q-6 87 -59 138.5t-135 51.5q-86 0 -139.5 -55
t-53.5 -146q0 -108 58 -184t151 -76z" />
    <glyph glyph-name="Abreve" unicode="&#x102;" horiz-adv-x="1394" 
d="M670 1575q-131 0 -222.5 77t-107.5 187q-4 26 15 40t42 11.5t31 -18.5q23 -62 90 -97.5t152 -35.5q86 0 153 35.5t90 97.5q8 15 30.5 17t41.5 -12t16 -38q-14 -110 -105 -187t-226 -77zM1296 170q16 -36 42.5 -61t44.5 -40t18 -34v-6q0 -29 -43 -29h-365q-43 0 -43 29v6
q0 14 16 28.5t33.5 25.5t28 32.5t-1.5 48.5l-80 203h-618l-76 -203q-12 -27 -1.5 -48.5t28 -32.5t33.5 -25.5t16 -28.5v-6q0 -29 -45 -29h-232q-43 0 -43 29v6q0 15 11.5 28t27.5 23t35 32.5t31 51.5l430 1104q12 30 -5 57t-40 50t-23 38v6q0 13 9 21t26 8h162
q41 0 67 -18.5t43 -59.5zM369 483h534l-274 701z" />
    <glyph glyph-name="abreve" unicode="&#x103;" horiz-adv-x="1067" 
d="M481 1141q-131 0 -222 77t-107 187q-4 26 15 40t42 11.5t31 -18.5q23 -62 89.5 -97.5t151.5 -35.5q87 0 154 35.5t90 97.5q8 15 30.5 17t41.5 -12t16 -38q-14 -110 -105.5 -187t-226.5 -77zM952 184q4 -37 17 -60.5t29 -33t31 -15.5t25.5 -14t10.5 -22q0 -51 -166 -51
q-82 0 -120 25.5t-44 97.5q-81 -131 -284 -131q-172 0 -277.5 81t-105.5 228q-1 145 104.5 226t267.5 81q148 0 238 -70l-4 41q-18 189 -65 275t-150 86q-53 0 -89 -25.5t-55 -62t-35 -73t-40.5 -62t-59.5 -25.5q-46 0 -73 25.5t-27 68.5q0 97 108 163.5t271 66.5
q192 0 311 -113.5t141 -312.5zM518 57q84 0 136.5 61t47.5 146l-6 64q-6 87 -59 138.5t-135 51.5q-86 0 -139.5 -55t-53.5 -146q0 -108 58 -184t151 -76z" />
    <glyph glyph-name="Aogonek" unicode="&#x104;" horiz-adv-x="1394" 
d="M1296 170q16 -36 42.5 -61t44.5 -40t18 -34v-6q0 -29 -43 -29h-109q-59 -62 -95 -128t-36 -118q0 -49 20.5 -73.5t53.5 -24.5q19 0 49 10q31 11 42.5 -21.5t-8.5 -57.5q-8 -10 -20 -15q-40 -21 -102 -21q-84 0 -146.5 43.5t-62.5 126.5q0 73 59.5 145.5t161.5 133.5h-172
q-43 0 -43 29v6q0 14 16 28.5t33.5 25.5t28 32.5t-1.5 48.5l-80 203h-618l-76 -203q-12 -27 -1.5 -48.5t28 -32.5t33.5 -25.5t16 -28.5v-6q0 -29 -45 -29h-232q-43 0 -43 29v6q0 15 11.5 28t27.5 23t35 32.5t31 51.5l430 1104q12 30 -5 57t-40 50t-23 38v6q0 13 9 21t26 8
h162q41 0 67 -18.5t43 -59.5zM369 483h534l-274 701z" />
    <glyph glyph-name="aogonek" unicode="&#x105;" horiz-adv-x="1067" 
d="M1065 39q0 -42 -115 -49q-104 -126 -104 -217q0 -49 20.5 -74t53.5 -25q16 0 49 11q30 11 42 -21q13 -33 -8 -60q-8 -9 -20 -14q-38 -20 -102 -20q-84 0 -146.5 43.5t-62.5 126.5q0 129 178 250q-56 6 -83.5 33.5t-31.5 87.5q-81 -131 -284 -131q-172 0 -277.5 81
t-105.5 228q-1 145 104.5 226t267.5 81q148 0 238 -70l-4 41q-18 189 -65 275t-150 86q-53 0 -89 -25.5t-55 -62t-35 -73t-40.5 -62t-59.5 -25.5q-46 0 -73 25.5t-27 68.5q0 97 108 163.5t271 66.5q192 0 311 -113.5t141 -312.5l41 -394q4 -37 17 -60.5t29 -33t31 -15.5
t25.5 -14t10.5 -22zM518 57q84 0 136.5 61t47.5 146l-6 64q-6 87 -59 138.5t-135 51.5q-86 0 -139.5 -55t-53.5 -146q0 -108 58 -184t151 -76z" />
    <glyph glyph-name="Cacute" unicode="&#x106;" horiz-adv-x="1378" 
d="M535 1595q-44 -4 -58 29q-6 18 1.5 33.5t21.5 23.5l403 191q31 14 53 4.5t31 -39.5l25 -96q9 -28 -4 -48.5t-45 -23.5zM750 -20q-180 0 -341.5 108.5t-257.5 285.5t-96 369q0 157 50.5 292.5t139.5 231.5t216 151t274 55q117 0 225.5 -36t183 -92t119 -123.5t44.5 -131.5
q0 -52 -31 -82.5t-86 -30.5q-38 0 -69.5 21.5t-56 56t-49 76t-55 83.5t-66.5 76.5t-91.5 56t-122.5 21.5q-157 0 -269 -134.5t-112 -346.5q0 -149 44 -279.5t115.5 -219t164.5 -139t190 -50.5q80 0 152 28t124 74t88.5 95t61.5 102q14 21 37 25.5t39 -10.5t12 -44
q-13 -98 -56.5 -184.5t-114 -155.5t-175.5 -109t-231 -40z" />
    <glyph glyph-name="cacute" unicode="&#x107;" horiz-adv-x="1032" 
d="M360 1135q-42 -14 -63 16q-18 35 12 61l359 265q28 21 51.5 15.5t38.5 -34.5l43 -90q14 -25 4.5 -48t-39.5 -32zM571 -20q-109 0 -207 40.5t-167.5 109.5t-110.5 164.5t-41 201.5q0 151 71 268t188 178t257 62q168 1 290 -82.5t122 -188.5q0 -39 -26 -64t-79 -24
q-30 2 -54.5 18t-42.5 41t-36 55t-37.5 59t-42.5 53.5t-57 39.5t-76 15q-105 0 -170 -90.5t-65 -225.5q0 -210 99.5 -335t264.5 -125q93 0 160 47t104 120q10 15 27 19t29.5 -6.5t9.5 -30.5q-8 -62 -38 -118t-79.5 -101.5t-125.5 -72.5t-167 -27z" />
    <glyph glyph-name="Cdotaccent" unicode="&#x10a;" horiz-adv-x="1378" 
d="M705 1573q-73 0 -117.5 40.5t-44.5 104.5t45 106t117 42q70 0 113.5 -42t43.5 -106t-43.5 -104.5t-113.5 -40.5zM750 -20q-180 0 -341.5 108.5t-257.5 285.5t-96 369q0 157 50.5 292.5t139.5 231.5t216 151t274 55q117 0 225.5 -36t183 -92t119 -123.5t44.5 -131.5
q0 -52 -31 -82.5t-86 -30.5q-38 0 -69.5 21.5t-56 56t-49 76t-55 83.5t-66.5 76.5t-91.5 56t-122.5 21.5q-157 0 -269 -134.5t-112 -346.5q0 -149 44 -279.5t115.5 -219t164.5 -139t190 -50.5q80 0 152 28t124 74t88.5 95t61.5 102q14 21 37 25.5t39 -10.5t12 -44
q-13 -98 -56.5 -184.5t-114 -155.5t-175.5 -109t-231 -40z" />
    <glyph glyph-name="cdotaccent" unicode="&#x10b;" horiz-adv-x="1032" 
d="M535 1153q-76 0 -123 43t-47 111q0 67 47 110t123 43q74 0 119.5 -43t45.5 -110q0 -68 -45.5 -111t-119.5 -43zM571 -20q-109 0 -207 40.5t-167.5 109.5t-110.5 164.5t-41 201.5q0 151 71 268t188 178t257 62q168 1 290 -82.5t122 -188.5q0 -39 -26 -64t-79 -24
q-30 2 -54.5 18t-42.5 41t-36 55t-37.5 59t-42.5 53.5t-57 39.5t-76 15q-105 0 -170 -90.5t-65 -225.5q0 -210 99.5 -335t264.5 -125q93 0 160 47t104 120q10 15 27 19t29.5 -6.5t9.5 -30.5q-8 -62 -38 -118t-79.5 -101.5t-125.5 -72.5t-167 -27z" />
    <glyph glyph-name="Ccaron" unicode="&#x10c;" horiz-adv-x="1378" 
d="M659 1563l-229 215q-25 27 2.5 52t56.5 9l277 -153l274 153q19 12 41 2.5t27.5 -28t-8.5 -35.5l-238 -215q-34 -31 -74 -31h-55q-40 0 -74 31zM1239 498q14 21 37 25.5t39 -10.5t12 -44q-13 -98 -56.5 -184.5t-114 -155.5t-175.5 -109t-231 -40q-180 0 -341.5 108.5
t-257.5 285.5t-96 369q0 157 50.5 292.5t139.5 231.5t216 151t274 55q117 0 225.5 -36t183 -92t119 -123.5t44.5 -131.5q0 -52 -31 -82.5t-86 -30.5q-38 0 -69.5 21.5t-56 56t-49 76t-55 83.5t-66.5 76.5t-91.5 56t-122.5 21.5q-157 0 -269 -134.5t-112 -346.5
q0 -149 44 -279.5t115.5 -219t164.5 -139t190 -50.5q80 0 152 28t124 74t88.5 95t61.5 102z" />
    <glyph glyph-name="ccaron" unicode="&#x10d;" horiz-adv-x="1032" 
d="M430 1161l-229 225q-16 17 -8.5 37.5t27.5 27t40 -0.5l277 -160l274 160q19 12 40.5 1.5t27 -29.5t-8.5 -36l-237 -225q-34 -31 -74 -31h-55q-40 0 -74 31zM915 317q10 15 27 19t29.5 -6.5t9.5 -30.5q-8 -62 -38 -118t-79.5 -101.5t-125.5 -72.5t-167 -27
q-109 0 -207 40.5t-167.5 109.5t-110.5 164.5t-41 201.5q0 151 71 268t188 178t257 62q168 1 290 -82.5t122 -188.5q0 -39 -26 -64t-79 -24q-30 2 -54.5 18t-42.5 41t-36 55t-37.5 59t-42.5 53.5t-57 39.5t-76 15q-105 0 -170 -90.5t-65 -225.5q0 -210 99.5 -335t264.5 -125
q93 0 160 47t104 120z" />
    <glyph glyph-name="Dcaron" unicode="&#x10e;" horiz-adv-x="1538" 
d="M616 1563l-229 215q-25 27 2.5 52t56.5 9l277 -153l274 153q19 12 41 2.5t27.5 -28t-8.5 -35.5l-238 -215q-34 -31 -74 -31h-55q-40 0 -74 31zM604 1454q249 0 446.5 -94.5t306.5 -259t109 -367.5q0 -222 -100 -389.5t-274 -255.5t-396 -88h-542q-45 0 -45 29v6
q0 15 12 29t26.5 25t26.5 32.5t12 48.5v1114q0 27 -12 48.5t-26.5 32.5t-26.5 25t-12 29v6q0 29 45 29h450zM682 104q233 0 381.5 145.5t148.5 391.5q0 201 -86 363.5t-236 254t-333 91.5h-57q-32 0 -51 -18.5t-19 -57.5v-1024q0 -69 33 -107.5t90 -38.5h129z" />
    <glyph glyph-name="dcaron" unicode="&#x10f;" horiz-adv-x="1214" 
d="M1370 1632q20 0 31.5 -12.5t11.5 -34.5q0 -146 -58.5 -264t-152.5 -188q-35 -26 -63 -7l-15 11q-26 20 0 57q115 160 115 391q0 19 11 33t28 14h92zM1042 170q0 -34 19.5 -58.5t39 -42t19.5 -34.5v-6q0 -29 -35 -29h-213q-38 0 -41 39l-6 72q-50 -64 -125 -97.5
t-161 -33.5q-94 0 -180 36t-152.5 101t-106 163t-39.5 214q0 147 64.5 264.5t174.5 181.5t243 64q158 0 268 -105v385q0 30 -14.5 52.5t-32.5 33t-32.5 23.5t-14.5 28v4q0 28 37 41l217 70q71 23 71 -37v-1329zM594 57q84 0 150.5 70.5t66.5 194.5v327q0 102 -78 189.5
t-182 87.5q-115 0 -184 -93t-72 -255q-3 -140 32.5 -257.5t105.5 -189.5t161 -74z" />
    <glyph glyph-name="Dcroat" unicode="&#x110;" horiz-adv-x="1544" 
d="M610 1454q187 0 348 -55.5t274 -151t177 -229t64 -285.5q0 -222 -100.5 -390t-274.5 -255.5t-396 -87.5h-542q-45 0 -45 29v6q0 15 12 29t27 25t27 32.5t12 48.5v518h-107q-31 0 -31 27v45q0 28 31 28h107v496q0 27 -12 48.5t-27 32.5t-27 25t-12 29v6q0 29 45 29h450z
M688 104q233 0 382 145.5t149 391.5q0 150 -50.5 282.5t-138 225.5t-209 147t-258.5 54h-57q-32 0 -51 -18.5t-19 -57.5v-486h254q15 0 24 -8t9 -20v-41q0 -31 -33 -31h-254v-438q0 -69 33 -107.5t90 -38.5h129z" />
    <glyph glyph-name="dcroat" unicode="&#x111;" horiz-adv-x="1177" 
d="M1167 1202q15 0 24 -8t9 -20v-41q0 -31 -33 -31h-125v-932q0 -34 19.5 -58.5t39 -42t19.5 -34.5v-6q0 -29 -35 -29h-213q-38 0 -41 39l-6 72q-50 -64 -125 -97.5t-161 -33.5q-94 0 -180 36t-152.5 101t-106 163t-39.5 214q0 147 64.5 264.5t174.5 181.5t243 64
q158 0 268 -105v203h-248q-31 0 -31 26v46q0 28 31 28h248v82q0 30 -14.5 52.5t-32.5 33t-32.5 23.5t-14.5 28v4q0 28 37 41l217 70q71 23 71 -37v-297h125zM594 57q84 0 150.5 70.5t66.5 194.5v327q0 102 -78 189.5t-182 87.5q-115 0 -184 -93t-72 -255
q-3 -140 32.5 -257.5t105.5 -189.5t161 -74z" />
    <glyph glyph-name="Emacron" unicode="&#x112;" horiz-adv-x="1243" 
d="M344 1647q-41 0 -41 36v80q0 37 41 37h551q41 0 41 -37v-80q0 -36 -41 -36h-551zM154 0q-45 0 -45 29v6q0 15 12 29t26.5 25t26.5 33t12 50v1110q0 28 -12 50.5t-26.5 33.5t-26.5 25t-12 28v6q0 29 41 29h890q27 0 40 -12t18 -39l49 -221q9 -47 -33 -47h-10
q-22 0 -46 22.5t-46.5 54.5t-46.5 63.5t-55 54t-64 22.5h-344q-70 0 -70 -80v-477h316q30 0 53 21t34 46.5t26 46.5t30 21h12q14 0 22.5 -10.5t8.5 -28.5v-291q0 -17 -8.5 -28t-22.5 -11h-12q-15 0 -30 20t-26 44.5t-34 44.5t-53 20h-316l-2 -479q0 -45 23 -77t69 -32h387
q33 0 63 23.5t52.5 56.5t43 66t44 56.5t47.5 23.5h15q17 0 25 -14t5 -33l-47 -228q-6 -28 -19 -40.5t-40 -12.5h-944z" />
    <glyph glyph-name="emacron" unicode="&#x113;" horiz-adv-x="1009" 
d="M233 1219q-40 0 -40 36v80q0 37 40 37h551q41 0 41 -37v-80q0 -36 -41 -36h-551zM897 301q17 23 43 16.5t23 -36.5q-7 -48 -37 -98.5t-79.5 -97t-128 -76t-171.5 -29.5q-102 0 -191.5 37t-154.5 103.5t-102.5 165t-37.5 214.5q0 217 142.5 360.5t347.5 143.5
q95 0 170.5 -27t120.5 -71t68.5 -96.5t23.5 -107.5q0 -105 -105 -143l-495 -182q39 -106 116.5 -165.5t184.5 -59.5q92 0 160.5 42t101.5 107zM510 926q-96 0 -153.5 -92.5t-57.5 -241.5q0 -70 12 -131l340 147q54 23 54 86q0 45 -23 97.5t-69.5 93.5t-102.5 41z" />
    <glyph glyph-name="Edotaccent" unicode="&#x116;" horiz-adv-x="1243" 
d="M633 1573q-73 0 -117.5 40.5t-44.5 104.5t45 106t117 42q70 0 114 -42t44 -106q0 -63 -44 -104t-114 -41zM154 0q-45 0 -45 29v6q0 15 12 29t26.5 25t26.5 33t12 50v1110q0 28 -12 50.5t-26.5 33.5t-26.5 25t-12 28v6q0 29 41 29h890q27 0 40 -12t18 -39l49 -221
q9 -47 -33 -47h-10q-22 0 -46 22.5t-46.5 54.5t-46.5 63.5t-55 54t-64 22.5h-344q-70 0 -70 -80v-477h316q30 0 53 21t34 46.5t26 46.5t30 21h12q14 0 22.5 -10.5t8.5 -28.5v-291q0 -17 -8.5 -28t-22.5 -11h-12q-15 0 -30 20t-26 44.5t-34 44.5t-53 20h-316l-2 -479
q0 -45 23 -77t69 -32h387q33 0 63 23.5t52.5 56.5t43 66t44 56.5t47.5 23.5h15q17 0 25 -14t5 -33l-47 -228q-6 -28 -19 -40.5t-40 -12.5h-944z" />
    <glyph glyph-name="edotaccent" unicode="&#x117;" horiz-adv-x="1009" 
d="M510 1153q-76 0 -123 43t-47 111q0 67 47 110t123 43q74 0 120 -43t46 -110q0 -68 -46 -111t-120 -43zM897 301q17 23 43 16.5t23 -36.5q-7 -48 -37 -98.5t-79.5 -97t-128 -76t-171.5 -29.5q-102 0 -191.5 37t-154.5 103.5t-102.5 165t-37.5 214.5q0 217 142.5 360.5
t347.5 143.5q95 0 170.5 -27t120.5 -71t68.5 -96.5t23.5 -107.5q0 -105 -105 -143l-495 -182q39 -106 116.5 -165.5t184.5 -59.5q92 0 160.5 42t101.5 107zM510 926q-96 0 -153.5 -92.5t-57.5 -241.5q0 -70 12 -131l340 147q54 23 54 86q0 45 -23 97.5t-69.5 93.5t-102.5 41
z" />
    <glyph glyph-name="Eogonek" unicode="&#x118;" horiz-adv-x="1243" 
d="M1157 53q-10 -37 -29 -47q-58 -60 -93.5 -125.5t-35.5 -118.5q0 -49 20.5 -73.5t53.5 -24.5q19 0 49 10q31 11 43 -21.5t-8 -57.5q-8 -10 -20 -15q-38 -20 -103 -20q-84 0 -146.5 43.5t-62.5 126.5q0 70 56 140.5t153 129.5h-880q-45 0 -45 29v6q0 15 12 29t26.5 25
t26.5 33t12 50v1110q0 28 -12 50.5t-26.5 33.5t-26.5 25t-12 28v6q0 29 41 29h890q27 0 40 -12t18 -39l49 -221q9 -47 -33 -47h-10q-22 0 -46 22.5t-46.5 54.5t-46.5 63.5t-55 54t-64 22.5h-344q-70 0 -70 -80v-477h316q30 0 53 21t34 46.5t26 46.5t30 21h12
q14 0 22.5 -10.5t8.5 -28.5v-291q0 -17 -8.5 -28t-22.5 -11h-12q-15 0 -30 20t-26 44.5t-34 44.5t-53 20h-316l-2 -479q0 -45 23 -77t69 -32h387q33 0 63 23.5t52.5 56.5t43 66t44 56.5t47.5 23.5h15q17 0 25 -14t5 -33z" />
    <glyph glyph-name="eogonek" unicode="&#x119;" horiz-adv-x="1009" 
d="M897 301q17 23 43 16.5t23 -36.5q-10 -64 -59 -133t-130 -113q-57 -60 -92 -125.5t-35 -116.5q0 -49 20.5 -73.5t53.5 -24.5q19 0 49 10q31 11 42.5 -21.5t-8.5 -57.5q-8 -10 -20 -15q-40 -21 -102 -21q-84 0 -146.5 43.5t-62.5 126.5q0 113 141 224q-46 -4 -67 -4
q-102 0 -191.5 37t-154.5 103.5t-102.5 165t-37.5 214.5q0 217 142.5 360.5t347.5 143.5q95 0 170.5 -27t120.5 -71t68.5 -96.5t23.5 -107.5q0 -105 -105 -143l-495 -182q39 -106 116.5 -165.5t184.5 -59.5q92 0 160.5 42t101.5 107zM510 926q-96 0 -153.5 -92.5
t-57.5 -241.5q0 -70 12 -131l340 147q54 23 54 86q0 45 -23 97.5t-69.5 93.5t-102.5 41z" />
    <glyph glyph-name="Ecaron" unicode="&#x11a;" horiz-adv-x="1243" 
d="M516 1563l-229 215q-25 27 2.5 52t56.5 9l277 -153l274 153q19 12 40.5 2.5t27 -28t-8.5 -35.5l-237 -215q-34 -31 -74 -31h-55q-40 0 -74 31zM1174 328q17 0 25 -14t5 -33l-47 -228q-6 -28 -19 -40.5t-40 -12.5h-944q-45 0 -45 29v6q0 15 12 29t26.5 25t26.5 33t12 50
v1110q0 28 -12 50.5t-26.5 33.5t-26.5 25t-12 28v6q0 29 41 29h890q27 0 40 -12t18 -39l49 -221q9 -47 -33 -47h-10q-22 0 -46 22.5t-46.5 54.5t-46.5 63.5t-55 54t-64 22.5h-344q-70 0 -70 -80v-477h316q30 0 53 21t34 46.5t26 46.5t30 21h12q14 0 22.5 -10.5t8.5 -28.5
v-291q0 -17 -8.5 -28t-22.5 -11h-12q-15 0 -30 20t-26 44.5t-34 44.5t-53 20h-316l-2 -479q0 -45 23 -77t69 -32h387q33 0 63 23.5t52.5 56.5t43 66t44 56.5t47.5 23.5h15z" />
    <glyph glyph-name="ecaron" unicode="&#x11b;" horiz-adv-x="1009" 
d="M406 1161l-230 225q-16 17 -8 37.5t28 27t40 -0.5l276 -160l274 160q19 12 41 1.5t27.5 -29.5t-8.5 -36l-238 -225q-34 -31 -73 -31h-56q-39 0 -73 31zM897 301q17 23 43 16.5t23 -36.5q-7 -48 -37 -98.5t-79.5 -97t-128 -76t-171.5 -29.5q-102 0 -191.5 37t-154.5 103.5
t-102.5 165t-37.5 214.5q0 217 142.5 360.5t347.5 143.5q95 0 170.5 -27t120.5 -71t68.5 -96.5t23.5 -107.5q0 -105 -105 -143l-495 -182q39 -106 116.5 -165.5t184.5 -59.5q92 0 160.5 42t101.5 107zM510 926q-96 0 -153.5 -92.5t-57.5 -241.5q0 -70 12 -131l340 147
q54 23 54 86q0 45 -23 97.5t-69.5 93.5t-102.5 41z" />
    <glyph glyph-name="Gbreve" unicode="&#x11e;" horiz-adv-x="1478" 
d="M774 1575q-131 0 -222.5 77t-107.5 187q-4 26 15 40t42 11.5t31 -18.5q23 -62 90 -97.5t152 -35.5q87 0 154 35.5t90 97.5q8 15 30.5 17t41.5 -12t16 -38q-14 -110 -105.5 -187t-226.5 -77zM788 -20q-195 0 -361.5 102t-262.5 273t-96 368q0 168 53.5 309.5t146.5 237.5
t219 149.5t269 53.5q124 0 235 -35t184 -90.5t115.5 -121.5t42.5 -130q0 -52 -30.5 -83.5t-81.5 -31.5q-38 0 -71.5 21.5t-60 55.5t-54 75t-60 82.5t-70.5 75.5t-93.5 55.5t-121.5 21.5q-162 0 -270.5 -140.5t-108.5 -350.5q0 -154 44 -291.5t117.5 -233.5t171.5 -152.5
t204 -56.5q154 0 252 60v336q0 29 -20.5 51t-45 32t-45 23t-20.5 27v8q0 15 13 24t34 9l385 -2q20 0 31.5 -8.5t11.5 -22.5v-8q0 -14 -17.5 -27t-39 -23.5t-39 -32.5t-17.5 -52v-291q0 -36 -13.5 -61.5t-49.5 -55.5q-81 -65 -208.5 -107t-271.5 -42z" />
    <glyph glyph-name="gbreve" unicode="&#x11f;" horiz-adv-x="1103" 
d="M555 1130q-131 0 -222.5 77.5t-107.5 187.5q-4 26 15 40t42 11t31 -19q23 -62 90 -97.5t152 -35.5q87 0 154 35.5t90 97.5q8 15 30.5 17t41.5 -11.5t16 -37.5q-14 -110 -105.5 -187.5t-226.5 -77.5zM950 983q43 0 67 -8t26.5 -20.5t-5.5 -28.5q-11 -24 -34 -35t-67 -17
t-58 -10q58 -52 93.5 -125t35.5 -147q0 -121 -63.5 -216t-174.5 -147q129 -30 191.5 -93.5t62.5 -151.5q0 -134 -139 -215.5t-355 -81.5q-112 0 -204 26t-149.5 68.5t-88.5 95t-31 107.5q0 40 25.5 68t73.5 28q31 0 53.5 -17.5t38 -45.5t31 -61.5t36 -67.5t47.5 -62
t72.5 -46t104.5 -18q110 0 176.5 58.5t66.5 152.5q0 88 -48 145t-132 66q-50 -4 -76 -4q-195 0 -327.5 116t-132.5 286q0 187 130.5 304.5t340.5 117.5q55 0 169.5 -10.5t243.5 -10.5zM303 686q0 -174 77.5 -300t184.5 -126q94 0 149.5 68t55.5 174q0 173 -76.5 298.5
t-195.5 125.5q-89 0 -142 -67t-53 -173z" />
    <glyph glyph-name="Gdotaccent" unicode="&#x120;" horiz-adv-x="1478" 
d="M786 1573q-73 0 -117 40.5t-44 104.5t44.5 106t116.5 42q70 0 114 -42t44 -106q0 -63 -44 -104t-114 -41zM788 -20q-195 0 -361.5 102t-262.5 273t-96 368q0 168 53.5 309.5t146.5 237.5t219 149.5t269 53.5q124 0 235 -35t184 -90.5t115.5 -121.5t42.5 -130
q0 -52 -30.5 -83.5t-81.5 -31.5q-38 0 -71.5 21.5t-60 55.5t-54 75t-60 82.5t-70.5 75.5t-93.5 55.5t-121.5 21.5q-162 0 -270.5 -140.5t-108.5 -350.5q0 -154 44 -291.5t117.5 -233.5t171.5 -152.5t204 -56.5q154 0 252 60v336q0 29 -20.5 51t-45 32t-45 23t-20.5 27v8
q0 15 13 24t34 9l385 -2q20 0 31.5 -8.5t11.5 -22.5v-8q0 -14 -17.5 -27t-39 -23.5t-39 -32.5t-17.5 -52v-291q0 -36 -13.5 -61.5t-49.5 -55.5q-81 -65 -208.5 -107t-271.5 -42z" />
    <glyph glyph-name="gdotaccent" unicode="&#x121;" horiz-adv-x="1103" 
d="M557 1143q-76 0 -123 42.5t-47 110.5q0 67 47 110.5t123 43.5q74 0 120 -43.5t46 -110.5q0 -68 -45.5 -110.5t-120.5 -42.5zM950 983q43 0 67 -8t26.5 -20.5t-5.5 -28.5q-11 -24 -34 -35t-67 -17t-58 -10q58 -52 93.5 -125t35.5 -147q0 -121 -63.5 -216t-174.5 -147
q129 -30 191.5 -93.5t62.5 -151.5q0 -134 -139 -215.5t-355 -81.5q-112 0 -204 26t-149.5 68.5t-88.5 95t-31 107.5q0 40 25.5 68t73.5 28q31 0 53.5 -17.5t38 -45.5t31 -61.5t36 -67.5t47.5 -62t72.5 -46t104.5 -18q110 0 176.5 58.5t66.5 152.5q0 88 -48 145t-132 66
q-50 -4 -76 -4q-195 0 -327.5 116t-132.5 286q0 187 130.5 304.5t340.5 117.5q55 0 169.5 -10.5t243.5 -10.5zM303 686q0 -174 77.5 -300t184.5 -126q94 0 149.5 68t55.5 174q0 173 -76.5 298.5t-195.5 125.5q-89 0 -142 -67t-53 -173z" />
    <glyph glyph-name="uni0122" unicode="&#x122;" horiz-adv-x="1478" 
d="M788 -20q-195 0 -361.5 102t-262.5 273t-96 368q0 168 53.5 309.5t146.5 237.5t219 149.5t269 53.5q124 0 235 -35t184 -90.5t115.5 -121.5t42.5 -130q0 -52 -30.5 -83.5t-81.5 -31.5q-38 0 -71.5 21.5t-60 55.5t-54 75t-60 82.5t-70.5 75.5t-93.5 55.5t-121.5 21.5
q-162 0 -270.5 -140.5t-108.5 -350.5q0 -154 44 -291.5t117.5 -233.5t171.5 -152.5t204 -56.5q154 0 252 60v336q0 29 -20.5 51t-45 32t-45 23t-20.5 27v8q0 15 13 24t34 9l385 -2q20 0 31.5 -8.5t11.5 -22.5v-8q0 -14 -17.5 -27t-39 -23.5t-39 -32.5t-17.5 -52v-291
q0 -36 -13.5 -61.5t-49.5 -55.5q-81 -65 -208.5 -107t-271.5 -42zM721 -633q-25 -14 -45.5 7t0.5 42q54 53 77 89t29 79q7 33 -18 33q-46 0 -77.5 38t-31.5 97q0 65 39 107.5t103 42.5q62 0 104.5 -46.5t42.5 -125.5q0 -103 -56.5 -197t-166.5 -166z" />
    <glyph glyph-name="uni0123" unicode="&#x123;" horiz-adv-x="1103" 
d="M530 1133q-64 0 -107.5 47.5t-43.5 128.5q0 220 229 372q25 15 45.5 -6.5t-0.5 -44.5q-55 -53 -78.5 -90.5t-29.5 -81.5q-7 -33 18 -33q48 0 80.5 -38t32.5 -99q0 -68 -40.5 -111.5t-105.5 -43.5zM950 983q43 0 67 -8t26.5 -20.5t-5.5 -28.5q-11 -24 -34 -35t-67 -17
t-58 -10q58 -52 93.5 -125t35.5 -147q0 -121 -63.5 -216t-174.5 -147q129 -30 191.5 -93.5t62.5 -151.5q0 -134 -139 -215.5t-355 -81.5q-112 0 -204 26t-149.5 68.5t-88.5 95t-31 107.5q0 40 25.5 68t73.5 28q31 0 53.5 -17.5t38 -45.5t31 -61.5t36 -67.5t47.5 -62
t72.5 -46t104.5 -18q110 0 176.5 58.5t66.5 152.5q0 88 -48 145t-132 66q-50 -4 -76 -4q-195 0 -327.5 116t-132.5 286q0 187 130.5 304.5t340.5 117.5q55 0 169.5 -10.5t243.5 -10.5zM303 686q0 -174 77.5 -300t184.5 -126q94 0 149.5 68t55.5 174q0 173 -76.5 298.5
t-195.5 125.5q-89 0 -142 -67t-53 -173z" />
    <glyph glyph-name="Hbar" unicode="&#x126;" horiz-adv-x="1597" 
d="M1509 1161q18 0 29.5 -8t11.5 -23v-36q0 -13 -12 -22t-29 -9h-108v-893q0 -27 13 -48.5t29 -32.5t29 -25t13 -29v-6q0 -29 -45 -29h-320q-43 0 -43 29v6q0 15 12 29t26 25t26 32.5t12 48.5v512h-713l-2 -512q0 -27 13 -48.5t28 -32.5t28 -25t13 -29v-6q0 -29 -43 -29
h-319q-43 0 -43 29v6q0 15 11.5 29t26 25t26 32.5t11.5 48.5v893h-110q-15 0 -26 9t-11 22v36q0 14 10.5 22.5t26.5 8.5h110v123q0 27 -11.5 48.5t-26 32.5t-26 25t-11.5 29v6q0 29 43 29h319q43 0 43 -29v-6q0 -15 -12.5 -29t-27.5 -25t-27.5 -32.5t-12.5 -48.5v-123h713
v123q0 27 -12 48.5t-26 32.5t-26 25t-12 29v6q0 29 43 29h320q45 0 45 -29v-6q0 -15 -13 -29t-29 -25t-29 -32.5t-13 -48.5v-123h108zM1153 795v268h-713l-2 -268h715z" />
    <glyph glyph-name="hbar" unicode="&#x127;" horiz-adv-x="1189" 
d="M1073 174q3 -35 21.5 -59.5t35.5 -41.5t17 -36v-8q0 -29 -43 -29h-301q-43 0 -43 29v8q0 15 12 29.5t26.5 25.5t25.5 32t10 48l-21 406q-7 164 -63 245.5t-152 81.5q-97 0 -156 -71t-59 -183v-481q0 -27 13 -48t29 -31t29 -24.5t13 -29.5v-6q0 -14 -12.5 -22.5
t-32.5 -8.5h-318q-20 0 -31.5 8.5t-11.5 22.5v6q0 15 13 29.5t28 24.5t28 31t13 48v932h-129q-30 0 -30 26v46q0 28 30 28h129v55q0 29 -13.5 51t-29.5 33t-29.5 24t-13.5 26v6q0 28 35 43l219 96q31 13 48.5 4t17.5 -37v-301h241q15 0 24 -8t9 -20v-41q0 -31 -33 -31h-243
v-236q46 65 121 101.5t166 36.5q157 0 265.5 -107.5t121.5 -325.5z" />
    <glyph glyph-name="Itilde" unicode="&#x128;" horiz-adv-x="624" 
d="M180 1847q58 0 119 -27.5t113.5 -55t87.5 -27.5q68 0 96 55q14 27 39 27h16q15 0 22 -10.5t3 -28.5q-26 -105 -80 -158t-129 -53q-54 0 -113 28t-113 56t-94 28q-58 0 -94 -55q-1 -2 -4 -6.5t-3.5 -5.5t-3 -5t-3.5 -4.5t-3 -3.5t-3.5 -3.5t-4 -2t-5 -1.5t-5.5 -0.5
t-6 -0.5h-20q-13 0 -20.5 10.5t-4.5 28.5q16 93 71.5 154t141.5 61zM111 29v6q0 14 11.5 28t26 24.5t26 32t11.5 48.5v1116q0 27 -11.5 48.5t-26 32.5t-26 25t-11.5 29v6q0 29 43 29h319q43 0 43 -29v-6q0 -15 -13 -29t-28 -25t-28 -32.5t-13 -48.5v-1116q0 -27 13 -48.5
t28 -32t28 -24.5t13 -28v-6q0 -29 -43 -29h-319q-43 0 -43 29z" />
    <glyph glyph-name="itilde" unicode="&#x129;" horiz-adv-x="542" 
d="M133 1466q58 0 119 -27.5t113.5 -55t87.5 -27.5q68 0 96 55q13 27 39 27h16q15 0 22 -10.5t3 -28.5q-26 -105 -80 -158t-129 -53q-54 0 -113 28t-113 56t-94 28q-58 0 -94 -55q-1 -2 -4 -6.5t-3.5 -5.5t-3 -5t-3.5 -4.5t-3 -3.5t-3.5 -3.5t-4 -2t-5 -1.5t-5.5 -0.5
t-6 -0.5h-20q-13 0 -20.5 10.5t-4.5 28.5q16 93 71.5 154t141.5 61zM121 0q-20 0 -31.5 8.5t-11.5 22.5v8q0 15 12 29t26 24.5t26 31.5t12 48v537q0 28 -12 52t-26 36.5t-26 26.5t-12 26v6q0 18 37 37l204 102q35 15 54.5 4t19.5 -38v-789q0 -27 13 -48t29 -31.5t29 -24.5
t13 -29v-8q0 -14 -12.5 -22.5t-32.5 -8.5h-311z" />
    <glyph glyph-name="Imacron" unicode="&#x12a;" horiz-adv-x="624" 
d="M35 1647q-41 0 -41 36v80q0 37 41 37h551q41 0 41 -37v-80q0 -36 -41 -36h-551zM111 29v6q0 14 11.5 28t26 24.5t26 32t11.5 48.5v1116q0 27 -11.5 48.5t-26 32.5t-26 25t-11.5 29v6q0 29 43 29h319q43 0 43 -29v-6q0 -15 -13 -29t-28 -25t-28 -32.5t-13 -48.5v-1116
q0 -27 13 -48.5t28 -32t28 -24.5t13 -28v-6q0 -29 -43 -29h-319q-43 0 -43 29z" />
    <glyph glyph-name="imacron" unicode="&#x12b;" horiz-adv-x="542" 
d="M8 1219q-41 0 -41 36v80q0 37 41 37h551q41 0 41 -37v-80q0 -36 -41 -36h-551zM121 0q-20 0 -31.5 8.5t-11.5 22.5v8q0 15 12 29t26 24.5t26 31.5t12 48v537q0 28 -12 52t-26 36.5t-26 26.5t-12 26v6q0 18 37 37l204 102q35 15 54.5 4t19.5 -38v-789q0 -27 13 -48
t29 -31.5t29 -24.5t13 -29v-8q0 -14 -12.5 -22.5t-32.5 -8.5h-311z" />
    <glyph glyph-name="Iogonek" unicode="&#x12e;" horiz-adv-x="624" 
d="M516 1419q0 -15 -13 -29t-28 -25t-28 -32.5t-13 -48.5v-1116q0 -27 13 -48.5t28 -32t28 -24.5t13 -28v-6q0 -29 -43 -29h-108q-56 -61 -89.5 -124t-33.5 -114q0 -49 20 -73.5t53 -24.5q20 0 50 10q31 11 42.5 -21.5t-8.5 -57.5q-8 -10 -20 -15q-38 -20 -103 -20
q-84 0 -146 43.5t-62 126.5q0 70 56 140.5t152 129.5h-122q-43 0 -43 29v6q0 14 11.5 28t26 24.5t26 32t11.5 48.5v1116q0 27 -11.5 48.5t-26 32.5t-26 25t-11.5 29v6q0 29 43 29h319q43 0 43 -29v-6z" />
    <glyph glyph-name="iogonek" unicode="&#x12f;" horiz-adv-x="542" 
d="M272 1153q-76 0 -123 43t-47 111q0 67 47 110t123 43q74 0 120 -43t46 -110q0 -68 -46 -111t-120 -43zM393 172q0 -27 13 -48t29 -31.5t29 -24.5t13 -29v-8q0 -14 -12.5 -22.5t-32.5 -8.5h-67q-56 -61 -89.5 -124t-33.5 -114q0 -49 20 -73.5t53 -24.5q20 0 50 10
q31 11 42.5 -21.5t-8.5 -57.5q-8 -10 -20 -15q-38 -20 -103 -20q-84 0 -146 43.5t-62 126.5q0 70 56 140.5t152 129.5h-155q-20 0 -31.5 8.5t-11.5 22.5v8q0 15 12 29t26 24.5t26 31.5t12 48v537q0 28 -12 52t-26 36.5t-26 26.5t-12 26v6q0 18 37 37l204 102q35 15 54.5 4
t19.5 -38v-789z" />
    <glyph glyph-name="Idotaccent" unicode="&#x130;" horiz-adv-x="624" 
d="M322 1573q-73 0 -117.5 40.5t-44.5 104.5t45 106t117 42q70 0 113.5 -42t43.5 -106t-43.5 -104.5t-113.5 -40.5zM111 29v6q0 14 11.5 28t26 24.5t26 32t11.5 48.5v1116q0 27 -11.5 48.5t-26 32.5t-26 25t-11.5 29v6q0 29 43 29h319q43 0 43 -29v-6q0 -15 -13 -29t-28 -25
t-28 -32.5t-13 -48.5v-1116q0 -27 13 -48.5t28 -32t28 -24.5t13 -28v-6q0 -29 -43 -29h-319q-43 0 -43 29z" />
    <glyph glyph-name="dotlessi" unicode="&#x131;" horiz-adv-x="536" 
d="M121 0q-20 0 -31.5 8.5t-11.5 22.5v8q0 15 12 29t26 24.5t26 31.5t12 48v537q0 28 -12 52t-26 36.5t-26 26.5t-12 26v6q0 18 37 37l204 102q35 15 54.5 4t19.5 -38v-789q0 -27 13 -48t29 -31.5t29 -24.5t13 -29v-8q0 -14 -12.5 -22.5t-32.5 -8.5h-311z" />
    <glyph glyph-name="IJ" unicode="&#x132;" horiz-adv-x="1695" 
d="M111 29v6q0 14 11.5 28t26 24.5t26 32t11.5 48.5v1116q0 27 -11.5 48.5t-26 32.5t-26 25t-11.5 29v6q0 29 43 29h319q43 0 43 -29v-6q0 -15 -13 -29t-28 -25t-28 -32.5t-13 -48.5v-1116q0 -27 13 -48.5t28 -32t28 -24.5t13 -28v-6q0 -29 -43 -29h-319q-43 0 -43 29z
M1282 1284q0 27 -12 48.5t-27 32.5t-27 25t-12 29v6q0 29 45 29h322q43 0 43 -29v-6q0 -15 -13 -29t-28 -25t-28 -32.5t-13 -48.5l-2 -719q-3 -582 -461 -585q-97 -1 -176.5 22.5t-129.5 60t-83.5 83.5t-47.5 91.5t-14 86.5q0 56 31.5 89t83.5 33q41 0 69 -20t43.5 -52
t27.5 -70.5t26.5 -77t35 -70.5t58.5 -52t92 -20q88 0 142.5 92t54.5 256v852z" />
    <glyph glyph-name="ij" unicode="&#x133;" horiz-adv-x="1071" 
d="M272 1153q-76 0 -123 43t-47 111q0 67 47 110t123 43q74 0 120 -43t46 -110q0 -68 -46 -111t-120 -43zM811 1153q-76 0 -123 43t-47 111q0 67 47 110t123 43q74 0 120 -43t46 -110q0 -68 -46 -111t-120 -43zM121 0q-20 0 -31.5 8.5t-11.5 22.5v8q0 15 12 29t26 24.5
t26 31.5t12 48v537q0 28 -12 52t-26 36.5t-26 26.5t-12 26v6q0 18 37 37l204 102q35 15 54.5 4t19.5 -38v-789q0 -27 13 -48t29 -31.5t29 -24.5t13 -29v-8q0 -14 -12.5 -22.5t-32.5 -8.5h-311zM657 -387q-118 0 -189 48t-71 134q0 46 29.5 74.5t75.5 28.5q41 0 66 -20.5
t35.5 -50t19.5 -58.5t27.5 -49.5t51.5 -20.5q39 0 64 28.5t25 73.5q0 50 -21 95.5t-42 88t-21 85.5v639q0 29 -12 52.5t-26 35t-26 26t-12 27.5v6q0 19 35 37l213 102q34 15 53.5 4t19.5 -38v-961q0 -139 -49 -240q-73 -147 -246 -147z" />
    <glyph glyph-name="uni0136" unicode="&#x136;" horiz-adv-x="1419" 
d="M1346 172q20 -33 42.5 -57t36 -33.5t22.5 -20.5t9 -26v-6q0 -13 -11 -21t-30 -8h-362q-41 0 -41 29v6q0 16 21.5 37t33 36t-3.5 50l-373 624l-256 -256v-354q0 -27 13 -48.5t29 -33t29 -26t13 -29.5v-6q0 -29 -45 -29h-319q-43 0 -43 29v6q0 18 18.5 35.5t37.5 42.5
t19 59v1112q0 27 -11.5 48.5t-26 32.5t-26 25t-11.5 29v6q0 29 43 29h319q43 0 43 -29v-6q0 -15 -13 -29t-28 -25t-28 -32.5t-13 -48.5v-602l596 598q24 24 26 45.5t-9.5 34t-24 29.5t-12.5 30v6q0 29 45 29h254q43 0 43 -29v-6q0 -19 -23 -36t-66 -45t-73 -58l-330 -328z
M786 -98q63 0 105.5 -46.5t42.5 -125.5q0 -103 -56.5 -197t-166.5 -166q-25 -14 -45.5 7t0.5 42q54 53 77 89t29 79q7 33 -18 33q-46 0 -77.5 38t-31.5 97q0 65 38.5 107.5t102.5 42.5z" />
    <glyph glyph-name="uni0137" unicode="&#x137;" horiz-adv-x="1120" 
d="M1038 135q14 -19 41.5 -36t45.5 -31t18 -33v-6q0 -29 -37 -29h-330q-15 0 -25 9t-10 22v4q0 15 11.5 28t22 21t15 22t-9.5 29l-262 350l-139 -129v-186q0 -27 13 -48t29 -31t29 -24.5t13 -29.5v-6q0 -14 -12.5 -22.5t-32.5 -8.5h-312q-20 0 -31.5 8.5t-11.5 22.5v6
q0 15 12 29.5t26 24.5t26 31t12 48v1079q0 29 -13.5 52.5t-29.5 36t-29.5 26t-13.5 25.5v6q0 22 35 37l217 102q34 13 54 2.5t20 -35.5v-1009l369 321q21 16 16.5 35.5t-19 33.5t-30 32t-15.5 32v6q0 31 37 31h262q15 0 25 -8t10 -21v-6q0 -20 -23.5 -38.5t-66.5 -44.5
t-70 -50l-200 -184zM573 -98q63 0 105.5 -46.5t42.5 -125.5q0 -103 -56.5 -197t-166.5 -166q-25 -14 -45.5 7t0.5 42q54 53 77 89t29 79q7 33 -18 33q-46 0 -77.5 38t-31.5 97q0 65 38.5 107.5t102.5 42.5z" />
    <glyph glyph-name="kgreenlandic" unicode="&#x138;" horiz-adv-x="1134" 
d="M1069 135q14 -19 39 -36.5t40 -31t15 -32.5v-6q0 -13 -10 -21t-25 -8h-319q-15 0 -26 9t-11 22v4q0 15 11 28t21.5 20.5t15 21.5t-8.5 30l-270 350l-140 -127v-188q0 -27 13 -48t29 -31t29 -24.5t13 -29.5v-6q0 -14 -12.5 -22.5t-32.5 -8.5h-317q-20 0 -32.5 8.5
t-12.5 22.5v6q0 15 12 29.5t27 24.5t27 31t12 48v743q0 29 -14 52.5t-30 36t-30 26t-14 25.5v6q0 21 36 37l222 102q35 15 55 4t20 -37v-673l369 321q21 16 16 35.5t-19.5 33.5t-30 32t-15.5 32v6q0 14 10.5 22.5t26.5 8.5h262q16 0 26.5 -8t10.5 -21v-6q0 -20 -23.5 -38.5
t-66.5 -44.5t-70 -50l-201 -184z" />
    <glyph glyph-name="Lacute" unicode="&#x139;" horiz-adv-x="1200" 
d="M141 1595q-43 -3 -57 29q-12 38 22 57l404 191q31 14 53 4.5t31 -39.5l24 -96q9 -28 -4 -48.5t-45 -23.5zM154 0q-20 0 -31.5 8.5t-11.5 20.5v6q0 15 11.5 29t26 25t26 32.5t11.5 48.5v1114q0 28 -11.5 49t-26 31.5t-26 25t-11.5 29.5v6q0 29 43 29h321q45 0 45 -29v-6
q0 -15 -13 -29.5t-29 -25t-29 -31.5t-13 -49v-1083q0 -42 19.5 -69.5t56.5 -27.5h375q46 0 84 38.5t59 84.5t47.5 84.5t52.5 38.5h21q38 0 29 -41l-52 -256q-6 -28 -19 -40.5t-40 -12.5h-915z" />
    <glyph glyph-name="lacute" unicode="&#x13a;" horiz-adv-x="532" 
d="M18 1622q-43 -3 -57 29q-6 18 1.5 33.5t21.5 23.5l403 190q31 14 53 5t31 -39l25 -97q9 -28 -4.5 -48t-45.5 -23zM109 0q-20 0 -31.5 8.5t-11.5 22.5v6q0 15 11.5 29.5t26 24.5t26 31t11.5 48v1079q0 29 -11.5 52.5t-26 36t-26 26t-11.5 25.5v6q0 20 34 37l207 102
q35 15 54.5 4t19.5 -37v-1331q0 -27 13 -48t29 -31t29 -24.5t13 -29.5v-6q0 -14 -12.5 -22.5t-32.5 -8.5h-311z" />
    <glyph glyph-name="uni013B" unicode="&#x13b;" horiz-adv-x="1200" 
d="M154 0q-20 0 -31.5 8.5t-11.5 20.5v6q0 15 11.5 29t26 25t26 32.5t11.5 48.5v1114q0 28 -11.5 49t-26 31.5t-26 25t-11.5 29.5v6q0 29 43 29h321q45 0 45 -29v-6q0 -15 -13 -29.5t-29 -25t-29 -31.5t-13 -49v-1083q0 -42 19.5 -69.5t56.5 -27.5h375q46 0 84 38.5t59 84.5
t47.5 84.5t52.5 38.5h21q38 0 29 -41l-52 -256q-6 -28 -19 -40.5t-40 -12.5h-915zM567 -633q-25 -14 -45.5 7t0.5 42q54 53 77.5 89.5t29.5 78.5q7 33 -19 33q-46 0 -77 38t-31 97q0 65 38.5 107.5t102.5 42.5q63 0 105.5 -46.5t42.5 -125.5q0 -103 -56.5 -197t-167.5 -166z
" />
    <glyph glyph-name="uni013C" unicode="&#x13c;" horiz-adv-x="532" 
d="M109 0q-20 0 -31.5 8.5t-11.5 22.5v6q0 15 11.5 29.5t26 24.5t26 31t11.5 48v1079q0 29 -11.5 52.5t-26 36t-26 26t-11.5 25.5v6q0 20 34 37l207 102q35 15 54.5 4t19.5 -37v-1331q0 -27 13 -48t29 -31t29 -24.5t13 -29.5v-6q0 -14 -12.5 -22.5t-32.5 -8.5h-311z
M199 -608q-25 -14 -45.5 7t0.5 42q54 53 77 89t29 79q7 33 -18 33q-46 0 -77.5 38t-31.5 97q0 65 38.5 107t102.5 42q63 0 105.5 -46.5t42.5 -125.5q0 -103 -56 -196.5t-167 -165.5z" />
    <glyph glyph-name="Lcaron" unicode="&#x13d;" horiz-adv-x="1206" 
d="M758 1028l-15 10q-12 9 -12 25t12 33q115 160 115 391q0 19 11 33t28 14h92q20 0 31.5 -12.5t11.5 -34.5q0 -147 -59 -265t-152 -188q-35 -26 -63 -6zM154 0q-20 0 -31.5 8.5t-11.5 20.5v6q0 15 11.5 29t26 25t26 32.5t11.5 48.5v1114q0 28 -11.5 49t-26 31.5t-26 25
t-11.5 29.5v6q0 29 43 29h321q45 0 45 -29v-6q0 -15 -13 -29.5t-29 -25t-29 -31.5t-13 -49v-1083q0 -42 19.5 -69.5t56.5 -27.5h375q46 0 84 38.5t59 84.5t47.5 84.5t52.5 38.5h21q38 0 29 -41l-52 -256q-6 -28 -19 -40.5t-40 -12.5h-915z" />
    <glyph glyph-name="lcaron" unicode="&#x13e;" horiz-adv-x="563" 
d="M475 1130l-14 11q-26 20 0 57q114 158 114 391q0 19 11 33t28 14h93q20 0 31.5 -12.5t11.5 -34.5q0 -146 -58.5 -264t-152.5 -188q-36 -27 -64 -7zM109 0q-20 0 -31.5 8.5t-11.5 22.5v6q0 15 11.5 29.5t26 24.5t26 31t11.5 48v1079q0 29 -11.5 52.5t-26 36t-26 26
t-11.5 25.5v6q0 20 34 37l207 102q35 15 54.5 4t19.5 -37v-1331q0 -27 13 -48t29 -31t29 -24.5t13 -29.5v-6q0 -14 -12.5 -22.5t-32.5 -8.5h-311z" />
    <glyph glyph-name="Ldot" unicode="&#x13f;" horiz-adv-x="1208" 
d="M154 0q-20 0 -31.5 8.5t-11.5 20.5v6q0 15 11.5 29t26 25t26 32.5t11.5 48.5v1114q0 28 -11.5 49t-26 31.5t-26 25t-11.5 29.5v6q0 29 43 29h321q45 0 45 -29v-6q0 -15 -13 -29.5t-29 -25t-29 -31.5t-13 -49v-1083q0 -42 19.5 -69.5t56.5 -27.5h375q46 0 84 38.5t59 84.5
t47.5 84.5t52.5 38.5h21q38 0 29 -41l-52 -256q-6 -28 -19 -40.5t-40 -12.5h-915zM870 637q-69 0 -114 38t-45 109q0 72 44.5 110t114.5 38t115 -38t45 -110q0 -71 -45 -109t-115 -38z" />
    <glyph glyph-name="ldot" unicode="&#x140;" horiz-adv-x="792" 
d="M109 0q-20 0 -31.5 8.5t-11.5 22.5v6q0 15 11.5 29.5t26 24.5t26 31t11.5 48v1079q0 29 -11.5 52.5t-26 36t-26 26t-11.5 25.5v6q0 20 34 37l207 102q35 15 54.5 4t19.5 -37v-1331q0 -27 13 -48t29 -31t29 -24.5t13 -29.5v-6q0 -14 -12.5 -22.5t-32.5 -8.5h-311zM647 643
q-69 0 -114.5 38.5t-45.5 109.5q0 72 45 109.5t115 37.5t115 -37.5t45 -109.5q0 -71 -45.5 -109.5t-114.5 -38.5z" />
    <glyph glyph-name="Lslash" unicode="&#x141;" horiz-adv-x="1253" 
d="M1204 350q38 0 29 -41l-51 -256q-6 -27 -19.5 -40t-40.5 -13h-915q-20 0 -31.5 8.5t-11.5 20.5v6q0 15 12 29t26 25t26 32.5t12 48.5v389l-140 -70q-40 -16 -51 17l-12 26q-15 34 22 50l181 90v612q0 28 -12 49t-26 31.5t-26 25t-12 29.5v6q0 29 43 29h321q45 0 45 -29
v-6q0 -15 -13 -29.5t-29 -25t-29 -31.5t-13 -49v-489l193 96q37 18 49 -17l12 -24q12 -34 -22 -49l-232 -117v-483q0 -42 19.5 -69.5t56.5 -27.5h375q38 0 69.5 25.5t53 61.5t40 72t39 61.5t42.5 25.5h20z" />
    <glyph glyph-name="lslash" unicode="&#x142;" horiz-adv-x="667" 
d="M649 930q7 -9 4 -21.5t-16 -21.5l-172 -113v-604q0 -27 13 -48t29 -31t29 -24.5t13 -29.5v-6q0 -14 -12.5 -22.5t-32.5 -8.5h-311q-20 0 -31.5 8.5t-11.5 22.5v6q0 15 11.5 29.5t26 24.5t26 31t11.5 48v446l-129 -84q-22 -14 -39 7l-28 45q-16 21 10 41l186 123v501
q0 29 -11.5 52.5t-26 36t-26 26t-11.5 25.5v6q0 20 34 37l207 102q35 15 54.5 4t19.5 -37v-596l108 72q14 10 28 9t22 -13z" />
    <glyph glyph-name="Nacute" unicode="&#x143;" horiz-adv-x="1542" 
d="M604 1595q-43 -3 -57 29q-12 38 22 57l404 191q31 14 53 4.5t31 -39.5l24 -96q9 -28 -4 -48.5t-45 -23.5zM1403 1454q20 0 32.5 -8.5t12.5 -22.5v-6q0 -14 -13.5 -28t-29.5 -24.5t-29.5 -32t-13.5 -48.5v-1214q0 -33 -17.5 -51.5t-48.5 -18.5h-73q-36 0 -76 57l-830 1127
v-1010q0 -28 14 -50t31.5 -33.5t31.5 -26t14 -29.5v-6q0 -13 -12.5 -21t-33.5 -8h-210q-46 0 -46 29v6q0 18 20 36t40 43t20 60v1108q0 27 -12.5 48t-27.5 31.5t-27.5 24.5t-12.5 29v8q0 14 12.5 22.5t33.5 8.5h202q52 0 86 -49l791 -1100v979q0 27 -13.5 48.5t-29.5 32
t-29.5 24.5t-13.5 28v6q0 14 12.5 22.5t32.5 8.5h213z" />
    <glyph glyph-name="nacute" unicode="&#x144;" horiz-adv-x="1204" 
d="M459 1135q-43 -14 -64 16q-18 34 13 61l358 265q28 21 51.5 15.5t38.5 -34.5l43 -90q14 -25 4.5 -48t-39.5 -32zM1090 172q1 -28 13 -49.5t25 -32t24 -24.5t11 -29v-8q0 -14 -12.5 -22.5t-32.5 -8.5h-299q-45 0 -45 31v8q0 15 12 29t26.5 24.5t25.5 32t10 49.5l-21 395
q-7 171 -63 254.5t-152 83.5q-97 0 -156 -71t-59 -183v-481q0 -27 13 -48t29 -31.5t29 -24.5t13 -29v-8q0 -31 -45 -31h-317q-20 0 -31.5 8.5t-11.5 22.5v8q0 15 13 29t28 24.5t28 31.5t13 48v549q0 30 -14.5 52.5t-31.5 33t-31.5 23.5t-14.5 28v6q0 21 36 37l199 96
q32 15 48 3.5t16 -40.5v-133q43 84 124.5 131.5t186.5 47.5q75 0 140 -25t119 -76t88.5 -139t41.5 -205z" />
    <glyph glyph-name="uni0145" unicode="&#x145;" horiz-adv-x="1542" 
d="M1403 1454q20 0 32.5 -8.5t12.5 -22.5v-6q0 -14 -13.5 -28t-29.5 -24.5t-29.5 -32t-13.5 -48.5v-1214q0 -33 -17.5 -51.5t-48.5 -18.5h-73q-36 0 -76 57l-830 1127v-1010q0 -28 14 -50t31.5 -33.5t31.5 -26t14 -29.5v-6q0 -13 -12.5 -21t-33.5 -8h-210q-46 0 -46 29v6
q0 18 20 36t40 43t20 60v1108q0 27 -12.5 48t-27.5 31.5t-27.5 24.5t-12.5 29v8q0 14 12.5 22.5t33.5 8.5h202q52 0 86 -49l791 -1100v979q0 27 -13.5 48.5t-29.5 32t-29.5 24.5t-13.5 28v6q0 14 12.5 22.5t32.5 8.5h213zM803 -98q62 0 104.5 -46.5t42.5 -125.5
q0 -103 -56.5 -197t-166.5 -166q-25 -14 -45.5 7t0.5 42q54 53 77 89t29 79q7 33 -18 33q-46 0 -77 38t-31 97q0 65 38.5 107.5t102.5 42.5z" />
    <glyph glyph-name="uni0146" unicode="&#x146;" horiz-adv-x="1204" 
d="M1090 172q1 -28 13 -49.5t25 -32t24 -24.5t11 -29v-8q0 -14 -12.5 -22.5t-32.5 -8.5h-299q-45 0 -45 31v8q0 15 12 29t26.5 24.5t25.5 32t10 49.5l-21 395q-7 171 -63 254.5t-152 83.5q-97 0 -156 -71t-59 -183v-481q0 -27 13 -48t29 -31.5t29 -24.5t13 -29v-8
q0 -31 -45 -31h-317q-20 0 -31.5 8.5t-11.5 22.5v8q0 15 13 29t28 24.5t28 31.5t13 48v549q0 30 -14.5 52.5t-31.5 33t-31.5 23.5t-14.5 28v6q0 21 36 37l199 96q32 15 48 3.5t16 -40.5v-133q43 84 124.5 131.5t186.5 47.5q75 0 140 -25t119 -76t88.5 -139t41.5 -205z
M621 -98q62 0 104.5 -46.5t42.5 -125.5q0 -103 -56.5 -197t-166.5 -166q-25 -14 -45.5 7t0.5 42q54 53 77 89t29 79q7 33 -18 33q-46 0 -77.5 38t-31.5 97q0 65 39 107.5t103 42.5z" />
    <glyph glyph-name="Ncaron" unicode="&#x147;" horiz-adv-x="1542" 
d="M672 1563l-230 215q-25 27 3 52t57 9l276 -153l275 153q19 12 40.5 2.5t27 -28t-8.5 -35.5l-238 -215q-34 -31 -73 -31h-56q-39 0 -73 31zM1403 1454q20 0 32.5 -8.5t12.5 -22.5v-6q0 -14 -13.5 -28t-29.5 -24.5t-29.5 -32t-13.5 -48.5v-1214q0 -33 -17.5 -51.5
t-48.5 -18.5h-73q-36 0 -76 57l-830 1127v-1010q0 -28 14 -50t31.5 -33.5t31.5 -26t14 -29.5v-6q0 -13 -12.5 -21t-33.5 -8h-210q-46 0 -46 29v6q0 18 20 36t40 43t20 60v1108q0 27 -12.5 48t-27.5 31.5t-27.5 24.5t-12.5 29v8q0 14 12.5 22.5t33.5 8.5h202q52 0 86 -49
l791 -1100v979q0 27 -13.5 48.5t-29.5 32t-29.5 24.5t-13.5 28v6q0 14 12.5 22.5t32.5 8.5h213z" />
    <glyph glyph-name="ncaron" unicode="&#x148;" horiz-adv-x="1204" 
d="M530 1161l-229 225q-16 17 -8.5 37.5t27.5 27t40 -0.5l277 -160l274 160q19 12 41 1.5t27.5 -29.5t-8.5 -36l-238 -225q-34 -31 -74 -31h-55q-40 0 -74 31zM1090 172q1 -28 13 -49.5t25 -32t24 -24.5t11 -29v-8q0 -14 -12.5 -22.5t-32.5 -8.5h-299q-45 0 -45 31v8
q0 15 12 29t26.5 24.5t25.5 32t10 49.5l-21 395q-7 171 -63 254.5t-152 83.5q-97 0 -156 -71t-59 -183v-481q0 -27 13 -48t29 -31.5t29 -24.5t13 -29v-8q0 -31 -45 -31h-317q-20 0 -31.5 8.5t-11.5 22.5v8q0 15 13 29t28 24.5t28 31.5t13 48v549q0 30 -14.5 52.5t-31.5 33
t-31.5 23.5t-14.5 28v6q0 21 36 37l199 96q32 15 48 3.5t16 -40.5v-133q43 84 124.5 131.5t186.5 47.5q75 0 140 -25t119 -76t88.5 -139t41.5 -205z" />
    <glyph glyph-name="napostrophe" unicode="&#x149;" horiz-adv-x="1318" 
d="M53 1581q67 0 113.5 -49.5t46.5 -134.5q0 -112 -61 -212.5t-181 -178.5q-27 -15 -48.5 7.5t1.5 45.5q57 56 82.5 95t32.5 85q7 35 -21 35q-50 0 -83 40.5t-33 104.5q0 71 41.5 116.5t109.5 45.5zM1206 172q1 -28 13 -49.5t25.5 -32t24.5 -24.5t11 -29v-8
q0 -14 -12.5 -22.5t-32.5 -8.5h-299q-45 0 -45 31v8q0 15 12 29t26.5 24.5t25.5 32t10 49.5l-21 395q-7 171 -63 254.5t-152 83.5q-97 0 -156 -71t-59 -183v-481q0 -27 13 -48t29 -31.5t29 -24.5t13 -29v-8q0 -31 -45 -31h-317q-20 0 -31.5 8.5t-11.5 22.5v8q0 15 12.5 29
t28 24.5t28 31.5t12.5 48v549q0 30 -14.5 52.5t-31.5 33t-31.5 23.5t-14.5 28v6q0 21 37 37l199 96q32 15 47.5 3.5t15.5 -40.5v-133q43 84 125 131.5t187 47.5q75 0 140 -25t119 -76t88.5 -139t41.5 -205z" />
    <glyph glyph-name="Eng" unicode="&#x14a;" horiz-adv-x="1542" 
d="M1403 1454q45 0 45 -29v-6q0 -15 -14 -30t-30 -26.5t-30 -33.5t-14 -49v-1255q0 -136 -39 -233.5t-125 -154t-215 -57.5q-96 -1 -174 31t-123.5 82t-69.5 104t-24 103q0 58 33 91.5t86 33.5q36 0 60.5 -19.5t37 -50.5t23 -68t23 -74.5t31 -68.5t53 -50.5t83.5 -19.5
q98 0 152.5 90.5t56.5 233.5l-910 1190v-1014q0 -28 13.5 -50t30 -33.5t30 -26t13.5 -29.5v-6q0 -29 -44 -29h-210q-46 0 -46 29v6q0 18 20 36t40 43t20 60v1106q0 34 -20 59t-40 43t-20 35v6q0 14 12.5 22.5t33.5 8.5h186q48 0 84 -49l807 -1098v973q0 27 -12.5 49
t-27.5 33.5t-27.5 26.5t-12.5 30v6q0 13 12 21t31 8h211z" />
    <glyph glyph-name="eng" unicode="&#x14b;" horiz-adv-x="1179" 
d="M1098 37q9 -166 -45 -277q-72 -151 -246 -151q-108 0 -182 51.5t-74 128.5q0 44 30 70t76 26q38 0 61.5 -19.5t33.5 -47t19.5 -55t28.5 -47t52 -19.5q40 0 64 28.5t24 75.5q0 39 -12.5 73.5t-28 59t-30 69t-17.5 99.5l-25 455q-20 348 -219 348q-85 0 -142.5 -59.5
t-68.5 -155.5v-518q0 -27 13 -48.5t29 -32.5t29 -25t13 -29v-8q0 -29 -45 -29h-317q-43 0 -43 29v8q0 15 13 29t28 25t28 32.5t13 48.5v543q0 27 -14.5 49.5t-31.5 34.5t-31.5 27t-14.5 30v6q0 21 36 37l199 96q32 15 48 3.5t16 -40.5v-129q41 83 121 129t186 46
q75 0 140 -25.5t119.5 -77.5t90 -141.5t43.5 -208.5z" />
    <glyph glyph-name="Omacron" unicode="&#x14c;" horiz-adv-x="1570" 
d="M502 1647q-41 0 -41 36v80q0 37 41 37h551q41 0 41 -37v-80q0 -36 -41 -36h-551zM799 -20q-159 0 -296 60.5t-231 163t-147 238.5t-53 285q0 214 90 384.5t253.5 267t372.5 96.5q157 0 292 -61.5t226.5 -165.5t143 -241t51.5 -288q0 -154 -54.5 -291.5t-147.5 -235.5
t-223 -155t-277 -57zM864 90q171 0 282 131t111 318q0 227 -69 414.5t-197 299t-289 111.5q-173 0 -280 -126.5t-107 -326.5q0 -226 67.5 -412.5t194 -297.5t287.5 -111z" />
    <glyph glyph-name="omacron" unicode="&#x14d;" horiz-adv-x="1171" 
d="M309 1219q-41 0 -41 36v80q0 37 41 37h551q41 0 41 -37v-80q0 -36 -41 -36h-551zM614 -20q-127 0 -233 43t-175.5 116t-108 166.5t-38.5 196.5q0 143 68 258.5t184.5 179.5t255.5 64q119 0 221 -41.5t171.5 -112t109 -165t39.5 -200.5q0 -140 -61 -255t-174.5 -182.5
t-258.5 -67.5zM645 57q98 0 159.5 91t61.5 253q0 142 -41.5 262.5t-116.5 191.5t-167 71q-111 0 -175.5 -89t-64.5 -255q0 -129 42 -248t122.5 -198t179.5 -79z" />
    <glyph glyph-name="Ohungarumlaut" unicode="&#x150;" horiz-adv-x="1570" 
d="M502 1528q-19 17 4 55l225 338q39 61 84 16l51 -47q25 -22 26 -45.5t-24 -42.5l-311 -266q-33 -27 -55 -8zM895 1528q-19 16 4 53l227 340q38 59 84 16l52 -49q25 -22 25 -45.5t-25 -42.5l-310 -264q-33 -26 -57 -8zM799 -20q-159 0 -296 60.5t-231 163t-147 238.5
t-53 285q0 214 90 384.5t253.5 267t372.5 96.5q157 0 292 -61.5t226.5 -165.5t143 -241t51.5 -288q0 -154 -54.5 -291.5t-147.5 -235.5t-223 -155t-277 -57zM864 90q171 0 282 131t111 318q0 227 -69 414.5t-197 299t-289 111.5q-173 0 -280 -126.5t-107 -326.5
q0 -226 67.5 -412.5t194 -297.5t287.5 -111z" />
    <glyph glyph-name="ohungarumlaut" unicode="&#x151;" horiz-adv-x="1171" 
d="M283 1120q-20 17 4 56l225 337q39 62 84 17l51 -47q25 -22 26 -45.5t-24 -42.5l-311 -267q-33 -27 -55 -8zM676 1120q-19 16 4 54l227 339q38 60 84 17l51 -49q25 -22 25 -45.5t-25 -42.5l-309 -265q-33 -26 -57 -8zM614 -20q-127 0 -233 43t-175.5 116t-108 166.5
t-38.5 196.5q0 143 68 258.5t184.5 179.5t255.5 64q119 0 221 -41.5t171.5 -112t109 -165t39.5 -200.5q0 -140 -61 -255t-174.5 -182.5t-258.5 -67.5zM645 57q98 0 159.5 91t61.5 253q0 142 -41.5 262.5t-116.5 191.5t-167 71q-111 0 -175.5 -89t-64.5 -255q0 -129 42 -248
t122.5 -198t179.5 -79z" />
    <glyph glyph-name="OE" unicode="&#x152;" horiz-adv-x="2217" 
d="M2152 319q16 0 24.5 -10t4.5 -28l-51 -228q-5 -27 -17.5 -40t-39.5 -13h-848q-20 0 -32.5 8.5t-12.5 22.5v6q0 17 17 34.5t33.5 42t16.5 58.5v18q-90 -101 -211.5 -155.5t-261.5 -54.5t-270.5 56t-228.5 152.5t-157 237.5t-59 301q0 219 86.5 389.5t242.5 264.5t355 94
q149 0 279 -59.5t225 -166.5v33q0 34 -16.5 59t-33.5 43t-17 35v6q0 29 45 29h790q27 0 40 -12t18 -39l45 -213q9 -45 -35 -45h-17q-24 0 -49 32.5t-45.5 71t-55 71t-73.5 32.5h-338q-69 0 -69 -78v-486h352q24 0 43 14t29.5 34t19.5 40t18.5 34t20.5 14h16q31 0 31 -45
v-279q0 -20 -8.5 -32.5t-22.5 -12.5h-16q-13 0 -25.5 20.5t-22 45t-31.5 45t-52 20.5h-352v-485q0 -43 21.5 -70t68.5 -27h370q37 0 68.5 22t52.5 54t38.5 63.5t36 53.5t36.5 22h24zM852 90q171 0 280 124.5t109 324.5q0 132 -46 278.5t-120 267t-177.5 200t-209.5 79.5
q-171 0 -278 -126.5t-107 -326.5q0 -143 45 -290.5t118.5 -264.5t176 -191.5t209.5 -74.5z" />
    <glyph glyph-name="oe" unicode="&#x153;" horiz-adv-x="1814" 
d="M1700 301q17 23 43 16.5t22 -36.5q-6 -38 -25 -78t-54.5 -80t-82 -72t-112.5 -51.5t-141 -19.5q-116 0 -213.5 45.5t-163.5 130.5q-68 -83 -167.5 -129.5t-211.5 -46.5q-142 0 -264.5 67t-196.5 187.5t-74 267.5q0 143 71 258.5t192 179.5t266 64q108 0 208 -48t171 -133
q64 86 159 133.5t209 47.5q95 0 173.5 -27t127 -70.5t75 -96.5t26.5 -108q0 -105 -105 -143l-495 -182q39 -106 116.5 -165.5t184.5 -59.5q87 0 147.5 40.5t114.5 108.5zM1313 926q-96 0 -153.5 -92.5t-57.5 -241.5q0 -72 12 -137l340 141q26 10 39.5 37.5t13.5 60.5
q0 32 -14 71.5t-38 75.5t-62 60.5t-80 24.5zM641 59q102 0 162.5 92t60.5 230q0 68 -14 142t-43 145.5t-68 128.5t-93.5 92t-115.5 35q-104 0 -166.5 -92t-62.5 -230q0 -143 41.5 -266.5t120.5 -200t178 -76.5z" />
    <glyph glyph-name="Racute" unicode="&#x154;" horiz-adv-x="1363" 
d="M494 1595q-44 -4 -58 29q-6 18 1.5 33.5t21.5 23.5l403 191q31 14 53 4.5t31 -39.5l25 -96q9 -28 -4 -48.5t-45 -23.5zM1221 170q20 -29 46 -51.5t45 -32.5t32.5 -23t13.5 -28v-6q0 -29 -43 -29h-357q-43 0 -43 29v6q0 14 13.5 28t26.5 24.5t17 32t-14 50.5l-260 389h-18
l-244 -4v-385q0 -27 13 -48.5t29 -32.5t29 -25t13 -29v-6q0 -29 -45 -29h-321q-43 0 -43 29v6q0 15 11.5 29t26 25t26 32.5t11.5 48.5v1114q0 27 -11.5 48.5t-26 32.5t-26 25t-11.5 29v6q0 29 43 29h462q136 0 248 -28t195 -83t129 -143t47 -201q0 -131 -79 -238.5
t-226 -160.5zM651 662q149 0 239.5 80t90.5 227q0 92 -32 166t-85.5 120t-121 70.5t-142.5 24.5h-102q-30 0 -46 -22t-16 -60v-490q0 -63 25 -89.5t76 -26.5h114z" />
    <glyph glyph-name="racute" unicode="&#x155;" horiz-adv-x="829" 
d="M285 1135q-43 -14 -64 16q-18 35 12 61l359 265q28 21 51.5 15.5t38.5 -34.5l43 -90q14 -25 4.5 -48t-39.5 -32zM637 1004q88 0 138 -49.5t50 -123.5q0 -57 -25.5 -93t-80.5 -36q-37 0 -59 16.5t-32 40t-19 47t-28.5 40t-52.5 16.5q-68 0 -104.5 -73.5t-36.5 -180.5v-438
q0 -27 14.5 -48t32.5 -31.5t32.5 -24.5t14.5 -29v-8q0 -29 -43 -29h-317q-43 0 -43 29v8q0 15 12 29t27 24.5t27 31.5t12 48v551q0 28 -14 49.5t-30 31.5t-30 23.5t-14 28.5v6q0 24 36 43l201 92q60 28 60 -34v-160q34 98 104 150.5t168 52.5z" />
    <glyph glyph-name="uni0156" unicode="&#x156;" horiz-adv-x="1363" 
d="M1221 170q20 -29 46 -51.5t45 -32.5t32.5 -23t13.5 -28v-6q0 -29 -43 -29h-357q-43 0 -43 29v6q0 14 13.5 28t26.5 24.5t17 32t-14 50.5l-260 389h-18l-244 -4v-385q0 -27 13 -48.5t29 -32.5t29 -25t13 -29v-6q0 -29 -45 -29h-321q-43 0 -43 29v6q0 15 11.5 29t26 25
t26 32.5t11.5 48.5v1114q0 27 -11.5 48.5t-26 32.5t-26 25t-11.5 29v6q0 29 43 29h462q136 0 248 -28t195 -83t129 -143t47 -201q0 -131 -79 -238.5t-226 -160.5zM651 662q149 0 239.5 80t90.5 227q0 92 -32 166t-85.5 120t-121 70.5t-142.5 24.5h-102q-30 0 -46 -22
t-16 -60v-490q0 -63 25 -89.5t76 -26.5h114zM696 -76q63 0 105.5 -46.5t42.5 -125.5q0 -103 -56 -196.5t-167 -165.5q-25 -14 -46 7t0 42q54 53 77.5 89.5t29.5 78.5q7 33 -18 33q-46 0 -77.5 38t-31.5 97q0 65 38.5 107t102.5 42z" />
    <glyph glyph-name="uni0157" unicode="&#x157;" horiz-adv-x="829" 
d="M637 1004q88 0 138 -49.5t50 -123.5q0 -57 -25.5 -93t-80.5 -36q-37 0 -59 16.5t-32 40t-19 47t-28.5 40t-52.5 16.5q-68 0 -104.5 -73.5t-36.5 -180.5v-438q0 -27 14.5 -48t32.5 -31.5t32.5 -24.5t14.5 -29v-8q0 -29 -43 -29h-317q-43 0 -43 29v8q0 15 12 29t27 24.5
t27 31.5t12 48v551q0 28 -14 49.5t-30 31.5t-30 23.5t-14 28.5v6q0 24 36 43l201 92q60 28 60 -34v-160q34 98 104 150.5t168 52.5zM276 -98q63 0 105.5 -46.5t42.5 -125.5q0 -103 -56.5 -197t-166.5 -166q-25 -14 -45.5 7t0.5 42q54 53 77 89t29 79q7 33 -18 33
q-46 0 -77.5 38t-31.5 97q0 65 38.5 107.5t102.5 42.5z" />
    <glyph glyph-name="Rcaron" unicode="&#x158;" horiz-adv-x="1363" 
d="M573 1563l-229 215q-25 27 2.5 52t56.5 9l277 -153l274 153q19 12 41 2.5t27.5 -28t-8.5 -35.5l-238 -215q-34 -31 -74 -31h-55q-40 0 -74 31zM1221 170q20 -29 46 -51.5t45 -32.5t32.5 -23t13.5 -28v-6q0 -29 -43 -29h-357q-43 0 -43 29v6q0 14 13.5 28t26.5 24.5t17 32
t-14 50.5l-260 389h-18l-244 -4v-385q0 -27 13 -48.5t29 -32.5t29 -25t13 -29v-6q0 -29 -45 -29h-321q-43 0 -43 29v6q0 15 11.5 29t26 25t26 32.5t11.5 48.5v1114q0 27 -11.5 48.5t-26 32.5t-26 25t-11.5 29v6q0 29 43 29h462q136 0 248 -28t195 -83t129 -143t47 -201
q0 -131 -79 -238.5t-226 -160.5zM651 662q149 0 239.5 80t90.5 227q0 92 -32 166t-85.5 120t-121 70.5t-142.5 24.5h-102q-30 0 -46 -22t-16 -60v-490q0 -63 25 -89.5t76 -26.5h114z" />
    <glyph glyph-name="rcaron" unicode="&#x159;" horiz-adv-x="829" 
d="M356 1161l-229 225q-16 17 -8.5 37.5t27.5 27t40 -0.5l277 -160l274 160q19 12 41 1.5t27.5 -29.5t-8.5 -36l-238 -225q-34 -31 -74 -31h-55q-40 0 -74 31zM637 1004q88 0 138 -49.5t50 -123.5q0 -57 -25.5 -93t-80.5 -36q-37 0 -59 16.5t-32 40t-19 47t-28.5 40
t-52.5 16.5q-68 0 -104.5 -73.5t-36.5 -180.5v-438q0 -27 14.5 -48t32.5 -31.5t32.5 -24.5t14.5 -29v-8q0 -29 -43 -29h-317q-43 0 -43 29v8q0 15 12 29t27 24.5t27 31.5t12 48v551q0 28 -14 49.5t-30 31.5t-30 23.5t-14 28.5v6q0 24 36 43l201 92q60 28 60 -34v-160
q34 98 104 150.5t168 52.5z" />
    <glyph glyph-name="Sacute" unicode="&#x15a;" horiz-adv-x="1263" 
d="M481 1595q-43 -3 -57 29q-12 38 22 57l404 191q31 14 53 4.5t31 -39.5l24 -96q9 -28 -4 -48.5t-45 -23.5zM655 -20q-116 0 -216 24t-167.5 62.5t-115.5 87t-70.5 97t-22.5 93.5t26.5 74t74.5 28q37 -1 65.5 -22t48.5 -53.5t40.5 -71.5t48.5 -78t64.5 -71t96.5 -52
t138 -20q125 0 202.5 68t77.5 178q0 75 -29 128.5t-78.5 84t-113.5 51.5t-134.5 36.5t-141 32.5t-134.5 46.5t-113.5 72.5t-78.5 116t-29 171q0 178 141.5 294t387.5 116q126 0 233 -32t174 -82.5t104.5 -110.5t36.5 -120q0 -49 -26.5 -76.5t-79.5 -27.5q-39 0 -67 19.5
t-46.5 50t-35.5 68t-40 75t-54 68t-83.5 50t-122.5 19.5q-129 0 -200.5 -70t-71.5 -174q0 -59 23.5 -105t49.5 -72.5t89.5 -53t96.5 -35.5t117 -30q92 -23 140 -37t123.5 -49t113.5 -77t68.5 -114t30.5 -166q0 -126 -75.5 -221t-197 -142.5t-268.5 -47.5z" />
    <glyph glyph-name="sacute" unicode="&#x15b;" horiz-adv-x="968" 
d="M305 1135q-42 -14 -63 16q-18 35 12 61l358 265q28 21 51.5 15.5t38.5 -34.5l43 -90q14 -25 5 -48t-39 -32zM485 -18q-191 0 -309.5 72t-118.5 163q0 46 28.5 70t74.5 24q42 0 69 -27t44 -65t37.5 -76t64.5 -65t110 -27q85 0 137 41t52 117q0 44 -20.5 76t-55 51.5
t-79 34.5t-94 27t-99 26.5t-94 37t-79 54t-55 81.5t-20.5 116q0 125 112.5 208t288.5 83q183 0 296.5 -74.5t113.5 -169.5q0 -38 -27 -63t-67 -25q-39 0 -65 26.5t-42.5 64.5t-36.5 76t-60 64.5t-99 26.5q-74 0 -123.5 -45.5t-49.5 -112.5q0 -56 33 -94t85.5 -58t116 -36
t127 -37t116 -51.5t85.5 -89t33 -140.5q0 -123 -118 -203.5t-312 -80.5z" />
    <glyph glyph-name="Scedilla" unicode="&#x15e;" horiz-adv-x="1263" 
d="M1196 391q0 -119 -68 -211t-179 -141.5t-247 -56.5l-4 -95q96 2 166 -38t70 -117q0 -76 -75 -120t-183 -44q-92 0 -172 37q-29 15 -26 55q2 32 21 36q8 2 17 -3q21 -12 57 -21.5t66 -9.5q49 0 81.5 19.5t31.5 58.5q-2 67 -123 67q-27 0 -41 17.5t-10 44.5l20 113
q-130 6 -236.5 44t-169 92t-96 113t-33.5 113q0 45 26.5 74t74.5 28q37 -1 65.5 -22t48.5 -53.5t40.5 -71.5t48.5 -78t64.5 -71t96.5 -52t138 -20q125 0 202.5 68t77.5 178q0 75 -29 128.5t-78.5 84t-113.5 51.5t-134.5 36.5t-141 32.5t-134.5 46.5t-113.5 72.5t-78.5 116
t-29 171q0 178 141.5 294t387.5 116q126 0 233 -32t174 -82.5t104.5 -110.5t36.5 -120q0 -49 -26.5 -76.5t-79.5 -27.5q-39 0 -67 19.5t-46.5 50t-35.5 68t-40 75t-54 68t-83.5 50t-122.5 19.5q-129 0 -200.5 -70t-71.5 -174q0 -59 23.5 -105t49.5 -72.5t89.5 -53
t96.5 -35.5t117 -30q92 -23 140 -37t123.5 -49t113.5 -77t68.5 -114t30.5 -166z" />
    <glyph glyph-name="scedilla" unicode="&#x15f;" horiz-adv-x="968" 
d="M915 266q0 -112 -102 -191t-272 -91l-4 -97q96 2 165.5 -38t69.5 -117q0 -76 -75 -120t-183 -44q-92 0 -172 37q-29 15 -26 55q2 32 21 36q8 2 17 -3q21 -12 57 -21.5t66 -9.5q49 0 81.5 19.5t31.5 58.5q-2 67 -123 67q-27 0 -41 17.5t-10 44.5l20 115
q-170 9 -274.5 78.5t-104.5 154.5q0 46 28.5 70t74.5 24q42 0 69 -27t44 -65t37.5 -76t64.5 -65t110 -27q85 0 137 41t52 117q0 44 -20.5 76t-55 51.5t-79 34.5t-94 27t-99 26.5t-94 37t-79 54t-55 81.5t-20.5 116q0 125 112.5 208t288.5 83q183 0 296.5 -74.5t113.5 -169.5
q0 -38 -27 -63t-67 -25q-39 0 -65 26.5t-42.5 64.5t-36.5 76t-60 64.5t-99 26.5q-74 0 -123.5 -45.5t-49.5 -112.5q0 -56 33 -94t85.5 -58t116 -36t127 -37t116 -51.5t85.5 -89t33 -140.5z" />
    <glyph glyph-name="Scaron" unicode="&#x160;" horiz-adv-x="1263" 
d="M539 1563l-230 215q-25 27 3 52t57 9l276 -153l275 153q19 12 40.5 2.5t27 -28t-8.5 -35.5l-238 -215q-34 -31 -73 -31h-56q-39 0 -73 31zM344 1130q0 -59 23.5 -105t49.5 -72.5t89.5 -53t96.5 -35.5t117 -30q92 -23 140 -37t123.5 -49t113.5 -77t68.5 -114t30.5 -166
q0 -126 -75.5 -221t-197 -142.5t-268.5 -47.5q-116 0 -216 24t-167.5 62.5t-115.5 87t-70.5 97t-22.5 93.5t26.5 74t74.5 28q37 -1 65.5 -22t48.5 -53.5t40.5 -71.5t48.5 -78t64.5 -71t96.5 -52t138 -20q125 0 202.5 68t77.5 178q0 75 -29 128.5t-78.5 84t-113.5 51.5
t-134.5 36.5t-141 32.5t-134.5 46.5t-113.5 72.5t-78.5 116t-29 171q0 178 141.5 294t387.5 116q126 0 233 -32t174 -82.5t104.5 -110.5t36.5 -120q0 -49 -26.5 -76.5t-79.5 -27.5q-39 0 -67 19.5t-46.5 50t-35.5 68t-40 75t-54 68t-83.5 50t-122.5 19.5q-129 0 -200.5 -70
t-71.5 -174z" />
    <glyph glyph-name="scaron" unicode="&#x161;" horiz-adv-x="968" 
d="M377 1161l-230 225q-16 17 -8 37.5t28 27t40 -0.5l276 -160l275 160q19 12 40.5 1.5t27 -29.5t-8.5 -36l-237 -225q-34 -31 -74 -31h-55q-40 0 -74 31zM319 772q0 -56 33 -94t85.5 -58t116 -36t127 -37t116 -51.5t85.5 -89t33 -140.5q0 -123 -118 -203.5t-312 -80.5
q-191 0 -309.5 72t-118.5 163q0 46 28.5 70t74.5 24q42 0 69 -27t44 -65t37.5 -76t64.5 -65t110 -27q85 0 137 41t52 117q0 44 -20.5 76t-55 51.5t-79 34.5t-94 27t-99 26.5t-94 37t-79 54t-55 81.5t-20.5 116q0 125 112.5 208t288.5 83q183 0 296.5 -74.5t113.5 -169.5
q0 -38 -27 -63t-67 -25q-39 0 -65 26.5t-42.5 64.5t-36.5 76t-60 64.5t-99 26.5q-74 0 -123.5 -45.5t-49.5 -112.5z" />
    <glyph glyph-name="uni0162" unicode="&#x162;" horiz-adv-x="1267" 
d="M1247 1159q4 -21 -6 -33t-29 -12h-24q-24 0 -48 36t-42.5 78.5t-51 78.5t-71.5 36h-223v-1173q0 -27 13 -48.5t28 -32.5t28 -25t13 -29v-6q0 -29 -46 -29h-110l-4 -113q96 2 165.5 -38t69.5 -117q0 -76 -75 -120t-183 -44q-92 0 -172 37q-29 15 -26 55q3 32 23 36
q7 2 16 -3q21 -12 56.5 -21.5t65.5 -9.5q49 0 81.5 19.5t31.5 58.5q-2 67 -123 67q-27 0 -41 17.5t-10 44.5l25 131h-109q-43 0 -43 29v6q0 15 12.5 29t27.5 25t27.5 32.5t12.5 48.5v1173h-223q-39 0 -70 -36t-47.5 -78.5t-39 -78.5t-46.5 -36h-25q-41 0 -35 47l37 242
q6 51 58 51h1028q27 0 40.5 -12t18.5 -39z" />
    <glyph glyph-name="uni0163" unicode="&#x163;" horiz-adv-x="761" 
d="M477 -113q96 2 166 -38t70 -117q0 -76 -75 -120t-183 -44q-92 0 -172 37q-29 15 -26 55q2 32 21 36q8 2 17 -3q21 -12 57 -21.5t66 -9.5q48 0 80.5 19.5t31.5 58.5q-2 67 -122 67q-27 0 -41.5 17.5t-10.5 44.5l23 119q-99 22 -155 104.5t-56 218.5v572h-117q-15 0 -25 10
t-10 25v28q0 37 35 37h64q78 0 126 53.5t60 145.5q3 21 14.5 33t26.5 12h31q39 0 39 -45l2 -199h258q15 0 26 -11t11 -26v-28q0 -15 -11 -25t-26 -10h-258v-574q0 -72 32 -111.5t84 -39.5q62 0 99 29.5t47 76.5q9 16 25 20.5t29 -4t13 -26.5q0 -104 -71 -184.5t-191 -89.5z
" />
    <glyph glyph-name="Tcaron" unicode="&#x164;" horiz-adv-x="1267" 
d="M524 1563l-229 215q-25 27 2.5 52t56.5 9l277 -153l274 153q19 12 41 2.5t27.5 -28t-8.5 -35.5l-238 -215q-34 -31 -74 -31h-55q-40 0 -74 31zM1247 1159q4 -21 -6 -33t-29 -12h-24q-24 0 -48 36t-42.5 78.5t-51 78.5t-71.5 36h-223v-1173q0 -27 13 -48.5t28 -32.5
t28 -25t13 -29v-6q0 -29 -46 -29h-319q-43 0 -43 29v6q0 15 12.5 29t27.5 25t27.5 32.5t12.5 48.5v1173h-223q-39 0 -70 -36t-47.5 -78.5t-39 -78.5t-46.5 -36h-25q-41 0 -35 47l37 242q6 51 58 51h1028q27 0 40.5 -12t18.5 -39z" />
    <glyph glyph-name="tcaron" unicode="&#x165;" horiz-adv-x="761" 
d="M565 1079l-14 11q-26 20 0 57q115 160 115 391q0 19 11 33t28 14h92q20 0 31.5 -12.5t11.5 -34.5q0 -147 -59 -265t-152 -188q-35 -26 -64 -6zM455 -20q-133 0 -210 84.5t-77 246.5v572h-117q-15 0 -25 10t-10 25v28q0 37 35 37h64q78 0 126 53.5t60 145.5q3 21 14.5 33
t26.5 12h31q39 0 39 -45l2 -199h258q15 0 26 -11t11 -26v-28q0 -15 -11 -25t-26 -10h-258v-574q0 -72 32 -111.5t84 -39.5q62 0 99 29.5t47 76.5q9 16 25 20.5t29 -4t13 -26.5q0 -110 -78.5 -192t-209.5 -82z" />
    <glyph glyph-name="Tbar" unicode="&#x166;" horiz-adv-x="1273" 
d="M1251 1159q4 -21 -5.5 -33t-28.5 -12h-25q-24 0 -48 36t-42.5 78.5t-51 78.5t-71.5 36h-223v-555h174q15 0 24 -8t9 -20v-41q0 -31 -33 -31h-174v-518q0 -27 13 -48.5t28 -32.5t28 -25t13 -29v-6q0 -29 -45 -29h-320q-43 0 -43 29v6q0 15 12.5 29t27.5 25t27.5 32.5
t12.5 48.5v518h-184q-31 0 -31 27v45q0 28 31 28h184v555h-223q-39 0 -70 -36t-47.5 -78.5t-39 -78.5t-46.5 -36h-25q-40 0 -34 47l36 242q6 51 58 51h1028q27 0 40.5 -12t18.5 -39z" />
    <glyph glyph-name="tbar" unicode="&#x167;" horiz-adv-x="788" 
d="M698 264q9 16 25.5 20.5t29.5 -4t13 -26.5q0 -110 -79 -192t-210 -82q-133 0 -210 84.5t-77 246.5v236h-112q-31 0 -31 26v45q0 29 31 29h112v236h-116q-15 0 -25 10t-10 25v28q0 37 35 37h63q78 0 126.5 53.5t60.5 145.5q3 21 14.5 33t26.5 12h30q39 0 39 -45l2 -199
h258q15 0 26 -11t11 -26v-28q0 -15 -11 -25t-26 -10h-258v-236h246q15 0 24 -8.5t9 -20.5v-40q0 -31 -33 -31h-246v-238q0 -72 32.5 -111.5t84.5 -39.5q62 0 98.5 29.5t46.5 76.5z" />
    <glyph glyph-name="Utilde" unicode="&#x168;" horiz-adv-x="1474" 
d="M651 1847q58 0 119 -27.5t113.5 -55t87.5 -27.5q68 0 96 55q13 27 39 27h16q15 0 22 -10.5t3 -28.5q-26 -105 -80 -158t-129 -53q-54 0 -113 28t-113 56t-94 28q-58 0 -94 -55q-1 -2 -4 -6.5t-3.5 -5.5t-3 -5t-3.5 -4.5t-3 -3.5t-3.5 -3.5t-4 -2t-5 -1.5t-5.5 -0.5
t-6 -0.5h-20q-13 0 -20.5 10.5t-4.5 28.5q16 93 71.5 154t141.5 61zM756 -20q-266 0 -430 155.5t-164 423.5v725q0 27 -12 48.5t-27 32t-27 24.5t-12 28v8q0 29 45 29h322q43 0 43 -29v-8q0 -14 -13 -28t-28 -24.5t-28 -32t-13 -48.5v-725q0 -220 106 -344.5t289 -124.5
q71 0 136 28t119 83t86 147.5t32 210.5v725q0 27 -12.5 48.5t-27.5 32t-27.5 24.5t-12.5 28v8q0 29 45 29h207q45 0 45 -29v-8q0 -14 -13.5 -28t-29.5 -24.5t-29.5 -32t-13.5 -48.5v-727q0 -267 -153 -422t-402 -155z" />
    <glyph glyph-name="utilde" unicode="&#x169;" horiz-adv-x="1177" 
d="M250 1212q-13 0 -20.5 10.5t-4.5 28.5q16 93 71.5 154t141.5 61q58 0 119 -27.5t113.5 -55t87.5 -27.5q68 0 96 55q14 27 39 27h16q15 0 22 -10.5t3 -28.5q-26 -105 -80 -158t-129 -53q-54 0 -113 28t-112.5 56t-93.5 28q-59 0 -95 -55q-1 -2 -4 -6.5t-3.5 -5.5t-3 -5
t-3.5 -4.5t-3 -3.5t-3.5 -3.5t-4 -2t-5 -1.5t-5.5 -0.5t-6 -0.5h-20zM1030 193q0 -43 11 -68.5t26 -34t30.5 -12.5t26.5 -12.5t11 -26.5q0 -29 -37 -40t-117 -11q-86 0 -126.5 34t-39.5 117q-89 -159 -307 -159q-171 0 -276 114.5t-105 331.5v354q0 28 -12 51t-27 34.5
t-27 25.5t-12 27v6q0 14 10 24t27 13l215 34q70 10 70 -30l-4 -562q0 -161 52 -243t152 -82q94 0 157 76t63 200v426q0 28 -12.5 51t-27.5 34.5t-27.5 25.5t-12.5 27v6q0 31 34 37l220 34q34 5 49.5 -1.5t15.5 -28.5v-772z" />
    <glyph glyph-name="Umacron" unicode="&#x16a;" horiz-adv-x="1474" 
d="M487 1647q-41 0 -41 36v80q0 37 41 37h551q41 0 41 -37v-80q0 -36 -41 -36h-551zM756 -20q-266 0 -430 155.5t-164 423.5v725q0 27 -12 48.5t-27 32t-27 24.5t-12 28v8q0 29 45 29h322q43 0 43 -29v-8q0 -14 -13 -28t-28 -24.5t-28 -32t-13 -48.5v-725q0 -220 106 -344.5
t289 -124.5q71 0 136 28t119 83t86 147.5t32 210.5v725q0 27 -12.5 48.5t-27.5 32t-27.5 24.5t-12.5 28v8q0 29 45 29h207q45 0 45 -29v-8q0 -14 -13.5 -28t-29.5 -24.5t-29.5 -32t-13.5 -48.5v-727q0 -267 -153 -422t-402 -155z" />
    <glyph glyph-name="umacron" unicode="&#x16b;" horiz-adv-x="1177" 
d="M313 1219q-41 0 -41 36v80q0 37 41 37h551q41 0 41 -37v-80q0 -36 -41 -36h-551zM1030 193q0 -43 11 -68.5t26 -34t30.5 -12.5t26.5 -12.5t11 -26.5q0 -29 -37 -40t-117 -11q-86 0 -126.5 34t-39.5 117q-89 -159 -307 -159q-171 0 -276 114.5t-105 331.5v354q0 28 -12 51
t-27 34.5t-27 25.5t-12 27v6q0 14 10 24t27 13l215 34q70 10 70 -30l-4 -562q0 -161 52 -243t152 -82q94 0 157 76t63 200v426q0 28 -12.5 51t-27.5 34.5t-27.5 25.5t-12.5 27v6q0 31 34 37l220 34q34 5 49.5 -1.5t15.5 -28.5v-772z" />
    <glyph glyph-name="Uring" unicode="&#x16e;" horiz-adv-x="1474" 
d="M782 1538q-113 0 -186.5 61t-73.5 150q0 96 72.5 156.5t189.5 60.5q114 0 188.5 -59.5t74.5 -149.5q0 -96 -73 -157.5t-192 -61.5zM784 1614q51 0 83 36.5t32 102.5q0 59 -32.5 96t-82.5 37q-52 0 -83 -34t-31 -99q0 -60 32.5 -99.5t81.5 -39.5zM756 -20
q-266 0 -430 155.5t-164 423.5v725q0 27 -12 48.5t-27 32t-27 24.5t-12 28v8q0 29 45 29h322q43 0 43 -29v-8q0 -14 -13 -28t-28 -24.5t-28 -32t-13 -48.5v-725q0 -220 106 -344.5t289 -124.5q71 0 136 28t119 83t86 147.5t32 210.5v725q0 27 -12.5 48.5t-27.5 32
t-27.5 24.5t-12.5 28v8q0 29 45 29h207q45 0 45 -29v-8q0 -14 -13.5 -28t-29.5 -24.5t-29.5 -32t-13.5 -48.5v-727q0 -267 -153 -422t-402 -155z" />
    <glyph glyph-name="uring" unicode="&#x16f;" horiz-adv-x="1177" 
d="M588 1106q-113 0 -186.5 61t-73.5 150q0 96 72.5 156.5t189.5 60.5q114 0 188 -59.5t74 -149.5q0 -96 -72.5 -157.5t-191.5 -61.5zM590 1454q-52 0 -83.5 -34t-31.5 -99q0 -60 32.5 -99.5t82.5 -39.5q51 0 83 36.5t32 102.5q0 59 -32.5 96t-82.5 37zM1030 193
q0 -43 11 -68.5t26 -34t30.5 -12.5t26.5 -12.5t11 -26.5q0 -29 -37 -40t-117 -11q-86 0 -126.5 34t-39.5 117q-89 -159 -307 -159q-171 0 -276 114.5t-105 331.5v354q0 28 -12 51t-27 34.5t-27 25.5t-12 27v6q0 14 10 24t27 13l215 34q70 10 70 -30l-4 -562q0 -161 52 -243
t152 -82q94 0 157 76t63 200v426q0 28 -12.5 51t-27.5 34.5t-27.5 25.5t-12.5 27v6q0 31 34 37l220 34q34 5 49.5 -1.5t15.5 -28.5v-772z" />
    <glyph glyph-name="Uhungarumlaut" unicode="&#x170;" horiz-adv-x="1474" 
d="M485 1528q-19 17 4 55l226 338q39 61 84 16l51 -47q25 -22 26 -45.5t-24 -42.5l-311 -266q-34 -27 -56 -8zM879 1528q-19 16 4 53l227 340q38 59 84 16l51 -49q25 -22 25 -45.5t-25 -42.5l-309 -264q-33 -26 -57 -8zM756 -20q-266 0 -430 155.5t-164 423.5v725
q0 27 -12 48.5t-27 32t-27 24.5t-12 28v8q0 29 45 29h322q43 0 43 -29v-8q0 -14 -13 -28t-28 -24.5t-28 -32t-13 -48.5v-725q0 -220 106 -344.5t289 -124.5q71 0 136 28t119 83t86 147.5t32 210.5v725q0 27 -12.5 48.5t-27.5 32t-27.5 24.5t-12.5 28v8q0 29 45 29h207
q45 0 45 -29v-8q0 -14 -13.5 -28t-29.5 -24.5t-29.5 -32t-13.5 -48.5v-727q0 -267 -153 -422t-402 -155z" />
    <glyph glyph-name="uhungarumlaut" unicode="&#x171;" horiz-adv-x="1177" 
d="M252 1120q-20 17 4 56l225 337q39 62 84 17l51 -47q25 -22 26 -45.5t-24 -42.5l-311 -267q-33 -27 -55 -8zM645 1120q-19 16 4 54l228 339q38 60 84 17l51 -49q25 -22 25 -45.5t-25 -42.5l-310 -265q-33 -26 -57 -8zM1030 193q0 -43 11 -68.5t26 -34t30.5 -12.5
t26.5 -12.5t11 -26.5q0 -29 -37 -40t-117 -11q-86 0 -126.5 34t-39.5 117q-89 -159 -307 -159q-171 0 -276 114.5t-105 331.5v354q0 28 -12 51t-27 34.5t-27 25.5t-12 27v6q0 14 10 24t27 13l215 34q70 10 70 -30l-4 -562q0 -161 52 -243t152 -82q94 0 157 76t63 200v426
q0 28 -12.5 51t-27.5 34.5t-27.5 25.5t-12.5 27v6q0 31 34 37l220 34q34 5 49.5 -1.5t15.5 -28.5v-772z" />
    <glyph glyph-name="Uogonek" unicode="&#x172;" horiz-adv-x="1474" 
d="M1352 1454q45 0 45 -29v-8q0 -14 -13.5 -28t-29.5 -24.5t-29.5 -32t-13.5 -48.5v-727q0 -234 -120 -384.5t-323 -184.5q-52 -56 -82 -116.5t-30 -109.5t20 -73.5t53 -24.5q20 0 50 10q31 11 42.5 -21.5t-8.5 -57.5q-8 -10 -20 -15q-38 -20 -102 -20q-84 0 -146.5 43.5
t-62.5 126.5q0 127 176 250h-2q-266 0 -430 155.5t-164 423.5v725q0 27 -12 48.5t-27 32t-27 24.5t-12 28v8q0 29 45 29h322q43 0 43 -29v-8q0 -14 -13 -28t-28 -24.5t-28 -32t-13 -48.5v-725q0 -220 106 -344.5t289 -124.5q71 0 136 28t119 83t86 147.5t32 210.5v725
q0 27 -12.5 48.5t-27.5 32t-27.5 24.5t-12.5 28v8q0 29 45 29h207z" />
    <glyph glyph-name="uogonek" unicode="&#x173;" horiz-adv-x="1177" 
d="M1135 39q0 -25 -27.5 -36.5t-85.5 -14.5q-48 -55 -76 -112.5t-28 -102.5q0 -49 20.5 -74t52.5 -25q16 0 49 11q30 11 43 -21q12 -33 -8 -60q-8 -9 -20 -14q-38 -20 -103 -20q-84 0 -146.5 43.5t-62.5 126.5q0 64 48.5 129.5t132.5 122.5q-112 19 -109 147
q-89 -159 -307 -159q-171 0 -276 114.5t-105 331.5v354q0 28 -12 51t-27 34.5t-27 25.5t-12 27v6q0 14 10 24t27 13l215 34q70 10 70 -30l-4 -562q0 -161 52 -243t152 -82q94 0 157 76t63 200v426q0 28 -12.5 51t-27.5 34.5t-27.5 25.5t-12.5 27v6q0 31 34 37l220 34
q34 5 49.5 -1.5t15.5 -28.5v-772q0 -43 11 -68.5t26 -34t30.5 -12.5t26.5 -12.5t11 -26.5z" />
    <glyph glyph-name="Wcircumflex" unicode="&#x174;" horiz-adv-x="2035" 
d="M807 1563q-20 -11 -43.5 -2.5t-29 28.5t17.5 47l225 215q33 33 74 33h49q38 0 74 -33l239 -215q17 -16 19.5 -35t-8 -31t-28.5 -16t-42 9l-285 147zM1985 1454q40 0 40 -29v-6q0 -15 -12.5 -28t-29 -22.5t-35.5 -32t-29 -52.5l-399 -1214q-22 -70 -99 -70q-69 0 -92 66
l-278 823l-287 -819q-23 -70 -88 -70q-36 0 -57 15.5t-35 50.5l-486 1216q-13 31 -34 54t-38 32.5t-29.5 23t-12.5 29.5v4q0 29 41 29h360q20 0 31.5 -8.5t11.5 -20.5v-6q0 -15 -15.5 -29.5t-31.5 -25t-25.5 -32t2.5 -50.5l361 -975l268 768l-69 209q-9 27 -29 49t-38 33.5
t-32 25.5t-14 29v4q0 29 39 29h360q39 0 39 -29v-4q0 -14 -16 -27.5t-34 -23.5t-28.5 -32.5t-1.5 -53.5l310 -975l305 975q9 27 -0.5 48t-26.5 31.5t-32 25t-15 28.5v6q0 31 41 31h240z" />
    <glyph glyph-name="wcircumflex" unicode="&#x175;" horiz-adv-x="1521" 
d="M526 1126q-20 -11 -43.5 -2t-29 29t17.5 47l225 215q33 33 74 33h49q38 0 74 -33l240 -215q23 -22 19.5 -46.5t-25.5 -33t-54 5.5l-285 148zM1489 983q35 0 35 -29v-8q0 -15 -12 -28.5t-27.5 -23.5t-34.5 -32t-29 -51l-276 -766q-8 -24 -21 -34.5t-37 -10.5h-53
q-49 0 -61 45l-211 664l-211 -664q-15 -45 -59 -45h-37q-45 0 -62 45l-307 766q-13 34 -35.5 59.5t-37.5 41.5t-15 34v8q0 29 37 29h315q35 0 35 -31v-6q0 -13 -14 -26.5t-28 -24t-21.5 -32.5t4.5 -54l192 -559l213 690q12 37 41 37l98 2q32 0 41 -35l209 -696l189 540
q14 38 3.5 64.5t-28.5 38.5t-35.5 26.5t-17.5 28.5v6q0 13 11 22t26 9h221z" />
    <glyph glyph-name="Ycircumflex" unicode="&#x176;" horiz-adv-x="1376" 
d="M438 1563q-20 -11 -43.5 -2.5t-29 28.5t17.5 47l225 215q33 33 74 33h49q38 0 74 -33l239 -215q17 -16 19.5 -35t-8 -31t-28.5 -16t-42 9l-285 147zM1317 1454q43 0 43 -29v-6q0 -19 -17.5 -33t-48 -39t-51.5 -63l-414 -694v-420q0 -27 13 -48.5t28 -32.5t28 -25t13 -29
v-6q0 -29 -43 -29h-321q-43 0 -43 29v6q0 15 12 29t26 25t26 32.5t12 48.5v401l-455 713q-21 34 -53 59.5t-51 41t-19 34.5v6q0 29 45 29h377q45 0 45 -29v-6q0 -14 -17.5 -29.5t-35 -27t-26.5 -32.5t7 -46l357 -612l362 612q17 27 7 48.5t-28.5 32.5t-36.5 25.5t-18 28.5v6
q0 29 41 29h236z" />
    <glyph glyph-name="ycircumflex" unicode="&#x177;" horiz-adv-x="1095" 
d="M313 1133q-20 -11 -43.5 -2.5t-29 28.5t17.5 47l225 215q33 33 74 33h49q38 0 74 -33l240 -215q23 -22 19.5 -46.5t-25.5 -32.5t-54 6l-285 147zM1063 983q15 0 25 -8t10 -21v-8q0 -20 -16 -36.5t-41.5 -43t-41.5 -63.5l-387 -848q-21 -47 -33 -73.5t-37 -74t-45 -75.5
t-51 -64t-61 -56t-69.5 -34t-82.5 -14q-121 0 -198.5 62.5t-77.5 137.5q0 45 27 74t73 29q38 0 63 -22.5t38 -54.5t25 -64.5t33.5 -55t53.5 -22.5q56 0 116.5 86.5t113.5 218.5l-400 850q-14 30 -34 53.5t-34.5 34.5t-25 25t-10.5 30v8q0 13 10.5 21t26.5 8h323q15 0 25 -9
t10 -22v-6q0 -15 -11 -29t-21.5 -25t-13.5 -34.5t13 -56.5l271 -621l254 598q18 41 7.5 69t-31 41t-40.5 28t-20 30v6q0 14 10 22.5t27 8.5h227z" />
    <glyph glyph-name="Ydieresis" unicode="&#x178;" horiz-adv-x="1376" 
d="M504 1604q-69 0 -112.5 39.5t-43.5 101.5t43.5 101.5t112.5 39.5q68 0 109.5 -39.5t41.5 -101.5t-41.5 -101.5t-109.5 -39.5zM934 1604q-69 0 -111.5 39.5t-42.5 101.5t42.5 101.5t111.5 39.5q67 0 110 -39.5t43 -101.5t-43 -101.5t-110 -39.5zM1317 1454q43 0 43 -29v-6
q0 -19 -17.5 -33t-48 -39t-51.5 -63l-414 -694v-420q0 -27 13 -48.5t28 -32.5t28 -25t13 -29v-6q0 -29 -43 -29h-321q-43 0 -43 29v6q0 15 12 29t26 25t26 32.5t12 48.5v401l-455 713q-21 34 -53 59.5t-51 41t-19 34.5v6q0 29 45 29h377q45 0 45 -29v-6q0 -14 -17.5 -29.5
t-35 -27t-26.5 -32.5t7 -46l357 -612l362 612q17 27 7 48.5t-28.5 32.5t-36.5 25.5t-18 28.5v6q0 29 41 29h236z" />
    <glyph glyph-name="Zacute" unicode="&#x179;" horiz-adv-x="1255" 
d="M465 1595q-43 -3 -57 29q-12 38 22 57l404 191q31 14 53 4.5t31 -39.5l24 -96q9 -28 -4 -48.5t-45 -23.5zM1198 340q49 0 37 -45l-59 -250q-14 -45 -50 -45h-1040q-19 0 -32 12t-13 29v16q0 19 33 66l819 1229h-563q-33 0 -65.5 -35.5t-54 -77.5t-51.5 -77.5t-59 -35.5
h-10q-51 0 -39 58l55 219q6 27 19 39t41 12h975q17 0 29 -12t12 -29v-20q0 -19 -37 -76l-813 -1215h600q36 0 69 24.5t57 59.5t45.5 70t44 59.5t44.5 24.5h6z" />
    <glyph glyph-name="zacute" unicode="&#x17a;" horiz-adv-x="999" 
d="M371 1135q-43 -14 -64 16q-18 35 12 61l359 265q28 21 51.5 15.5t38.5 -34.5l43 -90q14 -25 4.5 -48t-39.5 -32zM946 289q46 0 31 -51l-57 -193q-14 -45 -52 -45h-774q-18 0 -31.5 12t-13.5 29v16q0 8 4 18.5t7 15.5t12 18t10 14l567 788h-311q-32 0 -61 -21t-49.5 -51
t-40 -60t-41.5 -51t-44 -21h-10q-22 0 -31 16.5t0 42.5l52 166q10 28 21.5 39.5t37.5 11.5h702q17 0 29 -12t12 -29v-20q0 -18 -43 -76l-565 -774h367q44 0 84 34t64.5 74.5t54.5 74.5t57 34h12z" />
    <glyph glyph-name="Zdotaccent" unicode="&#x17b;" horiz-adv-x="1255" 
d="M664 1573q-73 0 -117.5 40.5t-44.5 104.5t45 106t117 42q70 0 113.5 -42t43.5 -106t-43.5 -104.5t-113.5 -40.5zM1198 340q49 0 37 -45l-59 -250q-14 -45 -50 -45h-1040q-19 0 -32 12t-13 29v16q0 19 33 66l819 1229h-563q-33 0 -65.5 -35.5t-54 -77.5t-51.5 -77.5
t-59 -35.5h-10q-51 0 -39 58l55 219q6 27 19 39t41 12h975q17 0 29 -12t12 -29v-20q0 -19 -37 -76l-813 -1215h600q36 0 69 24.5t57 59.5t45.5 70t44 59.5t44.5 24.5h6z" />
    <glyph glyph-name="zdotaccent" unicode="&#x17c;" horiz-adv-x="999" 
d="M547 1153q-76 0 -123 43t-47 111q0 67 47 110t123 43q74 0 120 -43t46 -110q0 -68 -46 -111t-120 -43zM946 289q46 0 31 -51l-57 -193q-14 -45 -52 -45h-774q-18 0 -31.5 12t-13.5 29v16q0 8 4 18.5t7 15.5t12 18t10 14l567 788h-311q-32 0 -61 -21t-49.5 -51t-40 -60
t-41.5 -51t-44 -21h-10q-22 0 -31 16.5t0 42.5l52 166q10 28 21.5 39.5t37.5 11.5h702q17 0 29 -12t12 -29v-20q0 -18 -43 -76l-565 -774h367q44 0 84 34t64.5 74.5t54.5 74.5t57 34h12z" />
    <glyph glyph-name="Zcaron" unicode="&#x17d;" horiz-adv-x="1255" 
d="M545 1563l-230 215q-25 27 3 52t57 9l276 -153l275 153q19 12 40.5 2.5t27 -28t-8.5 -35.5l-237 -215q-34 -31 -74 -31h-56q-39 0 -73 31zM1198 340q49 0 37 -45l-59 -250q-14 -45 -50 -45h-1040q-19 0 -32 12t-13 29v16q0 19 33 66l819 1229h-563q-33 0 -65.5 -35.5
t-54 -77.5t-51.5 -77.5t-59 -35.5h-10q-51 0 -39 58l55 219q6 27 19 39t41 12h975q17 0 29 -12t12 -29v-20q0 -19 -37 -76l-813 -1215h600q36 0 69 24.5t57 59.5t45.5 70t44 59.5t44.5 24.5h6z" />
    <glyph glyph-name="zcaron" unicode="&#x17e;" horiz-adv-x="999" 
d="M440 1161l-229 225q-16 17 -8.5 37.5t27.5 27t40 -0.5l277 -160l274 160q19 12 41 1.5t27.5 -29.5t-8.5 -36l-238 -225q-34 -31 -74 -31h-55q-40 0 -74 31zM946 289q46 0 31 -51l-57 -193q-14 -45 -52 -45h-774q-18 0 -31.5 12t-13.5 29v16q0 8 4 18.5t7 15.5t12 18
t10 14l567 788h-311q-32 0 -61 -21t-49.5 -51t-40 -60t-41.5 -51t-44 -21h-10q-22 0 -31 16.5t0 42.5l52 166q10 28 21.5 39.5t37.5 11.5h702q17 0 29 -12t12 -29v-20q0 -18 -43 -76l-565 -774h367q44 0 84 34t64.5 74.5t54.5 74.5t57 34h12z" />
    <glyph glyph-name="uni01EA" unicode="&#x1ea;" horiz-adv-x="1570" 
d="M1501 719q0 -266 -151 -465.5t-389 -255.5q-56 -61 -89.5 -124t-33.5 -114q0 -49 20 -73.5t53 -24.5q20 0 50 10q31 11 42.5 -21.5t-8.5 -57.5q-8 -10 -20 -15q-38 -20 -103 -20q-84 0 -146 43.5t-62 126.5q0 65 48.5 131t133.5 123q-16 -2 -47 -2q-159 0 -296 60.5
t-231 163t-147 238.5t-53 285q0 214 90 384.5t253.5 267t372.5 96.5q157 0 292 -61.5t226.5 -165.5t143 -241t51.5 -288zM315 911q0 -226 67.5 -412.5t194 -297.5t287.5 -111q171 0 282 131t111 318q0 227 -69 414.5t-197 299t-289 111.5q-173 0 -280 -126.5t-107 -326.5z
" />
    <glyph glyph-name="uni01EB" unicode="&#x1eb;" horiz-adv-x="1171" 
d="M1108 485q0 -130 -53 -238.5t-151.5 -178.5t-227.5 -84q-103 -125 -103 -215q0 -49 20.5 -74t53.5 -25q16 0 49 11q30 11 43 -21q12 -33 -8 -60q-8 -9 -20 -14q-38 -20 -103 -20q-84 0 -146.5 43.5t-62.5 126.5q0 123 170 246q-117 7 -215 53t-161.5 117t-98.5 161.5
t-35 188.5q0 143 68 258.5t184.5 179.5t255.5 64q119 0 221 -41.5t171.5 -112t109 -165t39.5 -200.5zM301 582q0 -129 42 -248t122.5 -198t179.5 -79q98 0 159.5 91t61.5 253q0 142 -41.5 262.5t-116.5 191.5t-167 71q-111 0 -175.5 -89t-64.5 -255z" />
    <glyph glyph-name="AEacute" unicode="&#x1fc;" horiz-adv-x="1931" 
d="M1016 1595q-44 -4 -58 29q-6 18 1.5 33.5t21.5 23.5l403 191q31 14 53 4.5t31 -39.5l25 -96q9 -28 -4 -48.5t-45 -23.5zM1866 319q37 0 28 -38l-51 -228q-5 -27 -17.5 -40t-39.5 -13h-862q-45 0 -45 29v6q0 16 12 31t26.5 26t26.5 32t12 48v203h-505l-117 -205
q-16 -25 -9.5 -46t21 -32.5t29 -26t14.5 -28.5v-6q0 -14 -12.5 -22.5t-32.5 -8.5h-313q-45 0 -45 31v6q0 18 20 32.5t53 39.5t54 61l635 1079q19 29 13.5 56t-19.5 43.5t-29 35t-15 31.5v10q0 13 11.5 21t29.5 8h990q27 0 40 -12t19 -39l45 -213q4 -21 -6 -33t-29 -12h-10
q-26 0 -56 32.5t-54 71t-62.5 71t-79.5 32.5h-285q-69 0 -69 -82v-469h305q30 0 54.5 21t37 45.5t27.5 45.5t30 21h13q30 0 30 -45v-281q0 -43 -30 -43h-13q-15 0 -30 19.5t-27.5 43t-37 43t-54.5 19.5h-305v-487q0 -46 24.5 -73.5t65.5 -27.5h323q37 0 70 22.5t56.5 54
t44.5 63.5t43 54.5t44 22.5h13zM514 485h442v779z" />
    <glyph glyph-name="aeacute" unicode="&#x1fd;" horiz-adv-x="1634" 
d="M709 1133q-43 -14 -64 16q-18 35 12 61l359 265q28 21 51.5 15.5t38.5 -34.5l43 -90q14 -25 4.5 -48t-39.5 -32zM1513 309q17 23 43.5 16.5t22.5 -36.5q-7 -48 -37 -98.5t-79.5 -97t-128 -76t-171.5 -29.5q-127 0 -230.5 55.5t-166.5 157.5q-22 -95 -102.5 -158
t-212.5 -63q-170 0 -276.5 82.5t-106.5 226.5q0 143 103.5 225t268.5 82q147 0 240 -70l-4 41q-18 188 -66 274.5t-151 86.5q-52 0 -87 -25.5t-53 -62t-33.5 -73t-41 -62t-62.5 -25.5q-47 0 -74.5 26.5t-27.5 69.5q0 98 113 163t266 65q222 0 348 -154q66 76 159.5 119
t200.5 43q95 0 170.5 -26.5t120.5 -70.5t68.5 -96.5t23.5 -107.5q0 -106 -104 -144l-496 -182q39 -106 116.5 -165.5t184.5 -59.5q87 0 147.5 40.5t114.5 108.5zM1126 934q-96 0 -153.5 -92.5t-57.5 -241.5q0 -64 13 -131l340 147q53 23 53 86q0 45 -23 97.5t-69.5 93.5
t-102.5 41zM518 59q85 0 135.5 69t48.5 153l-6 65q-10 78 -63 123t-131 45q-85 0 -138 -49t-53 -127q0 -121 56.5 -200t150.5 -79z" />
    <glyph glyph-name="Oslashacute" unicode="&#x1fe;" horiz-adv-x="1599" 
d="M616 1595q-43 -3 -57 29q-6 18 1.5 33.5t21.5 23.5l403 191q31 14 53 4.5t31 -39.5l25 -96q9 -28 -4.5 -48.5t-45.5 -23.5zM1362 1202q156 -207 156 -483q0 -206 -92.5 -375.5t-253.5 -266.5t-357 -97q-307 0 -514 210l-141 -135q-23 -17 -43 0l-39 35q-19 19 10 45
l143 137q-143 197 -143 455q0 214 90 384.5t254 267t373 96.5q286 0 485 -193l125 119q29 29 51 8l35 -33q22 -19 -6 -47zM332 911q0 -258 88 -460l700 669q-74 115 -176.5 179.5t-224.5 64.5q-173 0 -280 -126.5t-107 -326.5zM881 90q171 0 282 131t111 318q0 277 -100 485
l-705 -672q75 -124 180.5 -193t231.5 -69z" />
    <glyph glyph-name="oslashacute" unicode="&#x1ff;" horiz-adv-x="1187" 
d="M403 1135q-42 -14 -63 16q-18 35 12 61l359 265q28 21 51.5 15.5t38.5 -34.5l43 -90q14 -25 4.5 -48t-39.5 -32zM1110 924l-113 -107q119 -141 119 -332q0 -140 -60.5 -255t-174 -182.5t-258.5 -67.5q-221 0 -369 122l-117 -112q-19 -18 -37 0l-34 33q-20 20 6 43
l112 106q-116 140 -116 330q0 143 68 258.5t184 179.5t255 64q209 0 351 -117l110 106q11 11 24.5 12t24.5 -8l29 -28q20 -21 -4 -45zM309 582q0 -133 43 -246l439 422q-44 78 -107 123t-135 45q-111 0 -175.5 -89t-64.5 -255zM874 401q0 142 -40 258l-439 -421
q48 -84 114 -132.5t144 -48.5q98 0 159.5 91t61.5 253z" />
    <glyph glyph-name="uni0218" unicode="&#x218;" horiz-adv-x="1263" 
d="M655 -20q-116 0 -216 24t-167.5 62.5t-115.5 87t-70.5 97t-22.5 93.5t26.5 74t74.5 28q37 -1 65.5 -22t48.5 -53.5t40.5 -71.5t48.5 -78t64.5 -71t96.5 -52t138 -20q125 0 202.5 68t77.5 178q0 75 -29 128.5t-78.5 84t-113.5 51.5t-134.5 36.5t-141 32.5t-134.5 46.5
t-113.5 72.5t-78.5 116t-29 171q0 178 141.5 294t387.5 116q126 0 233 -32t174 -82.5t104.5 -110.5t36.5 -120q0 -49 -26.5 -76.5t-79.5 -27.5q-39 0 -67 19.5t-46.5 50t-35.5 68t-40 75t-54 68t-83.5 50t-122.5 19.5q-129 0 -200.5 -70t-71.5 -174q0 -59 23.5 -105
t49.5 -72.5t89.5 -53t96.5 -35.5t117 -30q92 -23 140 -37t123.5 -49t113.5 -77t68.5 -114t30.5 -166q0 -126 -75.5 -221t-197 -142.5t-268.5 -47.5zM582 -633q-25 -14 -45.5 7t0.5 42q54 53 77 89t29 79q7 33 -18 33q-46 0 -77.5 38t-31.5 97q0 65 38.5 107.5t102.5 42.5
q63 0 105.5 -46.5t42.5 -125.5q0 -103 -56.5 -197t-166.5 -166z" />
    <glyph glyph-name="uni0219" unicode="&#x219;" horiz-adv-x="968" 
d="M485 -18q-191 0 -309.5 72t-118.5 163q0 46 28.5 70t74.5 24q42 0 69 -27t44 -65t37.5 -76t64.5 -65t110 -27q85 0 137 41t52 117q0 44 -20.5 76t-55 51.5t-79 34.5t-94 27t-99 26.5t-94 37t-79 54t-55 81.5t-20.5 116q0 125 112.5 208t288.5 83q183 0 296.5 -74.5
t113.5 -169.5q0 -38 -27 -63t-67 -25q-39 0 -65 26.5t-42.5 64.5t-36.5 76t-60 64.5t-99 26.5q-74 0 -123.5 -45.5t-49.5 -112.5q0 -56 33 -94t85.5 -58t116 -36t127 -37t116 -51.5t85.5 -89t33 -140.5q0 -123 -118 -203.5t-312 -80.5zM420 -633q-25 -14 -45.5 7t0.5 42
q54 53 77 89t29 79q7 33 -18 33q-46 0 -77.5 38t-31.5 97q0 65 39 107.5t103 42.5q62 0 104.5 -46.5t42.5 -125.5q0 -103 -56.5 -197t-166.5 -166z" />
    <glyph glyph-name="uni021A" unicode="&#x21a;" horiz-adv-x="1267" 
d="M469 0q-43 0 -43 29v6q0 15 12.5 29t27.5 25t27.5 32.5t12.5 48.5v1173h-223q-39 0 -70 -36t-47.5 -78.5t-39 -78.5t-46.5 -36h-25q-41 0 -35 47l37 242q6 51 58 51h1028q27 0 40.5 -12t18.5 -39l45 -244q4 -21 -6 -33t-29 -12h-24q-24 0 -48 36t-42.5 78.5t-51 78.5
t-71.5 36h-223v-1173q0 -27 13 -48.5t28 -32.5t28 -25t13 -29v-6q0 -29 -46 -29h-319zM565 -633q-25 -14 -45.5 7t0.5 42q54 53 77.5 89.5t29.5 78.5q7 33 -19 33q-46 0 -77 38t-31 97q0 65 38.5 107.5t102.5 42.5q62 0 104.5 -46.5t42.5 -125.5q0 -103 -56.5 -197
t-166.5 -166z" />
    <glyph glyph-name="uni021B" unicode="&#x21b;" horiz-adv-x="761" 
d="M455 -20q-133 0 -210 84.5t-77 246.5v572h-117q-15 0 -25 10t-10 25v28q0 37 35 37h64q78 0 126 53.5t60 145.5q3 21 14.5 33t26.5 12h31q39 0 39 -45l2 -199h258q15 0 26 -11t11 -26v-28q0 -15 -11 -25t-26 -10h-258v-574q0 -72 32 -111.5t84 -39.5q62 0 99 29.5
t47 76.5q9 16 25 20.5t29 -4t13 -26.5q0 -110 -78.5 -192t-209.5 -82zM354 -623q-25 -14 -45.5 7.5t0.5 42.5q55 53 78 89t29 78q7 33 -19 33q-46 0 -77 38t-31 97q0 65 38.5 107.5t102.5 42.5q63 0 105.5 -46.5t42.5 -125.5q0 -103 -56.5 -197t-167.5 -166z" />
    <glyph glyph-name="uni0237" unicode="&#x237;" horiz-adv-x="528" 
d="M115 -387q-118 0 -189 48t-71 134q0 46 29 74.5t75 28.5q41 0 66 -20.5t35.5 -50t19.5 -58.5t28 -49.5t52 -20.5q39 0 63.5 28.5t24.5 73.5q0 50 -21 95.5t-42 88t-21 85.5v639q0 29 -12 52.5t-26 35t-26 26t-12 27.5v6q0 19 35 37l213 102q34 15 54 4t20 -38v-961
q0 -137 -50 -240q-74 -147 -245 -147z" />
    <glyph glyph-name="circumflex" unicode="&#x2c6;" 
d="M741 1198q23 -22 20 -46.5t-25 -33t-54 5.5l-285 148l-262 -148q-20 -11 -43.5 -2t-29 29t17.5 47l225 215q33 33 74 33h49q38 0 74 -33z" />
    <glyph glyph-name="caron" unicode="&#x2c7;" 
d="M686 1442q19 12 40.5 1.5t27 -29.5t-8.5 -36l-237 -225q-34 -31 -74 -31h-55q-40 0 -74 31l-229 225q-16 17 -8.5 37.5t27.5 27t40 -0.5l277 -160z" />
    <glyph glyph-name="breve" unicode="&#x2d8;" 
d="M453 1133q-131 0 -222.5 77t-107.5 187q-4 26 15 40t42 11.5t31 -18.5q23 -62 90 -98t152 -36q86 0 153 36t90 98q8 15 30.5 17t41.5 -12t16 -38q-14 -110 -105 -187t-226 -77z" />
    <glyph glyph-name="dotaccent" unicode="&#x2d9;" 
d="M305 1153q-76 0 -123 43t-47 111q0 67 47 110t123 43q74 0 120 -43t46 -110q0 -68 -46 -111t-120 -43z" />
    <glyph glyph-name="ring" unicode="&#x2da;" 
d="M434 1098q-113 0 -186.5 61t-73.5 150q0 96 72.5 156.5t189.5 60.5q114 0 188 -59.5t74 -149.5q0 -96 -72.5 -157.5t-191.5 -61.5zM436 1174q51 0 83 36.5t32 102.5q0 59 -32.5 96t-82.5 37q-52 0 -83 -34t-31 -99q0 -60 32.5 -99.5t81.5 -39.5z" />
    <glyph glyph-name="ogonek" unicode="&#x2db;" 
d="M692 -446q-84 0 -146.5 43.5t-62.5 126.5q0 73 61 146t165 134h82q-60 -62 -97 -128.5t-37 -119.5q0 -49 20.5 -73.5t53.5 -24.5q19 0 49 10q31 11 43 -21.5t-8 -57.5q-8 -10 -20 -15q-38 -20 -103 -20z" />
    <glyph glyph-name="tilde" unicode="&#x2dc;" 
d="M362 1458q58 0 119 -27.5t113.5 -55t87.5 -27.5q68 0 96 55q14 27 39 27h17q33 0 24 -39q-26 -105 -80 -158t-129 -53q-54 0 -113 28t-112.5 56t-93.5 28q-58 0 -94 -55q-1 -2 -4 -6.5t-3.5 -5.5t-3 -5t-3.5 -4.5t-3 -3.5t-3.5 -3.5t-4 -2t-5 -1.5t-5.5 -0.5t-6 -0.5h-21
q-13 0 -20 10.5t-4 28.5q16 93 71 154t141 61z" />
    <glyph glyph-name="hungarumlaut" unicode="&#x2dd;" 
d="M119 1112q-19 17 4 55l225 338q39 62 84 17l51 -47q25 -22 26 -46t-24 -43l-311 -266q-33 -27 -55 -8zM512 1112q-19 16 4 53l227 340q38 60 84 17l52 -49q25 -22 25 -46t-25 -43l-310 -264q-33 -26 -57 -8z" />
    <glyph glyph-name="gravecomb" unicode="&#x300;" horiz-adv-x="0" 
d="M-539 1124l-405 156q-30 9 -39 31.5t4 48.5l45 90q14 28 37 33.5t53 -15.5l357 -264q14 -11 17.5 -28.5t-5.5 -32.5q-18 -30 -64 -19z" />
    <glyph glyph-name="acutecomb" unicode="&#x301;" horiz-adv-x="0" 
d="M-727 1126q-43 -14 -64 17q-18 34 13 61l358 264q28 21 51.5 15.5t38.5 -33.5l43 -90q14 -25 4.5 -48t-39.5 -32z" />
    <glyph glyph-name="uni0302" unicode="&#x302;" horiz-adv-x="0" 
d="M-82 1198q23 -22 20 -46.5t-25 -33t-54 5.5l-285 148l-262 -148q-20 -11 -43.5 -2t-29 29t17.5 47l225 215q33 33 74 33h49q37 0 73 -33z" />
    <glyph glyph-name="tildecomb" unicode="&#x303;" horiz-adv-x="0" 
d="M-866 1458q45 0 94 -17t83.5 -38t73.5 -38t68 -17q68 0 96 55q13 27 39 27h17q33 0 24 -39q-26 -105 -80 -158t-129 -53q-54 0 -113 28t-112.5 56t-93.5 28q-58 0 -94 -55q-1 -2 -4 -6.5t-3.5 -5.5t-3 -5t-3.5 -4.5t-3 -3.5t-3.5 -3.5t-4 -2t-5 -1.5t-5.5 -0.5t-6 -0.5
h-21q-13 0 -20 10.5t-4 28.5q16 93 71.5 154t141.5 61z" />
    <glyph glyph-name="uni0304" unicode="&#x304;" horiz-adv-x="0" 
d="M-885 1210q-41 0 -41 37v80q0 37 41 37h551q41 0 41 -37v-80q0 -37 -41 -37h-551z" />
    <glyph glyph-name="uni0306" unicode="&#x306;" horiz-adv-x="0" 
d="M-584 1133q-131 0 -222 77t-107 187q-4 26 15 40t42 11.5t31 -18.5q23 -62 89.5 -98t151.5 -36q86 0 153.5 36t90.5 98q8 15 30.5 17t41.5 -12t16 -38q-14 -110 -105.5 -187t-226.5 -77z" />
    <glyph glyph-name="uni0307" unicode="&#x307;" horiz-adv-x="0" 
d="M-307 1153q-76 0 -123 43t-47 111q0 67 47 110t123 43q74 0 120 -43t46 -110q0 -68 -46 -111t-120 -43z" />
    <glyph glyph-name="uni0308" unicode="&#x308;" horiz-adv-x="0" 
d="M-860 1159q-69 0 -112.5 39.5t-43.5 101.5t43.5 102t112.5 40q68 0 109.5 -40t41.5 -102t-41.5 -101.5t-109.5 -39.5zM-430 1159q-69 0 -111.5 39.5t-42.5 101.5t43 102t111 40q67 0 110.5 -40t43.5 -102t-43.5 -101.5t-110.5 -39.5z" />
    <glyph glyph-name="uni030A" unicode="&#x30a;" horiz-adv-x="0" 
d="M-629 1098q-113 0 -186.5 61t-73.5 150q0 96 72.5 156.5t189.5 60.5q114 0 188 -59.5t74 -149.5q0 -96 -72.5 -157.5t-191.5 -61.5zM-627 1174q51 0 83 36.5t32 102.5q0 59 -32.5 96t-82.5 37q-52 0 -83 -34t-31 -99q0 -60 32.5 -99.5t81.5 -39.5z" />
    <glyph glyph-name="uni030B" unicode="&#x30b;" horiz-adv-x="0" 
d="M-899 1112q-19 17 4 55l225 338q39 62 84 17l51 -47q25 -22 26 -46t-23 -43l-312 -266q-33 -27 -55 -8zM-506 1112q-19 16 4 53l228 340q38 60 84 17l51 -49q25 -22 25 -46t-25 -43l-310 -264q-33 -26 -57 -8z" />
    <glyph glyph-name="uni030C" unicode="&#x30c;" horiz-adv-x="0" 
d="M-137 1442q19 12 40.5 1.5t27 -29.5t-8.5 -36l-237 -225q-34 -31 -74 -31h-55q-40 0 -74 31l-230 225q-16 17 -8 37.5t28 27t40 -0.5l276 -160z" />
    <glyph glyph-name="uni0312" unicode="&#x312;" horiz-adv-x="0" 
d="M-356 831q-25 -15 -45.5 7t0.5 45q55 53 78.5 90.5t29.5 81.5q7 32 -18 32q-48 0 -80.5 38.5t-32.5 99.5q0 68 40 111.5t105 43.5q64 0 108 -47.5t44 -128.5q0 -221 -229 -373z" />
    <glyph glyph-name="uni0326" unicode="&#x326;" horiz-adv-x="0" 
d="M-662 -633q-25 -14 -45.5 7t0.5 42q54 53 77.5 89.5t29.5 78.5q7 33 -18 33q-46 0 -77.5 38t-31.5 97q0 65 38.5 107.5t102.5 42.5q63 0 105.5 -46.5t42.5 -125.5q0 -103 -56.5 -197t-167.5 -166z" />
    <glyph glyph-name="uni0327" unicode="&#x327;" horiz-adv-x="0" 
d="M-537 -113q96 2 166 -38t70 -117q0 -76 -75 -120t-183 -44q-92 0 -172 37q-29 15 -26 55q2 32 21 36q8 2 17 -3q21 -12 57 -21.5t66 -9.5q49 0 81.5 19.5t31.5 58.5q-2 67 -123 67q-27 0 -41 17.5t-10 44.5l24 131h101z" />
    <glyph glyph-name="uni0328" unicode="&#x328;" horiz-adv-x="0" 
d="M-537 -446q-84 0 -146 43.5t-62 126.5q0 73 61 146t164 134h82q-60 -61 -96.5 -128t-36.5 -120q0 -49 20 -73.5t53 -24.5q19 0 49 10q31 11 43 -21.5t-8 -57.5q-8 -10 -20 -15q-38 -20 -103 -20z" />
    <glyph glyph-name="uni0335" unicode="&#x335;" horiz-adv-x="0" 
d="M-834 545q-30 0 -30 26v45q0 29 30 29h605q15 0 23.5 -8.5t8.5 -20.5v-41q0 -30 -32 -30h-605z" />
    <glyph glyph-name="uni0336" unicode="&#x336;" horiz-adv-x="0" 
d="M-1409 532q-15 0 -26 9t-11 22v37q0 14 10.5 22.5t26.5 8.5h1429q18 0 29.5 -8t11.5 -23v-37q0 -13 -12 -22t-29 -9h-1429z" />
    <glyph glyph-name="uni0337" unicode="&#x337;" horiz-adv-x="0" 
d="M-889 338q-22 -14 -39 6l-28 45q-16 21 10 41l534 352q14 10 28 9t22 -13l26 -43q7 -9 4 -21.5t-16 -21.5z" />
    <glyph glyph-name="uni0338" unicode="&#x338;" horiz-adv-x="0" 
d="M-1135 43l-34 33q-20 20 6 43l964 928q11 11 24.5 12t24.5 -8l29 -29q9 -9 8 -21.5t-12 -23.5l-973 -934q-18 -19 -37 0z" />
    <glyph glyph-name="Wgrave" unicode="&#x1e80;" horiz-adv-x="2035" 
d="M821 1667q-31 3 -44 23t-5 49l27 96q8 31 30 41.5t54 -4.5l401 -191q15 -8 22 -24t3 -33q-12 -31 -60 -31zM1985 1454q40 0 40 -29v-6q0 -15 -12.5 -28t-29 -22.5t-35.5 -32t-29 -52.5l-399 -1214q-22 -70 -99 -70q-69 0 -92 66l-278 823l-287 -819q-23 -70 -88 -70
q-36 0 -57 15.5t-35 50.5l-486 1216q-13 31 -34 54t-38 32.5t-29.5 23t-12.5 29.5v4q0 29 41 29h360q20 0 31.5 -8.5t11.5 -20.5v-6q0 -15 -15.5 -29.5t-31.5 -25t-25.5 -32t2.5 -50.5l361 -975l268 768l-69 209q-9 27 -29 49t-38 33.5t-32 25.5t-14 29v4q0 29 39 29h360
q39 0 39 -29v-4q0 -14 -16 -27.5t-34 -23.5t-28.5 -32.5t-1.5 -53.5l310 -975l305 975q9 27 -0.5 48t-26.5 31.5t-32 25t-15 28.5v6q0 31 41 31h240z" />
    <glyph glyph-name="wgrave" unicode="&#x1e81;" horiz-adv-x="1521" 
d="M569 1274q-30 9 -38.5 31.5t4.5 48.5l45 90q14 28 37 33.5t53 -15.5l356 -264q14 -11 17.5 -28.5t-5.5 -32.5q-18 -30 -63 -19zM1489 983q35 0 35 -29v-8q0 -15 -12 -28.5t-27.5 -23.5t-34.5 -32t-29 -51l-276 -766q-8 -24 -21 -34.5t-37 -10.5h-53q-49 0 -61 45
l-211 664l-211 -664q-15 -45 -59 -45h-37q-45 0 -62 45l-307 766q-13 34 -35.5 59.5t-37.5 41.5t-15 34v8q0 29 37 29h315q35 0 35 -31v-6q0 -13 -14 -26.5t-28 -24t-21.5 -32.5t4.5 -54l192 -559l213 690q12 37 41 37l98 2q32 0 41 -35l209 -696l189 540q14 38 3.5 64.5
t-28.5 38.5t-35.5 26.5t-17.5 28.5v6q0 13 11 22t26 9h221z" />
    <glyph glyph-name="Wacute" unicode="&#x1e82;" horiz-adv-x="2035" 
d="M897 1595q-43 -3 -57 29q-12 38 22 57l404 191q31 14 53 4.5t31 -39.5l24 -96q9 -28 -4 -48.5t-45 -23.5zM1985 1454q40 0 40 -29v-6q0 -15 -12.5 -28t-29 -22.5t-35.5 -32t-29 -52.5l-399 -1214q-22 -70 -99 -70q-69 0 -92 66l-278 823l-287 -819q-23 -70 -88 -70
q-36 0 -57 15.5t-35 50.5l-486 1216q-13 31 -34 54t-38 32.5t-29.5 23t-12.5 29.5v4q0 29 41 29h360q20 0 31.5 -8.5t11.5 -20.5v-6q0 -15 -15.5 -29.5t-31.5 -25t-25.5 -32t2.5 -50.5l361 -975l268 768l-69 209q-9 27 -29 49t-38 33.5t-32 25.5t-14 29v4q0 29 39 29h360
q39 0 39 -29v-4q0 -14 -16 -27.5t-34 -23.5t-28.5 -32.5t-1.5 -53.5l310 -975l305 975q9 27 -0.5 48t-26.5 31.5t-32 25t-15 28.5v6q0 31 41 31h240z" />
    <glyph glyph-name="wacute" unicode="&#x1e83;" horiz-adv-x="1521" 
d="M627 1128q-43 -14 -64 17q-18 35 12 61l359 264q28 21 51.5 15.5t38.5 -33.5l43 -90q14 -25 4.5 -48t-39.5 -32zM1489 983q35 0 35 -29v-8q0 -15 -12 -28.5t-27.5 -23.5t-34.5 -32t-29 -51l-276 -766q-8 -24 -21 -34.5t-37 -10.5h-53q-49 0 -61 45l-211 664l-211 -664
q-15 -45 -59 -45h-37q-45 0 -62 45l-307 766q-13 34 -35.5 59.5t-37.5 41.5t-15 34v8q0 29 37 29h315q35 0 35 -31v-6q0 -13 -14 -26.5t-28 -24t-21.5 -32.5t4.5 -54l192 -559l213 690q12 37 41 37l98 2q32 0 41 -35l209 -696l189 540q14 38 3.5 64.5t-28.5 38.5t-35.5 26.5
t-17.5 28.5v6q0 13 11 22t26 9h221z" />
    <glyph glyph-name="Wdieresis" unicode="&#x1e84;" horiz-adv-x="2035" 
d="M872 1604q-69 0 -112 39.5t-43 101.5t43 101.5t112 39.5q68 0 110 -39.5t42 -101.5t-42 -101.5t-110 -39.5zM1303 1604q-69 0 -111.5 39.5t-42.5 101.5t42.5 101.5t111.5 39.5q67 0 110 -39.5t43 -101.5t-43 -101.5t-110 -39.5zM1985 1454q40 0 40 -29v-6
q0 -15 -12.5 -28t-29 -22.5t-35.5 -32t-29 -52.5l-399 -1214q-22 -70 -99 -70q-69 0 -92 66l-278 823l-287 -819q-23 -70 -88 -70q-36 0 -57 15.5t-35 50.5l-486 1216q-13 31 -34 54t-38 32.5t-29.5 23t-12.5 29.5v4q0 29 41 29h360q20 0 31.5 -8.5t11.5 -20.5v-6
q0 -15 -15.5 -29.5t-31.5 -25t-25.5 -32t2.5 -50.5l361 -975l268 768l-69 209q-9 27 -29 49t-38 33.5t-32 25.5t-14 29v4q0 29 39 29h360q39 0 39 -29v-4q0 -14 -16 -27.5t-34 -23.5t-28.5 -32.5t-1.5 -53.5l310 -975l305 975q9 27 -0.5 48t-26.5 31.5t-32 25t-15 28.5v6
q0 31 41 31h240z" />
    <glyph glyph-name="wdieresis" unicode="&#x1e85;" horiz-adv-x="1521" 
d="M590 1153q-69 0 -112.5 39.5t-43.5 101.5t43.5 102t112.5 40q68 0 109.5 -40t41.5 -102t-41.5 -101.5t-109.5 -39.5zM1020 1153q-69 0 -111.5 39.5t-42.5 101.5t43 102t111 40q67 0 110.5 -40t43.5 -102t-43.5 -101.5t-110.5 -39.5zM1489 983q35 0 35 -29v-8
q0 -15 -12 -28.5t-27.5 -23.5t-34.5 -32t-29 -51l-276 -766q-8 -24 -21 -34.5t-37 -10.5h-53q-49 0 -61 45l-211 664l-211 -664q-15 -45 -59 -45h-37q-45 0 -62 45l-307 766q-13 34 -35.5 59.5t-37.5 41.5t-15 34v8q0 29 37 29h315q35 0 35 -31v-6q0 -13 -14 -26.5t-28 -24
t-21.5 -32.5t4.5 -54l192 -559l213 690q12 37 41 37l98 2q32 0 41 -35l209 -696l189 540q14 38 3.5 64.5t-28.5 38.5t-35.5 26.5t-17.5 28.5v6q0 13 11 22t26 9h221z" />
    <glyph glyph-name="uni1E9E" unicode="&#x1e9e;" horiz-adv-x="1353" 
d="M889 831q180 -16 292.5 -125.5t112.5 -291.5q0 -191 -142 -302.5t-372 -111.5q-28 0 -39.5 27.5t-1.5 55.5t33 28q121 0 194.5 68.5t73.5 197.5q0 158 -64.5 270.5t-172.5 112.5q-37 0 -54 20t-13.5 44.5t18.5 39.5l231 246q0 115 -78 186.5t-241 71.5q-126 0 -202.5 -87
t-76.5 -230v-877q0 -28 15 -49.5t33 -32.5t33 -25.5t15 -31.5v-6q0 -15 -4.5 -21.5t-9.5 -7t-20 -0.5h-353q-37 0 -37 29v6q0 15 12.5 29t27.5 25.5t27.5 34t12.5 50.5v850q0 201 150.5 326t388.5 125q225 0 369.5 -94.5t169.5 -227.5q11 -59 -41 -102z" />
    <glyph glyph-name="Ygrave" unicode="&#x1ef2;" horiz-adv-x="1376" 
d="M453 1667q-31 3 -44.5 23t-5.5 49l27 96q8 31 30 41.5t54 -4.5l401 -191q15 -8 22 -24t3 -33q-12 -31 -59 -31zM1317 1454q43 0 43 -29v-6q0 -19 -17.5 -33t-48 -39t-51.5 -63l-414 -694v-420q0 -27 13 -48.5t28 -32.5t28 -25t13 -29v-6q0 -29 -43 -29h-321q-43 0 -43 29
v6q0 15 12 29t26 25t26 32.5t12 48.5v401l-455 713q-21 34 -53 59.5t-51 41t-19 34.5v6q0 29 45 29h377q45 0 45 -29v-6q0 -14 -17.5 -29.5t-35 -27t-26.5 -32.5t7 -46l357 -612l362 612q17 27 7 48.5t-28.5 32.5t-36.5 25.5t-18 28.5v6q0 29 41 29h236z" />
    <glyph glyph-name="ygrave" unicode="&#x1ef3;" horiz-adv-x="1095" 
d="M356 1280q-30 9 -38.5 31.5t4.5 48.5l45 90q14 28 37 33.5t53 -15.5l356 -264q14 -11 17.5 -28.5t-5.5 -32.5q-18 -30 -63 -19zM1063 983q15 0 25 -8t10 -21v-8q0 -20 -16 -36.5t-41.5 -43t-41.5 -63.5l-387 -848q-21 -47 -33 -73.5t-37 -74t-45 -75.5t-51 -64t-61 -56
t-69.5 -34t-82.5 -14q-121 0 -198.5 62.5t-77.5 137.5q0 45 27 74t73 29q38 0 63 -22.5t38 -54.5t25 -64.5t33.5 -55t53.5 -22.5q56 0 116.5 86.5t113.5 218.5l-400 850q-14 30 -34 53.5t-34.5 34.5t-25 25t-10.5 30v8q0 13 10.5 21t26.5 8h323q15 0 25 -9t10 -22v-6
q0 -15 -11 -29t-21.5 -25t-13.5 -34.5t13 -56.5l271 -621l254 598q18 41 7.5 69t-31 41t-40.5 28t-20 30v6q0 14 10 22.5t27 8.5h227z" />
    <glyph glyph-name="uni1EF8" unicode="&#x1ef8;" horiz-adv-x="1376" 
d="M395 1593q-13 0 -20 10.5t-4 28.5q16 93 71.5 154t141.5 61q45 0 94 -17t83.5 -38t73.5 -38t68 -17q68 0 96 55q13 27 39 27h17q33 0 24 -39q-26 -105 -80 -158t-129 -53q-54 0 -113 28t-112.5 56t-93.5 28q-58 0 -94 -55q-1 -2 -4 -6.5t-3.5 -5.5t-3 -5t-3.5 -4.5
t-3 -3.5t-3.5 -3.5t-4 -2t-5 -1.5t-5.5 -0.5t-6 -0.5h-21zM1317 1454q43 0 43 -29v-6q0 -19 -17.5 -33t-48 -39t-51.5 -63l-414 -694v-420q0 -27 13 -48.5t28 -32.5t28 -25t13 -29v-6q0 -29 -43 -29h-321q-43 0 -43 29v6q0 15 12 29t26 25t26 32.5t12 48.5v401l-455 713
q-21 34 -53 59.5t-51 41t-19 34.5v6q0 29 45 29h377q45 0 45 -29v-6q0 -14 -17.5 -29.5t-35 -27t-26.5 -32.5t7 -46l357 -612l362 612q17 27 7 48.5t-28.5 32.5t-36.5 25.5t-18 28.5v6q0 29 41 29h236z" />
    <glyph glyph-name="uni1EF9" unicode="&#x1ef9;" horiz-adv-x="1095" 
d="M250 1212q-13 0 -20.5 10.5t-4.5 28.5q16 93 71.5 154t141.5 61q58 0 119 -27.5t113.5 -55t87.5 -27.5q68 0 96 55q14 27 39 27h16q15 0 22 -10.5t3 -28.5q-26 -105 -80 -158t-129 -53q-54 0 -113 28t-112.5 56t-93.5 28q-59 0 -95 -55q-1 -2 -4 -6.5t-3.5 -5.5t-3 -5
t-3.5 -4.5t-3 -3.5t-3.5 -3.5t-4 -2t-5 -1.5t-5.5 -0.5t-6 -0.5h-20zM1063 983q15 0 25 -8t10 -21v-8q0 -20 -16 -36.5t-41.5 -43t-41.5 -63.5l-387 -848q-21 -47 -33 -73.5t-37 -74t-45 -75.5t-51 -64t-61 -56t-69.5 -34t-82.5 -14q-121 0 -198.5 62.5t-77.5 137.5
q0 45 27 74t73 29q38 0 63 -22.5t38 -54.5t25 -64.5t33.5 -55t53.5 -22.5q56 0 116.5 86.5t113.5 218.5l-400 850q-14 30 -34 53.5t-34.5 34.5t-25 25t-10.5 30v8q0 13 10.5 21t26.5 8h323q15 0 25 -9t10 -22v-6q0 -15 -11 -29t-21.5 -25t-13.5 -34.5t13 -56.5l271 -621
l254 598q18 41 7.5 69t-31 41t-40.5 28t-20 30v6q0 14 10 22.5t27 8.5h227z" />
    <glyph glyph-name="endash" unicode="&#x2013;" horiz-adv-x="1144" 
d="M143 600q-34 0 -34 37v55q0 35 34 35h858q33 0 33 -35v-55q0 -17 -9 -27t-24 -10h-858z" />
    <glyph glyph-name="emdash" unicode="&#x2014;" horiz-adv-x="1394" 
d="M143 600q-34 0 -34 37v55q0 35 34 35h1108q35 0 35 -35v-55q0 -37 -35 -37h-1108z" />
    <glyph glyph-name="quoteleft" unicode="&#x2018;" horiz-adv-x="450" 
d="M305 1581q27 15 48.5 -7.5t-1.5 -45.5q-57 -55 -81.5 -94.5t-32.5 -85.5q-7 -35 20 -35q50 0 83.5 -41t33.5 -105q0 -71 -42 -116t-110 -45q-67 0 -113.5 49.5t-46.5 134.5q0 112 61 212.5t181 178.5z" />
    <glyph glyph-name="quoteright" unicode="&#x2019;" horiz-adv-x="462" 
d="M166 940q-27 -15 -48.5 7.5t1.5 45.5q57 55 81.5 95t32.5 86q7 34 -20 34q-50 0 -83.5 41t-33.5 105q0 71 42 116.5t110 45.5q67 0 113.5 -50t46.5 -135q0 -112 -61 -212.5t-181 -178.5z" />
    <glyph glyph-name="quotesinglbase" unicode="&#x201a;" horiz-adv-x="468" 
d="M150 -289q-27 -15 -49 7.5t1 45.5q57 55 82 95t33 86q7 35 -20 35q-50 0 -83.5 40.5t-33.5 104.5q0 71 41.5 116.5t109.5 45.5q67 0 113.5 -50t46.5 -135q0 -112 -60.5 -212.5t-180.5 -178.5z" />
    <glyph glyph-name="quotedblleft" unicode="&#x201c;" horiz-adv-x="880" 
d="M305 1599q27 15 48.5 -7.5t-1.5 -45.5q-57 -55 -81.5 -94.5t-32.5 -85.5q-7 -35 20 -35q50 0 83.5 -40.5t33.5 -104.5q0 -71 -42 -116.5t-110 -45.5q-67 0 -113.5 49.5t-46.5 134.5q0 112 61 212.5t181 178.5zM737 1599q27 15 48.5 -7.5t-1.5 -45.5q-57 -55 -81.5 -94.5
t-32.5 -85.5q-7 -35 20 -35q50 0 83.5 -40.5t33.5 -104.5q0 -71 -42 -116.5t-110 -45.5q-67 0 -113 49.5t-46 134.5q0 112 60.5 212.5t180.5 178.5z" />
    <glyph glyph-name="quotedblright" unicode="&#x201d;" horiz-adv-x="894" 
d="M164 942q-27 -15 -48.5 7.5t1.5 45.5q57 55 81.5 95t32.5 86q7 34 -20 34q-50 0 -83.5 41t-33.5 105q0 71 42 116.5t110 45.5q67 0 113.5 -50t46.5 -135q0 -112 -61 -212.5t-181 -178.5zM596 942q-27 -15 -48.5 7.5t1.5 45.5q57 55 82 95t33 86q7 34 -21 34
q-50 0 -83.5 41t-33.5 105q0 71 42 116.5t110 45.5q67 0 113.5 -50t46.5 -135q0 -112 -61 -212.5t-181 -178.5z" />
    <glyph glyph-name="quotedblbase" unicode="&#x201e;" horiz-adv-x="901" 
d="M150 -289q-27 -15 -49 7.5t1 45.5q57 55 82 95t33 86q7 35 -20 35q-50 0 -83.5 40.5t-33.5 104.5q0 71 41.5 116.5t109.5 45.5q67 0 113.5 -50t46.5 -135q0 -112 -60.5 -212.5t-180.5 -178.5zM582 -289q-27 -15 -48.5 7.5t1.5 45.5q57 55 81.5 95t32.5 86q7 35 -20 35
q-50 0 -83.5 40.5t-33.5 104.5q0 71 42 116.5t110 45.5q67 0 113 -50t46 -135q0 -112 -60.5 -212.5t-180.5 -178.5z" />
    <glyph glyph-name="dagger" unicode="&#x2020;" horiz-adv-x="1079" 
d="M969 1081q43 5 61 -37t-0.5 -84.5t-60.5 -37.5l-387 34l32 -1052q1 -25 -14.5 -42t-39 -20.5t-46.5 1t-39.5 21t-15.5 40.5l35 1052l-388 -34q-40 -4 -56.5 38t0 83.5t56.5 37.5l386 -34l-52 524q-7 55 45 77t104.5 -1t45.5 -76l-51 -524z" />
    <glyph glyph-name="daggerdbl" unicode="&#x2021;" horiz-adv-x="1091" 
d="M965 639q44 5 61.5 -38t-1 -85.5t-60.5 -36.5l-365 33l21 -608q1 -25 -15.5 -42t-40 -20.5t-46.5 1t-39 21t-15 40.5l20 608l-364 -33q-39 -5 -56 37t0 84.5t56 38.5l368 -33l11 350l-379 -34q-40 -4 -56 38t0 83.5t56 37.5l377 -34l-54 524q-6 55 46.5 77t105 -1
t45.5 -76l-53 -524l377 34q44 5 61.5 -37t-1 -84.5t-60.5 -37.5l-379 34l12 -352z" />
    <glyph glyph-name="bullet" unicode="&#x2022;" horiz-adv-x="778" 
d="M391 532q-116 0 -189 66.5t-73 171.5q0 106 73 174t189 68q115 0 185.5 -67.5t70.5 -174.5q0 -105 -70.5 -171.5t-185.5 -66.5z" />
    <glyph glyph-name="ellipsis" unicode="&#x2026;" horiz-adv-x="1439" 
d="M246 -20q-69 0 -114.5 38t-45.5 107q0 71 45 109t115 38q68 0 112.5 -38.5t44.5 -108.5q0 -69 -44.5 -107t-112.5 -38zM731 -20q-69 0 -114.5 38t-45.5 107q0 71 45.5 109t114.5 38q68 0 113 -38.5t45 -108.5q0 -69 -45 -107t-113 -38zM1196 -20q-69 0 -114.5 38
t-45.5 107q0 71 45 109t115 38q68 0 113 -38.5t45 -108.5q0 -69 -45 -107t-113 -38z" />
    <glyph glyph-name="perthousand" unicode="&#x2030;" horiz-adv-x="2611" 
d="M430 698q-156 0 -265.5 110.5t-109.5 276.5q0 171 102.5 280.5t266.5 109.5q153 0 262 -114t109 -280q0 -169 -107 -276t-258 -107zM471 0q-20 0 -26.5 12t4.5 29l768 1391q13 22 32 22h88q19 0 25.5 -12t-2.5 -29l-764 -1390q-14 -23 -41 -23h-84zM453 768
q70 0 106.5 65t36.5 168q0 94 -23.5 184.5t-72.5 154t-111 63.5q-73 0 -110 -68t-37 -174q0 -97 25 -186t74 -148t112 -59zM1395 -20q-156 0 -265.5 110.5t-109.5 278.5q0 171 102.5 279t266.5 108q154 0 262 -112.5t108 -278.5q0 -169 -107 -277t-257 -108zM2204 -20
q-155 0 -260 110t-105 279q0 172 98 279.5t261 107.5q152 0 256 -112.5t104 -278.5q0 -170 -102.5 -277.5t-251.5 -107.5zM1417 49q70 0 107 66t37 168q0 95 -23.5 186t-72.5 154t-111 63q-73 0 -110.5 -68.5t-37.5 -173.5q0 -99 25 -188t74 -148t112 -59zM2226 49
q71 0 112.5 67t41.5 167q0 94 -26.5 185.5t-78.5 154.5t-114 63q-72 0 -114 -69.5t-42 -172.5q0 -98 27 -187.5t78.5 -148.5t115.5 -59z" />
    <glyph glyph-name="guilsinglleft" unicode="&#x2039;" horiz-adv-x="604" 
d="M514 973q-24 -109 -91.5 -212.5t-170.5 -178.5q92 -77 161.5 -174.5t92.5 -174.5q1 -13 -15.5 -24t-41 -9.5t-41.5 21.5q-30 37 -61.5 70t-68 65.5t-60.5 53t-69 57t-65 53.5t-19.5 67.5t19.5 65.5q232 169 348 340q9 14 30 15.5t38 -9t14 -26.5z" />
    <glyph glyph-name="guilsinglright" unicode="&#x203a;" horiz-adv-x="593" 
d="M508 653q19 -15 19.5 -65.5t-19.5 -67.5q-13 -10 -47 -38.5t-48 -40.5t-43 -37t-46.5 -42t-41.5 -41t-45 -48.5t-42 -51.5q-16 -21 -40.5 -22.5t-41 10t-15.5 24.5q25 84 90.5 185.5t153.5 169.5q-101 69 -164 170.5t-88 214.5q-3 16 14 26.5t38 9t30 -15.5
q109 -172 336 -340z" />
    <glyph glyph-name="fraction" unicode="&#x2044;" horiz-adv-x="837" 
d="M-20 0q-20 0 -27 12t4 29l791 1391q13 22 38 22h74q19 0 26 -12t-3 -29l-785 -1390q-14 -23 -41 -23h-77z" />
    <glyph glyph-name="Euro" unicode="&#x20ac;" horiz-adv-x="1435" 
d="M1266 352q27 26 61 10t25 -57q-15 -59 -54.5 -115t-98.5 -103t-143.5 -76t-178.5 -29q-161 0 -293.5 81t-214.5 220t-107 315h-170q-15 0 -25 7.5t-10 19.5v41q0 12 10 19t25 7h160v43q0 49 2 74h-162q-15 0 -25 7t-10 18v45q0 10 10 17t25 7h172q30 179 121 308
t215.5 191t267.5 62q195 0 337.5 -81t142.5 -185q0 -44 -29 -75t-80 -31q-40 0 -72 20t-52 49.5t-47 64.5t-55.5 64.5t-79.5 49.5t-116 20q-126 0 -217.5 -123.5t-101.5 -333.5h575q15 0 25 -7t10 -17v-45q0 -11 -10 -18t-25 -7h-577q2 -45 10 -117h498q34 0 34 -26v-41
q0 -12 -9.5 -19.5t-24.5 -7.5h-480q44 -191 152.5 -293t245.5 -102q97 0 188 39.5t156 109.5z" />
    <glyph glyph-name="trademark" unicode="&#x2122;" horiz-adv-x="1572" 
d="M637 1268h-19q-11 0 -22 15.5t-19.5 33.5t-23.5 33.5t-33 15.5h-78v-485q0 -20 23.5 -37t23.5 -27v-6q0 -6 -5.5 -11t-14.5 -5h-217q-9 0 -15 5t-6 11v6q0 10 22.5 27t22.5 37v485h-81q-18 0 -33 -15.5t-23.5 -33.5t-19.5 -33.5t-21 -15.5h-18q-10 0 -15.5 6.5t-3.5 15.5
l21 140q3 22 27 22h497q24 0 27 -22l20 -140q1 -9 -3.5 -15.5t-12.5 -6.5zM1446 883q3 -20 22 -37t19 -27v-8q0 -6 -6 -11t-13 -5h-200q-21 0 -21 16v8q0 9 19 26t16 38l-68 374l-124 -342l2 -6h-5l-30 -86q-9 -28 -35 -28q-27 0 -37 26l-160 439l-59 -379q-3 -21 16 -38
t19 -26v-6q0 -16 -19 -16h-143q-9 0 -16 5t-7 11v6q0 10 20.5 27t22.5 37l78 487q3 22 -16 40.5t-19 27.5v2q0 14 19 14h156q30 0 38 -25l132 -385l129 385q9 25 38 25h152q20 0 20 -12v-8q0 -7 -17.5 -27t-14.5 -41z" />
    <glyph glyph-name="minus" unicode="&#x2212;" 
d="M225 492q-15 0 -25 7t-10 19v103q0 12 10 19t25 7h779q36 0 36 -26v-103q0 -26 -36 -26h-779z" />
    <glyph glyph-name="approxequal" unicode="&#x2248;" 
d="M397 1006q62 0 125.5 -21t107.5 -46t99 -46t102 -21t86 22t62 56q19 29 45 29h47q33 0 27 -37q-21 -116 -96.5 -182t-176.5 -66q-71 0 -136.5 21t-105.5 46.5t-90.5 46.5t-95.5 21q-82 0 -135 -81q-20 -33 -65 -33h-27q-13 0 -20.5 10.5t-4.5 28.5q7 44 25 86t47.5 80.5
t76 62t103.5 23.5zM387 598q62 0 125.5 -21t107.5 -45.5t99 -45.5t102 -21t86 22t62 56q19 28 45 28h47q32 0 26 -36q-21 -116 -96 -182t-176 -66q-71 0 -136.5 21t-105.5 46.5t-90.5 46.5t-95.5 21q-82 0 -135 -82q-20 -33 -66 -33h-26q-13 0 -20.5 10.5t-4.5 28.5
q7 44 25 86t47.5 80.5t76 62t103.5 23.5z" />
    <glyph glyph-name="notequal" unicode="&#x2260;" 
d="M1004 674h-246l-115 -221h361q15 0 24.5 -7.5t9.5 -19.5v-102q0 -12 -9.5 -19.5t-24.5 -7.5h-443l-133 -258q-11 -22 -35 -14l-45 20q-10 6 -13 18.5t3 22.5l111 211h-224q-37 0 -37 27v102q0 27 37 27h303l117 221h-420q-37 0 -37 26v103q0 12 10 20t27 8h502l119 228
q14 31 41 18l39 -18q23 -13 10 -41l-96 -187h164q15 0 24.5 -8t9.5 -20v-103q0 -26 -34 -26z" />
    <glyph glyph-name="uniF8FF" unicode="&#xf8ff;" horiz-adv-x="2971" 
d="M1415 1194q0 54 36 90.5t89 36.5q54 0 90.5 -36.5t36.5 -90.5q0 -53 -36.5 -89t-90.5 -36q-52 0 -88.5 36.5t-36.5 88.5zM449 553h-244q0 159 4.5 320t8.5 242l5 81h205q19 -286 21 -643zM1421 553q0 187 6 301h-124l6 -133q7 -8 30 -8q13 0 22 2.5t12 4.5l3 3v-152
q-2 -3 -8.5 -8t-41 -13.5t-85.5 -8.5q-172 0 -172 135q0 30 4 102t4 76h-45v162l244 61l2 -35h364q21 -132 21 -489h-242zM672 543q-90 0 -139.5 57.5t-49.5 173.5q0 279 281 279q124 0 185 -62t63 -178v-260h-170l-17 125q-13 -67 -48 -101t-105 -34zM2232 553h-233
q0 53 2 114.5t2 82.5q0 29 -6.5 41t-24.5 12q-20 0 -28.5 -12.5t-8.5 -40.5q0 -21 3.5 -82.5t3.5 -114.5h-234q0 159 5 281.5t11 165.5l5 42h163q13 -92 13 -155q0 7 3 22.5t14 41.5t27.5 48t48.5 38t73 16q83 0 117.5 -49.5t37.5 -167.5zM2767 786q0 -112 -63.5 -177.5
t-190.5 -65.5q-123 0 -185.5 67t-62.5 176q0 267 250 267q75 0 127 -21t78 -60t36.5 -83t10.5 -103zM799 768q0 53 -47 53q-25 0 -36 -12t-11 -41q0 -61 47 -61q22 0 34.5 16t12.5 45zM2562 768q0 53 -47 53q-22 0 -32.5 -12t-10.5 -41q0 -61 43 -61q22 0 34.5 16t12.5 45z
M877 487h213q20 -123 20 -301q0 -150 -71.5 -219t-233.5 -69q-64 0 -111 8.5t-62 17.5l-14 8v170q42 -32 142 -32q31 0 54 6t33.5 14.5t16.5 16.5t7 14l1 6q-26 -23 -100 -23q-184 0 -184 170v27h-113l6 -133q8 -8 31 -8q13 0 22 2.5t12 5.5l3 2v-150q-2 -3 -8.5 -8
t-41.5 -13.5t-87 -8.5q-168 0 -168 131q0 93 6 180h-37v164l240 59l-2 -35l362 -2v-243q0 -31 6 -43.5t23 -12.5q20 0 27.5 12.5t7.5 43.5v243zM1501 498q76 0 120 -59.5t44 -170.5q0 -278 -281 -278q2 -27 2 -80h-243q0 156 5 300t10 210l5 67h160q14 -106 14 -155
q1 9 4.5 23t15.5 41t28.5 48t47 37.5t68.5 16.5zM2191 264q0 -23 -1.5 -42t-3.5 -26l-1 -8h-254q2 -4 7.5 -10t31.5 -16t62 -10q34 0 62.5 6t39.5 12l12 6v-153q-5 -4 -14.5 -9.5t-50.5 -14.5t-94 -9q-142 0 -215.5 63t-73.5 176q0 131 66.5 200t191.5 69q110 0 172.5 -62
t62.5 -172zM2003 223q6 56 -35 56q-47 0 -47 -56h82zM1372 147q3 0 8 1t18.5 5.5t23.5 12t18 23t8 36.5q0 45 -41 45q-45 0 -45 -65q0 -14 2.5 -28.5t5.5 -22.5zM2202 27q0 -20 13.5 -33.5t33.5 -13.5q19 0 32 13.5t13 33.5t-13 32.5t-32 12.5q-20 0 -33.5 -12.5
t-13.5 -32.5zM2212 27q0 15 11 25.5t26 10.5q14 0 24.5 -10.5t10.5 -25.5t-10.5 -26t-24.5 -11q-15 0 -26 11t-11 26zM2269 4l-12 19q14 0 14 14t-20 14h-23v-47h10v19h11l8 -19h12zM2251 31h-13v12h11q12 0 12 -4q0 -8 -10 -8z" />
    <glyph glyph-name="uni00A40301" horiz-adv-x="1095" 
d="M625 1595q-44 -4 -58 29q-6 18 1.5 33.5t21.5 23.5l403 191q31 14 53 4.5t31 -39.5l25 -96q9 -28 -4 -48.5t-45 -23.5zM682 1284q0 27 -12 48.5t-27 32.5t-27 25t-12 29v6q0 29 45 29h322q43 0 43 -29v-6q0 -15 -13 -29t-28 -25t-28 -32.5t-13 -48.5l-2 -719
q-3 -582 -461 -585q-97 -1 -176.5 22.5t-129.5 60t-83.5 83.5t-47.5 91.5t-14 86.5q0 56 31.5 89t83.5 33q41 0 69 -20t43.5 -52t27.5 -70.5t26.5 -77t35 -70.5t58.5 -52t92 -20q88 0 142.5 92t54.5 256v852z" />
    <glyph glyph-name="A.ss01" horiz-adv-x="1388" 
d="M53 0q-43 0 -43 29v6q0 15 11.5 28t27.5 23t35 32.5t31 51.5l430 1104q9 22 -0.5 44.5t-26 37.5t-31 32.5t-14.5 30.5v6q0 13 11 21t28 8h319q17 0 28 -8t11 -21v-6q0 -13 -15 -29t-31 -29t-26 -34.5t1 -46.5l485 -1110q16 -36 42.5 -61t44.5 -40t18 -34v-6
q0 -29 -43 -29h-349q-43 0 -43 29v6q0 14 16 29t33.5 26t28 32t-1.5 48l-82 203h-618l-76 -203q-12 -27 -1.5 -48.5t28 -32.5t33.5 -25.5t16 -28.5v-6q0 -29 -45 -29h-232zM371 483h538l-280 691z" />
    <glyph glyph-name="Aacute.ss01" horiz-adv-x="1402" 
d="M510 1595q-43 -3 -57 29q-12 38 22 57l404 191q31 14 53 4.5t31 -39.5l24 -96q9 -28 -4 -48.5t-45 -23.5zM53 0q-43 0 -43 29v6q0 15 11.5 28t27.5 23t35 32.5t31 51.5l430 1104q9 22 -0.5 44.5t-26 37.5t-31 32.5t-14.5 30.5v6q0 13 11 21t28 8h319q17 0 28 -8t11 -21
v-6q0 -13 -15 -29t-31 -29t-26 -34.5t1 -46.5l485 -1110q16 -36 42.5 -61t44.5 -40t18 -34v-6q0 -29 -43 -29h-349q-43 0 -43 29v6q0 14 16 29t33.5 26t28 32t-1.5 48l-82 203h-618l-76 -203q-12 -27 -1.5 -48.5t28 -32.5t33.5 -25.5t16 -28.5v-6q0 -29 -45 -29h-232z
M371 483h538l-280 691z" />
    <glyph glyph-name="Abreve.ss01" horiz-adv-x="1402" 
d="M694 1575q-131 0 -222 77t-107 187q-4 26 15 40t42 11.5t31 -18.5q23 -62 89.5 -97.5t151.5 -35.5q87 0 154 35.5t90 97.5q8 15 30.5 17t41.5 -12t16 -38q-14 -110 -105.5 -187t-226.5 -77zM53 0q-43 0 -43 29v6q0 15 11.5 28t27.5 23t35 32.5t31 51.5l430 1104
q9 22 -0.5 44.5t-26 37.5t-31 32.5t-14.5 30.5v6q0 13 11 21t28 8h319q17 0 28 -8t11 -21v-6q0 -13 -15 -29t-31 -29t-26 -34.5t1 -46.5l485 -1110q16 -36 42.5 -61t44.5 -40t18 -34v-6q0 -29 -43 -29h-349q-43 0 -43 29v6q0 14 16 29t33.5 26t28 32t-1.5 48l-82 203h-618
l-76 -203q-12 -27 -1.5 -48.5t28 -32.5t33.5 -25.5t16 -28.5v-6q0 -29 -45 -29h-232zM371 483h538l-280 691z" />
    <glyph glyph-name="Acircumflex.ss01" horiz-adv-x="1402" 
d="M420 1563q-20 -11 -43.5 -2.5t-29 28.5t17.5 47l225 215q33 33 74 33h49q37 0 73 -33l240 -215q17 -16 19.5 -35t-8 -31t-28.5 -16t-42 9l-285 147zM1284 170q16 -36 42.5 -61t44.5 -40t18 -34v-6q0 -29 -43 -29h-349q-43 0 -43 29v6q0 14 16 29t33.5 26t28 32t-1.5 48
l-82 203h-618l-76 -203q-12 -27 -1.5 -48.5t28 -32.5t33.5 -25.5t16 -28.5v-6q0 -29 -45 -29h-232q-43 0 -43 29v6q0 15 11.5 28t27.5 23t35 32.5t31 51.5l430 1104q9 22 -0.5 44.5t-26 37.5t-31 32.5t-14.5 30.5v6q0 13 11 21t28 8h319q17 0 28 -8t11 -21v-6q0 -13 -15 -29
t-31 -29t-26 -34.5t1 -46.5zM371 483h538l-280 691z" />
    <glyph glyph-name="Adieresis.ss01" horiz-adv-x="1402" 
d="M483 1604q-69 0 -112 39.5t-43 101.5t43 101.5t112 39.5q68 0 110 -39.5t42 -101.5t-42 -101.5t-110 -39.5zM913 1604q-68 0 -110.5 39.5t-42.5 101.5t42.5 101.5t110.5 39.5q67 0 110.5 -39.5t43.5 -101.5t-43.5 -101.5t-110.5 -39.5zM53 0q-43 0 -43 29v6q0 15 11.5 28
t27.5 23t35 32.5t31 51.5l430 1104q9 22 -0.5 44.5t-26 37.5t-31 32.5t-14.5 30.5v6q0 13 11 21t28 8h319q17 0 28 -8t11 -21v-6q0 -13 -15 -29t-31 -29t-26 -34.5t1 -46.5l485 -1110q16 -36 42.5 -61t44.5 -40t18 -34v-6q0 -29 -43 -29h-349q-43 0 -43 29v6q0 14 16 29
t33.5 26t28 32t-1.5 48l-82 203h-618l-76 -203q-12 -27 -1.5 -48.5t28 -32.5t33.5 -25.5t16 -28.5v-6q0 -29 -45 -29h-232zM371 483h538l-280 691z" />
    </font>
</defs>
</svg>
