<svg width="171" height="17" viewBox="0 0 171 17" fill="none" xmlns="http://www.w3.org/2000/svg"><path d="M168.459 12.177c1.045 0 1.941.858 1.941 1.904a1.952 1.952 0 0 1-1.941 1.942c-1.046 0-1.905-.86-1.905-1.942-.037-1.046.822-1.904 1.905-1.904zm1.568 1.904c0-.896-.71-1.606-1.568-1.606-.859 0-1.569.71-1.569 1.606 0 .896.71 1.605 1.569 1.605.858 0 1.568-.709 1.568-1.605zm-2.352-1.12h.858c.486 0 .784.224.784.672 0 .41-.261.597-.597.635l.635.97h-.336l-.635-.933h-.373v.934h-.336V12.96zm.709 1.008c.299 0 .598 0 .598-.336 0-.299-.262-.336-.486-.336h-.448v.672h.336z" fill="#fff"/><path d="M6.971 3.477v12.695h-2.24V3.477H.4V1.312h10.903v2.202H6.97v-.037zm16.168 12.695V9.488h-6.833v6.684h-2.24V1.312h2.24v6.011h6.833V1.312h2.24v14.86h-2.24zm6.124 0V1.312h9.595v2.165h-7.355v3.66h4.256v2.165h-4.256v4.705h7.654v2.165h-9.894zm30.877-4.555c0 1.53-.447 2.65-1.343 3.435-.897.784-2.129 1.157-3.772 1.157h-5.899V1.312h6.123c1.307 0 2.353.335 3.1.97.784.672 1.157 1.606 1.157 2.875 0 .747-.187 1.382-.56 1.867a3.86 3.86 0 0 1-1.344 1.12c.298.075.597.224.896.411.299.187.56.411.822.71.223.298.447.634.597 1.008.15.373.224.821.224 1.344zm-2.837-6.348c0-.56-.15-1.008-.485-1.381-.3-.374-.86-.56-1.606-.56h-3.995v3.808h3.995c.373 0 .672-.037.933-.15.262-.111.486-.26.635-.41.15-.186.299-.373.373-.597.113-.224.15-.448.15-.71zm.635 6.422c0-.746-.224-1.381-.672-1.792-.448-.448-1.12-.672-1.942-.672h-4.032v4.929h3.957c1.009 0 1.68-.224 2.091-.672a2.875 2.875 0 0 0 .598-1.793zM75.3 8.74c0 1.121-.15 2.166-.448 3.1-.299.933-.71 1.755-1.27 2.427-.56.672-1.194 1.195-1.978 1.568-.784.374-1.643.56-2.614.56-.97 0-1.83-.186-2.614-.56-.784-.373-1.418-.896-1.979-1.568-.56-.672-.97-1.494-1.269-2.427-.299-.934-.448-1.979-.448-3.1 0-1.12.15-2.165.448-3.098.299-.933.71-1.755 1.27-2.427.56-.672 1.194-1.195 1.978-1.568.785-.374 1.643-.56 2.614-.56.97 0 1.83.187 2.614.56a5.436 5.436 0 0 1 1.979 1.568c.56.672.97 1.494 1.269 2.427.299.933.448 1.979.448 3.099zm-2.278 0c0-1.68-.336-2.986-1.045-3.957-.672-.971-1.68-1.456-3.024-1.456-1.307 0-2.315.485-2.987 1.456-.673.97-1.046 2.315-1.046 3.958 0 1.68.336 2.987 1.046 3.958.671.97 1.68 1.456 2.987 1.456 1.306 0 2.315-.485 3.024-1.456.71-.971 1.045-2.278 1.045-3.958zm16.803.002c0 1.306-.188 2.427-.598 3.36a6.51 6.51 0 0 1-1.568 2.315 6.51 6.51 0 0 1-2.315 1.344c-.859.299-1.792.411-2.763.411h-4.07V1.312h4.07c1.008 0 1.941.149 2.8.41.896.299 1.643.71 2.315 1.344.635.598 1.158 1.382 1.568 2.315.374.934.56 2.054.56 3.36zm-2.278 0c0-.784-.075-1.494-.262-2.129a4.56 4.56 0 0 0-.896-1.68c-.41-.485-.933-.821-1.568-1.083-.635-.261-1.382-.373-2.278-.373h-1.83v10.53h1.83c.897 0 1.643-.113 2.278-.374a4.355 4.355 0 0 0 1.569-1.083c.41-.486.709-1.008.896-1.68.186-.635.26-1.344.26-2.128zm10.791 1.567v5.9h-2.24v-5.9l-5.34-8.998h2.614l2.314 4.107c.113.224.262.485.412.747.149.298.298.56.448.82.149.262.26.524.41.785.112.224.187.448.262.56.075-.15.149-.336.261-.56.112-.224.261-.485.41-.747.15-.261.3-.56.45-.821.148-.299.297-.56.41-.784L101.1 1.31h2.577l-5.34 8.998zm22.365 1.606c0 .672-.112 1.27-.336 1.83a3.527 3.527 0 0 1-1.008 1.419c-.448.41-1.008.709-1.717.933-.71.224-1.531.336-2.464.336a7.14 7.14 0 0 1-2.988-.635c-.896-.448-1.68-1.008-2.315-1.755l1.606-1.568a5.22 5.22 0 0 0 1.792 1.27 4.642 4.642 0 0 0 2.091.485c2.054 0 3.099-.71 3.099-2.166 0-.298-.074-.523-.187-.746a1.758 1.758 0 0 0-.56-.635c-.261-.187-.634-.374-1.045-.56-.41-.187-.933-.336-1.568-.523-.784-.224-1.494-.448-2.054-.71-.597-.223-1.045-.522-1.456-.82-.373-.337-.672-.71-.859-1.158-.186-.448-.299-1.009-.299-1.68 0-.636.113-1.233.374-1.718.262-.523.597-.97 1.046-1.307.447-.336.97-.635 1.567-.821a6.42 6.42 0 0 1 1.942-.3c1.008 0 1.905.188 2.689.524.783.336 1.493.858 2.165 1.493l-1.569 1.606a5.217 5.217 0 0 0-1.53-1.084c-.56-.223-1.195-.335-1.941-.335-.897 0-1.531.186-1.905.56-.373.373-.597.784-.597 1.306 0 .262.037.486.15.71.111.224.261.41.522.56.224.186.56.336 1.008.523.411.186.971.336 1.606.522.747.224 1.381.448 1.978.71a5.223 5.223 0 0 1 1.494.858c.411.336.71.747.933 1.195.224.449.336 1.009.336 1.681zm12.21 4.257V9.488h-6.833v6.684h-2.24V1.312h2.24v6.011h6.833V1.312h2.24v14.86h-2.24zm18.072-7.432c0 1.121-.15 2.166-.448 3.1-.299.933-.71 1.755-1.27 2.427-.56.672-1.195 1.195-1.979 1.568-.784.374-1.643.56-2.614.56-.97 0-1.829-.186-2.613-.56-.784-.373-1.419-.896-1.979-1.568s-.971-1.494-1.27-2.427c-.298-.934-.447-1.979-.447-3.1 0-1.12.149-2.165.447-3.098.299-.933.71-1.755 1.27-2.427.56-.672 1.195-1.195 1.979-1.568.784-.374 1.643-.56 2.613-.56.971 0 1.83.187 2.614.56a5.43 5.43 0 0 1 1.979 1.568c.56.672.971 1.494 1.27 2.427.298.933.448 1.979.448 3.099zm-2.278 0c0-1.68-.336-2.986-1.046-3.957-.671-.971-1.68-1.456-3.024-1.456-1.306 0-2.315.485-2.987 1.456-.672.97-1.045 2.315-1.045 3.958 0 1.68.335 2.987 1.045 3.958.672.97 1.68 1.456 2.987 1.456 1.307 0 2.315-.485 3.024-1.456.71-.971 1.046-2.278 1.046-3.958zm16.503-2.799c0 .747-.112 1.456-.373 2.016a3.775 3.775 0 0 1-1.008 1.457c-.448.41-.971.709-1.568.896a6.665 6.665 0 0 1-1.979.298h-3.883v5.564h-2.203V1.312h6.235a6.34 6.34 0 0 1 1.904.298 3.95 3.95 0 0 1 1.531.896c.411.374.747.859 1.008 1.456a6.25 6.25 0 0 1 .336 1.98zm-2.277 0c0-.821-.224-1.456-.71-1.904-.448-.448-1.083-.672-1.867-.672h-3.995V8.48h3.995c.859 0 1.494-.224 1.905-.672.448-.41.672-1.045.672-1.867z" fill="#fff" stroke="#fff" stroke-width=".404" stroke-miterlimit="10"/></svg>