<svg width="20" height="22" viewBox="0 0 20 22" fill="none" xmlns="http://www.w3.org/2000/svg"><path d="M16.669 2.725A9.539 9.539 0 0 0 9.95 0a9.539 9.539 0 0 0-6.717 2.725C1.439 4.483.45 6.82.45 9.305c0 5.028 4.854 9.21 7.461 11.456.363.313.676.582.925.81.312.286.713.429 1.114.429.401 0 .802-.143 1.114-.429.25-.228.563-.497.925-.81 2.607-2.246 7.461-6.428 7.461-11.456 0-2.485-.988-4.822-2.782-6.58zM11.12 19.794c-.37.319-.69.594-.954.836a.322.322 0 0 1-.432 0 44.851 44.851 0 0 0-.954-.836c-2.45-2.112-7.013-6.044-7.013-10.49 0-4.42 3.671-8.015 8.184-8.015s8.184 3.596 8.184 8.016c0 4.445-4.563 8.377-7.014 10.489z" fill="#F8F3E8"/><path d="M9.951 4.853c-2.308 0-4.186 1.84-4.186 4.1 0 2.262 1.878 4.101 4.186 4.101 2.309 0 4.187-1.84 4.187-4.1 0-2.261-1.878-4.1-4.187-4.1zm0 6.913c-1.583 0-2.87-1.262-2.87-2.812 0-1.55 1.287-2.812 2.87-2.812 1.583 0 2.871 1.261 2.871 2.812 0 1.55-1.288 2.812-2.87 2.812z" fill="#F8F3E8"/></svg>