<svg width="30" height="25" viewBox="0 0 30 25" fill="none" xmlns="http://www.w3.org/2000/svg"><path fill-rule="evenodd" clip-rule="evenodd" d="M23.965 18.388H10.1a.621.621 0 0 1-.609-.493L5.971 1.244H0V0h6.474a.622.622 0 0 1 .608.493l3.522 16.651h13.36a2.076 2.076 0 0 0 2.022-1.58l2.399-9.708a.579.579 0 0 0-.562-.718h-15.45V3.894H27.82a1.823 1.823 0 0 1 1.773 2.26l-2.4 9.708a3.317 3.317 0 0 1-3.229 2.526zM13.662 25a2.591 2.591 0 1 1 0-5.183 2.591 2.591 0 0 1 0 5.183zm0-3.939a1.348 1.348 0 1 0 0 2.695 1.348 1.348 0 0 0 0-2.695zm7.454 3.503a2.591 2.591 0 1 0 2.878-4.311 2.591 2.591 0 0 0-2.878 4.31zm.691-3.276a1.347 1.347 0 1 1 1.495 2.24 1.347 1.347 0 0 1-1.495-2.24z" fill="#F8F3E8"/></svg>