<svg width="20" height="24" viewBox="0 0 20 24" fill="none" xmlns="http://www.w3.org/2000/svg"><path fill-rule="evenodd" clip-rule="evenodd" d="M10 13.483c-2.08 0-3.775-1.654-3.775-3.703 0-2.05 1.694-3.703 3.775-3.703 2.08 0 3.775 1.654 3.775 3.703 0 2.05-1.694 3.703-3.775 3.703zm0-1.329c1.358 0 2.45-1.067 2.45-2.374 0-1.307-1.092-2.374-2.45-2.374S7.55 8.473 7.55 9.78c0 1.307 1.092 2.374 2.45 2.374zm.317 11.673l-.315.173-.317-.172a11.156 11.156 0 0 1-.429-.25 24.51 24.51 0 0 1-4.39-3.446C1.833 17.122 0 13.656 0 9.78 0 4.374 4.481 0 10 0s10 4.374 10 9.78c0 3.854-1.833 7.315-4.865 10.333a24.786 24.786 0 0 1-4.39 3.462c-.2.123-.346.207-.428.252zm-1.4-2.054c.437.303.806.539 1.082.704a23.47 23.47 0 0 0 4.205-3.309c2.803-2.79 4.472-5.942 4.472-9.388 0-4.663-3.88-8.45-8.676-8.45-4.796-.001-8.676 3.787-8.676 8.45 0 3.469 1.669 6.625 4.472 9.407.992.984 2.057 1.85 3.12 2.586z" fill="#004236"/></svg>