<svg width="29" height="25" viewBox="0 0 29 25" fill="none" xmlns="http://www.w3.org/2000/svg"><path fill-rule="evenodd" clip-rule="evenodd" d="M14.72 24.74l-.412.26-.411-.26-.002-.001a62.578 62.578 0 0 1-6.448-4.75c-1.579-1.334-3.178-2.847-4.467-4.411-1.293-1.57-2.253-3.165-2.586-4.662L.391 10.9l-.006-.016A7.989 7.989 0 0 1 0 8.392c0-3.07 1.67-5.896 4.355-7.373C7.456-.703 11.518-.18 14.1 2.176l.208.19.208-.19c2.58-2.364 6.6-2.88 9.741-1.162a8.43 8.43 0 0 1 4.359 7.378c0 .876-.143 1.755-.422 2.6l-.005.015-.003.015c-.325 1.47-1.279 3.046-2.567 4.6-1.284 1.55-2.88 3.054-4.456 4.382a62.952 62.952 0 0 1-6.442 4.735zM13.713 4.01l.598.718.594-.718c2.058-2.489 5.754-3.2 8.608-1.637h.001a6.883 6.883 0 0 1 3.551 6.02c0 .713-.113 1.417-.364 2.205-.252 1.117-.934 2.305-1.843 3.483-.917 1.188-2.083 2.388-3.323 3.522-2.48 2.267-5.284 4.292-7.057 5.455l-.17.111-.168-.11c-1.775-1.164-4.58-3.189-7.066-5.47-1.242-1.14-2.411-2.35-3.332-3.552-.914-1.194-1.601-2.401-1.86-3.543a6.879 6.879 0 0 1 3.223-8.12 6.876 6.876 0 0 1 8.608 1.636z" fill="#F8F3E8"/></svg>