<svg width="25" height="25" viewBox="0 0 25 25" fill="none" xmlns="http://www.w3.org/2000/svg"><path fill-rule="evenodd" clip-rule="evenodd" d="M16.511 12.945l-.5.346.574.198a12.451 12.451 0 0 1 4.75 2.98A12.411 12.411 0 0 1 24.993 25h-1.387c-.164-5.987-5.084-10.806-11.11-10.806-6.025 0-10.946 4.82-11.11 10.806H0a12.411 12.411 0 0 1 3.658-8.532 12.451 12.451 0 0 1 4.75-2.979l.575-.198-.502-.346A7.094 7.094 0 0 1 5.4 7.097C5.4 3.184 8.583 0 12.496 0c3.913 0 7.097 3.184 7.097 7.097a7.094 7.094 0 0 1-3.082 5.848zM6.786 7.097a5.716 5.716 0 0 0 5.71 5.71 5.717 5.717 0 0 0 5.71-5.71c0-3.15-2.56-5.71-5.71-5.71a5.717 5.717 0 0 0-5.71 5.71z" fill="#F8F3E8"/></svg>