<?xml version="1.0" encoding="UTF-8"?>
<svg width="43px" height="54px" viewBox="0 0 43 54" version="1.1" xmlns="http://www.w3.org/2000/svg" xmlns:xlink="http://www.w3.org/1999/xlink">
    <!-- Generator: Sketch 63.1 (92452) - https://sketch.com -->
    <title>icons/checkout/beacon/primary_inactive@1x</title>
    <desc>Created with Sketch.</desc>
    <defs>
        <polygon id="path-1" points="0.00734693878 0.107679785 23.9497546 0.107679785 23.9497546 23.9922995 0.00734693878 23.9922995"></polygon>
    </defs>
    <g id="icons/checkout/beacon/primary_inactive" stroke="none" stroke-width="1" fill="none" fill-rule="evenodd">
        <g id="icons/checkout/beacon/primary" transform="translate(4.000000, 5.000000)">
            <path d="M17,0 C26.3888407,0 34,7.78438727 34,17.3869156 C34,25.4846799 28.5873508,32.2894796 21.2604258,34.2233192 L17.1733363,43 L13.1325085,34.3219068 C5.60699318,32.5312454 0,25.6287751 0,17.3869156 C0,7.78438727 7.61115925,0 17,0 Z" id="Combined-Shape" fill="#357A74"></path>
            <g id="masthead/thblogo" transform="translate(5.000000, 6.000000)">
                <g id="POD_No®_Standard_NourishingWhiteRGB">
                    <g id="Group-3">
                        <mask id="mask-2" fill="white">
                            <use xlink:href="#path-1"></use>
                        </mask>
                        <g id="Clip-2"></g>
                        <path d="M16.3479184,0.124748663 C15.7482857,0.23602139 15.295102,0.787893048 15.295102,1.44680214 C15.295102,2.0548877 15.5644898,2.47302674 16.2117551,2.7351016 C21.3554694,4.7462246 24.4307755,10.2894545 22.6572245,15.4737112 C21.0892653,20.0569412 16.9103265,23.3472513 11.9845714,23.3491765 C7.05893878,23.3472513 2.88,20.0569412 1.31204082,15.4737112 C-0.461632653,10.2894545 2.61379592,4.7462246 7.7575102,2.7351016 C8.40477551,2.47302674 8.67416327,2.04898396 8.67416327,1.43550802 C8.67416327,0.77659893 8.22085714,0.23602139 7.62122449,0.124748663 C5.87289796,-0.19944385 -0.0504489796,4.11259893 0.000244897959,11.5114011 C0.0483673469,18.512984 5.44457143,23.9989733 11.9845714,24 C18.5246939,23.9989733 23.901551,18.512984 23.9494286,11.5114011 C24.0002449,4.11259893 18.0962449,-0.19944385 16.3479184,0.124748663" id="Fill-1" fill="#F5EEDB" mask="url(#mask-2)"></path>
                    </g>
                    <path d="M22.3783784,14.4680851 C21.3243802,12.8746935 19.7871356,11.4064724 17.7031049,10.4096683 C17.2353441,10.1858054 17.027027,9.88972877 17.027027,9.40855667 C17.027027,8.84338849 17.4553367,8.34029886 18.0818855,8.34042553 C19.2405953,8.34067894 21.7129929,11.4904685 22.3783784,14.4680851" id="Fill-4" fill="#F5EEDB"></path>
                    <path d="M17.216383,4.2557912 C16.5747548,4.23678822 16.0540541,4.79412398 16.0540541,5.4580805 C16.0540541,5.95955515 16.2456454,6.32405529 16.7728595,6.5695636 C19.7521722,7.95678125 21.53917,10.4445138 22.4877867,13.2765957 C23.0641583,8.32638286 18.7609114,4.30157691 17.216383,4.2557912" id="Fill-5" fill="#F5EEDB"></path>
                    <path d="M1.62162162,14.4680851 C2.67561981,12.8746935 4.21286437,11.4064724 6.29689508,10.4096683 C6.76465593,10.1858054 6.97297297,9.88972877 6.97297297,9.40855667 C6.97297297,8.84338849 6.54478621,8.34029886 5.91823738,8.34042553 C4.75940471,8.34067894 2.28700714,11.4904685 1.62162162,14.4680851" id="Fill-6" fill="#F5EEDB"></path>
                    <path d="M6.62145487,4.2557912 C7.26308304,4.23678822 7.78378378,4.79412398 7.78378378,5.4580805 C7.78378378,5.95955515 7.59219246,6.32405529 7.06497835,6.5695636 C4.08578851,7.95678125 2.29866787,10.4445138 1.35005116,13.2765957 C0.773679558,8.32638286 5.07692646,4.30157691 6.62145487,4.2557912" id="Fill-7" fill="#F5EEDB"></path>
                </g>
            </g>
        </g>
    </g>
</svg>