<svg width="20" height="25" viewBox="0 0 20 25" fill="none" xmlns="http://www.w3.org/2000/svg"><path d="M17.1 2.562C15.38.91 12.999 0 10.396 0 6.418 0 3.972 1.63 2.621 2.998.955 4.683 0 6.92 0 9.137c0 2.783 1.164 4.919 3.113 5.713.131.054.263.081.392.081.411 0 .737-.27.85-.7.066-.248.218-.86.284-1.124.142-.524.028-.776-.282-1.14-.564-.668-.826-1.457-.826-2.483 0-3.05 2.27-6.29 6.479-6.29 3.339 0 5.413 1.897 5.413 4.952 0 1.928-.415 3.714-1.17 5.028-.523.913-1.445 2.002-2.86 2.002-.612 0-1.161-.252-1.508-.69-.328-.414-.436-.95-.304-1.507.149-.63.352-1.287.548-1.923.359-1.16.697-2.256.697-3.13 0-1.496-.92-2.501-2.288-2.501-1.739 0-3.101 1.766-3.101 4.02a5.98 5.98 0 0 0 .427 2.252c-.22.928-1.521 6.446-1.768 7.487-.143.607-1.003 5.405.42 5.788 1.6.43 3.03-4.243 3.176-4.771.118-.43.53-2.053.784-3.052.772.744 2.015 1.247 3.225 1.247 2.281 0 4.333-1.026 5.777-2.89 1.4-1.808 2.171-4.327 2.171-7.094 0-2.163-.929-4.295-2.548-5.85z" fill="#F8F3E8"/></svg>