<svg width="36" height="25" viewBox="0 0 36 25" fill="none" xmlns="http://www.w3.org/2000/svg"><path d="M34.47 2.41C33.493.654 32.434.331 30.276.21 28.121.06 22.7 0 18.005 0 13.3 0 7.877.061 5.723.207c-2.153.125-3.215.445-4.2 2.202C.517 4.161 0 7.18 0 12.493v.018c0 5.291.517 8.332 1.523 10.066.986 1.755 2.045 2.073 4.199 2.22 2.155.128 7.578.203 12.282.203 4.696 0 10.116-.075 12.274-.2 2.158-.148 3.218-.466 4.194-2.22C35.487 20.846 36 17.804 36 12.513v-.019c0-5.315-.513-8.334-1.53-10.086zM13.5 19.317V5.682L24.75 12.5 13.5 19.318z" fill="#F8F3E8"/></svg>