<svg width="29" height="25" viewBox="0 0 29 25" fill="none" xmlns="http://www.w3.org/2000/svg"><path d="M29 2.96a11.844 11.844 0 0 1-3.426.996A6.22 6.22 0 0 0 28.19.469a11.476 11.476 0 0 1-3.77 1.527C23.329.763 21.774 0 20.077 0c-3.291 0-5.941 2.835-5.941 6.31 0 .5.04.98.137 1.438C9.331 7.492 4.957 4.978 2.02 1.15a6.65 6.65 0 0 0-.814 3.188c0 2.185 1.06 4.122 2.641 5.243a5.615 5.615 0 0 1-2.686-.777v.07c0 3.064 2.06 5.61 4.763 6.197a5.615 5.615 0 0 1-1.559.208c-.38 0-.764-.023-1.125-.108.77 2.498 2.956 4.335 5.555 4.394-2.023 1.68-4.59 2.69-7.371 2.69-.488 0-.955-.022-1.423-.086A16.046 16.046 0 0 0 9.12 25c10.94 0 16.922-9.615 16.922-17.95 0-.279-.01-.548-.022-.815C27.2 5.346 28.192 4.237 29 2.96z" fill="#F8F3E8"/></svg>