<svg width="25" height="25" viewBox="0 0 25 25" fill="none" xmlns="http://www.w3.org/2000/svg"><path d="M16.636 12.5a4.136 4.136 0 1 1-8.272 0 4.136 4.136 0 0 1 8.272 0z" fill="#F8F3E8"/><path d="M19.485 0H5.515A5.52 5.52 0 0 0 0 5.515v13.97A5.52 5.52 0 0 0 5.515 25h13.97A5.52 5.52 0 0 0 25 19.485V5.515A5.52 5.52 0 0 0 19.485 0zM12.5 19.393A6.901 6.901 0 0 1 5.607 12.5 6.901 6.901 0 0 1 12.5 5.607a6.901 6.901 0 0 1 6.893 6.893 6.901 6.901 0 0 1-6.893 6.893zm7.904-13.419a1.379 1.379 0 1 1 0-2.757 1.379 1.379 0 0 1 0 2.757z" fill="#F8F3E8"/></svg>