<svg id="Layer_1" data-name="Layer 1" xmlns="http://www.w3.org/2000/svg" width="44.01px" height="42px" viewBox="0 0 44.01 42"><defs><style>.cls-1{fill:#004236;}</style></defs><path class="cls-1" d="M36,0A2.36,2.36,0,0,0,34.1,2.35,2.24,2.24,0,0,0,35.79,4.6c9.45,3.53,15.1,13.25,11.84,22.34a20.84,20.84,0,0,1-39.23,0C5.15,17.86,10.8,8.13,20.25,4.61a2.26,2.26,0,0,0,1.69-2.28A2.34,2.34,0,0,0,20,0C16.79-.54,5.9,7,6,20a22,22,0,0,0,44,0C50.1,7,39.25-.54,36,0Z" transform="translate(-5.99 0)"/><path class="cls-1" d="M47.07,25.23A20.9,20.9,0,0,0,38.52,18a1.8,1.8,0,0,1-1.24-1.78,1.9,1.9,0,0,1,1.89-1.9h0C41.34,14.35,45.85,19.94,47.07,25.23Z" transform="translate(-5.99 0)"/><path class="cls-1" d="M37.77,7.17a2.1,2.1,0,0,0-2.13,2.08v.06a2,2,0,0,0,1.31,2A19.39,19.39,0,0,1,47.42,23.1C48.47,14.36,40.59,7.26,37.77,7.17Z" transform="translate(-5.99 0)"/><path class="cls-1" d="M9,25.23A21,21,0,0,1,17.52,18a1.8,1.8,0,0,0,1.23-1.78,1.89,1.89,0,0,0-1.88-1.9h-.05C14.71,14.35,10.18,19.94,9,25.23Z" transform="translate(-5.99 0)"/><path class="cls-1" d="M18.27,7.17a2.11,2.11,0,0,1,2.14,2.07v.07a2,2,0,0,1-1.32,2A19.4,19.4,0,0,0,8.63,23.1C7.56,14.36,15.44,7.26,18.27,7.17Z" transform="translate(-5.99 0)"/></svg>